<svg width="32" height="33" viewBox="0 0 32 33" fill="none" xmlns="http://www.w3.org/2000/svg">
<path d="M11.437 30.5L3 13.5833L22.9886 27.5391L9.22228 6.82596L29 19.6321L22.1028 4.5" stroke="#B4E41D" stroke-width="6" stroke-linejoin="bevel"/>
<path d="M22 12.3143V19.9013C21.5587 19.6461 21.0464 19.5 20.5 19.5C18.8431 19.5 17.5 20.8431 17.5 22.5C17.5 24.1568 18.8431 25.5 20.5 25.5C22.1569 25.5 23.5 24.1568 23.5 22.5V7.38851C23.5 6.55868 22.6779 5.97932 21.8964 6.25842L12.2964 9.687C11.8188 9.85756 11.5 10.3099 11.5 10.8171V21.4013C11.0587 21.1461 10.5464 21 10 21C8.34315 21 7 22.3431 7 24C7 25.6568 8.34315 27 10 27C11.6569 27 13 25.6568 13 24V15.5285L22 12.3143ZM22 10.7215L13 13.9358V11.0285L22 7.81422V10.7215ZM20.5 21C21.3284 21 22 21.6715 22 22.5C22 23.3284 21.3284 24 20.5 24C19.6716 24 19 23.3284 19 22.5C19 21.6715 19.6716 21 20.5 21ZM10 22.5C10.8284 22.5 11.5 23.1715 11.5 24C11.5 24.8284 10.8284 25.5 10 25.5C9.17157 25.5 8.5 24.8284 8.5 24C8.5 23.1715 9.17157 22.5 10 22.5Z" fill="#141414" stroke="#141414" stroke-width="0.5"/>
</svg>
