<svg width="32" height="33" viewBox="0 0 32 33" fill="none" xmlns="http://www.w3.org/2000/svg">
<g clip-path="url(#clip0_498_3421)">
<path d="M1.88814 14.2648L16.437 2.50623L7.35023 24.1873L24.3952 6.63027L16.3782 27.8456L29.5377 17.9249" stroke="#B4E41D" stroke-width="6" stroke-linejoin="bevel"/>
<path d="M11 11.3584C10.4477 11.3584 10 11.8061 10 12.3584C10 12.9107 10.4477 13.3584 11 13.3584H21C21.5523 13.3584 22 12.9107 22 12.3584C22 11.8061 21.5523 11.3584 21 11.3584H11Z" fill="#141414"/>
<path d="M11 15.3584C10.4477 15.3584 10 15.8061 10 16.3584C10 16.9107 10.4477 17.3584 11 17.3584H18C18.5523 17.3584 19 16.9107 19 16.3584C19 15.8061 18.5523 15.3584 18 15.3584H11Z" fill="#141414"/>
<path fill-rule="evenodd" clip-rule="evenodd" d="M9 6.3584C7.34315 6.3584 6 7.70154 6 9.3584V19.3584C6 21.0153 7.34315 22.3584 9 22.3584H11V25.3584C11 26.1824 12 26.8584 13 25.8584L16.6144 22.3584H23C24.6569 22.3584 26 21.0153 26 19.3584V9.3584C26 7.70154 24.6569 6.3584 23 6.3584H9ZM12 20.3584C12.5523 20.3584 13 20.8061 13 21.3584V23.3584L15.4 20.5584C15.5731 20.4286 15.7836 20.3584 16 20.3584H23C23.5523 20.3584 24 19.9107 24 19.3584V9.3584C24 8.80611 23.5523 8.3584 23 8.3584H9C8.44772 8.3584 8 8.80611 8 9.3584V19.3584C8 19.9107 8.44772 20.3584 9 20.3584H12Z" fill="#141414"/>
</g>
<defs>
<clipPath id="clip0_498_3421">
<rect width="32" height="32" fill="white" transform="translate(0 0.5)"/>
</clipPath>
</defs>
</svg>
