<svg width="24" height="24" viewBox="0 0 24 24" fill="none" xmlns="http://www.w3.org/2000/svg">
<path fill-rule="evenodd" clip-rule="evenodd" d="M14.5869 2.94053C13.0993 1.68649 10.9289 1.6865 9.44134 2.94053L3.42723 7.6874C2.52245 8.45013 2 9.5753 2 10.7611V17.9857C2 20.2027 3.79086 22 6 22L10 22H14L19 22C21.2091 22 22 20.2027 22 17.9857V10.7611C22 9.57529 21.4776 8.45013 20.5728 7.6874L14.5869 2.94053ZM16 19.9928L19 19.9929C20.1046 19.9929 20 19.0942 20 17.9857V10.7611C20 10.1682 19.7388 9.60564 19.2864 9.22427L13.3005 4.4774C12.5567 3.85038 11.4715 3.85038 10.7277 4.4774L4.71361 9.22427C4.26122 9.60564 4 10.1682 4 10.7611V17.9857C4 19.0942 4.89543 19.9929 6 19.9929L8 19.9928V13.9714C8 12.8629 8.89543 11.9643 10 11.9643H14C15.1046 11.9643 16 12.8629 16 13.9714V19.9928ZM10 19.9928H14V13.9714H10V19.9928Z" fill="#141414"/>
</svg>
