<svg width="16" height="16" viewBox="0 0 16 16" fill="none" xmlns="http://www.w3.org/2000/svg">
<path d="M8.26824 2.67015C7.33329 2.66667 6.87547 3.31978 6.87547 4.05118L6.87477 5.41449L6.86052 5.41764C3.6987 6.02231 0.666626 8.60854 0.666626 11.6598C0.666626 11.8815 0.678909 12.1024 0.703205 12.3216C0.761124 12.8439 1.48152 13.0316 1.82679 12.6143L1.95711 12.462C2.97516 11.3116 5.12223 10.557 6.72584 10.3593L6.87477 10.3427L6.87547 11.9489C6.87547 12.2584 6.98793 12.5591 7.19486 12.8028C7.70587 13.4047 8.64864 13.5102 9.30061 13.0385L14.7586 9.08966C14.8536 9.0209 14.9393 8.94179 15.0138 8.85405C15.5248 8.25224 15.4106 7.38198 14.7586 6.91029L9.30061 2.96149C9.03659 2.77048 8.71082 2.66667 8.37536 2.66667L8.26824 2.67015Z" fill="#141414"/>
</svg>
