<svg xmlns="http://www.w3.org/2000/svg" width="120" height="120" fill="none"><path stroke="#B4E41D" stroke-linejoin="bevel" stroke-width="26.7" d="m43.8 108.6-30-63.2 71 52.2L36 20 106.2 68 81.7 11.4"/><path fill="#fff" d="M13.8 98.5 40 44.9s17.3 6.7 34 37L13.7 98.5Z"/><path fill="#141414" d="m36.3 54-2.5 5.3c-.3.7-.8 1.3-.9 2.1 0 .4-.6 1-.9 1.6l-2.4 5-2.2 4.9c-.8 1.6-1.7 3.2-2.3 4.8-.5 1.4-1.3 2.5-1.9 3.8-.6 1.3-1.2 2.8-2 4l-1.5 2.9-.7 1.9c-.3.6-.8 1.2-.8 1.9l-.3.4c-.5.6-.8 1.4-1 2-.1.6-.4 1-.6 1.5l-.2.4 3.2-.6 3.4-1c1.1 0 2.1-.3 3.2-.6.6-.2 1.3-.2 1.7-.6l.4-.1c1.8-.1 3.3-1 5-1.4l5.4-1.4c.5-.1 1-.2 1.4-.5l.9-.3c1.4 0 2.7-.6 4.1-.9 1.5-.3 3-.9 4.7-1 .6-.1 1.6-.3 2.3-.8.3-.2 1.1-.3 1.7-.5l1.3-.5 1.2-.1.4-.1c2.2-1 4.5-1.1 6.8-1.8 2.2-.7 4.5-1.3 6.8-1.8 1.3-.3 2.6-.6 3.6-.3.5.1.6.4 0 .7l-1.2.5-2 .8c-1.5.4-2.9 1-4.5 1.3-.4.1-1 .4-1.4.3h-.4c-1.9 1-4 1.2-6 1.8-1.8.5-3.4 1.2-5.2 1.6-1 .5-2 .8-3 1-3.6.5-7 1.7-10.5 2.5L29 95.5c-.6.1-1 .4-1.8.5-.7 0-1.5.4-2.3.6l-2 .5a39 39 0 0 0-3.5.7l-3.8 1h-1c-.4 0-.7-.3-.9-.7-.2-.4-.1-.8 0-1.3l.7-1.5 1-1.9 1.8-3.8c.7-1.6 1.3-3.2 2.1-4.7.3-.7.5-1.5 1.1-2l.5-1.3 1.5-3.2 2.2-4.5 1.1-2.7 1.4-2.9 1.9-3.5c.6-1.2 1.1-2.6 1.8-3.7 1.3-2.1 2.3-4.4 3.4-6.6a160 160 0 0 0 3.1-6.6c.6-1.3 1.4-2.3 2-3.5.2-.6 1.2-1 1.3-.7v.3c-.4 1.2-.6 2.5-1.3 3.8l-3 6 .1.2Z"/><path fill="#141414" d="m54.3 53-4-3.2c-.4-.4-.8-1-1.5-1.2-.3-.1-.6-.7-1.1-1-1.3-1-2.6-1.9-4-2.5-.6-.3-1.3-.6-1.8-.6s-.4.1-.5.7c0 1.2.3 2.8 1 4 .5 1.2.8 2.3 1.4 3.3l1.9 3.5 1.3 2.4c.4.5.8.8 1.1 1.4.3.5.6 1 1.2 1.3l.2.4c.2.6.7 1.2 1 1.6.5.3.7.7 1 1l2.5 3 1.9 2.3 2.1 2.2c.6.8 1.3 1.4 2 2 .4.3.8.8 1.3.9 0 0 .2 0 .3.2.9 1.2 2.4 1.7 3.6 2.7 1.2 1 2.6 1.7 4 2.5.3.1.7.4 1.1.4.2 0 .5.1.7.3l1.5.6h1V80l-.5-1.9c-.2-.5-.5-1.3-1-1.7l-.8-1.3-.7-1-.5-1a1 1 0 0 0-.2-.2c-1.4-1.5-2-3.5-3.2-5.2-1-1.7-2.1-3.6-3.3-5.3a34.8 34.8 0 0 0-1.8-2.3l.8.9 1.2 1.4 2.7 3c.3.3.7.7.8 1l.2.3c1.3 1.2 2.5 2.7 3.5 4.3.9 1.4 2 2.5 2.7 4 .6.7 1 1.7 1.4 2.5l.6 2.2v1.3c0 .3 0 .5-.2.8l-.5.8c-1.5.9-2.5.3-3.5.2a46.8 46.8 0 0 1-10.6-6.5c-.4-.4-1-.6-1.3-1l-1.6-1.5-1.4-1.3c-1.6-2-3.4-3.7-5-5.6l-4.5-6c-1-1.3-1.9-2.5-2.6-3.8-.3-.6-.8-1.1-.9-1.8 0-.2-.5-.7-.7-1a37.6 37.6 0 0 1-2.9-7.1c-.2-1-.6-1.8-.1-3.2 0-.3.4-.7.6-1a3 3 0 0 1 1.2-.5c.8-.1 1.3 0 1.9.2 1.2.5 2.2 1.1 3.3 1.8 1 .7 2.1 1.4 3 2.2 1.5 1.5 3.3 2.9 4.7 4.5l4 5 2.3 2.7.7.8-.2-.1c-.7-1-1.4-1.7-2.4-2.7l-4.4-4ZM19 87.5l2.2-3.3s10.3 7.2 14.7 8.1l-8.3 2.1s-7.4-3.9-8.5-7v.1Z"/><path fill="#141414" d="M24.8 86.2h-.2V86h-.1l-.1-.1h-.2v-.2H24l-.1-.1v-.1h-.4v-.1l-.1-.1h-.2v-.2H22.9l-.1-.1h-.1V85h-.1v-.2h-.2v-.2h-.2l-.1-.1-.1-.2h-.1l-.2-.1-.3.5h.1v.1h.2v.1h.2v.1h.2v.2h.2l.1.1v.1h.2v.1h.2v.1h.1v.2h.4v.1l.1.1H23.7v.1h.1v.1l.1.1.1.1h.2l.1.1v.1h.2l.3-.5Z"/><path fill="#141414" d="M28 88.2h-.2l-.1-.1h-.2V88h-.1l-.1-.1-.1-.1H27v-.1h-.4v-.2H26.3v-.1l-.1-.1h-.1l-.1-.1h-.2l-.1-.1v-.2h-.1v-.1h-.2v-.1h-.2l-.1-.1v-.1H25l-.1-.1v-.1h-.2l-.3.5h.1v.1h.2v.1h.2c0 .1 0 0 0 0l.1.1.1.1h.2v.1h.2v.1l.1.1h.1l.1.1h.2v.1l.1.1H26.5v.1h.2l.1.1.1.1.1.1v.1h.2l.1.1h.2v.1l.1.1.4-.6h-.1v.2ZM31.3 90H31l-.1-.1H30.6v-.1h-.1v-.1h-.1v-.1H30l-.1-.1v-.1h-.2v-.2h-.2l-.1-.1H29V89H29v-.2l-.1-.1h-.1v-.1H28.5l-.1-.1v-.1h-.1l-.1-.2H28l-.3.5.1.1h.2v.2h.4v.1h.2v.1h.2v.1h.1v.1h.2v.1h.2v.1H29.8v.1h.1l.1.1h.2l.1.1h.1v.1h.1v.1h.2v.2H31l.1.1.3-.6v.3ZM34.6 91.7h-.2v-.1h-.2l-.1-.1h-.2l-.1-.1h-.1v-.1h-.4v-.1c-.2-.1 0 0-.1 0H33V91h-.2l-.1-.1H32.3v-.1l-.1-.1-.1-.1h-.1v-.1H31.8l-.1-.2h-.1l-.1-.1-.1-.1-.3.6H31.4v.1h.2c0 .1 0 0 0 0l.1.1h.1v.1h.2v.1h.2l.1.1h.2l.1.1.1.1h.2v.1H33.3v.1h.4v.1h.1l.1.1v.1h.1l.1.1H34.3l.1.1h.1l.2-.5ZM31.3 93.8h.4l.1-.2h.4l.1-.1h.4l.1-.1H33.2l.1-.1h.1v-.1h.7l.1-.1h.5l-.1-.6h-.6l-.2.1h-.1v.1H33l-.2.1h-.4v.1H32v.1h-.6v.1h-.2v.1H31v.6h.1Z"/><path fill="#141414" d="M27.9 94.7H28.2v-.1h.2v-.1h.5v-.2H29.6v-.1h.4V94h.5l.2-.1h.6l-.1-.7H30.8v.1h-.6l-.1.1h-.4l-.1.1H29.2l-.1.1h-.4l-.1.1h-.1v.1H28l-.1.1H27.5l.2.7Z"/><path fill="#141414" d="M24.2 92.8h.2l.1.1.1.1h.2v.1h.1l.1.1.1.1H25.4l.1.1v.1h.2l.1.2h.2v.1H26.3v.1h.1v.1l.1.1h.1v.1h.2l.1.1h.1v.2h.2l.1.1.3-.5-.2-.1h-.2v-.1h-.1c-.1-.1 0 0 0 0l-.1-.1h-.1l-.1-.1h-.2v-.1h-.1l-.1-.1h-.2v-.1H26l-.1-.2H25.7l-.1-.1H25.2V93H25v-.2H25v-.1h-.1v-.1H24.5v-.1h-.1l-.4.5h.1v-.2Z"/><path fill="#141414" d="M21.3 90.7h.2v.1h.1v.1h.1v.1h.2v.1l.1.1.1.1H22.5l.1.1v.1h.2v.2h.2l.1.1.1.1h.1l.1.1v.1l.1.1v.1h.2v.1h.2v.1l.1.1.2.1v.1l.4-.5-.1-.1H24V92h-.2l-.1-.2h-.2l-.1-.1h-.1v-.1h-.2v-.1H23v-.2H22.6v-.1h-.1V91H22.3V91h-.1v-.2H22v-.1H22v-.1h-.2v-.1l-.1-.1-.4.5v-.2ZM18.9 87.8v.1h.1v.2l.1.1h.1v.2h.1v.1h.1v.2h.2v.1h.1v.2c.1.1 0 0 .1 0v.1h.1v.2h.2v.1h.1v.1h.1l.1.1v.2l.2.1v.1h.1v.1h.2v.2l.1.1v.1l.5-.5h-.1l-.1-.1H21v-.2c-.1 0 0 0 0 0H21l-.1-.1v-.2h-.2l-.1-.1-.1-.1-.1-.1v-.2h-.2v-.2H20l-.1-.1v-.1h-.1v-.1h-.2V88l-.1-.1h-.1v-.1l-.1-.1v-.2l-.6.2v.1ZM20.8 84.3v.2h-.1v.1h-.1V85h-.1l-.1.1v.1h-.1V85.4l-.1.1h-.1v.2H20l-.1.1v.1l-.1.1v.2h-.1v.1h-.2v.2h-.1v.1h-.1v.2h-.1v.1l-.1.1H19v.2l.5.3v-.1h.1v-.2h.1V87l.1-.1v-.1l.1-.1v-.1l.1-.2h.1v-.2l.1-.1V86h.2V85.6h.1V85.3l.1-.1.1-.1h.1V85h.1V85h.1V84.6h.1l-.5-.4h.1ZM34.7 91.7l.4.1h.1l.1.1.5.1.4.2.3.1h-.1l-.2.2H36v.1l-.5.1-.3.1-.4.1-.2-.6V92l.2-.3h-.1ZM27.8 94.7v-.1h-.2l.3-.5.2.6h-.3Z"/><path fill="#141414" d="M18.9 87.8v-.4l.5.3h-.1l-.1.1-.3.2v-.2ZM20.8 84.3V84h.4l-.4.6-.6-.4h.6ZM25.4 74.8l4.8-8.8s9.4 18.2 16.2 23.4l-6 1.5s-8.8-7.5-15-16Z"/><path fill="#141414" d="m32.6 69.8-.1-.1v-.1l-.1-.1-.1-.1v-.1h-.1V69H32v-.1c0-.1-.2 0-.2 0v-.2h-.1v-.2l-.1-.1h-.1v-.2h-.1V68l-.1-.1-.1-.1v-.4h-.1v-.2h-.1L31 67V66.8h-.1V66.5l-.6.3v.2l.2.1v.2l.1.1v.1h.1V67.9l.1.1v.1l.1.1v.1l.1.1v.2h.2v.2l.1.1v.1h.1v.2h.1v.1l.2.1v.5h.2v.4l.1.1.6-.3v-.2ZM34.5 73.1h-.1v-.2l-.1-.1v-.1H34v-.2l-.1-.1v-.2h-.2V71.8c-.1-.1 0 0-.1 0v-.1h-.1v-.2h-.1v-.2h-.1v-.1h-.1v-.1l-.1-.1v-.4H33v-.2h-.1v-.2l-.1-.1V70l-.6.3v.1l.1.1.2.1V70.9h.2V71.3l.1.1v.1l.1.1v.1l.1.1v.2h.2v.2l.1.1v.1h.1v.2h.1v.1h.2v.5h.1l.1.1v.1l.1.1v.2l.6-.3v-.2Z"/><path fill="#141414" d="m36.6 76.5-.1-.1v-.1l-.1-.1-.1-.1h-.1v-.2H36v-.1H36v-.2h-.2V75.2l-.1-.1h-.1V75l-.2-.1v-.2h-.1v-.1h-.1v-.4H35V74H35v-.1h-.1v-.2l-.1-.2-.1-.2-.5.3v.2l.2.1v.1l.1.1v.1l.1.1v.2h.2V74.8l.1.1v.1h.1v.2l.2.1v.2h.1v.1l.1.1v.1l.2.1.1.1v.4l.2.1v.2h.2V77l.6-.3-.1-.2Z"/><path fill="#141414" d="M38.7 79.7h-.1v-.1h-.1v-.2h-.1v-.1h-.2V79L38 79v-.2h-.2l-.1-.1v-.2h-.1v-.1h-.1v-.2h-.1V78h-.1l-.1-.1-.1-.1V77.5l-.1-.1v-.1H37v-.1l-.1-.1v-.2l-.1-.1v-.1l-.1-.1-.5.3V77.2h.2v.1l.1.1c0 .1 0 0 0 0v.2h.2V77.9h.1v.2h.1v.1l.2.1v.2h.1v.2l.2.1V79.1h.2v.1h.2v.5h.1v.2h.2V80.3l.6-.3v-.2Z"/><path fill="#141414" d="M41 82.9h-.1l-.1-.1v-.1h-.1v-.2h-.2v-.2l-.1-.1V82H40v-.1l-.1-.1v-.2h-.1l-.1-.1v-.2h-.1v-.1h-.1V81h-.1V81l-.1-.1v-.2l-.1-.1v-.1h-.1v-.2H39V80L39 80v-.1l-.1-.1-.5.3v.1l.1.1.2.1v.1c.1.2 0 0 0 .1l.1.1h.1v.2l.1.1v.1l.1.1v.1h.1v.1l.1.1v.2h.2v.2l.1.1.1.1v.1l.2.1.1.1.1.1v.4h.2v.1l.1.1v.2l.6-.3v-.1ZM43.3 86v-.1h-.1v-.1H43v-.2H42.7v-.2l-.1-.1-.1-.1V85h-.2l-.1-.1v-.2h-.1v-.1H42v-.2h-.2v-.2h-.2v-.1l-.1-.1v-.2l-.1-.1v-.1h-.2v-.1l-.1-.2v-.1L41 83 41 83l-.5.4v.1l.1.1h.1v.2h.2c0 .1 0 0 0 0v.1l.1.1v.1l.2.1v.1l.1.1v.1h.1v.1l.1.1v.1l.1.1h.1v.1h.1v.1l.1.1.1.1v.1l.2.1h.1v.1l.1.1v.2l.1.1v.1h.1v.1h.2V86.6l.5-.4v-.2ZM46 88.7h-.2v-.2h-.2v-.2h-.1l-.1-.1h-.1V88H45v-.1l-.1-.1v-.1c-.1-.1 0 0 0 0l-.1-.1h-.1v-.2h-.2v-.2H44.1V86.9H44v-.1H44v-.1h-.1v-.1h-.1l-.1-.1v-.2h-.1v-.1l-.1-.1-.5.4.1.1h.2v.2h.1v.1l.1.1.1.2h.2v.1l.1.1v.1h.1v.1h.1l.1.1v.1l.2.1v.1l.1.1.1.1.1.1v.1h.1l.2.1.1.1v.1l.1.1.2.1v.1h.2v.1l.1.2.4-.5v-.1ZM40.7 91.1h.1l.1-.1h.4v-.1h.1l.1-.1h.7l.1-.2h.6l.1-.1H43.3v-.1h.4l.1-.1.2-.1h.7l.1-.1h.2l.1-.1h.7l-.1-.7h-.4v.1l-.2.1h-.7l-.2.2h-.5l-.2.1h-.2l-.2.1H42.8l-.1.1h-.4l-.1.1h-.1l-.1.1h-.7v.1H41l-.2.1H40.6l.1.6h.1l-.1.1ZM37.4 88.6h.1l.1.1v.1h.2v.1h.2v.2h.2v.2h.2l.1.1v.1c.1 0 0 0 0 0h.2v.2h.2v.2H39.3V90.2h.1v.1h.2v.1h.1v.1h.2v.2l.1.1v.1l.5-.5h-.1l-.1-.1H40v-.1H40c-.1-.1 0 0 0-.1h-.2v-.2h-.2l-.1-.2h-.1v-.1h-.1l-.1-.1v-.1H39v-.1H39l-.1-.1h-.1V89h-.1v-.2H38.4v-.1h-.1v-.2H38v-.1H38l-.1-.2-.5.4ZM34.8 86.1h.1l.1.1v.1h.2v.1h.2v.2h.2v.2h.2l.1.1v.1c.1.1 0 0 0 .1h.2v.2h.2v.1h.2v.1h.1v.2l.1.1.1.1v.1h.2v.1h.1v.2h.1v.1l.1.1.5-.5h-.1l-.1-.1h-.1v-.1h-.1l-.1-.1-.1-.1-.1-.2H37l-.1-.1-.1-.1-.1-.1h-.1V87h-.1v-.2h-.2v-.1h-.1v-.1H36v-.1H35.8v-.1l-.1-.2-.1-.1-.1-.1h-.1v-.2h-.1v-.1l-.5.4ZM32.3 83.5l.1.1.1.1v.1H32.9V84.2h.1v.1H33.3v.1l.1.1v.1h.1l.1.1v.1h.2v.2h.2v.1h.1V85.4h.2v.1h.1v.1l.2.1v.2l.1.1v.1l.5-.5H35v-.1h-.2v-.1l-.1-.1V85h-.1V85l-.1-.1h-.1l-.1-.2h-.1v-.1H34l-.1-.1v-.2h-.2l-.1-.2h-.1l-.1-.1v-.1H33.2V83.5H33v-.1H33v-.1h-.2v-.2l-.1-.1-.5.4ZM29.8 80.9h.1l.1.1.1.1.1.1h.1v.2h.1v.1l.1.1h.2v.1l.1.1v.1c.1 0 0 0 0 0h.2v.2h.2v.2h.1l.2.1V82.7h.1v.2h.2l.1.1v.2l.1.1.1.1.5-.4-.1-.1h-.2v-.2h-.1v-.1l-.1-.1v-.1l-.1-.1h-.1v-.1h-.1l-.1-.2-.1-.1h-.1v-.2h-.1v-.1h-.1v-.1h-.1l-.1-.1-.1-.1-.1-.1h-.1l-.1-.1v-.2h-.1v-.1h-.1v-.1h-.2v-.2l-.5.3ZM27.5 78.1h.1v.1l.1.1h.1v.1h.2v.2l.1.1v.1h.2v.1h.1v.2l.1.1h.1v.2h.1v.1h.1v.1h.1l.1.1.1.1v.2h.1v.2h.2v.1h.1v.2l.1.1v.1l.5-.4-.1-.1h-.2V80c-.1-.1 0 0 0 0l-.1-.2h-.1v-.2h-.2v-.1l-.1-.1v-.1H29V79L29 79v-.1h-.1v-.1h-.1v-.1h-.1v-.2h-.1l-.2-.1V78h-.2v-.1H28v-.2l-.1-.1-.5.4v.1ZM25.3 75.2l.2.1v.2h.1v.1h.2v.2l.1.1v.1h.2v.1l.1.1v.2h.2v.2h.1v.2h.2c0 .1 0 0 0 0v.1h.1V77.2l.1.1v.1h.2v.1h.1v.2l.1.1v.1l.1.1.5-.4-.1-.1h-.1v-.2h-.1c-.1-.1 0 0-.1 0V77h-.1v-.2h-.2v-.2H27v-.2h-.2v-.2h-.1V76h-.2v-.1l-.1-.2h-.2v-.1h-.1V75.2l-.1-.1V75H26v-.2l-.1-.1-.5.3-.1.1Z"/><path fill="#141414" d="M27.4 70.5v.2l-.1.1v.1h-.1v.2H27v.2l-.1.1-.1.2-.1.1v.4h-.2V72.4l-.1.1v.2h-.1l-.1.1v.4h-.1l-.2.1v.1h-.1v.2h-.1v.2h-.1v.2l-.1.1-.1.1v.1l-.1.1-.1.1.6.3v-.2h.1v-.2l.1-.1V74h.1v-.2h.1l.1-.1v-.2l.1-.2.1-.1.1-.1V73h.1v-.2l.2-.1V72.4l.1-.2.1-.1V71.8h.1v-.2h.1l.1-.1.1-.2v-.1c.1 0 0 0 0-.1V71l.2-.1v-.2l-.5-.3v.1ZM29.6 66.5v.2h-.1v.1l-.1.1v.1l-.1.1v.1l-.1.1v.1l-.1.1v.1H29v.4l-.2.1v.2l-.1.1v.2l-.2.1v.4h-.1v.1h-.2v.1l-.2.1V69.7l-.1.1v.2h-.2v.2l-.2.1v.2l.5.3.1-.1v-.1l.1-.1v-.2h.1V70l.1-.1v-.1l.1-.1h.1V69.4l.1-.1v-.1h.1l.1-.2v-.2h.1v-.2h.1v-.2h.1v-.2l.1-.1.1-.2V67.6h.1v-.1h.1l.1-.2.1-.1v-.1c.1-.1 0-.1 0-.2l.2-.2v-.1l-.5-.3ZM46 88.7h.1l.1.2v.1h.1l.2.2V89.5h-.1v.1H46l-.2.1-.2-.6h.1l.1-.2.2-.3v.1ZM40.6 91.2V91h-.2l.4-.5.2.6h-.4ZM25.3 75.2v-.5l.5.3-.5.4v-.2Z"/><path fill="#141414" d="m29.6 66.4.1-.2V66l.1-.1.2-.2v.1h.1v.1l.1.1.1.2.1.1-.5.4-.6-.3h.3ZM33.4 59.9l2.5-4.2s15.8 18.1 31.7 27.8L57 87s-14.4-8.5-23.5-27.1Z"/><path fill="#141414" d="M39 58.5h-.2v-.1h-.1v-.2H38.3V58l-.2-.1v-.2s-.2.1-.2 0l-.1-.1v-.1c-.1 0 0 0 0 0l-.2-.1v-.1h-.2V57c-.1-.1 0 0-.1 0l-.2-.1V56.6l-.1-.1v-.1h-.2v-.1h-.1v-.2l-.1-.2h-.1l-.5.3v.1h.1v.1h.2v.1l.1.1c0 .1 0 0 0 0l.1.1v.1l.1.1h.1v.1l.1.1.1.1v.1h.1l.1.1v.1l.1.1v.1h.1l.1.1.1.1.1.1v.1h.1l.2.1v.2l.1.1v.1h.1v.1h.2v.2l.1.1.5-.5ZM41.5 61.3v-.1h-.2V61l-.1-.1-.1-.1H41v-.1h-.1v-.1h-.1v-.2H40.4v-.1h-.1v-.2h-.2V60H40v-.1h-.1v-.1h-.1v-.1h-.1V59.3h-.2v-.1h-.1v-.1l-.2-.1v-.2l-.1-.1v-.1l-.6.4h.1v.1h.2v.2h.1l.1.1v.1h.1v.1l.1.1h.1v.1l.1.1.1.1v.1h.1l.1.1v.1h.1v.1l.1.1.1.1h.1v.1h.1v.2h.2l.1.1a40.4 40.4 0 0 0 0 .1v.1h.1v.1h.1v.1h.2v.2l.1.1.5-.4v-.1ZM44.2 63.9H44l-.1-.2h-.1l-.1-.2h-.1l-.1-.1-.1-.1v-.1h-.2V63H43v-.2h-.2v-.2h-.1l-.1-.1h-.1v-.1h-.1v-.1h-.1V62h-.1V62H42v-.1h-.1v-.2h-.1l-.1-.2-.5.4h.1v.1h.2v.2c.1.1 0 0 .1 0v.1h.2v.2h.1v.1l.1.1.1.1.1.1.2.1v.1l.1.1.1.1.1.1.1.1.1.1.1.1h.1v.1h.1v.2h.1v.1h.2v.1h.1v.2l.1.1.5-.5V64Z"/><path fill="#141414" d="M46.8 66.5h-.2v-.1l-.1-.1h-.1v-.1h-.2V66l-.2-.1v-.1h-.2l-.1-.1v-.1c-.1-.1 0 0 0 0l-.2-.1v-.1h-.2v-.2H45V64.8h-.1v-.1h-.1v-.2h-.2l-.1-.1v-.1l-.1-.1v-.1l-.1-.1-.5.4h.1v.1h.2v.2h.1l.1.1.1.1v.1h.2v.2h.1v.1h.1v.2h.2v.1h.1v.1l.1.1.1.1h.1l.1.1v.2H45.9a40.6 40.6 0 0 0 .1.2l.1.1.1.1.1.1h.1v.1l.1.2.4-.5v-.1ZM49.6 69H49.3v-.1h-.1l-.1-.2H49l-.1-.1h-.1v-.2H48.5l-.1-.2V68h-.2v-.2H48v-.2h-.1c-.1 0 0 0 0 0h-.2V67.3h-.1l-.1-.1v-.1h-.1l-.1-.1h-.1v-.2H47v-.2H47l-.5.4h.1v.1h.2v.2h.2v.1l.1.1v.1h.2v.1l.1.1v.1h.1v.1h.2v.2h.1l.1.2h.1l.1.1.1.1v.1H48.6v.1h.1v.2h.1v.1h.1v.1h.2v.2l.1.1.5-.5h-.1ZM52.3 71.6H52v-.2h-.2v-.2h-.2V71h-.2v-.2H51.2v-.2H51l-.2-.1v-.1h-.1v-.1l-.1-.1h-.2v-.1h-.1V70l-.1-.1h-.1v-.2H50l-.1-.1v-.1l-.1-.1v-.1l-.1-.1-.5.5h.2v.1h.2v.2c.2.1 0 0 .1 0v.1h.1v.2h.2v.1l.1.1h.1v.1h.1v.1h.1l.1.1h.1v.2h.1l.1.1h.1v.1h.1v.1H51.3v.1a40.6 40.6 0 0 0 .1.2h.1v.1h.1v.1h.2v.2h.1l.4-.4ZM55.2 74H55l-.1-.1-.1-.2h-.2v-.1h-.1v-.1h-.1v-.2H54V73h-.2V73l-.1-.1h-.1l-.1-.2h-.2l-.1-.1v-.2H53v-.2h-.2l-.1-.1V72l-.1-.1v-.1l-.2-.1-.4.5h.2v.1h.2v.1l.1.1v.1h.1v.1h.2v.1l.1.1.2.1v.1h.2v.2h.1v.1h.2v.1h.1v.1h.1v.1H54.2v.1a40.4 40.4 0 0 0 .2.2v.1h.2v.1h.2v.2l.5-.5v.1ZM58 76.4h-.2v-.2h-.1l-.1-.2h-.1l-.1-.1h-.2v-.2H56.9v-.2h-.2l-.1-.1v-.1h-.2v-.1h-.1c-.1-.1 0 0 0-.1H56v-.2l-.1-.1h-.1v-.2h-.2l-.2-.1v-.1l-.1-.1v-.1l-.1-.1-.5.5h.1v.1h.2l.1.2h.1c.1 0 0 0 0 0l.1.1.1.1v.1h.2l.1.1.1.1v.1h.2v.2h.2v.1h.2l.1.1.1.1v.1H57v.1a40.6 40.6 0 0 0 .1.2h.1v.1h.1l.1.1h.1v.1h.1v.1l.5-.5ZM61 78.6h-.2l-.1-.1h-.1v-.2h-.2v-.1h-.2V78h-.4v-.2c-.1 0 0 0 0 0h-.2v-.1h-.2v-.2H59v-.2H59v-.1l-.1-.2h-.2v-.1h-.1l-.1-.1-.1-.2h-.1l-.1-.2-.4.5.1.1h.2v.2h.2c0 .1 0 0 0 0v.1h.1v.1l.1.1h.2v.1h.1l.1.1v.1h.2v.1h.1l.1.1h.1v.1h.2v.1h.1v.1h.2l.1.1.2.1v.1l.1.1h.1v.1h.2v.1h.1v.1l.5-.5H61l-.1.1ZM64 80.8h-.2v-.1h-.1v-.1H63.4v-.1l-.1-.1h-.1v-.1H63l-.1-.1h-.1V80H62.5v-.2H62.2c-.1-.1 0 0 0-.1H62v-.2l-.1-.1v-.1h-.1v-.1h-.2l-.1-.1-.1-.1-.1-.1-.1-.1-.1-.1-.4.5h.1v.1h.2l.1.2h.1c.1 0 0 0 0 0l.1.1.1.1h.2v.1l.2.1v.1h.2l.1.2h.2v.1h.2v.1h.2v.1h.2l.1.1.1.1v.1h.1v.1h.2v.1h.2v.2h.1l.5-.5H64v.1ZM67.1 82.8h-.2l-.1-.1H66.5v-.2h-.1l-.1-.2h-.5V82h-.2v-.2h-.4v-.1H65v-.2l-.1-.1h-.1v-.2h-.4V81h-.1l-.1-.2h-.1l-.4.5h.1v.1h.2l.1.1h.1c.1.1 0 0 0 .1h.1l.1.1.1.1h.1v.1h.2v.1H65.1v.2h.2v.1h.2l.1.1h.1v.1H66l.1.1.1.1v.1h.1v.1h.1l.1.1h.2v.1h.1l.4-.5v.1ZM63.8 85.1l.1-.1H64.2l.1-.2h.4v-.2h.6l.1-.2H65.7l.1-.1h.6l.1-.1h.5l-.2-.7h-.2v.1l-.1.1H65.9v.1l-.1.1H65.5v.1H65v.1h-.2v.1H64.5l-.1.1H64v.1h-.2v.1h-.2l.1.6h.1ZM60.5 86.1h.4V86l.1-.1h.5v-.2H61.9l.1-.1h.1l.1-.1H62.4v-.1h.6v-.1h.2v-.1h.5l-.2-.6h-.2v.1h-.4l-.1.1h-.1l-.1.1h-.2l-.1.1h-.4v.1h-.2l-.1.1H61.2v.1h-.1v.1h-.6l-.1.1h-.2l.1.7h.1Z"/><path fill="#141414" d="m57.2 87.2.1-.1H57.6l.1-.2h.5v-.2h.5l.1-.2H59.1l.1-.1h.7v-.1h.5l-.2-.7H60v.2h-.6l-.1.2h-.4v.1h-.4v.1h-.2v.1H58l-.1.1h-.5v.1h-.2v.1H57l.1.7.1-.1ZM53.4 84.9h.2v.1h.1v.1h.1v.1h.2v.1l.1.1h.1v.1H54.5v.1h.1v.1l.1.1h.2v.1h.2v.1l.1.1H55.5v.1l.1.1v.2h.2v.2h.2l.1.1h.1v.1l.1.1h.1l.1.1.3-.5-.1-.1h-.2v-.2H56.1v-.1H56L56 86H55.7v-.1h-.2v-.2h-.2v-.1h-.1v-.1H55v-.1h-.1l-.1-.1-.1-.1H54.4V85h-.1v-.2h-.1l-.1-.1H54v-.1h-.2v-.1h-.1l-.1-.1-.4.5.2-.1ZM50.2 82.4H50.5v.1l.1.1h.2v.2h.1l.1.1.1.1h.2v.1h.2v.2h.2v.2h.2v.1h.2v.1h.2V84h.1v.1h.2v.1h.1v.1h.2v.2h.1l.1.2h.1l.4-.4v-.1h-.1V84h-.2V84h-.1c-.1-.1 0 0 0-.1H53v-.1l-.1-.1h-.1v-.1h-.1l-.1-.1-.1-.1-.2-.1v-.1H52V83H52l-.2-.1-.1-.1-.1-.1H51.3v-.1h-.1v-.2H51v-.1h-.2v-.1h-.1l-.1-.2-.1-.1-.5.5h.1ZM47.3 79.6h.1l.1.1.1.1v.1H48v.2l.1.1h.1v.2h.4V80.8h.2v.2h.2v.1h.2v.1h.1v.2l.1.1v.1h.2v.1h.1v.1h.2v.2h.2v.2h.1l.4-.4-.1-.1h-.2v-.2H50c-.1-.1 0 0-.1 0v-.2h-.1l-.1-.2h-.1l-.1-.1-.1-.1-.1-.1h-.1v-.1h-.1v-.2H49v-.1h-.1l-.1-.1-.1-.1h-.1v-.2H48.3v-.1h-.1v-.2l-.1-.1-.1-.1-.1-.1h-.1v-.1l-.1-.2-.5.5.1.1ZM44.5 76.8h.2v.1h.1v.1h.1l.1.1h.1v.2h.1l.1.1v.2H45.7v.2l.1.1h.1l.1.1v.1h.1v.1h.1l.1.1h.1v.1l.1.1v.2h.1l.1.1v.1h.2v.1h.1v.2h.1l.1.2h.1l.4-.4h-.1v-.1h-.2v-.2h-.1c-.1-.1 0 0 0 0l-.1-.1-.1-.2h-.2v-.2h-.1V78h-.1V78l-.1-.1h-.1v-.2h-.2v-.1l-.1-.1-.1-.1-.1-.2h-.1V77h-.2V77l-.1-.1v-.2h-.1l-.1-.1-.1-.1-.1-.2v-.1l-.6.4h.1v.2Z"/><path fill="#141414" d="M41.9 73.7h.1l.1.1v.1l.1.1h.1v.1h.1v.1l.1.1v.1h.1v.1l.1.1h.2v.1l.1.1v.1c.1 0 0 0 0 0l.2.1v.2h.2v.1l.1.1h.1l.1.1V75.9l.1.1v.1h.2v.1l.1.1.1.1v.1l.1.2.1.1.5-.4h-.1V76h-.2v-.2h-.1c-.1-.1 0 0-.1 0v-.1h-.1v-.2H44v-.2H44v-.1h-.1V75h-.2v-.2h-.1v-.1h-.1l-.1-.2h-.1v-.1h-.1v-.2H42.9v-.4h-.1v-.2h-.1l-.1-.1h-.1v-.2l-.1-.1-.5.4Z"/><path fill="#141414" d="M39.5 70.5v.1h.1v.2h.1l.1.1h.1v.2l.1.1v.2H40.4v.1l.1.2v.1h.1l.1.1v.1h.1v.2h.2v.1l.1.1V72.8h.1v.1h.1v.2h.2v.1l.1.1v.2l.1.1.1.2.5-.5-.1-.1H42l-.1-.1v-.1h-.1v-.1h-.1v-.2l-.1-.1h-.1v-.1l-.1-.2h-.1V72l-.1-.1H41v-.2H41v-.1l-.1-.1-.1-.1v-.1h-.1v-.2h-.1l-.1-.1h-.1V71l-.1-.1v-.2l-.1-.2v-.1H40l-.1-.1V70l-.6.4v.1Z"/><path fill="#141414" d="m37.2 67.2.2.1v.2h.1v.1h.2V68h.1v.2h.2v.1h.1v.2l.1.1.2.1V69h.1v.1l.1.1h.1V69.5l.1.1.1.1v.1h.2v.4l.1.1v.1l.2.1.5-.3V70h-.1v-.2h-.2v-.1h-.1v-.2h-.1v-.2h-.1l-.1-.1V69L39 69V68.7h-.2v-.2h-.1v-.1h-.1v-.2h-.1l-.1-.2v-.1h-.1v-.1h-.2v-.4l-.1-.2H38v-.1l-.1-.1v-.1l-.1-.2-.5.4-.1.1ZM35.1 63.8h.1v.1l.1.1v.1h.1v.1h.1V64.5h.2v.2h.2v.1l.1.1v.2h.1V65.5h.2v.2l.1.1h.1v.4l.1.1v.1h.2v.5h.1v.1l.1.2.6-.4-.1-.1v-.1h-.2v-.2l-.1-.1V66H37v-.2l-.2-.1v-.2l-.1-.1v-.2h-.2v-.4h-.1l-.1-.1v-.1h-.1v-.2h-.1l-.1-.2H36v-.4l-.1-.1h-.1v-.2h-.1v-.2l-.1-.1-.5.3v.2Z"/><path fill="#141414" d="M33.3 60.2v.1h.1V60.6h.2v.2l.1.1V61.2H34v.4c.1 0 0 0 0 0l.2.1v.2l.1.1v.1l.1.1.1.1v.1l.1.1v.4h.2v.2h.1v.4l.1.1.6-.3-.1-.1V63h-.2v-.2l-.1-.1V62.5l-.1-.1v-.1H35V62l-.1-.1-.1-.1V61.6h-.1v-.2h-.1l-.1-.1v-.1l-.1-.2h-.1l-.1-.1v-.5H34v-.2h-.1V59.8l-.6.2v.1Z"/><path fill="#141414" d="M35.4 56v.2l-.1.1-.1.1V56.7H35l-.1.1v.1l-.1.1-.1.1V57.4l-.1.1h-.1V57.9h-.1v.2h-.1l-.1.1V58.4h-.1v.1H34v.1h-.1v.2h-.1v.1l-.1.1v.1l-.1.1h-.1v.1l-.1.1-.1.1.6.4v-.1l.1-.2v-.2h.1v-.1l.1-.2.1-.1h.1v-.2l.1-.2.1-.1.1-.1v-.1l.1-.1V58l.2-.1V57.7l.1-.1v-.1h.1V57.1l.1-.1.1-.1h.1v-.2h.1V56.5l.2-.1v-.2l-.5-.3h.1ZM67.2 82.9l.2.1v.1h.1l.1.1.2.1.1.2h-.1v.1l-.1.1h-.1l-.2.1h-.2l-.2-.5.3-.6-.1.2ZM57.1 87.2H57l.3-.6.2.7H57ZM33.2 60.2v-.4l.6.3-.6.3v-.2Z"/><path fill="#141414" d="m35.4 55.9.1-.1v-.1l.1-.2h.1v.1h.1l.2.2-.5.5-.5-.4h.4ZM57.6 65.7l-.6-6.8c6.4 2.6 12.3 2.5 17.5-1.4l.5 6.8c-5.7 3-11.5 3.1-17.4 1.4Z"/><path fill="#141414" d="M63 60.1h-1.2l-.2-.2h-.1l-.1.2-.1-.1H61v-.1h-.5v-.1l-.1-.1H59.6v-.1h-.2v-.2h-.1l-.1-.2h-.5v-.1h-.2l-.2-.1-.2-.1-.1-.1h-.2l-.3.7h.1l.1.1h.4l.1.2h.5l.1.2H59.1v.1H59.4l.1.1h.5v.1l.2.1H60.5l.1.1h.5l.1.1h.7l.1.1h.1l.2.1h.5l.1.1h.2l.1-.9-.1.1Z"/><path fill="#141414" d="M68.6 59.9h-.1l-.2.1h-.5l-.1.2H67l-.1.2H65.2l-.1.1h-.2l-.1-.1h-.1l-.2-.1h-1l-.2-.1h-.1l-.2.8h1.3s0 .1 0 0l.2.1h1.8l.2-.1h.7l.1-.1H68.2l.2-.1h.5l-.3-.9Z"/><path fill="#141414" d="M73.5 57.6v.2h-.1l-.1.1h-.1l-.2.1v.1h-.1v.2H72.5l-.1.1h-.2l-.1.1v.3H72l-.2.1H71.5l-.1.2H70.8v.2h-.2l-.1.2H69.7l-.1.1h-.2v.1H68.6l-.2.1.2.8H69l.1-.1.1-.1h.2c.2-.1 0 0 .2 0l.1-.1h.4V60h.4l.1-.1h.2l.1-.1H71.2v-.1H71.6l.1-.1h.1l.1-.2h.2l.1-.1h.1l.1-.1h.1V59h.2V59h.4l.1-.1.1-.1h.1l.1-.1v-.1h.2c.2-.1 0 0 .1 0l.2-.1-.5-.7.1-.2ZM75.4 63.9v-.1l-.1-.2V63H75l.1-.2v-.6L75 62V60.5h-.1v-.2l-.1-.2V59.9l.1-.1V59.5l-.1-.2v-1.1H74v.5l.1.1V60.5l.1.2V61.5l.1.2v.7l.2.1V62.8l-.1.1V64.1h.9V64l.1-.1ZM70.9 66.4h.1v-.1h.4v-.1h.1V66h.6v-.3h.5v-.1H73l.1-.2H73.3v-.1h.2v-.1H74.2v-.1h.1l.1-.1H74.6V65H75l-.4-.8h-.1v.1l-.1.1H74v.1h-.2l-.1.2h-.4v.1h-.2v.1H73l-.1.1h-.4v.1h-.2v.1H72l-.1.1h-.1v.2H71.1l-.1.1h-.2v.1h-.4l.2.8h.2Z"/><path fill="#141414" d="m66.6 67.2.2-.1h.4l.1-.1h.6v-.2h.9v-.1h.4l.1-.1h.7l.1-.1h.1l.2-.1H71l-.3-.8h-.2l-.1.1h-.5v.1h-.4v.1H68.6l-.1.1H68.3v.1h-.4l-.1.1H66.9l-.1.1H66.5v.9Z"/><path fill="#141414" d="M62.1 67h.4l.2.1h.1l.1-.1h.4v.1h.2v-.2H63.9l.1.1h1.3l.1.1H65.6s.1-.1.1 0H66.6v-.8h-.4l-.1.1H63.6s-.1.1-.1 0H63l-.2-.1h-.6l-.1.8Z"/><path fill="#141414" d="M57.8 66.2h.4l.1.1h.6l.1.1h.5c.2.1 0 0 .2 0h.2v.1l.1.1h.8v.1h.1l.1.1h.1v.1l.2-.1H61.6v.1h.2l.2.1h.1l.1-.8H61.3l-.1-.2h-.6l-.1-.1h-.4l-.1-.1h-.5l-.1-.2h-.1l-.2.1H59l-.1-.1-.1-.1h-.2l-.1-.1h-.2l-.1-.1H58l-.2.8v.1Z"/><path fill="#141414" d="M56.7 59.7v.7h.1v.2h.1V61.6h.2v.4l-.1.1v.2l.1.2v.6l.1.1v.2l.1.1v.2l-.1.1v.5l.1.2v1.1h.8V65l-.1-.1V63.8l-.1-.1V62.4l-.1-.2v-.7l-.1-.1V60l-.1-.1v-.4l-.8.1-.1.1ZM73.6 57.6l.2-.1H74.2v-.1h.2v-.1h.3v.7l.1.2-.8.1-.1-.1-.1-.2-.3-.4h.2ZM75.4 64v.1l-.1.2v.2l-.5-.7h.8l-.2.2ZM57.7 66.2l-.1-.2v-.2l-.1-.1.9-.1-.3.8-.4-.2Z"/><path fill="#141414" d="M56.6 59.6V58.9l.1-.2h.6l.2.1-.3.8-.8.1h.2ZM80 51.7l-1.4-6.3c6.4 1.6 12 .7 16.3-3.6l1.4 6.3c-4.9 3.6-10.4 4.5-16.2 3.6Z"/><path fill="#141414" d="m79.8 50.6-.2-.9-.1-.1-.1-.7-.2-.6-.1-.7v-.2l-.1-.2V47l-.2-.7V46.1l-.2-.8h.5l.2.2h.3l.4.1h.1l2 .4h4.4l.2-.1 1-.2.6-.1.2-.1h.3v-.1h.2l.3-.1.7-.3s.1-.1.2 0v-.1h.1l.5-.2a9.7 9.7 0 0 0 1.4-.8l.3-.2.2-.1.3-.2.2-.2.1-.1.2-.2.7-.6.8-.7.2 1c0 .1.1.3 0 .4l.1.2v.1l.1.2v.5l.1.2.1.2v.1l.1.5v.2l.2.4v.7l.1.2.3 1.3v.4l-.1.1c-.2 0-.3.2-.4.3h-.2c-.2.3-.4.4-.6.5l-.2.1-.4.3h-.2l-.1.1-.2.1-.3.2h-.2l-.2.2H93l-.2.2h-.1l-.2.1h-.2l-.1.1-.2.1-.6.3h-.2l-.6.3-.5.1-.4.1-.4.1-.3.1h-.4l-.3.1h-.1a1 1 0 0 1-.4.1h-.1l-.3.1-1 .2h-3.9a4 4 0 0 1-.7 0h-.2l-.7-.1h-.3l-.2-.1h-.1l-.3-.1h1.6l.4.1h4.7l.5-.1h.3l1.1-.3h.3l.3-.1h.1l.2-.1h.1l.2-.1h.2l.1-.1h.2l.2-.1h.1l.3-.2h.2l.3-.2h.2l.2-.1.7-.4.4-.1.6-.3.5-.3h.2v-.1l.5-.3.2-.2.4-.2.1-.1.1-.1.2-.1.1-.1.1-.1h.1v-.6l-.3-1.2-.1-.6-.3-1V44l-.1-.1v-.4l-.1-.1v-.2l-.1-.4-.1-.7V42l-.4.4h-.1l-.2.2-.1.1-.1.1-.2.1-.1.1-.4.4-.2.2-.3.1-.4.3-.4.3-.3.2h-.1l-.6.3-.2.1h-.1l-.1.1c-.3 0-.5.2-.8.3h-.1c-.2.2-.4.1-.5.2l-.4.1-.2.1h-.3l-.2.1H88l-.2.1-.5.1H86.9l-.4.1H86l-.5.1H81.7l-.3-.1h-.3l-.3-.1h-.3l-.3-.1h-.3l-.3-.1-.2-.1-.5-.1.2.6V46.8l.2.2v.5l.2.4v.4l.1.2v.4l.2.6.1.5v.2l.1.4.1.4.1.4v.3l-.2-.2-.2-1v.1ZM60.9 30.6l4 3.2c-4 4.3-6.1 7.7-5.1 13.3l-5.4 1.2c-1.3-7.1 1.8-14.5 6.5-17.7Z"/><path fill="#141414" d="m61.9 31.2.6.5.2.1.4.4.5.5c.2 0 .4.2.5.3l.2.2.1.1.1.1.4.2c0 .1.2.2 0 .3v.2l-.1.1-.2.1-.4.4-.2.3-.1.2-.2.1v.1l-.2.2-.1.1-1.2 1.5-.1.2-.1.1-.1.2-.2.3-.2.2-.1.2-.1.2-.1.2-.1.2-.6 1.1-.1.6-.1.2v.2l-.3.9v.6l-.1.2v.5l-.1.2v.8l-.1.2V46.3l.2.3v.4l-.1.2h-.1l-.3.1-.3.1h-.4v.1l-.9.2-.8.2-.9.2H55.2s0 .2-.2.1h-.2l-.3.1-.3.1v-.2l-.1-.6v-.1L54 47V43l.1-.5V42.1l.1-.3v-.5l.1-.2V41c.1 0 0 0 0-.1v-.1h.1v-.4l.1-.1V40l.2-.6v-.2l.2-.6.1-.4.2-.5v-.3c.1 0 0-.2.2-.3l.1-.3s0-.2.2-.3l.2-.4V36l.1-.3.4-.8v-.1l.6-.8.8-1h.1l.1-.3.3-.3.1-.2c.2-.1.2-.3.3-.4l.6-.5v-.1l.6-.5.2-.1.2-.1h.1c.1-.2.3-.2.4 0l-.2.3-.1.1-.4.2-.2.1-.2.2v.1l-.3.2-.7.8c0 .2-.3.3-.4.5l-.5.7-.1.2h-.1l-.3.4-.1.2-.2.4-.1.1-.1.2v.1c-.1.2-.3.3-.3.5l-.2.2c0 .4-.3.7-.4 1l-.1.2-.1.3s-.1 0 0 .1l-.1.2v.1l-.1.2V38.4l-.1.2v.1l-.1.2v.3l-.1.2-.2.3v.4l-.2.7v.4l-.2.6-.1.5v.2l-.1.5v4.1l.1.5v.4h.6c.1-.1.2 0 .2 0l.1-.1.4-.1.7-.1h.5c.1-.2.4-.2.6-.3H58.3l.1-.2h.2l.4-.1h.4l.1-.1v-.8l-.1-.1V45.3c-.1 0 0-.1 0-.2v-1.5l.1-.4v-.7l.1-.2v-.2l.1-.5v-.2l.1-.1.1-.4.1-.2.2-.6.1-.2v-.1l.4-.8.4-.7s0-.2.2-.2v-.2l.2-.2.3-.4c0-.1 0-.3.2-.3v-.1c.2-.1.2-.2.2-.3l.2-.2.2-.3.2-.2.2-.2.2-.2.2-.3h.1l.5-.6.5-.5s.1 0 0-.1l-.2-.2h-.1c0-.2-.2-.2-.2-.3-.2 0-.2-.2-.4-.3h-.1l-.2-.2-.1-.1-.3-.2-.5-.5-.4-.2-.1-.2-.4-.2-.3-.2-.3-.3v-.3h.3l.7.5v-.1ZM68 44.3c2-4 3.2-3.6 3.7-2.3.4 1 .6 2.5-.6 4.3-1.2 1.8-2.9 2.8-3.7 2.3-.8-.5-.3-2.3.7-4.3Z"/><path fill="#141414" d="m67.6 46-.3.9v1.3l.6.3c.2 0 .5 0 .7-.2l.6-.3.5-.4.4-.3.2-.3.1-.3h.1l.2-.3.1-.2.4-.6.2-.5.2-.5.1-.4v-.3c.1-.3 0-.6 0-.8 0-.3 0-.6-.2-.8V42l-.2-.1c0-.2-.2-.4-.3-.5h-.5l-.3.1-.2.2v.1l-.2.1-.7 1-.6 1-.4.4V44l.1-.3.3-.7.2-.1v-.1l.5-.9.6-.6.5-.4c.9-.2 1.4.6 1.6 1l.3 1.9v.7l-.2.4-.6 1.2-.8 1.2-.5.6-.3.2-.2.2-.5.3a2.8 2.8 0 0 1-1.4.4 1 1 0 0 1-.6-.2c-.2-.2-.3-.5-.3-.8v-.7l.3-1.2.4-1 .3-.6.3-.1c0 .2 0 .5-.2.7l-.4 1ZM85.5 59c2.2-3.4 4.4-2.5 4.7-1.2.3.9.2 2.3-1 3.7-1.3 1.5-2.9 2.3-3.6 1.7-.7-.6-1.2-2.6 0-4.2Z"/><path fill="#141414" d="M88.3 56.4h-.5v.1l-.1.1h-.2l-.1.1h-.1l-.1.1v.2H86.9l-.1.1v.1h-.1l-.2.1v.1l-.1.1v.2h-.1v.1H86l-.1.1v.1h-.2V58.3h-.2v.2h-.2v.2l.5.3.1-.1v-.2h.1v-.2h.1l.1-.1.1-.1v-.1h.1V58h.1V58h.1v-.1h.1l.1-.1.1-.1h.2v-.2h.1l.1-.1h.1v-.1l.1-.1h.4V57h.2V57H88.5v-.7h-.1Z"/><path fill="#141414" d="M90.6 59.2V58l-.2-.1v-.4c0-.1 0 0 0 0l-.1-.1V57H90V57h-.2v-.1h-.1l-.1-.1-.1-.2-.2-.1-.1-.1h-1l.1.6h.7v.1h.2v.1h.1v.1h.1l.1.1v.1h.1v.2l.1.1v.2l.1.1V59.3l.6.1.1-.1Z"/><path fill="#141414" d="M88.6 62.6v-.1l.1-.1v-.1h.1l.1-.1V62h.2v-.1h.1v-.1h.1V61.4h.1v-.1h.1l.1-.1V61h.1v-.2h.1v-.2h.1v-.2l.2-.1V60h.2s-.1-.1 0-.2V59.6h.1v-.2l.1-.2h-.6v.5c-.1 0 0 0 0 0l-.1.1v.1l-.1.1v.2l-.1.1-.1.2v.2h-.2V61h-.1v.1H89v.1h-.2V61.6l-.1.1h-.2v.2h-.2v.2h-.1l-.1.1.4.5Z"/><path fill="#141414" d="M85 62.8h.1v.2h.1v.1h.1v.1h.2v.1l.1.1h.2v.2h.1l.2-.1h.7l.1-.1h.1l.1-.1h.1v-.1h.4l.1-.1h.1V63h.1l.1-.1h.2l.1-.1h.1l.1-.1-.4-.6v.1H88v.1l-.1.2h-.1c-.2.1 0 0-.1 0l-.1.1h-.1l-.1.1h-.1l-.1.1H87v.1h-.2l-.1.1H86v-.2h-.2v-.2h-.1V62.3l-.6.3-.1.1ZM85.2 58.8v.2l-.1.2v.1H85v.4h-.1v.5l-.1.1V60.6l-.1.1V61c0 .1 0 0 0 0v.7l.1.1v.4l.1.1V62.6l.6-.3V62h-.1v-.2h-.1v-.4l-.1-.1V59.6l.1-.1.1-.1h.1v-.1l.1-.1V59l.1-.1-.5-.4v.2ZM84.4 32.7c-4 .5-4.7-1.7-4-2.8.5-.7 1.6-1.6 3.5-1.6 2 0 3.6.7 3.6 1.6 0 .9-1.2 2.6-3.1 2.8Z"/><path fill="#141414" d="M80.6 32.3h.2v.2h.2l.2.1h.1l.1.1h.2v.1h.5v.1c.1 0 0 0 0 0H82.5v.1h.7l.2.1h1l-.1-.7h-.4l-.1.1H82l-.1-.1H81.6l-.1-.1h-.1v-.1l-.1-.1h-.1V32H81v-.1l-.1-.1-.4.5h.1Z"/><path fill="#141414" d="m81.2 28.7-.1.1-.1.1h-.1v.1l-.1.1v.1h-.2v.1l-.1.1-.1.1V29.8h-.1l-.1.1c0 .1 0 0 0 0v.2l-.1.1v1.2l.1.1v.2h.1v.2l.1.1v.1l.2.1.4-.5h-.1v-.1h-.2v-.1l-.1-.1V31h-.1v-1h.1V30l.1-.1v-.2h.1v-.1h.2l.1-.1v-.1h.1l.1-.1h.1l.1-.1-.3-.6v.1ZM85.1 28h-.6v.1H84V28H84l-.1.1h-.7v.1H82.8c-.1 0 0 0 0 0l-.1.1h-.6l-.1.1h-.2v.1H81.5l-.1.1h-.1l.3.6.1-.1.1-.1h.2v-.1h.4v-.1h.4l.2-.1h.4l.2-.1H85l.1.1h.1l.1-.6H85Z"/><path fill="#141414" d="M87.6 30.7V30.3l.1-.1V29.4h-.2v-.2h-.2V29H87v-.1l-.1-.1h-.1l-.1-.1H86.5l-.1-.1-.1-.1-.1-.1H86l-.1-.1h-.4l-.1-.1h-.2l-.1-.1-.1.6h.5c.1.1 0 0 0 0l.2.1.2.1h.1l.2.1h.1v.1h.2l.1.1h.1v.1h.2v.1h.1v.1h.1v.1h.1v.4h-.1v.2H87v.2l.6.3ZM84.5 33h.4v-.1h.1l.1-.1h.4l.1-.1v-.1h.1v-.1H86v-.1l.1-.1h.1l.1-.1h.2V31.8H86.9v-.1h.2V31.4h.2v-.2h.1v-.1h.1l.1-.1v-.2l-.5-.2V31h-.2v.1c0 .1 0 0 0 0v.1l-.1.1h-.1v.2h-.1l-.1.1-.1.1-.1.1H86v.1h-.2v.1h-.1v.1h-.2v.1h-.1v.1h-.5v.1h-.1l-.1.1h-.2v.7-.1ZM44.7 31.6l-.3-.2s0-.2-.2 0c-.1 0 0-.2 0-.2l-.3-.3-.4-.1c0-.1 0-.2-.2-.2s-.1-.2-.2-.3c-.1 0-.2 0-.2-.2v-.2h-.3s0-.2-.2 0v-.1c.1-.1 0-.2 0-.1h-.2l-.2-.2v-.3c-.1 0-.3 0-.2-.1l-.1-.3s0-.1-.2 0c.2-.3-.2 0-.3-.2l-.2-.3h-.2c.1-.2 0-.2-.1-.3 0 0-.2 0-.2-.3 0 0 0-.1-.2 0H40v-.2c-.3 0-.1-.3-.3-.3-.2 0-.3-.2-.4-.3l.2-.6.4-.4h.7c0 .1.1 0 0 .2.3-.1.3.2.4.2.1.1.4 0 .4.2.2-.2.3-.1.3 0 0 .4.2.4.4.6l.5.5h.1l.1.2.1.1c0 .3.2.3.3.5l.4.4.4.1s.1 0 0 .2h.1l.2.2.2.2h.3l.1.2.1.3s.2 0 .2.2.2.3.3.4l.3.3.1.3-.5.6c-.3.2-.5.3-.6.2l-.3-.3ZM42.6 38.5l-.7-.2-.3.1-.2-.2-.7-.1H40c-.2 0-.4-.3-.7-.2l-.5-.2-.6-.1-.3-.2h-.3l-.3.1c0-.2-.2-.2-.3-.1h-.2l-.6-.1-.4-.3-.4-.1c-.1-.2-.3-.2-.4-.2 0 0-.1-.2-.3 0-.1-.3-.5 0-.7 0l-.6-.3h-.2c0 .1-.1.1-.2 0 0-.2-.3-.1-.4-.2-.2-.1-.5 0-.6-.3 0 0-.2-.2-.3 0h-.5v-.1H31c-.4.2-.6-.3-.9-.3l-1-.3a.6.6 0 0 1-.3-.7l.4-.4.2-.2H30.4l.1.2c.4-.2.6 0 .8.1h.7c.2-.2.4 0 .5 0 .3.4.8.4 1.2.5l1.4.4s.1-.1.2 0l.3.1.3.1c.2.3.6.3 1 .4l1 .2.7.1c.1 0 .2 0 .3.2l.2-.1.4.1.6.1h.4l.4.1.5.2c.2.1.4 0 .5.2.3.3.6.2.9.3l.9.2c.2 0 .3.3.4.3.1 0 .1.6 0 .8l-.6.4a5 5 0 0 0-.9-.2ZM81.3 80.3l.4.5c0 .1 0 .3.3.2v.3l.3.5.5.4c.1.2.1.4.4.5.1.1 0 .3.2.5l.3.4v.4l.3.1s0 .2.2.1v.1l.1.3h.2l.3.5v.4l.3.3v.4c.1 0 0 .2.3.1-.2.4.3.3.3.5l.4.6s0 .1.2 0v.1c-.1.3.1.4.2.5l.2.5c0 .2 0 .3.2.2l.1.2h.3v.3c.3.1.2.5.4.7l.4.7-.2.8h-.6c0 .1-.1 0-.2 0l-.2-.1c-.2-.1-.5-.1-.5-.3v-.3c-.3 0-.3-.4-.5-.5 0-.2-.4-.3-.4-.5-.3 0-.3-.1-.3-.3 0-.4-.4-.7-.6-1l-.7-1.1s-.2 0-.1-.2l-.1-.3c-.1 0-.2 0-.2-.2 0-.4-.3-.6-.4-.9l-.5-.8-.5-.4c0-.1-.2-.1 0-.3h-.2l-.2-.4-.4-.5-.3-.2a2 2 0 0 1-.2-.3l-.1-.5c0-.1-.3-.2-.3-.4 0-.4-.2-.5-.3-.8l-.5-.7-.1-.5.5-.5h.2l.6.1.4.7h.1ZM86.7 75.7l.4.2h.2c.1-.1 0 0 0 .1l.4.2h.4c.1 0 .2.2.4.1l.2.2c.1 0 .2 0 .3.2l.1.2.2-.1s0 .1.2 0c0 .2 0 .2.1.1h.2l.2.1.2.3h.2l.1.3.2-.1c0 .4.3 0 .3.2l.4.1s0 .1.1 0h.1c0 .2.1.2.2.2 0 .1.2 0 .2.3 0 0 .1.1.2 0s.1 0 .2 0h.1c.3-.1.3.3.4.3l.4.2v1.1l-.3.2h-.2c-.1 0-.3.2-.4 0V80s0-.1 0 0c-.3.2-.3-.1-.5-.1h-.4c-.1.2-.2 0-.2 0-.1-.4-.4-.3-.6-.5l-.7-.3h-.1l-.2-.1v-.1c-.1-.3-.4-.3-.6-.4a1 1 0 0 0-.5-.2l-.4-.1s-.1 0 0-.2c0 0-.1.1-.2 0h-.2l-.3-.2H87l-.1-.3c-.1-.1-.2 0-.3-.2 0-.2-.2-.2-.4-.3l-.4-.2-.2-.3.3-.7v-.1l.5-.3.4.2Z"/></svg>