<svg xmlns="http://www.w3.org/2000/svg" width="120" height="120" fill="none"><path stroke="#B4E41D" stroke-linejoin="bevel" stroke-width="26.7" d="m43.8 108.6-30-63.2 71 52.1L36 20.1 106.2 68 81.7 11.4"/><path fill="#fff" d="M29.6 60.5V90S64.5 98.6 85 92c0 0 5.3-1.8 5.4-19 0-17.1-4.7-28-4.7-28s1.4-6.8.3-12.2c-1-5.4-5.2-5.5-5.2-5.5s-1.2-1.5-3.2-.6c0 0-.7-1.6-2-1.1s-1.9 1-1.9 1-1.1-1.3-2.5-1c-1.3.3-2.8 5.2-3 8.4 0 0-2.7-4.3-4.3-3.2-.9.7-2 10.5 8.4 15.5L69.6 69s-24.1-15-40-8.4Z"/><path fill="#141414" d="M70 69.8c-.5-.4-1.1-.8-1.8-1.1-.2-.2-.4-.4-.7-.4-.2 0-.3-.3-.5-.4l-1.7-1c-.6-.4-1.2-.6-1.8-.8-.6-.3-1.1-.7-1.7-.9-.5-.1-.9-.5-1.4-.7L59 64l-1-.6-.7-.1c-.2-.2-.5-.3-.7-.2h-.2a1 1 0 0 0-.7-.4H55l-1.6-.6-1.1-.5c-.4-.1-1-.1-1.3-.3-.3-.2-.7-.4-1-.4-.3 0-.5-.2-.7 0H49c-.5-.5-1.2-.2-1.8-.4-.6-.2-1.3-.2-2-.3h-.8c-.5-.3-1-.1-1.5-.2-.6-.1-1.2 0-1.8-.3l-.8.1h-.7l-.5.2-.4-.1h-.2c-.8.3-1.6 0-2.5.2-.8 0-1.6.2-2.5.4-.4 0-.9 0-1.3-.3-.2-.1-.3-.3-.1-.5l.4-.3c.3 0 .5-.2.8-.3.5-.2 1-.4 1.6-.4h.7c.8-.4 1.6-.3 2.4-.3.6 0 1.3-.3 2-.2.3-.2.8-.2 1.2-.1 1.3.3 2.6.2 4 .4l4 .7h.7c.2.2.5.2.8.3l.8.2c1 .5 2 .6 3 1s2 .8 3 1l1.8.7c.2.1.5.1.7.4l.5.1 1.2.6 1.7.8 1 .4 1 .6 1.3.8 1.3.8c.6.7 1.5 1 2.2 1.6l2.2 1.5c.5.3.7.8 1.2 1 .2.1 0 .8-.1.9h-.1c-.5-.2-1-.2-1.5-.5l-2-1.4Z"/><path fill="#141414" d="m69.2 66.7.1-1.1c0-.2.2-.3 0-.5l.2-.3v-2.1c0-.4.3-.7.2-1-.1-.4.1-.6.1-.9 0-.3 0-.5.2-.8 0-.2.2-.4.1-.6V59c0-.1.1-.3-.1-.4v-.1c.2-.1.2-.3.2-.5l-.1-.3.1-.9.2-.6.1-.7.2-.5c0-.2.1-.3-.1-.4v-.1c.3-.3 0-.7 0-1 .2-.4.2-.7.2-1V52c-.1 0-.1 0 0-.1.2-.3 0-.5.2-.8 0-.3 0-.7.2-1 0 0 .1-.2 0-.4-.2 0 0-.2 0-.3l-.2-.3.2-.2v-.1c-.2-.5.1-.9.1-1.3 0-.5 0-1 .2-1.4 0-.2.1-.5.5-.6h.5l.2.3.1.4c0 .3.2.6 0 1 0 0 .1.1 0 .2h-.1c.3.5 0 .9 0 1.3s.2.7 0 1c.3.3.2.5.1.7-.3.6-.2 1.4-.3 2l-.3 2.1c0 .1.1.3 0 .4v.5l-.1.4c-.3.5-.2 1-.3 1.6l-.2 1.6v1c0 .2 0 .3-.2.4l.1.3v.7l-.2 1v1.1c0 .3-.2.6-.3.8v.8c-.3.5-.3 1-.4 1.4l-.1 1.4c0 .3-.3.5-.3.8 0 0-.6.2-.8.1-.2-.3-.4-.6-.4-.9l.2-1.3Z"/><path fill="#141414" d="M41.3 91.5c1.6.2 3.2.5 4.9.6.6.1 1.2.2 1.8.1l1.5.3c1.5.1 3 .3 4.6.3l4.5.2c1.5 0 3 .2 4.4 0 1.3 0 2.4.2 3.6.1H73l1.7-.2c.5 0 1.2 0 1.7-.3h.4c.6.1 1.3 0 1.8-.1l1.4-.3c1.2-.2 2.4-.4 3.5-.8.9-.2 1.8-.5 2.2-.9.4-.6.7-1.7 1.2-2.4.6-.7.7-1.6 1-2.4.2-.5.5-1 .4-1.5V84c.6-1.3.6-2.8.8-4.2.3-1.5.4-3 .4-4.5v-5.5c0-1.3-.3-2.6-.2-4a5 5 0 0 0-.3-2c-.2-.3-.2-1-.2-1.4l-.3-1.2v-1l-.1-.3c-.6-1.9-.6-3.8-1.1-5.7l-1.4-5.8c-.3-1-.5-2.1-.3-3 0-.3.3-.4.5 0l.5 1 .6 1.8c.4 1.2 1 2.4 1.1 3.7.1.4.3.9.2 1.2v.3c.7 1.7.9 3.5 1.2 5.3.3 1.5.8 2.9.8 4.4.4.8.4 1.8.5 2.7 0 3 .4 6 .2 9.1l-.1 2.3-.2 2.3c-.1 1.6-.5 3-.8 4.6-.1.5-.1 1-.4 1.5l-.7 2a7 7 0 0 1-.7 1.7l-1 1.6-.2.4-.4.5-.9.6c-1.1.6-2.3 1-3.5 1.1-2.4.5-4.8.7-7.2 1l-4.3.3c-.7 0-1.3.1-2-.1l-1.1.1H58l-2.6-.2L52 94c-1.1-.1-2.3-.1-3.4-.3-2.1-.4-4.1-.5-6.2-.8l-6.1-1c-1.1-.2-2.1-.6-3.2-.9-.6-.1-1.1-.8-.9-1h.3c1 .1 2.1.1 3.3.4l5.5 1ZM71.4 36.4l-1.1.1h-.4l-.2-.1-.5-.3-.3-.4-.6-.6c-.1-.3-.1-.6-.3-.8l-.1-.6-.1-.8v-1.7l.1-.7.2-.5c0-.1 0-.4.2-.5l.2-.4v-.3c.3-.2.2-.5.3-.8l.4-.7v-.4c.3 0 .4-.3.5-.5l.5-.5c.2 0 .3-.1.3-.3l.3-.2.2-.2h.3c.5-.2 1 0 1.3.2.4 0 .7.3 1 .5.2.1.3.3.3.6l-.3.2h-.2l-.3-.2c-.2 0-.4 0-.5-.2l-.2-.1-.7-.1-.5.2c0 .2-.1.3-.3.3-.3.2-.6.8-.8 1.1l-.7 1.4v.2l-.2.3v.3c-.3.3-.3.8-.4 1.1-.1.4-.2.8-.1 1.2v1.1l.2.5c0 .2 0 .4.2.6l.2.3.2.3.2.5.4.1c.2.2.5.2.8.1.2 0 .4-.2.6-.5l.3-.4h.4v.1c0 .2.2.5 0 .7-.2.3-.5.6-.9.8ZM78.5 37.1c-.4.2-.8.2-1.2.2-.1 0-.2-.1-.4 0l-.3-.2-.5-.2-.3-.4a3 3 0 0 1-.6-.7c-.1-.3-.1-.6-.3-.8l-.1-.7c-.1-.2-.2-.5-.1-.7v-.9l-.1-.3c.1-.2.2-.3 0-.4v-.3l.2-.7.2-.5c0-.1 0-.3.2-.5l.2-.4v-.3c.3-.2.1-.6.3-.8l.4-.7s.1-.1 0-.2v-.2c.4 0 .4-.3.5-.5.2-.1.3-.4.6-.5.2 0 .3-.1.3-.4l.3-.2.2-.2h.3c.6-.2 1 .1 1.4.2.4.1.8.3 1 .6.3.1.4.3.3.6l-.3.3h-.5c-.2-.2-.5-.1-.6-.3l-.1-.1h-.7l-.5.2-.1.3c-.4 0-.6.6-.9 1l-.6 1.3v.3c-.2 0-.1.2-.2.3l-.1.3c-.3.3-.3.7-.4 1l-.1 1.2.1.7v.3c-.1 0 0 0 0 .1l.2.5c0 .2 0 .4.2.6l.2.2.2.4.2.3.2.2c.2.2.5.2.7.1.2 0 .4-.2.6-.4 0-.2.2-.2.3-.4l.6.1c0 .3.2.6 0 .8-.2.3-.5.7-.9.9Z"/><path fill="#141414" d="M83.7 31c0 .8-.3 1.7-.4 2.6l-.4 2.6-.4.9a2 2 0 0 1-1.9 1l-.9-.2c-.3 0-.5-.3-.6-.4-.3-.2-.6-.5-1-1.2a7.5 7.5 0 0 1-.4-3.6c.1-1.2.5-2.3 1-3.4l.9-1.5c.3-.5.8-1.1 1.6-1.4a3 3 0 0 1 2.3.3l.8.5.4.5.3.4c.6 1 1 2 1.3 3.1a15 15 0 0 1 .7 6.7c-.1 1-.5 2.1-.7 3.2l-.4 3.6c-.4 2.3-.7 2.3-.6 0l.4-3.7v-2.6L86 36c-.1-1-.4-2.2-.7-3.2-.3-1-.6-2.1-1.2-3-.2-.5-.6-1-.9-1.2l-1-.3c-.3 0-.5 0-.8.3l-.8 1.2c-.5 1-.8 2-1 3-.1 1-.4 2.1 0 3 0 .4.4 1 .6 1.2.4.2 1 .3 1.3 0l.5-.7.2-1 .4-1.7c.2-.6 1-3.6 1-2.5h.2ZM74.6 37.1l-1.1-.1c-.1 0-.2-.2-.4-.1l-.2-.3c-.2 0-.3-.2-.4-.3l-.3-.4-.6-.7-.3-.8c-.2-.3-.1-.5-.2-.7 0-.3-.1-.5 0-.8v-.8l-.1-.3v-.1c.1-.1.2-.3 0-.4v-.2l.2-.7.2-.5c0-.2 0-.4.2-.6l.3-.4v-.3c.3-.2.1-.6.3-.8l.4-.8s.1 0 0-.2l.1-.1c.3-.1.3-.4.5-.5.2-.2.3-.5.7-.6.1 0 .3 0 .3-.3l.4-.1.2-.2h.3c.5-.2 1 .2 1.3.3.5 0 .8.3 1.1.5.2.2.3.4.2.7 0 .2-.2.3-.3.3h-.5c-.2-.2-.5-.1-.6-.3 0 0-.2 0-.1-.1l-.8-.1-.5.2c0 .2-.1.2-.2.3-.4 0-.6.5-.9 1-.3.3-.5.8-.7 1.3v.2c-.2.1-.2.2-.2.3l-.1.3c-.3.3-.3.8-.4 1.1-.1.4-.2.8-.1 1.2v1c-.1 0 0 .1 0 .2l.2.4c0 .2 0 .5.2.6l.2.3.2.4.2.4.4.3c.1.3.4.3.7.3l.7-.1c.2-.1.4 0 .5-.2l.5.3v.1c0 .2 0 .5-.3.7l-1.2.4V37ZM68 34.9l-1-1.4a10 10 0 0 0-1-1.2s-.5-.7-1.2-1c-.6-.2-.6.2-.7.3V33c0 .6.3 1.3.5 1.9.2.6.2 1.3.5 1.9a23.4 23.4 0 0 0 2 3.5l1.3 1.5 1.4 1.5 1.3 1.4c.8.6 1.6.9 2 1.1 1.4.6 1.4 1-.1.6-.6-.1-1.3-.6-2.2-1.1 0 0-.8-.3-1.5-.8L68 43.3l-1.7-1.6-1.3-1.9c-.4-.6-1-1.1-1.4-1.8l-.7-2.3c-.3-.7-.6-1.5-.7-2.3 0-.8 0-1.8.8-2.7.2-.3.9-.7 1.5-.6.7.1 1.2.5 1.6.8.7.8 1.2 1.7 1.5 2.2.2.4 1 2.3.4 1.8 0-.1 0 0 0 0ZM58.2 68.3l-2.5-.2s-.4 4-4.3 5.3l-.4 3.7 3.7.4-1 9.4 6.1.6 2-18.8-3.6-.4Z"/><path fill="#141414" d="M55.3 70V69h.1v-.2c0-.1 0 0 0 0V68.5h.1v-.4h-.2V68.6h-.1v1.2c-.1.1 0 0 0 0l.2.2h-.1ZM54.4 71.5V71.2h.1V70.8h.1V70.6c.1-.1 0 0 0 0v-.2h.1v-.1h.1v-.1l.1-.1V70l-.2-.2v.2c0 .1 0 0 0 0v.1h-.1v.4h-.1v.4h-.1V71.3h-.1l.2.2h-.1ZM53.1 72.7v-.1h.1v-.1h.1v-.1h.1v-.1h.1v-.1h.1V72h.1V72h.1v-.2h.1v-.1c.1 0 0 0 0 0h.1v-.1l-.2-.2v.2h-.1v.1h-.1v.2h-.1v.2h-.1v.1h-.2v.2H53l.1.3ZM51.6 73.6v-.1h.2l.1-.1h.1v-.1h.2v-.1h.1c.1-.1 0 0 0 0l.1-.1h.2V73h.1c.1-.1 0 0 .1 0l.1-.1-.2-.3v.1h-.2v.1h-.2v.1H52v.1H52v.1H51.6v.1h-.1c-.1 0 0 0 0 0v.3ZM51.3 75.2v-1.3H51v1.3h.3ZM51.1 76.9V75.8h.1V75.5h-.4v1.2h.3v.1ZM52.8 77.1H52.4s-.1.1-.1 0H51.4v.3h1.3v-.2ZM54.5 77.3h-1.3v.3h1.2v-.3h.1ZM54.6 79.4V77.8h-.3V79.6h.3ZM54.4 81.2V79.6h-.3V81.4h.3v-.2ZM54.2 83V81.4h-.3V83c0 .1 0 0 0 0v.2h.3v-.1ZM54 84.9V83.2h-.3V85h.3V85ZM53.8 86.7V85h-.2V85.5s-.1 0 0 .1v1.2l-.1.1h.3v-.1ZM55.8 87H54v-.1h-.5v.3H55.8V87Z"/><path fill="#141414" d="M57.7 87.2H56L56 87h-.5v.3H57.7v-.2ZM59.7 87.4H57.6v.3H59.8v-.3ZM59.9 85.5V87.4h.3V85.3H60l-.1.1Z"/><path fill="#141414" d="M60.1 83.7V85.5h.3V83.5h-.3v.1Z"/><path fill="#141414" d="M60.3 81.9V83.7h.3V81.6h-.3v.2Z"/><path fill="#141414" d="M60.5 80V81.8h.3V79.8h-.3v.1Z"/><path fill="#141414" d="M60.7 78.2V80h.3V78h-.3v.2ZM60.9 76.3V78h.3V76.1H61l-.1.1Z"/><path fill="#141414" d="M61.1 74.5V76.3h.3V74.2h-.3v.2Z"/><path fill="#141414" d="M61.3 72.6V74.4h.3V72.4h-.3v.1Z"/><path fill="#141414" d="M61.5 70.8V72.6h.3V70.5h-.3v.2Z"/><path fill="#141414" d="M61.7 68.9V70.7h.3V68.7h-.3v.1ZM59.8 68.6H60.7c.1 0 0 0 0 0h.6v.1h.7v-.2h-.2c-.1 0 0 0 0 0H59.8l-.1-.1v.3Z"/><path fill="#141414" d="M57.8 68.4H59.4v.1h.6v-.2H57.8v-.1h-.1v.3Z"/><path fill="#141414" d="M55.9 68.2H56.8c.1 0 0 0 0 0H57.6v.1h.5v-.2h-.2c-.1 0 0 0 0 0h-.1s-.1-.1-.1 0H56.6l-.1-.1h-.7v.3ZM51.4 73.3v.1h-.1v.1h-.1.3l-.1-.3ZM50.9 76.9V77.3h.2V77H51ZM54.5 77.3h.1l.1.1.1.1v.1h-.3v-.3ZM53.5 86.7v.2h.1v.1h.1l.1-.3h-.3ZM59.7 87.7h.2v-.2h.1v-.1h-.3v.3ZM62 68.9v-.2h-.1v-.1h-.1l-.1.3h.3Z"/><path fill="#141414" d="M55.9 68H55.5v.1h-.1v.1h.3V67.9ZM43.8 75.5l-.9 8 1.4.1.8-8-1.3-.1Z"/><path fill="#141414" d="M43 82V83h.2V82H43ZM43.2 80.8V81.8h.2V80.7h-.2ZM43.3 79.5V80.5h.2V79.4h-.2ZM43.4 78.2V79.2h.2V78.1h-.2ZM43.6 76.9V77.9h.2V76.8h-.2ZM43.7 75.6V76.6h.2V75.5h-.2ZM45 75.5h-.2v.3h.2v-.2ZM45.1 77V76h-.2V77h.2ZM45 78.3V77.3h-.2V78.4h.2ZM44.8 79.6V78.6h-.2V79.7h.2ZM44.7 80.9V80h-.2V81h.2ZM44.6 82.2V81.8h-.1v-.7h-.2V82.3h.2ZM44.4 83.5V82.4h-.2V83.6h.2ZM43 83.6h.1v-.1h.2v-.2h-.1v.2H43Z"/><path fill="#141414" d="M43.7 75.6v-.1h.1v-.1h.1v.2h-.2ZM45 75.5h.2v.2h-.1v-.2ZM44.4 83.5v.1h-.2v-.1h.2ZM43 83.6l-.1-.1v-.1h.2v.2ZM47.9 75.9l-.9 8h1.2l.9-7.9-1.2-.1Z"/><path fill="#141414" d="M47 82.7h.1v.1h.2-.2v-.1ZM47.2 81.6v.1h.2-.2v-.1ZM47.3 80.5v.1h.2v-.1h-.2ZM47.4 79.4v.1h.2v-.1h-.2ZM47.5 78.3v.1h.3v-.1h-.2ZM47.7 77.2v.1h.2v-.1h-.2ZM47.8 76v.2h.2V76h-.2ZM49 76h-.7v-.1H48v.2H49V76ZM49 77.3V77h-.2v.1h.2ZM49 78.4l-.1-.1v-.1h-.2v.1h.2ZM48.8 79.5v-.2h-.2v.1h.2ZM48.7 80.6v-.2h-.2v.1h.2ZM48.6 81.7v-.2h-.2v.1h.2v.1ZM48.5 82.8v-.2h-.3v.1h.2v.1ZM48.4 83.9h-.1v-.2h-.2v.1h.2v.1ZM47.1 84H48l.1.1v-.2h-.7v-.1h-.2l-.1.2Z"/><path fill="#141414" d="M47.8 76v-.1h.1v.2h-.1ZM49 76h.1v.1h.1-.2V76ZM48.3 84v.1h-.1v-.2h.1ZM47.1 84H47v-.2h.1v.2ZM42.4 76.7l-.2 1.2 8 .9.1-1.2-8-.9Z"/><path fill="#141414" d="M43.6 76.7h-.2v.3h.1v-.2ZM44.7 76.8l-.1.1h-.1v.2h.1v-.2ZM45.8 77h-.2v.2h.1V77ZM46.9 77.1h-.2v.2h.1v-.2ZM48 77.2h-.2v.3h.1v-.2h.1ZM49.1 77.3h-.2v.3h.1v-.2h.1ZM50.2 77.5H50v.2h.1v-.2h.1ZM50.3 78.7v-.1H50h.3ZM49 78.8v-.1h.2v-.2H49v.2H49ZM47.9 78.6h.1v-.2.2h-.1ZM46.8 78.5h.2v-.2h-.1v.2h-.1ZM45.6 78.4h.2V78h-.1V78.4ZM44.6 78.3h.1V78h-.1v.2ZM43.5 78.2h.1v-.3h-.1v.2ZM42.4 78h.1v-.2h-.1v.2ZM42.3 76.8v.1h.2-.2v-.1ZM50.2 77.5h.2v.1h-.2v-.1ZM50.3 78.7v.1H50v-.1h.2ZM42.3 78h-.1v-.1h.2v.1ZM42.3 76.8v-.1h.1v.1h-.1ZM42 80.8l-.2 1 8 1v-1.2l-7.9-.8Z"/><path fill="#141414" d="M43.1 80.8H43v.2h.1v-.2ZM44.2 81H44v.1h.1V81ZM45.4 81h-.1s0 .1 0 0h-.1v.3h.1V81ZM46.5 81.2h-.2v.2h.1v-.2ZM47.6 81.3h-.2v.2h.1v-.2ZM48.7 81.4h-.2v.2h.1v-.2ZM49.8 81.5s0 .1-.1 0h-.1v.3h.1v-.3ZM49.9 82.6V81.7h-.1v.5h-.1V82.7h.2ZM48.6 82.7h.1v-.2h-.1v.2ZM47.5 82.6h.1v-.2h-.1v.2ZM46.4 82.5s0-.1 0 0h.1v-.3h-.1v.3ZM45.2 82.3h.2v-.2h-.1v.2ZM44.1 82.2h.2V82h-.1v.2ZM43 82.1h.2v-.2H43v.2ZM41.9 82h.2v-.2H42v.2h-.1ZM41.8 80.9V81.8h.1V81h.1v-.2h-.2ZM49.8 81.5h.1v.2h-.1v-.2Z"/><path fill="#141414" d="M49.9 82.7h-.1v.1h-.1v-.2h.2ZM41.9 82h-.1v-.2h.1v.2ZM41.8 80.9v-.1h.1v-.1h.1v.2h-.2Z"/></svg>