<svg xmlns="http://www.w3.org/2000/svg" width="119" height="120" fill="none"><path stroke="#B4E41D" stroke-linejoin="bevel" stroke-width="26.7" d="m42.8 108.6-30-63.2 71 52.1L35 20.1 105.2 68 80.7 11.4"/><path fill="#fff" d="M80.8 78.4s1.5-12.7 5.4-13.2C90 64.6 97.9 68 98 69.5c0 1.5-2.7 12.7-2.7 12.7l-3.6 7.4-12-1.1 1-10.1ZM80 50.8l-4.4-1.7-10.6-4a2714 2714 0 0 0-24.1-9l-5.2-2h-.3c-1.1-.5-2.6.4-2.8 1.5l-4.3 11-6.7 17.7-1.6 4c-.5 1.2.5 2.4 1.6 2.8l4.5 1.7 10.9 4 13.2 4.7 11.3 4.2 5.6 2c1.3.5 2.5-.5 2.9-1.6l3.9-11 6.3-17.5 1.4-4c.5-1.2-.5-2.4-1.6-2.8Z"/><path fill="#fff" d="M98 79a7 7 0 0 0-1-3c.2-2-.4-4.7-3-4.8-1-.1-1.8.5-2.3 1.4-.3-1.2-1-2.2-2.2-2.5-3.3-.8-4.2 3.4-4.7 5.7-.2 1.3-.4 2.7-1 3.9-.3 1-.8 2-1.3 3v-1.8c.1-1.5.1-3.2-1-4.4-.8-1-2.6-1.3-3.8-.7-.7.4-1 1.3-1.2 2a104.3 104.3 0 0 0-1.6 9.3l-.5 4.6s0 .5 0 0l-.1.5-.4 3-.1.8c-.1.8.2 1.6 1 1.8l.3.1h.2l13.5.5h2c.5 0 1-.2 1.3-.7 1.8-4 3.7-8.1 5.3-12.3.4-1 .6-2 .3-3 .3-1 .3-2.3.2-3.4ZM80.4 50.8l-4.5-1.7-10.7-4-13-4.8L41.1 36l-5.2-2-.4-.1c-1.1-.4-2.5.5-2.8 1.6l-4.3 11-6.8 17.7-1.5 4c-.5 1.2.5 2.4 1.6 2.8l4.5 1.7 11 4 13.2 4.8 11.4 4.1c1.8.7 3.7 1.5 5.6 2v.1c1.3.4 2.5-.5 2.9-1.6l4-11 6.2-17.6 1.5-4c.4-1.2-.5-2.4-1.6-2.8Z"/><path fill="#fff" d="m74.2 97.6.6-5s1.5-16 3-16.2c1.7-.4 2.7.3 2.8 2.8 0 2.4-.8 7.7.7 6.8 1.4-.8 3.5-4.5 4.3-7.3.9-2.7 1-8.2 3.3-8.4 2.3-.2 1.9 3.8 1.7 5.5l-.8 6.6s2-2.5 2.6-5.1c.5-2.6.9-6.4 2.8-5.7 1.8.7 1.3 4.1 1.3 4.1s1 1.2 1 3.3c0 2-.4 3.3-.4 3.3s.6.4.1 2c-.4 1.6-5.9 13.9-5.9 13.9l-17-.6h-.1Z"/><path fill="#141414" d="m26.8 21.6 6.5 12.6 49 18L94.7 47l-68-25.4ZM81.7 51 34.2 33.2 29.4 24 91.2 47l-9.5 4Z"/><path fill="#141414" d="M78.4 50 76 49h-.4l-1.8-.7-1.9-.8-1.7-.5-.6-.3-.6-.2-.2-.1-.2-.1c-.6-.1-1.1-.4-1.7-.6-.2 0-.3-.1-.4 0l-.3-.2a.9.9 0 0 0-.3-.2l-1.7-.6c-.4 0-.7-.2-1-.3l-.6-.3c-.3-.1-.5-.1-.7-.3h-.2l-.9-.4a3 3 0 0 0-.4-.2l-5.4-2-.5-.1-.6-.2-.6-.3-1-.4c-.2 0-.5-.1-.7-.3-.3 0-.5-.2-.8-.3a2 2 0 0 0-.5-.2c-.2 0-.5 0-.7-.2l-.6-.3-3.7-1.4-1.8-.6c-.2 0-.3 0-.4-.2h-.2l-.6-.2c-.8-.3-1.6-.7-2.5-.9l-1.9-.7-.6-.3-.6-.2-.4-.1-.3-.1c-.2-.2-.5-.3-.7-.3l-1.2-.4-.5-1.2c-.1-.1-.3-.3-.3-.5v-.2l-.2-.2c-.1-.4-.4-.9-.7-1.3l-1.6-3.3-.5-.9-.3-.4v-.3l-.2-.2-.3-.4v-.4l-.2-.3a2 2 0 0 1-.2-.3l.6.2.6.3a2.6 2.6 0 0 0 .8.1v.1l.3.1.6.2.3.1 2.4.9 2.5.9 2.4.9.9.4c.3 0 .5.2.7.3l.2.1c.3 0 .5 0 .7.2.2.1.4 0 .6.2l.6.3.6.2.6.2.3.1c.5.2 1 .5 1.5.5l.4.2 1.2.4 1.6.7.3.1.3.1 3.7 1.4 1 .4.3.1h.1c.4.3.9.3 1.2.5l.3.1.2.1c.7.1 1.3.5 2 .7.2 0 .4.2.6.1l.2.1c.3.3.7.3 1.1.5.2 0 .4 0 .6.3h.4l.6.3c.3 0 .5.2.8.3l.3.2.4.1.6.2c.2.2.4.1.6.2l.5.2.3.1.1.1.5.1.4.3.5.1.4.2c.7.1 1.2.4 1.9.6l.4.3h.2l1.8.6a25 25 0 0 1 2.5.9c.3 0 .7.1 1 .3.3.1.7 0 1 .3.2.2.6.3.9.4l.8.4.4.1c.3 0 .6.2 1 .4h.3l.8.4 2.5.8.5.2 2.5 1 1.8.7.9.3.4.2.5.2.4.1.2.2.6.1.6.2.7.2-1.2.5-.6.3-.6.3-.2.1c-.4 0-.7.3-1 .4l-2.1 1-.3.1-.1.1-2 .8-.6.2-.7.2-.2.1c-.5.3-1 .3-1 0l.1-.2.6-.4.6-.3h.1l1-.4c.3 0 .5-.2.8-.3l.6-.2.3-.1 1-.5c.5-.1 1-.4 1.4-.6l.7-.3.4-.2h.1l.2-.1.4-.3c.2 0 .3 0 .5-.2l-.4-.1-.4-.1h-.1l-.2-.1-.3-.1-1.3-.5-.4-.2-.3-.1-1.2-.5c-.2 0-.5-.1-.6-.3H85c-.4 0-.8-.3-1.1-.4-.2 0-.3 0-.4-.2l-.6-.2-.4-.1c-.5-.2-1-.5-1.5-.5a2 2 0 0 0-.9-.4l-3-1.1-.8-.3-.8-.3c-.1 0-.3-.2-.4-.1l-.5-.2-.4-.1a4 4 0 0 1-.5-.2c-.2 0-.4 0-.5-.2l-.4-.1-.5-.2-.5-.2-.5-.2-.7-.2-.7-.3-.9-.4a2 2 0 0 0-.4 0c-.2 0-.4 0-.6-.3h-.3l-2-.8-1-.4L63 37l-1.7-.7-.4-.3h-.3a4 4 0 0 1-1.3-.5 4 4 0 0 0-.9-.3l-1.3-.5c-.1-.2-.3-.1-.4-.1l-.4-.1-.6-.2a1 1 0 0 1-.5-.1c0-.2-.2-.2-.3-.2l-.5-.2c-.2-.1-.5-.1-.6-.3h-.1l-1.2-.5-3.4-1.4-1.4-.5-3-1c-.2-.2-.5-.2-.6-.4h-.2c-.3 0-.6-.2-.9-.4h-.3l-.4-.2-.5-.2c-.3 0-.3-.1-.5-.2l-.3-.1h-.2c-.3-.3-.7-.2-1-.4l-.2-.1-1.7-.7c-.2-.3-.6-.2-.8-.4l-.5-.2c-.6 0-1.2-.4-1.8-.6l-.4-.1-.3-.2-.6-.2-.4-.1-.6-.2-.4-.1c-.4-.3-.9-.4-1.3-.5H30.5s0-.1 0 0h-.1v.1l.1.2h.1l.1.2.2.4.4.7.4.9.1.2 1 1.7.1.5c.2 0 0 .3.2.4l.1.1 1 2.2.2.3v.2h.2l.3.2.6.2 1 .4.2.1c.2.1.4 0 .6.2l.6.2.6.2.6.3.6.2 1.3.4h.1l.5.2.4.2 1 .4c.3 0 .5.1.7.3l.3.1c.5 0 1 .3 1.4.4l.6.3.5.1 2.4.9 2.3.8.6.3.2.1.3.1h.2l.5.2.4.2c.4 0 .7.1 1 .4h.3l.8.4.4.1.8.3.8.4.9.3.8.3.9.3.8.4.9.3c.2 0 .4.1.5.3.5.3 1.1.5 2 .6l.1.1 2.2.8 1 .5.6.2c.2 0 .4.2.6.1l.4.2 1 .5 1.2.4.6.2.5.2.7.2.8.4h.2l1.6.6 1.4.5c.1 0 .4 0 .5.2h.1l1.2.4 1.1.4 1.1.4c.6.2.7.3.6.6-.1.2-.3.2-.7 0-1-.2-1.9-.6-2.7-.9Z"/><path fill="#141414" d="m28.7 24.9 1.3 2.6.3.4 1 1.9c.2.7.6 1.4.9 2l1 1.8.1.3v.2h.2l.2.1.4.1.2.1.2.1c.7.1 1.3.5 1.9.6l.5.2h.2c.1.2.2.2.4.3l2 .7 1 .3.7.3.8.4h.2l1 .4.5.2 6 2.2.6.1.6.3.6.3 1.2.4.7.3v.1c.4 0 .6.2.9.3l.6.1.7.3c.2.2.5.3.7.3l4.1 1.5 2 .7c.2.1.4.1.5.3h.2l.5.2 2.8 1 2.1.7.7.3.7.3.4.1.4.1.8.4 2.4.8.6.3h.2l.2.2c.5.3 1 .4 1.6.6l3.8 1.4 1 .3.9.3.4-.2h.4l.3-.2.8-.4 1-.5.4-.1.7-.3.3-.2L89 49l2.6-1 1.3-.6.4-.2.3-.2h.1-.2l-.1-.2H93v-.1l-.2-.2h-.2c-.3 0-.5 0-.7-.3h-.1c-.2 0-.4 0-.6-.2l-.7-.2-.7-.3-.7-.2-.3-.2c-.5-.1-1-.5-1.6-.5l-.4-.2-1.4-.5a8 8 0 0 1-1.8-.8l-.3-.1-.4-.1-4-1.5c-.4-.1-.7-.4-1-.4l-.5-.2h-.2c-.4-.3-.9-.3-1.3-.5l-.3-.1-.3-.2c-.7-.1-1.4-.5-2-.7l-.8-.2h-.2c-.3-.4-.8-.4-1.2-.6-.2-.1-.5-.1-.6-.3h-.2L70 38l-.7-.3c-.3 0-.6-.2-.8-.3l-.5-.2-.4-.2-.6-.2c-.2-.1-.4 0-.6-.3l-.6-.1-.3-.1-.2-.2-.5-.1-.5-.3-.5-.1-.5-.2-2-.7c-.2 0-.4-.1-.5-.3h-.2l-2-.7-1.4-.5-1.4-.5a8 8 0 0 1-1.1-.3c-.3-.2-.7-.1-1-.4l-1.1-.4-.9-.4a.9.9 0 0 0-.4-.2c-.4 0-.7-.2-1.1-.4H50l-1-.4-2.8-1-.5-.1-2.8-1.1-4-1.6-.4-.2-.8-.2c-.4 0-.8-.3-1.2-.4l-.8-.2-.2-.1c-.4-.3-.8-.3-1.2-.4l-2.4-.9h-.3l-.2-.1c-.6-.4-1.4-.6-2.1-.9l-.7-.3-.7-.3-.3-.1c-.5-.2-.9-.5-.8-.8h.3c.2 0 .5 0 .8.2l.6.2h.2c.3.3.8.4 1 .6l.8.3c.2 0 .5.1.7.3l.4.1 1 .4c1.2.4 2.3.7 3.3 1.2.8.1 1.6.5 2.4.8.9.2 1.8.6 2.8 1 .2 0 .3 0 .5.2l.3.1 1.3.5c.2.1.5.1.7.4h.2c.4 0 .8.3 1.2.4l.4.2.7.3.4.1c.6.2 1.1.5 1.7.6l1 .4 3.4 1.2c.3.1.5.3.8.3l.9.4.4.1.6.2.4.1.6.2.5.2.5.2.5.2.6.1.5.3.8.2c.3 0 .6.2.8.3l1 .4.5.1c.2 0 .4 0 .6.2l.3.1 2.2.8c.4.3.8.4 1.3.5l1.8.7 1.9.8c.2 0 .4 0 .5.2l.3.1 1.5.6.9.3 1.4.5c.2.2.4.1.5.1l.5.1.7.2.5.2.3.2.6.2c.2.1.5.1.7.3v.1c.6 0 .9.4 1.4.5 1.2.6 2.5 1 3.8 1.5l1.5.6c1.2.3 2.2.8 3.3 1.2.3 0 .6.1.7.3l.2.1c.4 0 .7.2 1 .4h.3l.5.2.5.2c.3 0 .4.2.6.3h.5l.1.1v.1h.2l.4.2 1 .3.3.2.4.2-1.1.4-.6.3-.4.1-.2.1-.1.1c-.4 0-.6.3-1 .4l-.5.2c-.6.4-1.3.5-1.9.9l-.4.1-.4.1-.7.4-.4.2c-.2 0-.4.1-.5.3a1 1 0 0 1-.5.2c-.5 0-1 .4-1.4.6l-.4.2-.6.2-.8.4-.6.3-.8.3-.4-.1h-.2l-.2-.2-.4-.1-.9-.3c-.3 0-.7-.1-1-.4H79l-2.1-.8-.5-.2-.5-.2h-.2c-.8-.5-1.6-.6-2.5-1-.2 0-.4-.1-.5-.3-.6 0-1-.5-1.6-.5-.3-.1-.8-.2-1-.4l-.3-.1c-.2-.2-.4 0-.6-.2l-.7-.3-.6-.2-.7-.3-.7-.2-1.4-.5h-.2c-.2.1-.4 0-.6-.2l-.4-.2-1.2-.4-.7-.4h-.3c-.6-.1-1-.4-1.6-.6l-.7-.2-.5-.2c-1-.2-1.8-.6-2.6-1-1-.2-1.8-.5-2.6-.9-.2 0-.5-.1-.6-.3h-.3l-.4-.2h-.2l-.5-.2-.5-.2L50 41h-.3l-1-.5-.4-.2-.8-.3-1-.3-1-.4-.9-.3-1-.4-.9-.3-1-.4-.6-.3-2-.8h-.3l-2.4-1c-.4 0-.7-.3-1.1-.4l-.7-.2-.7-.2a1 1 0 0 1-.5-.1l-.3-.2h-.2l-.2-.2-.2-.4-.2-.2-.6-1.3-.4-.6-.2-.5-.3-.7-.5-.9v-.2l-1-1.7-.7-1.4c-.1-.1-.3-.3-.2-.6l-.1-.1-.7-1.2-.7-1.1-.5-1.1c-.3-.6-.3-.8-.1-.9.2-.1.3 0 .6.4l1.5 2.8h.3Z"/><path fill="#141414" d="m22.4 61.7.6-1.5c0-.2.2-.4.1-.6l.3-.4.5-1.4.4-1.3.5-1.4c0-.4.3-.6.4-1l.4-1.1.4-.8.1-.5c0-.2.2-.4.1-.6h.1l.2-.6.1-.5.4-1 .4-.9.4-.9.4-.8c0-.1.2-.3 0-.4l.1-.1c.3-.4.3-.9.5-1.3l.5-1.4c0-.1.1-.3 0-.4l.1-.2c.3-.3.4-.7.5-1l.5-1.2c.1-.2.3-.4.2-.6l.2-.5v-.4l.2-.3c.1-.7.5-1.2.7-1.8l.7-1.8c.1-.3.3-.6.7-.7l.3.1v.4l-.2.6c0 .4 0 .8-.3 1.1 0 .2 0 .3-.2.4 0 .6-.4 1.1-.6 1.7-.1.4-.1 1-.4 1.4 0 .3 0 .5-.2.8-.5.8-.7 1.7-1 2.6l-1.1 2.7c0 .2 0 .4-.2.5l-.2.6c0 .1 0 .3-.2.5l-.9 2.1-.8 2.2-.4 1.3c0 .2 0 .4-.3.5v.4l-.3.9-.5 1.2-.2.8c0 .3-.2.5-.3.8l-.4 1-.4 1a22.7 22.7 0 0 0-1.4 3.6l-.5 1s-.5.2-.6 0l.1-1.1.6-1.7ZM43.5 78l2.9 1 1.1.4.9.4 2.7 1 2.7.8 2.6 1 2 .8 2.3.8 1.5.6 1 .3 1 .3.3.1c.3.3.8.4 1.1.5l.9.2 2.2.8.2.1.1.1h.1l.7-1.8.6-1.6c0-.3.3-.6.2-.9l.1-.2c.5-.8.6-1.7.9-2.6l1-2.7.2-.7c0-.1 0-.4.2-.5l.8-2 .9-2.4c.2-.3.4-.8.4-1.2l.3-.9c0-.2 0-.5.2-.7l.3-.6v-.2c.3-1.2.9-2.3 1.3-3.4l1.2-3.5a4 4 0 0 1 1-1.7c.1-.1.3 0 .2.2l-.1.7-.3 1.2-.7 2.3-.3.7-.1.1c-.2 1.1-.7 2.2-1 3.2-.4 1-.5 1.8-1 2.7 0 .5-.2 1.1-.4 1.6-.8 1.7-1.3 3.5-2 5.2l-2 5.4c0 .3 0 .6-.2 1l-.5 1-.4 1.1-.4 1.1-.1.3-.1.3-.4.9-1.4-.5-1-.4-4.2-1.5-2.6-.9c-.3-.1-.7-.2-1-.5l-.7-.1-1.8-.7-2.4-.8-1.5-.5-1.6-.6-1.9-.8-2-.7a103.9 103.9 0 0 0-7.2-2.7l-2-.9c-.2 0-.5-.6-.4-.6h.2c.7.1 1.3.2 2 .5l3.4 1.2v-.2Z"/><path fill="#141414" d="m34.9 38-6.4 16.7L72.1 71l5.9-17L34.9 38Z"/><path fill="#141414" d="m34 41-1 2.4v.4l-.7 1.6-.7 1.8-.6 1.6-.2.5a1 1 0 0 0-.2.6l-.1.2-.1.1c0 .6-.4 1.1-.5 1.7-.1.1-.2.3-.1.4l-.1.2-.2.3-.6 1.5v.2l.3.1.2.1.3.2c.2 0 .5.1.7.3h.1l.9.3.3.2 5.1 1.9.5.1.5.2.5.2 1 .4.6.3c.3 0 .5.2.7.3l.5.1c.2 0 .5.1.6.3l.6.2 3.5 1.3 1.7.6c.1 0 .3 0 .4.2h.1l.5.2 2.3.8 1.8.7.6.2.5.3h.4l.3.2.7.3 2 .7c.1.1.4.1.4.3h.4c.4.3.9.4 1.4.6l3.2 1.2.9.3.8.3.6.3h.2c.3 0 .5.2.8.3l.8.2.4.2.5.2h.3l2.3.9 1 .3.6.3v-.2l.4-1 .4-1.2.4-.9c0-.3.1-.5.3-.6v-.3c0-.2 0-.4.2-.6l.1-.5.3-.6.2-.6c0-.2.2-.4.1-.6 0 0 .2-.1.2-.3.1-.4.4-.8.4-1.3l.1-.4c.3-.4.3-.7.4-1.1a6 6 0 0 1 .6-1.6l.2-.3v-.3l1.2-3.4.1-.2v-.1l.1-.1.1-.3-.2-.1h-.1l-.2-.1-.3-.1-.6-.2-.2-.1-.3-.1c-.6-.1-1.1-.4-1.7-.6l-.7-.2h-.1c-.3-.3-.7-.4-1-.5l-.6-.3h-.4l-.6-.3-.7-.2-.3-.2-.4-.2-.5-.2c-.2 0-.4 0-.5-.2h-.5l-.3-.2h-.1l-.5-.2-.4-.2-.4-.1-.4-.2c-.6 0-1.2-.4-1.8-.6l-.4-.1-.1-.1c-.6 0-1.2-.4-1.7-.5l-1.2-.4c-.4-.2-.8-.4-1.2-.4a4 4 0 0 1-.9-.4c-.3 0-.6 0-.9-.3l-.9-.3c-.2-.1-.5-.1-.7-.3l-.4-.2-.9-.3h-.3l-.8-.3c-.8-.4-1.5-.5-2.3-.8l-.5-.1-2.3-1-3.4-1.3-.3-.2-.7-.1c-.4 0-.7-.2-1-.3-.3-.1-.5-.3-.8-.2H42c-.3-.3-.7-.3-1-.4l-2-.7-.3-.1h-.2c-.5-.4-1.2-.5-1.8-.8l-.6-.3c-.1 0-.4 0-.5-.2l-.3-.1c-.5-.1-.8-.4-.7-.7h.3l.7.1c.1 0 .3.2.5.1l.1.1 1 .4.6.3c.2 0 .4.1.5.3h.4l.9.4 2.7 1c.7 0 1.3.4 2 .6l2.4.8.4.1.3.2 1.1.4c.2.1.5.1.6.3h.1c.4 0 .7.3 1 .4l.4.1.6.3h.4c.5.2.9.5 1.4.5l.8.4c1 .2 1.9.6 2.9 1l.6.3.8.3c.1 0 .3.1.4 0l.5.3h.4l.4.2c.2 0 .3 0 .4.2h.5l.4.2.5.2.5.2.6.2.7.2.9.4h.3c.2 0 .4 0 .5.3h.3c.7.1 1.3.5 1.9.7l1 .4 1.6.5 1.5.7c.2 0 .4 0 .5.2h.2c.5.1.8.3 1.3.6l.8.2 1.2.4c.1.2.3.1.4.1l.4.1.6.2.4.1h.1l.1.1h.2l.4.2.4.2-.1.6-.2.3v.1l-.1.1v.1c0 .4-.3.7-.4 1l-1.2 3.3-.5 1.4-1 2.8c0 .2 0 .4-.2.5v.2c0 .3-.2.6-.3.8l-.1.3-.1.4-.2.5-.2.4-.1.3v.1c-.2.3-.2.7-.3 1l-.1.2c-.3.4-.5 1-.6 1.6l-.2.4v.2l-.1.1v.1l-.3.6v.3l-.6-.1-.3-.2h-.2l-.8-.3s-.1-.2-.3-.2l-.3-.1-.6-.2-.4-.1-.5-.2-.4-.1c-.4-.3-.8-.3-1.2-.5H66c-.1-.2-.3-.3-.5-.3l-.7-.2-1.2-.5-1.4-.5a2 2 0 0 1-.9-.3h-.2l-1.8-.7s-.2-.2-.3-.1c-.2 0-.3-.3-.5-.2h-.1l-2.1-.9c-.2 0-.4 0-.5-.2-.4 0-.8-.5-1.3-.5-.3-.1-.6-.1-.9-.4h-.2c-.1-.2-.4 0-.5-.2l-.6-.2-.5-.2-.6-.3-.6-.2-1.1-.4h-.2c-.2.1-.3 0-.5-.1l-.3-.2-1-.4c-.2 0-.4 0-.6-.2l-.3-.1-1.3-.5-.5-.2c-.2 0-.4 0-.5-.2-.8-.1-1.5-.5-2.2-.7l-2.2-.8c-.1-.1-.4-.1-.5-.3h-.2l-.3-.1-.2-.1c-.2 0-.3 0-.4-.2l-.4-.1-1-.4h-.1L36 58l-.5-.1-.6-.3-.9-.3-.8-.3-.8-.3-.8-.3-.8-.3-.8-.3a5 5 0 0 1-.5-.3l-.6-.3h-.2l-.3-.1-.6-.3.1-.5.1-.3.4-1 .4-1 .4-1 .2-.6.2-.6.1-.4.4-1 .4-1 .2-.6.2-.4.3-.6c0-.4 0-.4.3-.8v-.2l.6-1.5.4-1.3c.1-.1.1-.4.3-.5v-.1c0-.4.3-.7.4-1l.3-1.1.4-1c.2-.5.3-.6.6-.5.2 0 .2.2 0 .6-.2 1-.6 1.8-.8 2.5l.2.1Z"/><path fill="#fff" d="M52 53.6c.8-2.4-2.3-2.2-2.3-2.2.2-.4.9-2 .2-2.6-1-.8-2.4.1-3.6.6-.3-.4-.5-1.3-.9-1.4-1.3-.7-2 0-3.3.6-.1.1-2.7 2-2.9 2-.1-.6.9-3 .2-3.4-1.3-.7-1.6-.2-2.7.8-.8.6-1.5 1.5-2 2.3-.8 1.1-1.8 1.8-2.6 3-2.7 4-4.5 8.1-7.2 12.1-1.6 2.5-3 4.2-4.7 6.6-.3.6-.2 1.6.3 2 3.7 3 10.2 9.3 10.8 9.7.8.7 1.9.6 2.5-.3l4.3-7.1 6.8-6.5 4-4.1c1.3-1.3 3.2-2 3-3.9-.1-1.8-4.8.3-6.3.2l3.2-3.7 3.3-4.6v-.1Z"/><path fill="#141414" d="m50.4 77.1 1.3.5c.1 0 .3.2.4.1l.4.2 1.1.4 1.2.4H55.1v-.2l.3-.4c0-.3.1-.7.3-1l.3-.6V76c.1-.1.3-.2.1-.4l.1-.1c.2-.1.2-.3.2-.5l.1-.3.4-1 .3-.7c0-.2.1-.5.3-.7l.3-.6c0-.2.1-.3 0-.4l.1-.1h-.1l-.1-.1-.2-.1-.3-.1-.5-.2c-.1 0-.2-.2-.4 0l-.1-.1c-.3-.3-.6-.3-.9-.5l-1-.4c0-.1-.3-.2-.5-.1l-.3-.2H53l-.2-.2c-.6 0-1-.4-1.5-.6l-1.5-.6c-.3 0-.5-.2-.6-.6 0-.1 0-.2.2-.3h.3l.5.1 1 .3s.2 0 .2.2c.6 0 1 .3 1.4.5l1.2.3.6.2 2.2 1 .9.3 1.4.5-.4.9V71.7l-.1.2-.2.5c0 .1 0 .3-.2.4l-.7 1.8c-.2.5-.5 1.1-.6 1.7l-.4 1.1c0 .2 0 .4-.2.5v.3l-.3.7-.4 1.2-.6-.2h-.3l-.2-.1h-.1l-.3-.1-.7-.3-.8-.4c-.3 0-.6-.1-.8-.3l-1.5-.6-1.5-.6c-.4 0-.6-.3-.9-.4v-.5h1l1.4.6ZM34.2 81l1-1.5c.1-.3.3-.4.3-.7l.4-.4 1-1.4.4-.7.1-.2.2-.2.3-.3 1.2-1.1c.3-.4.7-.5 1-.8l.6-.5.3-.2.1-.1.8-.7.4-.5c.1-.1.3-.2.3-.5h.2l.5-.5c0-.2.2-.3.3-.4l1-1 .8-.7.7-.7.8-.7c.1-.1.3-.2.3-.4l.1-.1c.5-.2.7-.8 1.1-1.1l1.2-1.2c.1-.1.3-.2.3-.4l.2-.2.5-.4.3-.2.2-.2v-.1l.1-.1V62.2c0-.2-.1-.4-.3-.4l-.3-.1h-.4l-.2-.1h-.1l-1 .2h-.2l-.2.1-.5.2-2 .9c-.3.1-.6.3-1 .2-.2 0-.2-.1-.1-.3l.3-.3.6-.4c.4-.3.7-.6 1.2-.7.1 0 .3-.2.4-.1h.1c.6-.5 1.3-.6 2-.7l.4-.1h.5c.4 0 .7 0 1 .3.4.1.8.5.9 1l.1.5-.1.6-.1.3-.2.2-.3.4-1.1 1.1-2.4 2.4-.4.4-.5.5-.5.5c-.7.5-1.3 1.2-1.9 1.8l-1.8 1.8-1.1 1.2-.1.1v.1h-.1l-.1.1-.1.1h-.2l-.2.3-.9.7-1.1 1-.6.6-.1.2-.1.2-.3.3-.8 1-.7 1c-.5.5-.9 1.2-1.3 1.8l-1.1 2-.8.9c0 .2-.5.2-.6 0l.4-1.2 1.1-1.8h-.1Z"/><path fill="#141414" d="m42.3 58.8 1.2-1.3.3-.6.4-.3 1.1-1.2 1-1.3.6-.5.5-.6.5-.5.2-.1.3-.3a3.3 3.3 0 0 1 2.3-1h.5l.1.1h.2l.4.3.1.2h.2l.1.3c0 .4 0 .7.2 1v.5L52 55l-.6 1-.6.8-.7.7c-.1.1-.3.3-.3.5l-.6.6-.5.6c-.4.3-.7.8-1 1.2l-.2.4-.2.2c-.3.2-.5.6-.8 1l-.9 1a1 1 0 0 0-.3.6l-.3.4-.2.4-.3.3c-.3.7-.9 1.1-1.2 1.7L42 68.1c-.2.3-.5.6-.8.6-.2 0-.3 0-.3-.2l.1-.4.3-.6.7-1.2.3-.3c.3-.7.7-1.1 1-1.6l.9-1.4c0-.3.3-.6.5-.8.7-.7 1.3-1.6 2-2.5l.5-.6.5-.6.3-.3.3-.3.2-.3.3-.3.4-.4.4-.5.4-.4a5.1 5.1 0 0 0 1.4-3.1v-.4l-.2-.2-.1-.1c-.3-.2-.6 0-1 .1l-.3.1-.3.1-.2.3-.8.6-1 1-.5.7-.7.6-.8.8-.8 1c-.6.4-1 1-1.5 1.5l-1.4 1.6-.8.9h-.6v-.1c.1-.4.2-.8.5-1.1l1.3-1.5Z"/><path fill="#141414" d="m49.4 51 .3-.9v-.4l-.1-.2-.1-.1-.3-.2c-.3-.2-.5-.2-.7-.2-.3 0-.6 0-.8.2h-.1l-.2.1s-.2 0-.3.2H47v.1h-.2l-.3.3c-.2 0-.3.1-.5.3 0 0 0 .2-.2.3 0 0-.2.1-.2.3-.2 0-.3.1-.4.3l-.1.2-.6.6-.5.4-.5.4-.4.3c0 .1-.2.1-.2.3-.4.2-.4.6-.7.8-.3.1-.5.4-.7.6l-.1.3-.1.1c-.3 0-.4.3-.6.5l-.6.5c-.2.1-.3.2-.3.4l-.2.2-.1.3h-.2v.1c-.2.4-.7.6-1 1l-.8.9c-.2.1-.4.3-.7.2-.1 0-.2-.1-.2-.3v-.2l.3-.4c.1-.2.2-.5.5-.6 0 0 0-.2.2-.2.2-.4.5-.6.8-.9.2-.2.3-.6.6-.8 0-.2.1-.3.3-.4.6-.4 1-1 1.4-1.4l1.4-1.4s0-.2.2-.2l.3-.3.3-.3c.5-.3.8-.7 1.1-1l1.2-1.1.6-.7.4-.2.2-.2.3-.2.3-.1c.3-.2.7-.3 1-.3l.3-.1h.4l.7.1.7.6.2.2.1.2.3.5-.1.9-.3.7-.8 1.1-.6.5-.5-.1v-.1c.1-.3.1-.5.3-.7l.7-1v.1Z"/><path fill="#141414" d="M45.2 48.5a1 1 0 0 0-.5-.3H44.4c0 .1 0 0 0 0h-.2l-.3.1h-.1l-.2.1-.6.4-.6.5c-.1.2-.3.2-.5.3a2 2 0 0 1-.5.4l-.4.3s0 .2-.2.2c0 .1-.2.1-.1.3h-.1c-.2 0-.3 0-.3.2l-.1.2-.5.4-.4.3-.4.3-.4.3c-.1 0-.2.1-.2.3-.4 0-.4.4-.6.5l-.6.6-.1.2v.1c-.3 0-.4.2-.6.4l-.5.4c-.1 0-.2.1-.2.3l-.2.2-.1.2-.2.1c-.1.4-.5.5-.7.8l-.8.7c-.1.1-.3.3-.6.2l-.2-.3V57l.2-.3c.2-.2.2-.5.4-.6.1 0 .1-.1.2 0 .2-.4.5-.6.7-.8.2-.2.2-.5.5-.6 0-.2.1-.4.3-.4l1.1-1.1 1.2-1.1s0-.2.2-.2l.3-.2.2-.3c.5-.1.7-.5 1-.8l1-.8.5-.5.3-.2.2-.2.4-.3.6-.4.3-.4a2 2 0 0 1 .8-.3l.3-.1.4-.1h.7l.4.2.3.1.2.1.1.1.1.2.2.1.1.3.3.6v.2l-.1.2-.1.4-.3.1h-.2v-.1l-.1-.3h-.1v-.2a1 1 0 0 0-.2-.6l-.1-.2Z"/><path fill="#141414" d="m23.3 66.8 1-1.5.2-.6.4-.4.4-.7.4-.7.8-1.4.8-1.3.7-1 .8-1.2.6-.8c0-.1 0-.3.2-.5.1-.2.3-.3.3-.6.3-.2.4-.4.5-.6l.2-.5.7-1 .7-.9c.2-.3.3-.6.6-.8l.6-.8c0-.1.3-.3.2-.5h.1c.5-.4.6-1 .9-1.4l.5-.6.5-.7c.1-.1.3-.2.3-.4l.1-.2.5-.4.2-.3V47h.1l.1-.1.8-.5.9-.2.4.1.6.2.2.2.3.3.2.3V48c0 .4 0 .8-.2 1.2l-.4.5-.1.2-.1.2-1.1 1.8c-.2.4-.4.7-.8.8-.2 0-.3 0-.3-.2l.1-.4.3-.6c.2-.4.3-.9.6-1.3.1 0 .1-.3.3-.3l.2-.5.2-.4c.1-.3.3-.5.3-.8v-.6l-.3-.4h-1l-.2.2-.2.2-1 1.2-.5.6-.5.7-.5.6-.4.7-.3.4-.5.6-.3.5c-.6.6-1 1.4-1.5 2l-1.4 2.1-.8 1.4-.4.5-.2.4-.6.9-.7 1.2-.4.8-.5.8-.7 1c-.1.1-.3.3-.3.5l-.4.5-1.3 1.7-1.2 1.8-.7 1c-.1.1-.6.2-.6 0l.4-1.2 1.1-1.7v.1ZM97 69.3a3 3 0 0 0-.6-.9h-.1l-.1-.2H96l-.3-.3H95.4l-.3-.2-.6-.2-1.2-.3c-.4-.2-.8-.4-1.2-.4-.3 0-.6-.3-.9-.4l-1-.3-.6-.3-.5-.1c-.2 0-.3-.2-.5-.1h-.1a.6.6 0 0 0-.5-.3h-.3l-.9-.2H86.2l-.6.4-.3.1-.2.1-.1.1-.2.3v.1c-.2.1-.3.2-.3.4v.3l-.1.3-.5 1.2v.5c-.3.3-.3.6-.4 1l-.5 1-.1.5-.1.4v.3l-.2.3c-.1.6-.4 1-.6 1.5l-.5 1.6c-.1.3-.2.6-.5.7-.2 0-.3 0-.3-.2v-.8c.2-.3.2-.7.3-1 0-.1 0-.3.2-.3 0-.6.3-1 .5-1.5 0-.4 0-.8.3-1.2 0-.3 0-.5.2-.7.4-.8.5-1.6.8-2.3l.4-1.2.1-.3v-.2l.1-.2.1-.1V66l.2-.1v-.2l.4-.4.4-.4.2-.2.3-.1.3-.1h.2l.6-.2a3.3 3.3 0 0 1 2.1.2l1 .4c.3.1.7.1 1 .3l.6.3h.3l.8.3 1 .4.7.1.7.3.8.4.5.1.2.1.3.2.2.1.2.2.3.3c.3.2.5.5.6.8l.1.2.1.2.2.4.1 1v.5l-.1.3-.1.2s-.1.2-.3.2h-.1l-.1-.1V70.8c0-.5 0-1-.2-1.3l-.1-.2Z"/><path fill="#141414" d="m90.2 81.4.6-1.4.2-.5.2-.4.4-1.2.2-1.3c.1-.4.3-.8.3-1.3l.2-1c0-.4.2-.8.3-1.1l.4-.8.2-.5.3-.2v-.2l.1-.1.2-.1.8-.2.3-.1h.3l.8.4.4.7.2 1v.9l-.1.8v.5c-.2.5 0 1 0 1.4l-.2.6v.7c0 .1-.1.3 0 .4v.3l-.2.5-.2.5c-.1.4-.1.8-.4 1.1 0 .2-.2.4-.1.6l-.1.5v.3l-.2.3c-.1.7-.5 1.1-.7 1.7l-.7 1.6c-.2.3-.3.6-.7.6l-.2-.1v-.4l.1-.5c.1-.4.1-.8.4-1.1 0-.1 0-.2.2-.3 0-.6.3-1 .5-1.5l.4-1.3c-.1-.3 0-.5.1-.7.4-.8.6-1.7.7-2.5v-.6l.1-.7.1-1.3v-1.5c.2-.3.2-.7 0-1v-.4l-.2-.3-.3-.1H94.5c-.2 0-.4.2-.6.4l-.4 1c-.1.2 0 .4-.2.5v.3l-.2.9-.3 1.1v.8l-.2.8-.2.4-.2.5-.2.5-.2.5-.8 1.6-.8 1.7-.5.8c0 .1-.5.2-.5 0 0-.4 0-.7.2-1l.7-1.5Z"/><path fill="#141414" d="m82.8 83.8.8-1.4.2-.6.3-.4.6-1.5.2-.7.2-.7.4-1.3c0-.5.2-.8.3-1.2l.3-1.2c0-.3.2-.5.3-.8v-.6c0-.2.2-.4.1-.6v-.1l.3-.6.1-.5c.2-.4.4-.9.8-1.3l.6-.3h.2l.1-.1h1c.3 0 .5.1.7.3l.3.5.2.5c.1.3 0 .5.3.6v.1c-.1.3 0 .5 0 .8l.1.7V75.7c-.2.4-.1.8-.2 1.2 0 .4 0 .9-.2 1.3-.1.2-.2.5-.1.7v.9l-.2.4c0 .7-.3 1.3-.4 2a17 17 0 0 1-.4 2c-.1.3-.2.6-.6.8-.1.1-.2 0-.3-.1v-1c.1-.5 0-.9.3-1.3l.1-.4c0-.7.2-1.3.3-1.8v-.8l.2-.7V78c.3-1 .3-2 .4-3v-2.8l-.2-.5a1 1 0 0 0-.1-.5l-.3-.2c0-.1-.1-.2-.3-.2l-.4.1h-.1l-.1.1-.1.1-.3.4a12 12 0 0 0-.8 2.1l-.3 1.5c0 .2 0 .4-.2.6v.3l-.2 1-.4 1.4-.1.8-.3.9-.5 1-.5 1.1-1 1.8c-.4.7-.8 1.3-1.3 1.8-.2.3-.6.5-1 .7h-.3l-.2-.2v-.1l.7-.8c.4-.4.7-1 1-1.5v-.1ZM79.8 83V79a4.6 4.6 0 0 0-.6-1.7l-.1-.1H78.8l-.5-.2h-.2l-.2.3-.2.4a2 2 0 0 0-.3.8v1.2c-.1.2-.2.4-.1.6v.4l-.2 1.2-.2.9-.1 1c-.2.2-.2.5-.2.8 0 .2-.2.3 0 .5v.1c-.3.4-.1 1-.2 1.4l-.2 1.5c0 .1-.1.3 0 .4v.2l-.3 1.1c-.1.5 0 .9-.2 1.3-.1.2-.2.4 0 .7l-.1.4v.4l-.1.3v.2l-.3 1.8-.3 1.9c0 .3-.1.7-.4.9-.2.1-.3 0-.4-.1v-2.2c0-.1 0-.3.2-.4-.1-.7 0-1.2.2-1.8v-1.4l.1-.9c.3-.9.3-1.9.5-2.8l.4-3v-.4c.2-.2.1-.4.2-.6v-.6c.3-.8.3-1.5.5-2.3l.3-2.3c0-.4 0-.9.2-1.4 0-.2 0-.5.3-.6l.2-.5.7-.4h.7l.7.2h.1l.1.1.2.1.4.4.5.8c.2.3.2.6.2 1v2.2l-.1 2v3.1l-.2.2h-.1a2 2 0 0 1-.4-.5l-.2-.6V83ZM95 86.2l.2-.6s.2-.1 0-.2l.2-.2.3-.5c0-.2 0-.4.2-.6l.2-.5.2-.5.1-.4.2-.3v-.5c.2 0 .2-.2.1-.2v-.2l.1-.5.2-.4v-.3l.2-.4-.1-.2v-1.3c-.1 0-.1 0 0-.1v-.9c0-.1 0-.2-.2-.3V77l-.1-.1v-.2a.5.5 0 0 1-.2-.3l-.1-.4-.4-.5V75c0-.1 0-.2.2-.2h.2l.3.1.4.4s.1 0 0 .2c.2 0 .3.2.3.3 0 .2 0 .3.2.4l.1.3.1.1v.2c.2 0 .3.2.2.4v.6l.1.7v1.3s.1.1 0 .2v.5c-.2.2-.2.3-.2.5l-.1.5-.1.5-.1.5-.1.6s0 .2-.2.2v.2l-.1.3-.2.6v.3l-.2.3-.3.4-.2.4-.5.8a5 5 0 0 0-.3.7l-.3.3-.5-.1v-.6l.3-.6h-.2Z"/><path fill="#141414" d="m91.9 95.6.3-.6v-.3l.2-.2c0-.3.2-.5.3-.7l.2-.6c.1-.3.3-.4.3-.7 0-.2.2-.3.3-.4 0-.2 0-.4.2-.5l.2-.4v-.3c.1 0 .2-.1 0-.3h.1c.2 0 .2-.1.2-.3v-.2l.3-.5.2-.4c0-.1 0-.3.2-.4l.2-.3c0-.1.2-.2 0-.3.3-.2.2-.5.3-.7l.3-.6V86.6c.2-.1.2-.3.3-.5 0-.2 0-.4.2-.5.1-.1.2-.2 0-.3l.1-.3v-.2l.2-.1c-.1-.4.2-.6.2-.9l.3-.9c0-.1 0-.3.4-.3h.3v.6c0 .2.2.4 0 .6l-.1.2-.2.8-.1.7v.5c-.3.3-.4.8-.6 1.3l-.5 1.2-.1.3-.1.3-.2.2c-.3.3-.3.7-.5 1l-.4 1-.2.6c-.1 0 0 .2-.2.2-.1 0 0 .2 0 .2l-.2.4-.3.6-.1.4-.2.4-.3.4-.2.5c-.3.2-.4.5-.5.8l-.4.9c0 .1-.3.2-.3.4h-.5V97c-.1-.2-.2-.5 0-.6 0-.3.2-.6.3-.8Z"/><path fill="#FFFEE9" d="m38.2 42.8.8.3h.1l.6.2.6.2.6.2.1.1h.2v.1h.1l.6.2H42.2l.6.3h.3l.2.2h.2l.3.2h.2l1.7.6.1.1h.2l.2.1.3.2h.2l.3.1.2.1h.2l.2.2 1.1.4.6.2h.1l.3.1.8.3.6.2h.2l.2.1.2.1.2.1.7.2.2.1h.1l.5.2 1 .4h.4l.2.2h.2l.1.1h.3l.3.2.3.1.8.2.8.3.8.3.3.1.2.1.3.1h.2l.1.1.2.1h.2l.1.1.5.1v.1l.5.1.5.3h.2l1.1.4.3.2h.2l.4.1v.1h.1l.6.2.2.1.4.1.2.1h.1l.2.1h.3v.1l.2.1h.2l.2.1h.1l.1.1h.2l.1.1h.2l.1.1.6.2.2.1.6.2.4.1.4.1.3.1.3.1.3.1.3.1v.1l.4.1h.1l.3.1.8.3h.1l.8.3 1.2.4v.1h.3l.3.1.3.1.4.1.7.3h.1l.6.2.2.1.2.1h.1c.2.1.3.2.2.3h-.3l-.2-.1-.3-.2h-.3l-.1-.2h-.5l-.9-.4-.7-.2-.8-.3h-.1l-.1-.1-.4-.2H73l-.4-.2H72.3l-.1-.1-.5-.2h-.3l-1-.4-.2-.1-.3-.1h-.1l-.2-.1h-.2l-.2-.2h-.4l-.2-.1h-.2l-.2-.2h-.3l-.1-.1h-.2l-.1-.1-.6-.2-.4-.1-.5-.2-.6-.3h-.2l-.4-.2h-.3l-.4-.2H63.8l-.2-.1h-.2l-.2-.2H63l-.4-.2-1-.4-.5-.2-1-.3-.2-.1-.3-.1h-.2l-.2-.1-.1-.1h-.2l-.3-.2h-.1L58 50l-.3-.1h-.2l-.5-.3H56.7l-.2-.1h-.1l-.2-.1h-.1c-.2-.2-.3-.2-.5-.2h-.1l-.2-.1-.2-.1-.4-.2-.5-.1-.3-.1-.7-.3H53c-.2-.2-.5-.2-.7-.3l-.1-.1-.5-.2h-.3v-.1H51l-.2-.1-.2-.1h-.2l-.2-.2h-.4l-.2-.1h-.1l-.4-.2-.2-.1-.5-.2h-.2l-.2-.1-.7-.3a6.2 6.2 0 0 1-1-.3h-.1l-.2-.1H46l-.3-.2h-.1l-.3-.1h-.1l-.3-.1-.3-.1-.2-.1-.3-.1-.3-.1-.3-.1-.2-.1-.2-.1-.6-.2-.8-.3-.3-.1h-.2L41 44H41l-.3-.2-.4-.1H40l-.1-.1-.2-.1-.3-.1-.6-.2-.4-.1-.2-.1-.4-.1-.3-.1-.4-.2-.2-.1h.3l.8.2.2.1ZM55 52.4l.4.1.3.1.3.2h.3v.1h.2l.3.1h.1l.3.1h.2v.1h.2l.1.1.9.4h.4v.1h.2l.2.1.6.3h.5l.3.2.3.1H61.4l.1.1.4.1v.1l.3.1.5.2H63l.1.1h.4l.1.1.4.2h.4l.4.2.1.1H65.2l.2.1s.1.1.2 0l.2.1.3.1.2.1h.1l.6.3h.1l.3.1.3.1H68l.1.1h.2v.1H68.7v.1h.4l.4.1.3.1.2.1h.2l.2.1h.1l.2.1.1.1h.2l.2.1.4.1.4.2.6.2h.2l.1.1h.4l.3.2h.4v.1h.2l.1.3H73.9l-.1-.1h-.1l-.1-.1h-.2l-.5-.2-.3-.1-.4-.1H72l-.2-.1-.1-.1h-.2l-.2-.1H71l-.1-.1-.5-.2-.2-.1H70v-.1h-.5l-.1-.1-.1-.1H69l-.4-.1-.1-.1-.3-.1-.2-.1H68l-.3-.1h-.1l-.2-.1H67l-.1-.1h-.1l-.2-.1c-.2-.1-.4-.1-.5-.3h-.3l-.4-.2h-.1l-.2-.1H64.9l-.2-.1-.3-.1-.1-.1h-.1l-.3-.1h-.4l-.2-.1H63l-.2-.1-.3-.1-.1-.1-.3-.1H62l-.3-.2h-.1c-.1 0-.1-.1-.2 0l-.2-.1H61l-.1-.1H60.7l-.2-.1h-.1l-.2-.1H60l-.2-.1h-.2l-.4-.2-.3-.1h-.2v-.1H58.3l-.2-.1-.2-.1H58l-.1-.1h-.1l-.2-.1h-.1l-.1-.1h-.1l-.3-.2-.4-.1h-.1s-.1-.1-.1 0c0 0 0-.1-.1 0L56 53l-.2-.1h-.1l-.2-.1h-.1l-.3-.1-.2-.1-.2-.1h-.2l-.2-.1s-.1 0 0-.1v-.1l.5.1.2.1Z"/><path fill="#FFFEE9" d="m69.7 50.7-.2.3v.3l-.2.3v.2h-.1v.4l-.1.1v.2l-.1.1v.1l-.1.1v.2l-.3.8v.1h-.1v.2l-.1.1V54.5h-.1l-.2.5v.4l-.2.4v.2h-.1v.2l-.1.1-.1.3v.1l-.1.2-.2.5v.2l-.1.1v.4l-.2.4-.1.3-.1.3v.1l-.1.1v.2l-.1.1v.4l-.1.2-.1.2v.1l-.2.5v.1s-.1 0 0 0l-.1.2-.1.3v.2l-.1.1v.1l-.1.1v.6l-.1.3h-.1v.3l-.1.1v.2l-.1.1v.1l-.1.2v.1l-.1.2v.1l-.1.3v.1l-.2.3-.2.5V66s-.1 0 0 .1l-.1.2v.2l-.2.3v.2s-.1.1-.2 0v-.4h.1v-.2l.2-.4v-.3l.2-.3V65l.1-.1v-.2h.1V64.4l.1-.1.1-.4v-.1l.1-.1V63.4h.1V62.7l.2-.3V62l.2-.2v-.1l.1-.2v-.3c.1 0 0 0 0 0V61l.1-.1.1-.2.2-.5v-.1l.2-.5.1-.2v-.2l.1-.1.1-.3v-.1l.1-.3V58.1l.1-.2v-.4l.1-.2v-.1l.2-.3v-.1l.1-.3c0-.1.2-.1.1-.3h.1v-.4h.1v-.3l.1-.2v-.1l.1-.2V55l.2-.4v-.3h.1v-.4l.1-.1v-.2h.1v-.2h.1v-.2h.1V53h.1l.1-.3.1-.3.1-.1v-.4l.1-.1v-.1l.1-.2.1-.3V51h.1V50.7l.1-.2h.2v.4-.2ZM64.7 50.3l-.1.3-.1.3-.1.1v.3h-.1v.3l-.1.3-.1.1v.2H64l-.2.7v.1l-.1.2-.1.1v.2l-.2.5v.2h-.1l-.1.3v.3H63v.2l-.1.1-.1.3-.1.2-.2.4v.4s-.1 0 0 0l-.1.1v.1l-.1.3-.1.3-.1.3-.1.1v.4l-.1.3v.1l-.2.2-.1.5v.1l-.1.1v.3s-.1 0 0 0l-.1.2h-.1V60.2l-.1.1V60.9h-.1v.4l-.1.1v.2H61v.2h-.1V62l-.1.4-.1.3-.2.4v.2s-.1 0 0 .1l-.1.1-.1.3-.1.3-.1.1s0 .1-.1 0V63.8h.1v-.2l.2-.4v-.2l.1-.3.1-.2.1-.2v-.1l.1-.3.2-.4V61.2l.1-.1v-.6l.2-.3V60l.2-.2V59.5l.1-.1V59l.1-.1v-.2l.3-.3v-.2l.1-.3v-.1l.1-.1v-.2l.1-.1.1-.3V57l.1-.2V56.6l.1-.2V56l.1-.1v-.1l.2-.3v-.1l.1-.3.1-.2v-.2l.1-.1V54.2h.1V54h.1v-.4l.2-.3v-.3h.1V52.7l.1-.1v-.1l.1-.1v-.1l.1-.1V52l.1-.1.1-.3.1-.2v-.2s.1 0 0 0v-.1l.1-.1V51s.1-.1 0-.1h.1v-.2l.2-.2V50l.1-.1h.2v.4h-.2Z"/><path fill="#FFFEE9" d="m58.7 57.4.3.1h.2l.2.1.2.1h.1l.2.1h.1l.2.1h.1l.2.1h.1l.6.3H61.6v.1h.2l.2.1.4.2h.2l.4.1.2.1.1.1h.2l.3.1v.1h.2l.4.2h.2v.1h.4l.3.1.3.1.3.1.1.1h.4s0 .1 0 0v.1h.2l.2.1.2.1.5.1v.1h.2l.3.1h.2v.1H68.5v.1H69v.1h.4l.2.1h.2l.1.1h.1l.2.1.4.1.3.1.4.2H71.7l.2.1h.2l.3.2h.1l.1.2H72.2l-.1-.1h-.2l-.3-.2h-.2l-.3-.1H71l-.1-.1h-.1l-.1-.1h-.2s-.1-.1-.2 0l-.1-.1-.3-.1h-.1l-.1-.1H69L69 61h-.1l-.3-.1h-.1l-.2-.1-.2-.1-.2-.1H67.6c0-.1 0 0 0 0h-.2l-.1-.1-.2-.1-.4-.2h-.1l-.4-.2H66s0-.1 0 0l-.1-.1h-.2l-.2-.2H65s0-.1-.1 0h-.1c-.1-.2-.2-.1-.2-.1h-.2l-.2-.1h-.2v-.1H63.7v-.1h-.1l-.3-.1-.2-.1H62.9l-.1-.1H62.4l-.1-.1h-.1l-.2-.1H62l-.3-.1-.2-.1h-.1l-.1-.1h-.1l-.1-.1H60.8v-.1h-.4v-.1h-.1L60 58l-.3-.1h-.1s-.1-.1-.1 0l-.2-.1h-.1s0-.1 0 0l-.1-.1H59l-.2-.2h-.4l-.1-.1c-.1 0-.1 0 0-.2h.3v.1Z"/></svg>