<svg xmlns="http://www.w3.org/2000/svg" width="120" height="120" fill="none"><path stroke="#B4E41D" stroke-linejoin="bevel" stroke-width="26.7" d="m43.8 108.6-30-63.2 71 52.1L36 20.1 106.2 68 81.7 11.4"/><path fill="#fff" d="M36.6 22.7c1.2 3.7 7.5 25.6 21 31.6 0 0 3-11.3 9-12.8a10 10 0 0 1 8 1.3l2.3-.3-.3 2.8v7.6S83.8 49.3 87 43c2.7-5.4 5.5-12.4 7.9-11.4 2.3.9 3.1 7 .2 15 0 0 4 0 3.5 3.7-.5 3.6-2.9 16.6-16.2 17.2 0 0-1 21.6-27.2 24 0 0-4.4 6.6-6.9 6.9l1.4-4.2s-9.6 5.7-10.8 2.9c-.2-.5 3.6-4.5 3.6-4.5S28.6 94 31.3 89.2c1.6-2.8 8.8-4 13-7 4-3 6.6-6.6 6.6-6.6s-26.6-7.2-26-16.4c0 0 .3-3.2 3.7-2 0 0-8.2-9-7.2-13 1-3.9 5.4-2.7 6.4-1.6 0 0-2.3-11.6.6-17.7 3-6.1 7-5.8 8.2-2v-.1Z"/><path fill="#141414" d="m48.7 76.1-2-.2c-.3 0-.6-.2-.9 0-.1.2-.3-.2-.5-.2l-2-.4-1.8-.3-1.8-.6c-.6 0-.9-.5-1.4-.6-.5-.1-1-.3-1.4-.7-.3-.2-.6-.5-1-.6-.2-.1-.5 0-.7-.2-.2-.1-.3-.4-.7-.2V72a.6.6 0 0 0-.7-.5l-.6-.2-1.3-1-.9-.8-.9-.8c-.2-.4-.5-.6-.8-.9-.1-.1-.2-.4-.5-.3l-.1-.1c-.2-.8-1-.8-1.3-1.3L26 64.5c0-.1-.1-.3-.4-.3l-.2-.3c0-.5-.4-.9-.7-1.4-.2-.5-.6-1-.6-1.6 0-.4 0-.7-.4-1-.2-.1 0-.6-.1-.9v-.7c0-.3.2-.4.4-.6v-.2a2 2 0 0 1 1.5-1.3l1.5-.3c1-.1 2 0 2.8.3.4.1.9.3 1 1 0 .3 0 .6-.3.7l-.5.2h-.7c-.5 0-1 .2-1.4 0-.2 0-.3.1-.4-.1l-.1-.1c-.6.4-1.1.3-1.4.6v.9c.3 0 .5.4.4.6 0 1.1.9 2 1.5 3 .7 1 1.5 1.8 2.3 2.6.2.2.4.1.5.4 0 .3.3.4.5.5l.5.5c.5 1 1.4 1.3 2.1 1.9l2.4 1.4 1.6.7c.2.1.5 0 .5.5h.5l1.1.4 1.5.5 1 .1 1 .3 1.2.5c.4.1 1 0 1.3.3.8.4 1.6.3 2.4.5h2.4l1.3.3c.2 0 .5.8.5 1l-.1.2c-.5.2-.9.6-1.4.6l-2.4-.1Z"/><path fill="#141414" d="M24 52.2c-1-1.3-2-2.6-2.6-4.2-.2-.6-.3-1.2-.7-1.9-.2-.3.1-1 0-1.6 0-.8.2-1.6.5-2.4.3-.8 1-1.8 2-2.1 1.1-.4 2-.2 2.8 0l.3.1.1.1c.2.2 0-.3-.1-.4l-.1-.5-.1-.8-.1-1.7c-.2-1.3-.2-2.5 0-3.7l.4-2.6.1-1.6c.2-.6.4-1.1.3-1.7 0 0 0-.3.2-.4a4 4 0 0 0 .6-1.7c0-.6.3-1 .5-1.4.5-1.1 1.2-2.2 2.2-3.2.3-.4.7-.8 1.3-1 .3-.3 1.3-.7 2-.5h.4a4 4 0 0 1 1.7 1.3l.7 1.3.9 2.4c.2.4.3 1 .7 1.2l.2.3c0 1.4 1.1 2.4 1.6 3.8.4 1.3 1 2.6 1.7 3.8.2.4.2.8.6 1l.4.6c.1 1.1.8 2 1.3 3s1.3 2 1.7 3.2c.2.5.5 1.1 1.2 1.5l.8 1c.2.4.5.6.8.8l.4.9.2.2c1.4 1.2 2.2 2.7 3.6 3.9 1.3 1.1 2.7 2.3 4.2 3.3.8.6 1.6 1.1 1.9 2 .1.4 0 .7-.4.6-.4 0-.8-.1-1.1-.3l-1.6-.8c-1-.5-2.2-1-3.1-2-.3-.2-.7-.4-.8-.8l-.1-.3c-1.6-.8-2.6-2.2-3.7-3.5-1-1-2-2-2.8-3.3a4.8 4.8 0 0 1-1.6-2c-1.2-2.6-2.7-5-4-7.5l-3.3-7.9c-.2-.4-.5-.7-.6-1.3-.1-.5-.5-1.1-.7-1.6-.2-.6-.6-1-.7-1.5a3 3 0 0 0-.4-.8l-.2-.3-.4.1c-.3.1-.5.3-.7.6-.5.4-1 1-1.3 1.5-1.2 1.7-2 3.8-2.4 5.8l-.4 3.9c0 .5.1 1.1-.2 1.6-.1.2.2.7.2 1 0 1 .1 1.8.3 2.7l.1 1 .4 1.6.9 3.6.6 2.1-2.5-2.1a13 13 0 0 0-2.4-1.8l-.6-.3-.2-.1-.4-.1c-.6-.1-.7-.2-1.1.5-.4.8-.4 1.8-.4 2.6-.1 1.7.8 3.3 1.9 4.8 1 1.5 2.2 2.9 3.6 4.1.8.7 1.3 1.6 2.1 2.3.4.3.4 1.3 0 1.4h-.1c-1-.5-2-.9-2.8-1.7a42.4 42.4 0 0 1-3.7-4Z"/><path fill="#141414" d="M70.8 41.5H69l-1 .1-1 .3-.8.4-.7.3-.7.4-.5.3-.2.3-.3.2-.3.3-.2.2-.6.6-.4.4-.4.6-.4.4-.2.3c-.3.2-.3.5-.5.8l-.5.9-.1.2-.1.2-.4.6-.4.8-.2.4v.3l-.2.2V51.3l-.6 1.2-.4 1.2-.2.6v-.7c0-.3-.2-.6 0-.9v-.3s.1 0 0 0c-.1-.5 0-.8.2-1.2 0-.4-.2-.8 0-1.1-.2-.3-.1-.5 0-.7.5-.5.6-1.2.9-1.9l1-1.8c0-.1-.1-.4.1-.4s.2-.2.3-.3l.3-.4c.7-.1.8-.7 1.3-1.1l1.2-1.1c.3-.3.4-.8.8-.9.1 0 .2-.3.5 0 .1 0 0-.3.2-.3l.6-.4c.4 0 .7-.2 1-.3.2 0 .4-.3.6-.4h.7l.9.1c.3 0 .5-.1.8.1.5.3 1 .3 1.5.4l1.3.6c.2 0 .4.3.6.4l.2.1h-.8l-1.1-.3ZM73.2 42.6s-1 2-.4 4.4c0 0 1 1.5 4 1.3 0 0 1.6-3.8 1.4-4-.2-.2-4.4 2-4.4 2l2.9-3.5-.3 1.7.6-.3s.7-2.4.5-2.6c-.2-.1-4.3 1-4.3 1Z"/><path fill="#141414" d="m73 43.3-.2.6v.1l-.1.5V46.8l.1.2.1.1.1.1.2.2h.1l1.2.6h.4l.3.1h.8c.2 0 .6.1.8 0l.2-.4V47.4l.3-.5.1-.5.1-.1V46l.1-.1v-.3l.2-.5h.1V45l.1-.4v-.4c0-.2-.2 0-.3 0h-.2l-.2.1h-.1v.1H77l-.2.2H76.5l-.6.4-.5.2-.6.3-.2.1h-.1l-.2.2h-.1l-.2.1-.2.1-.2.1v-.1l.3-.3.2-.3.3-.3.1-.2.6-.6.1-.2.1-.1.2-.2.1-.1.3-.4.1-.1.2-.3h.1v-.1l.2-.2.1-.2V44.2l.3-.2.1-.1.1-.4v-.2l.1-.2v-.2l.1-.2V42l.1-.5h-.7l-.9.3h-.5l-.2.1-.3.1a3 3 0 0 1-.5.1l-.6.1h-.1l-.2.1H73h.2l.2-.1h.3l.1-.1H74.2l.2-.1.7-.2.5-.1.6-.2h1.3v.6l-.2.8v.2l-.1.2v.7H77l-.1.2h-.2l-.1.1h-.3v-.5l.1-.5v-.5.2h-.1l-.2.3-.2.2-.2.2v.1l-.1.2h-.1v.1l-.1.1-.1.2-.2.2-.6.6-.2.3-.4.6h-.2.1l.2-.2h.2l.1-.1h.1v-.1h.1l.2-.2.5-.1.2-.1.5-.3h.1l.2-.1.2-.1v-.1l.4-.2h.2l.1-.1.3-.1.4-.2h.2c.2 0 .3.2.2.2v.5l-.2.5v.2l-.2.3v.2l-.1.2v.1l-.1.2v.1l-.1.1-.1.3v.2h-.1l-.1.3v.2h-.1l-.1.4c0 .1-.2 0-.2 0h-2.1l-.2-.1H74.3l-.2-.2h-.2l-.2-.1-.2-.2h-.2l-.1-.2-.1-.1c0-.1-.3-.2-.3-.4l-.1-.6V44.3l.1-.4v-.3l.1-.2.1-.3.1-.2.1-.3.1-.1v.1l-.2.6-.2.1ZM70 45.9c.4.7.2 1.3-.2 1.5-.4.1-1-.2-1.2-1-.3-.7-.1-1.3.3-1.4.4-.1.9.1 1.2.9Z"/><path fill="#141414" d="m69.8 45.4-.3-.3h-.1L69 45h-.3l-.2.2v.2l-.1.3v.5l.1.3v.2l.2.1v.2h.2c0 .1 0 .2.2.2l.3.1h.3l.2-.2.1-.1v-1.1.2l.1.2v.8l-.2.1c-.1.2-.3.3-.5.2a1 1 0 0 1-.6-.3l-.1-.2h-.1l-.2-.5a3 3 0 0 1-.1-.4v-.7l.2-.3h.2l.1-.1h.5l.3.3.2.4.1.2v-.2l-.3-.3ZM48.8 95.2l-.1.1-.5.5-.2.1-.3.1-.4.4c-.1.3-.7.2-1 .4-1.1.5-2.3.9-3.5 1-.2.2-.5.2-.8.2l-1.1.1h-1.4c-.5 0-.7-.2-1-.3-.3-.1-.7-.2-.8-.4-.1-.2-.3-.6-.2-.8l.3-.6.5-.6.5-.4 1.1-.6.6-.4 1-.7 2-1.8c.4-.4 1-.8 1.3-1.3l.5-1 .2-.4 1.6 1-.4.8-.3.2c-.5.2-.9.6-1.2.9a4 4 0 0 1-.9.7c-.9.5-1.8.9-2.8 1.1-.7.3-1.4.3-2.1.4-.8.1-1.6.3-2.3.2a58 58 0 0 0-2-.1c-.5-.1-.9-.3-1.3-.1h-.3c-1-.7-2.4-.8-3.2-2.2-.2-.3-.2-.8-.3-1.1 0-.4 0-1 .2-1.4.5-.9 1.1-1.2 1.6-1.5.3-.2.6-.3.8-.6l.5-.3c1 0 1.7-.5 2.5-.8.9-.3 1.7-.9 2.6-1.1a2 2 0 0 0 1.3-.8c.1-.2.6-.3.8-.5l.7-.6.7-.3h.2c1-1 2.3-1.6 3.3-2.6l3-3c.4-.5 1-1.1 1.7-1.2.4 0 .6.1.5.4l-.4.8-.8 1.2c-.5.7-1 1.5-1.8 2.2-.2.2-.4.5-.8.5l-.1.1c-.8 1.2-2 1.8-3 2.6-1 .7-1.7 1.5-2.8 2-.4.5-1 .8-1.7 1a66.6 66.6 0 0 0-7 3.3c-.2.2-.2.2 0 .6.1.6 1 1 1.9 1.4l1 .1c.3.2.8.2 1.3.2h1.2c1.6.2 3.3-.4 4.8-1a7.6 7.6 0 0 0 3.6-2.5l1.3.9-.2.3c-.5 1-1 2-1.9 2.7-.3.3-.6.8-1 1-.2 0-.4.4-.6.6l-1.8 1.4-.4.3h-.1l-.2.2c0 .1.4 0 .4 0h.4c.7 0 1.5-.1 2.2-.3.8-.2 1.5-.6 2.2-.9.4 0 .7-.2 1.4-.7.5-.2 1.2-.9 2-1.5l1-.1.2-.1.1-.2.4 1-.6 1.6-.8 1.9-.6 1.1c-.1.4-.9.7-1 .4v-.2l.1-1.2v-.5l.1-.2.2-.5.2-.6ZM80.2 58l1 2.4c.1.3.1.6.4.8.2.1 0 .5.1.8l.6 2.2c.1.8.4 1.5.4 2.3l.1 2.3-.2 1.8c0 .6 0 1.3-.3 1.9l-.5 1.3c0 .2 0 .5-.2.8 0 .3-.3.6-.2.9l-.1.1c-.2.3-.4.6-.4.9 0 .3-.2.5-.3.7l-1 1.6-1 1.1-1 1.1a9 9 0 0 0-1 1c-.1.1-.4.3-.4.6H76c-.7.4-1 1.1-1.6 1.5l-1.9 1.4c-.2.1-.4.2-.4.4l-.4.3c-.6.1-1 .5-1.5.8-.6.3-1.1.7-1.8.9-.3 0-.6.2-.9.5 0 .2-.4.3-.6.4l-.5.4h-.5l-.2.1c-.8.7-1.8.8-2.6 1.2l-2.8 1c-.6.1-1.1.2-1.6 0-.2-.2-.2-.3 0-.5l.4-.3.9-.4c.5-.2 1-.6 1.7-.7.2 0 .3-.3.6-.1h.1c.7-.6 1.6-.8 2.4-1.2.6-.3 1.2-.8 1.9-1 .2-.4.7-.6 1-.7 1.4-.5 2.6-1.4 3.8-2.2 1.2-.8 2.4-1.7 3.4-2.7.2-.1.3-.4.6-.5l.6-.7.6-.6c.9-.7 1.5-1.7 2.1-2.6.7-1 1.2-2 1.5-3l.6-2c0-.3 0-.6.3-.9V71l.1-1.4c0-.7.2-1.3 0-2l-.1-1.2-.2-1.2c0-.5 0-1-.2-1.5l-.4-1.6c-.2-1-.6-2-1-2.9-.4-.8-.7-1.8-1.2-2.6l-.7-1.5c-.1-.2 0-.8.3-.7h.1c.4.4.9.8 1.2 1.3l1.2 2.5Z"/><path fill="#141414" d="m89.4 65.3 1.4-1 1.4-1.1c.3-.4.7-.6.9-1 0-.3.5-.5.8-.8a20 20 0 0 0 1.8-2.8l1.1-3c.3-1 .7-2 .7-3 0-.8.2-1.5 0-2.3-.1-.8-.3-1.4-.6-1.8l-.4-.5-.3-.1-.8-.2-.2-.3-.5-.4-.4-.5-.2-.5c.2-.5.5-1.1.3-1.5l.2-.2c.4-.3.5-.9.5-1.3v-1c.3-.8.4-1.7.6-2.5l.4-2v-2a3 3 0 0 0-.3-1.6c-.1-.3-.2-.7-.6-.6l-.1-.1c0-.5-.4-.6-.6-.5l-.8.4c-.7.4-1.3 1.4-1.8 2.4-.1.2-.3.4-.3.8l-.1.5c-.6.6-.9 1.5-1.3 2.3-.5.9-.9 1.8-1.5 2.6-.3.3-.6.8-.7 1.3 0 .3-.4.6-.6 1l-.5.8-.5.5-.2.2c-.7 1.3-2 2.2-3 3.2a18.4 18.4 0 0 1-5.5 3.5l.7-.4 1.1-.8c.8-.5 1.4-1.2 2.2-1.9l.6-.6.2-.1 2.4-3 1.6-2.9c.1-.6.5-1.2.8-1.8 1.2-1.8 1.7-3.8 2.7-6 .5-1 1.2-2.1 2.1-3a4 4 0 0 1 2-1.1 3 3 0 0 1 2.5.7c.4.3.8.6 1 1.2.1.5.5 1 .6 1.6l.3 1.5c-.2 2-.2 3.8-.6 5.6l-.7 2.5L97 45l-.2.5v.2s-.1.2 0 .2h.2l.6.2c.3.1.6.3.8.6.5.4 1 1 1 1.6l.4 1v2.4c0 1.1-.3 2.2-.5 3.3-.3.6-.3 1.2-.6 1.9-.2.6-.5 1.2-1 1.8-.3.8-1 1.4-1.4 2.1-.6.7-1.1 1.5-1.8 2-1.2 1-2.4 2-3.8 2.8a16 16 0 0 1-4.3 1.7l-2.4.3H83h.2a14.2 14.2 0 0 0 6.1-2.2ZM80.7 39.2c.9 0 1.6-.5 1.6-1s-.7-1-1.6-1c-.9 0-1.5.5-1.5 1s.6 1 1.5 1Z"/><path fill="#141414" d="m81.8 37.7-.3-.2H80l-.2.1-.2.1v.1l-.1.1-.1.1V38.6l.2.1h.1l.3.1.3.1H81.4l.4-.3.2-.2.1-.2h.2V38.5c0 .1 0 .2-.2.3H82c0 .2-.2.3-.4.3l-.3.2h-1a3 3 0 0 1-.8-.2l-.1-.1-.1-.1-.2-.2-.2-.6c0-.3.2-.4.3-.6l.3-.3h.2l.3-.1h.4l.2-.1h.5l.2.1.5.3c.2 0 .3.2.4.4v.3s0 .1-.1 0l-.2-.1-.2-.3Z"/><path fill="#141414" d="M81.7 37.6v-.4s.1-.1 0-.2l.1-.1V36c0-.1.1-.3 0-.4v-.3l.1-.4.1-.2v-.1l-.1-.2c.1 0 .1-.1 0-.1v-.5l.2-.4v-.3H82.7l.1-.2c.2.1.3 0 .4 0l.4-.1.1-.1h.4c.1 0 .2-.1.4 0l.1-.1.1-.1h.2c.2-.2.4 0 .5-.1l.5-.2c.1 0 .2 0 .3.2v.3l-.1.2-.3.1h-.2c-.1.2-.3.1-.4.2l-.4.2h-.2l-.8.2-.7.1-.2.1h-.1l-.1.3v1l-.1.1v1.4l-.1.3-.1.5v.6l-.1.3h-.4c-.1-.1-.3-.2-.2-.3v-.5ZM74.1 33.8c.9 0 1.6-.5 1.6-1s-.7-1-1.6-1c-.9 0-1.5.5-1.5 1s.6 1 1.5 1Z"/><path fill="#141414" d="m75.2 32.3-.3-.1s0-.1-.1 0l-.1-.1h-1.3l-.2.1-.2.1v.1l-.1.1-.1.1v.4l.1.2.1.1h.1c0 .2.2.1.3.2H74.8l.4-.3.2-.2.1-.2h.2V33.1c0 .1 0 .3-.2.3-.2.2-.3.3-.5.3l-.3.2h-1a3 3 0 0 1-.8-.2v-.1l-.2-.1-.2-.1-.2-.7c0-.3.2-.4.3-.6l.3-.3h.2l.3-.1h.4l.2-.1h.5l.2.1.5.3c.2 0 .3.2.4.4v.3s0 .1-.1 0l-.2-.1c0-.1 0-.2-.2-.3h.1Z"/><path fill="#141414" d="M75.1 32.2v-.4s.1-.1 0-.2l.1-.1v-.8c0-.1.1-.3 0-.4l.1-.3v-.4l.1-.2v-1.6h.7l.2-.2c.1.1.2 0 .4 0l.4-.1v-.1h.4c.2 0 .3-.1.4 0l.1-.1.2-.1h.1c.2-.2.4 0 .6-.1l.5-.2s.2 0 .3.2v.3l-.2.2-.3.1H79c-.2.2-.4.1-.5.2l-.4.2H78l-.8.2-.7.1-.2.1h-.1l-.1.3v1l-.1.1v1.4l-.1.3-.1.5v.6l-.1.3h-.4c-.1-.1-.3-.2-.2-.3v-.5ZM79.4 33c.8-.2 1.4-.8 1.2-1.3-.1-.5-1-.8-1.7-.5-.9.2-1.4.8-1.3 1.3.2.5 1 .8 1.8.5Z"/><path fill="#141414" d="m80 31.4-.3-.1h-.8l-.3.2-.2.1-.2.2-.2.1V32.6l.1.1.2.1s0 .1 0 0l.4.1h.7l.2-.1h.2v-.1l.1-.1h.1l.3-.3.1-.3.1-.2h.2V32.5h-.1c0 .3-.2.4-.3.5l-.3.2-.2.1-.8.2h-.8l-.3-.1-.1-.1-.4-.6.2-.7.2-.3h.2v-.2l.3-.1.3-.2h.2l.2-.1h.6l.5.1c.2 0 .4.2.5.3l.2.3-.2.1-.2-.1-.3-.2v-.1Z"/><path fill="#141414" d="M80 31.6v-.2l-.1-.1V31l-.1-.2v-.2c-.1 0 0-.1 0-.2-.1 0-.1-.1 0-.1V30h-.1l-.1-.1v-.8l-.1-.2v-.3h-.1c.1-.1 0-.1 0-.2v-.2s.1 0 0-.1l-.1-.1V27.4l.2-.2H79.8l.1.1s.2.1.1.2v.3l.2.2v.5l.1.5V30l.2.2v.1c-.1 0 0 0 0 0v.4l.1.1V32l-.3.1H80v-.5ZM77.3 66l-.6-1.8c-.1-.3-.1-.5-.4-.7v-.6l-.5-.8-.2.2v.2l-.2.4-.9 1.5c-.1.5-.5.8-.7 1.2l-.7 1.4-.6.9c0 .2 0 .4-.2.6-.1.2-.3.4-.2.7l-.2.1-.7 1.1-.6.6-.4.2-.6-.2-.4-.7-.2-1V68.3l-.3-1.2v-1c0-.3 0-.5-.2-.7.2-.7-.2-1.2-.3-1.8V63.1l-.1.2c0-.3-.4.3-.7.6-.4.4-.7.8-1.2 1.1-.2.2-.4.3-.5.7l-.4.5c-.1.1 0 .2-.3.5l-.7.3-.1.2c-.6.5-1 .7-1.6.8l-.2-1.8-.1-1.5v-1.2c0-.5 0-1 .4-1.2.1-.2.3-.2.4 0l.2.5.1.7c.1.5.3 1 .2 1.5 0 .2.1.3 0 .4.2.1 0 .5.3.3l.1-.3.5-.6.6-.8c.5-.4 1-.8 1.3-1.3l.3-.3.2-.2.2-.3c.4-.4.8-.6 1.2-.7.4 0 .7.2 1 .7l.3 1.4.2 1.8c0 .2.2.4.1.6l.1.8.1.7v1.3l.2.5c.3-.2.3-.2.7-1.1l.7-1.6c.2-.2.2-.5.5-.6l.1-.5.5-1 .8-1.5.5-1c0-.1.6-1 1-1.2.3-.1.6-.4 1 0 0 0 .2 0 .3.2l.3.4.8 1.6c.1.9.5 1.6.7 2.4l.7 2.4c.2.4.2.9.3 1.3 0 .2-.3.6-.5.6h-.1c-.3-.5-.6-.8-.7-1.3l-.7-2.1h.1ZM54.5 95.1l.3-.3s.2 0 .1-.1h.2c0-.2.2-.2.3-.4l.2-.3.3-.3.2-.2.1-.3s.2 0 .2-.2v-1.3c.1 0 .1-.2 0-.2 0 0 .1-.1 0-.2.1-.1-.1-.2-.1-.4l-.1-.4-.1-.1v-.7s0-.2-.2-.2v-.1h-.1v-.2c-.2-.1 0-.4-.2-.5l-.2-.5.2-.4H55.9l.1.1.2.3c0 .1.1.1 0 .2.2.1.2.3.3.4l.2.4s.1.1 0 .2l.3.9.2.8v1.3l-.1.7-.2.4-.1.2v.1l-.2.2-.3.4-.1.2-.2.2-.2.2-.3.2c-.2 0-.3.2-.5.3l-.4.4-.3.1-.3-.2.1-.4.4-.3Z"/><path fill="#141414" d="m57.4 96.2-.1-.4-.1-.1c-.1 0 0 0 0-.1l-.1-.4-.2-.3-.1-.3s0-.1 0 0V94.2v.1l-.1.1c0-.2 0-.2 0 0v-.1c0-.1 0 0 0 0s-.1-.1 0 0c-.1-.1 0 .1 0 0l-.1.3v.1l-.1.2c-.1.1 0 .2-.2.3v.4l-.2.4-.1.5-.3.1-.3-.1V96l.1-.4V95l.3-.6.4-1v-.2l.1-.2.1-.2c.2 0 .2-.6.3-.6l.4.8.2.4v.3l.1.1.2.4v.3l.2.1v.5l.2.2v.5l.1.5v.3h-.4c-.1 0-.2 0-.2-.2l-.1-.3ZM72.5 91.8l.1-.4V91.1c0-.1.1-.3 0-.4v-.4c0-.1.1-.3 0-.4V89l-.2-.1v-.2l-.2-.2-.2-.1-.1-.2-.2-.1h-.2c0-.2-.2 0-.3-.1l-.4-.1h-.1l-.4-.1-.3-.1h-1.5l-.3-.3v-.3h.1l.2-.1h.3s.1-.1.1 0c.2-.2.4 0 .6 0 .1 0 .2-.2.4 0 .1-.2.2-.2.2-.1l.9.2.8.3h.2l.1.1h.2l.6.6.4.7.1.4s.1.1 0 .2v.8l.1.3v.5l-.1.3c-.2.2-.1.4-.2.6v.5l-.2.3h-.4l-.2-.4.1-.5Z"/><path fill="#141414" d="m75.4 90.8-.3-.3h-.2l-.3-.3h-.3L74 90l-.1-.1-.1-.1v.2-.1c-.1-.1-.1 0-.1 0h.1c-.2 0 0 0 0 0l.1.3.1.1v.6l.2.1v.1h.1v.2c.2 0 0 .3.1.4l.2.4-.1.3H74l-.1-.1-.2-.2V92c-.2-.1-.1-.3-.2-.4 0-.1-.2-.1-.2-.3l-.1-.1-.2-.7-.4-1s-.1-.1 0-.2l-.2-.2v-.2l-.2-.6.8.4.4.1c.1 0 .2 0 .3.2h.1l.3.2.3.1.2.1.2.1.2.2.2.1c0 .2.2.3.3.4.2 0 .3.2.4.3l.2.2-.3.3h-.3l-.3-.2Z"/></svg>