<svg xmlns="http://www.w3.org/2000/svg" width="120" height="120" fill="none"><path stroke="#B4E41D" stroke-linejoin="bevel" stroke-width="26.7" d="m43.8 108.6-30-63.2 71 52.2L36 20 106.2 68 81.7 11.4"/><path fill="#fff" d="M69.1 69.1s3 5.5 1.1 11.8l28.5-1.3L99.8 65l-30.7 4Z"/><path fill="#fff" d="M70.2 81s0-9-1.1-11.9l1.1 11.8Z"/><path fill="#141414" d="m69.9 70 .1.6.1.2c.1 0 0 .1 0 .2l.1.6.2.5v.5c.1.2 0 .3 0 .4v.8l.1.2.1.2v.3l.1.1V75.8l-.1.3.1.2c-.2.2.1.3 0 .5v.6l.1.1v.1c-.2.2 0 .3 0 .5l-.1.4v.3c.1 0 0 0 0 .1l.1.2v1.5c0 .2-.1.3-.4.4H70l-.2-.1v-.3c-.1-.1-.3-.3-.2-.4l.1-.2c-.2-.2 0-.4-.1-.6 0-.2-.2-.4-.1-.5-.2-.1-.2-.2-.1-.3v-2.1c0-.1-.1-.1 0-.2V76c0-.1-.1-.2 0-.2V75l-.1-.8c0-.2-.2-.3-.1-.5 0 0-.1-.1 0-.2.1 0 0-.1 0-.1L69 73v-.5l-.2-.2v-1.8l-.3-.7c0-.1.1-.3 0-.4l.5-.3h.1l.4.3.2.7h.1Z"/><path fill="#fff" d="M98.5 79.8s2.3-9 1.3-14.6l-1.3 14.6Z"/><path fill="#141414" d="M100.5 66.4v.8l.2.2-.1.2V70.7c-.1.1-.2.3-.1.4v.3l.1.2c-.2.1-.2.2-.1.3v.8l-.2.4v.4l-.2.4.1.2c-.2.2 0 .5 0 .7-.2.2-.2.4-.2.7v.2c.1 0 0 0 0 0l-.1.6c-.1.2 0 .4-.2.5-.1.1-.2.2 0 .3v.4l-.1.1v.1l-.2.8-.2.9c-.1.1-.2.3-.5.3l-.4-.1-.1-.2V78.5l.1-.1c-.1-.3 0-.6.1-.8v-1.1c.3-.3.3-.8.4-1.2L99 74s-.1-.1 0-.2v-.5c.3-.3.2-.7.3-1l.1-1V70.4c.1 0 0-.1 0-.2v-2.7c.2-.3 0-.6 0-.9v-1.3l.5-.2h.1c.2.1.4.2.4.4v.8l.1.1ZM94 44.8H59.3v23.4h34.9V44.8Z"/><path fill="#141414" d="M59.9 55.4V63.2c.2.4 0 1 0 1.7v2.7h1.3l5.1-.2h13.5c1 .1 2.1.2 3.1.1h2c.6 0 1.3 0 1.9-.2h.5a6 6 0 0 0 2.1 0H93.2V67l.1-3.3v-3.3l.1-3.1c0-.6.1-1.3-.1-1.8v-.3c.3-1.7-.1-3.3 0-5v-4.6l-.5.1h-.9c-1.3-.2-2.7 0-4-.1l-4.6-.1h-2.4c-.3.2-1 0-1.6 0l-1.4.2-1.2-.1h-.3c-2.3.2-4.5-.1-6.7 0h-6.8c-1.3 0-2.6-.1-3.4-.5-.4-.2-.4-.4.1-.5l1.3-.2H63c1.5-.2 3-.3 4.4-.2h1.7c2-.2 4.1 0 6.1 0 1.8 0 3.4-.3 5.2-.2 1-.2 2-.2 3-.1l5.2.1h6.3V60.9l-.2 3.6v4.3h-9.6c-1.6 0-3.3.2-4.9.1H68.6l-2.9.2H61l-2.5-.1v-5.2c.2-2.3.1-4.7.2-7v-7l.1-3.8c0-.6.5-1.5.7-1.2v.2c.2 1.3.5 2.5.5 4v6.3l-.1.1Z"/><path fill="#fff" d="M59.4 44c-.3 1.1 2.4 3.3 4.6 3 2.2-.2 9.3-4.6 9.3-4.6s-2.8-3.3-5.3-3.3c-4.5 0-8 2.7-8.6 4.8Z"/><path fill="#141414" d="m61 41.3 1.4-1 .5-.3.5-.2 1.4-.5 1.5-.4 1.5-.1c.4-.1.8 0 1.2.1.5.2 1 .3 1.2.6l.8.5.5.3.5.3.5.5c.2 0 .3.2.4.3l.4.4.7.8-.4.2-1.1.6-.9.5-.8.4-.4.3c-.5.1-.9.5-1.3.7l-1.4.7-.3.2-.2.2c-.4 0-.8.3-1.1.4-.4.1-.8.4-1.3.4l-.7.2h-.5l-.4.1-.4-.1h-.1c-.7 0-1.3-.5-1.9-.8-.6-.4-1.1-.8-1.5-1.5-.2-.3-.4-.8 0-1.1 0-.1.1 0 .1 0l.1.4.3.4.9.8c0 .1.2.1.2.3h.1l1.5.7H64l.7-.2c1-.1 1.8-.6 2.7-1l2.6-1.4.4-.3c.2 0 .4-.2.5-.3.2 0 .4-.2.5-.3.3 0 .6-.2 1-.4l.3-.2.1-.1v-.1c-.4-.4-1-1-1.7-1.4L70 40c-.2 0-.4-.1-.5-.3H69l-.8-.2h-1.3l-.8.1-.8.2-1 .3-1 .4c-.6.2-1.2.5-1.7 1-.5.3-1 .7-1.3 1.2l-.6.9-.4.2c0-.5.1-.9.3-1.2l1.3-1.4h.1Z"/><path fill="#fff" d="M66.4 43.3c-.4 1.4 2.4 4 4.6 3.8 2.2-.3 9.3-5.5 9.3-5.5s-2.9-4-5.3-4c-4.5 0-8 3.2-8.6 5.7Z"/><path fill="#141414" d="m67.7 40.3 1.4-1.1.5-.5s.3 0 .5-.2l1.5-.7 1.5-.5 1.6-.1c.5-.1 1 0 1.4.2.4.1.9.3 1.2.6l.8.7.5.3.4.4.1.1.5.5.3.4.4.4.7.9-.3.2-1.1.7-.9.6-.8.5-.4.3c-.6.2-.9.7-1.3 1l-1.4.8-.3.2-.3.2-1 .5c-.5.2-.9.5-1.4.5l-.8.3h-1l-.4-.1h-.1c-.8-.2-1.4-.7-2-1.1-.5-.4-1-1-1.4-1.7-.1-.4-.2-1 0-1.2h.3l.1.4c0 .2.2.3.3.5l.8 1s.2.1.2.3h.1l1.5.9c.4.2 1 .1 1.4.2.2-.2.4-.2.7-.3 1-.2 1.8-.8 2.7-1.3 1-.5 1.8-1 2.6-1.7.2 0 .3-.2.5-.3.2 0 .3-.2.5-.4.2 0 .3-.2.5-.3l.9-.5.4-.3.1-.1v-.2c-.5-.5-1-1.2-1.7-1.7l-1.1-.8-.5-.4-.4-.1c-.2-.2-.5-.3-.8-.3a6 6 0 0 0-2.1.3l-.9.2-1 .3-1 .5c-.7.3-1.2.8-1.7 1.2-.5.5-1 1-1.3 1.6l-.5 1-.4.2c0-.5 0-.9.2-1.3l1.2-1.6Z"/><path fill="#fff" d="M72 43.3c-1 2 2.4 4 4.6 3.8 2.2-.3 9.3-5.5 9.3-5.5s-2.8-4-5.3-4c-4.5 0-7.5 3.4-8.6 5.7Z"/><path fill="#141414" d="m73.6 40.4 1.3-1.2c.2 0 .4-.2.5-.4l.5-.2 1.5-.8 1.6-.5 1.6-.1c.5 0 1 .1 1.4.3.4.1.8.4 1.2.7l.7.6.5.4.5.4v.1l.5.5.3.3.4.5.5.7-.7.5-.9.5c-.3.2-.5.5-.8.6l-.8.5c-.2.1-.4.2-.4.4h-.1c-.5.2-.9.6-1.3.9l-1.4.8c-.1.1-.3.1-.3.3l-.3.1c-.4.1-.7.4-1 .6-.5.1-1 .4-1.5.4l-.7.2h-1l-.4-.1H75c-.8-.1-1.4-.6-2-1-.6-.4-1.2-1-1.3-1.9-.1-.5 0-1 .3-1.1.1-.1.2 0 .2.1v.4l.1.5c.1.4.4.7.7 1l.2.3h.1l1.6.8c.4.2 1 .1 1.4.2l.8-.1c1-.2 1.8-.8 2.7-1.3.9-.5 1.8-1 2.6-1.7.2 0 .3-.2.5-.3.2 0 .4-.2.6-.4l.5-.3 1-.6.6-.5-.3-.3-.4-.5-.8-.8-1.2-1c-.1 0-.4-.1-.5-.3l-.3-.2-.9-.3a4.5 4.5 0 0 0-2 .2l-.9.2-1 .4-1 .5c-.7.3-1.2.8-1.7 1.3s-1 1-1.3 1.6l-.7.9c0 .1-.4.2-.5.1l.4-1.2 1.3-1.6h-.1Z"/><path fill="#fff" d="M80.3 36.3c-.6 1-2.1 3.2 1.6 5.7l3.6 2.1 8-.4c-3.7-6.1-11.7-10.1-13.2-7.4Z"/><path fill="#141414" d="m80 37.1-.2.7v.1l-.1.4v.5l.1.4v.2l.1.1v.1c.2.1.2.3.3.4l.1.1v.1l.3.4.2.1v.2l.2.1.2.2 1.3 1h.2l.1.1.3.2.1.1.2.2h.2l.1.1.1.1 1 .6.4.2s0 .1.1 0l.1.1H87c0-.1 0-.1 0 0H88s0-.1.1 0h.5l1-.1h.5s.1-.1.1 0h.1l.2-.1h.3c0-.1 0 0 0 0h.2l.1-.1.7-.1H92.6c.1 0 0-.2.3 0v-.1l-.1-.1-.1-.1V43h-.2v-.1s0-.2-.2-.3h-.1c0-.2-.1-.2-.2-.3l-.2-.4-.2-.1-.6-.8-.1-.2s0-.1-.1 0c0-.2-.2-.2-.3-.3v-.1L90 40s0-.1-.2 0v-.1c0-.2-.2-.2-.2-.3 0 0-.2 0-.1-.1h-.1l-.2-.2h-.1V39H89v-.2h-.2c0-.1-.1 0-.2 0v-.1l-.1-.1v-.1l-.2-.1c-.3 0-.4-.3-.5-.3 0 0-.1 0 0-.1h-.1c-.2 0-.3-.2-.4-.3l-.4-.1c0-.1-.1-.2-.3-.2l-.2-.1-.2-.1-.3-.2-.1-.1h-.1c-.2 0-.2 0-.3-.2H85c-.1-.2-.4-.2-.6-.3h-.1l-.6-.3c-.3-.2-.6-.2-1-.3h-1l-.4.2h-.1l-.4.1-.2.1h-.5V36l.1-.2.3-.2h.2s.1-.1.2 0l.1-.2h.3c.2 0 .5-.2.8-.1.2-.2.4 0 .6 0h.7l.1.1h.1l.3.2h.2s0 .1 0 0l.3.1.1.1H85l.4.2.2.1c.3 0 .5.2.8.4l.2.1.2.1s0 .1.1 0l.1.1h.2l.1.2h.1l.1.1h.2l.1.1.2.1.2.1.1.2h.1l.2.1c.3 0 .3.3.5.4l.3.2.3.3.3.3.1.1v.1c.2 0 .3.1.3.2l.2.2c.2 0 .2.1.3.2 0 .1.1.1.1 0l.2.1s0 .1.1 0l.1.2.1.2.1.1.2.3.6.8c0 .1 0 .3.2.3l.6.7.1.3c.2.1.2.2.2.3l.1.1.1.2.1.1.1.2.1.1v.1l-.2.1h-.9c-.2 0-.2.1-.4 0h-.2c-.1.2-.3.1-.4.1H91.2c0 .1-.1.1-.2 0l-.3.1H90.4c0 .1-.1 0-.2 0l-.3.1h-.7v.1h-.6c-.1.1-.2 0-.2 0h-.7s0 .1-.1 0c-.1.1-.3-.1-.4 0H87s0 .1-.2 0h-.6l-.4.1c0 .2-.1.1-.2 0h-.2l-.4-.2-.1-.1-.4-.2-.2-.1-.1-.1c-.3 0-.4-.2-.6-.3l-.5-.3s-.2 0-.1-.2h-.2l-.1-.1h-.1c-.1 0-.2 0-.2-.2h-.1s-.2 0-.2-.2l-.3-.2-.2-.1-.2-.2-.2-.1-.2-.2-.2-.1-.2-.2v-.1l-.4-.4a2 2 0 0 1-.5-.6V40l-.2-.2-.1-.1s-.1-.1 0-.1l-.1-.4-.1-.3-.1-.2V38.1l.1-.6v-.4l.2-.1v-.4l.1-.3.2-.3c0-.1.1-.1.4 0 .2.1.2.2.2.3 0 .3-.3.5-.3.7l.1.1Z"/><path fill="#141414" d="M103.4 50.5c-.7-.9-1.4-1.8-2.3-2.5-.3-.2-.6-.6-1-.7-.3 0-.5-.4-.9-.6-.9-.5-1.9-.8-3-1-1-.2-2-.2-3 0-1 0-2 .1-2.9.6-.7.3-1.5.5-2.1 1l-2 1.6c-.5.4-.9.8-1.2 1.3l-.5 1c-.2.4-.5.8-.4 1.1 0 0 0 .2-.2.3-.2.3-.4.8-.4 1.2v.9c-.2.8-.3 1.7-.2 2.5 0 .6 0 1.3.2 2L84 61c.1.6.5 1.1.8 1.7.2.2.4.6.7.7l.2.2c.4 1 1.4 1.3 2.2 2a9 9 0 0 0 2.7 1.3c.3.1.6.2.9.1l.5.1c.7.4 1.5.3 2.3.3l2.7-.3c.4 0 .9-.2 1.3-.5.1-.2.5-.3.8-.5l.7-.5.6-.2.2-.2c.9-.9 2-1.7 2.6-2.8.7-1.2 1.3-2.4 1.5-3.7.2-.8.3-1.5.7-2 .2-.2.4-.3.5.1l.1.8V59c-.2 1-.3 2-.8 2.8-.2.3-.3.7-.6.8l-.1.2a7.8 7.8 0 0 1-2.5 3.1c-.9.7-1.7 1.6-2.8 2-.5.4-1.3.7-1.9.8-2.3.4-4.6.5-6.9-.2-2.2-.7-4.2-2-5.8-3.7-.2-.3-.5-.5-.7-1l-.8-1.2c-.3-.4-.5-.9-.6-1.3a17 17 0 0 1-.9-5.3 13.5 13.5 0 0 1 3.3-8c.3-.3.6-.7 1-.9.2 0 .5-.4.7-.6a14.2 14.2 0 0 1 5-2.2l1.9-.4a9.4 9.4 0 0 1 4.5.8c.8.3 1.7.6 2.4 1.2 1.3 1 2.5 2 3.4 3.2 1 1.2 1.6 2.6 2 4.1.3.9.3 1.7.3 2.5 0 .4-.4 1-.6.8l-.1-.2-.7-2.2c-.2-1.3-.8-2.5-1.5-3.6Z"/><path fill="#fff" d="M94 68.2a11.7 11.7 0 1 0 0-23.4 11.7 11.7 0 0 0 0 23.4Z"/><path fill="#141414" d="M103.4 50.5c-.7-.9-1.4-1.8-2.3-2.5-.3-.2-.6-.6-1-.7-.3 0-.5-.4-.9-.6-.9-.5-1.9-.8-3-1-1-.2-2-.2-3 0-1 0-2 .1-2.9.6-.7.3-1.5.5-2.1 1l-2 1.6c-.5.4-.9.8-1.2 1.3l-.5 1c-.2.4-.5.8-.4 1.1 0 0 0 .2-.2.3-.2.3-.4.8-.4 1.2v.9c-.2.8-.3 1.7-.2 2.5 0 .6 0 1.3.2 2L84 61c.1.6.5 1.1.8 1.7.2.2.4.6.7.7l.2.2c.4 1 1.4 1.3 2.2 2a9 9 0 0 0 2.7 1.3c.3.1.6.2.9.1l.5.1c.7.4 1.5.3 2.3.3l2.7-.3c.4 0 .9-.2 1.3-.5.1-.2.5-.3.8-.5l.7-.5.6-.2.2-.2c.9-.9 2-1.7 2.6-2.8.7-1.2 1.3-2.4 1.5-3.7.2-.8.3-1.5.7-2 .2-.2.4-.3.5.1l.1.8V59c-.2 1-.3 2-.8 2.8-.2.3-.3.7-.6.8l-.1.2a7.8 7.8 0 0 1-2.5 3.1c-.9.7-1.7 1.6-2.8 2-.5.4-1.3.7-1.9.8-2.3.4-4.6.5-6.9-.2-2.2-.7-4.2-2-5.8-3.7-.2-.3-.5-.5-.7-1l-.8-1.2c-.3-.4-.5-.9-.6-1.3a17 17 0 0 1-.9-5.3 13.5 13.5 0 0 1 3.3-8c.3-.3.6-.7 1-.9.2 0 .5-.4.7-.6a14.2 14.2 0 0 1 5-2.2l1.9-.4a9.4 9.4 0 0 1 4.5.8c.8.3 1.7.6 2.4 1.2 1.3 1 2.5 2 3.4 3.2 1 1.2 1.6 2.6 2 4.1.3.9.3 1.7.3 2.5 0 .4-.4 1-.6.8l-.1-.2-.7-2.2c-.2-1.3-.8-2.5-1.5-3.6Z"/><path fill="#141414" d="M101 52.1c-.5-.7-1-1.3-1.7-1.8-.3-.2-.5-.5-.8-.5-.2 0-.3-.4-.6-.5l-2.2-.8h-2.2c-.8 0-1.5.1-2.2.5l-1.5.7a16.5 16.5 0 0 0-2.4 2.2l-.4.7c-.1.3-.3.5-.3.8v.2c-.3.2-.4.6-.4.9v.6l-.1 1.9.1 1.4.5 1.4c0 .4.3.8.5 1.2.2.2.3.5.5.5l.2.2c.3.7 1 1 1.5 1.4.7.4 1.4.8 2.1 1l.6.1h.4c.5.3 1.1.3 1.7.3l2-.2c.3 0 .7-.2.9-.4.1-.2.4-.2.6-.4.2 0 .4-.2.5-.3l.5-.2.1-.1c.6-.7 1.5-1.3 2-2.2.4-.8.8-1.7 1-2.7.2-.5.3-1 .6-1.4.1-.2.3-.2.3 0l.1.7v1c-.2.7-.2 1.4-.6 2-.1.2-.2.5-.4.6l-.1.1c-.3 1-1.1 1.7-1.8 2.3-.7.6-1.3 1.2-2.1 1.5-.4.3-1 .5-1.4.6-1.7.3-3.4.4-5-.1a9.3 9.3 0 0 1-4.3-2.8c-.2-.2-.4-.3-.6-.7L86 61l-.4-1c-.4-1.2-.7-2.5-.6-3.9 0-1.3.4-2.6 1-3.8.4-.7.8-1.5 1.3-2 .3-.3.5-.6.9-.7l.5-.5a8.4 8.4 0 0 1 3.6-1.6l1.4-.2h1.5l1.8.5c.6.2 1.3.5 1.8.9.9.7 1.8 1.4 2.5 2.3l1.5 3c.2.7.2 1.3.2 2 0 .2-.4.6-.5.5v-.1c-.2-.6-.5-1-.6-1.7-.2-.9-.6-1.8-1-2.6v.1ZM64.8 44.8H30v23.4h34.8V44.8Z"/><path fill="#141414" d="M30.7 55.4V63.2c.2.4 0 1 0 1.7v2.7H32l5.1-.2h13.5c1 .1 2.1.2 3.1.1h2c.6 0 1.3 0 1.9-.2h.5a6 6 0 0 0 2.1 0H64V67l.1-3.3v-3.3l.1-3.1c0-.6.1-1.3-.1-1.8v-.3c.3-1.7-.1-3.3 0-5v-4.6l-.5.1h-.9c-1.3-.2-2.7 0-4-.1l-4.6-.1h-2.4c-.3.2-1 0-1.6 0l-1.4.2-1.2-.1h-.3c-2.3.2-4.5-.1-6.7 0h-6.8c-1.3 0-2.6-.1-3.4-.5-.4-.2-.4-.4.1-.5l1.3-.2h2.1c1.5-.2 3-.3 4.4-.2H40c2-.2 4.1 0 6.1 0 1.8 0 3.4-.3 5.2-.2 1-.2 2-.2 3-.1l5.2.1h6.3V60.9l-.2 3.6v4.3H56c-1.6 0-3.3.2-4.9.1H39.4l-2.9.2h-4.7l-2.5-.1v-5.2c.2-2.3.1-4.7.2-7v-7l.1-3.8c0-.6.5-1.5.7-1.2v.2c.2 1.3.5 2.5.5 4v6.3l-.1.1Z"/><path fill="#141414" d="M74.2 50.5c-.7-.9-1.4-1.8-2.3-2.5-.3-.2-.6-.6-1-.7-.3 0-.5-.4-.9-.6-.9-.5-1.9-.8-3-1-1-.2-2-.2-3 0-1 0-2 .1-2.9.6-.7.3-1.5.5-2.1 1l-2 1.6c-.5.4-.9.8-1.2 1.3l-.5 1c-.2.4-.5.8-.4 1.1 0 0 0 .2-.2.3-.2.3-.4.8-.4 1.2v.9c-.2.8-.3 1.7-.2 2.5 0 .6 0 1.3.2 2l.6 1.8c.1.6.5 1.1.8 1.7.2.2.4.6.7.7l.2.2c.4 1 1.4 1.3 2.2 2a9 9 0 0 0 2.7 1.3c.3.1.6.2.9.1l.5.1c.7.4 1.5.3 2.3.3l2.7-.3c.4 0 .9-.2 1.3-.5.1-.2.5-.3.8-.5l.7-.5.6-.2.2-.2c.9-.9 2-1.7 2.6-2.8.7-1.2 1.2-2.4 1.5-3.7.2-.8.3-1.5.7-2 .2-.2.4-.3.5.1l.1.8V59c-.2 1-.3 2-.9 2.8-.1.3-.2.7-.5.8l-.1.2a7.8 7.8 0 0 1-2.5 3.1c-.9.7-1.7 1.6-2.8 2-.5.4-1.3.7-1.9.8-2.3.4-4.6.5-6.9-.2-2.2-.7-4.2-2-5.8-3.7-.2-.3-.5-.5-.7-1l-.8-1.2c-.3-.4-.5-.9-.6-1.3a17 17 0 0 1-.9-5.3 13.5 13.5 0 0 1 3.3-8c.3-.3.6-.7 1-.9.2 0 .5-.4.7-.6a14.2 14.2 0 0 1 5-2.2l1.9-.4a9.4 9.4 0 0 1 4.5.8c.8.3 1.7.6 2.4 1.2 1.2 1 2.5 2 3.4 3.2 1 1.2 1.6 2.6 2 4.1.3.9.3 1.7.3 2.5 0 .4-.4 1-.6.8l-.1-.2-.7-2.2c-.2-1.3-.8-2.5-1.5-3.6Z"/><path fill="#fff" d="M64.9 68.2a11.7 11.7 0 1 0 0-23.4 11.7 11.7 0 0 0 0 23.4Z"/><path fill="#141414" d="M74.2 50.5c-.7-.9-1.4-1.8-2.3-2.5-.3-.2-.6-.6-1-.7-.3 0-.5-.4-.9-.6-.9-.5-1.9-.8-3-1-1-.2-2-.2-3 0-1 0-2 .1-2.9.6-.7.3-1.5.5-2.1 1l-2 1.6c-.5.4-.9.8-1.2 1.3l-.5 1c-.2.4-.5.8-.4 1.1 0 0 0 .2-.2.3-.2.3-.4.8-.4 1.2v.9c-.2.8-.3 1.7-.2 2.5 0 .6 0 1.3.2 2l.6 1.8c.1.6.5 1.1.8 1.7.2.2.4.6.7.7l.2.2c.4 1 1.4 1.3 2.2 2a9 9 0 0 0 2.7 1.3c.3.1.6.2.9.1l.5.1c.7.4 1.5.3 2.3.3l2.7-.3c.4 0 .9-.2 1.3-.5.1-.2.5-.3.8-.5l.7-.5.6-.2.2-.2c.9-.9 2-1.7 2.6-2.8.7-1.2 1.2-2.4 1.5-3.7.2-.8.3-1.5.7-2 .2-.2.4-.3.5.1l.1.8V59c-.2 1-.3 2-.9 2.8-.1.3-.2.7-.5.8l-.1.2a7.8 7.8 0 0 1-2.5 3.1c-.9.7-1.7 1.6-2.8 2-.5.4-1.3.7-1.9.8-2.3.4-4.6.5-6.9-.2-2.2-.7-4.2-2-5.8-3.7-.2-.3-.5-.5-.7-1l-.8-1.2c-.3-.4-.5-.9-.6-1.3a17 17 0 0 1-.9-5.3 13.5 13.5 0 0 1 3.3-8c.3-.3.6-.7 1-.9.2 0 .5-.4.7-.6a14.2 14.2 0 0 1 5-2.2l1.9-.4a9.4 9.4 0 0 1 4.5.8c.8.3 1.7.6 2.4 1.2 1.2 1 2.5 2 3.4 3.2 1 1.2 1.6 2.6 2 4.1.3.9.3 1.7.3 2.5 0 .4-.4 1-.6.8l-.1-.2-.7-2.2c-.2-1.3-.8-2.5-1.5-3.6Z"/><path fill="#141414" d="M71.7 52.1c-.5-.7-1-1.3-1.7-1.8-.2-.2-.4-.5-.8-.5-.1 0-.3-.4-.6-.5l-2.1-.8h-2.3c-.7 0-1.5.1-2.1.5l-1.6.7a16.5 16.5 0 0 0-2.3 2.2l-.4.7c-.1.3-.3.5-.3.8v.2c-.3.2-.4.6-.4.9v.6c-.2.6-.2 1.3-.2 1.9 0 .5 0 1 .2 1.4 0 .5.3 1 .4 1.4l.6 1.2c.1.2.3.5.5.5l.1.2c.3.7 1 1 1.6 1.4.6.4 1.3.8 2 1l.7.1h.3c.6.3 1.2.3 1.8.3l2-.2.9-.4c0-.2.4-.2.6-.4.2 0 .3-.2.5-.3l.4-.2.2-.1c.6-.7 1.4-1.3 2-2.2.4-.8.8-1.7 1-2.7.2-.5.2-1 .5-1.4.2-.2.3-.2.4 0l.1.7v1c-.2.7-.3 1.4-.7 2 0 .2-.1.5-.3.6l-.1.1c-.4 1-1.1 1.7-1.9 2.3-.6.6-1.2 1.2-2 1.5-.4.3-1 .5-1.4.6-1.7.3-3.4.4-5-.1a9.3 9.3 0 0 1-4.3-2.8c-.2-.2-.5-.3-.6-.7l-.6-.9-.5-1c-.3-1.2-.6-2.5-.6-3.9.1-1.3.5-2.6 1-3.8.4-.7.8-1.5 1.4-2 .2-.3.5-.6.8-.7l.5-.5a8.4 8.4 0 0 1 3.6-1.6l1.4-.2H66l1.9.5c.6.2 1.2.5 1.7.9 1 .7 1.9 1.4 2.5 2.3.7 1 1.2 2 1.6 3 .2.7.1 1.3.2 2 0 .2-.4.6-.5.5v-.1c-.2-.6-.5-1-.6-1.7-.2-.9-.6-1.8-1-2.6v.1Z"/><path fill="#fff" d="M59.2 56.5s5.4-5.6 12.5 0H59.2Z"/><path fill="#141414" d="m70.3 56.4-.5-.4h-.3v-.2l-.6-.3h-.6c-.1-.1-.3-.3-.5-.2l-.4-.2-.4-.1-.3-.2c-.1 0-.2.2-.3.1 0 0-.1-.1-.2.1-.1-.2-.2-.2-.3 0h-.6l-.3-.1h-.4c-.1-.1-.2 0-.4 0 0 0-.1-.1-.1.1H64c-.2-.3-.3.1-.5.1l-.6.1s-.1 0 0 .2h-.6c-.2.1-.3.3-.5.2-.1 0-.2 0-.2.2h-.1l-.1.3-.2-.1c-.1.3-.4.2-.6.4l-.6.4c-.1.1-.2.2-.6 0l-.3-.4V56l.1-.2c.1-.2.1-.4.3-.5.1 0 0-.1.2 0 .1-.4.5-.4.7-.5.1-.1.2-.4.5-.5 0-.2.1-.3.3-.3.5 0 .8-.2 1.2-.4l1.3-.3s.1-.1.2 0h.6c.4.2.7 0 1 0l1 .2h.7l.3.1c0 .1.1 0 .2 0l.4.1.6.2h.4l.3.1.4.4c.1 0 .3 0 .4.2.2.3.5.3.7.5l.7.5c.2.1.2.3.3.4l-.3.6v.1c-.3 0-.5.2-.7 0l-.6-.4Z"/><path fill="#141414" d="M67.2 59.6c1 0 1.7-1.2 1.7-2.6 0-1.4-.7-2.5-1.7-2.5s-1.7 1.1-1.7 2.5.7 2.6 1.7 2.6Z"/><path fill="#141414" d="m68.2 56-.2-.5s0-.1-.2 0v-.3l-.4-.2h-.3c0 .1-.2 0-.3.2l-.2.2-.3.3-.2.2c0 .1.1.2 0 .2l.1.2c-.2.1-.2.2-.1.3V58s0 .1.2 0v.1c-.2.3.2.2.2.3 0 .2.2.3.3.3 0 0 0 .1.1 0 0 .2.2.1.3.1h.3s.1 0 0-.1l.1-.1v-.2h.2c0-.3.2-.3.3-.5l.1-.6c0-.2.1-.3.4-.4h.4l.1.2.1.3v.5l-.1.2c.1.3-.2.6-.3.8-.1.2-.2.5-.4.6 0 .3-.2.4-.4.4-.6.1-1.2.2-1.8-.1-.5-.3-.8-.7-1-1.1 0-.1-.2-.1-.1-.3l-.1-.3-.1-.3v-1l.1-1.1c.1-.3 0-.5.2-.7 0 0 0-.2.2-.2l.1-.2.3-.4.7-.4.5-.2h.5l.6.4c.2.1.4.2.4.4l.5 1 .3.8-.1.5-.5.2h-.1l-.4-.4-.1-.6h.1Z"/><path fill="#fff" d="M88.2 56.3s5.3-5.7 12.5 0H88.2Z"/><path fill="#141414" d="M99.3 56c-.2 0-.3-.2-.5-.3h-.3v-.2l-.6-.2-.6-.1c-.2 0-.3-.3-.5-.2l-.4-.1c-.2 0-.3 0-.5-.2l-.3-.2s-.1.2-.2.1l-.2.1c-.1-.2-.2-.2-.3 0h-1.3c-.2-.2-.3-.2-.4-.1 0 0-.1-.1-.2.1-.2-.3-.3.2-.5.1l-.6.2s-.1 0 0 .1c0 0-.1.1-.2 0l-.4.1c-.2 0-.3.2-.5.1-.1 0-.2 0-.2.2l-.1.1-.1.2h-.2c-.1.2-.5.1-.6.3l-.6.4c-.1.1-.3.2-.6 0-.2-.1-.3-.3-.3-.4v-.3l.1-.2c.1-.2.1-.4.3-.5.1 0 0-.1.2 0 .1-.4.4-.4.6-.5l.5-.5c0-.2.2-.2.3-.2.5 0 .9-.3 1.3-.4.4-.1.8-.3 1.3-.3 0 0 .1-.2.2 0h.3c.1 0 .2-.2.3-.1.4.2.7 0 1 .1l1 .1h.7c.1 0 .2 0 .3.2 0 0 .1-.1.2 0h.4l.6.2h.3l.4.2.4.3.4.3c.2.3.5.3.7.5l.7.5.3.4-.3.6c-.3 0-.6.2-.7 0-.2 0-.4-.2-.6-.4Z"/><path fill="#141414" d="M96.2 59.3c1 0 1.7-1.1 1.7-2.5 0-1.5-.8-2.6-1.7-2.6-1 0-1.8 1.1-1.8 2.6 0 1.4.8 2.5 1.8 2.5Z"/><path fill="#141414" d="m97.2 55.7-.2-.5s0-.1-.2 0v-.3a.8.8 0 0 0-.4-.1h-.3s-.2 0-.3.2l-.2.1c0 .1-.1.3-.3.3l-.2.3s.1.1 0 .1l.1.3c-.2 0-.2.1-.1.2v1.5l.2.1c-.2.3.2.3.2.4l.3.3h.1c0-.1 0-.1 0 0h.6s.1 0 0-.1l.1-.1v-.1h.2c0-.3.2-.4.3-.6l.1-.6c0-.1.1-.3.4-.4h.4l.1.2.1.3c0 .2.2.4 0 .6l-.1.1c.1.4-.2.6-.3.8l-.4.7c0 .2-.2.3-.4.3-.6.1-1.2.2-1.8 0-.5-.4-.8-.8-1-1.2 0-.1-.2-.1-.1-.3L94 58l-.1-.2v-1.1l.1-1.1c.1-.2 0-.5.2-.7 0 0 0-.2.2-.2l.1-.2.3-.4.7-.4.5-.2h.5l.6.4.5.5.4.9.3.8v.5l-.6.2-.4-.4c0-.2 0-.4-.2-.6h.1Z"/><path fill="#fff" d="M14.3 77.2s-1.2-16.4 3.3-29.5c1.6-4.7 3.8-6.4 7.3-5.3 0 0 3.7-3.3 7.6-.8 0 0 1.6-2.2 5-2.1 2.3 0 3.8.3 5 1.2 0 0 0-1.2 5-1.6 7-.5 10.2 5 10.2 5s-9 2.6-9.1 3.8c-.8 5.6-.3 28.5-9 36.7"/><path fill="#141414" d="m14 74.1-.1-2.4c0-.2-.1-.3 0-.4V66c0-.2 0-.4.2-.6v-1l.1-1.6c0-.2.1-.3 0-.4v-.2l.1-.4.2-1.7c-.2-.3 0-.6 0-.9l.2-.6.1-.7v-.2c0-.2 0-.5.2-.8l.1-.4a62 62 0 0 1 1.1-5.2v-.5c0-.1 0-.4.2-.5l.2-.5.3-1c.1-.2 0-.5.3-.6 0-.4.1-.5.2-.7l.1-.6.3-.6.3-.5a8.5 8.5 0 0 1 2.1-3c.5-.4 1-.8 1.6-.9h.6c.2-.2.4-.1.6-.1l1.8.3.3-.2c.4-.5 1-.8 1.6-1l.6-.2.6-.2.4-.1h1.1c.7 0 1.4 0 2.1.4.2 0 .4 0 .4.2h.2l.1.1.2.1.2-.2.5-.4c1-.7 2-1.2 3.2-1.3l.9-.2h.9l.6.1h1l1 .2.3.1.6.3.3.1h.2s.2.3.2.1c.1-.2.7-.5 1.1-.7.8-.3 1.6-.4 2.4-.5l2.4-.2c.3 0 .7-.1 1 .1.3-.1.5 0 .7.1h.2c.2 0 .5-.1.6.1h.1c.2 0 .3-.1.5.1l.6.2.6.2.6.2.2.2c.5.2.8.5 1.3.6l.4.2c.2.4.6.6 1 .8.4.3.9.7 1.1 1.3 0 .1 0 .2.2.3.2 0 .2.2.3.3.3.3.5.7.6 1l-3 1-.9.1c-.1.1-.3 0-.3.2h-.1c-.4 0-.7.4-1.1.5h-.5c-.5.4-1.1.5-1.6.8-.2.1-.5.1-.5.4H50c-.3 0-.6.3-.9.5 0 0 0 .2-.2.2v1.7l-.2.4v1.4c-.2.2 0 .4 0 .5v.3l-.1.2v.4l-.1.4V56c0 .1 0 .3-.2.4v.2c.2.6 0 1.1 0 1.7v1.2l-.1 1.2v1c-.1.3.1.6-.1.9l-.1 1c0 .2 0 .4-.2.7v.4c0 .3 0 .6-.2 1v1c-.3.8-.2 1.7-.4 2.5v.4l-.6 2.4c-.5 1.1-.7 2.3-1 3.4l-.3.4-.1.6c0 .4-.2.7-.3 1 0 .3-.3.5-.2.7v.2c-.3.3-.3.7-.5 1-.2.7-.6 1.3-.9 2v.2l-.2.2c-.5.4-.7 1-1.1 1.6l-.5.4-.5.4-.2.2c-.3.4-.7.5-1 .2v-.3c0-.2.1-.4.3-.5.1-.2.3-.3.3-.5v-.1c.4-.2.6-.5.8-.7l.4-.5.4-.5.1-.3.5-.8 1.1-2.6c0-.7.5-1.2.6-1.9.1-.8.4-1.5.6-2.3l.2-.4.1-.3.3-1.1c0-.2 0-.5.2-.6V71l.2-1 .1-.5c.1-.1.2-.4.1-.5v-.4c.1-.5.3-1 .2-1.5.2-.2.2-.5.2-.8 0-1 .3-2 .4-2.9l.1-.7.1-.8s.1-.3 0-.4l.1-.4v-2.7l.1-.5v-1.4l.2-.8v-.4c-.1-.2-.3-.4 0-.6v-.2c-.2-.7 0-1.3 0-2v-1c0-.6 0-1.2.2-1.7l.2-1.7v-.3l.2-.3.2-.3c.4-.6.8-.7 1.3-.9l.7-.4 1.2-.5c.2.1.3-.1.3-.2l.4-.3c.1 0 .3 0 .5-.2l.4-.2h.3c.1-.2.3 0 .5-.2.2 0 .4-.2.6 0l.1-.1c.3-.3.7-.2 1-.4h.7l.3-.1c0-.2-.2-.3-.3-.5l-.9-1-2.3-1.4c-.2 0-.4 0-.5-.3h-.2c-.3 0-.5-.2-.8-.4H51c-.2-.1-.3-.3-.4-.2-.3.1-.3 0-.5-.1h-.4c-.3-.2-.6 0-.9 0l-.2-.1c-.7-.2-.7-.2-1.6 0-.3-.2-.6.1-.9 0h-.4c-.5.3-1 .3-1.6.5l-.3.1h-.4l-.4.3s-.3 0-.5.2l-.4.2-.4.1-.2-.2c-.4-.5-.7-.4-1-.5H40l-.5-.2h-3.2c-.2.2-.5.3-.8.1l-.2.2c-.5.1-1 .3-1.4.6-.1.1-.3 0-.3.2s-.3 0-.3.2l-.2.2-.2.2-.6.1-.6.1c-.6-.4-.8-.4-1.1-.5-.2 0-.3 0-.4-.2-.4 0-.8-.3-1.2 0-.3 0-.5.1-.8 0H28l-.5.2-.5.1-.4.2-.5.3c-.2 0-.4.1-.5.3l-.7.6-1-.2c-.2.2-.4 0-.5 0l-.3-.2h-1.4l-.2.1-.9.7-.4.3c0 .1-.1.3-.3.3-.2.7-.7 1.2-1 1.8l-.8 2c0 .2 0 .4-.2.5v.2l-.1.3v.2c0 .2 0 .3-.2.4l-.1.4c0 .3 0 .7-.3 1v.2c0 .2 0 .5-.2.8l-.2.4-.1.7-.2.8-.2.8-.1.8-.2.8v.8l-.2.8c0 .2 0 .3-.2.5-.2.5-.2 1-.2 1.8v.2l-.3 2.1-.1 1v1.5l-.1 1v1.2c0 .2-.2.4 0 .6v.4c-.2.2-.2.4-.1.6v1c0 .6-.1 1.1 0 1.6v3l.2 1.1v1c0 .5 0 .6-.5.7-.3 0-.4-.1-.5-.6-.2-.9-.1-1.8-.2-2.5v.1Z"/><path fill="#fff" d="M25.6 41.8s-1.9 3-2.7 9l2.7-9Z"/><path fill="#141414" d="m22.5 49.8.1-.4c0-.1.1-.1 0-.2l.1-.1v-.9c0-.1.2-.2.1-.4l.1-.3.1-.4c.1 0 .2-.1.1-.2v-.2s.1 0 0-.1c.1-.1.1-.2 0-.2v-.2l.1-.3.2-.2.1-.3.2-.2V45c.2 0 0-.3 0-.4l.2-.4V44c.2 0 .1-.2.2-.3 0-.1 0-.2.2-.3 0 0 .1-.1 0-.2V42.9h.1c0-.3.2-.4.3-.6l.2-.5s.2-.2.5 0l.3.1.1.2v.5s0 .1-.2 0c.1.3 0 .4-.1.5v.7c-.4.2-.3.5-.4.7l-.3.8V45.6l-.1.2c-.3.1-.2.4-.3.6l-.2.6c0 .1.1.3 0 .4 0 0 .1.1 0 .1s0 .1 0 .2v.2l-.2.4.1.2v.3l-.2.2v.3c-.3.2-.2.4-.3.6v.5l-.2.3H23l-.4-.4.1-.5Z"/><path fill="#fff" d="M33.5 41S31.7 43 30 50.7l3.5-9.7Z"/><path fill="#141414" d="m29.7 49.7.2-.5V49c-.1 0 0-.1 0-.2l.2-.4v-1l.2-.3.1-.4.2-.2s-.1-.2 0-.2l-.1-.2c.2 0 .2-.2.1-.2v-.2l.1-.4.2-.2c0-.1 0-.2.2-.3l.1-.2s.2 0 0-.2c.3 0 0-.3.2-.4 0-.2 0-.3.2-.5v-.2l.2-.3c0-.1 0-.3.2-.4.1 0 .2 0 0-.2V42.1h.2c-.1-.3.2-.4.3-.6l.3-.6h.5c.2 0 .3.2.3.2v.8c-.1 0 0 .1-.2 0 0 .3-.1.4-.2.5l-.1.5v.3c-.3.2-.3.5-.5.7l-.3.9v.1l-.1.2v.2c-.3.2-.3.4-.4.6l-.2.7v.5l-.2.1v.4l-.1.4v.6l-.3.3v.3c-.3.2-.2.4-.3.6l-.1.6-.2.3h-.6c-.1-.2-.3-.3-.2-.5l.1-.5Z"/><path fill="#fff" d="M42.4 40.7s-2.3 2-4.1 10l4.1-10Z"/><path fill="#141414" d="m38 49.7.2-.6V49c-.1 0 0 0 0-.1l.2-.5v-.5c0-.1.2-.3.1-.5l.2-.3.1-.4.2-.3s-.1-.1 0-.2V46c.1 0 .1-.1 0-.2v-.1l.2-.4.2-.3c0-.1 0-.2.2-.3l.2-.2v-.2c.2-.1 0-.4.1-.5.2-.1.2-.3.3-.5V43c.2 0 .1-.2.2-.3.1-.1.1-.3.3-.3 0 0 .2-.1 0-.3l.1-.1v-.2h.2c0-.3.3-.4.4-.6 0-.2.2-.4.4-.5 0-.1.2-.2.5 0l.3.3V41.3c-.1.2 0 .4-.2.4 0 0 0 .1-.2 0l-.2.6c-.1.1 0 .3-.2.4v.3c-.3.2-.4.5-.5.8l-.4.8v.2l-.2.1v.2c-.3.2-.3.5-.4.7l-.2.7-.1.4s0 .2-.2.2v.5l-.1.4v.3l-.1.2-.2.4v.3c-.3.2-.2.4-.3.6l-.2.6-.2.4h-.5l-.3-.5.2-.6Z"/></svg>