<svg xmlns="http://www.w3.org/2000/svg" width="120" height="120" fill="none"><path stroke="#B4E41D" stroke-linejoin="bevel" stroke-width="26.7" d="m43.8 108.6-30-63.2 71 52.2L36 20 106.2 68 81.7 11.4"/><path fill="#fff" d="M30.8 64s10.5 22.7 13.6 26c3.1 3.2 9.2 7.2 9.2 7.2s.5 4.3 2.3 4.8c1.8.4 27.8-10.8 28.5-12.5.7-1.8-1.5-4.2-1.5-4.2s4.5-18.8 1.9-25.1C82.2 53.8 74.5 44 70.7 43.5L57.3 13.2s-2.6-5.1-8.7-2.3c-6 3-4.4 7.7-2.7 12l7.6 19-2.1-.3-5.3 4.6v2.6l-2.2.2-5.4 5.3-.4 2.8-2.7.4-4.7 6.4Z"/><path fill="#141414" d="M90 65.5c-.4-6.6-3.1-11.8-7.2-17-2.3-3-6.7-5.1-9.1-8.8-5.5-8.5-6.7-19.8-12.3-28.2-5-7.3-16.2-7.7-20.3 1-3.4 7.3 2.4 18.4 6.3 26.5a12 12 0 0 0-4.9 6.3 14 14 0 0 0-7.9 8.4c-3.2 1.3-4.6 4-7.3 7.6v.1c-1 1-1.3 2.6-.5 4.2 4.8 10.3 9 22.8 17.8 30.3 1.7 1.4 3.4 2.7 5.2 3.9v.2c1.4 1.6.8 3.2 2.7 4.7 3.2 2.3 5.2 1.4 8.7.3 6.4-1.8 24.4-6.8 27.3-13.9.8-1.7-1-3.4-.8-6.9.2-6.2 2.7-12.3 2.3-18.7Z"/><path fill="#141414" d="M44 45.1h-.1v-.2l-.1-.1.1-.1v-.1l.2-.1-.1-.2h.1l-.2-.3h.2l.1-.1.1-.1v-.1h.2l.1-.2-.4-.4h.2s-.1-.1 0-.2h.3l.1-.1V42.5H45v-.3h.2v-.6h.1l.1-.1h.6v-.1l.3.1-.1-.4h.2V41h.4l.1-.1h.2l.2-.1-1.6-2-.1.1-.1.1-.1.1v.4h-.3v.1l-.2.1H45v.3h-.5v.3h-.1v.1l-.2.1v.1l-.2.1h-.1v.4h-.2l-.2.1v.2h-.1v.2H43v.5h-.2l-.2.1.1.2v.2s.1.2 0 .2v.1l-.1.1h-.2l-.2.1-.1.1-.1.1v.3H42v.4h-.2v.1l-.1.2 2.3 1V45ZM36 53.5V52.9l.1-.1.1-.2.2-.2v-.2l.1-.2-.2-.3h.3l.2-.3.1-.1V51l.3-.1.1-.2-.3-.5h.3V50l.1-.2c.1 0 .3.1.4 0l.1-.1v-.2l.1-.3h.2l.3-.1v-.3l.1-.1h.3v-.3l.1-.2V48l.2-.1c0-.1 0 0 .1 0l.2-.2s.3.2.4.1h.4l.1-.3.3.1v-.4h.3l.1-.2.2-.1h.4l.2-.1h.3l.3-.1-1-2.4-.2.2h-.2l-.3.2v.2l-.2.2h-.4l-.1.2-.2.1-.3.1-.1.2h-.3l-.3.1v.4h-.3l-.1.2a1 1 0 0 0-.3.2H38l-.1.3h-.3v.3l-.2.2-.2.1-.2.1-.1.3h-.3v.3l-.3.1v.3l-.1.2-.2.2-.1.1-.3.2s.1.2 0 .2v.2c-.1.1 0 .3 0 .4l-.2.1-.1.2-.3.1-.3.2-.1.2-.2.2s.1.2 0 .2l-.2.2v.5l-.3.2v.2l-.2.2 2.4 1v-.1ZM28 65.3l-.1-.2-.1-.1-.3-.2v-.7l-.2-.2c0-.1.1-.2 0-.2l-.2-.3.3-.2V63l.2-.2v-.3l.3-.1.1-.2V62l-.2-.3.3-.2v-.3l.3-.3h.4l.1-.3.1-.3.1-.3.3-.2.3-.2v-.3l.2-.2.3-.2v-.4l.2-.2V58l.2-.3.1-.1.2-.2h.5l.3-.2.2-.1.1-.3c0-.1.3 0 .4 0v-.6h.3c0-.1 0-.3.2-.3 0-.1 0-.2.2-.3h.6l.2-.2.4-.1.4-.2-1.1-2.3-.3.2-.4.2-.3.2-.1.3-.2.3h-.5l-.2.4-.3.2-.3.2-.2.3c0 .1-.3 0-.3.2-.1 0-.3 0-.3.2l-.1.4-.3.1-.1.3-.3.3-.2.2-.2.3-.3.2v.3l-.2.3-.3.2-.2.3-.1.3-.3.1-.1.3-.2.2-.1.4-.2.2-.1.3s-.2 0-.2.2l-.3.1v.3l-.2.4v.4l-.3.3-.1.4-.3.4-.2.3-.1.4-.1.5.2.4-.1.4.2.4.2.3v.7l.1.1.2.4 2.3-1.1-.1-.2H28Z"/><path fill="#141414" d="M34.2 79h-.1l-.1-.2-.3-.3-.1-.3-.1-.3-.1-.3-.3-.2v-.3l-.4-.1c0-.1.1-.3 0-.4l-.1-.4-.1-.2-.2-.3v-.3l-.1-.3-.6-.1v-.4l-.3-.2v-.3c0-.1.1-.3 0-.4v-.3l-.3-.2-.2-.2v-.7l-.3-.2-.1-.3v-.3l-.3-.2-.1-.3-.2-.2-.2-.2v-.2l-.1-.3.2-.4v-.3l-.1-.4-.3-.2.2-.4-.6-.2c0-.1.1-.2 0-.4l-.1-.2-.2-.3v-.7l-.2-.3v-.4a4 4 0 0 0-.2-.5l-2.3 1a5.3 5.3 0 0 0 .3.7v.2l.4.2.2.2-.1.4.3.3v.3l.2.3.2.3v.7c.1 0 .3 0 .4.2v.3l.1.2.2.4v.3l.2.2v.4l.3.2.2.3v.6l.3.3v.3l.2.2v.3l.3.3.1.2.2.3v.6l.4.3.1.2.3.2.1.3.2.3v1l.2.3.2.2v.4l.3.2.2.2V79.8l.2.1v.4l2.4-1.2-.1-.1h-.2ZM42 91.6l-.3-.2-.3-.1-.1-.3-.2-.3-.2-.3-.3-.1-.1-.3h-.4v-.4l-.2-.3-.2-.2-.2-.2v-.4l-.2-.3s-.6.2-.6 0l-.1-.3-.3-.1-.1-.3c0-.1.1-.3 0-.4v-.3l-.3-.2s-.2 0-.3-.2v-.3l-.1-.3-.3-.1-.1-.3-.1-.4-.3-.1-.2-.3-.2-.2-.2-.2V84l-.1-.2v-1.1l-.3-.2c0-.1.2-.3.1-.4 0 0-.5 0-.5-.2v-.3l-.3-.2-.1-.3v-.7l-.2-.3v-.4l-.2-.5-2.3 1.2.1.3.2.3.1.2.3.2.2.2v.4l.3.3v.3l.2.3.3.3v.7c.1 0 .4 0 .4.2v.3l.2.1.2.4.1.3.2.3v.3l.3.2.2.3.1.3.1.3.3.2v.4s.2 0 .3.2v.3c.1 0 .3 0 .4.2 0 0 0 .2.2.2 0 .1 0 .2.2.3v.3l.2.3.3.1.2.3.3.1.2.3c0 .1 0 .2.2.3v.7c.2 0 .2.2.2.2l.2.3c0 .1.3 0 .3.2 0 0 0 .2.2.3l.2.2.3.2.1.4h.1l.1.2.2.3 2-1.7-.2-.1h-.1Z"/><path fill="#141414" d="m52.4 102.7-.1-.1-.1-.2s-.3 0-.3-.2v-.3l-.1-.3v-.3l-.3-.3v-.3c-.1-.1-.4 0-.4-.2-.1 0 0-.3 0-.4l-.3-.4c-.1-.2 0-.1 0-.2h-.1l-.4-.5-.2-.3-.2-.2c-.1-.1-.5.3-.6.2l-.2-.3h-.3l-.3-.3v-.4c-.1 0-.2 0-.3-.2H48l-.3-.1-.2-.3-.1-.3h-.4l-.2-.3-.2-.2H46c0-.2-.1-.2-.2-.3h-.3l-.3-.1v-.2l-.3-.1V95l-.2-.3-.1-.2-.3-.1c-.1-.1 0-.3 0-.4h-.6l-.1-.3-.3-.2-.2-.2-.1-.3-.2-.3-.2-.3-.2-.3-.3-.4-1.9 1.7.3.2.2.3.2.2h.3l.3.2.1.4.4.2c0 .1 0 .2.2.3l.2.2.3.2c.1.1 0 .3.2.4 0 0 0 .2.2.3h.4v.3l.3.1.3.3.2.2.3.2.2.3h.3l.3.2.2.3.2.2.3.1.2.3.3.1.2.3h.3l.3.2.2.2.2.2.2.3c0 .1.3 0 .4 0l.2.2c.1.1.3 0 .4 0v.1h.1l-.3-.4v.3l.3.3V101.7l.1.2.2.2v.3c0 .2.2.2.2.3l.3.3s-.1.3 0 .4v.4l.3.4 2.2-1.3-.1-.1Z"/><path fill="#141414" d="M64.7 102.7h-.1l-.2.2-.3.3H63.2l-.3.3h-.3c-.1 0 0 .3-.2.4l-.3-.2-.4.1-.3.1-.3.1h-.7l-.1.7h-.4l-.2.2h-.3l-.4-.2-.3.1-.2.2-.3.2h-.3l-.3-.1-.2.3H57c-.1 0-.2-.2-.3-.1l-.3.2H56l-.2.2-.2-.2h-.3l-.1-.4-.3-.1-.2-.2h-.3v-.3c-.1-.1-.5.2-.6.1l-.1-.3h-.3l-.3-.2-.1-.3-.1-.2-.2-.2v-.3l-.2-.3-2.2 1.3.2.4.3.3.3.3.3.1.4.1c0 .1 0 .4.2.5l.4.1.2.2.3.3h.4l.3.3.3.3h.5l.2.1h.3l.5.1.4.1h1.1l.4-.1h.7l.3-.1h.3l.3-.1h.3l.3-.3h.3l.3-.2h.6l.3-.2.3-.1.2-.4h.3l.3-.1c.1 0 .3.1.4 0 0 0 .2.2.3.1h.7l.2-.3c.1 0 .3.1.4 0l.2-.1.3-.2s.3.1.4 0H65.6l-.7-2.5h-.2ZM78.7 97.5l-.3.2s0 .3-.2.3H78c0 .1-.1.2-.3.2h-.3l-.2.3h-.3l-.1.5c-.1 0-.3-.2-.4-.1l-.4.1-.2.1-.3.2h-.6c-.1.1 0 .7-.2.7h-.3l-.2.3h-.3c-.1 0-.3-.2-.4-.1h-.3l-.2.3-.3.2H72l-.2.3H71l-.2.3h-.3c-.1.1 0 .2-.2.3l-.2.1H70l-.3.1-.4-.2h-.7l-.2.3-.4-.2-.3.5h-.3l-.3.1-.3.2h-.3l-.4-.1-.3.1h-.4l-.5.1.7 2.5.3-.2.4-.1h.2l.2-.3.3-.2.4.1.4-.2.2-.1h.4l.3-.3h.7l.3-.3.2.1.2-.2.4-.1h.4l.3-.2h.3l.2-.2.3-.2h.7l.2-.2h.3l.3-.2h.3l.3-.3h.2l.3-.2h.6l.3-.3.2-.2.3-.3h.3l.3-.2h1l.3-.2.2-.3h.4l.2-.2.2-.2H79.5l.1-.1.4-.2-1.2-2.3-.1.1Z"/><path fill="#141414" d="m87 88.4.1.2.1.2.3.2V90l.2.1-.1.2.3.2-.3.2-.1.2-.2.2v.3l-.3.2-.1.2.2.5-.3.2v.3l-.3.2h-.3l-.2.2-.2.3-.1.3-.3.1-.3.1c-.1 0 0 .3 0 .4l-.4.1-.3.1-.1.3-.3.2v.2c-.2 0-.2.1-.3.2 0 .1 0 0-.1 0l-.3.2c0 .1-.3-.1-.4 0h-.6l-.2.4s-.3-.2-.4-.1c0 0 0 .5-.2.5h-.3l-.2.3-.3.2H80l-.2.1-.4.1-.5.2 1.1 2.3.3-.2c.1 0 .2 0 .3-.2h.3l.1-.4.3-.2h.4l.3-.3h.2l.4-.2.2-.3h.4c0-.1.2 0 .3-.2l.2-.3h.3l.2-.2.4-.3.3-.1.2-.3h.3l.2-.4.3-.2.3-.1.3-.2s0-.2.2-.3l.3-.1.2-.3.3-.2.1-.3.2-.3.2-.3.3-.2s.2 0 .3-.2V93l.2-.3c.1 0 0-.3 0-.4l.2-.3.2-.3.3-.3c0-.2.3-.3.3-.4l.1-.5V90l-.1-.4V89l-.1-.3-.2-.3s.1-.3 0-.4V87.5l-2.6.7.1.2Z"/><path fill="#141414" d="M88.1 73v.4l.2.3-.2.3v.3l-.2.3.1.3-.1.3.2.4-.3.2v.4l-.1.3v.3l-.2.3-.1.3c0 .1.5.4.4.5l-.1.3v.6l-.4.3v.6l.1.3-.2.3-.2.3.2.3-.1.3-.1.3v.7l.1.2v.8l-.4.3-.1.3-.1.3.1.4-.2.3.4.5-.2.3.2.3v.7l-.1.4v.8l.2.6 2.4-.8-.1-.3-.1-.3v-.2l-.3-.2-.1-.3.2-.3-.2-.3v-1.2s.2-.1.2-.3l-.2-.3.2-.2-.1-.3V83l.1-.3v-.3l.1-.2v-.7l.1-.2.1-.3v-.3l.2-.3-.1-.3.1-.3V78.9l.1-.3.2-.3s-.2-.2-.1-.3v-.3l-.2-.4.1-.3v-.3l.3-.2.2-.3.1-.3.1-.3c0-.1-.1-.3 0-.4l.1-.3v-.3l-.1-.3.3-.3V73.7l.1-.4-2.5-.4v.2-.2ZM87.3 58.6v.1l.2.2.2.3v.3l.1.3v.3l.3.2c0 .1-.1.3 0 .4l.3.1-.1.4v.6l.2.3v.7l.5.2v.4s.2.1.1.2v.3l-.2.3v.3l.1.3.2.3-.1.3-.1.3.2.3v.3l-.2.3.2.2v.4l.1.2v.8l-.3.2-.2.3v.6l-.2.3.3.5-.2.2c0 .1.1.3 0 .4v.3l-.1.3-.2.3v.3l-.2.3-.1.5 2.5.5v-.7l.1-.3-.1-.3v-.4s.2-.1.2-.3v-1.4l.2-.3.1-.3-.2-.4.2-.2-.1-.3v-.5l.1-.3v-.3l.1-.3-.1-.4v-2.2L91 64l-.1-.3v-1l-.2-.3-.1-.3-.2-.3v-.3l-.1-.3v-.4s.2-.2.1-.3v-.7l-.3-.3s.1-.2 0-.4L90 59l-.2-.3s.2-.3 0-.4V58l-.1-.3-2.4.9.1.1ZM79.2 46.8h.2l.2.1h.3l.2.4.2.2.2.2h.3c0 .1 0 .3.2.3 0 .1.3 0 .4 0v.4l.3.2.1.3.2.1.1.4.2.3.6-.1.1.3c0 .1.3 0 .3.2l.2.3s-.2.3-.1.4l.2.2.2.2.3.2v.3l.1.3.4.1v.4c.1 0 0 .2.2.3l.3.1.1.3.2.1.2.2v.2l.2.3s-.2.3-.1.4v.6l.3.2-.1.3c0 .1.5.1.6.3v.3l.2.2.1.3v.7l.2.3v.4l.1.4 2.4-.9-.1-.3-.2-.3v-.3l-.3-.2-.3-.2.1-.5-.3-.3-.1-.2-.1-.4-.3-.3v-.7c-.1 0-.4 0-.4-.2v-.3l-.2-.1a3 3 0 0 0-.2-.5l-.1-.3-.2-.2-.1-.4-.3-.1c0-.2-.2-.2-.2-.3l-.1-.3-.1-.3-.3-.2v-.4c-.1 0-.3 0-.3-.2l-.1-.3-.3-.1-.2-.3-.2-.2-.1-.3-.1-.3-.4-.1-.2-.3-.4-.1-.1-.3-.3-.3v-.3l-.2-.4-.2-.3-.2-.2-.4-.1-.1-.4h-.3c-.1-.2-.3-.1-.4-.2l-.1-.4-.1-.1-.1-.1-.3-.3-1.6 2 .2.1ZM69.6 34.6v.1l.2.2.3.2v.3l.2.3v.4l.4.2v.3l.4.1v.4l.2.3v.3l.3.3v.3l.1.3h.7v.4l.3.2.1.3c0 .1-.1.3 0 .4l.1.2.3.3s.2 0 .3.2v.3l.2.3.4.1.1.3c0 .1 0 .3.2.4h.3c0 .2.1.2.2.3l.2.1.3.1v.2l.3.2v.5l.2.3s0 .2.2.3h.3v.5h.6s0 .2.2.3l.3.1.3.2.1.3.2.3.3.2.2.4.4.3 1.6-2-.3-.1-.3-.2-.2-.2h-.3l-.3-.1-.1-.4c-.1-.1-.3 0-.4-.2l-.2-.2-.2-.2-.3-.1-.2-.4-.2-.2-.4-.1v-.3h-.3l-.3-.4-.1-.2-.3-.2-.1-.3-.3-.1-.2-.2-.1-.3-.1-.2-.3-.2v-.3c-.1 0-.2 0-.3-.2v-.2l-.3-.2-.2-.2-.2-.3v-.3l-.1-.3-.3-.1-.2-.3s-.3 0-.3-.2L73 37l-.2-.3v-1l-.2-.3s-.2 0-.2-.2v-.3l-.3-.3-.2-.2v-.7l-.1-.3-2.4 1 .1.2Z"/><path fill="#141414" d="m64.3 20.3.1.1.2.2.2.3v.3l.2.3v.3l.3.2v.4l.4.1c0 .1-.2.3-.1.4v.3l.2.3.1.3v.7l.7.1v.4l.2.2.1.3-.2.4.1.3.2.2.3.3v.3c0 .1-.1.3 0 .4 0 0 .2 0 .3.2v.6l.2.2.1.3.2.2.2.3v.5l-.1.4v.6l.2.3-.1.3.5.3c0 .1-.1.2 0 .4l.2.2.1.3v.7l.2.3v.4l.2.5 2.3-1-.1-.3-.2-.3-.1-.3s-.2 0-.3-.2l-.2-.2.1-.4-.2-.3-.1-.3-.1-.3c0-.2-.2-.2-.2-.3v-.7s-.3-.1-.3-.3v-.2l-.1-.2-.2-.4v-.3l-.1-.3v-.3l-.2-.3-.2-.3v-.6l-.2-.2V26l-.2-.2v-.3l-.3-.3-.1-.2-.1-.3v-.6l-.3-.3-.2-.3-.3-.2V23l-.1-.3v-1.3l-.3-.3v-.3l-.2-.3-.2-.2c-.1-.1 0-.3 0-.4V19.6l-.2-.4-2.4 1 .1.2v-.1Z"/><path fill="#141414" d="M56.5 8.7h.1l.2.1h.4l.2.2.2.2.2.2h.3l.2.3s.3-.1.4 0v.3l.3.2.2.3.2.1.1.3.2.3.6-.1.1.3.3.1.2.3c0 .1-.2.3-.1.4l.1.3.3.2.2.1v.4l.1.3.4.1v.6l.4.2.1.3.2.1.3.3s-.1 0 0 .2v1.3l.3.2-.1.4.5.2v.3l.2.3.2.3v1l.1.4.2.5 2.4-1-.2-.3-.1-.3-.1-.3-.3-.1-.2-.3s.1-.3 0-.4l-.2-.3-.1-.3-.1-.3c0-.2-.2-.2-.2-.3-.1-.1 0-.3 0-.4l-.1-.3c0-.1-.3-.1-.3-.3v-.2l-.2-.2a2 2 0 0 0-.2-.4l-.1-.3-.2-.3v-.3l-.3-.3-.2-.2v-.3l-.2-.3-.2-.3V12l-.3-.2-.1-.3-.3-.2-.2-.3-.2-.2-.2-.3-.1-.3-.3-.2-.2-.2c-.1-.1-.4 0-.4-.2l-.2-.2-.3-.3-.1-.3-.1-.4-.3-.2-.2-.3h-.4l-.2-.4-.3-.1-.4-.1-.2-.4h-.1l-.2-.2-.3-.2-1.2 2.3h.2-.1ZM44 10.4l.1-.2.2-.2v-.3l.3-.1.2-.2.3-.1.1-.3.3-.1v-.4h.4l.3-.2h.2l.2-.3H47.2l.1-.7h.4s0-.2.2-.2h.3l.3.2.3-.1.2-.2.3-.2.3.1.3.1.2-.2h.6l.3-.1h.3l.2-.1h.8l.2.4.3.1.2.2c.1 0 .3-.2.4-.1l.1.3.5-.3.2.2h.7l.2.3.2.3h.3l.3.3.4.3 1.2-2.3-.3-.1-.4-.2-.2-.1h-.7l-.3-.4h-.7l-.4-.2h-.4l-.3-.2-.3-.2c-.1 0-.3.2-.4.1l-.3-.1h-.7l-.3-.1h-.4l-.3-.1-.4.1-.3.1c-.2 0-.3-.1-.4 0l-.3-.1-.4.1H49l-.3.1h-.4l-.3.2-.3.1-.3.2h-.7l-.3.3-.3.1-.2.4-.3.1-.3.2h-.8l-.3.2-.3.2s0 .2-.2.3l-.3.1-.2.3-.2.4-.4.1-.1.1-.1.1-.3.3 1.9 1.7.1-.2v.2ZM42.2 23.4h-.1L42 23l-.2-.2v-.3l-.1-.4V22l-.2-.2v-.3l-.4-.2.2-.4v-.6l-.2-.3.2-.3v-.3l-.6-.3V18.1l.3-.3v-.3l-.2-.3-.1-.3s.2-.1.2-.3l.1-.2-.2-.3.1-.3.2-.3-.1-.3v-.9l.2-.3c0-.1.4 0 .4-.2l.2-.2.2-.2V13c0-.1.2 0 .3-.2 0 0-.2-.4-.1-.5 0 0 .2 0 .2-.2V12l.2-.3.3-.1.2-.2.2-.2.3-.3.3-.3L42 8.8l-.2.3-.2.4-.2.2v.4l-.1.3s-.3 0-.4.2l-.1.4-.2.3-.2.3-.1.3-.3.3-.2.3v.4l-.2.2v.3l-.2.5-.1.3v.4l-.2.3v.7l-.1.3-.1.3v.4l-.1.3v.6l.1.4V19l.1.4.1.3.3.3v1l-.2.4v.6l.3.3c0 .1-.1.3 0 .4l.1.3.2.2-.1.4V24l.1.4 2.5-.7v-.2h-.1Z"/><path fill="#141414" d="m48 37.2-.2-.1-.1-.2-.3-.2v-.4l-.2-.3v-.3l-.4-.2v-.3l-.4-.1s.1-.3 0-.4l-.1-.3-.1-.3-.2-.3v-.3l-.1-.3-.6-.1v-.3l-.3-.2v-1l-.3-.3-.2-.2v-.6l-.4-.2v-.7s-.3 0-.3-.2l-.1-.2-.2-.2-.2-.3v-.2l-.1-.2.2-.4v-.7l-.3-.2.2-.4-.5-.3.1-.3-.2-.2-.2-.3c0-.1.1-.3 0-.4l.1-.3-.1-.3v-.4l-.1-.5-2.5.7.1.3.2.4v.3c.1 0 .3 0 .3.2l.2.2-.1.5.2.3.1.3v.3l.3.3c0 .1-.1.3 0 .4v.3l.3.3v.3l.1.2.2.4v.3l.2.3v.3l.3.2.2.3v.6l.3.3v.3l.2.3v.3l.3.2.2.3.1.2v.3l.1.4s.2 0 .3.2l.1.2.4.3v.3l.2.2v.7l.1.3.1.3.3.3v.3l.3.2.2.3v.5l.1.2.2.3 2.3-1.1-.1-.2h-.3ZM44 45.2h-.2v.1l-.1.1-.1.1H43v.7H43V46.6h-.1l-1.1-2.3.1-.1h.1l.2.1.3.1.5.3 1.3.4-.4.2ZM36 53.6l-.1.1h-.1v.2h-.6v.8l-.1.1v.1l-1.2-2.3.1-.1h.1l.2.1.3.1.6.3 1.2.5-.4.1Z"/><path fill="#141414" d="m48 37.4.1.2v.4h.1v.4l.1.1V38.9l-.1.2-.1.2H48v.7l-.1.1h-.1v.2h-.1v.1l-.3.3-1.6-2v-.1h.1l.2-.2.3-.1.6-.3 1.2-.6-.1.1Z"/><path fill="#fff" d="M64.6 62.6c-2.5-.5-4-2.2-5.3-3.9l-.6-1c-.4-.6-.3-1.2-.3-1.7s.5-1.2.9-1.8c.9-1.8 2.2-3.3 3.4-4.8a46.1 46.1 0 0 1 5.6-5.5l1-.6c.4-.2.8-.4 1.5-.5l1.5.5c1.5.7 2.5 1.8 3.6 2.8a24 24 0 0 1 3.3 3.4l2 2.7c.5.6.9 1 1.3 1.7.4.6.8 1.3 1.3 1.7l.2.5c.2.8.7 1.6 1 2.2.4.5.6 1 .8 1.6.5 1.6.8 3.3.8 4.9l-.1 3.6c0 1.2 0 2.6-.3 3.7a51 51 0 0 0-.5 3.3c-.1.6-.3 1.4-.2 1.9v.4c-.7 1.7-.6 3.6-1.1 5.3l-.3 1.4-.2.7v.2l1 2.6.4.8V90c0 .4-.7 1.2-1.1 1.2-1.4.4-2.7 1-4.1 1.6-1.5.6-3 1.3-4.6 1.8-.7.2-1.6.5-2.3 1-.3.3-1.1.5-1.6.8l-1.3.6-1.2.4-.4.2c-2.1 1.1-4.5 1.7-6.7 2.7l-3.4 1.5-1.8.7a2 2 0 0 1-2.1-.8l-.3-.6c-.5-1.2-1-2.5-1-3.6 0-.4.3-.5.6 0l.8 1.2 1 2c0 .3.3.4.5.4h.2l.5-.3 2.2-1c.5-.1 1-.4 1.4-.4l.4-.1c1.9-1.1 4-1.8 6-2.7 1.7-.7 3.3-1.6 5-2.2.9-.7 2-1.1 3-1.4l5.2-2 2.6-1.1.9-.4V89l-1.1-2.6-.3-.8c-.2-.2-.1-.4 0-.6v-.4l.4-1.3c.4-1.9.8-3.7 1-5.5.2-.6.1-1.2.4-2 .2-.6.2-1.5.3-2.3 0-.7.1-1.5.3-2.2.5-2.8.5-5.8 0-8.6-.3-2.8-1.7-5.4-3.3-7.7-1-1.5-2.1-2.8-3.2-4.2-.5-.6-1.1-1.1-1.4-1.8l-1.1-.9a26 26 0 0 0-2.7-2.3 6.6 6.6 0 0 0-2.3-1.3l-1.2.6-2.2 2-2.3 2.3c-1 1-1.9 1.9-2.7 3-.9 1-1.6 2.3-2.1 3.4-.3.5-.4 1-.3 1.2a10.2 10.2 0 0 0 3.7 3.7c.4.3 1 .5 1.4.5.5 0 .9-.3 1.4-.6 1-.6 2-1.4 2.9-2.3l3-2.7c.5-.4 1.5-.7 1.5-.3l-.2.2c-.8 1.1-1.5 2.2-2.7 3.2a48 48 0 0 1-2.7 2.3l-1.5 1c-.6.4-1.4.6-2.1.5ZM60.4 48.2l-.8-.7c-.2-.1-.2-.3-.4-.2L59 47l-.9-.7-.8-.6c-.3-.2-.5-.5-.8-.6l-.7-.5-.6-.6-.5-.4c-.1 0-.2 0-.3-.2-.1 0-.2-.2-.4-.1v-.1c-.1-.2-.2-.3-.4-.3l-.3-.1-.7-.4-.3-.4H52l-.5.2c-.1 0-.3 0-.2.2h-.1c-.4 0-.5.5-.8.6l-.8.6s-.2.1-.1.3l-.2.1c-.3 0-.4.3-.6.5l-.7.5c-.2 0-.3.1-.3.4l-.2.2-.1.3H47v.1c-.2.5-.6.5-.6.9v1c0 .2.1.5-.2.7-.1.1-.3.2-.4.1a.7.7 0 0 1-.3-.2l-.2-.4c-.1-.3-.3-.6-.2-1l.1-.3v-.1c-.1-.6.4-1 .6-1.4l.7-.8c0-.3.2-.5.4-.5l1.6-1.4c.6-.5 1.1-1 1.8-1.3 0-.1.1-.3.3-.3l.5-.2.5-.1c.3-.1.8 0 1.2.1l.8.5 1.4 1c.3.1.6.2.9.5 0 0 .3.1.3.3l.2.1.6.4.7.6.6.3.4.5.6.5.6.5c.2.5.6.7 1 1l1 1c.3.1.4.4.6.6 0 0-.1.5-.3.6-.3 0-.6 0-.9-.3l-1-.8v.1Z"/><path fill="#fff" d="m56 70.7 1.8-1.2c.2-.2.5-.3.6-.7l.5-.4c.5-.5 1-1 1.3-1.6.3-.6.4-1.2.3-1.7 0-.6-.1-1.2-.5-1.7l-1-1.3L58 61l-.9-1c-.2-.1-.5-.2-.6-.4-.3-.2-.4-.5-.7-.5l-.1-.2c-.1-.3-.4-.5-.6-.6l-.6-.4-1.3-1.3-1-1-1-1-.8-.9c-.2-.2-.3-.4-.6-.4l-.1-.1c-.4-.7-1.1-.9-1.6-1.4-.4-.6-1-1-1.5-1.5-.2-.2-.3-.4-.5-.4l-.3-.1c.1-.1-.1-.2-.3-.2h-.6l-1.6.6c-.3.1-.6.3-.7.7l-.5.4c0 .2-.1.3-.3.5l-.4.2v.1c-.5.8-1.3 1.4-1.8 2.1-.5.9-.8 1.4-.8 2.2v1.3c-.2.2-.3.3-.5.1l-.4-.5-.2-1c-.1-.6-.1-1.4.4-2 .1-.2.1-.4.4-.4v-.1c.3-.9 1-1.5 1.6-2.2.4-.5.8-1.2 1.4-1.6.2-.5.6-.8 1-1 .8-.3 1.5-.7 2.4-.8l1.3.1c.3 0 .6.4.7.4l.4.4 3.2 3c.2.2.4.2.6.5l.6.6.6.6c.7 1 1.6 1.7 2.5 2.5a55 55 0 0 0 2.4 2.3l1.6 1.4c.2.2.5.4.6.7l.4.3 1 1.1c.4.6.8 1.2 1 2 .2.4.3 1 .3 1.4 0 .5-.1 1-.4 1.5-.2.6-.6 1-1 1.5-.3.4-.7 1-1.1 1.3-.9.6-1.6 1.3-2.5 1.8-1 .5-2 .8-3.3.6-.6-.2-1-.6-1.5-1-.2-.2-.1-.7 0-.8h.2c.5.3 1 .3 1.4.5.7.3 1.4.2 2.1-.1Z"/><path fill="#fff" d="M43 75.7c1.1.9 2.4 2 3.6 2.5.4.1.9.2 1.3-.1.2-.2.7-.1 1.1-.4 1.1-.7 2-1.8 2.7-3a5 5 0 0 0 .7-1.7c0-.4-.3-.8-.7-1.3-.8-1-1.9-2-2.9-2.9l-2.3-2.3c-.9-.8-1.8-1.6-2.5-2.5l-1.8-1.8-1.2-1c-.3-.4-.7-.8-1.2-1l-.2-.3c-.3-.5-.8-1-1.2-1.2l-.5-.3-.3-.2c-.7-.2-1.7.3-2.5.9-.7.5-1.3 1-1.8 1.7-.6.7-1 1.5-1.5 2.2l-.4 1v.2l.2.6c.2.4.4 1 .8 1.2v.3c.5 1.3 1.4 2.3 2 3.6l2 3.8c.1.3.3.7.6 1l.3.6c.3 1 1 1.9 1.4 2.9l1.7 3.3c.1.5.5 1.2.9 1.7l.7 1.2.6.9.3.9.2.3c1 1.5 1.6 3 2.9 4.3 1.2 1.3 2.6 2.5 4 3.5.8.6 1.6 1.2 2 1.8.3.3.2.5-.3.4l-1-.4-1.5-1c-1-.6-2-1.2-2.9-2.1-.2-.3-.6-.5-.7-.9l-.2-.2a12 12 0 0 1-3-4c-.7-1.3-1.5-2.4-2.1-3.7-.5-.6-1-1.4-1.3-2.1-1-2.6-2.5-5-3.8-7.5l-3.9-7.5-.7-1.3-.4-.8a1 1 0 0 1-.2-.6v-.7a5 5 0 0 1 .8-1.7c1.3-1.9 2.6-3.8 5-4.9.5-.2 1.2-.3 1.9-.2.3 0 .6.3.9.4l.7.6 2.4 2.3 3 2.8c.3.4.8.7 1.1 1.3l.9.6 2 2 2.7 2.6c.6.5 1.2 1.1 1.7 1.8.3.4.6.9.6 1.6 0 .6-.2 1-.3 1.5a10 10 0 0 1-1.9 2.8 7 7 0 0 1-2.8 2 4 4 0 0 1-3.3-.1 22 22 0 0 1-2.4-1.7l-4.3-3.7c-.9-.7-1.5-1.5-2.3-2.2-.3-.4-.5-1.2-.2-1.1h.2c.8.6 1.7 1.1 2.5 1.9l4 3.4ZM66.9 37.7l-1.5-3.3c-.1-.5-.2-1-.6-1.3-.2-.2-.1-.7-.3-1l-1.3-3.2-1.4-3c-.5-1-.8-2.1-1.3-3-.5-.8-.6-1.6-1-2.4l-1.1-2.6-.7-1.9c-.1-.4-.4-.7-.6-1.1-.1-.3-.2-.7-.6-.9l-.1-.2c-.1-.4-.4-.8-.7-1l-.8-.4c-.7-.4-1.4-.7-2.2-.9-.6-.1-1.2-.2-1.8-.1-.7 0-1.2.3-2 .5l-1.6.8c-.2.2-.6.4-.6.7l-.2.2c-.8.5-1 1.6-1.3 2.4a5 5 0 0 0 0 3l.4.7.2.5c.1.9.6 1.6.9 2.5.4.9.8 1.8 1 2.7.1.5.3 1 .7 1.4.2.2.3.6.4 1l.5.7.2.8v.2c.8 1.2 1 2.7 1.7 4l1.7 4c.3.8.6 1.6.4 2.2-.1.3-.3.4-.5.1l-.5-.7-.7-1.2c-.4-.8-1-1.6-1.2-2.5-.1-.3-.4-.6-.3-1v-.1c-.8-1.1-1.1-2.4-1.7-3.6l-1.4-3c-.4-.5-.7-1.2-.9-1.8-.6-2.1-1.6-4-2.4-6.2a7.5 7.5 0 0 1 1.4-7l.9-1 1.4-.9 1.3-.6c1.8-.5 3.9-.7 5.7 0 1.8.7 3.3 2.2 4 3.9.6 1 1 1.9 1.4 2.9.2.4.5.8.5 1.3l.4.8.8 2 1.2 2.8.8 1.7.8 1.8.8 2.3c.3.8.8 1.6 1 2.4a76.4 76.4 0 0 0 3.4 8.4l.8 2.3c.1.3-.2 1-.4 1l-.1-.2c-.5-.6-1-1.2-1.4-2.1l-1.6-3.8ZM64.9 68.5l-2.6 1s1.8 4.3-1.3 7.7l1.5 3.8 3.9-1.6 4 9.8 6.5-2.7-8.2-19.6-3.8 1.6Z"/><path fill="#fff" d="M62.9 71.6V71.2h-.1v-.5c0-.1 0 0 0 0V70.4l-.1-.1V69.5l-.4.1v.2c0 .1 0 0 0 0v.2h.1v1.2l.1.1v.2h.4Z"/><path fill="#fff" d="M62.9 73.6V73l-.1-.1V71.8h.1v-.5h-.4V73.7h.4Z"/><path fill="#fff" d="M62.3 75.5V75h.1V74.7c0-.1 0 0 0 0v-.2h.1V74h.1v-.4l-.3-.1V74.6l-.1.1v.6l-.1.1v.2l.3.2-.1-.2ZM61.2 77.2V76.8h.1v-.1h.1v-.2h.1c.1-.1 0 0 0 0v-.1h.1v-.2c.1-.1 0 0 0 0v-.1h.2V76h.1v-.2l.1-.1-.3-.2V75.9c0 .1 0 0 0 0v.1h-.1v.2h-.1V76.4h-.1v.2h-.1v.2h-.1v.1H61v.1H61l.3.3-.1-.1Z"/><path fill="#fff" d="M61.9 79v-.2h-.1V78.5h-.1V78.1h-.1v-.4h-.1v-.4H61V77.8h.1v.6h.1V78.7h.1v.5h.4V79Z"/><path fill="#fff" d="M62.6 80.7v-.4h-.2v-.5h-.1V79.4h-.1V79l-.4.1v.1h.1V79.7h.1v.7h.1v.4h.1v.2l.3-.1h.1ZM64.4 80h-.2v.1H63.9v.1H63.5v.1h-.4v.2h-.4v.3H63.2v-.1h.6v-.1H64v-.1h.5V80h-.1ZM66.1 79.3H66v.1H65.6l-.1.1h-.2v.1H65l-.1.1H64.5v.4h.2V80h.5v-.1h.5v-.1h.4v-.1h.1v-.3l-.2-.1ZM67.4 81.4v-.2h-.1v-.4h-.1v-.2H67V80.2H67V80l-.1-.1v-.4l-.3.1v.4l.1.1v.4l.1.1V81h.1v.5h.4v-.1ZM68.2 83.3V83H68v-.4H68v-.2h-.1V82.1h-.1V81.8l-.1-.1v-.4l-.3.1v.4l.1.1v.4l.1.1V82.9h.1v.5h.4v-.1Z"/><path fill="#fff" d="M69 85.1h-.1v-.5h-.2V84h-.1v-.4h-.1v-.4l-.4.1v.1h.1V83.9h.1v.6h.1v.6h.1v.2l.4-.1ZM69.8 87h-.1v-.5h-.2V86h-.1v-.4h-.1v-.4l-.4.1v.1h.1V85.8h.1v.6h.1v.6h.1v.2l.4-.1Z"/><path fill="#fff" d="M70.6 89v-.1h-.1v-.5h-.1v-.2h-.1V87.8h-.1v-.4H70V87l-.4.1v.1h.1V87.6h.1v.6h.1v.6h.1v.2l.4-.1ZM72.6 88.1H72.2v.1H72v.1H71.7v.1h-.2l-.1.1H71.1l-.1.1h-.4l.1.4h.1l.1-.1H71.4v-.1h.6v-.1H72.3l.1-.1h.5l-.1-.4-.1-.1ZM74.6 87.3h-.4v.1H74l-.1.1H73.7v.1h-.4v.1H73v.1H72.8v.3h.4l.1-.1h.4v-.1h.5v-.1h.5v-.1h.1v-.3l-.2-.1ZM76.7 86.4H76.3v.1h-.2v.1H75.8v.1h-.2l-.1.1H75.2l-.1.1h-.4l.1.4h.1l.1-.1H75.5V87h.5l.1-.1H76.4v-.1h.6l-.1-.4-.1-.1Z"/><path fill="#fff" d="M75.9 84.5v.2h.1V85h.1v.4h.1v.4h.1v.2h.1V86.4h.3v-.4h-.1v-.4h-.1V85h-.1v-.5h-.1v-.1H76v.1h-.1ZM75.1 82.5V82.9h.1V83.2h.1V83.5l.1.1v.4h.1v.1l.1.1V84.5l.3-.1V84h-.1v-.4h-.1V83l-.1-.1v-.4h-.1v-.1H75Z"/><path fill="#fff" d="M74.3 80.6V81h.1V81.2h.1V81.5h.1v.5l.1.1v.4l.4-.1v-.2L75 82v-.2h-.1v-.5l-.1-.1v-.5l-.1-.1v-.2l-.4.1ZM73.5 78.7v.2h.1v.4h.1V79.7h.1v.5h.2v.4h.3v-.2l-.1-.1V80l-.1-.1v-.5H74v-.6h-.1v-.2l-.4.1ZM72.7 76.8v.2h.1V77.3l.1.1V77.8h.1v.5h.2v.5l.3-.2v-.2h-.1V78h-.1v-.5h-.1v-.6H73v-.2h-.4v.1Z"/><path fill="#fff" d="m71.8 74.8.1.1v.5h.1v.2h.1V76h.1v.4h.1v.4l.4-.1v-.1h-.1V76.1l-.1-.1v-.4l-.1-.1V75.2h-.1v-.5h-.4Z"/><path fill="#fff" d="M71 73h.1v.4h.2v.5l.1.1V74.4l.1.1v.4l.4-.1v-.1l-.1-.1V74.1h-.1v-.5h-.1V73.3h-.1v-.6l-.4.1ZM70.3 71v.5h.2v.5h.1v.4h.1v.4h.4v-.2H71V72.2h-.1v-.5h-.1V71.4l-.1-.1v-.5l-.4.1ZM69.5 69v.6h.2v.5h.1v.4h.1v.4l.4-.1v-.1h-.1V70.3l-.1-.1v-.4l-.1-.1V69.4h-.1V69h-.4ZM68.6 67.1v.2h.1V67.7h.1V68h.1V68.3h.1V68.6l.1.1v.4l.4-.1v-.1h-.1v-.4h-.1V68h-.1v-.4H69v-.4L69 67V67l-.3.1ZM66.6 68v-.1h.2v-.1H67.2v-.1h.2c.1-.1 0 0 0 0l.1-.1h.2v-.1H68l.1-.1.1-.1h.4l-.1-.4h-.1l-.1.1H68c-.1 0 0 0 0 0h-.2l-.1.1h-.2v.1H67.2v.1h-.1l-.1.1H67l-.1.1h-.4v.1h-.1l.1.4h.1Z"/><path fill="#fff" d="M64.6 68.8h.1l.1-.1h.2v-.1h.1v-.1h.4v-.1h.1c.1-.1 0 0 .1 0v-.1H66v-.1H66.4c0-.1 0 0 0 0h.1v-.4H66v.1h-.4l-.1.1h-.2v.1h-.2v.1H64.8v.1h-.2l-.1.1h-.2v.4h.1Z"/><path fill="#fff" d="M62.5 69.6H62.9v-.1h.2v-.2h.5l.1-.1H64V69l.1-.1h.4l-.1-.4h-.1v.1h-.4v.1H63.4v.1H63.2v.1H63v.1h-.2v.1h-.4l-.1.1h-.1l.1.3h.1ZM60.9 77V77.4h.3l-.3-.3ZM62.3 80.9h.2v-.2H62l.2.2ZM66.2 79.3h.1v.1l-.3.1-.1-.3h.3ZM70.3 89v.1h.2l-.1-.3-.3.2h.2ZM76.8 86.7h.1V86.3l-.3.1.1.4.1-.2ZM69 67l-.1-.1h-.2l.1.3.3-.1-.2-.1Z"/><path fill="#fff" d="M62.4 69.4h-.1v.2h.3v-.2l-.1-.2-.1.2ZM56 82.7l-1.4.6 3.5 8.3 1.4-.6-3.5-8.3Z"/><path fill="#fff" d="M57.4 90.2V90.6h.1v.5h.3V90h-.3l-.1.1ZM56.8 88.9v.2h.1V89.5l.1.1v.2h.2V88.7h-.3ZM56.3 87.5v.4h.1v.4h.3v-.6h-.1V87.3h-.2l-.1.1ZM55.7 86.2v.2h.1V86.8l.1.1v.2h.2V86h-.4ZM55.1 84.8v.2h.1v.4h.1v.2h.3V85.2h-.1v-.6h-.2l-.2.1ZM54.6 83.5V83.9h.1v.5h.3V83.3h-.3l-.1.1ZM55.9 82.7H55.5v.1h-.4v.3h.6v-.4ZM56.7 84.1V83.7h-.1v-.5h-.3V84.3h.4ZM57.3 85.5v-.2h-.1v-.4H57v-.2h-.2V85.7h.3l.1-.1ZM57.9 86.8v-.1h-.1V86.3h-.1V86h-.3v.7h.1v.2h.2l.1-.1ZM58.4 88.2v-.4h-.1v-.5l-.3.1V88.4l.3-.1h.1ZM59 89.5v-.2h-.1v-.4h-.1v-.2h-.2V89.7h.3v-.1ZM59.6 90.8h-.1v-.4h-.1V90H59v.7h.1v.2h.4ZM58.3 91.7v-.1h.4v-.1h.2v-.3h-.4v.1h-.2v.4Z"/><path fill="#fff" d="M54.5 83.5v-.2h.1v-.1l.2.2h-.3ZM55.9 82.7h.2v.1H56l-.1-.1ZM59.5 90.9v.2l-.2-.1.2-.1ZM58.3 91.7H58v-.1l.2-.1v.2ZM60.1 81l-1.2.6 3.4 8.2 1.3-.5-3.5-8.3Z"/><path fill="#fff" d="M61.7 88.6V89h.1V89.3h.2v-.5H61.7ZM61.2 87.5v.1h.1v.5h.3v-.6h-.3ZM60.7 86.3v.2h.1v.4h.3v-.5h-.3ZM60.3 85.2v.4h.1v.2h.2v-.6H60.3ZM59.8 84v.4h.1v.2h.2V84H59.8ZM59.3 82.8V83.2h.1V83.5h.3V83h-.1v-.2H59.3ZM58.8 81.7V82h.1V82.4h.3V82H59v-.2h-.2l-.1-.1ZM60 81H59.6v.1h-.2v.2H59.9V81l.2-.1ZM60.7 82.2v-.4h-.1v-.2h-.2v.5h.2l.1.1ZM61.3 83.3v-.1h-.1V82.8H61v-.1h-.2v.5h.3ZM61.7 84.5V84h-.1v-.2h-.2v.6H61.7ZM62.2 85.7V85.3H62V85h-.3V85.5h.1v.2H62.2ZM62.7 86.8v-.2h-.1v-.4h-.2v.6H62.7ZM63.2 88v-.2H63v-.4h-.3v.5h.3ZM63.6 89.1v-.4h-.1v-.2h-.2v.6h.3ZM62.5 89.9h.1v-.1H63v-.3H62.5v.3h-.1ZM58.8 81.7v-.2l.1-.1.1.2-.2.1Z"/><path fill="#fff" d="M60 81h.2l-.1.1-.1-.2ZM63.7 89.2v.1l-.1.1-.1-.2h.2ZM62.5 89.9h-.2l-.1-.1.2-.1v.2ZM62.1 81.8l-8.3 3.5.6 1.3 8.3-3.5-.6-1.3Z"/><path fill="#fff" d="M55 84.7h-.4v.1h-.1v.2h.5V84.7ZM56.2 84.2H56v.1h-.4v.2h.6V84.2ZM57.4 83.7H57v.1H56.7v.2h.5V83.7ZM58.5 83.2h-.1v.1h-.5v.3h.6v-.3ZM59.7 82.7h-.2v.1h-.2v.1H59v.2h.5v-.3ZM60.8 82.2h-.1v.1H60.3v.1h-.2v.2h.6v-.3ZM62 81.8h-.4v.1h-.2v.2h.5V81.8ZM62.7 83v-.4h-.1v-.1h-.2V82.9h.2l.1.2ZM61.5 83.7h.4v-.1h.2v-.2h-.6V83.7ZM60.3 84.2h.4V84h.2v-.2h-.5V84.2ZM59.2 84.7h.2v-.1h.4v-.3h-.4v.1h-.2V84.7ZM58 85.2h.2V85h.4v-.3H58v.3ZM56.9 85.6h.4v-.1h.2v-.2h-.6V85.6ZM55.7 86.1h.4V86h.2v-.2h-.5V86.1ZM54.5 86.6h.5v-.1h.1v-.2h-.5V86.6ZM53.8 85.5v.2h.1v.2h.3v-.2H54v-.1h-.2l-.1-.1ZM62 81.8h.2l.1.1h-.2l-.1-.1Z"/><path fill="#fff" d="M62.8 83v.1h-.1v.1l-.2-.2h.3ZM54.5 86.6h-.2l.1-.2.1.2ZM53.8 85.4v-.2h.1l.1.1-.2.1ZM64 86l-8.4 3.6.5 1 8.3-3.4-.5-1.1Z"/><path fill="#fff" d="M56.8 89h-.5v.3h.5V89ZM58 88.4h-.1v.1H57.5v.1h-.2v.2h.5v-.3h.1ZM59.1 88h-.4v.1h-.1v.2h.5V88ZM60.3 87.5h-.4v.1h-.2v.2h.5v-.2l.1-.1ZM61.5 87H61.1v.1H60.8v.2h.5V87ZM62.6 86.5h-.1v.1H62v.3h.5v-.3h.1ZM63.8 86h-.2v.1h-.4v.3h.5V86ZM64.5 87h-.1v-.2h-.1v-.2h-.1v-.2H64v-.2h-.2v.2h.1V86.8h.1v.2h.1v.2h.3ZM63.2 87.8h.4v-.1h.2v-.2h-.5v.2l-.1.1ZM62 88.3H62.4v-.1H62.7v-.3H62.2v.1H62V88.3ZM60.9 88.8h.2v-.1h.4v-.3H61v.1h-.2V88.8ZM59.7 89.3h.2v-.1h.4v-.3h-.5v.3ZM58.6 89.7h.4v-.1h.2v-.2h-.6V89.7ZM57.4 90.2h.4V90h.2v-.2h-.5V90.2ZM56.3 90.7h.4v-.1h.2v-.2h-.6V90.7ZM55.6 89.7v.1h.1v.2h.1v.2h.1v.4h.3v-.1H56V90.1H56V90h-.1V89.6h-.1v-.1h-.2v.1ZM63.8 86h.2v.1l-.1.1-.1-.2Z"/><path fill="#fff" d="M64.4 87V87.4l-.2-.2h.2ZM56.2 90.7H56l.2-.2v.2ZM55.6 89.7v-.2l.1-.1v.2h-.1Z"/></svg>