<svg xmlns="http://www.w3.org/2000/svg" width="120" height="120" fill="none"><path stroke="#B4E41D" stroke-linejoin="bevel" stroke-width="26.7" d="m43.8 108.6-30-63.2 71 52.1L36 20.1 106.2 68 81.7 11.4"/><path fill="#fff" d="M98.5 72.3C97.9 65 89.6 59 86.3 56.2c-3.3-3-1.3-6.3-1-13.4.3-7.1-5.2-11.6-8.6-13.4-3.5-2-16-4.8-27.3-2.5-11.4 2.3-13.4 9-15.1 15.4-1.7 6.3 2.8 17.3 2.8 17.3s-11.5 9-7.6 23c4 14 28.9 9 28.9 9S81 90.5 90.9 89c9.8-1.5 8.3-9.5 7.6-16.7ZM47.1 52.9a6.9 6.9 0 1 1 0-13.8 6.9 6.9 0 0 1 0 13.8Zm18.6 36c-2.9 1.1-9.5 1-9.5 1l-3-2.3s6.7-1.4 7.3-1.4c.7 0-7.8-2.6-7.8-2.6l9.3-2-10.1-2.4-2.6-14 18.5-.5-2.1 24.1Zm8.9-36a6.9 6.9 0 1 1 0-13.8 6.9 6.9 0 0 1 0 13.8Z"/><path fill="#141414" d="M57.4 43.1c-.5-.6-.6-1.3-1-2l-1.2-1.8s-.3-1-1.1-1.7c-.8-.6-1.2-.2-2-.6-.6-.3-1.3-.4-2-.4h-2.6c-1 0-1.8-.4-2.8-.4l-2.8.1-3-.3c-1 0-2-.1-3-.4-1-.3-2.1-.6-3-1.4-.5-.3-.8-.9-1-1.4a6 6 0 0 0-.7-1.3L29.3 29c-.4-1-.4-1.6-.1-1.7.2-.1.5.2 1.2.9.5.5.9 1.5 1.9 2.5l.5.4.6.5.5.4c.8.4.7.5 1.7.8l2.7.1c.9 0 1.8.3 2.8.3 1-.1 2-.6 3-.7l3 .2c1.1 0 2.2-.1 3.4.1 1 .2 2.3 1 3.2 1.7.8.5 2 1.5 2.7 2.8.8 1.2 1.2 2.6 1.4 3.3.2.6.4 3.4-.3 2.6h-.1Z"/><path fill="#141414" d="m54.7 47.2-.2 1v.1l-.3.6-.3.6c0 .3-.2.4-.3.6l-.1.2-.2.2-.1.1c0 .3-.2.4-.3.5l-.1.2h-.2c-.1.3-.3.4-.5.5 0 .2-.1.2-.2.3l-.2.1-.3.1-.3.3H51c-.6.4-1.2.6-2 .8l-.3.1H48.1s-.1.1-.2 0h-.1c0 .2-.2.1-.2 0l-.2.1h-.5l-1.4-.2h-.7l-.1-.2h-.3l-.8-.4c-.3 0-.4-.1-.6-.3l-.2-.1-.2-.2h-.1l-.1-.1-.2-.2a6 6 0 0 1-.6-.6l-.1-.1-.1-.1c0-.2-.2-.3-.3-.5l-.7-1-.2-.3-.2-.3v-.3c-.2-.1-.1-.2-.2-.3l-.1-.4V48l-.1-.2v-.1l-.3-.9v-1.9s0-.2.2-.3l.1-.3v-.5l.2-.2V43h.1c0-.2.3-.3.2-.5v-.1c.2-.1.3-.3.3-.4.1-.3.2-.5.4-.5l.1-.1v-.1a7 7 0 0 1 1-1l.3-.2V40c.3 0 .3-.3.5-.4h.2l.5-.4.2-.1c.3 0 .4-.1.5-.2h.4l.2-.1.3-.1H45.3l.2-.1s0-.1.2 0l.1-.1h.4c0-.1 0 0 .1 0h.4c.2-.2.4-.1.7-.1h1.3l.5.2h.4c0 .1.2 0 .3.2l.3.1c.1 0 .2 0 .3.2h.1c.2 0 .3.1.4.3l.3.1.8.6h.2c.2.4.5.5.6.8l.8 1.1v.2l.2.2.2.3s0 .2.2.3l.2.4c.2.2.2.5.3.8v.1l.1.8v.5c0 .3-.1.4-.4.4h-.1l-.1-.3-.1-.2V44.5L54 44c0-.3-.3-.6-.4-.9l-.4-.7-.5-.6-.1-.2v-.1l-.3-.3-.1-.2c-.2 0-.2-.2-.3-.3l-.1-.1-.2-.2h-.1c-.2-.1-.2-.3-.5-.3 0-.2-.1-.2-.2-.2l-1-.5-.2-.1-.2-.1c-.1 0-.1-.1-.2 0l-.1-.1h-.7l-.1-.1H47.5l-.3-.1h-.1s-.1.1-.2 0h-.1c-.2.2-.5 0-.7.1h-.4l-.5.2-.6.1s-.1.1-.2 0l-.5.2-.2.2-.4.2-.1.1v.1l-.2.2h-.1l-.1.1-.2.1-.2.1c0 .2-.2.1-.3.3-.4.2-.5.5-.8.8-.1.2-.3.2-.3.4l-.5 1-.1.1-.1.4v.2s-.1.1 0 .1l-.1.2v.1c-.2.2 0 .3-.1.4l-.2.6c-.1.1 0 .3 0 .4v1.2l.1.1v.2l.1.1c-.1.2 0 .4.2.5V48l.1.2.2.5.3.4v.3h.2c0 .2.2.4.3.5v.2c.2 0 0 .1.2 0v.1c.1.3.4.4.5.6l.1.2c.2 0 .2.3.4.3 0 0 .2 0 .2.2l.3.1.1.2h.2l.2.2h.2l.4.2c.1-.1.2 0 .2 0l.1.2h.4l.2.2.5.1H48.6v-.1c.2 0 .3-.1.4 0h.1l.3-.2h.3l.2-.2.3-.1.2-.1.3-.2.2-.1.2-.1c.2 0 .4-.2.6-.4l.6-.6.2-.2.1-.2s.2-.1.1-.2V50c.2 0 .3-.2.3-.3l.3-.3v-.2l.1-.2.1-.1c0-.2 0-.2.2-.3l.2-.6v-.5l.1-.1V46.1c0-.2.1-.2.4-.2.2 0 .3 0 .3.2v1Z"/><path fill="#141414" d="M50 47.1a3.3 3.3 0 0 1-3.3-3.3c0-1 .5-1.8 1.2-2.4l-.8-.1a4.7 4.7 0 1 0 4.7 5.1c-.5.4-1.1.7-1.8.7Z"/><path fill="#141414" d="m49.1 47.1-.6-.2h-.1l-.4-.3-.4-.3-.3-.3v-.1l-.2-.2-.2-.5h-.1V45l-.1-.5-.1-.2V43.6c0-.5.2-1 .5-1.4V42l.2-.1.1-.2h.2c-.1 0 0-.1 0-.2 0 0 .1 0 0 0H46l-.1.1-.6.2-.4.2h-.1l-.2.1v.1h-.1l-.2.1-.4.4h-.1v.1l-.2.3-.5.8v.2l-.2.2v.4l-.1.2-.1.2V47s.1.1 0 .2c.1 0 .1.1 0 .2.1 0 .2 0 .2.2v.2l.1.2.1.1v.1l.2.3c0 .2.2.2.3.3l.2.4h.1l.7.6s0 .2.2.2a6.3 6.3 0 0 0 .4.2l.5.2s0 .1.1 0l.3.1.1.1h.5v.1h1l.5-.1h.1l.5-.2.3-.1.2-.2.2-.1.2-.2.2-.1.2-.1.2-.2v-.1l.2-.1.4-.6.3-.6c.2-.2.3-.5.3-.7v-.1s.1-.2 0 0V47l-.1.1h-.1s0 .1 0 0l-.6.2h-.4c-.1 0-.2 0-.2-.2V47h.2V47H51v-.1l.3-.1c.2 0 .5-.3.7-.5v.7l-.2.8v.2l-.2.2-.1.1-.1.4-.1.1v.2c-.1 0-.3.1-.3.3l-.2.2-.5.5-.2.1-.2.1v.1h-.2v.2H49.3l-.1.1h-.1l-.1.1H49l-.2.1-.2.1h-.3c0 .1-.1.1-.2 0-.2.2-.4.1-.6.2h-.7l-.5-.1h-.1c-.2 0-.3 0-.4-.2h-.2l-.3-.1c0-.1-.1-.1-.2 0H45l-.1-.1h-.1l-.1-.1-.1-.1-.1-.1c-.2 0-.2-.2-.3-.3l-.6-.6-.3-.4c-.2-.1-.3-.4-.4-.6 0 0-.1-.1 0-.2-.2 0-.2-.2-.2-.3v-.1l-.1-.1v-.2h-.1v-.3l-.1-.6V44.5l.1-.2.1-.3.2-.4.1-.2.3-.5h.1c0-.1.1 0 0-.2.3-.1.4-.3.5-.4l.2-.1c0-.2.2-.1.2-.3h.3v-.1l.1-.1h.2l.1-.2h.2l.1-.1.3-.1c0-.2.1-.1.2-.1l.3-.1H46.3l.4-.1H47.9l.9.1-.2.1-.3.3-.2.2-.2.2-.1.2-.2.2-.1.2-.1.2-.1.2v.1l-.1.3V43.9H47v.5l.2.6v.2l.2.1v.1l.1.1.2.2.1.2.2.1.1.2.2.1.4.2.3.1.4.1h.5l.1.2-.1.2H49ZM63.4 43c-.1-.9.3-1.7.4-2.5.2-.7.5-1.5.9-2.2l1.6-2c.8-.8.4-1.3 1.6-2.1.9-.7 2-1.2 3.1-1.4l3-.4 3 .3h2.8l2.7.2c1 0 1.8-.2 2.6-.3.8-.1 1.6-.3 2.2-.7l1-.4c.5-.2 1-.4 1.3-.8 1-.9 1.6-1.8 2-2.3.8-.7 1.2-1 1.4-1 .3 0 .3.7-.2 1.7-.4.8-1.3 1.4-2.1 2.5l-.4.7-.4.6-.7.8c-1 .8-1.2.7-2.3 1.2-1.1.5-2.1.9-3.2 1-1.1.2-2.1 0-3.2 0-1 .1-2 .6-3 .6l-3-.2c-1 0-1.9.3-2.7.4-1 0-1.6-.2-2.4.1a7 7 0 0 0-2.3 1.8c-.8.8-1.5 1.8-1.9 2.4-.3.4-1.4 3-1.7 2l-.1-.1Z"/><path fill="#141414" d="m67.4 47.2.2.8v.2l.3.6c0 .2 0 .4.2.6l.4.5v.2l.2.2v.1l.4.4.2.1v.2l.5.4.3.1.1.3.2.1.3.2.1.1 1.8.8h.4c0 .1 0 0 .2 0l.3.1.3.1H74.7l1.3-.1.6-.2h.2l.2-.1.8-.4c.3-.1.4-.2.5-.4h.3l.1-.1.1-.1v-.1l.3-.1.6-.6s0-.1.1 0v-.2c.3 0 .4-.3.5-.4l.6-1 .1-.3.2-.3v-.2l.1-.1v-.3c0-.1.2-.2.1-.3v-.1l.1-.3v-.1l.1-.8V45c0-.1-.2-.2 0-.4-.1 0-.1-.1 0-.2h-.1c0-.1-.2-.2-.1-.3 0 0-.1 0 0-.2l-.1-.2-.1-.2-.1-.2c-.1-.2-.1-.4-.3-.5v-.1l-.2-.4c-.2-.1-.3-.3-.3-.5v-.1h-.1l-1-1-.1-.3h-.2c0-.2-.3-.2-.4-.3l-.1-.1-.6-.3s-.1-.1-.2 0c-.1-.2-.3-.2-.4-.3l-.2-.1h-.1l-.3-.1h-.2l-.1-.2h-.8l-.1-.1H73.3l-.4.2-.5.1-.3.2s-.1.2-.3.1l-.3.1-.2.1H71c0 .2-.1.3-.3.3l-.3.2-.6.6-.1.1c-.3.1-.4.4-.7.6l-.7 1h-.2v.3l-.1.4s-.2.1-.1.2l-.1.4-.2.7v.1l-.1.7-.1.2-.1.2v.1c0 .2-.1.3-.4.3H67l-.1-.3V45l.1-.2.1-.2v-.2l.1-.3c.1-.4.1-.7.3-1 0-.4.2-.6.3-.8 0-.3.2-.6.4-.8l.1-.1.1-.1.3-.4.2-.1c0-.3.2-.3.3-.4h.2l.1-.2.1-.1c.1-.2.4-.2.4-.5l.3-.1c.3-.3.7-.4 1-.6h.3l.3-.2h.1l.2-.1.1-.1.2-.1h.2l.1-.1h.4l.2-.1.2-.1h.7c.1 0 .2-.2.3 0h.1c.3-.1.5 0 .8 0 .1.1.3 0 .4 0l.6.2.7.3.1.1.6.2.3.1.4.3c0 .1 0 0 .2 0h.1l.3.1v.1l.2.1.1.2s.2 0 .2.2c.2 0 .2.3.3.3l.8 1 .3.5c.3.3.4.7.6 1v.3c.2 0 .2.2.2.3v.1l.1.2v.2c.1 0 0 .1 0 .2l.1.1c0 .2.1.3 0 .4l.1.8V47.7c-.2.1-.1.3-.1.5v.1l-.1.2-.1.3-.2.5-.2.5c0 .2 0 .3-.2.3v.1l-.4.6s-.2 0-.1.2c0 0-.2 0-.1.1l-.7.7s0 .1-.2 0c0 .3-.3.2-.3.5l-.3.2H79c-.1 0 0 .2-.2.1l-.2.1-.1.2-.2.1-.2.1-.4.3h-.1c0 .2-.1.2-.2.1h-.1a7 7 0 0 1-.4.2h-.4c-.1.2-.3.2-.5.2h-.2l-.2.1c-.3.2-.6.1-1 .1-.2.1-.5 0-.8 0-.1 0-.2.1-.2 0H73L73 54h-.5c-.1-.1-.2 0-.3-.2H72l-.3-.1-.3-.2h-.3l-.3-.2-.3-.2-.2-.1-.3-.2-.2-.2c0-.2-.3-.3-.5-.5h-.1l-.6-.6-.2-.3-.2-.2-.2-.1-.1-.1-.2-.4-.2-.4-.1-.2-.1-.1-.1-.3-.1-.3-.2-.6-.2-.5c0-.1-.1-.1 0-.2l-.1-.5-.2-.4v-.4c0-.3 0-.3.4-.3.2 0 .2 0 .3.2l.1 1 .2-.2Z"/><path fill="#141414" d="M71.7 47.1c1.8 0 3.3-1.5 3.3-3.3 0-1-.5-1.8-1.2-2.4l.8-.1a4.7 4.7 0 1 1-4.8 5.1c.6.4 1.2.7 1.9.7Z"/><path fill="#141414" d="m72.5 46.9.6-.2v-.1l.4-.2c.2 0 .3-.2.4-.3l.3-.3v-.1c.1 0 .2-.1.1-.2h.1l.2-.4v-.2l.2-.4v-.9a3 3 0 0 0-.3-1.3h-.1l-.1-.1V42l-.3-.2s-.2-.1-.1-.2l-.2-.1s-.1-.1 0-.1h2.2l.6.3.4.2.2.1h.1l.1.1.2.2.5.4v.1h.1c0 .2.2.3.3.4l.5.7.1.2.1.2v.2l.1.3.1.2v.3h.1l.2.7v.6l-.1.6-.1.3-.1.1v.4l-.1.1-.1.2s-.1.1 0 .2H79l-.2.4-.2.3-.3.3-.1.1a6 6 0 0 1-.8.7l-.2.1-.3.3h-.2l-.4.2H76l-.3.1h-.5l-.1.1h-1.8l-.1-.1-.5-.1-.3-.1-.3-.2h-.3c0-.1-.2 0-.2-.2l-.2-.1-.1-.2-.1-.1c-.1 0-.2 0-.2-.2l-.2-.1c-.1-.3-.3-.4-.5-.6l-.4-.6c0-.4-.2-.6-.3-1v-.4c-.2-.2-.1-.3-.2-.5v-.5l.2.1 1 .5c.1.2.3.2.4.2h.2l.1.1c.2 0 .3.1.3.3l-.2.1h-.2l-.3-.1h-.2l-.1-.1h-.1l-.2-.2-.4-.1c.1.2 0 .2 0 .4.2.1.2.3.3.5v.4s.2 0 .1.1l.2.3v.1l.1.1.3.4.2.1.5.5.2.2h.1l.1.1h.2v.1l.2.1h.2l.1.1H73.1l.2.1h1c0 .1.2.1.2 0h1.3l.2-.1.3-.2.1-.1.1-.1h.1l.1-.1h.1l.2-.1.2-.2c.3 0 .4-.3.6-.5l.3-.3.3-.6.1-.1.1-.2v-.2s.1 0 0-.1l.1-.1V47l.2-.4v-1.3c-.1 0-.1 0 0-.1l-.2-.3v-.2l-.1-.2-.1-.3-.2-.3-.1-.2-.3-.4c-.1 0 0-.2-.1-.1-.1-.3-.3-.3-.4-.5-.2 0-.2-.3-.3-.3l-.2-.1-.2-.1-.1-.1h-.1l-.2-.2h-.1l-.3-.1h-.2l-.3-.1-.1-.1H74.3l.1.2.2.3v.1l.1.2.1.2v.3l.1.2v.4l.1.3v.1l-.1.5-.2.6-.2.3v.1c0 .1-.1.1 0 .2l-.1.1-.2.2-.2.3-.1.1h-.1l-.2.2-.2.1-.4.3-.3.1c-.1 0-.1.1-.2 0l-.3.1-.3.1h-.3l-.2-.1.1-.3.7-.1h.3ZM60.8 44.4l-2.5 6.3 2.5 4.4 2.6-4.4-2.6-6.3Z"/><path fill="#141414" d="m60.8 45-.2.4v.1l-.1.3-.2.3v.3l-.1.1s-.1 0 0 .1l-.1.4s-.1 0 0 0v.1H60l-.1.4v.1l-.1.1-.1.1v.2h-.1l-.4 1v.2H59v.2l-.2.1v.4l-.1.1-.3.6.1.2s0 .1 0 0l.1.2.3.4.1.2v.1l.1.1v.1h.1v.2l.3.4.1.3.3.6h.1l.1.2v.2l.1.1.2.1v.1l.2.2v.2l.2-.3h.1V53.9l.1-.1v-.1s.1 0 0-.1h.1c0-.1.2-.1.2-.3l.1-.2c0-.1 0-.2.2-.3l.3-.6.2-.2v-.3h.1l.2-.4v-.1l.1-.2h.2v-.2l.1-.1v-.1s-.1 0 0 0l-.1-.1V50.1l-.1-.1-.2-.3v-.1l-.1-.3-.2-.2V49l-.2-.2s-.1 0 0-.1l-.1-.2s-.1 0 0-.1v-.1l-.1-.2-.1-.2-.3-.4-.1-.5-.3-.6s.1-.1 0-.1v-.1l-.2-.2c0-.2-.2-.2-.1-.3-.2 0-.2-.2-.2-.3h-.1v-.5c0-.1-.1-.1 0-.2-.1-.1 0-.2.2-.3h.2l.1.1v.5l.1.3.3.4c.2.1.1.3.2.3l.2.5v.1l.1.2v.1l.1.2v.2h.1c.1.1 0 .3.2.3-.1 0 0 .1 0 .2l.2.5v.2l.2.1v.1l.1.1v.1l.1.1v.2l.2.1V49.6h.1s.2 0 0 .1v.1c.2 0 .1.2.2.3l.1.3.2.3-.1.1-.3.4h-.1l-.1.3v.1l-.2.3v.4h-.1l-.1.2-.1.1c-.3.2-.3.4-.4.6 0 0-.2 0-.2.2l-.2.5h-.1l-.1.2v.1s-.1 0 0 .1l-.1.1v.1c-.2 0-.1.3-.2.3l-.4.5v.1l-.1.1v.2c-.2 0-.2-.3-.3-.4 0 0 0-.1 0 0V55l-.2-.1-.1-.2H60c0-.3-.1-.3-.2-.4l-.1-.1-.1-.1-.1-.3-.2-.2s-.1 0 0-.2h-.1l-.2-.3c-.1 0 0-.1 0 0V53l-.2-.4c-.1 0 0-.3-.2-.3v-.2h-.1V52l-.1-.2-.2-.3c-.2.1-.2 0-.2 0V51.2l-.1-.2a.3.3 0 0 1-.2-.3v-.1l.1-.2v-.1l.2-.5.1-.4h.1V49l.1-.2.1-.1v-.1l.1-.2.1-.1v-.1l.1-.2V48l.1-.2v-.1l.1-.1.2-.4.1-.4.1-.1V46.4l.1-.2.1-.2V46l.1-.2v-.1l.2-.3V45h.1v-.5l.1-.2h.3l.3.2-.1.5h.3ZM79 31.3l-2-1c-.3-.1-.5-.3-.9-.3-.2 0-.3-.3-.6-.4l-2-.7-2.1-.4c-.7-.1-1.4-.4-2-.4-.6 0-1.1-.3-1.7-.4-.5 0-1.2 0-1.7-.2l-1.3-.2H64c-.2 0-.5-.1-.8 0H55.6c-.2 0-.5 0-.6.2h-.2c-.7-.2-1.3.2-2 .2s-1.4.2-2.2.4l-.5.1-.4.2c-.6-.1-1 .1-1.6.2-.6.1-1.2.4-1.8.4-.3 0-.6.1-.9.4-.1.2-.4.2-.6.3-.2 0-.3.2-.5.3h-.5l-.1.1c-.8.5-1.7.7-2.5 1.2L39 32.9c-.4.3-.8.6-1.2.6-.2 0-.4 0-.3-.3 0-.2.2-.4.3-.5l.6-.7c.5-.4.9-.9 1.5-1.2.1 0 .3-.3.5-.2h.1c.6-.7 1.5-1 2.3-1.4.6-.3 1.2-.7 2-.9.3-.3.8-.4 1.2-.5 1.4-.2 2.8-.7 4.2-1l4.3-.6c.3 0 .5-.1.8 0l.9-.1H63.9l2 .1c.4.1.7 0 1 .3h.5l1.4.2 2 .4 1.2.2 1.2.3 1.5.6c.5.3 1.1.4 1.6.6l2.7 1.4 2.5 1.5c.5.3.8.8 1.2 1.1.2.2.2.8 0 .8h-.1c-.5-.3-1-.4-1.4-.8l-2.3-1.4h.1ZM36.3 39l-.4 2c0 .3-.2.6-.1.8l-.2.6-.2 1.9v3.6c.2.5.1 1 .2 1.4l.3 1.5c0 .3 0 .7.2 1l.3.6c.1.2.1.5.4.6v.2c0 .2.1.5.3.6l.3.5.8 1.3.6.9.8.8.8.7c.1.1.3.3.5.3.5.4 1 .5 1.6.6l1.8.3.5-.1h1.6c.6-.1 1-.3 1.6-.3.2 0 .6 0 .8-.3l.5-.2.4-.2.4-.1h.2c.6-.5 1.4-.6 2-1l2.2-1.3c.3-.2.7-.4 1.2-.3.2 0 .3.1.2.3l-.3.4-.6.5c-.4.4-.8.8-1.3 1l-.5.2H53c-.5.6-1.3.8-2 1-.5.4-1 .7-1.7.9-.3.3-.7.4-1 .4-1.4.2-2.6.5-4 .4-1.3 0-2.6-.3-3.8-1-.3 0-.5 0-.7-.2l-.7-.6-.6-.5-1-1.2-.8-1.3c-.6-.8-1-1.8-1.4-2.7-.3-.5-.6-1.1-.7-1.7 0-.3-.2-.5-.1-.8l-.2-.5-.2-1.3L34 47l-.1-1.1v-1.1l.3-1.4c0-.5 0-1 .2-1.5.3-.8.4-1.7.6-2.5l.6-2.5.6-1.3c0-.2.5-.4.6-.2 0 .6.2 1 0 1.5l-.6 2.2ZM85.5 38.3l.4 2c0 .2 0 .5.2.7v.6c.2.6.2 1.3.3 2l.2 1.8v1.8l-.2 1.5c0 .5 0 1-.2 1.6-.2.3-.3.7-.3 1l-.1.8c-.1.2-.3.4-.1.7l-.1.1-.4.8-.1.5-.8 1.5-.9.9c-.2.3-.5.7-.9.9l-1 .6c-.1.2-.4.2-.4.5H81c-.7.2-1 .8-1.7 1l-2 .4-.5.2H75c-.6-.1-1.2-.1-1.7-.4-.3-.1-.6-.2-.9-.1l-.6-.2h-.5c-.2 0-.3-.2-.4-.3h-.1c-.9-.2-1.5-.8-2.2-1.1-.8-.4-1.5-.9-2.1-1.4-.4-.3-.7-.6-.8-1 0-.3.1-.4.3-.3l.5.1.6.4c.5.3 1 .4 1.4.8 0 0 .3.1.3.3h.1c.7.2 1.3.7 2 1l1.7.4 1 .1c1 .5 2.3.4 3.4.3 1-.2 2.2-.5 3.2-1.2.1-.1.2-.3.5-.3.2 0 .4-.3.6-.5l.5-.4c.8-.5 1.3-1.3 1.7-2 .5-.9.9-1.7 1-2.6L85 50c0-.3 0-.5.2-.8V49l.1-1.2v-5c0-.5-.3-1-.2-1.4 0-.8-.3-1.6-.4-2.4l-.7-2.4-.4-1.3c0-.2.3-.6.4-.6l.1.1c.3.4.6.7.8 1.2l.7 2.2v.1ZM54.8 80l2.2.5c.3 0 .5.2.8.1l.7.2 3.5.8c.9.2 3.6.4 1.4.7-1.1.3-2.5.5-3.5.9l-1.5.3-.7.2-1.7.4h-.5v.1h.2-.1c-.4 0-.2.1 0 .1h.2l.8.3 1.2.5 1.3.4 1 .4c.3.1.5.3.8.1.4.3.7.3 1 .4l2.8.5-3 .7-1 .2c-.6 0-1.3 0-2 .2l-.6.1h-.3l-1.6.2H55c-.2 0-.4 0-.1.2H55.2l.6.3 1.2.6 2.5 1c.5.1 1 .3 1.1.8.1.2 0 .3-.2.3H60l-.8-.2c-.6-.1-1.2-.2-1.7-.5-.2-.1-.4-.1-.5-.3h-.1c-.8-.2-1.4-.5-2.3-.9L53 89c-.5-.3-.5-.5-.7-.8l.2-.1.1-.5.4-.2.5-.1c1.7-.3 3.1-.5 4.7-.6l3.2-.4-.1 1.3-.8-.3c-.2 0-.4 0-.6-.2l-.9-.3-.8-.2c-1-.5-2-.8-3-1.1-.8-.3-1.8-.6-2.3-1-.4-.3-.6-.5 0-.8l.3-.3 1.2-.3 1-.3c.3 0 .6-.2.9 0l.4-.3 1.3-.3h.3l-.2-.1s.2 0 .1-.1h-.2l-.4-.1-2.7-.7-2.7-.5c-.5 0-1-.3-1.4-.4-.3 0-.5-.5-.4-.7h.1c.6 0 1-.2 1.6 0l2.5.5Z"/><path fill="#141414" d="M55.2 93.6c-1 .3-2.1.3-3.1.5-.4 0-.8 0-1.2.2-.2.2-.6-.1-1-.1h-3c-1 0-2 0-3-.2-.9 0-1.8-.5-2.8-.6-.8 0-1.4-.6-2.1-.9-.8-.2-1.6-.6-2.3-1.1-.5-.3-.9-.8-1.4-1-.3-.3-.7-.4-1-.6-.2-.3-.4-.6-.9-.7l-.1-.2c-.2-.4-.6-.8-.9-1-.3-.1-.4-.3-.6-.6-.6-.6-1-1.3-1.5-2l-.8-1.7c-.3-.6-.6-1.2-.7-1.8l-.4-1.7c-.1-.3-.1-.7-.4-1 0 0-.1-.1 0-.1.1-1-.5-2-.4-3l.3-3c0-.3.2-.5 0-.8v-.5c.5-.7.6-1.5.9-2.2l1-2.4c.3-.3.6-.7.5-1.2 0-.3.3-.6.4-.9l.3-.7c0-.2.3-.3.4-.5l.1-.2c.4-1.2 1.5-2 2.1-3.1l2.4-3c.4-.5 1-1 1.7-1 .3 0 .4.1.3.5l-.3.6-.6 1-1.3 2c-.2.1-.3.4-.6.4l-.1.2c-.4 1-1.2 1.8-1.7 2.8-.5.8-.7 1.7-1.2 2.5 0 .5-.3 1-.6 1.5-1 1.5-1.4 3.3-1.8 5a13 13 0 0 0 0 5.3l.2 1 .3 1 .4 1.1c.1.7.4 1.4.8 2l1.1 1.8a13 13 0 0 0 2.9 3.1l2.1 1.5c.3.2.8.2 1 .6l.6.2 1.7.7 2.4.7h1.5c.5.2 1 .2 1.6.3l2 .3c.7 0 1.4-.2 2 0 1.3 0 2.6-.2 3.8-.3 1.2-.3 2.5-.4 3.7-.8.7-.3 1.4-.2 2-.4.4-.1 1 .4.9.6l-.1.1c-.6.4-1.2.9-2 1-1.1.4-2.3.6-3.5.9Z"/><path fill="#141414" d="M50.7 76.9H49.8l-.1-.1h-1.2l-.6-.2-.4-.1-.5-.2c0-.1-.1-.2-.3-.2h-.5c0-.2-.1-.2-.2-.2h-.2l-.4-.3-.3-.3-.3-.3-.2-.2c0-.1 0-.2-.2-.1 0-.3-.4-.3-.5-.5l-.4-.5-.1-.1h-.1c0-.3-.1-.4-.2-.5 0-.2-.2-.3-.1-.6 0 0 0-.2-.2-.2-.1 0 0-.1 0-.2l-.2-.1v-.2c-.2-.2 0-.5-.1-.8 0-.2-.1-.5 0-.8 0-.1 0-.3.3-.4h.4l.2.2v.2c.1.2.3.3.2.4 0 0 .1.1 0 .2.2.2 0 .4.2.6l.2.4c.2 0 .2.2.2.3 0 .3.2.6.4.8l.6.8s.2 0 .1.1l.2.2h.1c.1.4.4.5.6.6l.8.4h.5l.1.3s.1-.1.2 0h.3l.5.1h.6l.3.2.4.1c.3.2.5.1.7.2h.8l.4.1v.6c0 .2-.2.4-.4.4h-.7v-.1ZM87 73l-1.2-.2c-.1 0-.2-.1-.4 0l-.3-.2c-.4 0-.7-.2-1-.3l-1-.3-.9-.3c-.3 0-.4-.3-.7-.4a2 2 0 0 1-.7-.3c-.2-.2-.3-.3-.5-.3h-.4c-.1-.1-.2-.3-.4-.1v-.1c-.1-.2-.3-.2-.4-.2h-.3L78 70l-.5-.2c-.2-.1-.4 0-.6-.2l-.5-.1c-.1 0-.2-.2-.3 0-.3-.2-.6 0-.9 0-.3 0-.5.2-.8.3l-.2.1-.1.1c-.3 0-.4.2-.6.3-.2 0-.3.3-.6.4-.2 0-.3.1-.2.3l-.2.3-.1.2-.2.1c0 .5-.5.7-.6 1l-.4 1.2c-.1.2-.2.4-.6.5l-.3-.1-.1-.3v-.5c0-.2 0-.6.2-.8 0 0 0-.2.2-.2 0-.5.3-.9.5-1.2.1-.3.2-.7.5-1 0-.2.2-.4.4-.5.6-.4 1.1-.9 1.8-1.1.7-.3 1.5-.4 2.2-.3.2 0 .3-.1.4 0h.5l.4.1c.5.3 1 .3 1.5.5l1.5.6.9.3c.1.1.3 0 .3.3h.3l.6.2.8.4.6.1.5.2.6.3c.2.1.5.1.7.3l1.2.3H88.6l.4.5v.1c-.2.2-.5.5-.8.5H87Z"/><path fill="#141414" d="M76 72.5h-.3c-.1 0-.2 0-.2.2l-.1-.1H75l-.3.3h-.4c0 .2-.2 0-.3.1 0 0-.2.2-.3.1h-.2v.2l-.2.1c-.1-.1-.2 0-.2 0v.1l-.3.2h-.3l-.2.1h-.2s-.1 0 0 .2c-.3-.1-.1.2-.3.2l-.2.3s-.1 0 0 .1c-.3 0-.2.2-.3.2-.1 0 0 .2-.3.2v.2c.1 0 0 0 0 0v.2H71c.1.2-.2.2-.2.4l-.1.4-.4.1h-.5v-.1l-.1-.3s-.1-.3 0-.4h.1c-.1-.3 0-.4.1-.5.1-.2 0-.4.2-.5v-.3c.3 0 .4-.4.7-.6l.6-.6.1-.1.2-.1.1-.1c.3 0 .5-.2.6-.3.3 0 .5-.2.7-.3l.3-.2s0-.1.2 0v-.1l.3-.1.4-.1.2-.1.3-.1h2l.2.6-.3.4h-.5v.1ZM76.3 75.9H76l-.2.1c0 .1 0 0-.1 0h-.4l-.4.2c0 .1-.2 0-.3.2h-.3l-.3.2h-.2v.2c-.1 0-.2 0-.2.2-.1-.1-.2 0-.2 0v.1l-.3.2h-.2l-.2.2-.2.1s-.2 0 0 .2c-.3-.1-.2.2-.3.2l-.3.3v.2c-.2 0-.2.1-.3.2 0 .1 0 .2-.3.2 0 0-.1.1 0 .2V79.4h-.1c0 .3-.3.3-.3.5l-.2.4c0 .1-.1.2-.4.1h-.4l-.1-.2V80c0-.2-.1-.4 0-.4l.1-.1c0-.3.2-.4.2-.5l.1-.5.1-.2.6-.7.6-.7.1-.1.2-.1.1-.2c.3 0 .5-.2.7-.3l.6-.4.3-.3c.1 0 .1-.2.2 0l.1-.2h.3l.4-.2.2-.2h.6c.2 0 .3-.2.4-.1h1.2l.3.1.1.6c0 .2-.2.4-.3.4h-.5Z"/><path fill="#141414" d="m90 58.3 2.4 2.4c.3.3.5.7 1 .9.1.1.2.6.5.9l2 2.5c.6.8 1.3 1.6 1.8 2.5.6.9 1 1.9 1.5 2.8.4.8.5 1.6.8 2.4.3.8.5 1.8.5 2.6v2l.2 1.2c0 .4-.2.8 0 1.2v.3c-.3.4-.4 1-.4 1.3.1.4 0 .7-.1 1l-1 2.7-1.4 1.6c-.5.6-1 1.2-1.6 1.5l-1.7 1c-.4.2-.8.2-1 .6l-.2.1c-1.1 0-2 .7-3.2.7l-3.3-.1c-.3 0-.6-.2-.9 0l-.6-.1c-.7-.5-1.6-.6-2.4-1-.8-.5-1.7-1-2.4-1.7-.2-.3-.6-.7-1.1-.9-.2 0-.5-.5-.7-.8l-.7-.5-.3-.7-.2-.1c-1-.9-1.4-2.4-2.2-3-.7-.5-1.8-.5-3-.1-.6.2-1.2.5-1.9.3-.3 0-.4-.3-.2-.5.1-.3.3-.5.6-.6a9 9 0 0 1 1.1-.7c.9-.4 1.9-.8 3-.5.3.1.7.2.9.5l.2.1c1.4.7 1.8 2 2.6 2.9.6.8 1.4 1.3 2 2.1.5.2 1 .6 1.3 1 1.3 1.4 3.1 2 5 2.3 1.9.3 3.9.3 5.6-.4.3 0 .5-.3.9-.3s.7-.4 1-.6l1-.7A6.8 6.8 0 0 0 98 83c.6-1.4.9-2.9 1-4.4-.1-1-.3-1.8-.3-2.8 0-.4-.3-.8-.1-1.2l-.3-.7-.5-1.8-1.1-2.5-1-1.3-.9-1.5-1.2-1.8c-.4-.7-1-1.2-1.4-1.8-.7-1.2-1.8-2.1-2.7-3.1l-3-3-1.5-1.6c-.2-.3-.1-1 .1-1.1h.2c.7.4 1.4.6 2 1.2l2.7 2.7ZM62.7 89c1-.2 2-.3 3-.7l.4-.2s.2 0 0-.1c0 0 .2-.3.2-.7l.2-2.9.1-2.8.2-2.8.2-2.3.1-2.3.2-1.7V70.1c.2-.4.2-.9.2-1.2v-2.1h-1.2c-.6.1-1.3.3-1.8.2h-1.7c-.3.1-.7 0-1 .3h-.2c-.9-.2-1.8.2-2.7.3h-3c-.3 0-.5 0-.8.2h-.5c-.7-.3-1.5-.2-2.2-.3l-1.2-.3H51s-.1 0 0 .1v.1l.1.3.2 1 .2.6V70.3c.4 1.2.4 2.4.6 3.6.3 1.3.5 2.5.6 3.8.1.6.2 1.4 0 1.9-.2.2-.3.2-.5 0l-.2-.7-.3-1.1c-.2-.8-.5-1.6-.5-2.4 0-.3-.2-.5 0-.8v-.2c-.5-1-.5-2.1-.7-3.3l-.6-2.7a22.8 22.8 0 0 1-.5-2.6v-.4l1.3.5 1 .3 1.3.2 2.7.1c1.9 0 3.7-.2 5.6-.4h1l1.2-.2h1.2l2.2-.2 1.6-.1c.1 0 .3-.1.4 0v1.4l-.4 4.4v2.8c-.1.4 0 .8-.3 1.2v2.5l-.2 2.7V82c0 .6 0 1.1-.2 1.7l-.2 2c0 .8 0 1.5-.2 2.3l-.1.7-.7.4-1 .3c-.7.2-1.3.4-2 .4-1.3.2-2.6.3-4 .3-.7 0-1.4-.3-2-.3-.4 0-.8-.5-.7-.6l.2-.1c.7 0 1.3-.2 2.1-.1l3.5-.1Z"/><path fill="#141414" d="M59.2 67.2c5.2 0 9.4-.7 9.4-1.6 0-1-4.2-1.7-9.4-1.7s-9.4.8-9.4 1.7c0 .9 4.2 1.6 9.4 1.6Z"/><path fill="#141414" d="m65.3 64.9-1.8-.2h-.7l-.6-.1h-5.1c-.5.2-.9 0-1.4.1l-1.4.1-1 .1-.6.2c-.2 0-.4 0-.6.2H52c-.3 0-.5 0-.7.2l-.2.1v.1l.2.1c.3.2.7.2 1 .3.3.2.7.2 1 .3h.7c.5.3 1.1 0 1.6.1l1.8.1h2.1l1.5.1c.2 0 .5.1.8 0 .1-.2.4 0 .5-.1l.5-.1h.5c.7-.2 1.5 0 2.2-.2l2.1-.5c.4-.1.6-.2.9-.1.1 0 .3-.1.4.2 0 .2-.2.4-.3.5l-.7.4c-.5.2-.9.5-1.4.5h-.7c-.6.4-1.3.3-2 .4-.6 0-1.2.3-1.7.2-.4.2-.7.2-1 .1h-3.5l-3.6-.3-.6-.1-.7-.1c-.3 0-.5 0-.7-.2l-1.5-.5c-.7-.3-1.3-.9-1-1.5.3-.5 1.3-.9 1.7-1l1.3-.3c.6-.1 1.1-.3 1.7-.3.3 0 .5-.2.8 0l.4-.2h1.2l1.6-.1 1-.1h1l1.3.1 1.3.1 2.4.4c.8 0 1.6.2 2.4.4.4.1.8.4 1.3.7v.5c0 .2-.2.2-.3.2-.2-.2-.7-.1-1-.3l-2.1-.4-.2-.1ZM58 78.4l2.3-4.2s-2.2-.1-2.7 1.1a3 3 0 0 0 .5 3Z"/><path fill="#141414" d="M57.3 77.6 57 77v-.2c-.1 0 0-.1 0-.2v-1.1l.2-.5c0-.2.2-.3.3-.4.1-.2.3-.3.4-.3l.3-.2.2-.1.2-.2h.4l.6-.1h1.1l-.2.4v.3c-.3.2-.3.6-.4.7l-.2.5v.1c-.2.1-.2.3-.3.4 0 .1 0 .3-.2.3v.3l-.1.1v.2h-.1c0 .3-.3.4-.3.6l-.3.6-.4.2-.2-.2V78c.1-.1 0-.3.2-.4l.1-.1.3-.6.1-.4.1-.3c.3-.2.3-.5.5-.8l.4-.7c0-.1-.1 0-.2 0l-.6.1-.4.2s0 .1-.2 0v.2l-.2.2-.1.3v.5l-.2.3v.3l.1.6c0 .2.1.4.3.5v.4l-.1.3c-.2-.1-.4-.1-.5-.3l-.3-.6h-.1ZM61.3 74.9 59.1 79s2.2 0 2.7-1.2a3 3 0 0 0-.5-3Z"/><path fill="#141414" d="m62.1 75.7.2.5v.3c.1 0 0 0 0 .1v1.1l-.2.6c0 .2-.2.3-.3.4a1 1 0 0 1-.4.3l-.3.1-.2.2-.2.1h-.3l-.1.1-.6.1h-1.1l.2-.5V79c.3-.3.2-.6.3-.7l.3-.5v-.2c.2 0 .2-.2.2-.3l.3-.4s.1 0 0-.2l.1-.1v-.2h.1c0-.3.2-.5.3-.7 0-.2.2-.4.3-.5l.4-.2.2.1v.2l-.1.2-.1.4H61c0 .3-.2.4-.3.6l-.1.5-.1.3c-.3.2-.3.5-.5.8l-.4.6c-.1.2.1.1.2.1l.6-.1.4-.3h.2v-.1l.2-.2.1-.3v-.5l.2-.3v-.3l-.1-.6-.3-.6-.1-.3.2-.3c.2 0 .4 0 .5.2l.3.6h.1ZM29 42.4l-.4-.1s0-.1-.1 0l-.1-.2-.4-.1-.4-.1-.4-.2-.2-.1c-.2 0-.3 0-.3-.2l-.2-.1h-.2s0-.1-.2 0c0-.2 0-.2-.1-.1h-.1l-.3-.2-.2-.2-.2-.1c0-.2-.1-.2-.2-.2 0 0 0-.1-.2 0 0-.3-.2 0-.3-.1l-.4-.2h-.2c0-.2-.1-.1-.2-.2-.1 0-.2 0-.3-.2 0-.1 0-.1-.2 0H23l-.1-.1c-.2 0-.3-.2-.5-.3l-.4-.1c-.1-.1-.2-.2-.1-.5 0-.2 0-.3.2-.4H22.4c.1 0 .3-.2.3 0 0 0 .1 0 0 0 .3 0 .4.1.5.2.2 0 .4-.1.4 0h.3c.1.3.4.3.7.4l.7.4h.1c0 .1.1 0 .2 0l.1.1c.1.3.4.3.5.4l.6.3h.4s.1 0 0 .2h.4l.4.2h.4l.2.3.3.1c.1.2.3.3.5.3l.4.3.3.2-.2.5-.4.3-.5-.3v.1ZM30.7 53.6l-.5.2-.1.2-.2-.1-.4.1-.4.3c-.1 0-.3 0-.4.2h-.3l-.4.2h-.3l-.1.1-.1.2c-.2-.1-.2-.1-.2 0l-.1.1-.4.1h-.3l-.3.1H26c-.1 0-.2 0-.1.2-.3-.2-.3.1-.5.1l-.4.1s-.1 0 0 .2h-.1c-.2-.1-.3 0-.4 0-.1 0-.2.1-.4 0l-.1.2-.2.1v.1h-.2c-.1.2-.4 0-.5.2l-.6.1-.4-.2-.1-.4v-.2l.2-.1.3-.3h.1c.1-.2.4-.1.5-.2.1 0 .2-.3.4-.3l.2-.1.9-.2.8-.3s0-.1.1 0l.2-.1s.1-.1.2 0l.7-.2.6-.3.4-.2s.1-.1.2 0v-.1l.4-.1.3-.2.2-.1.3-.1h.3l.4-.1.6-.1.5-.3c.1 0 .3.1.4 0l.3.6-.2.5-.6.1ZM29.8 48.5h-.6s-.1-.1-.2 0c0 .1-.1 0-.2 0h-2.4l-.3-.2-.2.1-.2.1h-.1c0-.2-.1-.2-.2-.1H24.8l-.4-.1h-.3l-.3-.1s-.1-.2-.2 0c-.2-.2-.4.1-.5 0h-.7c0 .1-.1.1-.1 0-.2-.1-.3 0-.4 0-.2-.1-.4 0-.5-.2l-.3.1H20l-.7-.1c-.2 0-.3 0-.4-.4v-.4l.2-.2h.3c.1-.1.3-.3.4-.1 0 0 .1-.1.2 0 .2-.2.4 0 .6 0 .2 0 .4-.2.5 0 .1-.3.3-.2.4-.1.3.2.7 0 1 .1h1.3l.2.1h.2c.3.2.5.1.8.1l.8.1h.6s.1-.1.2 0c0 .1 0 0 .1 0h.9l.3-.1h.3l.3.1h.4c.3.2.5.2.8.2h.7l.4.2v.6l-.4.3h-.7.1ZM91 51.6l.4.2s0 .1.1 0l.1.2.4.1h.4c.1.1.2.3.4.2.1 0 .1.2.3.2l.3.1.1.2h.2s0 .1.2 0c0 .1 0 .2.1.1h.2l.3.1.1.3h.3l.1.3h.2c0 .2.3 0 .3 0l.4.3h.1c0-.1.1-.1.1 0l.2.1c.1.1.3.1.3.3 0 0 0 .1.2 0H97.1c.3 0 .3.3.5.3l.5.2v.5l-.1.3-.2.1h-.5s-.1 0 0-.1c-.3.1-.4 0-.5-.1H96c-.1-.4-.4-.4-.6-.5l-.8-.3h-.1c0-.2-.1-.1-.1-.1l-.2-.1c-.1-.3-.3-.3-.5-.4l-.6-.2h-.4c0-.1-.1 0 0-.2h-.4l-.4-.2h-.2l-.2-.1-.2-.2c-.1 0-.2 0-.3-.2-.1-.2-.3-.2-.4-.3l-.5-.2-.3-.2.2-.6c.2-.1.4-.3.5-.2l.4.2ZM89.3 40.4l.5-.1.1-.2h.2l.4-.1.4-.3.4-.1.3-.1.4-.1h.3l.1-.2.1-.1c.2.1.2 0 .2 0l.1-.1.4-.2h.8c.1 0 .2 0 .1-.2.3.2.3-.2.5-.1l.4-.2s.1 0 0-.1c0 0 .1-.1.1 0h.4c.1 0 .2-.2.4-.1l.1-.2h.2v-.2h.2c.1-.2.4 0 .5-.1l.6-.2c.1 0 .2 0 .4.3l.1.3v.2l-.2.2s-.2.3-.3.2c0 0 0 .1-.1 0-.1.3-.4.2-.5.3l-.4.2c0 .2-.1.2-.2.2-.4-.1-.6.1-.9.2-.3 0-.5.2-.8.3H94.3s-.1.2-.2.1l-.7.2a2 2 0 0 0-.6.2l-.4.3h-.2c0-.1 0 0 0 0l-.4.2-.3.1-.2.2h-.6l-.4.2c-.2-.1-.4 0-.6.1l-.5.2h-.4l-.3-.5.2-.5.6-.2ZM90.2 45.6h.8c0-.1.1 0 .2 0h1.6c.1-.1.2 0 .4 0h.4l.3.1h.2c.1 0 .2 0 .2-.2l.1.1c0 .1.1.1.2 0H95.2l.4.1.3.1.3.1s.1.1.2-.1c.2.3.4 0 .5 0h.6s.1.1.1 0h.1c.2.2.3 0 .4.1l.5.1h.3c0-.1.1 0 .1 0l.2-.1h.1c.3-.1.5.2.8.1h.7s.2.1.3.5v.4l-.2.1-.3.1c-.1 0-.3.2-.4.1l-.2-.1c-.2.2-.4 0-.6 0-.2 0-.4.2-.5.1-.1.2-.3.1-.4.1-.3-.2-.7-.1-1-.1l-1-.1h-.3c0-.1-.1 0-.2 0h-.2c-.3-.3-.5-.1-.8-.2h-1.4l-.2-.1h-1l-.3.2h-.3l-.3-.2H91c-.3-.2-.5-.1-.8-.1h-.7l-.4-.2v-.6l.4-.4h.7-.1Z"/><path fill="#141414" stroke="#141414" stroke-miterlimit="10" stroke-width=".7" d="M68.4 67.2s4.3-1 5.1 1.6l-1.2 1.7s-1-1.9-4-1.2v-2.1ZM74.2 80.4S71 86.8 67 85.6l.4-2.2s1.9.8 3.5-1.9l3.3-1Z"/></svg>