<svg xmlns="http://www.w3.org/2000/svg" width="120" height="120" fill="none"><path stroke="#B4E41D" stroke-linejoin="bevel" stroke-width="26.7" d="m43.8 108.6-30-63.2 71 52.1L36 20.1 106.2 68 81.7 11.4"/><path fill="#fff" d="M32.4 35.6s-8 6.4-9 12c-1 5.4 3.8 13.5 12.2 18.3 8.3 4.7 8.7 6.3 17.3 18.5 8.6 12.1 14.6 18.8 32.8 18.8 18.1 0 8.3-16 8.3-16S78.5 60.5 78 51.5c-.3-9.1-.4-16-5.8-15.5-5.5.5-11.2 1.9-12.7-1.8-1.4-3.7-4.2-17.4-11-14.6-6.9 2.8-16.2 16-16.2 16Z"/><path fill="#000" d="M97.8 95.1c-.1 2.8-1 5-3 6.6a11.1 11.1 0 0 1-5.3 2.5 28.4 28.4 0 0 1-16.7-1.9c-1.7-.6-3.4-1.2-5-2-1.5-.7-3-1.5-4.3-2.5-1-.6-2.1-1.2-3-2a27 27 0 0 1-3-2.8c-1-.9-1.9-1.8-2.6-2.8-1-1.4-2-2.8-2.8-4.2-.6-.9-1.2-1.7-1.7-2.7l-3.2-6c-1-1.8-2.2-3.5-3.7-5a21.2 21.2 0 0 0-5.6-3.6l-2.2-1.3-4-2.2a20.8 20.8 0 0 1-9.5-13.4v-4a12 12 0 0 1 1-3.7c1-2 2.6-3.6 4.2-5.1 1.2-1.3 2.6-2.4 3.8-3.5.4-.4.4-.7.2-1.1a32 32 0 0 1-1.6-3.5L28.1 26c-.2-.5-.2-1.1.3-1.6 1.4-1.6 2.6-3.3 4.1-4.8 1.4-1.3 2.7-2.6 4.2-3.8.2-.2.4-.7.7-.6.2.1.3.6.4 1 .2 1.3.6 2.4 1 3.6.4 1.4.7 2.8 1.2 4l.3 1.3c.1.4.3.5.7.2.9-1 1.7-2.1 2.7-3 1.5-1.7 3.2-3 5.3-3.8 1.4-.6 2.7-.3 4 .3 1.9 1 3.2 2.6 4.2 4.4.6 1 1 2.3 1.3 3.4.7 2 1.3 4 2.5 5.8.5.8 1 1.6 1.7 2.3 1.7 1.4 3.5 2.8 5.9 1.9l2.1-1c1.6-.9 3.2-.9 4.7 0 1.1.7 1.7 1.7 2.2 2.8l.6 2c.3 1 .2 2 .3 3 0 .5.1 1.1.4 1.6.2.5.3 1 0 1.5-.2.2-.1.4-.1.6 0 1.6 0 3.2.4 4.8l1 3.7 1.2 4.5c.6 1.6 1 3.3 1.8 4.8l1 2.5 1.3 3 1.5 3.3 1.6 3 1.9 3.5 2.1 3.5c1.3 2.1 2.7 4.1 3.7 6.3.8 1.7 1.3 3.4 1.5 5ZM50.1 20.4c-1.6 0-2.7 1-3.7 1.9-1.5 1.5-2.9 3-4.2 4.7-.4.4-1.2 1-.7 1.8l.4 1 1.7 4.5a55.2 55.2 0 0 0 4.2 9.2c1 2 2.2 4 3.6 5.7.4.4.8.5 1.3.1l1-.8c.9-1 1.7-2 2.9-2.8.6-.5 1.2-.4 1.7.1.7.8.8 1.8 1 2.7l.8 3 1.9 7 1.5 4.5.8 2.2c.3 1.1.8 2.1 1.2 3.2a55.9 55.9 0 0 0 5.9 9.7c.8 1 1.8 2 2.6 3.2.3.2.5.5.3.9-.3.3-.6.3-1 .2-1-.4-1.8-.9-2.6-1.5l-2.6-2a34.9 34.9 0 0 1-3.9-4L63 73.5c-.7-.7-1.2-1.5-1.7-2.3-.6-.9-1.3-1.7-1.8-2.8l-1.8-3a76.7 76.7 0 0 1-3.2-7.2c-.3-.7-.5-.8-1.1-.3l-3.5 2.7c-.5.3-1 .7-1.7.5-.9-.4-1.5-1.1-2.2-1.8l-2.2-2.6-2-2.5-2.3-3.6-1.6-2.5c-.8-1.2-1.4-2.4-2-3.6-.7-1.3-1.3-2.5-1.8-3.9-.4-1.1-1-2.2-1.7-3.4a3 3 0 0 1-.9.8c-.8.6-1.2 1.5-1.2 2.5 0 1.5.3 3.1.4 4.7 0 1.6.3 3.2 1 4.7 1.2 2.1 2.4 4 4.5 5.2l.8.6c.8.9 1.9 1.4 2.8 2 2.7 1.8 5.4 3.5 7.8 5.6 2.2 2 4 4.1 5.5 6.7a257 257 0 0 1 3.5 7l2.6 4.7c1.2 2 2.7 3.7 4 5.6A49.3 49.3 0 0 0 72 94c1.8 1.1 3.7 1.8 5.7 2.5 1.2.3 2.4.4 3.7.6 1.3.3 2.8.2 4.2.2 1.3-.1 2.6-.2 3.9-.5 2-.4 3.9-.8 5.6-1.8.7-.5 1-.8.8-1.6l-1-2.7c-.7-1.5-1.7-2.9-2.6-4.4L90.8 84c-.7-.8-1.1-1.7-1.7-2.5a39 39 0 0 1-2.3-4.3c-.8-1.5-1.7-3-2.3-4.6-.2-.6-.5-.7-1.1-.4a16.2 16.2 0 0 1-8.5 1.3c-1.2-.2-2.4-.2-3.5-.7-.6-.3-.8-.7-.5-1 .3-.5.6-.9 1.3-.9l2-.1c.4 0 .5-.3.2-.5l-.8-1-1.6-2.5c-.1-.4-.3-.5-.7-.5l-3-.3c-.5-.1-1-.3-1-.9-.1-.6.3-.9.8-1a6 6 0 0 1 2-.4c.5 0 .5-.1.4-.5-.4-1.2-.8-2.5-1-3.9 0-.4-.3-.7-.8-.7-1 .1-1.9 0-2.8-.2-.4 0-.7-.4-.7-.6 0-.4 0-.8.5-1 .7-.3 1.5-.7 2.4-.7.7 0 .8-.2.8-.9l-.5-4.2c-.1-.6-.3-.6-.8-.7-1.1-.1-2.2-.2-3.2-.8-.5-.3-.7-.7-.4-1.2.4-.6.9-1 1.6-.9l1.5.1c.5 0 .7 0 .6-.5-.3-1.2-.6-2.4-1.1-3.5a6.8 6.8 0 0 0-3.5-3.4c-1.7-.7-3.5-.9-5.3-1.1-2.2-.4-4.4-.9-6.3-2a9.7 9.7 0 0 1-3.1-3 11 11 0 0 1-1.6-4.5c-.4-2.6.2-5 1.7-7.1.4-.8 1-1.4 1.6-2ZM96 98.2c0-1-.2-1.1-1.2-.7l-.1.1c-2.1 1-4.4 1.3-6.6 1.6-.8 0-1.5.2-2.3.1h-2.3c-.8 0-1.6 0-2.4-.3l-2-.4-2.2-.4-2.1-.8a34.2 34.2 0 0 1-13.3-9.3c-.7-.8-1.5-1.5-2-2.4-1-1.8-2.2-3.5-3-5.3l-1-1.7c-.3-1-.8-1.8-1.2-2.7-.5-1.2-1.3-2.2-1.7-3.4a21.7 21.7 0 0 0-8.6-9.4c-1.8-1-3.7-2.1-5.4-3.4-.8-.6-1.7-1-2.5-1.7l-2.9-2.5c-1.1-1.3-2-2.7-2.8-4.1-.7-1.2-1.1-2.6-1.4-4-.3-1.7-.4-3.4-.5-5.1 0-.3.2-.6 0-1 0 0 .1-.3 0-.4-.3 0-.4.2-.5.3a14.4 14.4 0 0 0-3.7 8.5c-.2 2.8.6 5.3 2.2 7.5.7 1 1.5 1.8 2.3 2.6.5.4.8.9 1.4 1.2a55.6 55.6 0 0 0 8.1 3.5c.7.2 1.4.9 2.1 1.2 1 .4 1.9 1 2.6 1.9.2.2.5.1.7.5.9 1.4 2 2.6 2.6 4.3L47 74a63 63 0 0 1 2.1 3.5l2.8 5.2c1 1.8 2.2 3.4 3.4 5a32.6 32.6 0 0 0 10.3 9.5 36.7 36.7 0 0 0 10.8 4.7 37.7 37.7 0 0 0 7.8 1.3l3.4-.1c1.5-.1 2.9-.6 4.2-1.3.7-.4 1.6-.5 2.2-1.1l1-.8c.5-.4 1-1 1-1.7ZM77 43.5c0-2-.6-4-1.7-5.7-.9-1.4-2.1-1.7-3.6-1-.6.3-1 .8-1.5 1.1-1.1.8-2.4 1.2-3.6 1.6-.8.3-1 .6-.4 1.1a11.8 11.8 0 0 1 3.4 6.7c0 .2.1.4.4.3 2-.3 3.9-.9 5.8-1.3.5-.1.7-.4.9-.8.3-.7.2-1.4.3-2Zm-5 7c-1.7 0-1.8 0-1.6.9l.7 4c0 .2.1.3.4.2 1.7-.3 3.3-.8 4.9-1.4 1-.3 1-.4.8-1.4l-.5-2.9c0-.4-.2-.5-.6-.3-1.5.4-3 .9-4.2 1v-.1Zm7.6 10.5-.1-.2c-.4-1.1-1-2.3-1.1-3.5-.1-.4-.3-.2-.6-.1a19.9 19.9 0 0 1-5.5 1.4c-.3.1-.4.2-.3.5.2 1.3.8 2.6 1.2 3.9 0 .2.2.5.6.4l1.7-.6c1-.3 2-.9 3.1-1.2.4 0 .7-.4 1-.6Zm1.3 3.7-.3.2c-1.8.6-3.5 1-5.3 1.3-.3 0-.5 0-.3.4.4.7.7 1.5 1.3 2.2.4.4.9.7 1 1.4 0 .3.4.5.8.4 1.4-.3 2.7-.8 4-1.3.6-.2.8-.5.4-1-.7-1.1-1-2.3-1.6-3.5Z"/><path fill="#141414" d="M77.4 65.8H77.8l.1-.1h.1v-.1h.5v-.1h.1v-.1h.5l.1-.1H79.4v-.1h.8V65h.4l.2-.1-.2-.5H80.3v.1h-.6v.1h-.4l-.1.1h-.5v.1h-.4l-.1.1h-.6v.1H77.3l.1.6v.1Z"/><path fill="#141414" d="m75.5 66.8-.1-.1v-.2h-.1v-.1h-.1v-.2h.2c.1 0 0 0 0 0H75.8l.1-.2h.9v-.1h.8l-.2-.7H77v.1h-.2l-.1.1c-.1 0 0 0 0 0H76.4l-.1.1h-.7l-.1.1h-.7l-.1.2h-.1v.7h.1v.2h.1v.2l.5-.2.1.1ZM77.5 69.7h-.1v-.2h-.1v-.2H77v-.1L77 69l-.1-.1v-.1h-.2v-.1h-.1v-.1c-.1-.1 0 0-.1 0l-.1-.1v-.1h-.1v-.2h-.1l-.1-.1H76v-.5l-.2-.1v-.1l-.1-.1V67l-.6.3.1.1h.1v.2h.2v.4h.1v.1l.1.1v.1h.1v.1h.1v.2l.2.1v.1l.1.1.1.1.1.1.1.1h.2V69.5l.1.1v.1h.1V70l.6-.2Z"/><path fill="#141414" d="M80 69.6v.1h-.4v.1h-.4l-.1.2h-.4v.1h-.2v.1h-.7V70h-.2v-.4l-.6.1v.2l.1.1.1.2h.1v.1l.2.1h.2v.1h1.1l.1-.1h.4v-.1h.2v-.1h.5v-.1h.1V70H80.5l-.2-.5H80Z"/><path fill="#141414" d="M82.3 68.3v.2h.1l.1.1v.1h-.1v.2h-.6l-.1.1h-.1l-.1.1h-.1v.1h-.5l-.1.1h-.1l-.1.1H80l.2.6h.2v-.1h.2l.1-.1c.1 0 0 0 0 0H81.2l.1-.1h.1l.1-.1H81.7l.2-.1h.2v-.1h.2v-.1h.2v-.1h.2V69l.1-.2h.1V68l-.1-.2-.5.4Z"/><path fill="#141414" d="M80.8 65v.1h.1V65.5h.1v.2l.1.1v.2l.2.1V66.4l.1.1v.2h.1v.2l.1.1.1.1v.5h.2v.4h.1v.2h.1l.5-.2-.1-.1-.1-.1v-.2h-.1c0-.1 0 0 0 0v-.1h-.1V67H82V66.7l-.1-.1v-.2h-.1v-.2l-.1-.1V66h-.1V65.7h-.1v-.1l-.1-.1v-.4l-.1-.1V64.8l-.6.2Z"/><path fill="#141414" d="M81.3 64.8v-.2l-.1-.1H81l.1.5.6-.2h-.5ZM78 57.3v.1l.1.1V57.9l.2.1s-.1 0 0 .1v.4h.1v.4l.1.1v.1l.1.1V59.4h.1v.1l.1.1v.4h.1v.5h.1v.2l.6-.2v-.1l-.1-.1V60h-.1v-.4h-.1v-.1h-.1v-.4H79v-.4H79v-.1l-.1-.2V58.2h-.2v-.7h-.1V57.2l-.6.1Z"/><path fill="#141414" d="m75.2 58.2.1-.1H75.6l.1-.1h.5v-.2h.4l.1-.1h.1l.1-.1H77.2l.1-.1h.5v-.1h.8l-.1-.2V57H78l-.1-.1h-.2c-.1.1 0 0-.1 0l-.1.1h-.2v.1H77l-.1.1H76.6l-.1.1h-.2v.1H76l-.1.1-.1.1h-.4v.1h-.2v.1H75l.1.6v-.2Z"/><path fill="#141414" d="M72.3 59v-.2H72.7l.1-.2H73c.1 0 0 0 0 0H73.4l.1-.1H73.7v-.1H74.6l.2-.1h.4l-.1-.6h-.2l-.1.1h-.4l-.1.1h-.6l-.1.1H73l-.1.1h-.4l-.1.1h-.6l-.1.2-.1.1v.6l.6-.1ZM73.3 62.4V62l-.1-.1v-.1H73v-.4l-.2-.1V61h-.1v-.2h-.1v-.4h-.1v-.5l-.1-.1V59l-.6.1v.5c.1.1 0 0 0 .1l.1.2v.1h.1v.5h.1V61h.1v.2l.1.1V61.5h.1v.1l.1.1v.4l.1.1v.1h.1V62.7l.6-.1v-.1Z"/><path fill="#141414" d="M76 62.2h-.1v.1h-.4v.2H75v.1h-.1l-.1.1h-.5v.1H74c-.1.1 0 0-.1 0v.1h-.5v-.4l-.1-.2-.5.2v.2l.1.1v.2l.1.1.1.1.1.1.1.1h.8v-.1h.2l.1-.1h.2V63h.5v-.2h.7v-.1h.2v-.1l-.1-.6h-.1v.1ZM79.2 60.8v.1H79v.1h-.2v.1h-.1v.1h-.4v.2H78l-.1.1H77.6l-.1.1h-.1v.1h-.6v.2h-.4l-.1.1h-.2l.2.5h.2v-.1h.2l.1-.1c.1 0 0 0 0 0H77.2l.1-.1.1-.1h.4V62h.2v-.1h.2l.1-.1H78.5v-.1h.2v-.1h.5v-.1l.2-.1v-.1h.2v-.1h.1l-.4-.5-.1.1Z"/><path fill="#141414" d="M79.6 61.2v-.4l-.5.1v.1l.2.1.2.2.1-.1ZM70.9 52.5v-.4h-.1v-.6l-.2-.1V51c0-.1 0 0 0 0V51l-.1-.1v-.2h.1l.1-.1H72V50H71.7v.1H70.5l-.2.1-.2.1v.2H70V50.9s-.1 0 0 .1v.6l.1.1v.6l.1.1v.2c0 .1 0 0 0 0v.1h.6v-.1Z"/><path fill="#141414" d="m71.9 55.1-.1.1H71.4v.1-.1l-.2-.1v-.4l-.1-.2V54.2H71v-.7l-.1-.2v-.6h-.6V53l.1.1v.2c0 .1 0 0 0 0V53.7l.1.1V54.6l.1.1v.4l.1.1V55.5l.1.1v.1l.2.1.1.1h.4v-.1H72l-.1-.6ZM75.4 54.1l-.1.1H75v.1h-.4l-.1.1h-.1l-.1.2h-.6l-.1.1h-.1l-.1.1h-.7l-.1.1h-.1l-.1.1h-.5l.2.6h.2l.1-.1H72.7l.1-.1h.2l.1-.1h.5v-.1H74V55H74.3V55h.4v-.1h.1v-.1h.5v-.1h.4l-.2-.6Z"/><path fill="#141414" d="M76.8 52v.4h.1v.6l.2.1v.4H77v.1h-.1l-.1.1-.1.1H76v.1h-.5l-.1.1.2.5h.2l.1-.1h.2c.1 0 0 0 0 0H76.5l.2-.1v-.1h.4V54h.2V54l.2-.1V53.6l.1-.1v-.6h-.1v-.7l-.1-.1v-.2h-.5v.1Z"/><path fill="#141414" d="m75.6 49.9.1-.1H76v-.1h.5v.2c0 .1 0 0 0 0V50.3l.1.1V50.6l.1.1V52h.6v-1h-.1v-.7l-.1-.1V49.6l-.1-.1-.1-.1h-.1c0-.1-.1 0-.2 0h-.8v.1h-.2l.1.5h.1l-.2-.1ZM72 50.6h.5v-.1h.5v-.1h.1l.1-.1h.5v-.1H74l.1-.1h.6V50h.7l-.1-.6H75v.1h-.4v.1H74.2l-.1.1H73.6l-.1.1h-.2l-.1.1h-.5v.1H71.8v.6h.2ZM76.1 40v.1h.1v.4h.1v.5h.2v.7h.1v.2h.1V43.5h.6v-.2l-.1-.2v-.1c0-.1 0 0 0 0V41.4l-.1-.1v-.5h-.2v-.6l-.1-.1V39.8l-.6.2h-.1ZM74.5 37.1h.1v.2h.2v.2h.1v.1l.2.1v.1h.1v.2h.1v.2h.1v.2l.1.1v.1l.1.1.1.1v.5h.2v.6l.1.1.6-.2-.1-.1v-.1l-.1-.1v-.1c-.1-.2 0 0 0-.1v-.1l-.1-.1V39l-.1-.1v-.1l-.1-.1v-.2H76v-.2l-.1-.1V38h-.1V38l-.1-.1v-.1l-.1-.1h-.1v-.1h-.1v-.1l-.1-.1v-.2l-.1-.1-.1-.1-.1-.1v-.1h-.1v-.1l-.4.4ZM71.6 37.1V37h.2v-.1h.2v-.1h.2v-.1h.2v-.2H73.8v.1h.2v.1h.4v.1l.1.1v.1h.1l.4-.4h-.1l-.1-.1h-.1l-.1-.1h-.1l-.1-.1h-.1l-.1-.1h-.2V36H72.4l-.1.1h-.1v.1H71.8l-.1.1h-.1l-.1.1h-.2l.3.5-.1.1ZM68.6 39v-.1H69v-.1h.1v-.1H69.4v-.2h.2v-.1h.1l.1-.1h.2v-.1h.2V38h.2V38l.1-.1h.2l.1-.1.1-.1h.1v-.1l.1-.1h.2v-.1h.2l-.3-.5H71v.1h-.1v.1h-.1l-.1.1c-.1.1 0 0 0 0l-.1.1v.1h-.2v.1h-.1l-.1.1H70l-.1.1v.1H69.6l-.1.1-.1.1h-.2v.1h-.1v.1l-.1.1h-.4v.1h-.2v.1H68.2l.2.6.2-.1ZM66.3 40.3v-.1h-.1V40H66v-.2h.1v-.2h.4v-.1h.4v-.1h.1l.1-.1h.5l.1-.1h.1l.1-.1h.4l-.2-.6H68v.1h-.2v.1h-.5v.1h-.1l-.1.1h-.4v.1h-.2v.1h-.2l-.2.1H66v.1h-.1v.1l-.2.1-.1.1v.7h.1v.2l.1.1.5-.4ZM68.5 43.1h-.1l-.1-.1v-.2h-.1v-.1H68V42.4H68v-.2h-.2l-.1-.1v-.2h-.2v-.2h-.1v-.2h-.1c0-.1 0 0 0 0h-.1v-.1l-.1-.1V41L67 41v-.1h-.2v-.1h-.1v-.2h-.1v-.2h-.1l-.5.3h.1v.1h.2v.2h.2c0 .1 0 0 0 0v.1l.1.1v.1h.2v.2h.1v.2h.2V42l.1.1.1.1.1.1v.1l.1.1h.1v.2h.2v.4l.1.1v.2l.1.1.5-.3v-.1ZM69.7 46.5V46h-.1v-.4l-.1-.1v-.1l-.1-.1-.1-.1v-.5h-.1v-.2l-.1-.1-.1-.1v-.5h-.1v-.2h-.1v-.4l-.1-.1-.5.3v.1h.1l.1.1v.1l.1.1V44.2h.2v.4l.1.1v.2h.1v.2l.1.1V45.5h.1v.1l.1.1v.5l.1.1V46.7l.6-.1h-.2Z"/><path fill="#141414" d="M72 46.8H71.7v.1h-.4l-.1.1H71v.1l-.1.1H70.3v.1H70l-.1.1h-.1v-.1l-.1-.1V46.5l-.6.1v.7l.1.1v.1l.1.2h.1l.1.1H70.6v-.1h.5l.1-.1.2-.1H72v-.1H72.3l-.1-.6H72Z"/><path fill="#141414" d="M75.5 46H75v.1h-.4l-.1.1h-.1l-.1.1-.1.1H73.7v.1h-.2l-.1.1h-.7l-.1.1H72l.2.6h.2l.1-.1h.5l.1-.2h.9v-.1h.5l.1-.1.2-.1h.5l.1-.1H75.8l-.1-.6h-.1Z"/><path fill="#141414" d="M76.6 43.4V44h.1v.5h.1v.5l-.1.1v.1h-.1V45.6h-.1v.1h-.2v.1h-.1v.2h-.7l.2.6h.2l.1-.1h.2c.1-.1 0 0 0-.1h.2v-.1h.1l.1-.1V46h.1v-.1l.1-.1v-.1l.1-.1v-.1l.1-.1v-.2h.1V43.3h-.5ZM93.6 98.3h.4v-.1l.1-.1h.5v-.2h.2c.1-.1 0 0 .1 0v-.1H95.3v-.1h.1v-.1H95.7v.7h.6V98L96 98v-.2c0-.1 0 0 0 0v-.5h-.2v-.1H95v.1h-.2l-.1.1h-.2l-.1.1-.1.1h-.4v.1h-.2v.1H93.4l.2.6ZM90.3 99.2V99h.4V99h.5l.1-.2H91.6c.1 0 0 0 0 0h.4v-.1h.2v-.1h.7v-.1h.1l.1-.1h.5l-.2-.6h-.2v.1H93l-.1.1c-.1 0 0 0 0 0H92.6l-.1.1H92v.1h-.5l-.1.1H91l-.1.2H90l.1.6Z"/><path fill="#141414" d="M86.9 99.5h.5v-.2.1h.5v-.1H88.2c.1 0 0 0 0 0H88.6l.1-.1H89.5l.1-.1H90.3l-.1-.6h-.4l-.1.1c-.1 0 0 0 0 0h-.5v.1h-1.3l-.1.1H87l-.1.1H86.7v.6h.2Z"/><path fill="#141414" d="M83.4 99.5h.5v-.1H87v-.6h-.6l-.1.1H83.6l-.1-.1h-.1v.7Z"/><path fill="#141414" d="M80 99.1h.8l.1.1h.4v.1H81.7l.2.1H82.6l.1.1H83.5V99H83c-.1 0 0 0 0 0H81.3l-.1-.1h-.4l-.1-.1h-.1l-.1-.1H80.3l-.1-.1H80l-.1.6Z"/><path fill="#141414" d="M76.7 98.4h.5v.1h.8l.1.1H78.4v.1h.6v.1h.2v.1h.1v.1h.5v.1H80.1l.1-.5h-.5c-.1 0 0 0 0 0h-.2v-.1H79.2l-.1-.1H78.7l-.1-.1H78l-.1-.1h-.4l-.1-.1h-.2V98h-.4l-.2.5v-.1ZM73.5 97.2h.1l.2.1h.1v.1H74.3l.1.1h.4v.1H75v.1H75.4v.1H75.7v.2h.2v.2l.2-.1h.2v.1h.1l.1.1h.1l.2-.5h-.4l-.1-.1H76l-.1-.1h-.1l-.1-.1h-.1l-.1-.1h-.2v-.1H75l-.1-.1H74.7V97h-.4V97h-.1l-.1-.1H73.8v-.1h-.1l-.1-.1-.2.6Z"/><path fill="#141414" d="M70.4 95.7h.2v.1h.2v.1h.1l.2.1.1.1H71.6v.1l.2.1h.1l.1.1h.1v.1h.4v.2h.1v.1H72.9v.1h.2l.1.1h.2v.1l.3-.5H73.3l-.1-.1H73c-.1 0 0 0 0 0l-.1-.1h-.1l-.1-.1h-.1l-.1-.1h-.1l-.1-.1h-.1l-.1-.1H72l-.1-.1h-.2v-.1h-.2v-.1H71.3l-.1-.1-.1-.1v-.1H71l-.1-.1h-.2v-.1h-.1l-.3.4v.1Z"/><path fill="#141414" d="M67.5 93.8h.1l.1.1.1.1H68.1v.1l.1.1.1.1h.2v.1h.1v.1h.2l.1.2h.2v.1h.1c.1 0 0 0 0 0h.2V95.2h.2v.2H70v.1h.1l.1.1.2.2.3-.5h-.1l-.1-.1h-.2V95H70c-.1-.1 0 0 0 0l-.1-.1h-.1l-.1-.1h-.1l-.1-.1-.1-.1h-.2v-.1l-.1-.1H69v-.1h-.2l-.1-.1h-.1l-.1-.1h-.1V94h-.1v-.1l-.1-.1H68v-.1h-.2v-.1h-.1v-.1l-.4.5.1-.2ZM64.8 91.8h.1v.1h.1v.1H65.4v.1l.1.1v.1H65.8v.1h.1v.1c.1 0 0 0 0 0h.2v.2h.2v.1H66.6V93.2H66.9v.2H67.2v.1l.1.1v.1h.2l.3-.4h-.1l-.1-.1h-.1V93h-.1c-.1-.1 0 0-.1 0v-.1H67v-.1h-.2v-.1h-.1l-.1-.1h-.2l-.1-.2h-.1v-.1H66l-.1-.1-.1-.1h-.2V92h-.1v-.1l-.1-.1v-.1h-.2v-.1H65v-.1l-.1-.1-.4.4h.2Z"/><path fill="#141414" d="M62.3 89.5h.1v.1l.1.1h.1v.1h.1v.1l.1.1.1.1h.2v.1h.1v.1c.1.1 0 0 .1 0v.1h.2v.1l.1.1v.1h.1c.1 0 0 0 0 0h.1v.1h.1V91.2h.2v.1l.2.1v.2h.1v.1l.2.1.3-.4v-.1h-.1V91h-.2V91l-.1-.1h-.1v-.1l-.1-.1h-.1l-.1-.1v-.1H64v-.1h-.1l-.1-.1v-.1h-.1v-.1h-.1l-.1-.1-.1-.1-.1-.1H63v-.1H63v-.2l-.1-.1-.1-.1h-.1V89l-.5.4ZM60 86.9h.1v.1l.1.1h.1v.2h.2v.1l.1.1v.1h.2v.1h.1v.1c.2.1 0 0 .1 0l.1.1v.1h.2v.2c.1.1 0 0 .1 0l.1.1v.2l.1.1.1.1v.1h.1l.1.1v.2h.1v.1l.2.1.4-.4h-.1v-.1h-.2v-.1l-.1-.1c0-.1 0 0 0 0l-.1-.1v-.2H62v-.1h-.1V88h-.1V88l-.2-.1v-.1l-.1-.1v-.1h-.1v-.1h-.1l-.1-.1-.1-.2h-.2l-.1-.1v-.2h-.1v-.1h-.1v-.1h-.1v-.2l-.5.4ZM58.1 84l.2.1V84.5h.2v.4H58.9v.4l.1.1v.2h.1v.1l.1.1h.1v.4h.1v.2h.1l.1.1v.2h.1v.2h.1l.5-.3-.1-.1H60v-.2h-.1c-.1-.2 0 0 0-.1h-.1v-.2l-.1-.1h-.1v-.2h-.1v-.1l-.1-.1v-.2h-.1V85l-.1-.1-.1-.1v-.1l-.1-.1-.1-.1-.1-.1V84h-.1V84l-.1-.1v-.2l-.6.2h.1Z"/><path fill="#141414" d="m56.4 81 .2.1V81.4h.2V81.8l.1.2h.2v.2c0 .1 0 0 0 0l.1.1v.2h.1v.2h.1v.1h.1v.4h.1v.2h.1v.1l.1.1V83.9l.1.1.5-.2v-.1l-.1-.1-.1-.1v-.1H58v-.1L58 83v-.2l-.1-.1v-.1h-.1v-.2h-.1v-.2l-.1-.1-.1-.1V82l-.1-.1v-.2h-.1l-.1-.1v-.1H57V81.1L57 81V81h-.1V80.7l-.6.3h.1ZM54.9 78l.1.1v.2h.1v.2l.1.1V79h.2V79.2c0 .1 0 0 0 0l.1.1v.2h.1v.2h.1c0 .1 0 0 0 0v.1h.1v.4h.1v.1h.1v.2h.1v.4l.1.1.5-.3v-.1h-.1l-.1-.1v-.1h-.1v-.2h-.1V79.8h-.1v-.2H56v-.2H56v-.2h-.1v-.1h-.1V79h-.1V78.7h-.2v-.5h-.1V78h-.1V77.7l-.6.3h.2Z"/><path fill="#141414" d="M53.4 75h.1v.4h.2v.4h.2V76.1c.1.1 0 0 0 0l.1.1v.2h.2V76.8h.1v.4h.1v.2h.1v.1l.1.1V77.9l.1.1.5-.2v-.1l-.1-.1-.1-.1v-.1h-.1v-.1l-.1-.1v-.2l-.1-.1v-.1l-.1-.1v-.1h-.1v-.2l-.1-.1V76h-.1v-.1h-.1v-.2l-.1-.1v-.1l-.1-.1V75h-.1V75l-.1-.1V74.6l-.6.3h.2Z"/><path fill="#141414" d="m51.9 71.9.1.1V72.4h.2v.5h.2V73.1c0 .1 0 0 0 0v.1h.1v.2h.1v.2l.1.1h.1V74.4h.2v.4h.1v.2l.6-.3-.1-.1h-.1v-.2h-.1V74h-.1v-.2h-.1v-.1l-.1-.1v-.2H53v-.2l-.1-.1V73h-.1v-.1h-.1V72.5h-.1v-.1l-.1-.1V72h-.1v-.2h-.1V71.5l-.5.3Z"/><path fill="#141414" d="M50.1 69v.1h.2v.2h.1v.1h.2V69.7l.1.2h.2v.2c.1 0 0 0 0 0l.1.1v.2h.2v.2h.1v.4l.1.1v.1h.1v.1l.1.2V71.8h.1l.5-.2v-.1H52v-.1H52v-.2c-.1-.1 0 0-.1 0V70.9h-.1v-.1h-.1v-.2h-.1v-.1l-.1-.1v-.2h-.1V70l-.1-.1h-.1v-.1l-.1-.1v-.1h-.2v-.4h-.1l-.1-.1V69l-.1-.1v-.1l-.1-.1-.4.3ZM47.9 66.5v.1h.1v.1l.1.1h.2v.2h.1l.1.2H48.9v.2h.1l.2.1v.2l.1.1h.2V68.1h.1v.1h.1v.1h.1v.1h.1V68.8h.1v.2l.5-.4-.1-.1h-.1v-.2H50c-.1-.1 0 0 0 0L50 68h-.1v-.2h-.1l-.1-.1-.1-.1v-.1h-.1v-.2h-.1l-.1-.1V67H49V67l-.1-.2h-.2l-.1-.1v-.2h-.1l-.1-.1-.1-.1-.1-.1V66l-.5.4Z"/><path fill="#141414" d="M45.3 64.4h.2v.1h.1l.1.1h.1l.1.1h.1v.2H46.4v.1l.1.1h.1l.1.1v.1h.1l.1.1h.2v.1l.1.1v.2h.1v.1h.2v.1l.1.1v.1l.1.1.1.1.4-.4-.1-.1h-.2v-.2h-.1v-.1h-.1v-.1h-.2v-.1l-.1-.1h-.1v-.1H47L47 65V65h-.1l-.1-.2h-.2l-.1-.1-.1-.1h-.2v-.1H46v-.2H46v-.1h-.1l-.1-.1h-.2V64l-.4.4h.1ZM42.5 62.6h.2v.1h.2l.1.1.1.1h.1v.1h.4v.2h.2v.1h.1l.1.1h.2v.1h.1v.2H44.7v.2H45v.1l.1.1v.1h.2l.3-.4h-.1v-.1h-.2l-.1-.1-.1-.1h-.1l-.1-.1h-.1v-.1h-.2v-.1h-.1V63h-.2L44 63H44v-.1H43.7v-.1h-.1v-.1H43.3v-.1h-.1v-.1l-.1-.1H43v-.1h-.2v-.1h-.1V62l-.4.5h.2Z"/><path fill="#141414" d="M39.5 60.7h.2v.1h.1v.1H40.2v.1h.1v.1h.1v.1H40.7l.1.1c.1.1 0 0 0 .1h.2v.1h.2v.1h.1c.1.1 0 0 .1 0h.2V62h.1v.1h.2v.1h.2v.1l.1.1h.1l.1.2.3-.5-.1-.1h-.2v-.1h-.1c-.2-.1 0 0-.1 0v-.1H42v-.1h-.2v-.1h-.1l-.1-.1H41.3v-.1l-.1-.1H41V61h-.2V61h-.2l-.2-.1-.1-.1v-.1h-.1v-.1H40v-.1h-.1l-.1-.1-.1-.1-.3.5h.1Z"/><path fill="#141414" d="M36.7 59h.2l.1.1h.2v.1h.1v.1h.2v.1H37.9v.1H38.2v.2h.1l.1.1h.2v.1h.1v.1l.1.1h.1v.1h.2l.1.1.1.1.2.1v.1l.4-.5H39.5l-.1-.1c-.2-.1 0 0-.1 0v-.1h-.1l-.1-.1H39v-.1h-.1l-.1-.1H38.5v-.2h-.1l-.1-.1H38l-.1-.1-.1-.1H37.6V59h-.1v-.1l-.1-.1h-.1l-.1-.1H37l-.1-.1v-.1l-.4.5h.1Z"/><path fill="#141414" d="M34 56.8h.2v.1h.2v.1h.2v.1h.1v.2H35v.1l.1.1h.1l.1.1v.1h.1l.1.1H35.9v.4h.2v.1h.1v.1h.1l.1.1v.1h.2v.1l.1.1.4-.4h-.1l-.1-.1h-.2v-.1h-.1V58h-.1V58h-.1v-.1h-.1l-.1-.1-.1-.1-.1-.1h-.1v-.1l-.1-.1-.1-.1h-.2v-.1h-.1V57H35V57H35v-.1l-.1-.1v-.1h-.2v-.2h-.2v-.1h-.1l-.4.4ZM31.7 54.2h.2v.2l.1.1h.2V54.9h.1v.2h.2v.1h.1v.1c.1.1 0 0 0 .1h.2v.2h.1v.1h.2v.1h.1V56l.1.1v.1h.2v.1h.2v.2l.1.1v.1l.5-.4h-.1v-.1H34V56h-.1c-.1-.1 0 0 0 0l-.1-.1h-.1v-.2h-.2v-.1h-.1v-.1l-.2-.1v-.1l-.1-.1-.1-.1h-.1V55h-.1v-.2h-.1l-.1-.1-.1-.1v-.2h-.1v-.1l-.1-.1V54h-.1l-.5.3v-.1ZM29.9 51.3l.1.1v.2h.2v.2l.1.1v.1l.1.1h.2V52.4c0 .1 0 0 0 0l.1.1v.2h.1v.2h.1c0 .1 0 0 0 0v.1h.1v.4h.1v.1h.2v.4h.1v.2l.6-.3h-.1v-.1h-.2v-.2c-.1-.1 0 0-.1 0v-.2l-.1-.1V53h-.1V53l-.1-.1v-.1l-.1-.1v-.2H31v-.1H31v-.2h-.1V52l-.1-.1-.1-.1-.1-.1-.1-.1V51.4h-.1v-.2h-.1V51l-.6.2h.2Z"/><path fill="#141414" d="M28.8 48V48.3l.1.1.1.1v.5h.2v.6h.2V50l.1.1v.5l.1.1v.1l.1.1v.4l.6-.2v-.2H30v-.2c-.1-.1 0 0 0 0v-.1l-.1-.1v-.2l-.1-.1V49.8h-.1v-.2l-.1-.1v-.2h-.1v-.5h-.2V47.9h-.6v.1Z"/><path fill="#141414" d="M28.4 44.5v.4h.1v.1l.1.1v.5l.1.1v.8l.1.1V48l.6-.2v-.4s-.1 0 0-.1c0-.1 0 0 0 0v-.1l-.1-.1V45.5l-.1-.1v-.1H29v-1h-.6v.3Z"/><path fill="#141414" d="M28.3 41.5v.1l.1.1v.8c0 .1 0 0 0 0v.6h.1V44.7h.6V44c0-.1 0 0 0 0V43.7l-.1-.1V42.1s-.1 0 0-.1v-.6s0-.1 0 0V41c-.1-.2 0 0 0-.1l-.1-.1-.4.6h-.2ZM26.6 43.7V43.4h.1v-.2h.2V43l.2-.1V42.5h.2V42.2h.2V42h.1v-.1l.1-.1h.2v-.1h.1v-.2h.1l.4-.6h-.7v.2c-.2.1 0 0-.1 0l-.1.1-.1.1v.2h-.2v.1h-.1v.2l-.1.1H27v.1h-.1v.2l-.1.1-.1.1v.2l-.1.1-.1.1-.1.1h-.1v.1l-.1.1v.1l-.1.1v.2l.5.3v-.1Z"/><path fill="#141414" d="M25.2 46.7v-.4l.1-.1V46l.1-.1v-.1h.1s-.1-.2 0-.2v-.2l.1-.1V45h.1V45l.1-.1V44.6h.2v-.1h.1V44.1h.1V44h.1c.1-.1 0 0 0-.1l.2-.1v-.1l-.5-.3V43.8l-.2.1v.2l-.1.1v.2h-.1v.1h-.1v.1l-.1.1v.2h-.1v.1h-.1v.4H25v.4l-.1.1-.1.1-.1.1V46.3l-.1.1v.1l.5.2Z"/><path fill="#141414" d="M24.6 50V48.5c0-.1 0 0 0 0v-.2h.1v-.7l.1-.1v-.2h.2l-.1-.2V47l.1-.1v-.1l.1-.1v-.1l-.5-.2v.5c-.1.2 0 0 0 .1h-.1V47.4l-.1.1V48.8h-.1v.5l-.1.1v.2l-.1.1V50l.5.1Z"/><path fill="#141414" d="m24.9 53.2-.1-.1V52.7l-.1-.1v-.4h-.1v-.7h-.1V50h.1v-.2H24v.8l.1.1V52.4l.2.2V53.4l.6-.1v-.1Z"/><path fill="#141414" d="m26.1 56.3-.1-.1V56h-.1v-.1h-.1v-.2l-.1-.1v-.1h-.2V55l-.1-.1v-.1l-.1-.1v-.2l-.1-.1V54l-.1-.1v-.1l-.1-.1v-.5l-.5.2v.2h.1V54.3h.2v.5h.1V55h.1v.2h.1v.2l.1.1.1.1h.1v.4l.1.1v.1h.1V56.6h.1l.5-.2Z"/><path fill="#141414" d="m28.2 58.9-.1-.1-.1-.1v-.1h-.2v-.2h-.1v-.1h-.1v-.1h-.2V58h-.1v-.1c-.1 0 0 0 0 0h-.1l-.1-.1v-.1H27v-.2h-.1c0-.1 0 0 0 0h-.1v-.1l-.1-.1V57l-.1-.1v-.1h-.1v-.1l-.1-.1v-.2l-.1-.1v-.1l-.5.3v.1l.2.1v.2c.1.1 0 0 .1 0v.2l.1.1v.1h.1v.1h.1v.2h.2v.2h.2v.2h.2v.2l.1.1h.1l.1.1.1.1v.2h.2v.2h.2v.2l.4-.4ZM30.7 61h-.4l-.1-.1H30l-.1-.1h-.1v-.2H29.5v-.1l-.1-.1h-.1v-.2h-.1l-.1-.1-.1-.1H29v-.2l-.1-.1-.1-.1v-.1h-.1l-.1-.1v-.2h-.1V59l-.1-.1-.4.4.1.1h.2v.2c.1.1 0 0 0 0l.1.1h.1v.2h.1v.1l.1.1.1.1h.1v.1l.1.1h.1v.2h.2v.1h.1v.1h.2v.1h.2v.1l.1.1.1.1h.2v.1h.2v.1h.1l.3-.4h-.1Z"/><path fill="#141414" d="M33.7 62.6h-.1l-.1-.1h-.2v-.1h-.1l-.1-.1H33l-.1-.1h-.4V62c-.1-.1 0 0-.1 0h-.1l-.1-.1H32v-.1h-.2v-.1h-.2v-.2h-.2v-.1h-.2v-.1H31l-.1-.1-.1-.1h-.1l-.3.5H30.9v.1h.2v.1h.2v.1h.2l.1.1.1.1h.2v.1h.2v.2h.4v.1H32.8v.1h.2v.1l.1.1h.1v.1h.2v.1h.2l.2-.4v-.1Z"/><path fill="#141414" d="M36.9 63.8h-.2l-.1-.1h-.2v-.1H36v-.1h-.5v-.1h-.2l-.1-.1h-.1l-.1-.1h-.4V63h-.2v-.1H34.2l-.1-.1H34l-.1-.1-.1-.1-.2.5h.1v.1h.4v.1h.2v.1h.2l.2.1H35v.1h.1l.1.1h.4v.1H36l.2.1v.1H36.5v.1h.2v.1h.1l.2-.5ZM40 65.3h-.2l-.1-.1h-.1V65h-.2V65l-.1-.1h-.1v-.1h-.4v-.1c-.1-.1 0 0-.1 0h-.1l-.1-.1h-.1l-.1-.1h-.4v-.2h-.2v-.1h-.4V64h-.1L37 64H37l-.2.5H37.1v.1h.1c.1 0 0 0 0 0h.2v.1h.2v.1H38l.1.1h.2l.2.1.1.1h.2v.1H39v.1h.1v.1l.1.1.1.1h.2l.1.2h.2l.3-.5H40Z"/><path fill="#141414" d="M42.8 67.2h-.1V67l-.1-.1h-.1v-.1h-.2v-.2h-.1l-.1-.1v-.1h-.4v-.2h-.2l-.1-.1h-.1V66H41V66h-.1v-.1h-.1v-.1h-.1v-.1H40.4l-.1-.1h-.1l-.1-.1-.1-.1-.3.5H40v.2H40.4l.1.1h.2v.1h.1v.1H41v.2H41.4v.1h.2l.1.1h.1l.1.1.1.1v.1l.1.1h.2v.2h.1v.1l.5-.3ZM45 69.8l-.1-.1v-.1l-.1-.1v-.1h-.2v-.2l-.1-.1V69h-.2V68.7h-.1v-.1H44v-.2H44v-.2h-.1l-.1-.1-.1-.1v-.1l-.1-.1h-.2v-.1h-.2v-.2l-.1-.1-.1-.1-.4.4.1.1h.1v.2h.2l.1.1h.1l.1.1h.1V68.6h.2V68.8h.1v.2h.1l.1.1v.2h.2v.2h.2v.2l.1.1v.1l.1.1v.2l.5-.3v-.1Z"/><path fill="#141414" d="M46.7 72.8h-.1v-.2h-.1v-.2l-.1-.1V72h-.1v-.2h-.2V71.4l-.1-.1v-.2h-.1V71l-.1-.1-.1-.1v-.4l-.2-.1v-.1l-.1-.1V69.8l-.1-.1-.5.3.1.1h.1v.2h.1v.2h.1v.2h.1v.1l.1.1.1.1v.1l.1.1v.2l.1.1v.1h.1V72h.1v.1h.1v.5h.2v.4l.6-.2h-.1Z"/><path fill="#141414" d="m48.3 75.7-.1-.1v-.1l-.1-.1v-.1h-.2V75l-.1-.1v-.1h-.2V74.5c-.1-.1 0 0 0 0l-.1-.1v-.2h-.1V74h-.1c0-.1 0 0 0 0l-.1-.1v-.4H47v-.1H47v-.2h-.1v-.5l-.6.2v.1h.1v.2h.1v.1l.1.1c0 .1 0 0 0 0v.1h.1v.4h.1v.1h.1v.2h.1V74.7h.2v.2l.1.1v.1l.1.1h.1v.1h.1v.1h.1V75.7l.1.1v.1l.1.1v.2l.6-.3h-.2Z"/><path fill="#141414" d="m50 78.7-.1-.1v-.2h-.1v-.1h-.1V78h-.1v-.2h-.2v-.1l-.1-.1v-.2h-.1V77L49 77c-.1 0 0 0 0 0H49v-.1l-.1-.1v-.4h-.2V76l-.1-.1v-.1l-.1-.1-.5.3h.1v.1h.1v.2h.1c0 .1 0 0 0 0v.2h.1v.2h.1v.1h.1v.2l.2.1v.4h.1v.1h.1v.2l.1.1.2.1v.5h.1v.1h.1V79l.6-.3H50ZM51.6 81.7l-.1-.1V81.3h-.2V81h-.1v-.2H51v-.1l-.1-.1v-.2h-.1V80l-.1-.1c-.1-.1 0 0 0 0l-.1-.1v-.1h-.1v-.4h-.2V79l-.1-.1v-.2l-.5.3v.2h.2v.2c.1.1 0 0 0 0l.1.1V79.8h.1v.1h.1v.2l.2.1V80.6l.1.1.1.1v.2l.2.1v.2h.1V81.5l.2.1v.4l.6-.3h-.1Z"/><path fill="#141414" d="M53.4 84.6v-.1h-.1v-.1h-.1v-.1H53v-.1H53V84l-.1-.1v-.1h-.2V83.4c-.1-.1 0 0-.1 0v-.1h-.1v-.2h-.1V83h-.1c0-.1 0 0 0 0l-.1-.1v-.1H52v-.4h-.2v-.2h-.1v-.5l-.6.3.1.2h.1v.2h.1c0 .1 0 0 0 0v.2h.1v.2h.1l.1.2v.2h.2V83.6h.1v.2h.1l.1.1v.2h.2v.1l.2.1V84.5h.1v.2h.1v.2l.6-.2-.1-.1Z"/><path fill="#141414" d="m55.3 87.4-.1-.1v-.1H55V87H55V87h-.1v-.2l-.1-.1v-.1h-.2v-.1l-.1-.1v-.1l-.1-.1V86h-.1v-.1l-.1-.1H54v-.1l-.1-.1v-.2l-.1-.1v-.1h-.1V85l-.1-.1v-.2l-.1-.1v-.1l-.5.3v.1l.2.1v.2c.1.1 0 0 .1 0V85.7h.1v.1h.1v.1l.1.1v.1h.1v.2l.2.1v.2h.1v.1h.1v.2h.1v.1h.2v.4h.1v.2h.1v.2l.1.1.5-.3v-.1Z"/><path fill="#141414" d="m57.4 90-.1-.1-.1-.1v-.1H57V89.3h-.2v-.1h-.2v-.1l-.1-.2c0-.1 0 0 0 0l-.1-.1h-.1v-.2h-.1v-.2H56v-.1h-.1V88h-.1V88h-.1v-.1h-.1v-.2l-.1-.1v-.1l-.1-.1-.5.3.1.1h.1l.1.1v.1l.1.1.2.1v.2h.1v.1l.1.1v.1h.2v.2l.1.1v.1l.2.1v.1l.1.1.1.1h.1l.1.1v.2l.2.1v.1h.1V90.3l.5-.4ZM59.7 92.5v-.1h-.2v-.1h-.1l-.1-.1h-.1V92H59V92H59v-.1h-.2v-.1h-.1v-.1l-.1-.1h-.1v-.2h-.1l-.1-.1-.1-.1H58V91l-.1-.1v-.1h-.1v-.1h-.1v-.1h-.1v-.2l-.1-.1-.1-.2-.5.4.1.1h.2v.2h.1v.1h.1v.2h.1v.1h.1v.2h.1v.1h.2V91.9h.2v.2h.1l.1.1v.1H58.8v.1h.1v.2h.1v.1h.1v.1h.2v.2h.1l.4-.4ZM62.3 94.7H62v-.1H62v-.1H61.6v-.1l-.1-.1h-.1V94H61.1v-.2H61v-.1l-.1-.1h-.1v-.1H60.4V93.2l-.1-.1V93h-.2V93H60v-.2H60v-.1l-.1-.1-.4.4v.1H59.9v.2c.1 0 0 0 0 0l.1.1h.1v.1h.2v.2h.1v.1h.1l.1.1v.1h.1l.1.2h.2v.1h.1v.2h.2l.1.1.1.1v.1l.1.1H61.8v.2h.1l.4-.4ZM65 96.5h-.1v-.1h-.2v-.1h-.1l-.1-.1h-.1l-.1-.2H64v-.2H63.7v-.1h-.1l-.1-.1h-.2v-.1h-.1v-.2H63v-.1h-.1V95h-.2V95h-.1v-.1l-.1-.1h-.1l-.4.4h.1l.1.1h.1l.1.1c.2.1 0 0 .1 0v.1h.2v.1h.2v.1l.1.1H63.3v.2h.1l.1.1h.2l.1.1.1.1H64.2v.1l.1.1.1.1h.1v.2H64.9v.1l.4-.5H65v.1ZM68 98.3h-.2l-.1-.1h-.1V98h-.1l-.1-.1h-.1l-.1-.1H66.8v-.1l-.1-.1h-.2v-.1h-.2v-.1h-.1c-.1 0 0 0 0 0H66v-.2H66v-.1h-.1V97h-.2l-.1-.1-.1-.1h-.1v-.1l-.1-.1-.3.5h.1v.1h.2v.1h.1c.1 0 0 0 0 0l.1.1h.1l.1.1h.1l.2.1v.1h.2l.1.1h.2v.2H66.9v.1H67.2l.1.1.1.1.1.1h.2v.1h.2v.1l.1.1.3-.5H68Z"/><path fill="#141414" d="M71 99.7h-.2l-.1-.1h-.2l-.1-.1h-.2v-.1h-.4v-.2h-.4l-.1-.1h-.1L69 99h-.2v-.2h-.2v-.1h-.1l-.1-.1h-.2v-.1h-.1l-.1-.1-.1-.1-.3.5h.1l.1.1H68.2c.1.1 0 0 0 .1h.2v.1h.2v.1h.2v.1l.1.1h.2v.1h.2v.1h.4v.1H70v.1h.1v.1h.1v.1h.2v.1H70.8v.1h.1l.2-.5ZM74.2 100.8h-.4l-.1-.1H73.3v-.1H73l-.1-.1c-.1 0 0 0 0 0h-.2l-.1-.1h-.2c-.1-.1 0 0-.1 0h-.1l-.1-.1-.1-.1-.1-.1h-.4l-.1-.1-.1-.1h-.1l-.1-.1-.2.5H71.3v.1h.4v.1h.2v.1H72.2v.1H72.5v.1h.2l.1.1h.5l.2.1v.1h.1v.1h.4v.1h.1l.2-.5ZM77.4 101.8H76.5l-.1-.1h-.1l-.1.1H76v-.1h-.2l-.1-.1h-.1l-.1-.1h-.4v-.2H75v-.1h-.4l-.1-.1h-.1l-.1-.1-.2.5H74.5v.1h.4v.1h.2v.1H75.4v.1H75.7v.1h.5v.2h.5v.1h.2l.2.1H77.3l.2-.5h-.1Z"/><path fill="#141414" d="M80.7 102.6H79.9l-.1-.1H79v-.1h-.2l-.1-.1h-.4v-.1h-.1v-.1h-.5v-.1h-.1l-.1-.1h-.1l-.2.5h.5c.1 0 0 0 0 0h.2l.1.1h.4v.1h.5v.1h.5v.1h.5v.1h.1l.2.1H80.6v.1h.2v-.6.1Z"/><path fill="#141414" d="M84 103h-1.3c-.1 0 0 0 0 0H81.7l-.1-.1h-.2l-.1-.1h-.7l-.1.5h.8v.1H83v.1H84v.1h.2v-.5H84v-.1Z"/><path fill="#141414" d="M87.4 102.8H87v.1l-.1.1H85.5l-.1.1H84v.6h.1l.1-.1H86.5v-.1H87.4v-.7Z"/><path fill="#141414" d="m90.6 102-.1.2h-.6v.1h-.2v.2H89.4c-.1 0 0 0 0 0H89v.2H87.3v.6h1v-.1h.8v-.1h.2v-.1h.5v-.2h.6v-.1h.2l.2-.1-.3-.5ZM93.6 100.6v.1h-.2v.1h-.1v.1h-.4v.2H92.6c-.1 0 0 0 0 0l-.1.1h-.2v.1H92v.1H92v.1h-.5v.1h-.1v.1h-.2v.1h-.5l.2.6H91.2v-.2h.2c.1-.1 0 0 0 0l.2-.1h.2v-.1h.1v-.1H92.3l.2-.1h.2v-.1h.1l.1-.1H93.2v-.2h.5v-.2H94v-.1h.2l-.4-.5Z"/><path fill="#141414" d="M95.7 98.3V98.7h-.1V99h-.2V99.3l-.1.1h-.1v.1l-.1.1H95l-.1.1h-.1v.1c-.1 0 0 0 0 0v.1h-.1l-.1.1h-.2l-.1.1h-.1v.2H93.8v.1h-.2v.1l.3.5.1-.1v-.1h.2v-.2c.1 0 0 0 0 0h.2v-.1h.2v-.1l.1-.1.1-.1h.1v-.1h.1l.2-.1v-.1h.1l.1-.1v-.1l.1-.1.2-.1V99h.1V99h.2v-.5l.1-.1v-.2h-.5ZM30.6 40.2v-.6h.1V39.3h.1s-.1-.1 0-.2V39h.1v-.2h.1v-.1l.1-.1v-.1h.1v-.1l.1-.1h.2l.1-.1.1-.1h.1V38h.2l.1-.1h.1l.1-.1-.4-.4h-.1v.2h-.2l-.1.1h-.2v.1h-.1l-.1.1v.1h-.2v.1l-.1.1v.1h-.1v.1h-.1v.2h-.2V39h-.1v.4l-.1.2v.1H30V40l-.1.1v.2h.6Z"/><path fill="#141414" d="M30.9 43.6v-.4h-.1V43h-.1v-.6h-.1v-.2c0-.1 0 0 0 0v-.7l-.1-.1V40h-.6v.6l.1.1V42.6l.1.1V43.6h.8Z"/><path fill="#141414" d="M31.2 47v-.4H31V46l-.2-.1V45.6c0-.1 0 0 0 0v-.7h-.1V43.4h-.6v.5c0 .1 0 0 0 0v.2h.1V46h.1v.8h.1v.1c0 .1 0 0 0 0v.2l.6-.1v-.1h.1Z"/><path fill="#141414" d="M32.3 50h-.1v-.1l-.1-.1v-.1H32V49.3h-.1v-.2h-.2v-.6h-.1v-.2h-.1v-.7h-.1V47h-.6v.7l.1.1v.2h.1v.5h.1V48.9l.1.1v.1l.1.1V49.5h.2v.5h.2v.5l.6-.3Z"/><path fill="#141414" d="m34 52.9-.1-.1v-.1h-.2v-.2l-.1-.1-.1-.1v-.1h-.2V51.8c-.1-.1 0 0-.1 0v-.1H33v-.2H33v-.2c-.1-.1 0 0-.1 0v-.1h-.1v-.5h-.2v-.2h-.1v-.4l-.6.2.1.1v.1h.1v.2h.1c0 .1 0 0 0 0v.2h.1v.1l.1.1v.1h.1v.2l.1.1h.1v.4h.1l.1.1.1.1v.1l.1.1h.1v.1l.1.1v.2l.1.1h.1v.1l.1.1v.1l.1.1.4-.3v-.1ZM36.7 55h-.2v-.1h-.1v-.1h-.2v-.1H36l-.1-.1-.1-.1H35.5v-.2h-.2l-.1-.1V54h-.1L35 54h-.2V53.7h-.1v-.1h-.1v-.1h-.1l-.1-.1v-.2h-.1V53l-.1-.1-.5.4h.1v.1h.2v.1h.1v.1l.1.1.1.1v.1h.2v.1h.1v.1h.1l.1.1.1.1h.2v.2h.2l.1.1.1.1h.2l.1.1.1.1.1.1h.2v.1h.1v.2l.5-.4h-.2ZM39.4 57H39v-.1H38.7v-.1l-.1-.1-.1-.1H38.2v-.1l-.1-.1H38v-.1h-.1v-.1h-.2V56h-.1l-.1-.1v-.2h-.2v-.2H37V55.3l-.1-.1-.1-.1-.4.4.1.1h.2v.2l.1.1.1.1v.1h.2v.1l.1.1h.1v.1h.1v.1h.1l.1.1h.1v.1h.1l.1.1h.1l.1.1H38.6v.1h.1v.1l.1.1.1.1H39.1v.1l.1.1.3-.5h-.1ZM42.3 59h-.1v-.1H42l-.1-.1h-.1l-.1-.1h-.1l-.1-.1h-.1v-.2H41.1l-.1-.1c-.1-.1 0 0 0-.1h-.2V58h-.2V58h-.1l-.1-.1h-.1l-.1-.1v-.1l-.1-.1H40v-.1h-.1l-.1-.1v-.1h-.1l-.1-.1-.1-.1-.3.5h.1v.1h.2v.1h.1c.1 0 0 0 0 0h.2v.2h.2l.1.1h.1l.1.1h.1l.1.1h.1l.1.2H41v.1H41.3v.1h.1v.1l.1.1.1.1h.1v.1h.2v.1h.1l.4-.4h-.1v.1Z"/><path fill="#141414" d="M45 60.9h-.1l-.1-.1h-.1v-.1h-.2v-.1l-.1-.1h-.1v-.1H44l-.1-.1v-.1h-.2V60l-.1-.1h-.1v-.1H43.1v-.2l-.1-.1H43v-.1h-.2v-.1h-.1l-.1-.1-.1-.1V59h-.2l-.3.4h.2v.1h.2v.1c.2.1 0 0 .1 0v.1h.1v.1h.2v.1h.2v.1H43.4v.2h.1v.1H43.8v.1h.1v.1H44.2v.1h.1v.2h.1v.1H44.7v.1l.1.1.4-.4v.1ZM47.8 63h-.2l-.1-.1v-.1H47.1v-.1l-.1-.1v-.1H46.7v-.1h-.1v-.1c-.1-.1 0 0 0 0l-.2-.1-.1-.2H46v-.1H46v-.2h-.1v-.1h-.2v-.1h-.1l-.1-.1v-.1h-.1v-.1l-.1-.1h-.1l-.4.4h.1v.1h.2l.1.2h.1v.1h.2v.1h.1v.1h.1l.1.1.1.1h.1v.1h.2v.1h.1v.1h.1l.1.1.1.1h.2v.1h.1v.2h.1v.1h.1v.1h.2v.1l.1.1.4-.4ZM50.2 65.5l-.1-.1-.1-.1v-.1h-.2V65h-.1l-.1-.1v-.1h-.2v-.1h-.1v-.1c-.1-.1 0 0-.1 0l-.1-.1-.1-.1h-.1v-.2H48.5V63.9l-.1-.1v-.1h-.2v-.1l-.1-.1-.1-.1v-.1H48V63l-.4.4v.1l.1.1h.2v.1c.1.1 0 0 0 .1h.2v.2h.2v.2h.1v.1h.2v.1l.1.1v.1h.2v.1h.1v.1h.1v.1h.1v.1h.2v.2l.1.1h.1v.1h.1v.2h.1l.5-.3ZM52.3 68.2l-.1-.1v-.2H52v-.2h-.1v-.1h-.1v-.2h-.2v-.1l-.1-.1V67h-.1l-.1-.1v-.2h-.1v-.1H51c0-.1 0 0 0 0H51v-.1l-.1-.1v-.2l-.1-.1v-.1h-.2V65.7h-.1l-.1-.1v-.2l-.5.5h.1v.1h.2v.1l.1.1v.1h.1v.2h.1l.1.1v.1h.1v.2h.1v.1l.2.1v.2h.1v.1h.1v.1l.1.1h.1v.1h.1v.2l.1.1h.1v.2h.1v.2l.5-.3ZM54 71.2V71h-.1v-.2h-.2v-.4l-.1-.1h-.2v-.4h-.1v-.2h-.1v-.2c-.1-.1 0 0-.1 0v-.1H53v-.5h-.2v-.2h-.1v-.4h-.1l-.5.3h.1v.1h.1v.2h.1c0 .1 0 0 0 0v.1l.1.1v.2h.1v.1h.1v.2l.1.1h.1V70l.1.1.1.1v.2l.1.1h.1v.2h.1V71l.1.1v.1h.1V71.5l.6-.2-.2-.1ZM55.6 74.3v-.1h-.1v-.4h-.2V73.5h-.1v-.2H55V73h-.1V72.7h-.1v-.1h-.1v-.1l-.1-.1V72h-.1l-.1-.1v-.1l-.1-.1v-.4l-.6.2v.1h.1v.1h.1v.2h.1v.1l.1.1v.2l.1.1v.1l.1.1v.1h.1V73h.1v.2h.1v.1h.1v.2h.1v.1h.1v.4l.1.1h.1v.1l.1.1v.2l.5-.2ZM57.2 77.3l-.1-.1V77H57v-.2h-.1v-.2h-.2v-.2h-.1v-.1l-.1-.1V76h-.1V75.7l-.2-.1c0-.1 0 0 0 0v-.2H56V75h-.2v-.6l-.1-.1-.6.3h.1v.1l.1.1h.1v.2c.1.1 0 0 0 0l.1.1v.2h.1v.1l.1.1V75.8h.2V76.1h.1v.2h.1v.2l.1.1h.1v.1l.1.1v.4h.1l.1.1V77.7l.6-.3h-.1Z"/><path fill="#141414" d="M58.8 80.3v-.1h-.1V80l-.1-.1h-.1V79.5h-.1v-.2h-.2V79c-.1 0 0 0 0 0L58 79v-.2H58v-.2h-.1v-.1h-.1V78h-.1V78l-.1-.1v-.1l-.1-.1V77.3l-.1-.1-.5.3v.1h.1l.1.1v.1h.1v.2h.1V78.5h.1v.1l.1.1v.1h.1v.2l.1.1v.1h.1v.1l.1.1v.2h.1v.1h.1v.2h.1V80.2h.1v.1l.1.1v.2l.6-.2h-.2Z"/><path fill="#141414" d="M60.6 83.2h-.1V83l-.1-.1v-.1h-.1v-.1h-.1v-.2H60v-.2H60v-.1h-.1V82h-.1v-.2l-.1-.1v-.1h-.1v-.1l-.1-.1V81.2l-.1-.1-.1-.1v-.1l-.1-.1V80.5l-.1-.2-.5.3v.1h.1v.1h.1v.2h.1v.1l.1.1v.1l.1.1v.1l.1.1v.2h.1v.2l.1.1.1.1v.1l.1.1v.1l.1.1h.1v.1h.1v.1h.1V83.2l.1.1v.1h.1v.2l.1.1.5-.3-.1-.1Z"/><path fill="#141414" d="M62.6 86v-.1h-.2v-.2h-.1v-.1H62V85.3l-.1-.1h-.2V84.9h-.1l-.1-.1v-.2h-.2v-.1l-.1-.1-.1-.1V84l-.1-.1-.2-.1V83.4h-.1v-.2h-.1l-.5.3h.1v.1h.1v.1l.1.1c.1.1 0 0 0 0l.1.1v.2h.1v.1h.1v.1l.1.1v.1h.1v.2l.1.1.1.1v.1h.1v.1h.1v.1l.1.1h.1v.1l.1.1v.2h.1v.2h.1v.2h.1l.5-.3h.1ZM64.8 88.5h-.1l-.1-.1-.1-.1h-.2V88h-.1v-.2H63.8v-.1h-.1v-.1c0-.1 0 0 0 0l-.2-.1v-.2h-.1v-.2h-.2V87l-.1-.1V86.7l-.2-.1v-.1h-.1v-.2l-.1-.2-.5.3.1.1h.1v.2h.1c0 .1 0 0 0 0v.1l.1.1v.1h.1v.1l.1.1v.1h.1v.1h.1v.2l.1.1v.1h.1v.1h.1v.1h.1v.1l.1.1h.1l.1.1.1.1v.1l.1.1.1.1h.1v.1h.1v.1l.4-.4ZM67.4 90.7h-.1l-.1-.1-.1-.1h-.2v-.1h-.1v-.1h-.1l-.1-.1h-.2V90h-.1V90H66v-.2h-.2l-.1-.1-.1-.1h-.1l-.1-.1v-.2h-.1v-.1h-.2V89H65V89l-.1-.1-.1-.2-.5.4h.1v.1H64.9v.2h.1v.1h.1v.1h.2v.1l.1.1.1.1h.2v.1l.1.1.1.1h.2v.1h.1v.1h.2l.2.1v.2h.1v.1h.1l.1.2h.2l.1.1.4-.4h-.1ZM70.2 92.6H70v-.1h-.2v-.1h-.2v-.1h-.1l-.1-.2H69V92l-.1-.1h-.1l-.1-.1h-.2v-.1h-.1c-.1-.1 0 0 0-.1h-.2v-.2h-.1v-.1H68v-.1h-.2l-.1-.1V91h-.1v-.1l-.1-.1-.4.4.1.1h.2v.2h.1c.1 0 0 0 0 0l.1.1h.1v.1h.2v.1h.1v.1H68.5v.2h.2v.1H69v.1h.1v.1H69.3v.1l.1.1.1.1h.1l.1.1h.1l.1.1.1.1.3-.5-.1.1ZM73.1 94.4h-.2l-.1-.1h-.1v-.1h-.2V94h-.2V94H72l-.1-.1v-.1h-.2l-.1-.1h-.1v-.1H71.1v-.2H71v-.1H71v-.1h-.2l-.1-.1h-.1V93h-.1l-.1-.2h-.1l-.3.5H70.4v.2H70.7v.1h.2v.1h.1l.1.1h.1v.1h.2l.1.1.1.1h.2l.1.1.1.1h.4v.2h.1l.1.1h.2l.1.2h.2l.2-.5H73Z"/><path fill="#141414" d="M76.2 95.7H75.8v-.1H75.5l-.1-.1h-.1v-.1H75l-.1-.1c-.1 0 0 0 0 0h-.2l-.1-.1h-.1l-.1-.1h-.2L74 95l-.1-.1-.1-.1-.1-.1H73.5v-.1h-.1l-.1-.1-.2-.2-.3.6h.4v.1h.1c.1 0 0 0 0 0l.1.1h.1l.1.1h.2l.1.1h.1v.1h.2v.1h.2v.1h.4l.1.1h.4v.1h.1l.1.2H75.8l.1.1.3-.5v.1ZM79.4 96.6h-.8l-.1-.1-.2.1H78v-.1h-.2l-.1-.1h-.2v-.1h-.4v-.1L77 96h-.2V96H76.6l-.1-.1h-.1l-.2-.1-.2.5H76.3l.1.1h.1c.1 0 0 0 0 0h.2v.1h.2v.1H77.3l.1.1H77.6l.1.1h.4l.1.1h.4v.1h.2l.1.1H79.3v.1h.2l.1-.6Z"/><path fill="#141414" d="m82.8 97-.2.1H81V97h-.7v-.1h-.2l-.1-.2-.2.1h-.2v-.1h-.2l-.2-.1v.6h.7l.1.1H81l.1.1H82v.1h.6v.1h.2v-.5Z"/><path fill="#141414" d="M86.2 97h-.4v.1H85.1l-.1.1H84.2l-.2.1h-.5l-.1-.1H82.7v.5h.5c.1 0 0 0 0 0H85.3v-.1H86.3V97Z"/><path fill="#141414" d="M89.5 96.6H89.2v.1H89v.1h-.5l-.1.1h-.8v.1H86v.7H86.5v-.1h.7l.1-.1h1.3l.1-.1h.7l.1-.1H89.8l-.1-.6v-.1Z"/><path fill="#141414" d="M92.8 95.8H92.4v.1h-.1v.1H92l-.1.2H91.6c-.1 0 0 0 0 0h-.4v.1H91v.1h-.6l-.2.1h-.6l.1.6h.5V97h.4v-.1H91.6l.1-.1h.4v-.1h.1l.1-.1h.5l.1-.1H93.2l-.2-.6v-.1Z"/><path fill="#141414" d="M95.6 94.3v.1l-.1.1v.1h-.1v.1h-.2v.1H95v.2h-.1l-.1.1h-.1l-.1.1h-.4v.2H94l-.2.1H93.5v.1h-.4l-.1.1h-.2l.1.5H93.3V96h.2c.2-.1 0 0 .1 0h.1V96H94v-.1h.4v-.2H94.7l.1-.1h.1v-.1h.1v-.1h.2v-.1h.1v-.1h.1V95H95.8V95l.1-.1h.1v-.2h.1c.1-.2 0 0 0-.2h.1l-.5-.3Z"/><path fill="#141414" d="M94.8 91.2v.5h.1V92h.1v.2h.2v.5l.1.1v.2c.1.1 0 0 0 .1h.1v.5l.1.2V94.2l-.1.1.5.2v-.6c0-.1 0 0 0 0v-.5h-.1V93l-.1-.1V92.6l-.1-.1v-.1l-.1-.1V92l-.2-.1v-.4l-.1-.1v-.1l-.1-.1V91l-.5.2h.2Z"/><path fill="#141414" d="M93.1 88.3h.1v.2h.1l.1.1h.1V89h.2v.2h.1v.1l.1.1v.1l.1.1v.1l.1.1v.2h.1l.1.1v.5h.2v.4h.1V91.3l.6-.2v-.1H95v-.2H95v-.2c-.1-.1 0 0 0 0l-.1-.2v-.1l-.1-.1V90h-.1v-.2h-.1v-.1h-.1v-.2h-.1v-.2l-.1-.1-.1-.1V89l-.1-.1H94v-.2h-.1v-.2l-.1-.2-.1-.1V88l-.1-.1-.5.3ZM91.3 85.3v.1h.1V85.8h.1v.1h.1v.2l.2.1v.2h.2v.2c0 .1 0 0 0 0l.1.1v.2h.2v.2c0 .1 0 0 0 0l.1.1v.1h.1V87.5h.1v.1h.1v.1l.1.1v.2l.1.1v.1l.5-.3v-.1h-.1l-.1-.1v-.1H93v-.2H93v-.2h-.1V87l-.1-.1v-.2h-.1l-.1-.1v-.2l-.1-.1v-.1h-.1v-.1h-.1V86h-.1v-.1H92v-.1H92V85.4l-.1-.1v-.1h-.1V85l-.6.3h.1ZM89.4 82.5v.1h.1v.2l.1.1h.1v.2h.1v.2l.1.1h.1v.1h.1v.1l.1.1.1.1v.1h.1v.2h.1l.1.1h.1v.4h.1v.1h.1v.1h.1v.2l.1.1v.2l.6-.3-.1-.2h-.1v-.2h-.2c0-.1 0 0 0 0v-.2l-.1-.2H91V84H91v-.2h-.2v-.1l-.1-.1v-.2h-.1v-.1h-.1v-.1l-.2-.1v-.2H90v-.4l-.1-.1v-.2l-.1-.1-.5.3v.1Z"/><path fill="#141414" d="M87.7 79.5v.1h.1V80h.1v.1h.1V80.3h.2v.2h.1l.1.2v.1l.1.1v.1h.1v.2l.1.1h.1v.5l.2.1v.1h.1v.4l.1.1.5-.3-.1-.2h-.1v-.2h-.1c0-.1 0 0 0 0v-.1l-.1-.1v-.1l-.1-.1v-.1H89v-.1L89 81V81h-.1v-.2h-.1v-.2l-.1-.1v-.2h-.1v-.1h-.1l-.1-.1V79.8l-.1-.1v-.1l-.1-.1v-.2l-.1-.1-.5.3h.1Z"/><path fill="#141414" d="M86 76.5h.1v.1h.1V77h.2V77.3h.1v.2h.2V77.7l.1.1v.2h.1v.2h.1v.1h.1v.4h.1v.1l.1.1v.1l.1.1V79.5l.1.1.5-.3V79h-.1V79h-.1v-.2h-.1c0-.1 0 0 0 0v-.1h-.1V78.3h-.1v-.2h-.1V78h-.1v-.2H87V77.5H87V77.2h-.1l-.2-.1v-.4l-.1-.1v-.1h-.1V76.1l-.6.3h.2Z"/><path fill="#141414" d="M84.5 73.5h.1V73.9h.1v.1h.1V74.3h.1v.2h.2v.4h.1v.2h.1v.1l.1.1c0 .1 0 0 0 0v.1h.1v.4h.1v.1h.1v.2h.1v.4l.1.1.5-.3-.1-.1-.1-.1v-.2H86c0-.1 0 0 0 0v-.1H86v-.2h-.1v-.1l-.1-.2V75h-.2V74.7h-.1v-.2h-.1V74.2h-.1l-.1-.1-.1-.1V73.7l-.1-.1v-.1h-.1V73.1l-.5.2h.1Z"/><path fill="#141414" d="m82.3 72.9.1-.1H82.8v-.1h.5v-.2h.4v-.1h.5v.2l.1.1v.2h.1v.4l.1.2.6-.3V73l-.1-.1v-.2h-.1c0-.1 0 0 0 0v-.4l-.1-.1v-.1l-.2-.1V72h-.1l-.1-.1h-.8v.1H83.2v.1H83v.1h-.5v.1h-.2v.1h-.2l.1.5Z"/><path fill="#141414" d="M79 73.8v-.1h.4v-.1h.5v-.1h.5v-.1h.2v-.1H81l.1-.1h.5l.1-.1h.4V73H82.3l-.3-.6h-.1l-.1.1h-.2v.1h-.4v.1H81l-.1.1h-.4v.1h-.2l-.1.1h-.5v.1h-.6v.1h-.5l.1.6h.1Z"/><path fill="#141414" d="M75.4 73.9h.5l.1-.1H78.2l.1-.1H79v-.6h-.5v.1H75.5V73h-.2v.8Z"/><path fill="#141414" d="M72 73.4h.4l.1.1H73.3l.1.1H74.4v.1h.2l.1.1h.5l.1.1h.2v-.6H75c-.1 0 0 0 0 0h-1l-.1-.1h-1.1V73h-.1l-.2-.1h-.2l-.1-.1H72l-.2.5h.1Z"/><path fill="#141414" d="M71.8 70.8H71.5v.1h-.1v.1h-.1v.2H71l-.1.2h-.1V71.7h-.2v.4h-.1v.4h.1v.2h.2v.2l.1.1h.2v.1H71.5v.1h.1l.1.1.2.1.2-.5H71.8l-.1-.1h-.1c-.1 0 0 0 0 0l-.1-.1h-.1l-.1-.1h-.1v-.1H71v-.1H71V72h.1v-.1l.1-.1v-.1H71.6v-.1h.1l.1-.1h.2l-.1-.6v-.1Z"/><path fill="#141414" d="M74 70.3h.1v.1h.1v.1h.2-.1v.2H73.3l-.1.1h-1.5l.1.6H72.2l.1-.1H74.2l.1-.1h.1l.1-.1.1-.1h.1l.1-.2v-.2l-.1-.1v-.2h-.2V70l-.5.4v-.2Z"/><path fill="#141414" d="M72.1 67.5h.1v.2h.1v.1h.1v.1h.1V68.2h.1v.1h.2v.1l.1.1v.1c0 .1 0 0 0 0l.1.1v.2h.1v.1l.1.1h.1v.1l.1.1V69.6l.2.1v.1h.1V70.2l.1.1v.1l.5-.4-.1-.1H74v-.2H74c0-.1 0 0 0 0v-.1l-.1-.1v-.2h-.1V69h-.1v-.2l-.2-.1V68.4l-.1-.1-.1-.1-.1-.1V68L73 68l-.2-.1v-.4h-.2V67l-.6.2v.2ZM69.3 66.5H70.4l.1-.1h.5l.1.1h.2l.1-.1c.1 0 0 0 0 0h.2v.1h.1v.2h.1l.1.1v.2l.1.2.5-.3v-.1h-.2v-.2c-.1-.1 0 0-.1 0v-.1l-.1-.1v-.2h-.2V66h-.1l-.1-.1H69.8v-.1h-.5l-.2.5h.1l.1.1Z"/><path fill="#141414" d="M67.4 64.2h-.1v.2h-.1v.1l-.1.1V65.5h.2V65.9h.1l.1.1.1.1h.1v.1h.5v.2H68.6v.1h.6l.1.1h.1l.1-.5h-.5c-.1 0 0 0 0 0h-.2l-.1-.1h-.4l-.1-.1h-.2l-.1-.1h-.1v-.2h-.1v-.6h.2v-.1l-.3-.5-.1.1v-.2Z"/><path fill="#141414" d="M70.3 63.5v.1h-.5v.1H69v.1h-.2v.1h-.7v.1H68l-.1.1H67.5l-.2.2.4.4h.1v-.1h.1l.1-.1c.1 0 0 0 0 0H68.5l.1-.2h1.3l.1-.1h.9l.1-.2V63.7c0-.2 0 0 0 0v-.2l-.5.2-.1-.2ZM69.4 60.1v.1l.1.1V60.7l.1.1v.4l.2.1v.4h.1v.4h.1v.7l.1.1v.1l.1.1v.4l.5-.1v-.4l-.1-.1c0-.1 0 0 0 0V62.4l-.1-.1v-.7h-.1v-.2l-.1-.1V61l-.2-.1v-.5l-.1-.1V60l-.6.1Z"/><path fill="#141414" d="M67.2 59h.1l.1-.1H68.4l.1-.1H68.8c.1 0 0 0 0 0h.5v.1h.1V59.6h.1v.5h.6V59.7l-.1-.1V59l-.1-.1v-.1l-.1-.2v-.1h-.2v-.1h-.2l-.1-.1H69v-.1H67.4l-.2-.1-.2.6h.1v.1Z"/><path fill="#141414" d="M65.3 56.6v.2l-.2.1v.2l-.1.1v.8h.1v.2h.1v.1h.1l.1.1h.1l.1.1h.4l.1.1h.1v.1h.5l.1.1h.2l.2.1v-.6H66l-.1-.1h-.2V58h-.1l-.1-.1v-.2l-.1-.1v-.1l.1-.1v-.1h.1v-.1h.1l-.3-.6Z"/><path fill="#141414" d="M68.5 55.8h-.1v.1h-.6v.1h-.5l-.1.1H67v.1h-.2l-.1.1h-.5l-.1.2h-.5l-.2.1.3.5h.1l.1-.1h.1l.1-.1c.1 0 0 0 0 0H66.5l.1-.1h.1l.1-.1H67v-.1h.4v-.1h.4l.1-.1h.7v-.1H69c.1-.2 0 0 0-.1l.1-.1-.4-.4Z"/><path fill="#141414" d="M68.3 52.6v.5h.1v.5h.1v.7h.1v.9l.1.2v.4h-.1l.5.4V53.6H69v-.1l-.1-.1V52.4h-.6v.2Z"/><path fill="#141414" d="M66.9 50.5H67.8l.1.1.2-.1v.1c.1.1 0 0 0 .1h.1v.2h.1V51.3l.1.1v1.3h.6v-.4s-.1 0 0-.1c0-.1 0 0 0 0V52l-.1-.1V50.8l-.1-.1v-.1l-.2-.1-.1-.1h-.1v-.1h-.5l-.1-.1h-.5V50H67v.5h-.1ZM63.6 49v.2h.1v.2h.1v.1h.2v.1h.1v.1h.1v.1h.1v.1h.4l.1.1c.1.1 0 0 0 0h.2v.1h.2v.1h.5v.1h.1l.1.1h.4l.2.1h.2l.1.1.1-.6H66l-.1-.1h-.5v-.1H65l-.2-.1H64.5l-.1-.1-.1-.1v-.1h-.1v-.1h-.1V49l-.6.1v-.1Z"/><path fill="#141414" d="M66.4 47.2h-.5l-.1.1h-.6v.1h-.5l-.1.1h-.1v.1h-.1v.1l-.1.1-.1.1H64v.1h-.2v.4l-.1.1v.2l-.1.1v.2l.6-.1v-.5h.1v-.2h.1V48h.2V48h.1l.1-.1h.2v-.1H65.3l.1-.1h.4v.1h.5l.1-.6ZM67 45.5V45.8h.1v.2h.1v.4h.2v.7h.1V47.4h-.2v-.1H66.4l-.1.5H67.7l.2-.1.1-.2v-1.3l-.2-.1v-.5l-.1-.1V45.1l-.6.1v.1Z"/><path fill="#141414" d="M65.6 42.5h.1v.2h.1v.1h.1v.2h.1v.2h.2v.1l.1.1v.2l.1.1V44l.1.1v.1h.1v.5l.2.1V45.6l.6-.2V45h-.1v-.2c-.1-.2 0 0 0-.1v-.1l-.1-.1v-.1l-.1-.1v-.2L67 44l-.1-.1V43.6h-.1v-.1h-.1V43.1h-.2V43l-.2-.1V42.5h-.1v-.1l-.1-.1v-.2l-.5.3ZM63 40.5h.4l.1.1h.1v.1h.2v.2h.4v.1h.2v.2h.1l.1.2h.2l.1.1v.2l.1.1h.1v.2h.1v.1l.1.1v.1l.1.1.5-.3V42h-.1v-.1h-.2v-.1l-.1-.1c0-.1 0 0 0 0l-.1-.1-.1-.1v-.1H65v-.2H65V41h-.1l-.1-.1-.1-.1h-.1v-.2h-.2l-.1-.1-.1-.1H63.8v-.1h-.2v-.2h-.1V40h-.4V40l-.1-.1-.3.5H63.1Z"/><path fill="#141414" d="M59.8 39.6H60.7v.1h.1l.1-.1h.2l.1.1h.2l.1.1h.2v.1h.4l.1.1.1.1.1.1h.4v.1h.2l.1.1.2-.5H63v-.1H62.6l-.1-.1h-.2v-.1H62l-.2-.1H61.6v-.1H61v-.1h-.5l-.1-.1h-.2l-.1-.1h-.4v.5Z"/><path fill="#141414" d="M56.5 39h.2l.2.1h1v.1c.1 0 0 0 0 0h.9l.1.1H59.2v.2l.1-.1h.2l.2.1h.1l.1.1.1-.6h-.5c-.1 0 0 0 0 0H59.1v-.1H57.7l-.1-.1h-.5v-.1H56.8v-.1h-.4l-.1.5Z"/><path fill="#141414" d="M53.1 38.1h.2l.1.1h.1l.1.1h.2l.1.1h.4l.1.1H54.7v.1h.5v.1h.1l.1.1h.2v.2l.2-.1h.2l.1.1h.1l.2.1.1-.6H56c-.1 0 0 0 0 0h-.2l-.1-.1h-.4v-.1h-.4l-.1-.1h-.4l-.1-.2h-.4v-.1h-.2l-.1-.1h-.1l-.1-.1h-.2l-.2.5h.1ZM50 36.4h.2l.1.1h.2v.1h.1l.1.1h.1v.2H51.2l.1.1c.1.1 0 0 0 .1h.2v.1h.2v.1h.1c.2.1 0 0 .1 0h.2v.2l.1.1h.1v.1H52.6l.1.1.2.1.1.1.3-.5h-.4v-.1h-.1c-.1 0 0 0 0 0l-.1-.1h-.1l-.1-.1h-.2V37H52L52 37h-.2v-.1h-.1l-.1-.1h-.1v-.1h-.2v-.1H51v-.1h-.1v-.2h-.1v-.1h-.1l-.1-.1h-.1l-.1-.1-.4.4ZM47.8 33.7h.1v.1l.1.2h.1v.1h.1v.2l.1.1.1.1h.1v.1h.1v.2h.1l.1.1v.1h.1l.1.1v.1h.1c0 .1 0 0 0 0h.1v.1l.1.1v.2h.1v.2h.2v.1l.1.1v.1l.1.1h.1l.4-.4h-.1v-.1H50v-.2h-.2v-.1h-.1v-.1h-.1v-.1l-.1-.1-.1-.1-.1-.1-.1-.1-.1-.1v-.2h-.2v-.1l-.1-.1-.1-.1h-.1V33.9l-.1-.1h-.1v-.1l-.1-.1v-.2l-.5.3ZM46.6 30.4V30.8l.1.1V31.1l.1.1v.1l.2.1V31.7c0 .1 0 0 0 0V32h.1v.2l.1.1v.1h.1V33h.1v.1l.1.1V33.6l.1.1.5-.3v-.1H48l-.1-.1V33l-.1-.1V32.6h-.1v-.1l-.1-.1V32l-.1-.1v-.2h-.1v-.4l-.1-.1-.1-.1v-.4l-.1-.1v-.4l-.6.1h.1Z"/><path fill="#141414" d="M46.4 26.9V27.6h.1V29l.1.2V30.6l.7-.1v-.2h-.1V29.8c0-.1 0 0 0 0V29.5l-.1-.1V26.9l-.5-.1-.2.1Z"/><path fill="#141414" d="M47.4 23.6V24h-.1v.2l-.1.1v.1l-.1.1v.4H47V25.2h-.1v.5l-.1.1v.1l-.1.1v.2h-.1v.4h-.1v.4h.5v-.6l.1-.2V25.8h.1v-.4l.1-.1v-.4l.2-.1v-.4h.1v-.1h.1v-.4h.1l.1-.1-.5-.3ZM49.4 20.7v.2h-.1v.2h-.1v.1h-.1v.1H49v.1h-.1V21.8l-.1.1h-.1c-.1.1 0 0 0 0l-.1.1v.1l-.2.1V22.5h-.1v.1H48v.1H48v.1h-.1V23h-.1v.1h-.1v.1l-.1.1v.1l.4.3.1-.1v-.2l.1-.1c.1-.2 0 0 0-.1h.1V23h.1v-.2l.1-.1.1-.1v-.1l.1-.1h.1v-.1h.1V22l.1-.1.1-.1v-.1l.1-.1.1-.1h.1l.1-.1v-.1l.1-.1V21h.2l-.5-.5v.1h.1Z"/><path fill="#141414" d="M46.8 22.3V22h.2v-.2h.2v-.1h.1v-.1h.2v-.2l.1-.1h.2v-.1h.2V21H48.4V21h.5l.1-.2h.6v-.6H49l-.1.1c-.1 0 0 0 0 0H48.5l-.1.1h-.1l-.1.1H48v.2H47.6v.1h-.2v.1l-.1.1h-.2v.2l-.1.1h-.2v.1h-.1v.2h-.1v.1h-.1v.1h-.1l.4.5ZM44.5 24.8v-.2h.2v-.1l.1-.1v-.1l.1-.1V24h.2V23.7h.2v-.2l.1-.1h.1v-.1h.1v-.1l.1-.1V23h.2l.1-.1v-.1h.1v-.1h.1v-.1h.1l.1-.1.1-.1h.1l-.4-.5v.1H46v.2H46l-.1.1v.2h-.2v.1l-.2.2h-.1v.2h-.2v.1h-.1v.2H45v.1h-.1v.1h-.1V24h-.2l-.1.1-.1.1v.1h-.1v.2h-.1l.3.5v-.1ZM42.3 27.3v-.1l.1-.1.1-.1v-.2h.2v-.2h.2V26.3h.2V26l.2-.1v-.1l.2-.1v-.2h.2l.1-.1v-.1h.1v-.1h.1v-.1h.2V25l.2-.1-.4-.5-.1.1v.2h-.2v.1l-.1.1-.1.1v.1h-.1l-.1.2h-.1v.1l-.1.1H43v.1h-.1v.2h-.1l-.1.1-.1.1v.1h-.1v.2h-.1l-.1.1h-.1v.1l-.1.1v.2H42l.4.5-.1-.1ZM42.3 30h-.1v-.4H42V29.3H42V29h-.2v-.4h-.1V28.3h-.1V28h.1v-.2h.1v-.1h.1v-.1h.1l.1-.1.1-.1h.1L42 27v.1h-.1v.2h-.2v.1c0 .1 0 0 0 0v.1h-.1v.1l-.1.1v.2l-.1.2v.8h.1v.1h.1V29.4h.1v.1h.1v.5h.1v.1l.1.1V30.4l.6-.2-.2-.1Z"/><path fill="#141414" d="m43.5 33.2-.1-.1V32.8l-.1-.1v-.2h-.1v-.2h-.1v-.1H43V31.5h-.1v-.2c-.1 0 0 0 0 0l-.1-.1v-.5l-.2-.2V30l-.1-.1-.5.2v.2h.1v.2c.1.1 0 0 0 .1l.1.2v.2h.1V31.4l.1.1v.2h.1v.2l.1.1V32.3h.1v.1h.1v.5h.1v.1l.1.1v.2l.6-.1Z"/><path fill="#141414" d="m44.8 36.3-.2-.1V35.8h-.1v-.5h-.2V35c0-.1 0 0 0 0l-.1-.1v-.2H44V34.4l-.1-.1v-.5l-.2-.1v-.6l-.6.1V33.6h.1v.2c.1.1 0 0 0 0v.2h.1v.1l.1.1v.2l.1.1v.2l.1.1v.2h.1v.1l.1.1V35.5l.2.1v.4l.1.1v.1h.1V36.6l.5-.2ZM46.1 39.4v-.1l-.1-.1V39h-.1v-.1l-.1-.1v-.2H45.4v-.4l-.1-.1V37.8l-.1-.1v-.1h-.1V37L45 37v-.5l-.1-.1-.5.2v.2h.1v.2c.1.1 0 0 0 .1l.1.1v.1l.1.1V37.8h.1v.2l.1.1v.2h.1v.2h.1v.2l.1.1.1.1.1.2v.2l.1.1v.1h.1V39.8l.5-.2Z"/><path fill="#141414" d="m47.7 42.5-.1-.1v-.1l-.1-.1V42h-.1v-.1h-.1v-.2l-.1-.2H47V41.1l-.1-.1V40.7h-.1c-.1-.1 0 0 0-.1h-.1v-.1l-.1-.1V40.2l-.1-.1V40l-.1-.1v-.4h-.1l-.5.2v.2h.2v.2c.1.1 0 0 0 0v.1l.1.1v.2h.1v.1h.1v.2l.1.1v.2h.1v.2l.2.1v.2l.1.1.1.1v.4h.1v.2h.1v.2l.1.1.5-.2ZM49.2 45.4l-.1-.1V45H49V45h-.1v-.2l-.1-.1v-.1h-.2V44.2c-.1-.1 0 0 0-.1h-.1V44h-.1v-.2h-.1v-.1h-.1v-.4l-.1-.1-.1-.1V43l-.1-.1v-.4l-.6.2v.1h.1v.1l.1.1v.1l.1.1v.2l.1.1v.1l.1.1v.2h.2V44.3l.1.1v.1h.1V44.8h.1l.1.1v.1h.1V45.3l.1.1v.1h.1V45.8l.6-.3ZM51 48.3v-.1h-.1V48l-.1-.1v-.1h-.2v-.2l-.1-.1v-.1h-.2V47.2h-.1V47H50v-.2H50v-.2h-.1l-.1-.1V46h-.2V46l-.1-.1v-.4h-.1l-.5.3h.1v.1h.1v.2h.1v.1l.1.1v.1l.1.1v.1l.1.1v.2h.2V47.3l.1.1v.1h.1v.1h.1v.2h.1v.1h.2V48.1l.1.1v.1l.1.1v.2l.1.1.5-.4Z"/><path fill="#141414" d="M53.2 48.5v.1l-.1.1-.1.1-.1.1v.1h-.1l-.1.1h-.1v.2H51.6V49l-.1-.1v-.1h-.2v-.1h-.1v-.2l-.1-.1v-.1l-.5.3v.1h.1l.1.1v.1h.1v.1h.1v.2h.1v.1l.1.1h.1v.1l.1.1h.2l.1.1h.2l.1.1H52.4l.2-.1h.1v-.2h.1v-.1l.1-.1h.2v-.1h.1V49h.1V49h.1v-.1h.1l-.4-.5.1.1ZM55.6 46.1v.1h-.1v.1h-.2v.2h-.1v.1H55v.1H55V47h-.1v.1h-.2v.2h-.2v.1l-.1.1v.2H54v.1H54v.1h-.1v.1h-.1v.1h-.2v.1l-.2.1.3.5h.1v-.1h.1v-.2h.1l.1-.1.1-.1.1-.1V48h.1V48h.1v-.1h.1v-.1h.1v-.1h.1v-.1h.1v-.1h.1v-.1l.1-.1.1-.1V47h.1v-.1h.2l.1-.1.1-.1.1-.1h.1v-.1l-.3-.5v.1ZM58.8 46h-.1v-.1l-.1-.1h-.1v-.1h-.2v-.2h-.1l-.1-.1-.1-.1h-.4c-.1 0 0 0 0 0H57l-.1.1-.1.1H56.5l-.1.1h-.1v.1h-.1v.1H56l-.1.1h-.1l-.1.1.4.5v-.1h.1v-.1h.1v-.1c.2-.1 0 0 .1 0l.1-.1h.2V46l.1-.1h.2v-.1H58V46.1h.1l.1.1.1.1v.2l.5-.3.1-.1ZM59.8 49.4v-.5h-.1v-.4l-.2-.1V48c0-.1 0 0 0 0V47.7l-.2-.1V46.8l-.1-.1v-.1l-.1-.2V46.2l-.1-.1-.5.3v.1h.1l.1.1v.1c.1.2 0 0 0 .1v.1h.1V47.3h.1v.7l.1.1v.5h.1l.1.1v.6h.1V49.5l.6-.1ZM60.7 52.6V52.2h-.1v-.1h-.1v-.5h-.2V51h-.1v-.1l-.1-.1v-.6L60 50V49.4l-.6.1v.5h.1v.4l.1.1v.4h.1v.4h.1v.5h.1v.1h.1v.6l.1.1v.2h.6v-.1Z"/><path fill="#141414" d="M61.6 56v-.4h-.1V55h-.2v-.4l-.1-.1v-.1l-.1-.1V54l-.1-.1v-.6h-.1v-.6l-.6.1v.2l.1.1v.2h.1v.4h.1v.5h.1v.4h.1v.4l.1.1v.1h.1v.6h.1V56.2l.6-.1Z"/><path fill="#141414" d="M62.5 59.2v-.5h-.2s.1-.1 0-.1V58.3l-.2-.1V57.9c0-.1 0 0 0 0V57.5H62V57.2l-.1-.1v-.6l-.1-.1V56h-.6V56.4h.1v.2c.1.2 0 0 0 .1v.1l.1.1v.2h.1v.4h.1v.4h.1v.5h.1v.1h.1v.6l.1.1v.2h.6v-.1Z"/><path fill="#141414" d="M63.5 62.4V62l-.2-.1v-.4h-.2v-.6l-.1-.1v-.2c-.1 0 0 0 0 0l-.1-.1V60l-.1-.1v-.1l-.1-.1v-.5l-.6.2.1.1v.1l.1.1v.5l.1.1v.2l.1.1v.4h.1v.2l.1.1V61.7h.1v.1h.1v.6h.1V62.7l.6-.1v-.1Z"/><path fill="#141414" d="m64.7 65.6-.1-.1V65.2l-.1-.1V64.8h-.1v-.1l-.1-.1-.1-.1V64H64v-.2c-.1-.1 0 0 0-.1H64V63l-.1-.1-.1-.1v-.5l-.6.1v.2l.1.1v.2h.1c0 .1 0 0 0 0V63.4l.1.1v.1l.1.1V64l.1.1v.2h.1V64.5h.1v.2l.2.1v.5l.1.1V65.8l.6-.2-.1.1ZM66 68.7v-.1h-.1v-.2l-.1-.1h-.1V68h-.1v-.2h-.2V67.5c0-.1 0 0 0 0v-.1h-.1v-.2h-.1v-.4H65l-.1-.1v-.4H65v-.7l-.6.2v.2l.1.1v.1c.1.2 0 0 0 .1v.1l.1.1v.2h.1v.2l.1.1v.1l.1.1V67.5h.1v.1l.1.1V68h.2v.5h.1v.2h.1V69l.6-.3Z"/><path fill="#141414" d="M67.6 71.7v-.1h-.2v-.4h-.1V71l-.2-.1v-.1H67v-.1l-.1-.1v-.2l-.1-.1V70h-.2v-.2l-.1-.1V69.4l-.2-.1v-.5l-.1-.1-.6.2h.1v.2h.2v.2c.1.1 0 0 0 0l.1.2v.2h.1v.1h.1v.2l.1.1h.1v.4h.1l.1.1v.2l.1.1h.1v.2h.1v.4h.1l.1.1V72l.6-.2v-.1h-.1ZM69.3 74.5h-.1v-.2H69v-.1h-.2V74l-.1-.1v-.1h-.2V73.4c-.1-.1 0 0-.1 0v-.1h-.2V73h-.1v-.1H68v-.4H68v-.2H68v-.1l-.1-.1v-.4l-.6.3.1.1h.1v.2h.1v.2h.1v.2h.1v.1l.1.1v.2h.1v.2l.1.1v.1h.1v.1h.1v.1h.1v.2h.1v.1h.1v.2h.1v.2l.1.1v.1h.1v.2l.1.2.5-.4Z"/><path fill="#141414" d="M71.2 77.3H71V77H71V77h-.2V76.6h-.1v-.2h-.2V76.1h-.1l-.1-.1V76h-.1v-.2c-.1-.1 0 0-.1 0v-.1H70v-.4h-.2V75h-.1v-.2l-.1-.1v-.1l-.1-.1-.5.3.1.1h.1v.2h.1c.1.2 0 0 0 .1l.1.1v.2h.1v.1h.1v.1l.1.1v.1h.1V76.3h.1v.2h.2v.2l.1.1h.1l.1.1.1.1V77.3h.1v.2h.1v.2h.1l.4-.3v-.1Z"/><path fill="#141414" d="M73.3 80v-.1h-.1v-.1H73v-.1H73v-.1h-.1v-.2h-.2v-.2h-.2V79h-.1v-.2h-.2v-.2l-.1-.1-.1-.1h-.1v-.1l-.1-.1V78H71.4v-.4h-.1V77.3l-.5.4v.1h.1l.1.1v.1h.1v.1l.1.1v.1l.1.1.1.1v.1h.1v.1h.1v.2h.2v.2h.1v.1h.1v.2h.2v.1l.1.1v.2h.2v.2h.1v.2l.5-.4.1.2ZM73.5 82.8h.5l.1-.1h.1v-.1h.1l.1-.1.1-.1.1-.1v-.6c0-.1 0 0 0 0v-.2h-.2V81.1h-.2c0-.1 0 0 0 0L74 81V80.7H74v-.1h-.2v-.2h-.1v-.2l-.1-.1-.1-.1-.5.4h.1l.1.1h.1v.1h.1c.1.2 0 0 0 .1l.1.1h.1v.2h.1v.1h.1v.1h.1v.2h.1v.1h.1v.2h.1v.4H73.8v.1h-.1l-.2.5h-.1Z"/><path fill="#141414" d="m70.4 81 .1.1h.1l.1.1h.1v.1h.2v.1h.2v.2H71.5l.1.1v.1h.2v.1h.1l.1.1h.1c.1.1 0 0 .1 0h.1v.1h.1v.2h.2v.1H73l.1.1h.1l.1.1h.2l.1-.5H73c-.1-.1 0 0 0-.1h-.2v-.1h-.2v-.1h-.2v-.1h-.2l-.1-.2H72l-.1-.1h-.2v-.1h-.2l-.1-.1-.1-.1V81l-.1-.1H71v-.1h-.2v-.1h-.1v-.1l-.4.5ZM67.8 79h.1l.1.1h.1v.1h.2v.1l.1.1.1.1H68.9v.2h.2l.1.1v.1h.1l.1.1h.2v.1h.1v.2h.2v.2H70.1v.2h.1v.1l.2.1.3-.5h-.1l-.1-.1h-.1v-.1h-.1l-.1-.1H70V80l-.1-.1h-.1l-.1-.1-.1-.1h-.2v-.2h-.1l-.1-.1H69v-.1H69v-.1h-.2l-.1-.1h-.1V79l-.1-.2h-.1l-.1-.1h-.1l-.1-.1v-.1l-.4.5ZM65.3 76.6h.1v.1h.1v.1h.1v.1h.2v.2h.1v.2H66.2l.1.1v.1h.2v.2h.1v.1h.1l.1.1h.1V78.2h.1v.2h.2v.1h.1v.2h.1v.1l.1.1.4-.5-.1-.1h-.1v-.1h-.2V78h-.1V78l-.1-.1h-.1l-.1-.2H67v-.1h-.1v-.1l-.1-.1-.1-.1-.2-.1V77h-.1V77H66V76.6H66v-.1h-.1v-.1h-.1v-.2h-.1l-.5.4.1-.1ZM63.1 74h.1l.1.1v.2h.2v.2h.1l.1.1v.1h.2v.2h.1v.1l.1.1h.2V75.5h.1l.1.1h.1V75.8h.1v.1h.1v.1h.1l.1.1v.2h.1v.1l.2.1.4-.4h-.1V76h-.2v-.2h-.1c0-.1 0 0 0 0l-.1-.1v-.2H65v-.1l-.1-.1-.1-.1-.1-.1V75l-.2-.1v-.1l-.2-.1v-.1l-.1-.1-.1-.1H64V74l-.1-.1h-.1v-.1l-.1-.1v-.1l-.1-.2-.5.4ZM61 71.3h.2v.2l.1.1h.1v.2h.1v.2l.1.1h.1l.1.1v.1l.1.1.1.1v.2h.1v.1h.1c0 .1 0 0 0 0h.1v.1l.1.1v.2l.1.1v.1h.2v.1h.1V73.8l.1.1.5-.4h-.1v-.1H63v-.1H63v-.1h-.1V73l-.1-.1v-.1h-.1v-.1h-.1v-.1l-.2-.1V72.3h-.1v-.1h-.1V72H62v-.2h-.2v-.1l-.2-.1v-.5h-.1V71h-.1l-.5.3ZM59.2 68.4v.1h.1V68.8h.2v.1l.1.1v.1l.1.2h.2v.2c.1.1 0 0 .1 0v.1h.1v.2h.1v.2c.1.1 0 0 .1 0v.1h.1v.4h.1v.1h.2v.4h.1v.2h.1l.5-.3h-.1v-.1h-.1v-.2H61V70.3l-.2-.1V70l-.1-.1-.1-.1v-.2h-.1v-.2l-.2-.1v-.1l-.1-.2H60l-.1-.1V68.5h-.1l-.1-.1v-.1l-.1-.1V68l-.6.3Z"/><path fill="#141414" d="M57.5 65.5h.1V65.9h.1v.1h.1l.1.2v.1l.1.1h.1l.1.1v.2l.1.1v.1l.1.1v.2h.1l.1.1v.5h.2v.4h.1v.2l.6-.2-.1-.1v-.1h-.1v-.2h-.1c0-.1 0 0 0 0v-.1l-.1-.1v-.1l-.1-.1v-.1h-.1V67l-.2-.1V66.5l-.1-.1-.1-.1v-.2h-.1V66h-.1l-.1-.1V65.7l-.1-.1v-.1l-.1-.1v-.2h-.1l-.5.2h.1Z"/><path fill="#141414" d="M56.1 62.4h.1V62.8h.1v.1h.1V63.1h.1v.2h.1l.1.1V63.7h.1V64l.1.1v.1h.1v.5l.2.1V65.1l.1.2v.2l.6-.3-.1-.2h-.1v-.2c-.1-.1 0 0 0 0v-.1l-.1-.1v-.1l-.1-.1v-.2l-.1-.1V64l-.1-.1v-.2l-.1-.1v-.1l-.1-.1V63h-.2v-.5h-.1v-.1l-.1-.1v-.2l-.6.1Z"/><path fill="#141414" d="M54.7 59.3h.1V59.7h.1v.1h.1v.2l.1.1v.1h.1v.1l.1.1v.2l.1.1V61l.1.1v.1h.1v.1l.1.1V61.6l.1.1v.1l.1.1v.4l.6-.2-.1-.1v-.1h-.1v-.2c-.1-.1 0 0 0 0v-.2h-.1v-.1l-.1-.1V61H56v-.1h-.1v-.4h-.1v-.1h-.1V60l-.2-.1v-.4l-.1-.1v-.1l-.1-.1V59l-.6.2Z"/><path fill="#141414" d="M53 58.5v-.1h.1v-.1h.2V58h.2l.1-.1h.1v-.2h.2c.1 0 0 0 0 0h.2v.2h.1l.1.1v.5h.1v.1l.1.2V59.2l.6-.1v-.2l-.1-.1h-.1v-.2c-.1-.1 0 0 0 0v-.1l-.1-.1v-.2l-.1-.1V57.8h-.1v-.1l-.1-.1v-.1h-.1l-.1-.2h-.5l-.1.1h-.1l-.1.1v.1h-.1l-.1.1H53v.1l-.1.1h-.1v.1h-.2l.3.5ZM50.3 60.6v-.1l.1-.1h.1v-.1h.1V60h.2l.1-.1h.1v-.2h.1l.1-.1h.1l.1-.1v-.1h.1l.1-.1h.1l.1-.1v-.1h.4V59h.2v-.1l.1-.1H52.8l.1-.1-.4-.5v.1h-.1v.1h-.2v.1c-.1.1 0 0 0 0l-.1.1h-.2v.1h-.1v.1h-.1v.1h-.2v.1l-.1.1h-.2l-.1.1H51v.1h-.1v.1h-.1l-.1.1v.1h-.1v.1h-.2l-.1.1v.1h-.1l-.1.1h-.2l.3.5h.1Z"/><path fill="#141414" d="M47 60.5v.1h.1l.1.1h.2v.1h.1l.1.1h.1v.1l.2.1s0-.1 0 0H48.3c.1.1 0 0 .1 0h.2v.1h.4c.1 0 0 0 0 0h.1V61h.5V61h.1v-.1h.1v-.1h.2l.1-.1h.2l-.3-.6-.1.1h-.1v.2h-.2c-.1.1 0 0 0 .1H49.2v.1H49v.1H48l-.1-.1-.1-.1v-.1h-.1l-.1-.1h-.1l-.1-.1V60l-.4.4ZM44.6 58h.1v.1h.1v.1l.1.1h.2v.2l.1.1v.1H45.5v.1l.1.2v.1h.2v.2h.1v.2h.2l.1.1v.2l.1.1v.1h.2v.1h.1v.2h.1v.1l.1.1.4-.4-.1-.1h-.2v-.2c-.1-.1 0 0-.1 0v-.1h-.1v-.1l-.1-.1h-.1l-.1-.1v-.1h-.1v-.1h-.1V59H46V59H46v-.2h-.2v-.2h-.1l-.1-.1h-.1v-.1h-.1v-.2l-.1-.1-.1-.1H45v-.2l-.5.3ZM42.5 55.4h.1v.1h.1v.1h.1v.1h.2v.2l.1.1v.1h.2v.1l.1.1v.1l.1.1h.1v.1h.1v.2h.1v.1h.1v.1h.1V57.3h.1v.1h.2v.1h.1v.2l.1.1v.2l.5-.4v-.1h-.2v-.2h-.1l-.1-.1-.1-.1V57l-.1-.1-.1-.1v-.1h-.1v-.1H44v-.2h-.2v-.2l-.1-.1-.1-.1v-.1h-.2v-.2h-.1v-.2l-.1-.1h-.1v-.1H43V55l-.6.4ZM40.5 52.6h.1v.1l.1.1v.1h.1v.1h.1v.2h.1v.2h.2v.1h.1v.2h.1v.2h.1v.2h.1v.1h.1v.1h.1V54.7h.1v.1h.1v.1l.1.1v.2h.1v.2l.5-.3v-.1h-.2v-.2l-.1-.1v-.1h-.2v-.2l-.1-.1V54H42v-.2h-.1v-.2h-.1v-.2l-.1-.1-.1-.1v-.1l-.2-.1V53l-.2-.1v-.4H41v-.2l-.1-.1-.5.3v.1Z"/><path fill="#141414" d="M38.7 49.8h.1v.2l.1.1h.1v.2h.1v.2l.1.1h.1l.1.1v.1l.1.1.1.1V51.4h.1l.1.1h.1v.4h.1v.2h.1l.1.1v.2h.1v.2l.5-.3V52h-.2v-.2l-.1-.1v-.2h-.1v-.1l-.1-.1-.1-.1v-.1L40 51v-.2h-.2V50.5h-.1v-.2h-.1l-.1-.1-.1-.1V50h-.1V49.8l-.1-.1v-.1h-.1V49.2l-.6.3v.2Z"/><path fill="#141414" d="M37 46.9V47.3h.1v.1h.1v.2l.1.1v.1h.2v.1l.1.2c0 .1 0 0 0 0v.1h.1v.4h.1c.1.1 0 0 0 0l.1.1v.1h.1v.4h.2v.2h.1V49.6l.1.1.5-.3-.1-.1h-.1V49h-.1c0-.1 0 0 0 0V49l-.1-.1v-.1l-.1-.1-.1-.2v-.1l-.2-.1V48H38v-.1l-.1-.1V47.5h-.2v-.1l-.1-.1V47h-.2v-.4l-.6.2h.1ZM35.3 43.9h.2v.4h.1v.2l.1.1v.1h.2v.4h.1v.2h.1v.2h.1v.1l.1.1V46l.1.1.1.1v.1l.1.1V46.7l.1.1.5-.3H37v-.1H37v-.2h-.1V46l-.1-.1v-.1l-.1-.1v-.1l-.1-.1v-.2h-.1l-.1-.1V45l-.1-.1v-.1h-.1V44.6H36l-.1-.1v-.1l-.1-.1V44h-.1v-.1l-.1-.1v-.2l-.6.2h.2Z"/><path fill="#141414" d="M34 40.7V41l.1.1v.1h.1V41.5h.1v.1h.2v.4l.1.1v.4h.1l.1.1v.5l.2.1V43.6l.1.1v.2l.6-.2-.1-.1v-.1h-.1v-.2c-.1-.1 0 0 0 0V43h-.1v-.1l-.1-.1V42.5h-.1v-.1H35V42H35v-.1h-.1V41.5l-.2-.1V41l-.1-.1v-.1l-.1-.1v-.2l-.6.2ZM32.4 37.7h.1v.2h.1v.2h.1v.1l.1.1v.2l.1.1h.1l.1.1V39h.1v.4h.1c.1.1 0 0 0 .1h.1v.1h.1v.4l.1.1.1.1v.4l.1.1.6-.2-.1-.1-.1-.1V40H34V39.8l-.2-.1v-.4h-.2V39l-.1-.1v-.1h-.1V38.5h-.2v-.2l-.1-.1V37.8H33v-.1l-.1-.1v-.2l-.6.2ZM50 21V20.7h.1l.1-.3v-.1H50v-.1H49.5v.6l.5.3Z"/><path fill="#141414" d="M33 37.4h-.2V37h-.1l-.2.1-.1.1.4.4h.2l.3-.2h-.4ZM97.4 98.5v-.2h.1V98l.1-.1V97.6l.1-.1v-.1l-.1-.1v-.2h.1V96.8h.1v-.7l.1-.1v-.2h.1V95h-.5v.8l-.1.1V97.3h-.2v.4l-.1.1v.2H97V98.3l-.1.1.5.2ZM95.5 101.5v-.2h.1v-.1h.2V100.9h.1l.1-.1.1-.1V100.3h.2v-.2l.1-.1v-.1l.1-.1v-.1c.1-.1 0 0 .1 0v-.2l.2-.1v-.1l.2-.1s-.1-.1 0-.1V99l.1-.1v-.1h.1v-.2l-.5-.2V98.7l-.1.1v.1c0 .1 0 0 0 0v.2h-.1l-.1.1v.1l-.1.1v.1l-.1.1v.2H96v.1H96v.2l-.1.1v.1h-.1v.2l-.1.1h-.1l-.1.1-.1.1-.1.1v.1h-.1v.1H95l.4.5v-.1Z"/><path fill="#141414" d="m92.7 103.5.1-.2H93.1v-.1H93.5v-.2h.2v-.1h.1v-.1h.2l.1-.1v-.1h.2v-.1h.1l.1-.1.1-.1h.2v-.1h.1v-.1h.2v-.2h.2l.1-.1h.1l.1-.1-.4-.5v.1H95v.2h-.2v.1c-.1.1 0 0 0 0l-.1.1v.1h-.2v.1h-.1l-.1.1h-.1l-.1.2H93.7v.1h-.2v.1l-.1.1h-.2v.1l-.1.2h-.4v.1h-.2v.1H92.2l.3.5h.1Z"/><path fill="#141414" d="M89.4 104.5H89.7l.1-.1.1-.1h.4l.1-.2h.6v-.1h.2v-.1h.1l.1-.1h.5l.1-.1h.1l.1-.1h.4l-.2-.6h-.2v.1H92v.1H91.6l-.1.1-.1.1H91v.1H90.7v.1h-.5v.1h-.1v.1h-.7v.1H89.1l.1.6h.1Z"/><path fill="#141414" d="m86 104.9.1-.1H86.4l.1-.1h.4l.2-.1h.6v-.1h1v-.1H89.4l-.1-.6h-.4l-.1.1h-1.3l-.1.1h-.6l-.1.2h-.2l-.1-.1h-.6v.7h.2Z"/><path fill="#141414" d="M82.5 104.9h.5l.1-.1H86.1v-.6h-.7l-.1.1h-2l-.2-.1h-.6v.7Z"/><path fill="#141414" d="M79.1 104.4h.7v.1H80.8l.2.1h.6v.1H81.9v.1H82.7v-.5h-.7l-.1-.1H80.4v-.1h-.5l-.1-.1h-.2l-.1-.1H79.1l-.2.5h.1Z"/><path fill="#141414" d="M75.8 103.5h.5v.1h.4v.1h.5v.1c.1 0 0 0 0 0h.2l.1.1h.5v.1h.1v.1h.1v.1h.5v.1h.2l.1.1h.1l.2-.5H78.7c0-.1 0 0 0 0v-.1h-.2v-.1H78.1l-.1-.1H77.8v-.1H77.5l-.2-.1h-.5v-.1h-.1v-.1H76.3v-.1h-.2v-.1H76l-.2.5h.1ZM72.6 102.5h.4v.1H73.4l.1.1h.4v.1H74.2v.1h.5v.1h.1v.1h.1v.1h.5v.1h.2v.1h.2l.1-.5h-.4c-.1-.1 0 0-.1 0h-.1l-.1-.1H75l-.1-.1H74.6v-.1H74.3v-.1h-.5v-.2h-.5v-.1H73l-.1-.1h-.2v-.1h-.1l-.2.5Z"/><path fill="#141414" d="M69.4 101.2h.2v.1h.2v.1H70.2l.1.1h.4v.2h.4l.1.1h.1l.1.1h.2l.1.1v.1h.1l.1.1H72.1l.1.1h.1v.1h.2l.2-.5H72.4l-.1-.1h-.1c-.1 0 0 0 0 0H72v-.1h-.2v-.1h-.1l-.1-.1H71.3v-.1h-.1l-.1-.1h-.4v-.1H70.3l-.2-.1v-.1H69.8v-.1h-.2v-.1h-.1l-.3.5ZM66.3 99.8h.2l.1.1h.2v.1h.1v.1h.2v.1H67.4v.1h.2l.1.1h.1v.1h.4v.1h.1v.1l.1.1h.1v.1h.4v.1h.2l.1.1.2-.5H69v-.1H69c-.1 0 0 0 0 0h-.2v-.1h-.2v-.1h-.2v-.1H68v-.1h-.2v-.1H67.5v-.1h-.1v-.1H67.1v-.1H67v-.2H66.7v-.1h-.2v-.1h-.1l-.3.4ZM63.3 98h.1l.1.1.1.1h.2v.1h.2v.1h.1v.1H64.5v.1h.2l.1.1h.1l.1.1h.1c.1.1 0 0 0 0h.2v.2l.1.1h.1v.1h.2l.2.1v.1h.1l.1.1h.1l.3-.4h-.1l-.1-.1H66l-.1-.1h-.1c-.1 0 0 0 0 0h-.1l-.1-.2h-.2l-.1-.1h-.2v-.1H65v-.1h-.1v-.1h-.2l-.1-.1h-.1V98H64.1L64 98l-.1-.2h-.2v-.1h-.2v-.1h-.1l-.4.4h.2Z"/><path fill="#141414" d="M60.5 96.2h.2v.1h.1l.1.1h.1l.1.1h.1l.1.2H61.7v.1l.1.1h.1l.1.1h.1v.1h.2v.1h.1l.1.1v.1l.1.1h.2v.2h.2l.1.1.1.1.1.1.3-.5h-.1v-.1h-.2v-.1H63c-.1 0 0 0 0 0l-.1-.1h-.1V97h-.2l-.1-.1-.1-.1h-.2v-.1h-.1l-.1-.1H62v-.1h-.2v-.1H61.4l-.1-.1-.1-.2-.1-.1H61V96h-.2v-.1l-.1-.1-.4.5v-.1ZM58 93.8v.1h.1v.1l.1.1H58.5v.2h.1v.2H59l.1.1v.1h.1l.1.1v.2H59.6v.1h.1v.1h.1V95.5h.1v.1h.2v.1l.1.1v.1l.1.1.1.1.4-.4h-.1v-.1h-.2v-.2h-.1c-.1-.1 0 0-.1 0v-.1H60v-.1L60 95h-.1l-.1-.1-.1-.1-.1-.1v-.1h-.1l-.1-.2h-.2v-.1H59v-.1H59l-.1-.1h-.1V94l-.1-.1v-.1h-.2v-.2h-.2v-.1l-.5.4.1-.2Z"/><path fill="#141414" d="M55.5 91.4h.2v.2h.2v.2h.1v.1h.1v.1l.1.1h.2v.1h.1v.1c.1.1 0 0 .1 0v.1h.1v.1h.1v.2H57.2V93h.1v.2h.2v.1h.1v.1h.1v.2h.1l.1.2.4-.5H58v-.1h-.2v-.1l-.1-.1h-.2v-.2h-.1v-.1h-.1v-.1h-.1v-.1h-.1v-.1l-.1-.1H57v-.1h-.1V92h-.1V92h-.1v-.1l-.2-.1-.1-.1v-.2h-.1v-.1H56v-.1H56V91l-.5.4v-.1Z"/><path fill="#141414" d="M53.5 88.6h.1v.2h.1v.1h.1v.1h.1v.2l.2.1v.2h.2v.2l.1.1h.1v.4h.2l.1.1v.4h.1v.1h.2v.4h.1l.2.2.4-.4-.1-.1h-.1v-.2h-.1c-.1-.1 0 0-.1 0v-.2h-.1v-.2h-.1l-.1-.1V90H55l-.1-.1V89.6h-.1v-.1h-.1v-.1h-.1v-.2h-.1l-.1-.1V89h-.1V88.6h-.1l-.1-.1v-.1H54V88.1l-.5.3v.1Z"/><path fill="#141414" d="m51.6 85.8.2.1V86.3h.2v.2h.1v.2h.2v.2l.1.1.2.1V87.4h.1v.1h.1v.1h.1v.5h.2v.1h.1v.2l.1.2.5-.3-.1-.1-.1-.1v-.1h-.1v-.1l-.1-.1v-.1l-.1-.1v-.1h-.1v-.2L53 87H53v-.4h-.1l-.1-.1-.1-.1v-.2h-.2v-.1l-.1-.1V85.8h-.2v-.1l-.1-.1V85.3l-.5.4v.1Z"/><path fill="#141414" d="m49.8 82.9.2.1V83.3h.1v.2l.2.1v.1h.1v.1l.1.1v.2h.1v.2h.1v.2h.1v.1h.1v.4h.1v.2h.1v.1h.1V85.7l.1.1v.1l.6-.3h-.1v-.1h-.1l-.1-.1v-.1l-.1-.1v-.2l-.1-.1v-.1h-.1v-.1l-.1-.1v-.1H51v-.2L51 84V84h-.1v-.1l-.1-.1v-.1l-.1-.1h-.1v-.1h-.1v-.2h-.1V83h-.1v-.1l-.1-.1v-.2l-.5.2.1.1Z"/><path fill="#141414" d="m48.2 79.9.1.1V80.3h.2V80.6h.1v.2h.2v.1l.1.1v.2h.1V81.5l.1.1c.1.1 0 0 0 0l.1.1v.1h.1v.4h.1v.1l.1.1v.4l.1.1.5-.3v-.1H50v-.1h-.1v-.2h-.1c0-.1 0 0 0 0V82h-.1V81.7h-.1v-.2h-.1v-.1l-.1-.1v-.2h-.1V81l-.2-.1v-.2l-.1-.1-.1-.1V80.1l-.1-.1h-.1v-.2h-.1V79.5l-.5.3h.1Z"/><path fill="#141414" d="M46.6 77h.1v.2l.1.1h.1V77.7h.2v.2h.1v.1l.1.1v.2h.1v.4h.2v.2h.1v.5h.2v.5l.1.1.5-.3v-.1h-.1l-.1-.1v-.1h-.1V79H48V78.8H48v-.2h-.1v-.1h-.1v-.2l-.1-.1V78h-.1v-.1h-.1v-.2h-.1v-.1h-.1v-.4l-.1-.1H47V77l-.1-.1v-.2l-.5.3h.1Z"/><path fill="#141414" d="M44.7 74.2h.2v.2h.1v.1h.2V74.8l.1.1h.2V75.3h.1l.1.1v.2h.1v.1c.1.1 0 0 .1 0v.1h.1v.4h.1v.1h.2v.4h.1v.2l.6-.2h-.1v-.2h-.2v-.2c-.1-.1 0 0-.1 0V76l-.1-.2-.1-.1-.1-.2-.1-.1v-.2H46V75H46l-.1-.1-.1-.1v-.1l-.1-.1h-.1v-.1l-.1-.1v-.2h-.1V74h-.2V73.7l-.5.4ZM42.3 71.8h.2v.1h.2v.1h.2v.1l.1.1.1.1h.2l.1.1v.1h.2v.2h.1v.1h.2v.1h.1V73.3h.1v.1h.2v.2h.1v.2l.1.1.1.1.5-.4H45l-.1-.1h-.1v-.2h-.1c-.1-.1 0 0 0 0l-.1-.1h-.1v-.2h-.1v-.1l-.1-.1h-.1v-.1l-.1-.1H44v-.1h-.1v-.2h-.2l-.1-.1-.1-.1v-.1h-.2v-.1h-.1v-.2H43v-.1h-.2v-.1h-.1l-.1-.1-.4.4ZM39.6 69.9h.2l.1.1h.2v.1h.1v.1h.1v.1H40.7v.1h.1v.1c.1 0 0 0 0 0h.2v.2h.2l.1.1H41.6V71.1h.1v.1h.2v.1h.1l.1.1v.1l.1.1.1.1.4-.5h-.1l-.1-.1h-.1l-.1-.1-.1-.1H42v-.2h-.2l-.1-.1h-.1l-.1-.1h-.1l-.1-.1h-.1v-.2H40.8l-.1-.1H40.4V70h-.1v-.1l-.1-.1-.1-.1H39.9v-.2h-.1l-.4.5.2-.1Z"/><path fill="#141414" d="M36.6 68.3h.2l.1.1h.2v.1h.2v.1l.1.1H37.8l.1.1c0 .1 0 0 0 0h.2v.1h.2v.1h.1l.1.1h.2v.2h.2v.2s.1-.1.2 0h.2v.1h.1l.1.1.1.1.3-.5H39.4l-.1-.1c-.2-.1 0 0-.1 0l-.1-.1-.1-.1h-.2v-.1h-.1v-.1H38.4l-.1-.1v-.1h-.2l-.1-.1h-.2v-.1H37.6v-.1h-.1v-.1l-.1-.1-.1-.1H37v-.1h-.1v-.1l-.3.5ZM33.6 66.6h.2v.1h.2v.1h.1l.1.1h.2v.1H34.8v.1l.1.1h.2v.1h.1l.1.1H35.5v.2h.1v.1h.2l.1.1h.1l.1.1h.2v.1l.1.1.3-.5H36.3l-.1-.2H36l-.1-.1h-.1v-.1h-.2V67h-.1V67h-.2l-.1-.1h-.1v-.1H34.9v-.1h-.1v-.1h-.4v-.1l-.1-.1-.1-.1H34l-.1-.1V66h-.1l-.3.5h.1ZM30.6 64.9h.2l.1.1h.1l.1.1h.1l.1.1h.1v.1l.1.1H31.8v.1c.1 0 0 0 0 0h.2l.1.1h.1l.1.1h.2v.1h.1v.1l.1.1v.1H33l.1.1.1.1h.1l.1.2.3-.5-.1-.1h-.2v-.1H33v-.1l-.1-.1h-.2v-.1h-.2v-.1h-.2v-.1h-.1l-.1-.1H32V65h-.1l-.1-.1h-.2v-.1h-.1v-.1h-.1v-.1h-.2v-.2H31l-.1-.1-.4.4h.1Z"/><path fill="#141414" d="M28 62.7h.1v.1l.1.1h.1l.1.1h.1v.1l.1.1.1.1h.2v.1h.1v.1c.1.1 0 0 .1 0v.1h.1l.1.1h.1v.1h.1l.1.1h.1l.1.1v.1l.1.1v.1H30.3v.1l.1.1.1.1.1.1h.1l.3-.4h-.1v-.1h-.2V64h-.1c-.1-.1 0 0 0-.1h-.2v-.2H30l-.1-.1-.1-.1h-.1l-.1-.1v-.1h-.2v-.1h-.1l-.1-.1-.1-.1H29V63h-.2v-.2h-.1v-.1h-.1l-.1-.2h-.2v-.1l-.4.4Z"/><path fill="#141414" d="m25.7 60.1.2.1v.2H26.3V60.8h.1v.1h.2v.2h.1v.1c.1.1 0 0 0 0l.2.1v.2h.1v.1h.2v.1h.1V62h.1v.2h.2v.1h.1v.2h.1v.1l.2.1.4-.4h-.1V62H28v-.2h-.1c-.1-.1 0 0 0 0l-.1-.1h-.1v-.2h-.1l-.1-.1v-.1h-.1v-.1h-.1v-.1h-.1V61h-.1v-.2H27l-.1-.1v-.1h-.1v-.1h-.2V60.2l-.1-.1h-.1V60l-.1-.1v-.2l-.5.3h-.1Z"/><path fill="#141414" d="M23.9 57.2v.1h.1v.2l.1.1h.1V58h.1v.2h.2v.1l.1.1v.2h.1v.2h.1v.2h.1l.1.1V59.4l.2.1v.2h.2v.4l.1.1.5-.3v-.1h-.1v-.1h-.1v-.1l-.1-.1c-.1-.1 0 0 0 0v-.1h-.1V59h-.1V59l-.1-.1-.1-.1v-.1l-.1-.1v-.1l-.1-.1v-.2H25V58h-.1v-.2h-.1l-.1-.1v-.1h-.1V57.3l-.1-.1v-.1h-.1V56.9l-.6.2v.1Z"/><path fill="#141414" d="m22.4 54 .1.1V54.4h.1v.1h.1V54.9h.1v.2h.2V55.3c0 .1 0 0 0 0v.1h.1v.2h.1v.2l.1.2h.1v.5h.1v.1l.1.1v.4l.1.1.5-.3v-.1H24v-.2H24v-.4h-.1V56l-.1-.1v-.2l-.1-.1V55.4h-.1v-.1h-.1V55h-.1v-.1h-.1v-.4l-.1-.1v-.1l-.1-.1V54l-.6.1Z"/><path fill="#141414" d="M22 50.6v.5l.1.1v.6s.1 0 0 .1v.5h.1V52.8l.1.1v.7h.1v.6l.6-.2v-.2h-.1v-.2c-.1-.2 0 0 0-.1v-.1h-.1V53h-.1v-1.5h-.1v-.7l.1-.1v-.2h-.6l-.1.1Z"/><path fill="#141414" d="M22.1 47.2V48.3l.1.2V50H22s.1 0 0 .1v.7h.5V47.5l.1-.1v-.1l-.6-.2v.1Z"/><path fill="#141414" d="M23.1 43.9v.2l-.1.1V44.5h-.1v.2h-.1v.4h-.1V45.5l-.1.1v.5h-.1v.1h-.1v.1h-.1v.5h-.1v.2l-.1.1v.1l.5.1v-.6l.1-.1v-.2l.1-.2V45.8h.1v-.2h.1v-.4l.1-.1V44.7l.1-.1v-.1h.1V44.3h.1V44l-.4-.3v.1h.1ZM25 41v.2h-.1v.1l-.1.1v.1h-.1v.1h-.1v.1h-.1V42l-.1.1h-.1c0 .1 0 0 0 0v.2h-.1l-.1.1v.1l-.1.1v.2l-.1.1h-.1l-.1.1h-.1v.4h-.1v.1h-.1v.1l-.1.1.5.3V43.6l.2-.1v-.2l.1-.1v-.1h.1V43h.1v-.1h.1v-.2l.1-.1.1-.1v-.2l.1-.1.1-.1v-.2h.1v-.1h.2v-.1h.1V41.3h.2v-.1l-.4-.4v.1Z"/><path fill="#141414" d="m27.5 38.6-.1.1-.1.1h-.1V39.2H27v.1h-.2V39.6h-.2v.2h-.1v.1h-.1v.1h-.2v.2H26v.1H25.7v.1h-.1v.2h-.1l-.1.1h-.1l-.1.1-.2.1.5.4V41h.1v-.2h.1l.1-.1v-.1h.2v-.2l.2-.1v-.1h.1v-.1l.2-.1V40h.1v-.1l.1-.1.1-.1h.1v-.1l.1-.1v-.1H27.5v-.2h.2V39h.1l.1-.1-.4-.4Z"/><path fill="#141414" d="M30 36.3v.1h-.1l-.1.1v.1h-.1v.1h-.1l-.1.1-.1.1h-.1v.2h-.1v.1H29l-.1.1v.1h-.1l-.1.1v.1h-.1v.1h-.1v.1l-.1.1h-.2l-.1.1h-.1v.1l-.1.1h-.1l-.1.1-.1.1h-.1l.4.5v-.1h.1v-.2h.2c.1-.1 0 0 0-.1h.1v-.1h.2v-.1h.1v-.1h.1V38h.1l.1-.2h.1v-.1h.2v-.2h.1v-.1h.1l.1-.1v-.2h.1V37h.2l.1-.1.1-.1v-.1h.2v-.1l-.3-.5Z"/><path fill="#141414" d="m30.9 33.9.1.1V34.4h.1v.2l.1.1v.1h.1v.1s.1 0 0 0V35.2h-.1v.1H31V35.6H30.7l-.1.1h-.2v.2l-.1.1h-.2v.1l-.2.1.4.4h.1v-.2h.2v-.1c.1-.1 0 0 .1 0V36l.1-.1h.1l.1-.1.1-.1h.1v-.1h.1v-.1l.1-.1.1-.1.1-.1v-.1l.1-.1v-.6l-.2-.1v-.5h-.1v-.1l-.1-.1v-.2l-.6.2v.2Z"/><path fill="#141414" d="M29.5 30.7v.1h.1v.4h.2v.5h.2V32h.1V32.4h.1v.2h.1v.1h.1V33.3h.1v.1l.1.1V33.8l.1.2.5-.3v-.2H31v-.2H31c0-.1 0 0 0 0V32.8l-.1-.1-.1-.1V32.4h-.1v-.2l-.1-.1v-.2h-.1V31.6h-.1v-.1h-.1V31l-.1-.1v-.1H30V30.5l-.6.1Z"/><path fill="#141414" d="M28.3 27.5v.1h.1v.4h.2v.4h.2v.6l.2.1V29.4l.1.1v.5h.1v.4l.1.1v.2l.6-.2v-.1l-.1-.1V30h-.1V29.8l-.1-.1-.1-.1V29.3l-.1-.1V28.8h-.1v-.2h-.1V28.3l-.2-.1v-.4l-.1-.1v-.1l-.1-.1v-.2l-.5.2ZM28.4 24.1v.1l-.1.1-.1.1v.1H28v.1l-.1.1-.1.2-.1.1v.5c0 .1 0 0 0 0V25.9l.1.1V26.2h.1v.6h.1v.2h.1v.5l.6-.2v-.1l-.1-.1v-.2h-.1v-.4h-.1v-.1l-.1-.1v-.5h-.1V25h.2v-.2h.1v-.2h.1l.1-.1-.4-.4ZM30.6 21.5v.1l-.1.1-.1.1V22.1h-.2v.1H30l-.1.1V22.6h-.2v.2h-.1v.1h-.1l-.1.1v.2h-.1v.1h-.2l-.1.1v.2H29v.1h-.1l-.1.1h-.1l-.1.1v.1l.4.4v-.1l.1-.1V24h.1V24c.1-.1 0 0 .1 0v-.2h.2v-.2l.2-.1v-.1h.1v-.1l.1-.1V23h.2v-.2l.1-.1.1-.1v-.1l.1-.1.1-.1h.2V22h.1v-.2h.2l-.4-.4Z"/><path fill="#141414" d="M32.9 19v.1l-.1.1-.2.1v.2h-.2v.1h-.2V20l-.1.1c-.2.1 0 0-.1 0v.2h-.2v.2h-.2v.2l-.1.1h-.2v.2H31v.2H30.7v.1l-.2.2.5.3.1-.1v-.2h.2v-.1h.1V21h.1V21h.1l.1-.1.1-.1v-.1h.1l.1-.1v-.1h.1v-.1h.1v-.1h.1v-.1h.1V20l.1-.1v-.1l.1-.1h.2v-.1h.1v-.1h.1v-.1h.1l.1-.1-.4-.4ZM35.4 16.7v.1l-.1.1-.1.1-.1.1v.1H35l-.1.1h-.2V17.7h-.1v.1h-.1c-.1 0 0 0 0 0l-.1.1v.1h-.1v.1H34v.1c-.1 0 0 0 0 0v.1h-.2v.1H33.6V18.7h-.2v.1h-.2l-.1.1-.1.1.4.4h.1V19h.2v-.2c.1 0 0 0 0 0h.1l.1-.1h.1v-.2h.2v-.1h.2v-.2h.2v-.1h.1V18h.1V18l.1-.1h.1v-.1l.1-.1v-.1h.2l.1-.1.1-.1.1-.1v-.1h.1l.1-.1-.4-.5v.1ZM38 16.1v-.4l-.1-.1v-.1l-.1-.1v-.1l-.2-.1-.2-.1-.1.1h-.1v.1H37l-.1.1v.2h-.1v.1h-.1v.1c-.1 0 0 0 0 0v.1h-.2v.1h-.2v.1h-.1v.2H36l-.1.1h-.2v.1l-.2.1.4.4h.1v-.2h.2v-.1c.1-.1 0 0 0 0l.2-.1v-.1h.1v-.1h.1l.1-.1.1-.1h.1V16l.1-.1.1-.1.1-.1v-.1h.1v-.2.2h.1v.2h.1v.2h.5Z"/><path fill="#141414" d="M38.9 19.4V19l-.1-.1v-.1h-.1v-.4l-.2-.1V18h-.1v-.4h-.1v-.7h-.1v-.7h-.6v.7l.1.1v.7h.1v.4h.1v.4h.1v.2h.1v.5h.1v.1h.1V19.7l.6-.1v-.1Z"/><path fill="#141414" d="m39.9 22.6-.1-.1V22h-.1v-.4h-.2V21.4c0-.1 0 0 0 0V21h-.1v-.2h-.1V20h-.1V20l-.1-.1v-.5l-.6.2v.2h.1v.2l.1.1c0 .1 0 0 0 0V20.5l.1.1v.4l.1.1v.2h.1v.2l.1.1v.4h.2v.7a40.4 40.4 0 0 0 .1 0V23l.6-.2h-.1Z"/><path fill="#141414" d="M40.7 25.3v.1h-.1V25h-.2v-.4l-.1-.1V24h-.1v-.6l-.1-.1v-.1L40 23v-.4l-.5.2v.2l.1.1v.2c0 .1 0 0 0 0V23.8l.2.1v.7h.1V25.2h.1v.1h.1v.4l.1.1v.2H41.2l-.4-.5v-.1Z"/><path fill="#141414" d="M43 22.8h-.1v.2h-.1v.1l-.1.1v.1l-.1.1v.1h-.2V23.9h-.1l-.1.1v.1l-.1.1H42v.1l-.1.1V24.7h-.4v.1h-.1v.2h-.1l-.1.1H41l-.1.1h-.1l.4.5.1-.2v-.1h.2v-.1c0-.1 0 0 0 0l.1-.1V25h.1v-.2h.1l.1-.1.1-.1v-.1h.1l.1-.1v-.1h.2V24l.1-.1.1-.1v-.1h.1v-.1l.1-.1h.2v-.2h.1v-.2h.1V23h.1l-.4-.5v.2ZM45.4 20.4v.2h-.2v.1H45v.2h-.1l-.1.1h-.1v.2h-.1v.2h-.1c-.1 0 0 0 0 0l-.1.1v.1h-.1v.1H44V22H43.7l-.2.1v.2h-.1l-.1.1-.2.1v.1H43l.5.5V23h.1v-.2h.1v-.1h.1v-.1h.1v-.1h.1v-.1h.1v-.1l.1-.1h.1V22l.1-.1h.1v-.1h.1v-.1h.1v-.1l.1-.1h.1v-.2h.1v-.1H45.4V21h.2v-.2h.2l-.4-.5ZM48.3 18.6l-.1.1H47.8v.2H47.6v.1h-.2v.2H47l-.1.1h-.2v.1h-.1l-.1.1v.1h-.1l-.1.1H46v.2h-.1l-.1.1h-.2l-.1.1-.1.1.4.4h.1v-.2h.2c.1-.1 0 0 0-.1h.2l.2-.1V20h.1l.1-.1h.1v-.1h.2l.1-.1h.1v-.1h.2v-.1h.2v-.1h.1v-.1h.2v-.1H48.3v-.1h.1l.1-.1H48.7l-.3-.6Z"/><path fill="#141414" d="M51.8 18.2H49.7v.1H49l-.1.1h-.1l-.1.1h-.5l.2.6h.2V19h.2l.1-.1c.1 0 0 0 0 0H49.4v-.1h.5v-.1H51.3l.1.1H51.6l.1.1h.1l.2-.5-.2-.2Z"/><path fill="#141414" d="m54.9 20-.1-.1h-.1v-.1h-.2v-.1h-.2v-.1l-.1-.1-.1-.1H53.7v-.2h-.2l-.1-.1h-.2V19h-.1c-.1-.1 0 0 0-.1H52.8v-.2h-.2v-.1h-.4v-.1h-.1l-.1-.1H52l-.2.5h.5c.1.1 0 0 0 .1h.2l.1.1h.1l.1.1.1.1h.2l.1.1h.1v.2H53.7l.1.1h.2l.1.1.1.1v.1l.1.1h.1v.1h.2v.1l.4-.4ZM57.1 22.6l-.1-.1v-.1h-.1v-.1h-.1v-.1h-.1V22l-.1-.1v-.1h-.2v-.1h-.1v-.2h-.1v-.1H56v-.1H56V21h-.1l-.1-.1h-.1V20.6h-.1v-.2h-.2v-.1h-.1v-.2h-.1V20L55 20l-.4.4v.1h.2v.2h.2v.1h.1v.1h.2v.2h.1v.2h.2v.2h.1v.2h.2v.2h.1v.1h.2V22.4l.1.1h.1v.2h.1v.2l.5-.2ZM58.5 25.8V25.5l-.1-.1V25l-.1-.1v-.1H58v-.4l-.1-.1v-.1l-.1-.1V24l-.1-.1h-.1v-.5l-.2-.1v-.1l-.1-.1V22.8l-.1-.2-.5.3v.1l.1.1h.1v.2h.1c0 .1 0 0 0 0v.1l.1.1v.2l.1.1v.2l.1.1v.2h.1v.2l.1.1v.2l.1.1.1.1v.4h.1v.2h.1V26l.6-.1Z"/><path fill="#141414" d="M59.6 29V28.7l-.1-.1v-.1h-.1V28h-.2v-.4l-.1-.1V27.3l-.1-.1V27l-.1-.1v-.6l-.1-.1v-.5l-.6.1V26.3h.1v.4h.1V27h.1v.4h.1v.2l.1.1v.2h.1V28.2l.1.1.1.1v.4l.1.1v.1l.1.1v.2l.6-.1V29h-.2Z"/><path fill="#141414" d="m61 32-.1-.1v-.2h-.1v-.1h-.1v-.2l-.1-.1V31h-.2V30.7h-.1v-.2l-.1-.1v-.2H60v-.1H60V29.5h-.1v-.1l-.1-.1v-.5l-.6.3v.1l.1.1v.2h.1V30l.1.1v.1l.1.1V30.5h.1V30.9h.1v.1l.1.1v.2l.1.1h.1v.1l.1.2V32h.1l.1.1V32.4l.6-.3Z"/><path fill="#141414" d="M63 34.6h-.2l-.1-.1h-.2v-.2l-.2-.1V34H62v-.2l-.1-.1-.1-.1v-.1h-.1v-.2h-.1v-.1h-.1v-.4h-.1v-.1l-.1-.1v-.1h-.1v-.2c0-.1 0 0 0 0v-.2h-.1l-.5.2v.1l.1.1.1.1v.1h.1v.1l.1.1v.1l.1.1v.1l.1.1v.2h.2V34l.1.1v.1h.1v.1h.1v.2h.2v.1h.1v.2l.1.1h.2v.2h.1v.1h.1l.4-.4ZM65.7 36.5h-.1v-.1h-.2l-.1-.1h-.1l-.1-.1H65l-.1-.1H64.5V36l-.1-.1h-.2v-.1h-.1l-.1-.1h-.2v-.1h-.1v-.2h-.2v-.1h-.1v-.1h-.2V35h-.1v-.1l-.1-.1-.4.4.1.1h.2v.2h.1c.1.1 0 0 0 0l.1.1h.1v.1h.2v.1h.1v.1h.1v.1h.2v.1h.1l.1.1h.2l.1.1h.1v.1H64.9l.2.1v.1l.1.1h.2v.1h.2v.1h.2l.1-.5Z"/><path fill="#141414" d="m68.8 36.3-.1.1h-.2v.1H68v.1h-.2v.1H67.1v.1H66.3v-.1H66v-.1h-.2l-.1-.1-.2.5H65.8l.1.1h.4l.1.1H67.9l.1-.1h.2l.1-.1h.4v-.1h.2l.1-.1-.2-.5ZM72 35h-.5v.1H71.2v.1H71v.1h-.1v.1h-.2c-.1 0 0 0 0 0h-.1v.1h-.4v.1c-.1.1 0 0-.1 0v.1H70v.1h-.4l-.1.2H69l-.1.1.2.6.1-.1.1-.1h.2v-.1H69.9l.1-.1.1-.1H70.3V36h.4v-.1h.1v-.1H71.2v-.1h.1v-.1h.5v-.1h.2v-.1H72.3l-.2-.6v.1Z"/><path fill="#141414" d="M75.5 35.5h-.2l-.1-.1H75v-.1H74.7v-.1h-.5V35H73.8l-.1-.1H72.9l-.1-.1-.1.1H72l.1.6H72.5l.2-.1h1.5l.1.1H74.5l.1.1h.1v.2h.4v.1l.4-.4v-.1ZM77.7 38.2l-.1-.1v-.2l-.1-.1h-.1V37.4h-.1v-.2H77v-.1H77V37h-.1l-.1-.1v-.1h-.1v-.2h-.1c0-.1 0 0 0 0h-.1v-.1l-.1-.1v-.1l-.1-.1h-.1V36H76l-.1-.1v-.1h-.1l-.1-.1v-.1h-.2l-.3.4h.1l.1.1h.1l.1.1c.2.1 0 0 .1 0v.1h.2v.1h.1v.1l.1.1.1.1h.1v.2l.1.1v.1h.1v.1h.1v.1l.1.2h.2v.4l.1.1v.1h.1v.4l.6-.3ZM78.7 41.5V41.1l-.1-.1V41h-.1v-.5h-.2v-.6l-.1-.1v-.2c-.1-.1 0 0 0-.1H78v-.6H78v-.2h-.1v-.5l-.6.2v.2h.1v.2h.1v.4h.1v.1l.1.2V39.8l.1.1v.2h.1v.2l.1.1v.2l.2.1V41.6h.6-.1Z"/><path fill="#141414" d="M79 44.8V44.5h-.1v-.6h-.2V43h-.1v-.7h.1l-.1-.2v-.6h-.5v.5c0 .1 0 0 0 0V42.4l.1.2v1.3l.1.1V44.5l.1.1v.1l.1.1v.1c0 .1 0 0 0 0v.1l.6-.1v-.1Z"/><path fill="#141414" d="M79 48.2v-.5h-.1V47s-.1-.1 0-.1v-.1c0-.1 0 0 0 0v-.2h.1v-.2l.1-.1V46h.1V45.6l-.1-.2V45.2L79 45v-.2l-.6.2.1.2.1.1v.1c0 .1 0 0 0 0v.4h.1v.5h-.1l-.1.1v.5l-.1.2v1.1h.6Z"/><path fill="#141414" d="M79.4 51.5V51.2h-.1V51h-.1v-.5h-.1V49.6l-.1-.1V48h-.5V50.4l.1.1v.6l.1.1v.1l.1.1v.2h.6Z"/><path fill="#141414" d="M80.2 54.8V54.5H80V54H80v-.2h-.1v-.4l-.1-.1v-.1l-.1-.1v-.4h-.1v-.6l-.1-.1V51.5l-.6.2v.2h.1V52.3c0 .1 0 0 0 0v.1l.1.1v.2l.1.1v.6h.1v.6h.1v.1l.1.1v.4l.1.1v.1h.1V55l.6-.1v-.1h-.1Z"/><path fill="#141414" d="M81.1 58.1V57.7l-.1-.1-.1-.1v-.4l-.2-.1v-.6h-.1v-.2h-.1v-.7h-.1v-.7l-.6.1v.2l.1.1v.2c0 .1 0 0 0 0V55.9l.2.2v.6l.1.1v.2h.1v.4l.2.1v.6h.1V58.3l.6-.1-.1-.1Z"/><path fill="#141414" d="M82.1 61.3V61H82v-.1h-.1v-.5h-.2V60c0-.1 0 0 0 0V60h-.1v-.4h-.1v-.7l-.1-.1v-.1l-.1-.1V58l-.5.2v.2l.1.1v.2c0 .1 0 0 0 0V59.2l.2.1v.7h.1v.2l.1.1v.4h.2v.5h.1v.2h.1V61.6l.6-.2H82Z"/><path fill="#141414" d="M83.2 64.5V64.2H83V64l-.1-.1V63.6h-.2v-.4l-.1-.1V62.7l-.1-.1v-.1h-.1V62l-.1-.1v-.4h-.1V61.2l-.6.2v.2h.1v.2l.1.1c0 .1 0 0 0 0V62.3l.1.1.1.1V62.8h.1v.4h.1v.2h.1v.4h.2v.5h.1v.1l.1.1v.2l.5-.2ZM84.5 67.7v-.1h-.1v-.2l-.1-.1V67l-.1-.1v-.2H84v-.4h-.1v-.2l-.1-.1v-.2l-.1-.1h-.1v-.5l-.1-.1V65l-.1-.1v-.5l-.6.3v.1l.1.1v.2h.1V65.5l.2.1v.4l.1.1v.2h.1v.2l.1.1v.2l.1.1.1.1v.4l.1.1v.1l.1.1V68l.6-.3ZM85.9 70.8v-.1h-.1v-.2l-.1-.1v-.1h-.1v-.4h-.2v-.4c-.1 0 0 0 0 0h-.1v-.2l-.1-.1V69L85 69v-.1H85v-.5l-.2-.1v-.5l-.1-.1-.5.2v.1l.1.1v.2h.1V68.6l.2.1v.4h.1v.2l.1.1v.2h.1V70h.1v.1h.1v.5h.1v.2h.1v.2l.1.1.5-.3ZM87.3 73.8h-.1v-.4H87V73h-.2V72.7c-.1-.1 0 0 0-.1h-.1V72.3h-.2V72h-.1v-.4l-.1-.1v-.1h-.1v-.1l-.1-.2V70.9l-.6.2v.1l.1.1h.1v.2c.1.1 0 0 0 0v.2h.1v.1l.1.1v.2l.1.1v.1l.1.1v.1l.1.1v.2h.1v.2l.1.1v.1h.1v.1l.1.1V73.8h.1v.1l.1.1v.2l.5-.2Z"/><path fill="#141414" d="M88.9 76.8h-.1V76.4h-.1v-.1h-.1v-.2l-.1-.1V76h-.2V75.7c-.1-.1 0 0 0-.1h-.1V75.3H88v-.1H88V75h-.1v-.4l-.1-.1-.1-.1v-.1l-.1-.1V74l-.1-.2-.5.3v.1h.1v.1h.1v.2h.1v.1l.1.1v.2l.1.1v.1l.1.1v.1h.1v.2l.1.1v.2h.2V76.1h.1v.1h.1v.4h.1v.2h.1v.2l.1.2.5-.3h-.1Z"/><path fill="#141414" d="M90.5 79.8h-.1v-.4h-.2v-.2L90 79V79h-.2v-.4h-.1V78.3h-.1v-.1h-.1V78l-.1-.1V77.7l-.1-.1-.1-.1v-.1l-.1-.1v-.5l-.6.3v.1h.1v.1h.1v.2h.1c.1.2 0 0 0 .1h.1v.2l.1.1v.1l.1.1.1.1v.1l.1.1v.1l.1.1v.2h.1v.2l.1.1.1.1h.1v.4h.1v.2h.1v.2l.1.2.5-.4h-.2ZM92.3 82.8l-.1-.1H92v-.2H92v-.1h-.1v-.2l-.2-.1V82h-.1v-.1l-.1-.1v-.2h-.1v-.2h-.1v-.2h-.1V81H91v-.4H91v-.1l-.1-.1v-.1h-.1V80l-.1-.1-.5.3.1.2h.1v.2h.1c0 .1 0 0 0 0v.2h.1v.2h.1v.1h.1v.2l.1.1h.1v.4h.1l.1.1.1.1v.1l.1.1.1.1v.1h.1v.4h.1l.1.1V83.3l.6-.3-.2-.1Z"/><path fill="#141414" d="M94 85.7v-.1h-.1V85.3h-.2V85l-.1-.1v-.1h-.2v-.2h-.1v-.1c0-.1 0 0 0 0l-.1-.1v-.2H93V84H93c0-.1 0 0 0 0V84h-.1v-.4h-.1v-.1h-.1v-.2h-.1V83l-.1-.2-.5.2v.2h.2v.2c.1.1 0 0 .1 0V83.9l.2.1V84.3h.1l.1.1v.2h.1v.2l.2.1v.2h.1v.1h.1l.1.1V85.5l.1.2h.1v.1h.1V86.2l.5-.3v-.1Z"/><path fill="#141414" d="M95.8 88.5h-.1V88.1h-.1V88h-.1V87.8h-.1v-.1h-.2v-.1l-.1-.1v-.1c0-.1 0 0 0 0v-.1H95V87h-.1v-.2c-.1-.1 0 0-.1 0v-.1h-.1v-.5h-.2V86h-.1v-.4h-.1l-.5.2v.1h.1v.1h.1v.2h.1c0 .1 0 0 0 0v.1h.1v.2h.1v.1l.1.1v.2l.1.1h.1V87.5h.1v.1l.1.1.1.1v.1l.1.1.1.1.1.1V88.4h.1v.1l.1.1v.2l.6-.2h-.2ZM97.3 91.7l-.1-.1V91.3l-.1-.1V91H97v-.2h-.2v-.4l-.1-.1V90l-.2-.1v-.1l-.1-.1v-.4h-.2v-.6l-.1-.1-.5.3v.1h.1l.1.1v.1l.1.1V89.6h.1v.1h.1V90h.1l.1.1V90.4h.1v.1l.1.1V91h.2v.5h.1v.2h.1v.2l.5-.1h-.1Z"/><path fill="#141414" d="M98 95v-.5h-.1V94h-.1v-.4h-.1v-.4h-.1v-.7l-.2-.1v-.7l-.6.2v.2h.1V92.5c.1.1 0 0 0 0v.1l.1.1v.2h.1v.7h.1v.6h.1v.1l.1.1v.6l.1.1v.2h.5v-.1Z"/></svg>