<svg xmlns="http://www.w3.org/2000/svg" width="120" height="120" fill="none"><path stroke="#B4E41D" stroke-linejoin="bevel" stroke-width="26.7" d="m43.8 108.6-30-63.2 71 52.2L36 20 106.2 68 81.7 11.4"/><path fill="#fff" d="M50.6 55.3 57 69.5l-4 .1L65 83l12.2-11.2 30.1 22.8H12.6l38-39.3Z"/><path fill="#141414" d="M97.8 85 93 80.8c-.6-.5-1-1.1-1.9-1.4-.4-.2-.7-1-1.3-1.4L85.4 74 81 70.5l-.3-.2v-.1h-.2l-.7.6-1.6 1.4c-1.1 1.2-2.4 1.9-3.5 2.9l-1.8 1.5-3.4-3.1c-.8-.9-1.6-1.7-2.5-2.4l-1.7-1.3c-.6-.5-1-1.1-1.8-1.3l-.3-.4a5 5 0 0 0-1.8-1.6 145.2 145.2 0 0 1-5-4.3l-2.7-2.5c-.9-.9-2-1.6-2.8-2.5l-.3-.5-.2.2-.4.5c-.5.4-1.1.9-1.3 1.5l-.2.3c-1.6 1-2.5 2.7-3.9 4-1.4 1.3-2.7 2.8-4 4.2-.4.4-.9.8-1 1.3l-.7.7c-1.3.8-2.2 2-3.3 3-1.2 1.2-2.3 2.6-3.6 3.6-.6.5-1.4 1.1-1.7 2L29 79.3c-.3.4-.6.9-1 1.2-.2.3-.6.5-1 .8l-.3.3c-1.4 2-3.5 3.5-5.2 5.4l-5.2 5.4c-1 1-2 2-3.2 2.2-.5.1-.7-.1-.4-.6l.8-1.2 1.5-1.9c1-1.2 2-2.5 3.2-3.6.4-.4.7-1 1.2-1l.3-.3c1.2-1.9 3-3.3 4.6-5 1.3-1.4 2.4-3 3.8-4.3.5-1 1.5-1.8 2.3-2.5 2.9-2.5 5.3-5.4 8-8.1l8.1-8.4c.4-.4.7-1 1.3-1.4l1-.9 1.5-1.6.2-.2 1.5 1.3.6.5.4.3c2 2.3 4.4 4.2 6.7 6.2l6.8 6c1.4 1.1 3 2.2 4.3 3.5.5.5 1.3 1 1.7 1.7.2.3.4.1.4.2l2.2-1.8 4.2-3.5 1.4-1.2 2.5 2 2.5 2.3 3.1 3 3.3 2.9c1.8 2 3.9 3.6 5.8 5.3l5.8 5.2c1.2.9 2 2 3.1 3 .5.4.7 1.6.3 1.6l-.3-.1c-1.3-.7-2.5-1.3-3.7-2.4l-5.4-4.7.1.1Z"/><path fill="#141414" d="M49.6 53.6v-1.5c0-.2.2-.4-.1-.6-.2 0 .2-.3.2-.4v-1.4l-.2-1.4V47c-.2-.4 0-.8 0-1.1v-1.2c0-.3.2-.5.1-.8l-.2-.5c0-.2.2-.4-.1-.5v-.2c.3-.2.2-.4 0-.6v-1.5l.1-.9v-.9c.3-.3.2-.5.2-.8 0-.2.2-.4-.1-.5v-.1c.4-.4-.2-.9 0-1.3v-1.4c0-.2 0-.3-.2-.4-.1 0-.1-.2 0-.2.3-.4 0-.8.2-1.1 0-.4-.1-.8.1-1.2.1-.2.2-.4-.1-.7-.2 0 0-.3 0-.4l-.2-.3.2-.3v-.2c-.4-.5 0-1.1 0-1.7v-1.8c0-.3 0-.7.7-1l.8.1.2.4.2.6c.1.3.4.7.2 1.1 0 .1.2.3-.1.4v.1c.4.5 0 1 .1 1.6 0 .5.4 1 .2 1.4.4.3.3.5.2.8-.3.9-.1 1.8-.2 2.7v2.8c0 .1.2.3 0 .5V39c-.3.8-.1 1.5-.1 2.2v2.2l.2 1.3c0 .2.1.4-.2.6l.2.3v2.2l.1.8v.8l-.1 1v1c-.3.6-.2 1.3-.2 1.9v1.9c0 .3-.3.6-.3 1l-1 .3-.1-.1c-.3-.3-.7-.6-.6-1v-1.8Z"/><path fill="#141414" d="M71.3 40c-10-3.5-13.6 3.3-20.7 0V28.7c6.7 3.6 10.8-2.6 20.6 0V40Z"/><path fill="#141414" d="m69.7 39.8-1.2-.3h-.2l-1-.1c-.2-.1-.5-.2-.8-.1h-1.6s-.1-.1-.1 0c-.3.1-.6 0-.8 0-.1 0-.2 0-.2.2h-.1l-.2-.1-.9.1c-.1.2-.2.2-.4.2h-.3c-.2 0-.3.1-.4 0h-.1l-.4.1h-.2l-2.7.8-.2.1h-.6l-.5.2h-.4c-.1.1-.2 0-.4 0l-.2.1c-.1 0-.3.1-.4 0h-.3l-1.9-.1-.9-.1-.2-.1h-.4l-1.3-.6-.1-1V38l.1-.4v-1.5c.2-.3 0-.5.1-.8v-3c-.1-.2 0-.3 0-.4l-.1-.5v-.6l-.1-1.3v-1.4h.3l1.5.8.4.1.4.2c.2 0 .3-.1.4 0h.3l.3.2H56c.3 0 .6-.2.8 0H57.2L59 29l.5-.1.2-.1.7-.2h.2l.9-.3.3-.1h.7s.2-.2.3 0l.2-.1h.3l.4-.1h.7s.1-.1.2 0l.3-.2h.1l.1.1h.3c0-.1.1 0 .2 0h.4c.3-.2.7 0 1 0 0 0 .1-.1.2 0h2.3l.5.1c.1 0 .3-.1.4.1l.6.2c.2 0 .5 0 .6.2l.1.1c.1.2 0 .5 0 .8v.6l.1 1.2.1.3v1.2c-.2.6-.1 1.2-.1 1.8l-.1.2v.4c.2.1.1.3.2.5 0 .1-.1.3 0 .4v.6c.2.3 0 .7.1 1V39l-.1.4v.3c-.1 0 0 .1 0 .1 0 .3-.2.5-.5.5l-.2-.1-.1-.4-.1-.3.1-.5v-.4l.1-.3v-.7c0-.5-.2-1-.1-1.4-.2-.4 0-.7-.1-1v-3.9c0-.3.1-.6 0-.8V30l-.1-.6c0-.2-.1-.2-.2-.2l-.3-.1-.4-.1c-.1 0-.2-.1-.2 0l-.2-.1h-2.4l-.4-.1h-.2c0 .1-.2.2-.3 0h-.1c-.3.2-.6.1-1 .2h-.5l-.8.1H63s-.1.1-.2 0h-.1c-.2.2-.4.2-.7.2l-.4.1-.6.2c-.1-.1-.1 0-.2 0 0 .2-.1.2-.2.2l-.2.1c-.1 0-.2.1-.2 0l-.2.1h-.6c-.2.2-.4 0-.6.1l-1.8.3h-.7c-.5.2-1 .2-1.6.1h-.4l-.5-.1H53.2l-.2-.1H52.7c-.1-.2-.3-.1-.5-.2h-.1l-.6-.4c-.1-.2-.1 0-.2-.1 0-.1-.1-.1-.1 0v.3s-.1 0 0 0l-.1.2v.2c.1 0 0 .1 0 .2l.1.3v.2c-.2.3 0 .5 0 .7v1.5l.1.7v1.6s-.1.1 0 .2c.2 0-.1.1 0 .2v1.2l-.1.3v.6c0 .2.2.4 0 .5v.1c0 .1.2.2 0 .3v.9H51.5c.1-.1.2 0 .2.1l.2.1.4.2.3.1h.2l.6.2h.3s.2-.1.2 0H55l1.1-.1h.4c0-.1 0-.1.2 0v-.1h.5c.1-.2.2-.3.4-.2h.1c.2 0 .3-.2.5-.1h.2l.3-.1.4-.1.4-.2.5-.1.4-.1.4-.1.4-.1h.3c.3 0 .6 0 1-.2l1.2-.2h.8c.1-.1.2 0 .3-.2h.2l.6.1H67l.4.1h.1l.9.1.6.1.3.1.6.1.6.1.5.2c.3 0 .3.1.2.5 0 .3-.1.3-.4.3l-1.2-.3v-.3Z"/><path fill="#fff" d="m56.9 32.7 2.4-1 .5 2.4 2.8-3.5L65 32l-4.9 5.6-1.5-.1-1.7-4.9Z"/></svg>