<svg xmlns="http://www.w3.org/2000/svg" width="120" height="120" fill="none"><g clip-path="url(#a)"><path stroke="#B4E41D" stroke-linejoin="bevel" stroke-width="26.7" d="m43.8 108.6-30-63.2 71 52.2L36 20 106.2 68 81.7 11.4"/><path fill="#fff" d="M94 59.7c-.5-3.3-1.2-4.4-3.3-7.7.4-1.4.6-2.8.2-4.3-.3-1.4-1-2.8-1.8-4.1.8-.6 1.6-1.4 1.6-2.4s-.7-2-1.7-3c-.6-.5-1.3-1-2-1.3-.7-.5-1.5-1-2.4-1.2a5 5 0 0 0-4 1c-1.1-.5-2.2-.8-3.2-1l-.4-1.1a191.8 191.8 0 0 0-19.8-13.8c-1-.3-5.4-1.6-6.4-1.6-2.4 0-6 .7-7.5 3.4-.8.3-1.4 2.2-1.5 2.9L41 36l-.2.2-1.1 1.5a119 119 0 0 0-9 14.4c-.4 1.5-4.5 24.4-4.6 24.9-.2.7.3 1.2 1 1.4l27.5 8.3 3.5 1s3 .9 4.2.8c2.7-.6 7-2 9.5-3 4.3-1.8 7.7-4.4 11-6.9 3.6-2.6 6-5.7 8.1-9 1.9-2.9 3.5-6.3 3-9.9ZM70.6 76.4l3-5.3 3-5.2.8-1.3.8-.4a26.4 26.4 0 0 0 9.1-6.8c.5 1.3 0 3.3-.7 5.1a34.8 34.8 0 0 1-16 13.9ZM85 39l.4.4-.7-.5.3.1Zm-2 7.7 1.7-.9.3 1.8-2-1Zm-2.8-2.6V44l-.6-1.7-.1-.3c1 .2 2 .6 2.8 1l-2.1 1.1Z"/><path fill="#fff" d="M85.3 39.3a18.6 18.6 0 0 0-8.2-3.7l.1.3 1.5 4.6.1.3h.4l1 .2h.2l.4.1 1.8.8.5.2.9.5.3.3.8.6.3.3.5.8.2.2.1.3.3.8v.1l.1.5v1.6l-.2.6c0 .2 0 .4-.2.6v.2l-.3.5-.8 1.4a13.7 13.7 0 0 1-2.5 2.9L77 63.8c2.5-1.2 4.8-2.5 6.8-4a25 25 0 0 0 4.3-4.3c.9-1.1 1.6-2.3 2-3.5.5-1 .7-2.1.8-3.3 0-2.8-2.8-7.5-5.7-9.6l.1.1Z"/><path fill="#141414" d="M84.5 42.7ZM91.4 48.3V47.4l-.1-.1-.5-1.2-.2-.6-.2-.6-.3-.5c0-.2-.2-.4-.3-.5 0-.3-.2-.3-.3-.5v-.2l-.6-.9c-.4-.2-.5-.8-.9-1 0-.2-.1-.3-.3-.5l-1.5-1.6-.2-.1c-.2 0-.2-.2-.3-.3l-.4-.2-.7-.6-.8-.5h-.3c-.2-.3-.5-.4-.7-.5l-.7-.3-.7-.4-.6-.2-.6-.2-.7-.2-.6-.2-.3-.1h-.7l-.3-.1-.3-.1H77l.1.4.1.3h1l.3.2h.5l.4.2.7.1.2.1.3.2.3.1.8.4.8.4c1 .5 2 1.1 2.8 1.8.4.3.8.5 1 .9l.2.1.2.1c0 .2.2.3.3.4.5.5.9 1 1.3 1.7l.4.6.2.2.2.3.3.5.2.6.8 1.7c.3.7.5 1.5.4 2.3v1l-.2.8v.5l-.2.4-.2.5a14 14 0 0 1-1.8 3.2s-.2 0-.2.2l-.2.3-.3.4-.5.5-.4.4 1.2-1.8a9.4 9.4 0 0 0 1.3-4.3c0-2.5-1.1-5-3.3-6.9V43.6l-.1-.2-.1-.1h-.1v-.1H85.3l-.2-.1-.3-.3-.3-.3h-.1l-.3-.2-.2-.1-.7-.5-.4-.2v-.1h-.5l-.6-.3a.7.7 0 0 0-.3-.2h-.6l-.2-.1-.2-.1h-.2l-.7-.1-.3-.1h-.5v.2l.2.4c.3 0 .5.2.9.1h.1l.3.2h.3l.3.1.7.3.6.2.3.1h.1l.2.1h-.1l-.2-.1.2.1.3.2.6.4.3.2.2.1h.1l.3.3.3.3.3.3.1.1.1.2.3.5.1.2.1.2v.1l.1.1.1.5v.2l.2.2v.6l.1.2V47.8l-.1.6-.2.7-.1.2v.1l-.1.2-.2.5v.1l-.4.4c-.3.4-.5.9-.9 1.3l-.6.6-.5.6s0 .2-.2.3l.1.2-.4.7-5.6 9.5-.3.6.6-.3h.1a8.5 8.5 0 0 1 1.7-.9l.5-.2.7-.4.8-.4.7-.5.7-.4.7-.5.7-.5.6-.5.3-.2.7-.5.1-.2c.4-.2.6-.4.8-.7l.3-.3.3-.3.1-.2c.2 0 .2-.1.3-.2l.1-.2c.2 0 .3-.2.4-.4l.4-.4.2-.3.2-.2.6-1c.5-.6 1-1.2 1.1-2l.1-.2.1-.2.2-.6.1-.4.1-.3.1-.4v-.3l.1-.3.1-.3v-1.5.1Zm-5.3-2.2v.2-.2ZM82.7 41.5Z"/><path fill="#fff" d="m62 88.2-.5.1c-1.2.3-2.4-.2-3-1.2l3.5 1ZM93.7 60.8c-.2 5.2-3.6 10.2-7.5 14a59.6 59.6 0 0 1-23.3 13l5-8.3h.2l.9-.4h.2l.3-.2a45 45 0 0 0 13.4-8.3 24.6 24.6 0 0 0 5.6-7.8l.3-.6V62l.1-.2.4-1.4v-2.7l-.4-1-.1-.2-.1-.3-.1-.1-.3-.5-.1-.1v-.1l-.1-.1-.3-.2-.7-.8-.4-.2-1-.6-.4-.2-1-.4-.5-.2-.4-.1H83l-.2-.1h-.1l-2-6c2 .3 3.8 1 5.6 2.1l.3.3a16.3 16.3 0 0 1 3.6 3.2l.1.1.4.5c1.8 2.5 3.1 5.8 3 8.2v-.1Z"/><path fill="#141414" d="m94.2 60-.1-.7-.2-.6-.1-.5v-.3l-.2-.4c-.1-.4-.3-1-.6-1.3l-.1-.4-.3-.6-.2-.5-.3-.5-.1-.4c0-.1-.1-.4-.3-.4l-.1-.2-.4-.5-.5-.5-.4-.6-.4-.5-.4-.4-.5-.5c-.1-.3-.3-.2-.5-.4l-.1-.1-.4-.4-.4-.3-.7-.4-.6-.4-.5-.3-2.1-1.1-.3-.1c-.1 0-.2-.2-.4-.1l-.4-.2a11 11 0 0 0-2-.5H80l.2.6 2.6.7.3.1.4.1.6.4h.2l.2.1c.1.2.3.2.5.3l1.9 1.2.3.3.3.2.2.2c.2 0 .3.2.4.3l.2.2.2.2.3.2.2.3.3.3.3.4.6.8c.6.6 1 1.4 1.4 2.2l.3.4.1.2v.2l.1.2.4.9.2.4.2.4.4 1.9v2.3l-.1.3-.1.7v.5l-.2.4v.4c-.2.2-.3.5-.3.7l-.4 1-.3.6-.3.5-.1.5-.7 1.2-.4.6-.4.6-1.1 1.6c4-6 3.5-12-.5-15.9V55.3l-.1-.2-.1-.1H88l-.3-.3-.2-.2V54.2l-.2-.2h-.4l-.5-.4-.6-.3-.3-.2h-.1l-.8-.3c-.2-.2-.6-.2-.9-.3l-.3-.1-.3-.1h-.2l-.4-.1.2.7h.8l.5.3.2.1 1 .4h.1l.3.1c.2 0 .3.2.5.3l.4.2.2.2.2.1v.1h.2l.1.1c0 .2.3.4.4.5l.3.3h.1l.1.2.2.3.2.4.1.1.1.1v.2l.1.1.3.7V58 57.6 58.8l.1.2V60.3l-.3.9-.1.4-.2.4v.1l-.3.6-.2.5s0 .2-.2.3l-.2.4-.2.5-.2.4c0 .1 0 .3-.2.4l-.7 1.1-.5.7-.9 1.2-.1.1c-.2 0-.3.2-.4.4l-1.3 1.2-.6.6-.6.6-.4.4c-.2.1-.3.3-.5.3l-.4.4-.4.3-.8.6-.3.2c-.2 0-.3.2-.5.4l-.2.2-.9.5-.6.4-.6.4-.5.3-.4.3-.5.2-.4.3-.4.1-.5.3-.3.2-.4.2-.5.3-.7.3-.7.3-1 .4-.9.4H69l-.5.3a2 2 0 0 1-.9.3l-.5.3-4 5.9-1.2 1.7V87h-.7v.3l-.1.4v.2H61.4s3.2-.3 7.8-2h.1l1.5-.6c0 .2.2.2.7 0l.5-.2.6-.3 1-.5c.4-.2.8-.3 1-.6l.2-.1.5-.2c.4-.2.9-.4 1.2-.7l1.5-.9h.2l.8-.5.6-.4.4-.3.5-.3 1-.8 1-.6.3-.2.5-.5.5-.4.4-.4c.2 0 .3-.2.4-.3l.5-.4.4-.4.5-.4.4-.4.1-.1.7-.8.7-.6.5-.4.6-.7.5-.7.6-.7.5-.8.3-.4.2-.3.5-.8.4-.7.3-.4.3-.4.2-.4V67c.3-.3.4-.6.4-1l.2-.4.2-.5V65c.2 0 .2-.2.2-.3v-.2c.2-.2.2-.4.2-.6l.2-.7V63l.1-.3.1-.6v-2h-.2ZM68.9 78.8h.1ZM83 52.1Z"/><path fill="#fff" d="M78.8 40.8h-1.1c-1.1 0-2.2-.7-2.6-1.6-.2-.9-.6-3.7.4-3.7l1.6.1.1.3-1-.1h-.8v.2l-.1.1v.2l-.1.6a6 6 0 0 0 .2 1.7l.1.5c.1.3.4.6.7.8l.7.4.6.2h1.2l.1.3ZM62 88.2l1-.3-.3.5-.7-.2ZM83 53.7l-.3.7-5.6 9.5-.4.6-.4.2-.4.2 6.5-11c.2 0 .4-.3.6-.4v.2ZM67.7 61.8Z"/><path fill="#141414" d="M90.8 40.2c0-.4-.2-.7-.4-1l-.7-.9-1.1-1-.5-.3-.8-.5a7 7 0 0 0-1-.5l-.2-.1-.2-.2h-.2l-.4-.1-.2-.1h-.7c-.3 0-.6 0-.9.2a8.7 8.7 0 0 0-3.1 1.8l-1.3 1.2-.6.7-.2.2v.2a4.8 4.8 0 0 0 .1.7l.2.4v.2l.1.3.2.5.3-.4.2-.2v-.1h.1l.3-.5.7-.7a9.7 9.7 0 0 1 2.6-1.8l1-.2h1a3.1 3.1 0 0 1 1.7 1.4c.2.6 0 1.3-.6 1.8a28.2 28.2 0 0 1-2 1.6v.1c-.3 0-.4.2-.6.3l-1.7 1-.8.4-.5.2-.1.2v1.5l.2.3V47.1l.4-.1 1.4-.7 1.4-.7 2.8-1.3 1.5-.7 1.5-1c.3-.2.7-.6.9-1 .2-.4.3-.9.2-1.3v-.1ZM78.3 60.8c-1.3 2-3.6 6.1-5.8 9.8l-5.9 9.7-1.9 3.2-1 1.6-.4.8-.1.2-.1.1v.1l-.3.3c-.3.3-.7.5-1.1.6L61 87l-.9-.3-3.6-1.1-14.3-4.4-7.1-2.1-3.6-1-1.8-.6-.9-.3h-.4l-.3-.1-.1-.1a.5.5 0 0 1-.3-.3l.1-.2c.2-.2.2-.4.3-.7.2-.3.4-.5.4-.8l.3-.3.4-.9.6-1v-.1l.4-.6.3-.4.1-.3.2-.3.4-.8.5-.6.1-.3.2-.4.1-.4.4-.6.9-1.4c.2-.6.4-1 .7-1.3l.2-.3.3-.5.3-.5.3-.5.3-.6.3-.5.3-.5.3-.5.2-.3.3-.5v-.2c.3-.1.3-.4.4-.6l.2-.3.1-.3h.1l.1-.3V59c.2 0 .3-.2.3-.3L39 57c.2-.5.6-1 .7-1.5l.2-.3.2-.3.5-1 .1-.1.3-.4.4-.7.1-.2c.1 0 .3-.1.2-.3v-.1l.4-.8.2-.4.3-.4.1-.4.3-.3.1-.4.1-.1c.3-.1.3-.4.4-.6 0-.3.4-.5.5-.9l.2-.3c.3-.4.5-1 .9-1.3v-.1c0-.2.2-.2.2-.3l.1-.3.2-.2.3-.5-.4-1v-.1l-.2-.6-.4-1-.2-1-.2-.5-.1-.4-.1-.2-.1-.2H45.5l.5 1.7.2.6.1.2.1.4.1.4.1.6.2.4.2.4v.1c0 .2 0 .3.4.3l.6.2.6.1.7.2h.1l.3.1.8.2a7 7 0 0 1 1 .3h.6l.4.2h.3l.3.1.7.2.6.2h.2l.4.1h.4l.6.3 1.3.3 1.2.3.3.2h.5l.5.2.5.1.5.2h.5l.5.2.5.1.2.1.5.1h.2l.6.2h.3l.2.1h.2l.2.1.4.1 1.4.4 1.4.3.3.1.3.1.9.2h.2l.4.1.6.2.2.1h.4l.8.3h.3l.4.2h.3l.4.1.3.1h.1l.6.2.8.2h.3l1.3.4h.2l.2.1.3.1 1 .3h.5l.5.2h.4l.3.1h.2l.5.2h.2c.2 0 0-.6-.3-.8l-1.6-1-3.1-1.7-.6-.3-.6-.3-.8-.7-.7-.7-1.6-1.3-1.5-1.3-1.2-.9-.6-.3-.7-.4-2-1.3-.8-.4a7.5 7.5 0 0 0-1.1-.5 1 1 0 0 1-.3-.1l-.5-.4-.5-.2-1.1-.5-1.2-.4-.5-.1-.5-.2-1-.3-.5-.1-.5-.1-1-.3c-1.4-.2-2.8-.2-4.2-.5h-5.7l-1.4.1H44l-.8-.2a2 2 0 0 1-.6-.4c-.1-.1-.3-.3-.3-.5v-.6l.1-1.6c.1-.5.2-1 0-1.5.2-.9 0-1.8.1-2.6 0-1 .3-2 .1-3v-.2c.2-.2.1-.5.2-.7V23.9l-.1-.6c0-.3-.2-.3-.4-.2a51.3 51.3 0 0 0-.7 5.1c0 1.2-.3 2.3-.2 3.4v.2l-.1.6V35l-.2.8-.1.1c0 .2-.2.3-.3.5a67 67 0 0 0-1.5 2.3l-3.3 5.1-.3.4c0 .3-.4.4-.4.7-.3.1-.3.3-.4.4l-.2.3-.1.2-.2.3-.2.3-.1.3v.1l-.1.2-.5.8-.4.6-.4.5-.2.4-.1.2-.8 1-.6 1-.2.4v.1l-.2.1v.1l-.1.2v.4l-.1.3c0 .3-.1.5 0 .8l-.1.1c-.2.2 0 .4 0 .5l-.2.6v.9l-1.3 7-1.3 7.2-.7 3.6-.3 1.8v.2l-.1.3v.8l.4.6.5.5.3.2H27.8l.4.2 1 .3 1.8.5 3.6 1.1 7.2 2.1c4.8 1.5 9.6 3.2 14.4 4.6l3.6 1 .4.2h.3l.2.1a3.2 3.2 0 0 0 3.3-1l.1-.3h.1l.1-.2v-.1l.1-.1.2-.2.4-.8 1-1.7 1.8-3.2L74.9 68c2.6-4.6 5.8-9.7 8-13.9 0 0-.3.5-.2.1 1.4-2.8-3.6 5-4.5 6.4l.1.3ZM70.4 47l-.5-.4.4.3h.1Z"/><path fill="#141414" d="m82.8 51.8-1-3.3c-.5-1.1-.6-2.2-1.1-3.3v-.1l-.2-.6c0-.3-.2-.5-.3-.7 0-.3-.2-.6-.3-.8l-.4-1.1-.7-2.3-.6-2a1 1 0 0 0-.1-.4c-.2-.2-.2-.5-.3-.7l-.5-1.3-.1-.6v-.1l-.1-.1-.1-.2-.3-.4-.6-.4-.2-.1-.3-.1c-.4-.3-.8-.5-1-.8l-.2-.1c-.3 0-.6-.3-.8-.4l-1.3-1-1.5-1-1.3-1c-.6-.3-1.3-.7-1.9-1.2l-.7-.4-.9-.6-.2-.2c-.3 0-.6-.3-.8-.5l-1-.5-1.2-.9-1.9-1.2-1.7-1.2-1.1-.7-.6-.4h-.1l-.2-.1-.3-.2a18.1 18.1 0 0 0-5.3-1.5l-.5-.1h-1.5c-1 0-2 .1-3 .5a8 8 0 0 0-2.9 1.8l-.4.4-.3.4-.4.9v.1c0 .2.4 0 .6-.3l.3-.4.3-.3.7-.7c.9-.7 2-1.3 3-1.5l1.8-.3 1.7.1 2 .4 1.3.4-2.5.1L54 38.1H56V21.3l.2.1.7.3h.2v.1l.4.2 2 1.4 1.5 1 .5.3 1 .6 2.1 1.4 3.5 2.3 3.5 2.4.9.6 1 .7.7.5 1.1.7h.1l.1.2h.2l.3.2.3.3V35l.2.3.2.6.4 1.3c.5 1.7 1.2 3.3 1.6 5l.5 1.5 1 2.5c.3 1 .5 2 1 3v.2l.2.7.8 2 .4 1.1.3.6c.1.3.2.2.2 0l-.3-1.7v-.2Z"/><path fill="#BFEF1D" d="m73.2 63.6-7.4 13.1-6.6-3.7 1.1-2-8.7 4.5-5.3-4.7-6.1 4.5-6-3.9 2.2-9.8 2.4-4.2 6 1.3-1 4.4 8.3-6 5.8 4.4-1 2.7 11.2-5.8 5.1 5.2Z"/></g><defs><clipPath id="a"><path fill="#fff" d="M0 0h120v120H0z"/></clipPath></defs></svg>