<svg xmlns="http://www.w3.org/2000/svg" width="120" height="120" fill="none"><path stroke="#B4E41D" stroke-linejoin="bevel" stroke-width="26.7" d="m43.8 108.6-30-63.2 71 52.1L36 20.1 106.2 68 81.7 11.4"/><path fill="#141414" d="M59.2 87.8a29.4 29.4 0 1 0 0-58.8 29.4 29.4 0 0 0 0 58.8Z"/><path fill="#141414" d="m88.5 63-.8 3.5v.6l-1 2.5-1.1 2.4c-.3.8-.8 1.5-1.2 2.2l-.5.7c-.2.1-.4.5-.5.8l-.2.2-.2.2c-.3.8-1 1.4-1.5 2-.1.1-.3.3-.3.5l-.2.2c-.2 0-.3.2-.4.3L78.7 81c-.2.4-.6.6-1 .9l-.8.5c-.3.2-.5.5-.9.6l-.2.1-1 .7-.6.3a28 28 0 0 1-9.5 3.5l-1.5.2c-.3.1-.7.2-1 .1h-1.1c-.3 0-.5 0-.8.2a2 2 0 0 1-1 0l-.9-.1c-1.8 0-3.5-.3-5.3-.6-.9-.2-1.7-.3-2.5-.6-.2 0-.5 0-.6-.2l-.3-.1-.7-.2c-1.1-.4-2.1-1-3.3-1.4-.8-.3-1.6-.9-2.4-1.3l-.7-.6-.7-.5c-.2-.1-.3-.3-.5-.3l-.4-.3c-.1-.3-.5-.4-.8-.7-.7-.7-1.6-1.3-2.3-2.1-.1-.2-.4-.3-.4-.6l-.2-.2-.3-.2c-.3-.6-.8-1-1.2-1.7-1-1.3-1.9-2.7-2.7-4.1l-.6-1.2-.6-1.2c-.1-.3-.3-.5-.3-.8v-.4c-.3-.3-.4-.7-.5-1-.2-.4-.2-.9-.5-1.3v-.5l-.3-.9-.2-.4-.6-3.5v-3.5c0-1.2 0-2.4.3-3.5 0-.5 0-1 .3-1.3-.1-.5 0-.8.3-1.1v-.3c0-.3-.1-.6.2-.9l.1-.9c.2-.1.3-.5.4-.8l.3-.8c0-.3.3-.6.2-.9l.2-.4c.3-.6.7-1.2.8-1.9l.3-.5c.4-.4.6-.9 1-1.5.3-.7.8-1.4 1.4-2 .1 0 .2 0 .2-.3l.3-.4c1-1.3 2.3-2.6 3.6-3.8l1-.9c.2 0 .5-.2.5-.4h.1c.6-.3 1-.8 1.4-1.1l.4-.2.3-.1c.7-.6 1.5-1 2.3-1.5.3-.1.6-.2.8-.5h.3c.5-.1 1-.6 1.5-.7.3 0 .5-.3.8-.2h.2l.4-.3.9-.3 1-.3h.6l.5-.2.8-.2c.3 0 .4-.2.8-.1l.7-.2h.7l.6-.1H57.3l.6-.1c.9-.2 1.8-.1 2.7 0H61.5c.8-.2 1.7.2 2.5.3.6 0 1.3 0 1.8.2l1.8.4 1.4.4c.4.2.9.1 1.2.5l1.3.5c.4.2.8.3 1 .6l.5.3c.6 0 1 .4 1.3.6l.4.2 1 .7c1 .8 2.1 1.3 3 2.1l.5.4c.9 1 1.8 1.7 2.6 2.7 1 1.4 2.2 2.8 3 4.3l.3.5.6.9.7 1.3.5 1 .1.2c0 .5.4 1 .5 1.5.6.9.7 2 1 3l.2.4v.2c0 1 .3 1.9.4 2.8v2.3c.1.7-.1 1.3-.4 1.3-.2 0-.2-.2-.3-.3l-.2-1v-.8s-.1-.1 0-.2l-.1-1.5-.1-1c0-.2-.1-.5 0-.8l-.2-.5-.4-1.4c-.2-1.4-1-2.5-1.4-3.9l-1.3-2.6c-.8-1-1.3-2-2-3l-.4-.5-.2-.4a11 11 0 0 0-1-1.3c-.3-.2-.5-.4-.6-.7l-.2-.2-1.1-1-.4-.5a2 2 0 0 0-.6-.6c-.2 0-.3-.2-.5-.3-.6-.4-1.1-1-1.8-1.2a2 2 0 0 0-1-.8l-1.8-1-2-1-.9-.5-1-.4c-.3 0-.5-.2-.6-.1h-.1l-.6-.3h-.5l-.7-.2c-.2 0-.5-.1-.6-.3h-.6l-.7-.2h-.7l-.7-.2h-1l-1-.1-1.3-.2h-.5c-.2.1-.5.3-.8 0h-.3c-1 .3-2 .1-2.8.4-.6 0-1 0-1.6.2l-2.3.5c-.8.1-1.5.4-2.3.7-.2 0-.4.2-.6.1l-.4.1c-.5.4-1 .6-1.7.8a5 5 0 0 0-1 .6l-1.6 1c-.3 0-.4.2-.5.3a1 1 0 0 1-.4.4l-.6.5-.5.4c-.2 0-.3.1-.4.3l-.6.3c-.2.2-.4.5-.7.5l-.1.1c-.3.5-.9.7-1.2 1.1-1.3 1-2.3 2.4-3.3 3.7-.4.5-.9 1-1.1 1.6l-2 3.7c0 .3-.1.6-.4.8v.2c0 .5-.3.9-.5 1.3l-.1.3-.2.6-.2.6-.2.7v.7c-.3.4-.2.9-.3 1.3l-.1.3c-.3 1-.4 1-.4 2.4-.2.4 0 .9-.1 1.3v.6l.1 2.5v1.1c0 .2 0 .5.2.8v.5l.2.8.1.5c0 .7.3 1.3.5 1.8l.2.5.1.8c.3.3.3.7.5 1l.6 1.7 1 1.8c.2.4.6.7.6 1.2l.2.2 1.5 2.2c.1.1.1.4.3.5.2 0 .1.4.4.4l.2.3c.5.9 1.3 1.6 2 2.3l.5.6c.5.3.8 1 1.5 1.3.3.3.8.4 1 .8l.3.2c.1.3.4.2.6.5.1.2.5.3.7.5l.7.4.7.4.8.4 1.6.7.2.1c.3-.1.5.1.7.2l.4.3 1.4.5.9.4.4.1c.7 0 1.3.3 1.9.4l.9.2h.6l3.3.3h3.2c.3 0 .6-.2.9 0l.3-.1c.1-.1.2-.2.4 0l.3-.2h.6l.6-.1 1.3-.3.3-.1c.5-.1.8-.3 1.3-.3l.5-.1 1-.4c.4 0 .8-.3 1.2-.4l1-.5 1.2-.5 1-.5 1-.7 1-.6.8-.4c.6-.4 1.3-.8 2-1.6l.2-.2 2.3-2.2 1-1 .4-.7.5-.8.3-.4c.4-.3.6-.8.9-1.2l.9-1.4c.1-.2.3-.5.3-.8l.3-.6.5-.8.5-1.1v-.3c.3-.7.7-1.4.8-2.1l.4-1.8c0-.3 0-.5.3-.7v-.2c-.1-.6 0-1.1.2-1.6v-1.6l.1-1.5c0-.7.1-.9.5-.9.3 0 .4.2.4.8.2 1.4 0 2.7-.2 3.8h-.1Z"/><path fill="#141414" d="M51.6 22.1 37.4 58.6a1 1 0 0 0 1 1.5l16.9-.4a1 1 0 0 1 1 1.4l-13 33.2c-.3 1.1 4 1.3 4.7.4l41-46.6a1 1 0 0 0-.8-1.7l-21 .5a1 1 0 0 1-1-1.5l11-22.4a1 1 0 0 0-.9-1.5H52.6a1 1 0 0 0-1 .7Z"/><path fill="#141414" d="M73.3 20.2h3.5c.7.2 1.4.7 1.7 1.4.3.7.2 1.3-.2 2.1l-2.8 5.7c-.6 1.3-1.4 2.5-1.8 4-.2.8-1.2 1.9-1.8 3l-2.4 5-1.2 2.4-.5 1-.1.4c0 .3.3.3.5.3l2.5-.1L76 45c3.5-.1 7 0 10.5-.3H89c.6.2 1 .5 1.4 1 .4.5.6 1.2.5 1.7 0 .6-.2 1.1-.7 1.7L88.4 51l-1.1 1.3c-1.9 2.3-3.9 4.6-6 6.7-1.5 1.5-3 3-4.3 4.6l-2.4 3.1c-1 1-2 2-2.5 3.2l-.7.7c-1.2.9-2.3 2.2-3 3.2-.6 1-1.3 1.8-2 2.6l-6 6.8-4.6 4.9c-1.5 1.7-3 3.7-4.6 5.2L49 95.5c-.4.3-.7.6-1.2.7l-1.1.2h-2.4c-1-.3-1.9-.7-2.1-1.6v-1.3l.3-1.3.3-.8c1.8-3 2.3-6.4 3.7-9.6 1.5-3.3 2.7-6.8 4-10.1.4-1 .9-1.9.9-2.8 0-.4.4-1.3.6-1.8a27 27 0 0 0 1.7-3.7l.7-1.9v-.3h-7.6c-1.3-.2-3.2-.2-4.8.2l-1.5.1h-2.7a2.7 2.7 0 0 1-2.1-3.5l.4-1.1.3-.5.6-1.1.3-.8c1.2-4.4 3.5-8.5 5-12.8 1.6-4.4 3.4-8.8 5.1-13.1 1-2.4 2-4.9 3.4-6.2.6-.6 1-.5.8.6a23 23 0 0 1-.6 2.6l-1.4 4.2c-1 2.8-1.7 5.7-3 8.5-.4.9-.6 2-1.3 2.6l-.3.6c-1 4-2.8 8-4.3 11.9l-1 2.6-.4 1.3-.2.6v.3c-.1.1 0 .3.1.3h1.6c2-.5 4.3-.5 6.3-.4l5.3.1h3.4c1.4.2 2.4 1.8 2 3.1L55.5 67l-1.9 5-7.9 20-.3.8-.1.6-.1.3c0 .1.1.2.4.2.7 0 1.4-.2 1.3-.3.8-.9 1.8-2.2 2.7-3 4-4 7.6-8.4 11.3-12.5 3.8-4.2 7.5-8.4 11.1-12.7 2.2-2.6 4.3-5.3 6.6-7.8 1-1 1.9-2.4 3.1-3.2.4-.2 1-1.4 1.7-2.2l3.3-3.8.2-.2c0-.1-.1-.3-.3-.3h-1.3l-4.9.2c-2 0-4 .3-5.9.4l-6.3.1h-1.8c-.6-.2-1-.5-1.4-.9-.8-.8-1-2-.4-3l2.1-4c1.3-2.4 2.4-5 3.7-7.3l2.8-5.1 2.4-4.9c.2-.2.1-.7-.3-.6H61.8c-2.7 0-5.2-.3-7.9-.3l-1-.1c-.4-.2-.3-.3-.6-.3-.4-.1-.9.3-.9-.1 0-.2.1-.5.4-.7.3-.3 1-.4 1.2-.4l1-.2 1.9-.2c1.3-.1 2.6-.3 4.1-.3h13.3v.1Z"/><path fill="#fff" d="M48.4 22.1 34.2 58.6a1 1 0 0 0 1 1.5l16.9-.4a1 1 0 0 1 1 1.4l-10 32.6c-.4 1.1 1 1.9 1.7 1l41-46.6a1 1 0 0 0-.8-1.7l-21 .5a1 1 0 0 1-1-1.5L74 23a1 1 0 0 0-.9-1.5H49.4a1 1 0 0 0-1 .7Z"/><path fill="#141414" d="M69.7 20.2h3.7c.8.1 1.5.6 1.8 1.3.4.7.3 1.4 0 2.2L72.6 29c-.6 1.3-1.4 2.5-1.8 4-.1.8-1.1 1.8-1.7 3L64.6 45c-.2.2 0 .5.2.5h.5l1.3-.1 5.2-.3c3.4-.1 7 0 10.3-.3h1.1l2-.1c.6 0 1 .2 1.4.5.4.3.7.7 1 1.2.2 1 0 1.9-.7 2.8l-1.2 1.3-.6.8a99.2 99.2 0 0 1-5.9 6.6c-1.5 1.5-3 3-4.2 4.5l-2.4 3.1c-.9 1-2 2-2.5 3.1l-.7.7c-1.1.9-2.3 2.2-2.9 3.2a483.8 483.8 0 0 1-7.9 9.2l-4.5 4.8c-1.6 1.7-3 3.7-4.6 5.1l-1.1 1.2-1.8 1.8c-.6.8-1.2 1.2-1.6 1.4-.5.2-.8.3-1.5.2-.7-.1-1.4-1-1.5-1.4l-.3-1.7V93l.3-1 .8-2.2.5-1.2.6-2.4c.4-1.6.8-3.3 1.4-4.9 1.2-3.3 2.1-6.8 3.2-10.3.3-.9.7-1.8.7-2.8 0-.3.2-1.3.5-1.7.6-1.2 1-2.5 1.4-3.8l.3-1v-.4h-8.5c-1.3-.2-3.1-.2-4.7.2l-1.5.1H35a2.7 2.7 0 0 1-2.5-3.6l.5-1c.2-.8.7-1.5 1-2.2l.3-.7c1.2-4.4 3.4-8.4 5-12.6 1.5-4.4 3.3-8.7 5-13 1-2.3 2-4.7 3.4-6 .6-.6 1-.5.8.6l-.7 2.6-1.3 4c-1 2.8-1.7 5.7-3 8.4-.4.9-.6 2-1.2 2.6l-.3.6c-1 4-2.8 7.8-4.3 11.7l-1 2.9-.5 1.4-.3 1 .1.3h.9c2-.5 4.2-.5 6.2-.4l5.2.1H51c.6 0 1.6-.1 2.2.2.6.2 1.1.8 1.4 1.5.2.6.1 1.3-.2 2l-.4 1.5-.8 2.5-1.5 5-6.2 19.9v.5c-.2.3 0 .5.2.3l.3-.4.1-.2.6-.7 1.4-1.5c4-3.8 7.4-8.2 11.1-12.3l11-12.5c2.1-2.5 4.1-5.2 6.4-7.6 1-1.1 1.8-2.4 3-3.2.4-.2 1-1.5 1.7-2.2l2.3-2.5.2-.4v-.3H81.1l-4.8.2c-1.9 0-3.8.3-5.8.4H66l-1 .1h-1.4c-1-.2-2-1-2.2-2.1-.1-.5 0-1 .1-1.5l.8-1.6L64 40c1.2-2.4 2.3-5 3.6-7.2 1-1.6 1.8-3.2 2.7-4.9l2.2-4.5c.3-.3 0-.8-.3-.7H58.5c-2.8.1-5.2-.3-7.9-.2-.3 0-.6 0-.9-.2l-.3-.1-.3-.1c-.4-.1-.9.3-1-.1l.4-.7c.3-.3 1-.4 1.2-.4l1-.1 1.9-.3c1.2-.1 2.6-.3 4-.2h13.1Z"/></svg>