<svg xmlns="http://www.w3.org/2000/svg" width="120" height="120" fill="none"><path stroke="#B4E41D" stroke-linejoin="bevel" stroke-width="26.7" d="m43.8 108.6-30-63.2 71 52.2L36 20 106.2 68 81.7 11.4"/><path fill="#fff" d="m23.6 54.5 11.6 32.8L98.4 62l-16-32.4-58.8 25Z"/><path fill="#141414" stroke="#141414" stroke-miterlimit="10" stroke-width=".3" d="M43.6 83.3a257 257 0 0 0 4.7-2c.5-.2 1.2-.3 1.7-.8.2-.2.9-.2 1.4-.5l4.3-1.8 4.2-1.9c1.3-.6 2.8-1 4.1-1.8l3.3-1.3 3.6-1.5c.9-.3 1.7-.5 2.5-1L75 70c.5-.3 1.1-.4 1.5-.8l.4-.1c.6-.1 1.3-.4 1.8-.7l1.2-.7 3.6-1.5 2.7-1c1-.4 1.9-.9 2.8-1.1l2.5-1c.5-.2 1.1-.3 1.4-.7l.3-.1a7.6 7.6 0 0 0 2.4-1l.4-.2.2-.1v-.2l-.2-.3-.5-1-1-2.2c-.2-.4-.3-.8-.6-1l-.4-.8c-.3-1.1-.9-2.2-1.4-3.3-.5-1.2-1.2-2.4-1.6-3.7-.1-.5-.4-1.3-.9-1.8l-.7-1.3-.6-1-.3-1c0-.1 0-.3-.2-.4-1-1.6-1.5-3.5-2.5-5.3l-2.5-5.5c-.5-1-.9-2-.8-3 0-.3.2-.4.5 0l.7 1 .9 1.6c.6 1.1 1.3 2.2 1.8 3.4.1.4.4.8.4 1.2l.1.3c1 1.4 1.6 3.2 2.4 4.8.7 1.4 1.5 2.6 2 4 .6.7 1 1.6 1.3 2.5 1 2.8 2.5 5.5 3.7 8.2l1.2 2.5 1.5 3.2-2.6 1-1.8.8-1.4.7c-.6.1-1.2.5-1.9.7-.5.3-1.1.6-1.7.7-2.3.7-4.4 1.8-6.7 2.7l-6.6 2.8-4 1.9-1.8.6-1 .5-2.8 1.2-3.9 1.6-2.3 1.1c-.8.4-1.6.8-2.4 1l-3.2 1.3c-1 .4-2.2 1-3.3 1.3a162.3 162.3 0 0 0-11.5 4.8l-3.1 1.1c-.5.3-1.4 0-1.3-.3l.2-.1c1-.6 1.8-1.3 3-1.8l5.2-2.2Z"/><path fill="#141414" stroke="#141414" stroke-miterlimit="10" stroke-width=".3" d="m74.3 33.5-4.5 2c-.5.2-1 .3-1.6.8-.3.2-.9.2-1.4.4l-4 1.8-4 1.8-4 1.6c-1 .6-2 .8-3.1 1.3l-3.5 1.4-2.4.9-1.5.7c-.5.2-1 .3-1.5.8h-.4l-1.7.7-1.2.6-3.5 1.4c-.9.3-1.8.5-2.6.9l-2.7 1c-.9.2-1.6.5-2.5.9-.5.2-1 .2-1.4.6l-.3.1-1.9.7-.4.2-.4.2-.2.1v.2l.1.3.5 1 1 2.2c.1.4.2.8.6 1.1l.3.7c.3 1.2.8 2.3 1.2 3.4l1.4 3.9c.2.6.4 1.3.9 1.9l.5 1.3.6 1.1.2 1 .2.4c.8 1.8 1.3 3.7 2 5.6l2 5.7c.4 1 .8 2 .6 3 0 .4-.3.3-.5 0s-.5-.6-.6-1l-.8-1.7c-.5-1.2-1.1-2.3-1.5-3.6l-.3-1.2-.1-.3c-.8-1.6-1.3-3.3-2-5-.5-1.5-1.3-2.8-1.7-4.3a10 10 0 0 1-1.1-2.4c-1-3-2.2-5.7-3.4-8.6l-1-2.4-1.4-3.3 2.6-1 1.7-.7 1.4-.6c.6-.1 1.3-.4 1.8-.7l1.7-.6c2.2-.7 4.4-1.6 6.5-2.5l6.5-2.5 3.8-1.7c.6-.3 1-.5 1.8-.6.2 0 .6-.4 1-.6l2.6-1 3.7-1.6 2.2-1 2.4-1 3-1.2c1-.4 2-1 3-1.3 2-.7 3.8-1.5 5.6-2.3l5.5-2.3c1-.5 2.2-.8 3.1-1.1.5-.2 1.2-.2 1.3.2l-.2.2c-.9.6-2 1.3-3 1.7l-4.8 2c-1 .4.2 0-.3.2v.1ZM93.5 68.2l-2.8 1.2c-.4.1-.8.2-1 .5l-1 .2-2.6 1.1-2.6 1.2c-.8.3-1.8.6-2.5 1s-1.4.5-2 .8c-.8.3-1.5.7-2.3.9l-1.5.5-1 .5c-.3.1-.7.2-.9.5h-.2c-.4 0-.8.3-1.1.5l-.8.4-2.2.8-1.6.6-1.7.7-1.6.5c-.3.1-.7.2-.8.4l-.2.1c-1 .1-1.6.8-2.5 1L58 82.7l-.7.4-.4.2c-.8 0-1.4.5-2.1.7-.8.3-1.5.7-2.3.8-.4.1-.9.2-1.2.6l-.8.3-.6.4-.7.1-.2.1c-1 .6-2.2.8-3.4 1.3-1 .6-2.2 1-3.4 1.4-.6.3-1.3.5-1.9.3-.2-.1-.3-.3 0-.5l.5-.4 1-.5c.8-.4 1.4-.8 2.2-1l.7-.3h.2c.9-.7 2-.9 3-1.4.9-.3 1.6-.9 2.6-1.1.4-.4 1-.6 1.5-.8 1.8-.4 3.4-1.3 5.1-2l5.3-2c.3-.2.5-.4.9-.4.3 0 .7-.3 1.1-.5l1-.4c1.5-.4 2.8-1 4.2-1.6 1.4-.5 2.8-1 4-1.6l2.5-1.1c.4-.1.7-.4 1.2-.4l.6-.3 1.7-.7 2.4-1 1.3-.7L85 70l2-.7 2-.8c1.2-.3 2.3-.8 3.5-1.3l3.5-1.4 2-.7c.3 0 .9.2.8.4l-.1.1c-.6.4-1 .9-1.8 1.2l-3.2 1.3v.1ZM92.7 75.7l-2.6.8c-.3.1-.7.1-1 .4l-.7.1-2.4.8-2.3 1-2.3.7c-.7.3-1.3.3-1.9.6-.6.2-1.3.5-2 .6l-1.4.4-.8.4c-.3 0-.7 0-.9.4h-.2c-.4 0-.8.1-1 .3l-.7.3-2 .7-1.5.3c-.5.2-1 .5-1.5.5s-1 .2-1.4.4c-.3 0-.6 0-.8.3l-.2.1c-.8 0-1.4.6-2.2.8l-2.4.7c-.3.1-.5.1-.6.3l-.4.2c-.7 0-1.3.3-1.9.5-.7.1-1.4.5-2.1.5-.3 0-.7.2-1 .5l-.8.2-.6.3-.5.1h-.2c-1 .6-2 .6-3 1l-3.2 1c-.5.2-1.1.3-1.6.1-.3-.1-.3-.3-.1-.5.1-.1.3-.3.5-.3l1-.5c.6-.2 1.2-.6 1.9-.7.2 0 .4-.3.7-.2h.1c.8-.5 1.8-.6 2.7-1 .8-.3 1.5-.7 2.3-.8.4-.4 1-.5 1.4-.6 1.6-.3 3.1-1 4.7-1.4l4.7-1.5c.3-.1.5-.3.8-.3.3 0 .7-.3 1-.4.4 0 .7-.2 1-.3 1.3-.2 2.5-.7 3.7-1l3.7-1.3 2.3-.8c.3 0 .6-.3 1-.2 0 0 .3-.3.5-.3l1.6-.5a54 54 0 0 0 2.1-.7l1.3-.5 1.4-.5 1.8-.5 1.8-.5c1-.2 2.1-.7 3.2-1l3.2-1c.6-.3 1.2-.3 1.7-.5.3 0 .8.3.8.5l-.1.1-1.7 1-3 .9Z"/><path fill="#141414" stroke="#141414" stroke-miterlimit="10" stroke-width=".3" d="m46.5 47.4 2.5-1c.3 0 .7-.1 1-.4 0-.1.4 0 .7-.2l2.4-.9 2.2-1 2.3-.8c.6-.4 1.2-.4 1.8-.7a13 13 0 0 1 2-.7l1.4-.4.8-.5c.3 0 .7-.1.8-.4h.3c.3 0 .7-.2 1-.4l.6-.3 2-.8 1.5-.4 1.5-.6H71.6l.5-.2h.4v.1l.5.2.1.2.1.2v.1l.2.1.3.2.1.1.4.5.4.3 1 .4 1 .5 1.2.1h2v-.1h.1l.4-.1.5.1h.1l.2.1.3.1.3.7.2.4c.2.3.3.5.3.8.1.3.3.7.6 1 .2.1.2.5.4.7l.4.5.1.6.1.1c.7.9.9 2 1.4 2.9l1.5 3c.2.5.4 1 .3 1.6-.1.2-.3.3-.5.1a2 2 0 0 1-.4-.5l-.6-.8c-.3-.6-.8-1.1-1-1.8-.1-.2-.3-.4-.2-.7v-.1c-.7-.7-1-1.7-1.5-2.6-.4-.7-.9-1.3-1.2-2.1-.4-.3-.6-.8-.8-1.3l-.3-.7-.1-.4V42H79.8l-.3.2h-2.3l-.3-.1h-.5V42h-.2l-.1-.1h-.2a8.4 8.4 0 0 1-3-1.8c-.2-.2-.4-.3-.6-.7v-.1l-.1-.1H72l-.4.1c-1.3.3-2.5.9-3.7 1.3l-3.6 1.4-2.2 1c-.3 0-.6.3-1 .2l-.6.3-1.5.6-2.1.8-1.3.6-1.3.5-1.8.6c-.6.2-1.1.5-1.7.6-1.2.3-2.2.8-3.2 1.1l-3.1 1.2-1.8.6c-.3 0-.8-.3-.7-.5.5-.4 1-.9 1.6-1.1l3-1-.1-.2Z"/><path fill="#141414" stroke="#141414" stroke-miterlimit="10" stroke-width=".3" d="M85.7 57.5c0 .5.1.9.3 1.3l.2.7v.1l.1.2.1.1v.2l.4.5.1.3h-.1l-.2.1-.4.2c-.3 0-.5.2-.7.4h-.1l-.3.1a2 2 0 0 0-.5.1l-2.5 1-2.4 1.2-2.5 1c-.6.4-1.3.5-2 .8l-2 .8-1.5.6-.9.5c-.3 0-.7.1-.8.4h-.3c-.4 0-.8.3-1 .5l-.7.4-2.1.8-1.6.5c-.6.3-1.1.6-1.6.7l-1.5.5c-.3.2-.7.2-.8.5h-.2c-1 .1-1.6.8-2.4 1l-2.5 1c-.2.2-.5.2-.6.5l-.5.2c-.7 0-1.3.4-2 .6-.7.3-1.4.7-2.2.8a2 2 0 0 0-1 .6l-.8.3-.6.4-.6.1-.2.1-.2.1h-.1l-.1.1-.4.2H45.4l-.2-.1-.1-.1-.1-.2h-.1l-.1-.1-.1-.1-1.3-.8H43l-.3-.2h-.4l-.4-.1c-.6 0-1.1-.1-1.6 0h-1l-.7-.1c-.2-.1-.2-.2-.2-.3v-.2l.7-.4 1.1-.3 1.2-.2H42l.6.2h.4l.2.2h.2l.2.1h.2l.2.1.4.1.2.1.2.1.2.1.1.2h.2l.2.2.2.1v.1l.1.1H46.2l.3-.2.5-.3c.4-.3.8-.5 1.3-.6a3 3 0 0 1 1.4-.7c1.7-.5 3.3-1.3 5-1.9l4.9-2 .9-.4c.3 0 .7-.3 1-.4l1-.4c1.4-.3 2.7-1 4-1.5l3.9-1.6 2.3-1.1c.3-.1.6-.4 1-.3l.7-.4 1.6-.7c.7-.3 1.5-.5 2.2-.9.5-.2.9-.5 1.4-.6.4-.3.9-.5 1.4-.6l1.9-.7 1.9-.8h.5V60l-.2-.3-.4-1.2c-.1-.6-.2-1.3-.1-2v-1l.2-.5V55l.2-.2v-.2l.2-.3.2-.3.2-.2.8-.7.6-.1.2.1v.2l-.5.8-.4.8v.2H86v.1l-.1.2-.1.2v.1l-.1.2v1.8l-.1-.1Z"/><path fill="#141414" stroke="#141414" stroke-miterlimit="10" stroke-width=".3" d="m37 74-.5-1c0-.2 0-.4-.3-.5v-.3l-.4-1-.5-1-.4-1-.3-.8-.3-.9c0-.2 0-.4-.2-.6l-.2-.3c0-.1 0-.3-.3-.4.1-.2 0-.4-.1-.5l-.2-.3-.3-.8-.2-.7-.2-.7V63l-.1-.1v-.2l-.2-.3c0-.1 0-.2-.2-.3v-.4l.2-.3.3-.2.1-.1v-.1h.1l.2-.2.7-.7s.2-.1 0-.3l.2-.1.2-.1.1-.2.2-.3.2-.2v-.2l.2-.1.2-.2.1-.2v-.8l.2-.2v-.5l.1-.2.1-.3v-1.6c0-.3 0-.5.4-.7h.5l.2.2.2.5v.2l.1.2v.5l-.1.3v1.1l-.1.4V58l-.1.1v.5l-.1.1v.1l-.2.1-.7 1-.7.9-.8.8-.2.1-.1.2h-.1v.1l.1.3.2.4c0 .6.3 1.1.5 1.6l.6 1.6.5 1c0 .1.2.2 0 .4l.3.2.3.7.3 1 .4.4.2.6c0 .3 0 .6.2.8l.2.8c0 .5.3 1 .5 1.4l.5 1.4c.2.3 0 .6.2.8l-.5.5H38c-.3-.2-.6-.3-.7-.6l-.5-1.3ZM48.2 61.7l-.4-.4-.1-.1h-.2V61H47l-.1-.1H46l-.1.1h-.1l-.1.1h-.1l-.2.1v.1h-.1l-.1.2H45v.4h-.1v.2h-.1V63.2l.1.2v.4l.1.1s0 .2.2.1v.2h.1c.1 0 .2 0 .3.2h.1v.1H46s.1.1.2 0l.1.1h.7l.1.1h.1l.1-.1.2-.1v-.2h.2V64h.2v-.1h.2v-.2l.3-.6.1-.2.4-.1h.5l.2.2V63.7l-.1.4s0 .2-.2.2l-.2.5-.2.2c-.1 0-.2 0-.2.2h-.1l-.1.1-.1.2-.2.2H48l-.1.2-.1.1H45.5l-.1-.1-.2-.1-.2-.1-.2-.2-.7-.5-.1-.1-.1-.2-.1-.2-.1-.1-.1-.2v-.5l-.1-.2V62.6c0-.5.1-1 .3-1.4v-.2l.1-.2.1-.2.2-.2.1-.1h.3V60h.2l.1-.1.2-.1v-.1h.2v-.1h.3l.2-.1h.2l.2-.2h.8l.7.2.4.1.1.1.2.2.2.2v.1l.2.1v.1l.2.1v.1l.2.1.5 1.1v.6l-.3.2h-.6l-.1-.2h-.1l-.1-.2V62l-.1-.1-.1-.2h-.1ZM73.5 52.3c0-.2-.2-.4-.3-.5H73s-.1-.1-.2 0v-.2h-.2v-.1h-1.3l-.1.1H71l-.2.1v.1l-.1.1h-.1l-.1.1h-.2v.4l-.2.1.1.1-.2.1.1.1V53.7l.1.1v.4l.1.1c0 .1 0 .2.2.1v.2c0 .1.1 0 .1 0 .1.1.2 0 .3.2l.1.1h.2l.1.1h.2c0-.1 0-.1 0 0h.1l.1.1h.8l.1-.1.1-.1.1-.1h.1l.1-.1v-.1h.1l.1-.1.1-.1.1-.1.3-.7.1-.1.4-.2h.5l.1.2v.2l.1.2v.4l-.1.3s0 .2-.2.2c0 .2-.1.4-.3.5 0 .1 0 .2-.2.2l-.2.2-.1.2-.2.1-.1.2h-.3v.2l-.1.1H73c0 .1-.1 0-.2 0H71l-.1-.1-.2-.1-.2-.1-.2-.1-.7-.6-.2-.1v-.1l-.1-.2-.1-.2-.1-.1V54.1l-.1-.2v-.8c0-.5.1-1 .3-1.4v-.2l.1-.2.1-.2.2-.1V51h.1l.2-.1.2-.3h.1l.1-.1.2-.1.2-.1.3-.1.2-.1h.2l.2-.1.2-.1h.6c.3 0 .5.2.7.3h.4l.1.1.1.2.1.1.1.1.1.1.1.1.2.1v.1l.2.1v.1l.6 1.1v.7l-.3.1h-.6L74 53l-.1-.1v-.4l-.2-.1v-.2h-.2ZM56.1 52.3l-.3.5-.1.2v.1l-.1.1v.2l-.1.3v.4l-.1.3v1.3l.3 1.3.2.6.2.6.2.3v.2l.2.5.5 1c0 .2.2.5.4.6 0 .1 0 .2.2.2l.2.2v.2h.3v.2l.2.3.2.1.4.2.8.6.6.4H61l.1.1h.5l.1-.1V63H62v-.1l.2-.1v-.4l.2-.3.2-.5.1-.6v-.4c-.1 0-.1-.1 0-.2v-2.5l-.1-.1-.1-.1-.2-.4-.2-.3v-.4l-.4-.8c0-.3-.1-.6-.3-.8l-1-1.5c-.2-.2-.3-.5-.2-.9 0-.2.2-.3.3-.3l.4.1.3.2.2.2.5.4.2.3.1.2c0 .1.3.2.2.4v.1l.5.7.4.9.1.3.2.3.2.3v.4c.4.2.4.5.4.9v3l-.3 1.5-.4.8-.6.7h-.1l-.1.2-.3.1-.2.1H62l-.4.2h-.8l-.6-.1-.4-.1h-.1l-.2-.1-1-.6c-.7-.5-1.3-1.1-1.8-1.7-.3-.3-.7-.6-.9-1.1l-.2-.3v-.3l-.1-.1-.2-.2-.2-.4-.2-.5-.5-1.3c0-.3-.2-.5-.3-.8v-.4l-.1-.5v-2.3l.4-1 .5-1c.2-.3.4-.6.8-.8l.2-.2h.1l.2-.1c.1-.2.3-.2.5-.3h.7l.6.2s.2.1.2.3v.4H58l-.5.2-.4.1-.6.2a2 2 0 0 0-.5.4Z"/></svg>