<svg xmlns="http://www.w3.org/2000/svg" width="120" height="120" fill="none"><path stroke="#B4E41D" stroke-linejoin="bevel" stroke-width="26.7" d="m43.8 108.6-30-63.2 71 52.1L36 20.1 106.2 68 81.7 11.4"/><path fill="#fff" d="M82.8 48.7a23.7 23.7 0 0 0-23.4-23.2A22.2 22.2 0 0 0 37.6 49l1.5 7.3c2.8 10.9 15.7 27 19.5 32.3.5.7 1.4.7 1.8 0l16.8-23c3-5.2 5.8-10.5 5.5-17ZM59 62.4a14 14 0 1 1 1.1-28 14 14 0 0 1-1 28Z"/><path fill="#141414" d="M65.8 58.8c1-.6 2-1.4 2.8-2.3.3-.4.7-.7.7-1.3 0-.3.6-.4.8-.8.5-1 1-2 1.3-3.1.1-1.1.2-2.3 0-3.3 0-1.1 0-2.3-.6-3.2-.4-.8-.4-1.6-1-2.4l-1.6-2.2c-.3-.6-.8-1.1-1.3-1.5-.4-.2-.8-.2-1.2-.5-.4-.2-.7-.6-1.2-.3l-.3-.2c-.3-.5-.8-.7-1.2-.6h-1l-2.7-.3h-2c-.8.1-1.4.6-2.1.6-.7 0-1.3.4-1.9.7-.3.2-.8.3-.8.8l-.1.2c-1.3.2-1.5 1.5-2.2 2.3-.8.8-1.3 1.9-1.6 2.9-.1.3-.3.6-.1.9l-.1.5c-.6.8-.4 1.7-.5 2.5-.1 1 .2 2 0 3 0 .4.2 1 .7 1.3.2.2.3.7.4 1l.6.6.2.8.2.2c1.1.9 1.7 2.3 3 3 1.2.7 2.5 1.4 3.9 1.8.4 0 .8.2 1.1.4.4.2.7.4 1 .9.2.3.2.7-.2.9-.3.1-.6.3-1 .3l-1.6-.1c-1-.2-2.3-.2-3.3-1-.3-.2-.8-.2-.8-.7l-.2-.2c-1.6-.4-2.7-1.8-3.7-3-.8-1-2-2-2.3-3.4-.7-.5-.9-1.5-1-2.3-.1-2.7-.2-5.5.7-8.1 1-2.6 2.5-5 4.7-6.8.4-.3.6-.7 1.1-.8l1.6-1 1.5-.6c2.2-.3 4.3-.8 6.4-.6 2.2.2 4.2 1 6.1 1.9 1.1.6 2.4 1.2 3.2 2.2.4.4 1 .8 1 1.4 0 .2.6.5.8.8a16.4 16.4 0 0 1 2.4 6c.1.7.4 1.4.4 2.3a10.1 10.1 0 0 1-1.2 5.3c-.5 1-.8 2-1.5 2.8-1.4 1.4-2.5 2.8-4 3.9-1.6 1-3.3 1.7-5 2.2-1 .3-2 0-3 0-.5 0-1.1-1-.9-1.3l.2-.1c.9-.4 1.6-.9 2.5-1 1.4-.2 2.7-.8 3.9-1.5Z"/><path fill="#141414" d="m79.6 63.5-1 1.8-.3.5-.3.5-.6.8-2.4 3.3c-.5.8-1.3 1.5-1.6 2.5-.2.5-1.1 1.1-1.6 1.8L67.4 81l-4.2 6-.7 1-1 1.3c-.3.6-.8 1-1.5 1.1-.6.2-1.3 0-1.8-.4l-1.1-1.4-.7-.8C55 86 54.2 84.5 53 83a58.4 58.4 0 0 1-3.7-5L47 74.1 45.3 72c-.5-.8-1-1.8-1.6-2.3l-.3-.7c-.3-1-1-2-1.5-2.7-.5-.6-.8-1.3-1.2-2-1-1.8-1.8-3.8-2.5-5.8-.5-1.7-.7-3.2-1-4.7l-.4-2.4-.3-1.2-.1-.6c0-.1-.1-.6 0-.8l.2-2.3.2-2.2c.2-.9.6-1.8.4-2.6l.1-.6c1.1-2.2 1.7-4.6 3.2-6.7 1.6-2.1 3.4-4.1 5.5-5.7.6-.4 1.3-.8 1.7-1.3.2-.3.8-.6 1.2-.7 1.9-.6 3.8-1.4 5.8-1.9 2.2-.4 4.6-.7 6.9-.2l1.6.3 1.8.1c.6 0 1.6.4 2.4.7.7.3 1.4.3 2 .6l1.5 1 .5.3c3 1.3 5.3 4 7.4 6.6A23 23 0 0 1 83.6 46c0 1-.2 1.8-.4 2.4-.3.6-.6.6-.8-.2l-.5-1.8-.7-2.8c-.6-1.9-1.7-3.6-2.5-5.4-.3-.6-.8-1.1-.9-1.7l-.2-.4c-2-2-3.7-4.2-6-5.7-2-1.3-4.3-1.9-6.4-2.7-1.4 0-2.8-.3-4.1-.5-4.5-.7-9.3.7-13 3.3a21 21 0 0 0-8.8 13.4c-.3.8-.3 2-.4 3V49.5c.2 1.9.6 3.8 1 5.7.1 1 .4 1.8.7 2.7l1 2.6c1.5 3.5 3.4 6.9 5.5 10l4 5.8c.6.9 1.3 1.6 1.6 2.6.1.3.9 1 1.3 1.4l2.9 4 2 2.7.4.5.1.2h.3v-.2l.9-1.3 1-1.5a124 124 0 0 1 2.5-3.5l3.3-4.3c1.2-1.5 2.2-3.1 3.4-4.5 1-1.3 2.1-2.6 3-4l1.6-2 .7-1 .2-.2.1-.2.3-.5c1.7-2.9 3.2-5.8 4-8.9.5-1.7 1.1-3.3 1.2-5 0-.8.9-2 1.2-1.6l.1.3c.3 1.8.5 3.7 0 5.7-.8 3.1-2.1 6-3.6 8.7v-.2Z"/><path fill="#141414" d="M67.6 47.5c0-2.7-2-4.9-4.5-4.9-1.4 0-2.7.8-3.5 1.9-.8-1.1-2-1.9-3.4-1.9-2.5 0-4.5 2.2-4.5 4.9 0 1.5.7 3 1.8 3.8l6.2 5 6.1-5a5 5 0 0 0 1.8-3.8Z"/><path fill="#141414" d="m67.4 46.3-.3-.8-.1-.2c0-.2-.2-.4-.3-.5l-.4-.6-.4-.4-.2-.2-.2-.1-.1-.1-.5-.3h-.2l-.2-.1-.6-.2h-1.4c-.6 0-1.2.3-1.8.7l-.1.1-.2.1-.1.2-.3.2-.2.2-.2.3-.1-.2-.2-.2-.2-.2a5 5 0 0 0-1-.8l-.6-.3H57c-.3-.1-.6-.2-1-.1H55l-.1.1h-.1l-.2.1-.7.4-.2.1-.1.1c-.2 0-.3.2-.4.3l-.8 1-.1.3-.2.3v.2l-.1.1v.3l-.1.3v2.2l.3.9.2.3v.2h.1l.2.3v.1l.2.2.2.2.1.1h.1l.3.3v.1-.1l.1.1.1.1.4.3.4.4h.1l.1.1 1 .9.3.2.1.1.4.3.2.2c.2 0 .3.2.5.4l.2.1c.1.2.3.2.4.3l.1.2h.2l.1.2a1.4 1.4 0 0 1 .3.3h.2l.1.2.2.1.1.1v.1h.1l.2.2.2.1.6-.5.1-.1.6-.4.3-.3.4-.3.3-.3.2-.2.3-.2.3-.2v-.1l.3-.3h.1l.3-.2.7-.6v-.2l.8-.5.8-.7v.2l-.1-.1.1-.1.2-.2h.2l.1-.3.2-.3.2-.2.2-.4.3-.7v-.1l.2-.7v-.5l.2-.4v1l-.1.3v.2l-.1.1-.1.3-.5 1-.5.6-.4.4v-.1h.1l-.1.1-.3.2-.1.1h-.1l-.3.4h-.2l-.1.1-.3.3-.1.1-.2.2h-.1l-.4.4-.3.2-.8.8-.3.1-.2.2H62l-.1.2h-.1l-.1.2-.2.1-.1.1-.1.1-.2.2H61l-.2.3-.2.1-.3.2-.1.1s0 .2-.2.2l-.3.3-.5-.4-.3-.2-.5-.4-.4-.4-.2-.1v-.1c-.2 0-.3-.2-.4-.3l-.2-.2c-.2 0-.3-.2-.4-.3l-.1-.1h-.2l-.1-.2-.2-.1-.2-.2-.2-.1-.3-.3-1-.9-.4-.3-.6-.5-.2-.1.2-.1v.2l-.2-.2-.2-.2a.7.7 0 0 1-.2-.3h-.1l-.1-.2-.1-.1-.1-.2-.1-.1-.2-.4-.2-.7-.1-.3v-.1l-.2-.7v-1.5l.1-.2V46l.1-.3.2-.4c0-.2 0-.2.3-.5 0-.1 0-.2.2-.3v-.1l.4-.5.2-.1v-.2h.1l.7-.5h.2c.1-.2.3-.2.5-.3l.3-.1.3-.1h1.4c0-.1.2 0 .2 0h.5l.3.2.6.2.2.2h.1l.7.6.4.5V44h.1V44l.1-.1.2-.1v-.1l.4-.3.3-.2.1-.1.3-.1.3-.2.3-.1.3-.1.3-.1H64l.9.3.3.2h.2l.2.2h.1l.3.3.4.3.1.2.1.1.2.2.2.3.3.6.2.4v.2l.2.5v1.1l-.1-.2-.2-1v.1Z"/></svg>