<svg xmlns="http://www.w3.org/2000/svg" width="120" height="120" fill="none"><path stroke="#B4E41D" stroke-linejoin="bevel" stroke-width="26.7" d="m43.8 108.6-30-63.3 71 52.2L36 20.1 106.2 68 81.7 11.4"/><path fill="#fff" d="M46 88.2c11 17.4 55-17 51.4-26.3-4.5-11.8-20.1-14-32.3-8.2-12.2 5.8-27.5 21.2-19 34.5Z"/><path fill="#141414" d="M50.3 26.8c.7-.5 1.5-1 2.3-1.3.3-.1.6-.2.9-.5.1-.2.5 0 .8 0l2.4-.6c.8 0 1.6-.3 2.4-.2l2.4.2c.7 0 1.3.5 1.9.7.7.2 1.3.6 1.9 1.1l1 1.1c.3.2.6.3.8.6.2.2.3.6.6.7l.1.2c0 .4.2.8.4 1l.4.7.5 2 .1 1.5c0 .5.2 1 .1 1.5v1.4l.1.7v.2l.1 2.2v2.4l.1.6c0 .1.1.3 0 .4l-.3 1.8c-.1.7 0 1.4-.5 2-.1.3-.3.6 0 1l-.3.8v.6c0 .2-.2.3-.3.4v.2c0 1-.8 1.8-1 2.8a16.2 16.2 0 0 1-2.2 4c-.1.2-.1.1 0 0v-.6l.2-1c.2-.6.1-1.3.4-1.9 0-.2 0-.4.2-.5v-.2c0-.9.3-1.7.5-2.6.2-.7 0-1.5.3-2.2-.2-.5 0-1 .1-1.3.7-1.4.9-2.9 1.3-4.3.3-1.5.6-3 .7-4.5v-1.8l-.2-.8c0-1.2-.5-2.3-1-3.4-.4-1-1-2-1.8-2.7-.5-.5-1-.8-1.6-1.1-.2-.2-.5-.2-.6-.6h-.6l-1.2-.4c-.6-.1-1.2-.3-1.9-.3l-1.1.1h-1.2c-.6 0-1-.2-1.6-.1-.6 0-1 .2-1.6.1-1 0-1.9.4-2.8.7-.9.4-1.7 1-2.5 1.6l-1.2 1.1-.4.4.1-.1.7-1.6a9 9 0 0 1 2.1-2.2Z"/><path fill="#141414" d="m76.7 85.8-2.4 1.7c-.2 0-.2.3-.4.4-.6.4-1 1-1.8 1.2-.7.3-1.3.8-1.8 1.3l-1.6 1.3-.7.4c-.2 0-.5.2-.6.5l-.2.1H67c-.4.7-1.1 1-1.7 1.4l-.4.3-.2.2-.4.1-2 1c-.2.5-.6.5-1 .6l-.8.2c-.3.1-.6.3-.9.1l-.2.1-1.1.3h-.6c-2.3.1-4.6-.8-6.4-2l-.6-.2a.8.8 0 0 1-.6-.4c0-.3-.3-.4-.5-.5l-1-.9c-.2-.2-.5-.3-.5-.6v-.1c-.5 0-.5-.4-.7-.6a1 1 0 0 0-.5-.4c-.2-.1-.5-.4-.5-.6l-.5-.7-1.4-1.8c-.5-.6-.8-1.3-1-2-.4-.7-.9-1.3-.9-2V83.2c-.3-.1-.2-.3-.3-.6v-3l.2-2.4c0-.3.3-.5.4-.7l.2-.7v-.5l.1-.4c.3-.2.3-.5.4-.8l1.1-2.5c.1-.2.1-.4.4-.5V71l.1-.3c.6-.3.7-.9 1-1.4.8-1.2 1.5-2.4 2.4-3.5l.5-1 .7-.9c.2-.1.3-.4.7-.5l.2-.2c0-.4.3-.5.5-.8.2-.3.6-.5.6-.9l.4-.3.6-.5.2-.3c.6-.8 1.3-1.5 2-2.1l2.4-2c.7-.6 1.6-1.1 2.4-1.6.4-.2.6-.6 1-.5.3-.4.6-.4 1-.4l.1-.1c.2-.2.3-.6.7-.5.3 0 .3-.4.6-.4l.7-.2c.3 0 .5-.2.7-.3.2-.1.6 0 .7-.4h.4c.5-.3 1.1-.2 1.6-.7l.4-.2c.6.1 1-.2 1.5-.4.6-.2 1.3-.5 2-.3h.4c.1-.2.3-.2.4-.2l4.4-.6c.4 0 .8.2 1.2.1h.5l.1-.1c.5.2 1 0 1.5 0l.3.1c.1 0 .3.1.4 0 .7-.2 1.5.1 2.3.1.3 0 .5.2.8 0h.2c.4.4 1 .3 1.4.5.2 0 .5 0 .6.3h.5l.8.3.9.2.4.3.4.2c.3 0 .5.1.7.3.2.1.5 0 .6.2.1.2.4.1.6.2l.3.2.2.2.5.2.4.3.5.4.4.3c.8.2 1.3.9 1.9 1.4.1.1.4.2.3.5l.1.1c.7.4 1 1.1 1.5 1.7.3.5.7.9.9 1.4l.5 1.5c.2.4.4.8.4 1.2 0 .4.6.7.3 1.1l.1 1.2c.1.4.2.7 0 1.1v.5c.2.4.1.9 0 1.3v.4c0 .3 0 .7-.2 1l-.4 1.7-.6 1.5-.2.6c-.9.7-1.4 1.7-2.3 2.4-1.2.9-2.3 2-3.5 2.8-.2.1-.5 0-.5.2-.2.3-.5.3-.6.6-.3.4-.7.5-1 .8-.2.2-.6.2-.7.6l-.2.1c-.5 0-.7.6-1.1.7-.6.7-1.4 1-2.1 1.5l-.3.3-.2.1c-.8.1-1.4.8-2 1.1-.3.1-.6.1-.8.3-.2 0-.4.3-.7.2l-.3.2c-.5.4-1 .3-1.4-.2-.1-.2 0-.3 0-.4l.6-.7c.2 0 .5-.1.6-.4l.1-.1c.5 0 .8-.4 1.2-.5.3 0 .5-.2.8-.3.2-.1.3-.4.6-.3l.4-.3c.3-.3.6-.5 1-.6l2.9-2c.5-.7 1.4-1 2-1.5l2.3-2 .5-.2.3-.2 1-.9c.2-.2.3-.5.7-.5l.1-.1c.1-.5.5-.7.7-1l.4-.4c.2-.1.3-.4.3-.6l.2-.4c.2-.5.6-1 .5-1.6.4-.2.4-.6.4-1 0-1.1.2-2.3 0-3.4v-.9c0-.3 0-.6-.2-1 0 0 0-.3-.2-.4v-.6l-.3-.4-.3-.5V60c-.3 0-.2-.3-.3-.5l-.3-.4-.2-.5-.3-.5-.6-.5a4 4 0 0 1-.5-.7l-.6-.8a.7.7 0 0 0-.4-.2c-.2 0-.5 0-.5-.4l-.3-.2c-.8-.1-1.2-.9-2-1.1-.2-.4-.6-.5-1-.6-.6-.2-1.3-.4-1.8-.8-.6-.4-1.3-.4-1.9-.7-.2 0-.4 0-.5-.2l-.2-.1c-.6.1-1.1 0-1.6-.3h-1l-1.5-.2c-.2-.3-.4 0-.5.1l-.5.1c-.2 0-.4 0-.7.2h-.5c-.1-.2-.2-.1-.3 0l-.6-.2c-.3 0-.6.2-.8-.1H77c-.4.3-.9 0-1.4.1-1.3-.2-2.7.3-4 .5-.5 0-1.1 0-1.6.2-1 .6-2.2.8-3.3 1.2-.2.1-.4.3-.8.2h-.1c-.3.4-.6.5-1 .5l-.3.1c0 .3-.3.3-.4.3l-.6.2c-.1.3-.3.2-.5.3-.2 0-.2.1-.3.2l-.1.1c-.5 0-.7.5-1 .6l-.3.1c-.9.3-.9.3-1.8 1-.4 0-.4.6-.9.6l-.4.3c-.4.6-1 .9-1.5 1.4-.1.1-.4 0-.4.3l-.4.2c-.2.2-.4.2-.5.6l-.3.3c-.1.2-.4.2-.4.5 0 .2-.2.4-.3.4-.7.1-.8.7-1 1.1-.2.2-.2.3-.4.3l-.5.5c0 .4-.3.5-.5.8l-1 1.1-1 1.5c0 .3-.3.7-.7.8v.3l-1.3 1.8c0 .2-.4.2-.3.4.1.3-.4.2-.2.5v.2c-.7.6-1 1.4-1.4 2.2-.1.2 0 .5-.4.5 0 .6-.7 1-.5 1.5-.2.4 0 .8-.4 1l-.1.3c-.2.2.1.4-.2.6l-.2.7-.1.6-.1.7-.1.7c0 .5.2 1 .1 1.4v.2c.4.1.2.4.1.5l-.1.4.2 1.2c0 .2.2.5 0 .7v.4c.4.4.5.9.7 1.4l.3.6c0 .1.2.2.2.5.8.5 1 1.3 1.6 2l1.9 2c.1.1.4.2.4.5l.2.2c.2 0 .3 0 .3.2l.2.1c.2 0 .3.1.4.3 0 .2.2.4.3.4.4.2.7.3.9.7h.3c.2.2.6.3.7.6.1.2.3.2.4.3l.8.3.8.4c.3.2.6.2 1 .2l.8.2h1.8l.9-.2h.6a3 3 0 0 0 2-.7l.2-.1 2.2-1.3 1.1-.5.5-.5c.1-.3.5-.3.6-.6l.4-.3c.4 0 .7-.4 1-.6l1.2-.8c.2-.2.4-.3.5-.6l.5-.3c.3 0 .5-.2.6-.4.4-.4.4-.4 1-.6l.1-.1c.5-.4 1.1-.7 1.6-1.2l1.2-1c.2-.2.4-.4.6-.3h.2c.2-.6.7-.7 1.1-1l1-.8 1.2-.7c.6-.4.8-.3 1.1.3.3.5.2.7-.2 1-.8.8-1.9 1.2-2.6 1.8v-.1Z"/><path fill="#141414" d="M45.2 74S38 95.3 60.5 95.3L65 93s-16.7-9-17-25.4L45.2 74Z"/><path fill="#141414" d="M53.4 84.2h.1l.2.2.3.1.1.3.2.2.1.3h.3l.1.3h.4v.3l.2.3.2.1.2.2.1.3.2.2s.4-.2.5-.1l.1.3h.3l.2.3v.3l.2.2.2.1.3.1v.3c.2 0 .1.2.2.2h.3l.2.2.1.3h.3l.2.2h.2l.3.1v.2l.2.2v.3l.2.3.2.2h.3v.4h.5l.1.3h.3l.3.2.1.2.2.3.2.1.3.3.3.3 1.2-1.8-.3-.1-.3-.2-.1-.1h-.6v-.4l-.4-.1-.2-.1-.2-.3h-.2l-.2-.3-.1-.3H61v-.2h-.3c0-.2-.1-.2-.2-.3l-.2-.2-.2-.2-.1-.2h-.3l-.2-.2-.1-.3-.2-.2h-.2L59 87c-.1 0-.2 0-.3-.2l-.1-.1-.3-.2-.2-.1-.2-.2-.1-.2-.1-.2h-.3l-.2-.2-.3-.1-.2-.2-.1-.2-.1-.3-.1-.3-.1-.2-.2-.1-.3-.2v-.2l-.3-.1-.2-.2-.1-.3v-.1L55 83l-.2-.2-1.6 1.3h.1v.1Z"/><path fill="#141414" d="M47.7 72.5v.1l.1.2.2.3V74l.3.1v.3l.3.2-.1.3v.3l.1.2.2.3v.5c0 .1.5 0 .6.2v.2l.2.2v.8l.2.2.2.2v.6l.3.2v.3c.1 0 0 .2.2.2l.2.2.1.2.2.1.2.2v.2l.1.2-.1.4v.2l.1.3.3.2v.3c0 .1.4 0 .4.2v.2l.3.2.2.2v.6l.3.2.1.3.3.4 1.6-1.3-.2-.2-.2-.2-.1-.2H54l-.2-.2v-.3l-.3-.2-.1-.2-.1-.3-.2-.1-.1-.3-.1-.3-.3-.1v-.3l-.1-.1-.2-.3-.1-.3-.1-.2-.1-.2-.2-.2-.1-.2-.1-.2v-.3l-.2-.2v-.3l-.2-.2V77l-.2-.2-.2-.2-.1-.2v-.5l-.3-.2v-.2l-.3-.2V75l-.1-.2v-1.1l-.2-.2v-.3l-.2-.2-.1-.2V72l-2 .4v.2h.2ZM45.3 83.7l-.1-.3-.2-.2V82l-.3-.2.2-.3v-1.1l.1-.2-.4-.3.1-.3s-.1-.1 0-.2v-.3s.2 0 .2-.2v-1l.2-.2-.1-.3v-.3l.2-.2-.1-.3V76l.1-.3.3-.2.2-.2.1-.3v-.2l.2-.2-.2-.4.3-.1v-.6l.3-.1.2-.2v-.3l.3-.3.2-.3-1.9-.9-.1.3-.1.3-.1.2v.5l-.3.2v.4l-.1.2-.2.3v.3l-.2.3-.1.3v.3l-.1.2v.2l-.1.3-.1.3v.3l-.1.2v.6l-.1.2-.1.3v.2l-.1.3v1.6l-.1.2.1.3v.3l.2.3v.5l-.2.3-.1.3v1.1l.1.3.1.2V84.3l2-.3v-.2Z"/><path fill="#141414" d="M51.7 92.8H51.1l-.2-.2-.2-.2-.2-.2h-.2L50 92l-.3.1-.1-.3-.2-.1-.2-.2H49L49 91l-.2-.2-.5.2v-.3H48l-.2-.3v-.3l-.1-.1c-.1 0-.2 0-.3-.2l-.2-.1v-.3l-.1-.2-.3-.1v-.3l-.1-.2-.3-.1-.1-.2-.1-.2c-.1 0-.2 0-.2-.2V88l-.1-.2.2-.4c-.1 0 0-.2 0-.2v-.3s-.2 0-.3-.2l.2-.2-.4-.3v-.3l-.1-.2-.1-.2v-1.6l-2 .3v.3l.1.3v.3l.3.2.1.2-.1.4.2.3v.5l.2.3v.6c.1 0 .3 0 .4.2 0 0-.1.1 0 .2l.1.2.1.3.1.3.1.3.1.2.3.2c0 .1 0 .2.2.3v.2l.2.3.2.2v.3l.3.2v.2l.4.1.2.2.2.2.1.2.1.3.3.1.2.2h.4c0 .1 0 .2.2.2l.2.2.1.2.2.3.2.2.2.2h.3l.2.3h.3l.3.1s0 .2.2.2v.1h.2l.3.2.8-1.9h-.1Z"/><path fill="#141414" d="m62.8 93-.1.1-.2.1c0 .1 0 .2-.2.3h-.2l-.3.2h-.2l-.2.3h-.2v.4h-.4l-.3.1-.2.1h-.1l-.3-.1-.3.4-.2-.1-.3.1H59l-.2-.3H58l-.2.2-.3-.2h-.2l-.3.1H57l-.3-.2-.2.1H55.6l-.3-.1-.2-.3-.2-.2h-.5s0-.2-.2-.3l-.4.3s0-.2-.2-.2h-.5l-.2-.3-.2-.2h-.2l-.3-.3-.3-.2-.9 1.9.3.1.3.1.2.1h.6l.2.2h.3l.3.2h.5l.3.2.3.2s.2-.2.3-.1l.2.1h.2l.3.1.3.1h.3l.2.1h.6l.2.1h.6l.2.1h1.6l.2.1h.6l.4-.2.4-.1.2-.2H62l.2-.2.2-.2h.3l.2-.3.2-.2h.5l.3-.2-1-1.8-.1.1ZM49.6 72v-.3l-.3-1.2v-.2l-.1-.2V70l-.1-.3V68.8l-.1-.3v-.3l-.1-.4-.1-.7-.1-.6-.2-.6v-.1l-.2.3v.1l-.1.2-.2.1v.2l-.2.1-.1.2-.1.1-.2.1v.1l-.1.1v.1l-.2.3-.2.4-.2.3-.1.3-.3.5-.2.5-.6 1.2-.2.3 2 .9.4.1h.5l.5-.1 1-.3ZM64 94.7l.5-.3.1-.2.1-.1h.1l.1-.2h.2l.1-.1.2-.2h.2v-.1l.1-.1.1-.2.1-.2v-.1l-.1-.1-.1-.1v-.1h-.1v-.2h-.1V92h-.1l-.2-.1-.2-.1-.1-.2h-.1l-.2-.1-.4-.4h-.1L63 92.7V93l.2.3.2.4.6 1ZM59.1 56.2s-3.5 12.5 13.7 30.6l8.6-5s-13.4-19-8.3-31.3l-14 5.7Z"/><path fill="#141414" d="M79.8 81.6v.1l-.1.1v.2h-.4l-.2.1v.2h-.2v.3H78.3v.2h-.4v.5h-.2v.2H77l-.1.2-.1.1h-.4v.3H76v.2l-.2.1v.1l-.2.2h-.2l-.3-.1h-.4v.2c-.1 0-.2-.2-.3-.1v.4s-.2-.1-.2 0l-.1.1-.2.1h-.4l-.1.1h-.3l-.2.1 1 1.8h.2l.1-.2h.2v-.2l.1-.2.3.1.1-.2h.1l.2-.1.1-.2h.5v-.2h.2l.3-.2h.1l.2-.1h.1l.1-.2.2-.1H77.4l.1-.2h.2l.1-.1h.2l.1-.2.1-.1.1-.1h.4v-.3h.2v-.3h.2l.1-.1h.8v-.3h.3v-.1l.2-.2.2.1h.1l.2-.1-1-1.8h-.1ZM73.2 68.1v.2l.2.2.2.2.1.3.1.3.1.4.2.2v.3l.4.1c0 .2-.1.3 0 .4l.1.4.1.3.2.2v.4l.1.3h.6v.4l.2.2.1.3v.3l.1.3.2.3.2.2v.3l.1.4.3.1.1.3v.3c.1.1.3.1.3.3l.2.2.1.2.2.2c.1 0 0 .1 0 .2l.2.3s-.1.3 0 .4v.3l.1.3s.2 0 .3.2v.3l.4.3v.3l.3.2.2.3v.3l.1.3.2.3.2.4.2.5 1.7-1.2-.2-.3-.2-.2v-.3l-.4-.1-.2-.2v-.4l-.3-.3-.1-.2-.2-.3c0-.2-.1-.2-.2-.3v-.3c-.1-.1 0-.3-.2-.4 0 0-.2 0-.3-.2v-.2l-.1-.2-.2-.4-.1-.3-.2-.2v-.3l-.3-.2-.2-.3v-.3l-.1-.3-.2-.2v-.3l-.3-.3V73c-.1 0-.2 0-.3-.2l-.1-.3-.2-.2V72l-.1-.3-.3-.2-.1-.3-.3-.2v-.3l-.2-.3V69.5l-.2-.3c0-.2-.2-.2-.2-.3v-.3l-.2-.3-.2-.2c0-.1.1-.3 0-.4V67.4l-.2-.3-1.9.7V68.1Z"/><path fill="#141414" d="M71.3 52.9v.4l.1.3-.1.4v.3l-.2.3.1.3v.4l.2.2-.2.4v1l-.1.3v.3l.4.3-.1.4.1.2v.4l-.2.2v.4l.2.3.1.3v.3l-.1.3.2.3v.6l.2.3.1.3.1.2.1.3v.5c.1 0-.2.2-.1.3v.7l.2.3-.2.3.4.3v.4l.2.2.1.4v.6l.1.3v.5l.2.5 2-.7-.2-.3-.1-.3v-.3l-.3-.2-.2-.2.1-.4-.2-.3v-.3l-.1-.3-.2-.3v-.7l-.2-.2v-.5l-.2-.4V61.6l-.2-.3V60.4l-.2-.2.1-.3v-.6L73 59v-.3l-.1-.3V57.3l-.3-.4v-.6l.2-.3.1-.3v-.3l.1-.3v-.3l.1-.3V54l.1-.3V53.4l.1-.3-2-.5v.2ZM60.1 57l.1-.2h.1l.2-.3h.3l.2-.1h.3l.2-.3h.2l.1-.3h.6l.2-.1.2-.2h.5l.1-.6h.3l.2-.2h.2l.3.1.2-.1.2-.2.2-.2h.6l.1-.3h.5l.2-.2.2-.1.2-.2.2-.1h.1l.2-.1c.1 0 .3.2.4.1h.5l.2-.2.3.2.2-.5.3.1.2-.2.2-.1h.5l.3-.1h.3l.4-.2-.8-1.9-.2.1-.3.1-.2.1-.1.2-.2.2h-.4l-.2.1-.2.1-.3.1-.2.2h-.6s0 .2-.2.3H67l-.1.1-.4.1-.2.1-.2.1h-.3l-.2.2-.2.1h-.3l-.2.1-.2.1h-.3l-.2.2H64l-.2.2-.3.1-.2.1-.2.1h-.3s0 .2-.2.2l-.2.1-.1.3H62l-.2.1H61l-.3.1s0 .2-.2.2h-.2l-.2.2-.2.2h-.5l-.4.1.8 2 .2-.2h.1Z"/><path fill="#141414" d="m61.3 67.2-.1-.1-.1-.2s-.2 0-.2-.2V66l-.2-.1v-.3h-.3l.1-.4V65l-.1-.2-.1-.2V64s-.4 0-.4-.2v-.2l-.1-.2v-.2l.2-.3v-.2l-.2-.2-.1-.2v-.2l.1-.2-.2-.2v-.5l-.1-.2V61l-.1-.1V60.2l.2-.2.1-.2v-.5l.2-.2s-.4-.2-.3-.3l.1-.2v-.7l.2-.2v-.2l.1-.3.1-.3-2-.3v1l.1.2-.2.3s.1.2 0 .2v.5l.1.3s-.2.1-.1.2l-.1.3.2.2-.1.2v1.3l.1.2.1.2v1l.1.2v.3l.1.2.1.2v.7l.2.2v.2l.3.2v1.5l.2.2v.4l.2.2v.5l.1.3 2-.7-.1-.1h-.1Z"/><path fill="#141414" d="m66 76.8-.2-.1-.2-.2v-.2l-.2-.2v-.3H65v-.3h-.3v-.3l-.1-.2-.1-.2-.2-.2v-.5h-.6V74l-.2-.1v-.3s.1-.2 0-.2V73l-.2-.2-.2-.1v-.5l-.3-.1v-.5l-.3-.1v-.2l-.2-.1-.2-.2s.1 0 0-.1v-.3l.1-.3V70l-.2-.2.1-.3s-.4 0-.4-.2v-.2l-.1-.2-.1-.2v-1l-.2-.4-1.9.7.1.2.1.2v.2l.2.2.2.1-.1.3.2.3v.2l.1.2.2.2v.6l.3.1v.2l.1.2.1.3.1.2.1.2v.3l.2.1.2.2v.3l.1.2.2.2v.2l.1.2.1.2.2.2.1.2.1.2.1.2v.3h.3l.1.3h.3l.1.3.1.2v.6l.1.2.1.2.2.1v.3l.2.2.2.1v.3l.1.1v.1l.2.3 1.7-1.2v-.1H66Z"/><path fill="#141414" d="M72.9 85.4h-.2l-.1-.2h-.3v-.3l-.2-.1-.1-.3h-.3v-.2h-.4V84l-.2-.2v-.2l-.3-.1v-.3l-.2-.2-.5.1V83l-.3-.1-.1-.2v-.3l-.1-.2-.3-.1-.2-.1v-.3l-.1-.2h-.3V81l-.2-.2h-.2c0-.2 0-.2-.2-.3H68l-.2-.1v-.2l-.2-.1c0-.1.1-.3 0-.4v-.4c-.1 0-.3 0-.3-.2l.1-.3h-.5v-.3l-.2-.1-.1-.2v-.2l-.1-.3-.2-.1v-.4L66 77l-1.8 1.2.2.2.2.2v.2h.3l.2.2v.3s.2 0 .2.2l.2.2.1.2.2.1v.3l.1.3h.3v.3h.2l.1.3.2.2.1.2.1.2.2.2.2.1.1.2.1.2.2.2v.2l.3.1v.2l.3.1.1.2.2.2.1.2v.2l.3.1.2.2h.3l.1.3.2.1v.6l.2.1.1.3h.3v.3l.2.1.3.1v.3l.1.1.2.3 1.5-1.4v-.2ZM81 83.3l.2-.1V83h.1v-.1h.2v-.1l.1-.1h.1v-.2l.1-.1.1-.2V81h-.1v-.2l-.1-.1v-.1l-.1-.2-1.8 1v.1l.1.2.1.2.3.5.5.9h.1ZM73.4 53.1V53l.1-.6v-.5l.1-.2v-.2l.1-.1V51l.1-.2v-1H72.5l-.2.1-.2.1h-.2l-.1.1h-.2l-.2.1-.7.3h-.2l.8 2 .1.2h.2l.3.1.5.1 1 .2ZM59.2 55v.1H59v.2l-.1.1v.5h-.4V56.3l-.1.1v.1l2 .4v.1-.1l-.2-.1v-.3L60 56l-.4-1h-.4ZM71.4 87H71.7v.1l.1.1h.1v.1H72.9v.1l.1.1h.6l.2-.1-1-1.8-1.5 1.4h.2ZM83.5 63c.8-.2 1.2-1.4.8-2.7-.3-1.3-1.3-2-2.1-1.9-.8.3-1.2 1.5-.8 2.8.3 1.2 1.3 2 2.1 1.8Z"/><path fill="#141414" d="M83.7 59.4a2 2 0 0 0-.4-.4l-.1-.1-.2-.2-.4-.1-.4.1c-.2 0-.3.1-.4.3l-.2.3v.4l-.2.3v.2l.1.2v.4l.2.4v.3l.2.3.1.3.2.1c0 .2.2.3.3.4l.4.2h.2c.1.1.3 0 .4 0l.3-.2.1-.1.1-.2.1-.2.1-.7v-1h.2v.1l.1.2.1.5V62.1l-.3.6c0 .1 0 .2-.2.3-.4.2-.8.4-1.3.3-.4-.1-.7-.4-1-.7l-.1-.1-.2-.3V62l-.4-.8-.1-1V59.4l.2-.4.4-.4.3-.2h.9l.4.3.6.5.4.7.1.4-.1.2-.3-.3-.3-.6.1-.1ZM46 88.2s-3 4-2.4 4.5c.6.5 4.7-1.8 4.7-1.8L46 88.2Z"/><path fill="#141414" d="M46 89H46.4v.1h.1v.2h.1v.1H46.8v.2h.1v.1h.1v.1l.1.1h.1v.4h.2V90.6l.1.1.6-.5V90H48V90h-.2v-.2h-.1v-.1h-.1v-.1h-.1v-.2h-.1v-.1h-.1v-.1h-.1V89H47v-.4h-.1v-.1l-.7.5-.1-.2Z"/><path fill="#141414" d="M44 92.3h-.1V92l.1-.1V91.7h.1v-.1l.1-.1V91l.1-.1h.1c0-.1 0 0 0 0v-.2l.2-.1v-.2h.1l.1-.2V90h.1v-.1H45.3v-.2h.2v-.2h.1v-.2h.2v-.1l.1-.1h.1l.1-.2-.6-.5v.1l-.1.1v.2h-.1l-.1.1v.1l-.1.1v.1l-.1.1h-.1v.2h-.2v.2l-.1.1v.1h-.1v.2l-.2.1v.2H44v.1l-.1.1v.2h-.1v.1l-.2.1v.5l-.2.1-.1.2v.2l-.2.1v.6c0 .2 0 0 0 0l.1.2.7-.5Z"/><path fill="#141414" d="m47.6 90.8-.1.1v.1H47.1v.1H47v.2H46.7v.1h-.2c-.1 0 0 .2 0 .2h-.2v.1H46l-.1.1h-.2l-.1.2h-.4v.1H45l-.1.1h-.5l-.1.1H44.1l-.8.5.1.1h.1l.2.1H44.9l.1-.2h.4l.1-.1h.1v-.1H46l.1-.1H46.3v-.2H46.7l.1-.1h.1V92l.1-.1h.1l.1-.1h.4l.1-.2h.1l.1-.1h.4l-.4-.8h-.2ZM46.7 88.4l-.1-.1v-.1H46v.1H46l-.2.2.7.5.6-.5-.4-.1Z"/><path fill="#141414" d="m48 91.5.1-.1v-.1h.1l.1-.1V90.3h-.1l-.6.5v.2l.1.2.2.4.1-.1ZM80.2 32.6l-.4.5c0 .1-.2.1 0 .4h-.3l-.3.6-.2.6c0 .3-.3.4-.2.6.1.3-.2.3-.2.5s0 .4-.2.5c-.2 0-.3.2-.3.3 0 .1.2.2.1.3 0 0-.2.1.2.3h-.1c-.3 0-.3.2-.1.3.1 0 .1.1 0 .2v.5l-.3.4c0 .1.1.3 0 .4-.3.1-.3.3-.3.4 0 0-.2.1.2.3-.5.2.1.4 0 .6v.7l.2.2c.1 0 .1 0 0 .1-.3.2 0 .4-.1.5 0 .2.1.4-.2.7 0 0-.2.2.2.2.2 0 0 .2.1.2l.2.2-.2.1v.1c.5.2 0 .6.2.9l.2.8c0 .2 0 .4-.7.7l-.8.2-.4-.1-.2-.3c-.2-.1-.6-.3-.4-.5 0-.1-.2-.1.1-.3-.5-.2-.3-.6-.3-.9-.1-.2-.5-.4-.4-.7-.4-.1-.3-.3-.2-.4.3-.6 0-1 0-1.6v-1.8c.2-.1 0-.2.1-.3v-.3c.5-.4.3-.8.4-1.2l.3-1.2c0-.3-.1-.6 0-.8.1-.1 0-.3.3-.3l-.1-.2.2-.5.3-.7v-.5l.2-.4.5-.4c.1-.1.1-.4.4-.5.4-.1.5-.5.8-.8l.7-.7c.2-.2.5-.1.6-.3l1 .8v.1c0 .4.3.8.1.9l-.6.5ZM89.4 33.3c-.2 0-.4.2-.5.3-.1.1-.3 0-.2.3.1.2-.2 0-.2 0l-.5.4-.4.5c0 .2-.4.2-.4.5 0 .2-.3.1-.3.3 0 .2-.2.3-.4.4l-.3.1v.4s-.3 0 0 .3h-.1c-.3-.1-.3 0-.2.1v.3l-.3.4-.3.2c-.1.1 0 .3-.3.4-.2 0-.2.1-.3.2 0 .1-.2.1.1.3-.5 0 0 .5-.2.6-.2.2-.2.4-.2.6 0 .1-.2.1 0 .3.1 0 .1 0 0 0-.3.1-.2.3-.3.5-.1.1 0 .3-.3.5-.2 0-.2.1.1.3.1 0 0 .1 0 .2 0 0 .2.1.1.2l-.2.1c.4.4-.2.5-.1.8l-.1.9c0 .1-.2.2-.9.3H82l-.3-.2-.2-.3c0-.2-.4-.5-.2-.7l.2-.1h.1c-.5-.4 0-.7 0-1 0-.2-.4-.5-.2-.7-.3-.3-.2-.4 0-.5.4-.4.3-1 .5-1.4l.6-1.4s-.1-.2 0-.2c.2 0 .2-.2.2-.3.1-.1 0-.2.2-.3.5-.1.5-.6.7-.9l.7-1c.1-.2 0-.5.3-.7.1 0 0-.2.3 0V34l.4-.4.5-.5c0-.1 0-.3.2-.4 0-.2.2-.3.3-.3l.6-.2c.2-.1.2-.4.5-.3.4 0 .6-.3 1-.4l.8-.5h.6c.1 0 .6.7.6 1v1l-.8.4v-.1ZM43.4 60.6c-1.6 0-3.1-.2-4.6-.3-.6 0-1.2-.2-1.8 0-.3 0-.8-.4-1.4-.4-1.4-.2-2.8-.6-4.2-1a19 19 0 0 1-4.1-1.5 16 16 0 0 1-3.6-2.8c-1-1-1.2-2.3-1.5-3.5-.4-1.3-.3-2.7.1-3.9l1-2.5.6-1.5c.3-.5.7-1 .7-1.5l.2-.3c.5-.4.8-1 1-1.5.1-.4.4-.8.6-1.1l2.1-3 2-1.9c.6-.7 1.3-1.5 2-1.9l2.4-1.4c.4-.2 1-.3 1.3-.8l.3-.1c1.5 0 2.9-.9 4.5-.6 1.6.3 3 .8 4.4 1.6.4.3.7.6 1.2.6l.6.4c.7 1 1.6 1.7 2.3 2.6.8 1 1.7 1.9 2.3 3.1.2.5.5 1.1 1.1 1.5.3.2.5.8.8 1.2l.7.8.3 1 .1.2c1.2 1.5 1.6 3.3 2.4 5a38 38 0 0 1 2 5.1c.3 1 .5 2 .2 2.9-.2.4-.5.4-.8.1a3 3 0 0 1-.6-.9l-.7-1.5c-.5-1-1.1-2-1.4-3.2-.1-.4-.4-.7-.3-1v-.3c-1-1.3-1.5-2.9-2.3-4.3-.6-1.2-1.5-2.2-2.1-3.5a5 5 0 0 1-1.5-1.9 15.7 15.7 0 0 0-5.2-5.6 7.7 7.7 0 0 0-7-1.2c-.3.2-.6.5-1 .6-.6 0-1 .5-1.5.8l-1.2.9c-1.8 1-3 2.9-4.4 4.5l-1.8 2.6L26 44c-.6 1.2-.9 2.4-1.3 3.5-.1.5 0 1-.4 1.5-.1.1.2.6.2.9 0 .7.2 1.4.6 2.1.4 1 1.2 1.8 2 2.4l2 1 2 .8c1 .4 1.8.8 2.8 1l3 .6c1.8.6 3.7.6 5.5.7h5.5c1-.2 2 0 3-.2.5 0 1.3.6 1.1.9l-.2.1c-1 .5-1.8 1-3 1-1.8.2-3.5.3-5.3.2h-.1Z"/><path fill="#fff" d="M56.8 54.1s-8.9-23-17.1-22.4c-8.2.5-15.2 15-13.4 17.8C28 52.3 52 58 56.8 54ZM57.1 30.2l4.6 20.4 3-.6s3.1-17.2-.9-20.1c-4-3-6.7.3-6.7.3Z"/><path fill="#141414" d="M93.1 68.6c0 .2-.2.3-.3.5v.3h-.2c0 .2-.2.3-.3.4 0 .2-.1.3-.3.5 0 .1-.3.1-.3.3 0 .2-.3.1-.3.2l-.4.2-.3.1v.2c-.1 0-.2 0-.2.2h-.3l-.1.2-.5.1h-.8a.8.8 0 0 0-.4-.2s0-.2-.2 0c-.1-.4-.5-.2-.6-.4 0-.2-.3-.3-.4-.4 0 0 0-.1-.1 0v-.2l-.2-.4c0-.1-.2-.2 0-.4 0-.1 0-.2-.3-.2v-.2h-.2l.1-.2c-.3-.2 0-.5-.2-.6V68c0-.2 0-.3.3-.4h.6l.2.2.2.3-.1.1c.3.2.1.4.2.5l.3.3c.2 0 .2.1.1.2 0 .3.2.5.3.7l.4.4s.1-.1 0 0h.2c.1.3.3.1.4.1.2 0 .4 0 .5-.3l.3-.2s0-.2.2 0v-.2l.2-.1.3-.2.1-.3.1-.1.3-.1c0-.1 0-.2.2-.2s.2-.3.3-.4l.1-.4.2-.3h.6c.2 0 .4.2.4.3l-.2.7h.1ZM22.8 60.4a7 7 0 0 1-.7-.3s-.1-.1-.2 0l-.2-.2-.6-.3-.6-.3c-.2 0-.3-.2-.5-.3-.2 0-.3-.2-.4-.3-.2-.1-.4-.2-.4-.4l-.3-.3-.2-.1s0-.2-.2-.1v-.1l-.2-.2-.2-.1-.3-.5-.1-.4c-.1-.1-.3-.3-.2-.4l-.1-.4s0-.2-.2-.2l-.2-.6-.2-.7-.1-.1v-1.2l-.1-.3V52c-.1-.3.1-.5.1-.9l.1-.8c0-.1.2-.3.5-.3l.3.1.1.2v.2c0 .2.2.4 0 .5 0 0 .1.1 0 .2V52.5c.2 0 .2.2.2.3-.2.4 0 .8 0 1.1 0 .4.2.8.4 1.1v.2l.1.2.1.2c0 .4.3.6.4.8l.6.7.4.4s.2 0 .2.2h.1l.3.3.4.3h.4l.2.2.4.3c.1 0 .3 0 .4.2l.7.4.7.3.4.2v.5c-.2.1-.4.3-.6.2l-.7-.3ZM63.6 20.4l.8.2h.3l.2.1.6.3.7.2.6.3c.2 0 .3.3.5.3l.5.4.2.3.3.1s0 .2.2.1v.1l.2.2.2.1.4.5.3.4.2.4.2.4.2.1c-.1.4.3.4.3.7l.3.6s0 .2.2.2l.2.6c0 .2.2.4.1.6 0 0 0 .2.2.3v.2l.2.1-.1.2c.2.3 0 .6.2.9l.1.9c0 .2 0 .4-.3.5h-.3l-.2-.2-.1-.2-.2-.6v-.1l-.1-.8-.3-.6c-.2 0-.2-.2-.2-.3 0-.4-.2-.8-.4-1.2-.1-.4-.4-.8-.6-1.1l-.1-.2-.1-.2-.2-.2c0-.4-.3-.6-.5-.9l-.7-.7c-.2 0-.4-.1-.5-.3-.1 0-.2 0-.2-.2h-.2l-.3-.3c-.2 0-.3-.2-.5-.3h-.4a4 4 0 0 1-.3-.2l-.4-.3-.4-.1c-.2-.2-.5-.3-.8-.3a5 5 0 0 0-.9-.2l-.4-.2-.1-.5.6-.3.9.2ZM23.5 66.3c-.4 0-.7 0-1-.2H22l-.3-.2-1-.2-1-.3-.9-.3c-.3 0-.4-.3-.7-.4-.3 0-.5-.2-.8-.4L17 64c-.1 0-.3 0-.4-.2 0 0-.1-.2-.3-.1-.1-.3-.3-.3-.4-.3l-.3-.2-.7-.5c0-.2-.3-.4-.4-.5l-.5-.5c0-.2-.2-.3-.3-.5 0 0-.1-.2-.3-.2-.1-.4-.5-.5-.7-.8l-.6-.8s0-.2-.2-.2V59c0-.3-.3-.4-.4-.7-.1-.3-.3-.5-.3-.8l-.3-.4-.2-.3-.2-.2V56.3c-.3-.3-.2-.8-.4-1.2l-.4-1.3c0-.3 0-.5.3-.7h.3l.2.1.2.4.3.7v.4c.3.3.3.7.4 1l.5.8c.2.1.3.3.3.5.2.6.6 1.1.9 1.6l1.1 1.6s.2 0 .2.2l.3.3.3.3c.2.4.7.7 1 1 .3.4.8.6 1.2.9l.8.4c.1 0 .3 0 .3.2l.3.1.5.3.8.3.5.1.6.2.6.3c.2 0 .5 0 .7.2l1.3.4 1.2.1.7.2c.1 0 .3.4.2.6-.3.1-.6.3-.8.2l-1.3-.2Z"/></svg>