<svg xmlns="http://www.w3.org/2000/svg" width="120" height="120" fill="none"><path stroke="#B4E41D" stroke-linejoin="bevel" stroke-width="26.7" d="m43.8 108.6-30-63.2 71 52.2L36 20 106.2 68 81.7 11.4"/><path fill="#fff" d="m51.7 59.3 6.4-2.6 1.5 6.3 7.4-9.5 6.5 4-13.2 15.1-3.9-.2-4.7-13.1Z"/><path fill="#141414" d="M61.9 18.3a44.3 44.3 0 1 0 0 88.7 44.3 44.3 0 0 0 0-88.7ZM51.9 80l1.4 13.7a32.3 32.3 0 0 1-23.5-34.3l15.3 8.5s-2.2-6 2.3-13.7l-15-4.7a32.2 32.2 0 0 1 60 3L75 55.3l-.7-.9A15.7 15.7 0 1 0 62 79.6l2.3-.2c-2 1-5.7 1.9-12.4.6Zm19.6-23L60.3 71h-3.5l-4-10.1 4-2.6 2.4 6.2 7-9.4 5.3 1.9Zm-6.2 37.7L69 77.8c3.1-1.6 5.7-4.2 7.1-7.5l18-7a32.2 32.2 0 0 1-29 31.4Z"/><path fill="#141414" d="M71.8 75.6v.2h-.2v.1h-.1v.1h-.1l-.1.1-.1.1H71v.2H70.8c-.1.1 0 0 0 .1h-.1v.2H70.4v.1h-.1v.1h-.4l-.1.1h-.1v.2h-.5l-.1.1.3.6h.2v-.2h.2v-.1c.1 0 0 0 0 0h.2v-.1h.2l.1-.1h.1v-.1h.2v-.1h.1l.2-.1.1-.1h.1v-.1h.1v-.1h.2v-.1l.1-.2h.4v-.1h.1v-.2h.2V76l-.3-.5h-.1Z"/><path fill="#141414" d="M74.1 73.2v.2H74v.2h-.1v.2h-.2v.1h-.1V74.3l-.1.1h-.1c-.1 0 0 0 0 0l-.1.1v.1h-.1v.1H73V75H72.7v.1h-.1v.1h-.1v.2H72.2l-.1.1-.2.1.4.5h.1l.1-.1v-.1h.2v-.1c.1-.1 0 0 0-.1h.1v-.1h.2v-.2h.1v-.1h.1V75h.1V75h.2v-.2h.2v-.2l.1-.1.2-.1V74h.2V74h.1v-.2h.1v-.1h.1v-.1L74 73l.1.1ZM75.8 70.3v.4h-.1v.2l-.1.1v.2h-.2s.1.2 0 .2v.1h-.2V71.8H75v.2H75v.1c0 .1 0 0 0 0v.2h-.2v.1h-.1v.1h-.1v.2l-.1.1-.2.1v.1H74l.6.5v-.1l.1-.1v-.1l.1-.1c.1-.2 0 0 0-.1h.1v-.2h.1v-.1h.1v-.2h.1v-.2l.2-.1V72h.1v-.2l.1-.1v-.1h.1v-.4h.1l.1-.1.1-.1V70.7h.1v-.1h.1l-.6-.3h.1ZM79.6 68.6l-.1.2H79v.2s0-.1 0 0h-.4v.2H78l-.1.1h-.1l-.1.1h-.1v.1h-.4l-.1.1H77l-.2.1h-.1l-.2.1h-.2l.3.7v-.1h.2v-.1h.4l.1-.1h.1l.1-.1H77.8l.1-.1h.1l.1-.1h.2l.1-.1h.2l.1-.1h.2v-.1h.2v-.1h.5v-.1H80l-.2-.7ZM83.1 67.3l-.1.1H82.7v.1l-.1.1h-.4l-.1.2h-.4v.1h-.2v.1h-.2v.1h-.1l-.1.1H80.4v.2H79.9l-.1.1.2.6h.2l.1-.1h.2v-.1h.4l.1-.1h.1l.1-.1H81.5v-.1H81.9l.1-.1h.1l.1-.1h.2v-.1h.1l.1-.1h.4l.1-.1h.1l.1-.1h.2l-.2-.6-.1-.1ZM86.6 66h-.2l-.1.1H86v.2h-.5v.2h-.4l-.1.1H84.7l-.1.2h-.2l-.1.1H84v.1h-.2l-.1.1h-.4l.2.7.2-.1.1-.1h.4v-.1H84.5v-.1h.4v-.1h.2l.1-.1h.2V67H85.8l.1-.1h.1v-.1h.5v-.1h.2v-.1h.2l-.2-.7Z"/><path fill="#141414" d="m90 64.6-.1.1h-.2v.1h-.2v.1H89v.2h-.4v.1h-.2l-.1.1h-.1l-.1.1H88l-.1.1h-.5l-.1.2h-.5l-.2.1.3.6h.2v-.1h.2v-.1h.4l.1-.1h.1l.1-.1H88.4l.1-.1h.2l.1-.1h.1l.1-.1h.2l.1-.1.1-.1h.5v-.1h.1l.1-.1h.2l-.2-.6v-.1ZM93.5 63.3h-.2v.1H93l-.1.2h-.4l-.1.2H92v.1h-.4v.2h-.2l-.1.1H91l-.1.1h-.1l-.1.1h-.5l.3.7.1-.1h.1v-.1h.4v-.1H91.5l.1-.1h.4v-.1h.2v-.1h.2l.1-.1H92.7v-.1h.2v-.1h.4l.1-.1h.1V64H93.9l-.2-.7h-.1Z"/><path fill="#141414" d="M94 67.6v-1h.1v-.1l-.1-.1v-.2h.1v-1l.1-.2v-.1l.1-.2h-.1V64.3h.1v-.5h-.6V64.5c0 .1 0 0 0 0v.2l-.1.1V66.3h-.1v.7h-.1V67.4l-.1.1v.2l.7.1Z"/><path fill="#141414" d="M93.2 71.4V71l.1-.1v-.5l.1-.1v-.5h.1V69.6l.1-.1v-.6l.1-.1.1-.1v-.5l.1-.1V68l.1-.2v-.1l-.6-.1v.7l-.1.2v.5h-.1v.5H93v.4l-.1.2v.4h-.1v.1l-.1.2V71.1h-.1v.1l.6.3v-.1Z"/><path fill="#141414" d="M92 75v-.2l.1-.1v-.1l.1-.1V74.2l.1-.2.1-.1-.1-.1v-.1l.1-.2h.1c0-.1 0 0 0 0v-.2l.1-.1V73l.1-.1V72.5h.1l.1-.1v-.1h.1v-.2h.1v-.6l.1-.1v-.1l-.6-.2V72h-.1v.2l-.1.1v.2h-.1V72.8l-.1.1v.1l-.1.1v.4H92v.4l-.1.1h-.1v.1l-.1.1v.2h-.1v.4h-.1l.6.3ZM90.3 78.4v-.2h.1V78h.1v-.2h.1v-.1h.1v-.1l.1-.2V77.1h.2V76.8h.1v-.2h.1v-.4h.2V76h.1v-.2h.1v-.4h.2v-.1l.1-.1v-.1l-.6-.3v.4h-.1v.2l-.1.1v.1l-.1.1v.2l-.1.1-.1.1v.2l-.1.1v.1l-.2.1V77l-.1.1V77.4l-.1.1-.1.1-.1.1v.1l-.2.1V78.2l.5.4v-.2ZM88.3 81.7v-.2l.1-.1h.1V81h.2v-.2h.2v-.4h.2V80.1l.2-.1v-.2l.1-.2v-.1h.1c0-.1.1 0 .1 0v-.1h.1v-.2h.1V79h.1l.2-.1v-.1l.2-.2-.6-.3v.1l-.1.1v.1l-.1.1v.1c-.1.1 0 0 0 0l-.1.1v.1h-.1v.2h-.1v.2H89V79.8l-.2.1v.1h-.1v.2l-.1.1v.1h-.1l-.1.1V80.7h-.1v.1h-.1l-.1.1-.1.1v.2l-.2.1v.1l.5.4-.1-.1ZM85.9 84.7v-.2l.1-.1h.1V84h.2v-.2h.2V83.5l.2-.1c.1-.1 0 0 .1 0v-.2h.1V83h.2v-.4h.4v-.2h.2v-.2l.1-.1.2-.1V82l.2-.2-.6-.4v.1h-.1v.2l-.1.1v.1c-.1.1 0 0-.1 0v.1h-.1v.1H87v.2H87l-.1.1-.1.1v.1h-.1v.1l-.1.1v.1h-.2v.2l-.1.1-.1.1H86V83.7H86v.1h-.2v.1h-.1v.2h-.1v.1h-.1v.1h-.1l.5.5ZM83.1 87.3v-.1h.2V87h.1V86.7H83.8v-.1h.1l.1-.1V86.3h.2l.1-.1V86h.2v-.1l.2-.1V85.4h.4v-.1h.1v-.2h.1V85h.2V85h.2v-.2l-.4-.4-.1.1v.2h-.2v.1h-.1v.1h-.1l-.1.1v.2h-.2l-.1.1-.1.1-.1.1H84v.1l-.1.1h-.1v.1h-.1v.1l-.1.1h-.1v.1h-.1v.2h-.1v.1H83l-.1.1v.1h-.1v.1h-.2v.1h-.1l.4.6h.2Z"/><path fill="#141414" d="m80 89.7.1-.1v-.1h.2v-.1h.1v-.2H80.8V89h.2V88.8h.1l.1-.1h.2v-.1l.1-.1h.2v-.1h.1v-.1c.1-.1 0 0 0-.1h.1V88H82.2V88h.1v-.1h.2v-.1l.1-.1h.2v-.1h.2v-.1l-.3-.5h-.1l-.1.1v.2h-.2c-.1.1 0 0 0 0l-.1.1v.1h-.2v.2h-.2l-.1.1-.1.1h-.1v.1h-.1l-.1.1H81v.2h-.2v.1h-.1l-.1.1h-.1v.2h-.1l-.1.1H80l-.1.2h-.1l-.1.1h-.2l.4.6ZM76.8 91.6v-.1h.2l.1-.1h.1v-.2h.2l.1-.1h.2v-.2h.1l.1-.1h.1c.1 0 0 0 0 0l.1-.1h.2v-.2h.2l.1-.1.1-.1H79l.1-.1h.1V90h.4l.1-.1h.1l.1-.1-.4-.6-.1.1v.1l-.1.1h-.1l-.1.1H79v.2h-.4v.1h-.1v.1h-.2v.1H78l-.1.2h-.2l-.2.1h-.1v.1l-.1.1-.1.1h-.1v.1h-.4v.1h-.2v.1h-.2v.1l.2.6h.2Z"/><path fill="#141414" d="M73.2 93.1h.4v-.2h.4v-.2h.2v-.2h.5v-.1h.4v-.2h.2l.2-.1h.4v-.2H76.6v-.1l-.2-.6H76l-.1.1v.1h-.2l-.1.1H75.3v.1h-.2l-.1.1h-.2v.1H74.5v.1h-.1v.1h-.2v.1H74v.1h-.1v.1h-.4l-.1.1h-.2v.1H72.9l.2.7h.1Z"/><path fill="#141414" d="m69.6 94.3.1-.1H70V94h.1V94h.5l.1-.2H71c.1 0 0 0 0 0H71.4l.1-.1h.1l.1-.1h.1l.1-.1H72.5v-.2h.7l-.2-.7h-.2v.1h-.2l-.1.1H72l-.1.1h-.1l-.1.1h-.4v.1H71v.1h-.5l-.1.1-.2.1h-.5l-.2.1h-.2v.7H69.7Z"/><path fill="#141414" d="M65.8 95v-.1H66.2l.1-.1h.1v-.1h.5l.1-.1h.4l.2-.1H67.8v-.1H68.7l.1-.1h.7l-.2-.7H69v.1H68.7c-.1.1 0 0 0 0h-.2v.1h-.1l-.2.1H67.9l-.2.1H66.8v.1h-.1v.1H65.6v.7h.1Z"/><path fill="#141414" d="M66 90.2v.2h-.1v.5h-.1V91.2l-.1.1.1.2v.2h-.1v.4h-.1v.7l-.2.1V93.2h-.2l.1.2V93.8l-.1.1v.2l-.1.2.6.1v-.6l.1-.2v-.2h.1v-.5l.1-.1V92.4h.1v-.5l.1-.2v-.5h.1V91l.1-.2V90.5h.1V90.2l-.6-.1Z"/><path fill="#141414" d="M66.9 86v.5h-.1v.5h-.1v.6h-.1v.4h-.1v.7l-.1.2h-.1v.2h-.1V89.8H66v.2l-.1.2.7.1v-.9l.1-.1v-.4h.1V88.5l.1-.1V88l.1-.1V87.2l.1-.1V87h.1v-.5h.2V86.1l-.7-.1Z"/><path fill="#141414" d="M67.8 82V82.4l-.1.2v.5l-.1.1v.8h-.1v.2l-.1.2v.4h-.1v.2h-.1v.1H67v.7l-.1.2v.1l.6.2V85.3l.1-.1V84.9l.1-.1v-.4l.1-.1v-.1l.1-.1v-.5l.1-.1V83h.1V82.6l.1-.1V82.2l.1-.1-.6-.2ZM68.7 78v.5h-.1v.5h-.1v.1l.1.1V79.5h-.1v.2l-.1.1V80.1h-.1v.5l-.1.1-.1.1v.6l-.1.1v.2h-.1v.2l.6.2V81.2l.1-.1v-.2h.1V80.6l.1-.1V80h.1v-.5h.1V79l.1-.1V78.6h.1V78.2h.1V78l-.6-.2ZM75.8 70.3h.1v-.1h.1V70l.3.6-.6-.3.1-.1ZM93.5 63.2H94.1v.5h-.6l-.1-.2-.2-.3h.3ZM65.8 95h-.4l-.2-.1V94.2l.6.1v.7-.1Z"/><path fill="#141414" d="M68.7 77.9v-.1h.1v-.1l.4.5-.7-.1.2-.2ZM57.1 71.3H57.5l.1-.1H58.1v-.1h2.1v-.6H57.1v.7l-.1.1ZM55.2 67.7v.2h.1v.2l.2.1v.5h.2V69l.1.1v.4h.2v.2h.1v.5h.1v.1l.1.1v.5l.7-.3v-.2h-.1l-.1-.1v-.5l-.1-.1-.1-.1V69.3h-.1V69l-.1-.1v-.2h-.1V68.4l-.1-.1-.1-.1v-.4l-.1-.1v-.1l-.1-.1v-.2l-.6.2-.1.1Z"/><path fill="#141414" d="M53.9 64.5v.2h.1v.2l.2.1v.5h.2V65.9l.1.1v.4h.2v.2h.1v.5h.1v.1l.1.1v.5l.7-.3-.1-.1v-.1l-.1-.1V66.8l-.1-.1v-.2l-.1-.1V66.1h-.1v-.2l-.1-.1v-.2H55V65.2l-.1-.1-.1-.1v-.4l-.1-.1v-.1h-.1V64.2l-.7.2v.1ZM52.6 61.3v.1l.1.1v.2h.2v.5h.2v.4h.1v.4h.2v.2l.1.1v.4h.1v.2h.1v.5l.7-.2V64h-.1v-.2h-.1V63.6l-.1-.1v-.2l-.1-.1V62.9l-.1-.1v-.2h-.1v-.2l-.1-.1V62h-.1v-.1h-.1v-.5h-.1v-.1h-.1V61l-.7.2ZM56.2 58.2v.1H56l-.1.1h-.1l-.1.2h-.2v.1h-.1v.1h-.2v.2h-.1l-.1.1h-.2v.1h-.1v.2H54.5l-.1.1-.1.1-.1.2H53.5v.2h-.1v.1H53.1l-.1.1H53l-.1.1.3.6.1-.1.2-.1v-.1h.2v-.1h.1v-.1l.1-.1h.2v-.1h.2l.1-.1.2-.1v-.1H55v-.1h.1v-.1h.2v-.1l.2-.1h.1v-.1h.1v-.2h.5V59l.1-.1h.1l.1-.1h.1l.2-.1-.4-.5h-.1Z"/><path fill="#141414" d="m59.3 63.7-.1-.1-.1-.1V63H59v-.2h-.1v-.2l-.1-.1V62.3l-.1-.1-.2-.1v-.5h-.1v-.2h-.1V61l-.1-.1v-.2l-.1-.1v-.1l-.1-.1v-.1l-.1-.2V59.6l-.2-.1v-.2l-.1-.2V58.8l-.1-.2v-.2l-.7.3v.1l.1.1v.1l.1.1.1.1V59.5h.1v.2l.1.1v.2l.1.1v.2l.1.2v.1l.1.1v.2l.1.1V61.3h.1V61.7l.1.1v.1l.1.1v.1l.1.1v.2l.1.1.1.1v.1l.1.1v.5l.1.1v.2h.1v.4l.1.1.7-.2v-.1h-.1Z"/><path fill="#141414" d="M61.5 60.9v.2h-.1v.1h-.1v.1h-.1v.2h-.1l-.1.1v.1h-.1V62l-.1.1h-.1v.2h-.1l-.1.1v.1l-.1.1-.1.1v.2H60v.1h-.2V63.4l-.1.1h-.1l-.1.2-.1.1.5.4V64l.1-.1v-.1h.1v-.2h.1v-.1h.2V63.1h.2V63h.1v-.2h.1v-.1h.1v-.2h.1v-.1l.1-.1.2-.1V61.9l.2-.1.1-.1v-.1h.1v-.2h.1v-.1l-.4-.4Z"/><path fill="#141414" d="M63.6 58V58.4h-.1v.1h-.1v.2h-.1l-.1.1v.1H63V59.2l-.1.1h-.1v.2h-.1l-.1.1v.1l-.2.1V60H62.1v.1H62V60.5l-.1.1h-.1l-.1.2-.2.1.6.4V61l.1-.1v-.1h.1v-.2h.1v-.1h.1l.1-.1v-.2h.1l.1-.1V60h.1v-.2h.1v-.1h.1v-.2h.1v-.1l.1-.1.2-.1V59l.1-.1h.1l.1-.1v-.1h.1v-.2h.1v-.1l-.5-.4h.1ZM65.9 55.1v.2h-.1v.1h-.1v.1h-.1v.2h-.1l-.1.1v.1h-.1V56.3l-.1.1H65v.2H65l-.1.1v.1l-.1.1-.1.1v.2H64.3v.1h-.2V57.6l-.1.1H64l-.1.2-.1.1.5.4v-.1l.1-.1V58h.1v-.2h.1v-.1h.2V57.3h.2v-.2h.1V57h.1v-.1h.1v-.2h.1v-.1l.1-.1.2-.1V56l.2-.1.1-.1v-.1h.1v-.2h.1v-.1l-.4-.4ZM71.1 56.5H70.8l-.1-.1h-.2v-.1h-.2l-.2-.1H70l-.1-.1h-.4l-.1-.1-.1-.1H69v-.1h-.2l-.1-.1h-.2l-.1-.1H68l-.1-.2-.1-.1h-.1l-.1-.1h-.4l-.1-.1-.1-.1H67l-.1-.1h-.1l-.3.6h.5v.1h.2l.2.1h.2v.1H68l.1.1h.1l.1.1H68.5v.1h.2l.2.1h.2l.1.1h.2v.1h.5l.1.1.2.2h.2l.1.1h.2l.1.1h.2l.3-.6h-.1v.2ZM68.8 60.9v-.2l.1-.1.1-.1v-.1l.1-.1v-.1h.1V60h.1V60h.2v-.5h.2l.1-.1v-.2h.1l.1-.1V59l.2-.1V58.6l.1-.1h.2v-.1h.1v-.1h.1V58h.1V58l.1-.1.2-.1v-.1h.1l.1-.2-.5-.4-.1.2v.1h-.1l-.1.1v.1l-.1.1h-.1v.2h-.1l-.1.1v.1H70v.1l-.1.1-.1.2h-.1v.1l-.1.1h-.1v.2h-.1l-.1.1v.1l-.1.1-.1.1H69v.4h-.1l-.1.1h-.1l-.1.1-.1.1v.1h-.1v.2h-.2v.1l-.1.1.5.4h.2Z"/><path fill="#141414" d="M66.1 64.3V64l.1-.1.1-.1v-.1l.1-.1v-.1h.1v-.1h.1v-.1h.2v-.5h.2l.1-.1v-.2h.1l.1-.1v-.1l.2-.1V62l.1-.1h.2v-.1h.1v-.1h.1v-.2h.1v-.1l.1-.1.2-.1V61h.1l.1-.2-.5-.4-.1.2v.1h-.1l-.1.1v.1l-.1.1h-.1v.2h-.1l-.1.1v.1h-.1v.1l-.1.1-.1.2H67v.1l-.1.1h-.1v.2h-.1l-.1.1v.1l-.1.1-.1.1h-.1v.4h-.1l-.1.1H66l-.1.1-.1.1v.1h-.1v.2h-.2v.1l-.1.1.5.4h.2ZM63.4 67.6v-.2l.1-.1h.1V67h.2v-.1h.1v-.1l.2-.1v-.4h.2v-.1l.1-.1V66l.1-.1v-.1l.2-.1V65.4h.1v-.1h.1c0-.1.1 0 .1 0l.1-.1.1-.2h.1V65h.1v-.2l.2-.1v-.1l.2-.1v-.1l-.4-.4h-.1v.1h-.1v.2l-.1.1-.1.1-.1.2-.2.1v.2h-.1l-.1.2h-.1v.1h-.1v.2h-.1v.1H64l-.1.1-.1.2-.1.1-.1.2h-.1v.2h-.1v.2h-.1l-.1.1h-.1l-.1.1v.1l-.1.1-.1.1v.1h-.1v.1h-.1l.5.5h.2Z"/><path fill="#141414" d="M60.7 71v-.2l.1-.1.1-.1V70.3h.2l.1-.1.2-.1v-.4l.1-.1h.1l.1-.2.1-.1V69h.2V68.7l.1-.1.1-.1h.2v-.1l.1-.1h.1v-.2h.1v-.1l.2-.1v-.2h.2v-.1l-.4-.5-.1.1v.1h-.1v.2h-.1l-.1.2-.1.1v.1H62v.2h-.1v.1l-.1.2h-.1v.1h-.1v.2h-.1l-.1.1-.1.1-.1.1-.1.2-.1.1-.1.1v.1l-.1.1v.1l-.1.2h-.2l-.1.1-.1.2-.1.1-.1.1-.1.2.5.4.2-.1ZM57 71.3h-.1v-.1h-.1l.6-.3v.6l-.3-.2ZM52.5 61.3v-.7l.1-.1.4.6-.6.2h.1ZM56.2 58.2h.1V58H56.7v.2l.2.2-.7.2-.3-.5h.4ZM58.7 64v.5h.1l.1.2h.1v-.2h.2v-.2l.2-.1-.5-.5-.6.3h.4ZM65.9 55h.1v-.1h.1l-.1.6-.6-.4h.5ZM71.2 56.5h.1v.1h.2v.8l-.6-.4.3-.6v.1Z"/><path fill="#141414" d="M60.7 71h-.2v.2-.6l.5.4h-.3ZM49 92.5H49.4l.1.1h.2l.1.1h.1v.1h.2l.1.1h.4v.2c.1 0 0 0 0 0h.5l.1.1h.4l.1.1v.1h.1l.1.1h.1v.1h.5l.1.1.2.1h.1l.2-.6h-.4v-.1h-.2c-.1 0 0 0 0 0h-.2L52 93v-.1H51.7l-.1-.1h-.4v-.1l-.1-.1H51l-.1-.1h-.2l-.1-.1h-.4v-.1H50l-.1-.1-.1-.1h-.2V92h-.2l-.1-.1-.1-.1-.3.6Z"/><path fill="#141414" d="M45.4 90.7h.2v.1h.2v.2c.1 0 .2-.1.2 0h.1l.1.1.1.1H46.6l.2.1v.1h.2l.1.2h.2l.1.1H47.7v.1h.1v.2h.1v.1h.2v.1H48.4l.1.1.1.1.2.1h.1l.3-.5H49l-.1-.1h-.2v-.1h-.4v-.1l-.1-.1H48l-.1-.1h-.2v-.1h-.2v-.1h-.2v-.1h-.1l-.1-.1H47l-.1-.1H46.6l-.1-.1-.1-.1v-.1h-.1l-.1-.1H45.9v-.2h-.2l-.3.5v-.2ZM42 88.4h.2v.1h.1v.1h.2v.1h.1v.1h.1v.1h.1v.1H43.2v.1h.2v.2h.2v.1h.2v.1l.1.1h.4V90h.1v.1h.2v.2s0-.1.1 0h.2v.1l.1.1h.1v.1l.2.1.3-.5V90h-.1v-.1h-.2v-.1H45l-.1-.1h-.1l-.1-.2H44.4l-.1-.1H44v-.2h-.1l-.1-.1h-.1V89h-.2v-.1h-.1v-.1H43l-.1-.1-.1-.2h-.1v-.1h-.2v-.1h-.1l-.1-.1-.1-.1-.4.5.1-.2ZM39 85.7h.2v.2h.1l.1.2h.1l.1.1.1.1v.1H40v.1h.1v.2H40.5v.2h.2v.1h.2v.1h.2V87.4l.1.1h.1v.2h.2l.1.1.1.2h.1l.2.2.4-.5-.1-.1-.1-.1H42l-.1-.1h-.1c-.1-.2 0 0 0-.1l-.1-.1-.1-.1V87h-.2v-.1l-.1-.1-.1-.1-.1-.1H41l-.1-.1v-.1h-.1v-.1h-.1l-.1-.1-.1-.1h-.1V86l-.1-.1H40v-.1h-.1v-.2l-.1-.1v-.1h-.1v-.1h-.2V85h-.1l-.5.4v.2Z"/><path fill="#141414" d="m36.3 82.7.2.1v.2h.2v.2l.2.1v.1l.1.1v.1h.2v.1h.1v.2h.1l.1.1v.1l.1.1h.1v.1l.2.1.1.1v.2l.1.1.2.1v.1h.1l.1.1.1.1v.1h.1v.2h.2l.4-.4-.1-.1H39l-.1-.1v-.1h-.1c-.1-.2 0 0 0-.1h-.1l-.1-.1v-.2h-.2v-.1l-.1-.1-.1-.1-.1-.1-.1-.1-.1-.2h-.1v-.1l-.1-.1h-.1v-.1h-.1v-.2h-.2l-.1-.1-.1-.1V82.7H37v-.1l-.1-.1-.1-.1v-.1l-.1-.2-.5.4v.2Z"/><path fill="#141414" d="M34 79.4h.1V79.8h.1v.1h.1v.1l.1.1.1.1v.2h.2l.1.1v.2h.1v.1h.2v.4h.1l.1.2h.2v.4h.1v.2h.2v.1l.1.2v.2l.1.1v.1l.6-.4-.1-.1V82h-.2v-.2h-.1v-.1l-.1-.1v-.1l-.1-.1h-.1v-.2l-.1-.1-.1-.1v-.1h-.1v-.2l-.1-.1v-.1h-.1v-.1h-.1v-.1l-.1-.1V80L35 80H35l-.1-.1v-.4l-.1-.1h-.1v-.2h-.2V78.9l-.6.4ZM32 75.8h.1l.1.1v.2l.1.1.1.1v.2l.1.2v.1h.3v.4l.1.1h.1v.2l.1.1v.2l.1.1.1.1V78.4l.1.1v.1h.1v.2h.1V79h.1v.2h.1l.6-.3-.1-.1v-.1H34v-.2l-.1-.1v-.1h-.1V78l-.1-.1v-.1l-.1-.1v-.1h-.1v-.2h-.1v-.2h-.1V77l-.1-.1v-.1h-.1v-.2H33v-.1l-.1-.1-.1-.1V76h-.1v-.1l-.1-.1v-.2l-.1-.1-.6.3Z"/><path fill="#141414" d="m30.7 72 .1.1V72.4h.1v.1h.1v.6h.2v.5l.1.1v.2h.1v.2l.1.2h.1V75l.1.1v.2h.1v.4l.1.2.6-.3v-.1h-.1v-.2h-.1V75h-.1v-.5H32v-.1l-.1-.1V74l-.1-.1v-.2l-.1-.1v-.2l-.1-.1-.1-.1V72.9l-.1-.1v-.1h-.1V72h-.1v-.4l-.7.2h.1Z"/><path fill="#141414" d="M29.8 68v.4l.1.1v.1h.1v.5l.2.1V70h.1v.4h.1v.7h.1v.5h.1V72l.7-.2v-.2h-.1l-.1-.1V70.8l-.1-.1v-.5h-.1v-.4l-.1-.1v-.4l-.1-.1V69l-.1-.1v-.7h-.1v-.4h-.7v.1Z"/><path fill="#141414" d="M29.4 64v.5l.2.2h-.1v.5h.1V66h.1V66.4c0 .1 0 0 0 0l.1.1V68l.7-.1V67l-.1-.1v-.7l-.1-.1V65.3l-.1-.1V64H29.4ZM29.4 60v.4h.1V62.3c0 .1 0 0 0 0V62.6l-.1.1v1.2h.7v-.4H30V60.6h.1V59.8h-.6Z"/><path fill="#141414" d="M33.9 61.3H33.5v-.1h-.2V61h-.2L33 61H33l-.1-.1-.1-.1s-.1.1-.1 0h-.2v-.1l-.1-.1H32v-.1H32l-.1-.1h-.2v-.1h-.2l-.1-.1V60h-.2v-.2h-.4v-.1l-.1-.1h-.1v-.1l-.2-.1-.3.6h.1l.1.1h.2v.1h.1l.2.1h.1v.1h.2l.2.1.1.1h.2v.1l.2.1h.2v.1h.2l.1.1h.2v.1h.2v.1h.1v.1l.2.1h.1v.1h.2v.1h.1l.1.1.3-.6v.2ZM37.4 63.3h-.2l-.1-.1-.1-.1H36.7V63h-.1l-.1-.1-.1-.1H36l-.1-.1v-.1H35.6l-.1-.1v-.1h-.2v-.1H35v-.1h-.1V62l-.1-.1h-.1v-.1H34.4l-.1-.1-.1-.1-.1-.1-.2-.1-.3.5.1.1H34v.2H34.3l.1.1h.2v.1h.2v.1h.1v.1h.2v.1h.2v.1h.2l.2.1h.1v.1H36.2l.1.1.1.1v.1h.2v.1H36.8v.2h.2l.3-.5v.2Z"/><path fill="#141414" d="M40.9 65.2h-.2l-.1-.1h-.2V65h-.2l-.1-.1H40l-.1-.1v-.1s-.2.1-.2 0h-.2v-.1l-.1-.1h-.2l-.1-.1H39l-.1-.1h-.1l-.1-.1h-.2V64l-.1-.1v-.1h-.2v-.2h-.4v-.1l-.1-.1-.1-.1-.2-.1-.3.6h.2v.1h.1l.1.1h.2v.1h.2l.1.1h.2l.1.1.2.1h.2v.2h.2l.1.1H39.3v.1h.2v.1h.2l.1.1.1.2h.2l.1.1h.2v.1l.1.1.4-.6h-.1l.1.2ZM44.4 67.2h-.2L44 67H44l-.1-.1h-.1v-.1h-.2v-.1h-.1l-.1-.1H43v-.2H42.7v-.1h-.2v-.1l-.1-.1H42V66H42v-.2h-.1v-.1h-.2v-.1H41.4l-.1-.2h-.1l-.1-.2H41l-.4.5h.1v.1H41v.2h.4v.1l.1.1h.2l.1.1h.1l.1.1h.1l.1.1h.1l.1.1h.1v.1h.2l.2.1H43.2v.1h.1v.1l.1.1h.1v.1h.2v.1h.1l.1.1h.2l.3-.5v.2ZM44.3 62.8v.7h.1v.4l-.1.1v.1l.2.1V64.5h-.1v.5l.1.1V66.2l.1.2V67.4l.7-.2v-.4h-.1V66l-.1-.1V62.8l-.6-.1h-.2Z"/><path fill="#141414" d="M45.2 58.5v.2H45v.4H45V59.4l-.1.2-.1.2h.1v.4h-.1V60.5h-.1V60.9l-.1.1v.6h-.1v.2l-.1.1v.5l-.1.1V62.7l-.1.1h.7v-.6c0-.1 0 0 0 0v-.5l.1-.1V60.7h.1v-.6l.1-.1v-.4l.1-.1.1-.1v-.2l.1-.1V59l.1-.1c0-.1 0 0 0 0v-.2l-.6-.2h.2Z"/><path fill="#141414" d="M46.9 54.4v.2l-.1.1v.1h-.1V55.2l-.1.1v.1h-.1v.2h-.1v.4l-.1.1h-.1V56.3l-.1.1H46v.2l-.1.1v.4h-.1v.1h-.1v.1l-.1.1v.1h-.1v.4l-.1.1-.1.1v.1l-.1.1v.2l.6.2v-.5h.1v-.4h.2V57.4l.1-.2v-.1l.1-.1V57l.1-.1v-.2h.1V56.3l.1-.1v-.1l.1-.2v-.2l.1-.1.1-.1h.1v-.1l.1-.1V55h.2v-.2l-.5-.3h.1ZM43.4 53.3h.5l.1.1h.2l.1.1h.5l.1.1H45.2v.1h.2l.1.1H45.9l.1.2H46.2v.1H46.5v.1h.2l.1.1h.1l.2-.6h-.7l-.1-.2h-.4l-.1-.1H45.4v-.1H45.1l-.1-.1H44.8l-.1-.1h-.4l-.1-.1H44l-.1-.1h-.1l-.1-.1h-.1l-.2.6v-.1ZM39.9 52.1h.2l.1.1h.1l.2.1H40.9l.1.1h.4v.1H41.7l.1.1h.1l.2.1H42.3v.1h.2v.1h.1v.1h.4l.1.1h.2v.1l.3-.6H43l-.1-.1h-.1l-.1-.1h-.2l-.2-.1H42l-.1-.1h-.1l-.1-.1h-.5V52h-.5v-.1h-.1l-.1-.1H40.1v-.1H40l-.2.6V52Z"/><path fill="#141414" d="M36.3 51H36.7v.1h.2l.1.1H37.3l.2.1H37.7l.1.1H38.1v.1h.2l.1.1H38.8l.1.1h.1v.1h.2v.1H39.4l.2.1h.1l.1.1.2-.6h-.6v-.1h-.2l-.1-.1h-.2l-.1-.1h-.4V51h-.2L38 51h-.4l-.1-.1h-.4l-.1-.1-.1-.1H36.7l-.1-.1h-.1l-.2.6V51Z"/><path fill="#141414" d="M32.8 49.9H33.2l.1.1h.2v.1H33.8l.1.1c.1 0 .2-.1.2 0h.2v.1H34.6l.1.1h.5v.1h.1v.1h.2v.1h.1v.1h.4l.1.1h.2v.1l.3-.6H36v-.1h-.4v-.1h-.2l-.1-.1H35L35 50H34.6l-.1-.1h-.4l-.1-.1h-.4l-.1-.1-.1-.1H33v-.1h-.2l-.2.6v-.2ZM34.1 45.6v.2l-.1.2v.1h-.1v.2h-.1v.2h-.2v.4h-.2V47.3h-.1v.2h-.1v.1l-.1.2v.1l-.2.1v.2h-.2V48.4l-.1.1-.1.2-.1.2.6.2V48.8l.1-.1v-.1c0-.1 0 0 0 0l.1-.1v-.1l.1-.1V48l.1-.1v-.1l.1-.1v-.2h.1v-.2h.2V47h.1V46.7l.1-.1.2-.1v-.1l.1-.1v-.1h.1V45.9h.1l-.5-.4.1.1Z"/><path fill="#141414" d="M36.4 42.5h-.1v.2h-.1l-.1.1V43.1h-.2v.1l-.2.1v.4h-.2V44h-.2v.2h-.1V44.6H35l-.1.1h-.2v.2h-.2v.2l-.1.2h-.1l-.1.1v.1l-.1.1.5.4v-.1l.1-.1v-.2h.2v-.2l.1-.1V45h.2V44.8h.1v-.1l.1-.1v-.1l.1-.1v-.1h.2V44l.1-.1.2-.1v-.4h.2v-.1l.1-.1.1-.1V43l.1-.1.1-.1-.5-.5.2.2ZM38.9 39.6v.2h-.2v.1l-.1.1v.1h-.1l-.1.1-.1.1h-.1V40.7l-.1.1H38c-.1.1 0 0-.1 0v.2h-.1l-.1.1v.1l-.1.1-.1.1v.2H37.1l-.1.1v.1H37v.2h-.1v.1h-.1l-.1.1v.1h-.1l-.1.2.5.4.1-.1v-.2h.2v-.2h.1v-.1h.1V42h.1v-.1h.1v-.1l.1-.1h.1v-.2h.2v-.1l.1-.1.1-.1V41h.1V41h.1v-.1l.1-.1v-.1l.1-.1h.1l.1-.1.1-.1.1-.1v-.1h.1V40h.2l-.5-.5ZM41.8 37v.2h-.2l-.1.1v.1h-.1v.1h-.1l-.1.1-.1.1H41v.2h-.1v.1h-.2l-.1.1v.1h-.2v.2h-.2v.1c-.1.1 0 0 0 .1l-.1.1h-.2l-.1.1h-.1v.1h-.1v.1h-.1v.1l-.1.1h-.1l-.1.1h-.1l-.1.1.5.5v-.1l.1-.1v-.2h.2c.1-.1 0 0 0 0l.1-.1v-.1h.2V39h.1l.1-.1h.1v-.1h.1v-.1h.1v-.1h.1l.1-.1.1-.1h.1v-.1h.1v-.1h.1l.1-.1V38l.1-.1.1-.1H41.8v-.1l.1-.1.1-.1h.2v-.1h.1l-.4-.6-.1.1Z"/><path fill="#141414" d="M45 34.8h-.1v.1h-.1l-.1.1-.1.1v.1H44.2v.1H44v.2H44v.1h-.2l-.1.1-.1.1h-.1l-.1.2h-.1l-.1.1-.1.1H42.7l-.1.1h-.2v.2h-.1v.1h-.2l-.1.1H42l-.1.1.4.5.1-.1V37h.2c.1-.1 0 0 0 0l.1-.1v-.1h.2l.1-.1h.1l.1-.1h.1v-.1h.1v-.1h.2l.1-.1h.1v-.1h.1V36h.1V36h.2v-.1l.1-.1v-.1h.5v-.2h.2l.1-.1h.1l.1-.1-.3-.6v.1ZM48.4 33l-.1.1H48v.1l-.1.1h-.2l-.1.2h-.1c-.1 0 0 .1 0 .1h-.1l-.1.1H47l-.1.1v.1h-.2v.1h-.2l-.1.1-.1.1h-.5v.2h-.2v.1H45.3l-.1.1h-.1l.3.6h.1l.1-.1.1-.1h.1v-.1h.2v-.1h.2l.1-.2h.2l.1-.1h.1l.1-.1h.2v-.1h.2l.1-.1.1-.1h.2V34l.1-.1h.1l.1-.1H48.3l.1-.1h.1l.1-.1h.2v-.1l-.2-.6h-.2Z"/><path fill="#141414" d="m52 31.6-.1.1H51.6v.1h-.1v.1h-.6v.2h-.5v.1h-.2v.1H50l-.1.1-.1.1h-.5l-.1.2h-.6l-.1.1.3.6h.1l.1-.1v-.1h.2l.1-.1H49.6l.1-.1h.1l.1-.1H50.2v-.1h.2l.1-.1h.2v-.1h.2v-.1h.2l.1-.1h.1l.1-.1h.4v-.1h.1l.1-.1H52.3l-.2-.6H52Z"/><path fill="#141414" d="M55.8 30.6h-.1l-.1.1H55.2l-.1.2h-.5l-.1.1h-.4l-.1.1H53.7l-.1.1h-.1l-.1.1H53l-.1.1h-.4v.1H52.1l.2.7.2-.1.2-.1h.2l.2-.1H53.6v-.1H53.9l.2-.1H54.3l.1-.1h.2l.1-.1H55v-.1H55.8v-.1h.4l-.1-.7h-.2Z"/><path fill="#141414" d="M59.6 30.1h-.1v.1H59l-.1.1h-.5v.1H58l-.1.1H57.5l-.1.1H56.6l-.1.1H56v.7H56.4l.1-.1h.2c.1 0 0 0 0 0H57l.2-.1H57.5l.2-.1H58.5V31H59.4v-.1H59.7v-.6h-.1V30Z"/><path fill="#141414" d="M63.5 30.1H63l-.1.1h-.6s-.1.1-.1 0h-.1s0 .1-.1 0h-.7l-.1.1h-1.5v.7h.2l.2-.1H62.5v-.1H62.8v.1H63.5v-.8ZM67.3 30.5H66.4l-.1-.1h-.1l-.1.1H65.8c-.1 0 0 0 0 0h-.2l-.1-.1h-.7v-.1h-.1l-.1-.1h-1v.6h1.6l.1.1h.6l.2.1h.5l.2.1h.4l.2-.6h-.1Z"/><path fill="#141414" d="M71 31.4h-.2l-.1-.1h-.2l-.1-.1H70V31H70s-.1.1-.2 0h-.4l-.1-.1H69l-.1-.1h-.5v-.1h-.1c0-.1-.1 0-.1 0l-.1-.1h-.4l-.1-.1h-.2l-.1-.1-.1.6h.5c.2.1 0 0 .1 0l.1.1H68.4v.1h.4v.1h.5v.1h.8l.2.1.1.2h.5v.2h.1l.3-.6H71Z"/><path fill="#141414" d="M74.7 32.7h-.2l-.1-.1h-.1l-.1-.1H73.9l-.2-.1-.1-.1-.1.1h-.1l-.2-.1v-.1H73V32H72.7V32h-.4v-.1l-.1-.1-.2-.1-.1-.1h-.4l-.1-.1h-.2l-.1-.1-.2.7h.8v.1H72l.2.1h.1v.1h.2v.1h.2v.1h.5v.1H73.6l.1.1h.1v.1l.1.1h.2l.1.1h.1l.1.1h.1v.1l.3-.6ZM78.2 34.4h-.4v-.1H77.5V34h-.2V34l-.1-.1s-.2.1-.2 0h-.1l-.1-.1c-.1-.1 0 0 0 0h-.2v-.1l-.1-.1h-.2v-.1H76l-.1-.1v-.1h-.1v-.1h-.1v-.1h-.4V33l-.1-.1H75v-.1h-.2l-.3.5h.1l.1.1h.2v.1H75.3l.1.2H75.7l.1.1h.2v.1h.2v.1h.1l.1.1h.2v.1h.2v.1H77.1l.2.1v.1l.1.1h.2v.2h.2l.2.1.3-.5h-.1ZM81.4 36.5h-.2l-.1-.1v-.1H80.7v-.1h-.1V36h-.1V36h-.4l-.1-.1v-.1h-.2v-.1l-.1-.1h-.1l-.1-.1h-.1v-.1h-.2l-.1-.1V35L79 35H79v-.1H78.7l-.1-.1v-.1h-.1l-.1-.2h-.1l-.3.5.1.1h.2v.1h.2v.1h.1l.1.1h.2v.1h.1v.1h.1l.1.1h.2v.2h.1l.1.1h.2l.1.1.1.1v.1h.4v.1l.1.1.1.1h.2v.1h.1v.1l.1.1.1.1.4-.5h-.1ZM84.4 39H84v-.1l-.1-.1h-.2v-.2h-.1v-.1h-.1v-.1h-.2l-.1-.1h-.1V38c-.1 0 0 0 0 0H83V38l-.1-.1h-.1l-.1-.1-.1-.1h-.1l-.1-.1v-.2l-.1-.1h-.1v-.1h-.1L82 37h-.1V37l-.1-.1h-.1v-.1l-.2-.1-.4.5h.1v.1h.2l.1.2h.1c.1 0 0 0 0 0l.1.1.1.1v.1h.2l.1.1.2.1v.1h.2v.2h.1v.1h.2v.1h.1v.1h.1v.1h.1l.1.1h.1l.1.1v.1l.1.1h.1v.1h.2v.2l.1.1.5-.5ZM87 41.9h-.1l-.1-.1v-.1l-.1-.1h-.1v-.1h-.1v-.1l-.1-.1-.1-.1V41H86V41l-.1-.1v-.1c-.1-.1 0 0 0 0l-.2-.1v-.2h-.2v-.1h-.1v-.1h-.2V40l-.1-.1v-.1h-.2v-.1h-.1v-.1h-.1v-.1l-.1-.1v-.1l-.1-.1-.5.5h.2v.1h.1v.2h.2c0 .1 0 0 0 0v.1h.1v.2h.2v.2h.1v.1h.1v.2h.1l.1.1.1.1v.1h.1v.1h.1l.1.1.1.1v.1h.1l.2.1v.2l.1.2h.1v.2h.2V42.6l.6-.4v-.2Z"/><path fill="#141414" d="M89.3 45h-.1v-.1l-.1-.1v-.1H89v-.2h-.2v-.2h-.1V44h-.2V44h-.1v-.2l-.1-.1h-.1v-.2H88v-.2h-.1c0-.1 0 0 0 0l-.1-.1V43h-.1V42.8h-.1v-.2h-.2v-.1h-.1V42.1l-.1-.1-.1-.1-.5.4v.1h.2v.2h.2v.2h.1v.2h.2v.2l.1.1v.1h.2v.2l.1.1v.2h.2v.2l.1.1h.1v.1h.2v.5h.1v.2h.2v.4l.6-.4V45ZM91.2 48.4l-.1-.1H91V48l-.1-.1v-.1h-.1v-.2l-.1-.1v-.1c0-.1-.2 0-.2 0v-.1l-.1-.1V47l-.1-.1h-.1v-.2h-.1v-.2l-.1-.1h-.1V46l-.1-.1v-.1h-.1v-.1l-.1-.1v-.2l-.1-.1v-.1l-.1-.1-.6.3v.1h.1v.2h.2v.1l.1.2h.1V46.5l.1.1v.1l.1.1v.2h.1v.2h.2V47.5h.1l.1.2v.1h.1v.1h.2v.4l.1.2v.1h.1v.2l.1.2.6-.3v-.2Z"/><path fill="#141414" d="m92.7 52-.1-.1v-.1l-.1-.1v-.2h-.2V51l-.2-.1v-.4l-.1-.1V50l-.1-.1c-.1-.1 0 0 0-.1h-.1v-.1l-.1-.1v-.4l-.1-.1-.1-.1v-.4l-.1-.2-.6.3v.1l.1.1v.1h.1v.1l.1.1v.1l.1.1V49.8l.1.1v.1l.1.1v.1l.1.1V50.6l.1.1.1.1V51.1h.1v.1l.1.1v.4l.1.1v.2h.1V52.3l.7-.2-.1-.1Z"/><path fill="#141414" d="M88 53.5h.7v-.2h.6l.1-.1h.5V53H90.6V53h.8l.1-.1H92.3l-.1-.7h-.4v.1H91l-.1.1H90.4l-.1.1h-.5l-.1.1h-.4l-.1.1h-.8v.1H88v.7h.1Z"/><path fill="#141414" d="M83.9 54.2h.4l.1-.1h.1V54h.6l.1-.1h.5v-.1h.2l.2-.1H86.5l.1-.1H87.4c.1 0 .2-.1.2 0H88.2l-.1-.7h-.8l-.1.1h-.4v.1H85.8l-.1.1h-.2l-.1.1H85l-.1.1h-.8l-.1.1H83.8v.7h.1Z"/><path fill="#141414" d="M79.7 54.9h.5v-.1h.2v-.1H81v-.2H81.8v-.1h.4v-.1h.9l.1-.1h.7l-.1-.7H83.5v.1H83l-.1.1H82l-.1.1h-.5v.1H81v.1h-.1l-.1.1H80l-.1.1H79.6l.1.6Z"/><path fill="#141414" d="M75.5 55.6h.1l.1-.1h.5v-.1h.5l.2-.2h.7l.1-.1h.2V55H78.9V55h.9l-.1-.7H79.3l-.1.1h-.7v.1h-.6l-.1.1h-.4l-.1.1h-.4l-.1.1H75.9l-.1.1h-.4l.1.7ZM69.9 50.8h.2v.1h.1v.1H70.6v.1h.1v.1h.1v.1H71v.1h.1v.2H71.5v.1h.1v.2H71.9v.2h.1v.2h.1l.1.1v.1h.2v.1h.1v.2h.1v.2h.1l.5-.4-.1-.1h-.1l-.1-.1v-.1h-.1l-.1-.1-.1-.1V52h-.2v-.1l-.1-.1-.1-.1-.1-.1h-.1v-.1l-.1-.1h-.1l-.1-.1-.1-.1h-.1V51h-.1l-.1-.1v-.1H70.9v-.1h-.1l-.1-.1v-.1h-.1v-.1h-.2c0-.1 0 0-.1 0l-.1-.2H70l-.4.5h.2Z"/><path fill="#141414" d="M66.5 49.2h.2l.1.1h.2v.1H67.3l.1.1h.1v.1h.4v.1H68.2v.1h.2v.1h.1l.1.1h.2v.2H69.2v.2H69.4v.1l.1.1h.1v.1l.2.1.3-.6H70l-.1-.1h-.1l-.1-.1h-.1c-.1-.1 0 0 0 0l-.1-.1h-.1l-.1-.1H69v-.1h-.2v-.1H68.6v-.1l-.1-.1h-.2l-.1-.1H68l-.1-.1h-.4l-.1-.1V49l-.1-.1H67v-.1h-.2l-.1-.1h-.1l-.2.6ZM62.7 48.6h.1v-.1H64.5v.1h.7l.1.1.1.1h.2v.1h.4l.1.1h.2l.1.1.2-.6H65.9c-.1-.1 0 0 0 0l-.1-.1h-.2v-.1H65l-.1-.1h-.4V48H64L64 48H63l-.1-.1h-.2v.6ZM59 48.9v-.1H59.4v-.1h.1v-.1h.5l.2-.1H61v-.1H62.5v-.6H60v.1h-.1l-.1.1H58.7l.1.7.1.1ZM55.3 50h.1v-.1h.2l.1-.1h.1v-.1h.5v-.2h.4c.1 0 0 0 0 0h.2v-.1h.2v-.1h.2l.1-.1H58l.1-.1h.7l-.1-.7H58.4l-.1.1h-.6l-.1.2H57l-.1.1H56.6v.1h-.1l-.1.1H56.2v.1H56l-.1.1h-.4l-.1.1v.1h-.2v.1H55l.2.7V50Z"/><path fill="#141414" d="M52.1 52h.1v-.1h.2v-.1h.1v-.2h.2l.1-.1h.2v-.2l.1-.1h.2V51l.1-.1h.2v-.2h.2l.1-.1v-.1h.5v-.1h.1v-.1h.2v-.1h.4l.1-.1-.2-.6h-.2v.1h-.1v.1h-.2v.1h-.2v.1H54l-.1.1h-.1l-.1.1h-.1v.1h-.2v.1h-.2v.1H53l-.1.2h-.2l-.1.1v.1h-.1v.2h-.4v.1H52l-.1.1h-.1v.1l-.1.1h-.1l-.1.1.4.5h.1Z"/><path fill="#141414" d="M49.5 54.8v-.2h.1v-.1h.2V54.2h.1l.1-.1V54h.1v-.2h.1v-.2h.2v-.2h.2v-.1l.1-.1V53c.1-.1 0 0 .1 0v-.2H51.2l.2-.1v-.2h.2v-.1l.1-.1h.1l.2-.1v-.1l-.4-.5v.2h-.1v.2h-.2c-.1.1 0 0 0 0l-.1.1-.1.1h-.1l-.1.2h-.1v.1h-.1l-.1.1-.1.1v.1h-.1l-.1.1-.1.1v.1H50v.1h-.1v.2h-.2V53.9h-.1v.1h-.1l-.1.1-.1.1v.1h-.1v.2H49v.1l-.1.1.5.4v-.2Z"/><path fill="#141414" d="M47.7 58.1V57.7l.1-.1v-.2h.1v-.1l.1-.1v-.1l.1-.1V56.8l.2-.1c0-.1 0 0 0 0v-.2l.2-.1V56h.1v-.2l.1-.1h.2v-.2h.2s-.1-.1 0-.1v-.2l.1-.1h.1V55l.1-.1.1-.1-.5-.4-.1.2v.2h-.1v.1h-.1v.2l-.1.1h-.1v.2l-.1.2-.1.1v.2h-.1l-.1.1v.1H48v.4h-.1v.1h-.1v.4l-.1.1h-.1v.2h-.1v.1l-.1.1V58h-.1l.6.3h-.2ZM46.7 61.8V60.8l.1-.1-.1-.1v-.2l.2-.1c0-.1 0 0 0 0v-.5l.1-.1v-.4h.1v-.1l.1-.1V59h.1v-.4h.1v-.2h.1v-.2L47 58v.1h-.1v.2l-.1.1v.1c0 .1 0 0 0 0v.2l-.1.1-.1.1v.2l-.1.1v.4h-.1v.2l-.1.1v.5h-.1v.5H46V61.6H46v.2l.6.1h.1Z"/><path fill="#141414" d="M46.6 65.6V65l-.1-.1v-.5h-.1v-1.3l.1-.2v-.1l.1-.1-.1-.2v-.2l.1-.1V62l.1-.1-.6-.1v.8l-.1.1V65.7h.7v-.1ZM47.5 69.3v-.1h-.1V69l-.1-.1v-.1h-.1v-.5l-.2-.1V67.9c0-.1 0 0 0 0v-.1l-.1-.1v-.1l-.1-.1V67.2h-.1V66.3s-.1 0 0 0v-.5H46v.6c0 .1 0 0 0 0v.2h.1V67.4l.1.2v.1l.1.2v.1l.1.2V68.4l.1.1v.2h.1V69l.1.2v.1l.1.1V69.7l.7-.2v-.2Z"/><path fill="#141414" d="M49.3 72.6h-.1l-.1-.1v-.2H49v-.1h-.1V72l-.1-.1v-.2l-.1-.1h-.2V71.3h-.1v-.1h-.1V71h-.1v-.2H48v-.2H48V70h-.2V70l-.1-.2v-.4l-.7.2.1.2.1.2v.1c.1.2 0 0 0 .1l.1.1v.2l.1.1v.1l.1.1v.2l.1.1v.2h.2V71.7l.1.1v.1l.1.1h.1v.1h.2v.5h.1v.2h.1l.1.1v.2l.6-.3Z"/><path fill="#141414" d="m51.8 75.5-.1-.1h-.1l-.1-.1v-.1H51.1V75l-.1-.1H51v-.2H50.6v-.2l-.1-.1h-.1v-.1l-.1-.1h-.1V74l-.1-.1H50l-.1-.1v-.2l-.1-.1v-.1h-.1v-.1h-.1v-.1l-.1-.1V73l-.1-.1v-.1l-.1-.1-.6.4.1.1.1.1h.1v.2c.2.1 0 0 .1 0v.1h.2v.2l.1.1v.1l.1.1v.1h.1v.1h.1l.1.1v.1l.2.1v.1l.1.1.1.1.1.2h.1v.1h.2v.1l.1.1v.1l.1.1h.1v.1h.2v.2l.2.1.4-.5ZM54.9 77.6H54.6l-.1-.1h-.2v-.1l-.1-.1H54l-.1-.1-.1-.1s-.1.1-.1 0h-.2V77l-.1-.1h-.2v-.1H53v-.2H52.7v-.1h-.1v-.2l-.1-.1h-.1V76h-.2V76l-.1-.1-.1-.1v-.1l-.1-.1-.1-.1-.5.5h.1v.1h.2l.1.2h.1c.1 0 0 0 0 0l.1.1h.1v.1l.1.1h.2v.2h.2v.1h.2v.2h.1l.1.1h.2l.1.1h.1v.2h.5v.2h.1l.2.1.1.1h.2v.1h.1l.3-.5v.1ZM58.5 78.9H58v-.1h-.6l-.1-.1H57v-.1H56.6v-.1h-.2l-.1-.1H56v-.1H56l-.1-.1V78h-.2V78H55.4v-.1h-.1v-.1h-.1l-.1-.1-.1-.1-.3.6h.4v.2h.1c.1 0 0 0 0 0h.2l.1.1h.2v.1h.2v.1H56.3l.2.2H56.7v.1H57l.1.1h.4l.1.1h.2v.1h.4v.2h.1l.2-.6ZM62.2 79.3H61.8l-.1.1H60.3l-.1-.1h-.5l-.1-.1h-.1l-.1-.1s-.1.1-.1 0h-.4l-.2-.1h-.1l-.1.6h.8v.1h1.1v.1h1.1l.2.1H62.3v-.7h-.1Z"/><path fill="#141414" d="m59.1 81 .1-.1H59.6v-.1H60.2l.1-.2H61.2v-.1h.6l.2-.1h.6l-.1-.7H62v.1h-.6v.1H61v.1H59.8l-.1.2h-.2l-.1-.1h-.6v.7l.2.1Z"/><path fill="#141414" d="m55.7 80.9.1-.1H56.7s0-.1.1 0c0 0 .1-.1.2 0h2.2v-.6h-.5c-.1 0 0 0 0 0H55.8l-.1-.1h-.1v.7Z"/><path fill="#141414" d="M52.3 80.4H53.8c.1 0 0 0 0 0h.2l.1.1h.6l.1.1H55v.1h.5l.1.1h.2v-.7H54.2l-.1-.1H53v-.1H52.6v-.1h-.4l-.1.6ZM52.7 84.6v-.1l-.1-.1v-.5h-.1v-.6h-.1v-.6h-.1v-.5l-.1-.1v-1H52V80.3h-.6v1.1l.1.2v1l.1.1v.4l.1.1V84.3l.1.2V84.8l.7-.1v-.1Z"/><path fill="#141414" d="M53.1 88.9v-.5l-.1-.1v-.7l-.2-.1V86.7l-.1-.1v-.4h-.1v-.5l.1-.1-.1-.2v-.8l-.7.1v.4h.1v1.4h.1v.7h.1v.4l.1.2V89h.7v-.1h.1Z"/><path fill="#141414" d="M53.6 93.1V93l-.1-.1v-.5h-.1v-.6h-.1v-.6h-.1v-.5l-.1-.1v-1H53V88.8h-.6V90l.1.2v1l.1.1v.4l.1.1V92.8l.1.2V93.3l.7-.1V93ZM29.4 59.9v-.5l.2-.2H30v.1h.2l-.3.7-.6-.1h.2ZM44.2 67.8h.4v.1h.1l.2.1h.1l.3.1v-.4l-.1-.3V67l-.7.1-.1.1v.2l-.1.1-.2.3ZM47.5 54.7V54h-.1l-.2-.1-.2.6.6.3-.1-.1ZM32.7 49.9v-.1h-.1l-.1-.1v-.5l.6.2v.2l-.1.1-.1.3-.2-.1ZM92.7 52v.5h-.1v.1H92.2l-.1-.6.6-.2-.1.2ZM75.3 54.9H75l-.1.2V55H75.4v-.2l-.6.3 1 .4v-.1l-.1-.2V55h-.3Z"/><path fill="#141414" d="M75 54.3v.1l.2.6V55.7H74.9v-.2l-.4-.4-.2-.3H74.7V54.4l.1.2.1.5-.1-.1-.1-.1-.3-.2-.1-.1H74l-.4-.5-.3-.4-.4-.4h-.1l.5-.5 1 1.8h.4l.3-.1v-.2ZM62.3 79.3l.6-.1h.9l.6-.1h.5l-.2.2-.2.2h-.1l-.1.1-.4.2-.3.2h-.2l-.2.1-.3.1-.3.1h-.1l-.2-.6v.2-.7ZM52.4 79.7h-.5v.2h-.1v.4h.7v-.7l-.1.1ZM53.6 93.2v.5l-.1.1h-.6l.2-.6H53.8h-.1ZM58 18.8h.5v-.1h.7v-.1H60.1l.1-.1H61.8V18H59.2l-.1.1H57.8v.7h.1l.2.1Z"/><path fill="#141414" d="M54.2 19.3h.4v-.1h.1V19h.6V19h.2v-.1h.5l.1-.1H56.4v-.1H57.9V18H57v.1h-.8v.1h-.6v.1H55l-.1.1h-.7l-.1.1H53.9l.1.6.2.2Z"/><path fill="#141414" d="m50.4 20.2.2-.2H51v-.1h.6v-.2h.8v-.1H52.7v-.1h.7v-.2h.7l-.1-.6h-.7l-.1.1H52.8l-.1.1H52.4l-.1.1H52l-.1.1h-.2l-.1.1H51.3l-.1.1h-.5l-.1.1h-.1l-.1.1H50l.1.7h.2Z"/><path fill="#141414" d="M46.7 21.4v-.1h.2l.1-.1h.2V21h.5l.1-.2h.4v-.1H48.6v-.1h.2v-.1h.1l.1-.1h.7l.1-.1H50.3l-.2-.7h-.2v.1H49.5c-.2.1 0 0-.1 0h-.1v.1h-.2l-.2.1h-.4v.1H48.2v.1H48v.1h-.2v.1H47.5v.1h-.1l-.2.1H46.8v.1h-.2l-.1.1H46.3l.2.7h.2Z"/><path fill="#141414" d="m43.1 22.9.1-.1h.1l.1-.1h.2v-.2H44v-.1h.2v-.2h.1l.1-.1h.2l.1-.1h.2v-.1h.2l.1-.1.1-.1h.6v-.1h.2l.1-.1h.5l-.2-.7h-.2l-.1.2h-.7v.2h-.5l-.1.1h-.2l-.1.1h-.2v.1h-.1l-.1.1H44l-.1.1-.1.2h-.5v.1H43v.1H42.7l.3.7ZM39.7 24.7v-.1h.1l.2-.1v-.1h.2v-.1h.2V24h.2V24h.4v-.1H41.4v-.2H41.7v-.1h.5v-.1h.2v-.1h.1v-.1H42.8V23H43l-.3-.7v.1h-.2v.1l-.1.1h-.1l-.1.1h-.4v.1h-.1v.1h-.2l-.1.1h-.1v.1H41l-.1.1h-.2v.1l-.1.1h-.2v.1h-.1l-.1.1v.1h-.1l-.1.1H39.8l-.1.2h-.1l-.1.1h-.2l.3.7v-.2Z"/><path fill="#141414" d="M36.4 26.8v-.1h.1l.1-.1.2-.1v-.2h.2l.1-.1h.2V25.8h.4v-.2H38v-.1h.1l.1-.1h.1v-.1h.1l.1-.1h.4V25h.2l.1-.1h.2l.1-.1h.2l-.4-.6h-.1l-.1.1-.1.1h-.1v.1c-.2.1 0 0-.1 0h-.1v.1h-.2l-.1.2h-.2l-.1.1H38l-.1.1v.1h-.2v.1h-.2l-.1.1-.1.1h-.1l-.1.1-.1.1v.1h-.1l-.1.1H36.5v.1l-.1.1h-.1l-.1.1h-.1v.1H36l.4.6v-.1ZM33.4 29.2V29h.1v-.1h.1v-.1h.1v-.2H34v-.1h.1v-.2h.2v-.1h.2V28l.1-.1h.1v-.1h.2v-.1l.1-.1.1-.1.1-.1H35.5v-.1h.2v-.2h.1l.1-.1h.2l.1-.1h.2l-.4-.6h-.1l-.1.1v.1h-.2v.2h-.2v.1h-.2v.2H34.8v.1h-.2v.2h-.2l-.1.1-.1.1h-.1v.1H34v.1h-.2v.1h-.1v.2H33.5l-.1.1h-.1v.2h-.1l-.1.1H33v.1h-.1l.4.6V29ZM30.5 31.8v-.2h.1l.1-.1v-.1h.1v-.1h.1v-.1h.2V31h.1V30.7h.1l.1-.1h.1c.1-.1 0 0 0 0l.1-.1v-.1h.2v-.2h.2V30H32.4l.2-.1v-.2h.2v-.1l.1-.1h.1l.2-.1v-.1l-.4-.5v.2h-.1v.2h-.2c-.1.1 0 0 0 0l-.1.1-.1.1h-.1l-.1.2h-.1v.1h-.1l-.1.1-.1.1-.1.1h-.1v.1h-.1l-.1.1-.1.2H31l-.1.1-.1.1v.2H30.4c0 .1 0 0-.1 0v.1h-.1v.2h-.1l-.1.2H30l-.1.1.5.5Z"/><path fill="#141414" d="M27.9 34.7v-.2h.1l.1-.1v-.1h.1V34h.2v-.2h.2V33.5h.2v-.2h.1v-.1h.2V33h.1V33c0-.1 0 0 0 0v-.2H29.6v-.1h.2V32.3h.2v-.2h.2l.1-.1.1-.1-.4-.5h-.1v.1l-.1.1v.1h-.1v.1l-.1.1h-.1v.1h-.1l-.1.1v.1H29v.1l-.1.1h-.1v.1l-.1.1-.1.1h-.1v.1l-.1.1-.1.1v.1h-.1v.1h-.1l-.1.1V33.7H28l-.1.1h-.2v.1l-.1.1-.1.1v.1h-.1v.1h-.1l.5.5Z"/><path fill="#141414" d="M25.6 37.8v-.2l.1-.1v-.1h.2v-.2h.1V37h.2v-.4h.2v-.2l.1-.1h.1V36h.2V35.7l.1-.1h.2l.1-.1v-.1h.1v-.2h.1v-.1l.1-.1h.1V35l.1-.1.1-.1-.5-.4-.1.1v.2H27v.2h-.1v.1l-.1.1h-.1v.2l-.1.1h-.1v.1l-.1.1-.1.1v.1h-.1v.1H26v.1l-.1.1v.1l-.1.1-.1.1V36.7h-.1v.1h-.1l-.1.1-.1.1v.1h-.1v.2h-.1v.1l-.1.1.6.4h-.1ZM23.5 41.2V41l.1-.1.1-.1V40.5h.1v-.1h.1v-.1h.1v-.4l.1-.1h.1v-.2h.1l.1-.1v-.1l.1-.1v-.1l.1-.1V39l.1-.1h.1l.1-.1v-.1h.1v-.2h.1v-.1l.1-.1h.1v-.1l.1-.1.1-.1-.5-.4-.1.2v.2h-.2v.1c0 .1 0 0 0 0v.2l-.2.1v.2l-.1.2-.1.1v.2H24v.2H24V39.7h-.1v.1l-.2.1v.4h-.2v.1l-.1.2-.1.1v.2h-.1v.2l.5.3-.2-.1Z"/><path fill="#141414" d="M21.8 44.6V44.2l.1-.1V44l.1-.1v-.1h.1v-.2h.1v-.4h.2V42.8h.2V42.2h.1v-.1h.2V41.8h.2l-.1-.1v-.2h.1v-.1h.2v-.2l.2-.1-.6-.3-.1.1v.2h-.2v.2c0 .1 0 0 0 0v.2h-.1v.2h-.1v.2l-.1.1v.1h-.1v.2l-.1.1v.1H22V43l-.1.1v.1h-.1v.4l-.1.1h-.1v.1l-.1.1v.1l-.1.1V44.4h-.1l.6.3h-.1Z"/><path fill="#141414" d="M20.4 48.3v-.5l.1-.1V47.4l.1-.1.1-.1c0-.1-.1-.2 0-.2v-.2h.1V46.4h.1V46.2h.1V45.8l.1-.1.1-.1v-.1h.1v-.2h.1V45h.2v-.1l.1-.1.1-.1-.6-.3v.1l-.1.1v.1l-.1.1v.4h-.1l-.1.1v.2l-.1.1v.1l-.1.1V46.1h-.1v.1l-.1.1v.4h-.1v.4l-.1.1-.1.1v.1l-.1.1v.2h-.1V48l-.1.1.6.3v-.1Z"/><path fill="#141414" d="M19.3 52V51.2h.1v-.4h.1l-.1-.2v-.2h.1V50.1l.1-.2v-.5h.1v-.1h.1v-.1l.1-.1v-.1h.1v-.4h.1v-.2l.2-.1v-.1l-.6-.3v.4l-.1.1v.1c-.1.1 0 0 0 0l-.1.1v.1l-.1.1v.2h-.1V49.4l-.1.1V49.8l-.1.1v.5l-.1.1v.4l-.1.1-.1.1v.2l-.1.1V51.7l-.1.1.7.1ZM18.5 55.8V54l.1-.1v-.5h.1v-.1l.1-.1.1-.1v-.5l.1-.1v-.1l.1-.2v-.1l-.6-.1v.8h-.1v.4h-.1v.4l-.1.1v.6l-.1.2v.5H18v.5h-.1v.2l.6.2v-.1ZM18 59.6V58.4s-.1 0 0 0v-.1s-.1 0 0-.1v-.4l.1-.1v-.6l.1-.1v-.2h.1v-.5l.1-.1V56l-.6-.1v.6c0 .1 0 0 0 0V56.9l-.1.1V57.8l-.1.1V59l-.1.1v.6h.7-.1ZM18 63.6v-.1h-.1V63.2l-.1-.1v-.6l-.1-.1v-.5l.1-.1V61l.1-.1v-.6l.1-.1V59.9l-.6-.1V60.7h-.1V63.8h.6v-.1Z"/><path fill="#141414" d="m18.2 67.4-.1-.2v-.4H18v-.5H18v-.9l-.1-.2V63.7h-.6v.6c0 .1 0 0 0 0V65.4l.1.1V67.2l.1.1V67.6h.6v-.1h.2Z"/><path fill="#141414" d="M18.8 71.3v-.1l-.1-.1V70.7l-.1-.1v-.5l-.2-.1v-.7h-.1v-.2l-.1-.1V68.1H18v-.6h-.6V68.5l.1.1v.8h.1V70h.1v.4l.1.2v.7h.1v.4l.6-.1v-.1l.2-.1Z"/><path fill="#141414" d="m19.7 75-.1-.1v-.4h-.2V74l-.1-.1v-.4l-.1-.2v-.1H19V72.8H19v-.6l-.1-.2v-.7l-.7.2v.2l.1.1v.2c0 .1 0 0 0 0v.4l.1.1V73l.1.1V73.4l.1.1v.2l.1.1V74l.1.1v.1h.1v.7l.1.1v.4l.7-.2V75ZM21 78.7l-.1-.1v-.2l-.1-.1-.1-.1V78l-.1-.1v-.2h-.1v-.1l-.1-.1V77l-.1-.1v-.1l-.1-.1-.1-.1v-.4L20 76V75.8h-.1v-.6l-.7.2v.2h.1v.2l.1.1v.4l.1.1v.1l.1.1V77l.1.1V77.4h.1v.2h.1V77.8h.1v.2h.1v.5h.1v.2h.1v.4l.7-.2v-.2Z"/><path fill="#141414" d="m22.6 82.3-.1-.1V82l-.1-.1v-.2h-.2V81.5H22v-.2h-.2v-.1l-.1-.1v-.2l-.1-.1v-.1l-.1-.1v-.1l-.1-.1v-.1l-.1-.1v-.5l-.1-.1v-.1l-.1-.1V79l-.1-.1-.6.2v.2h.1v.2l.1.1v.4l.1.1v.1l.1.2.1.1v.1l.1.1V81h.1v.1h.1v.2h.1v.1l.1.1v.1h.1v.4l.1.2h.1v.1l.1.1V82.7l.6-.3v-.1ZM24.5 85.7l-.1-.1h-.1v-.2l-.1-.1H24V85H24V84.8H23.6V84.5l-.1-.1-.1-.1v-.1l-.1-.1V84l-.1-.1-.1-.1v-.1H23v-.5H23V83h-.1V82.7l-.1-.1v-.2l-.6.3v.2h.2v.2l.1.1v.4h.2V84l.1.1v.1h.1v.2l.2.1v.2h.1v.1l.1.1v.1l.2.1.1.1v.5h.2v.2h.2V86.3l.6-.3-.1-.2Z"/><path fill="#141414" d="M26.6 88.9v-.1h-.1v-.2h-.1l-.1-.1h-.1v-.2l-.1-.1V88H25.7v-.1l-.1-.1v-.2h-.1l-.1-.1v-.2h-.1v-.1h-.1V87h-.1l-.1-.1v-.5h-.2v-.1h-.1V86l-.1-.1v-.2l-.6.3V86.3h.2v.2h.1v.1l.1.1v.2h.1v.1h.1v.2l.1.1v.1h.1v.2l.2.1v.2h.2V88.3h.1l.1.1h.1v.2h.1V88.8h.1l.1.1v.1l.2.1v.2l.5-.3v-.1ZM29.1 91.9h-.2v-.1l-.1-.1h-.1v-.1h-.2v-.2l-.1-.1-.1-.1V91H28L28 91v-.2h-.2v-.2h-.2v-.2h-.1v-.1h-.1v-.1l-.1-.1V89.8h-.1v-.1H27v-.2l-.1-.1v-.2l-.1-.1-.1-.1-.5.4v.1h.1l.1.1v.2h.2c0 .1 0 0 0 0v.1h.1v.2l.2.1v.2l.1.1v.1h.2v.2l.1.1v.1h.1v.1h.1v.1h.1v.2h.1l.1.1h.1v.1h.1V92l.1.1h.1v.1h.1l.1.2v.1l.6-.4.1-.1ZM31.8 94.7h-.2v-.2h-.2v-.2h-.2v-.1L31 94V94H30.7v-.2l-.1-.1h-.1l-.1-.2h-.1v-.1h-.1l-.1-.1h-.2v-.5H29.5v-.2h-.1v-.2h-.1v-.2h-.2l-.5.4h.1l.1.1h.1l.1.1v.1l.1.1.1.1v.1l.1.1h.1v.1l.1.1h.1v.2h.2v.1l.1.2h.1l.1.1v.1h.1l.1.1v.1h.1l.1.1h.2v.1h.1v.2l.1.1h.1l.1.1.1.1v.1h.1v.1l.5-.5v-.1ZM34.8 97.2h-.2l-.1-.1-.1-.1h-.2v-.2H34l-.1-.2H33.6v-.2c-.1-.1 0 0-.1 0l-.1-.1-.1-.1h-.1L33 96V96H33c-.1 0 0 0 0 0h-.2V95.6l-.1-.1-.1-.1v-.1h-.2v-.1h-.1v-.1l-.1-.1-.1-.1-.1-.1-.5.4h.1v.1h.2v.1l.1.1h.1c.1.2 0 0 0 .1h.1v.1l.1.1v.1h.2v.1h.1v.2h.1l.2.1v.1l.1.1h.1v.1h.1v.1h.2v.1l.1.1v.1H33.8v.1h.1v.1l.1.1.1.1h.1l.2.1v.1h.1l.1.1.4-.5h-.1Z"/><path fill="#141414" d="M38 99.5H37.6l-.1-.1h-.1l-.1-.1h-.1v-.1h-.1V99H37V99h-.4v-.2h-.1l-.1-.1h-.1l-.1-.1h-.1v-.1l-.1-.1h-.2v-.1h-.1V98h-.1V98h-.1v-.1h-.2v-.1h-.1v-.1h-.1v-.1l-.1-.1H35l-.1-.2-.4.6h.1v.1h.2v.1h.2v.1l.2.1v.2h.2l.1.1.2.1.2.1v.1h.1v.2h.4v.1l.1.2H36.8l.1.1.1.2h.2l.1.1h.2v.1l.1.1.4-.5ZM41.3 101.5H41v-.1h-.2v-.1h-.2l-.1-.1h-.1v-.2h-.5v-.2h-.2v-.1h-.2v-.1l-.1-.1H39v-.1H39v-.2l-.1-.1h-.1v-.1h-.2l-.1-.1h-.1v-.1l-.1-.1h-.1l-.1-.1-.4.5h.1v.1h.2l.1.1h.1l.1.1h.2v.1l.1.1h.2l.1.1h.2v.1h.2v.1h.1v.2h.4v.1l.1.1H40.2v.1h.2v.2h.1l.1.1H40.9v.1l.1.1.4-.6-.1.2ZM44.8 103.2H44.4v-.1h-.2l-.1-.1h-.1l-.1-.1h-.2v-.2h-.1l-.2.1h-.1v-.1l-.1-.1c-.1 0 0 0 0 0H43v-.1l-.1-.1h-.2v-.1H42.5l-.1-.1v-.1h-.1v-.1h-.1v-.1h-.4l-.1-.1v-.1h-.1l-.1-.1h-.1l-.3.5h.1l.1.1h.2v.1h.1c.1 0 0 0 0 0l.2.1h.1v.1h.2l.2.1.1.1h.2v.1h.2v.2h.5v.1h.4v.1h.1v.1h.1v.1h.2l.1.1h.1l.2.1v.1l.3-.6ZM48.4 104.5H48l-.1-.1h-.2l-.1-.1h-.2l-.1-.1H47l-.1-.2c-.1 0 0 0 0 0h-.2l-.1-.1H46.3l-.1-.1H45.9v-.2H45.6v-.2s-.2.1-.2 0h-.2l-.1-.1h-.2l-.1-.1-.3.6h.4v.2h.2c.1 0 0 0 0 0h.2l.1.1h.2v.1h.2v.1H46.2l.2.1h.1v.1h.2v.1H47l.1.1h.4l.1.1v.1h.2l.1.1H48.1v.1h.1v.1l.3-.6v-.1Z"/><path fill="#141414" d="M52.2 105.5h-.5l-.1-.1h-.4v-.1H51v.1H50.6v-.2H50v-.1h-.4l-.1-.1h-.1v-.1h-.2v-.1h-.5l-.1-.1h-.1l-.1-.1-.3.6h.4l.1.1h.1c.1 0 0 0 0 0H49.2l.1.1H49.5l.1.1H50v.1h.4l.1.1h.6l.1.1h.1l.1.1h.2l.1.1h.1l.1.1h.2l.1-.6h.1ZM56 106.2h-1.5c-.1 0 0 0 0 0h-.2l-.1-.1h-.7v-.1l-.1-.1h-.6l-.1-.1h-.2v-.1h-.2l-.1.6H53v.1H53.9l.1.1H54.6v.2h.2l.1-.1h.2l.1.1h.5v.1H56v-.6ZM59.9 106.5h-.4v.1H57.4l-.1-.1h-.1l-.1-.1h-.5l-.1-.1h-.2l-.1-.1-.1.6H56.9c.1 0 0 0 0 0l.1.1h.8v.1H59.3l.1.1H60v-.6h-.1ZM63.8 106.5h-.1l-.1.1h-.4v.1H62.5v.1H61.3l-.1-.1H61l-.1-.1-.1.1H60.5l-.1-.1H60v.6H61c.1 0 .1.1.2 0H62v.1h.7l.1-.1H64v-.6h-.1ZM67.7 106.2h-.1l-.1.1H67v.2l-.2-.1H66.5l-.1.2H65.4v.1h-.5l-.1-.1-.1.1H64v.6H65.1v-.1h1.6l.1-.1H68l-.1-.7-.1-.2Z"/><path fill="#141414" d="M71.5 105.5v.1H71v.1H71v.1h-.6v.2h-.7l-.1.1H69.3v.1h-.9s0 .1-.1 0h-.4v.7h.7l.1-.1h.8v-.1H70.1v-.1h.4l.2-.1h.6l.1-.1h.4l-.2-.7-.1-.2Z"/><path fill="#141414" d="m75.3 104.5-.1.1-.1.1H74.7l-.1.1h-.5l-.1.2H73.8c-.1 0 0 0 0 0h-.1l-.1.1h-.1l-.1.1H73v.1h-.6l-.1.1h-.7l.1.7H72.1v-.1h.4l.1-.1h.4v-.1H73.3l.1-.1H73.8l.2-.1h.1l.2-.1H74.5v-.2h.7l.2-.1H75.8l-.2-.7h-.2Z"/><path fill="#141414" d="m78.9 103.2-.1.1H78.5v.2H78v.1h-.2v.2h-.4c-.1 0 0 0 0 0H77.1l-.1.2H76.8v.1h-.5v.1H76l-.1.1h-.2l-.1.1h-.2l.2.6h.2v-.1H76.2c.1-.1 0 0 0 0h.2v-.1h.2l.1-.1H77l.1-.1h.2v-.1H77.5l.1-.1h.2v-.1H78.1v-.1l.1-.1h.5l.1-.1h.1v-.1h.4l-.2-.7h-.2ZM82.4 101.5v.1h-.1l-.1.1H82v.2H81.6l-.1.1h-.1c-.1 0 0 .2 0 .2h-.2l-.1.1h-.1c-.1 0 0 0 0 0H81v.1h-.2v.1h-.2v.1h-.2v.1H79.8v.2h-.1l-.1.1h-.4l-.1.1.3.7v-.1h.1l.1-.2h.2l.1-.1H80.2l.1-.2H80.6l.1-.1h.1l.1-.1h.2v-.1h.2v-.1h.1l.1-.1h.2v-.1l.1-.1h.1v-.1h.4v-.1h.2v-.1H82.9l-.3-.7ZM85.8 99.6h-.1v.1h-.2l-.1.2h-.2v.1H84.9V100.4h-.4v.1h-.1v.1h-.2v.2H83.9v.1h-.1l-.1.1h-.4v.2h-.1l-.2.1H82.7l-.1.1.3.6h.1l.1-.1.1-.1h.1v-.1h.2v-.1h.2l.1-.2H84.2v-.1h.2v-.1h.2v-.1h.2v-.1l.1-.1h.1v-.1h.2v-.1h.1v-.2h.5v-.1l.1-.1h.1l.1-.1h.1l.2-.1-.4-.5h-.1Z"/><path fill="#141414" d="M89 97.3h-.1v.2H88.5v.2h-.2v.1h-.2v.1h-.1v.3H87.7l-.1.1v.1h-.2l-.1.2h-.1v.1h-.1v.1H87l-.1.1H86.7v.2h-.2v.1h-.1l-.1.1H86l-.2.1h-.1l.4.6.1-.1h.1v-.1h.2v-.1c.2-.1 0 0 .2 0v-.1h.2v-.1l.1-.1h.1l.1-.1h.1v-.1h.1V99h.2l.1-.2h.2v-.1l.1-.1h.2v-.1l.1-.1v-.1h.1l.1-.1H89v-.1l.1-.1h.1l.1-.1h.1v-.1h.2l-.5-.6Z"/><path fill="#141414" d="m91.9 94.8-.1.2h-.1l-.1.1v.2h-.2v.1h-.1v.1h-.1l-.1.1v.2H91v.1h-.2c0 .1 0 0 0 0v.1l-.1.1h-.1v.2h-.2v.1c-.1 0 0 0 0 0l-.1.1v.1H90l-.1.1h-.2v.2h-.1v.1h-.2l-.1.1h-.1l-.2.1.4.5h.1l.2-.1v-.1h.1v-.1c.2-.1 0 0 .1 0l.1-.1v-.1h.2V97h.2v-.1h.1v-.1h.2v-.1l.1-.1h.1v-.1h.1v-.1h.2v-.2h.1V96h.2V95.8H91.9l.2-.1v-.2h.1l.1-.1h.1v-.1h.1l-.4-.5h-.1ZM94.6 92v.2h-.1l-.1.1v.1h-.1v.1h-.1l-.1.1-.1.1-.1.1V93.1h-.2c-.1.1 0 0 0 .1h-.1v.1h-.1v.2h-.1l-.1.1v.2h-.1l-.1.1H92.8v.1h-.1v.2h-.1l-.1.1h-.1v.1h-.1l-.1.1H92l.4.5.1-.1v-.1l.1-.1h.1l.1-.1h.1v-.2h.2v-.1h.1l.1-.2h.1l.1-.1.1-.2h.2v-.1l.1-.2h.1v-.1l.1-.1.2-.1V92.9h.1l.1-.1h.2v-.2h.2v-.2h.1v-.1h.1l-.5-.5-.1.2ZM97 89V89.4h-.1v.1h-.1v.2h-.1l-.1.1v.1h-.1v.2l-.1.1v.1h-.1l-.1.1v.2H96v.2h-.2v.1c0 .1 0 0 0 0v.2H95.5l-.1.1-.1.1h-.1v.2h-.1v.1H95l-.1.1v.1h-.1l-.1.1.5.5v-.1l.1-.1V92h.1v-.2h.2v-.1h.2v-.2h.1v-.1h.1v-.1l.1-.1h.1V91h.2v-.1l.1-.1v-.2l.1-.1.1-.1h.1V90h.1l.1-.1h.1v-.1h.1v-.2l.1-.1.1-.1v-.2l-.4-.4v.1ZM99.3 85.8v.2h-.1l-.1.2v.2H99v.1h-.1v.1h-.1v.4l-.1.1h-.1v.2h-.1l-.1.1v.1h-.1v.2h-.1v.2H97.9v.1h-.1v.2h-.1v.1h-.1v.2h-.1l-.1.1-.1.2h-.1l.5.5V89h.1v-.2h.2v-.1c0-.1 0 0 0 0l.1-.1v-.1h.1v-.2h.2v-.2l.1-.1h.1v-.2h.1v-.2h.2v-.2l.1-.1v-.1l.1-.1V86.9h.1v-.1h.1l.1-.1.1-.1v-.2c.1 0 0 0 0 0v-.1l.2-.1V86l-.5-.4ZM101.2 82.4v.2l-.1.1v.1l-.1.2v.1l-.1.1v.2h-.1v.4h-.2V84.1h-.2v.2h-.1v.1l-.1.1v.1l-.1.1h-.1l-.1.1v.2h-.1v.1h-.1v.2h-.1l-.1.1-.1.2h-.1l.6.4v-.1l.1-.1v-.1l.1-.1v-.1c.1-.1 0 0 0 0l.1-.1v-.1h.1V85h.1v-.2l.1-.1v-.1h.1v-.2h.1v-.1l.2-.1V84l.1-.1v-.2h.1V83.4h.2v-.1l.1-.1V83l.1-.1v-.2l.1-.1-.6-.3h.2ZM102.8 78.8V79.2l-.1.1v.1l-.1.1V79.7l-.1.1-.1.2v.2l-.1.1c-.1.1 0 0 0 0v.2h-.1l-.1.1v.2h-.1V81.2h-.1v.2h-.2v.2h-.1V81.8l-.1.1h-.1v.1l-.1.1-.1.1.6.3v-.1l.1-.1v-.1l.1-.1V82c0-.1 0 0 0 0v-.2l.2-.1V81.3l.1-.1V81h.1V81l.1-.1v-.1l.1-.1v-.2l.1-.1v-.1l.1-.1V79.9l.1-.2h.2v-.5l.2-.1V79l-.6-.3v.1Z"/><path fill="#141414" d="M104 75.2v.4l-.1.2v.2l-.1.2-.1.1.1.1v.1l-.1.2h-.1c0 .1 0 0 0 0v.2l-.1.2v.1l-.1.1V77.7h-.1l-.1.1v.1h-.1v.2h-.1v.4l-.1.1v.1h-.1v.2l.6.3v-.4l.1-.1v-.1c0-.1 0 0 0 0v-.2l.2-.1V77.9l.1-.1v-.1l.1-.1v-.2l.1-.1v-.1l.1-.1V76.7l.1-.1v-.4h.1v-.1l.1-.1V76h.1v-.4l.2-.1v-.2l-.7-.2Z"/><path fill="#141414" d="M105 71.4v.5h-.1v.4l-.1.2.1.2v.1l-.2.1v.5l-.1.2v.4h-.2v.2l-.1.1v.5h-.1v.2l-.1.1.6.2v-.5c.1-.2 0 0 0-.1l.1-.1v-.1l.1-.1v-.5l.1-.1V73.4h.1v-.6h.2v-.2s-.1-.1 0-.1v-.2l.1-.1V72h.1V71.6c0-.1 0 0 0 0v-.2l-.6-.1h.1ZM105.6 67.5V69c0 .1 0 0 0 0v.2l-.1.1v.7h-.2v.7l-.1.1v.1l-.1.2v.1l.6.1V70.6c0-.1 0 0 0 0v-.2l.1-.1V69.6l.1-.2v-.6l.1-.1v-.4l.1-.2v-.4h.1V67.4h-.6ZM105.9 63.7V64.9s.1 0 0 0v.1s.1 0 0 .1v1.2h-.1V66.5h-.1l.1.2v.2l-.1.2v.1l-.1.2h.7v-.2l-.1-.1V66.8c0-.1 0 0 0 0v-.2l.1-.1V64.4h.1V63.5h-.6ZM105.8 59.7v.6l.2.1h-.1v.4l.1.1V61.8l.1.1v.6l-.1.1.1.1V63l-.1.1V63.4h.6V62.4s.1 0 0-.1V59.6h-.7v.1h-.2ZM105.3 55.9v.1h.1v.4l.2.1v.5l.1.1v.4l.1.1v.4l.1.1v1.4h.6v-.6c0-.1 0 0 0 0v-1.2l-.1-.2V57l-.1-.1v-.1h-.1v-1.2l-.7.1-.2.2Z"/><path fill="#141414" d="M104.6 52v.2h.1v.4h.1v.6h.2v.5h.1v.2l.1.1v1h.1v.7h.7V55.3l-.1-.1V54.7l-.1-.2V53.4h-.1V53.1l-.1-.2-.1-.1v-.7h-.1v-.4l-.7.1-.1.2Z"/><path fill="#141414" d="m103.5 48.4.1.1v.2l.1.1.1.1v.5l.2.1V49.8c0 .1 0 0 0 0v.2h.1v.1l.1.1V50.5h.1v.6l.1.1V52l.7-.1v-.2l-.1-.1V51h-.1V50.7l-.1-.1V50.3l-.1-.1v-.4h-.1V49.4h-.1V49.1h-.1V49l-.1-.1v-.4h-.1v-.2h-.1v-.4l-.6.3v.1Z"/><path fill="#141414" d="M102 44.7h.1v.1h.1v.2l.1.1v.1h.1V45.5h.1v.2h.2v.4c0 .1 0 0 0 0v.1l.1.1V46.6l.2.1v.2l.1.1v.5h.1v.2h.1v.5l.7-.2-.1-.1v-.1l-.1-.1v-.2c-.1-.1 0 0 0 0v-.2h-.1v-.4h-.1V46.6l-.1-.1v-.2l-.1-.1V46l-.2-.1v-.4h-.1v-.2h-.1v-.4h-.2v-.5l-.7.3ZM100.3 41.2l.1.1v.1l.1.1v.1h.1v.1h.1V42h.1v.2h.3v.4h.1V43h.1v.2h.1v.1h.1v.5h.1v.1l.1.1.1.1V44.3h.1V44.6l.6-.3V44h-.2V43.7c-.1-.1 0 0-.1 0v-.4h-.2V43l-.1-.2-.1-.2v-.1h-.1V42.2h-.1l-.1-.2V42h-.1v-.1h-.2v-.5l-.2-.1v-.1l-.1-.1v-.2l-.6.2v.1Z"/><path fill="#141414" d="M98.3 38h.1v.1l.1.1.1.1h.1V38.7h.2v.2h.2v.4l.2.1v.2h.1v.1l.1.1v.1h.1v.1l.1.1v.4h.2v.1l.1.1v.2l.1.2v.1l.6-.3v-.1l-.1-.2h-.1v-.1l-.1-.1c-.1-.1 0 0 0 0V40h-.2V39.8h-.1v-.2h-.1v-.1l-.1-.1V39h-.2v-.2h-.1v-.1l-.1-.1v-.2h-.2l-.1-.1V38l-.1-.1H99v-.2h-.1v-.2l-.1-.1-.5.4v.1Z"/><path fill="#141414" d="m96 34.8.1.1v.1h.1v.1h.1v.1h.2V35.5h.1v.2h.2v.1h.1v.2h.1v.1h.2V36.5h.1v.1h.1v.1h.2v.4l.1.1v.1h.2v.1l.1.1v.2l.1.1v.2l.6-.4v-.2h-.2V37h-.1l-.1-.1-.1-.1v-.2H98v-.1H98v-.2h-.1v-.1l-.1-.1h-.1V36h-.1v-.2h-.1l-.1-.1-.1-.1v-.1l-.1-.1-.2-.1v-.4h-.1v-.1h-.1v-.2h-.2V34.2l-.6.4v.1ZM93.4 31.9h.2v.2h.2v.1h.2V32.5h.2v.2h.2l.1.1v.2h.1l.2.1v.1h.1v.2h.1c.1.1 0 0 .1 0v.1h.1V33.8h.1v.1h.1v.1h.1v.1h.1l.1.1v.1l.1.1v.1l.1.1.5-.4V34h-.1l-.1-.1v-.1H96v-.2h-.1v-.2h-.2v-.1l-.2-.1V33h-.2v-.2h-.1v-.1l-.1-.1-.1-.1h-.1v-.1h-.1v-.2h-.1l-.1-.1h-.1V32h-.1V31.7l-.1-.1h-.1v-.1H94l-.1-.2v-.1l-.5.4-.1.2Z"/><path fill="#141414" d="M90.5 29.3h.2l.1.1v.1H91.2v.2l.1.1h.1v.1h.2v.1h.2v.2h.2v.2h.2v.1h.2v.1h.1V31h.1v.1h.2v.2h.2v.1h.1v.2l.1.1.1.1.5-.5h-.1l-.1-.1h-.1v-.2h-.2v-.1l-.1-.1v-.1h-.2v-.1h-.1v-.1l-.1-.1h-.1v-.1h-.1l-.1-.1V30h-.1v-.1l-.1-.1H92v-.1H92l-.1-.1-.1-.1h-.1l-.1-.1h-.1v-.1h-.1V29l-.1-.1h-.1v-.1H91l-.1-.1v-.1l-.1-.1-.5.5.1.2Z"/><path fill="#141414" d="M87.5 26.9h.2v.1h.2v.2h.2v.1h.1l.1.2h.4v.2H89v.2h.2v.2h.4V28.5l.1.1h.1v.1h.2v.1h.2v.2h.1v.2h.2l.4-.4-.1-.1-.1-.1h-.1l-.1-.1h-.1c-.1-.2 0 0 0-.1l-.1-.1-.1-.1V28H90l-.1-.1h-.1v-.1l-.1-.1h-.1l-.1-.1v-.1h-.1l-.1-.1H89v-.1H89l-.1-.1V27H88.6V27h-.1l-.1-.1v-.1h-.1v-.1H88v-.1H88l-.1-.1-.1-.1-.4.6v-.1ZM84.2 24.7h.2v.1l.1.1h.1l.1.1h.1l.2.1.1.2h.5v.2h.1l.1.1h.2v.2h.4v.1h.1v.2l.1.1h.1v.1h.2v.1h.1v.1l.1.1h.1v.1l.2.1.4-.5h-.1l-.1-.1h-.2V26h-.2v-.1H87l-.1-.1v-.1h-.2l-.1-.1h-.1l-.1-.1h-.2v-.2h-.1l-.1-.1h-.2l-.1-.1h-.1v-.2h-.5v-.2H85l-.1-.1h-.1v-.1h-.2v-.1h-.1l-.1-.1-.3.6v-.2ZM80.8 23h.4l.2.1h.1l.1.1h.2v.1h.4v.2h.2l.1.1v.1h.2l.1.1H83.1l.1.1v.2h.2v.2h.4v.1l.1.1.2.1v.1l.4-.6h-.1l-.1-.1h-.1l-.1-.1H84c-.1-.1 0 0 0 0l-.1-.1h-.1v-.1h-.2v-.1h-.2l-.1-.1h-.1v-.1H83l-.1-.1h-.1v-.1H82.5l-.1-.1h-.1V23h-.4v-.1h-.1v-.2H81.4v-.1h-.2v-.1h-.1l-.1-.1-.3.6Z"/><path fill="#141414" d="M77.2 21.4H77.6l.1.1h.2l.1.1H78.2v.2h.1l.1-.1H78.7v.2h.2l.2.1h.1l.1.1H79.7v.1l.1.1.1.1h.1v.1h.4v.1l.1.1.2.1.4-.5h-.2v-.1h-.2V22h-.2c-.1 0 0 0 0 0l-.1-.1h-.1l-.1-.1h-.2l-.2-.1-.1-.1h-.2l-.1-.1h-.1l-.1-.1H79v-.1H78.6l-.1-.1h-.4l-.1-.1-.1-.1h-.1l-.1-.1h-.2l-.1-.1h-.1l-.1-.1-.2.6Z"/><path fill="#141414" d="M73.5 20.2h.4v.1H74.2v.1H74.6l.2.1v-.1H75v.2h.4v.1h.4v.1h.2l.1.2h.2l.1.2s.1-.1.2 0h.2l.1.1.2.1h.1l.2-.6H77l-.1-.1h-.4v-.1l-.1-.1h-.2l-.1-.1H76v-.1H75.6v-.1h-.1l-.1-.1H75L75 20h-.4l-.1-.1h-.2v-.1h-.4v-.2h-.2l-.2.6ZM69.7 19.4h.6v-.1h.4v.1h.5v.1h.4v.1h.7v.2h.2l.1.1H72.9l.1.1h.2v.1h.2l.2-.6H72.7v-.1h-.2v-.1H72v-.1h-.4l-.1-.1h-.4L71 19h-.5l-.1-.1H70l-.1-.1h-.2l-.1.6ZM65.8 18.8h.6v-.1h.4v.1h.2v-.1h.2l.1.1H67.6l.1.1h.6l.1.1h.2l.1.1h.4l.1.1H69.5l.2-.6H68.8l-.1-.1H67.8l-.1-.1h-.5v-.1h-.7v-.1h-.6v.7ZM62 18.6h.5v-.1h.4v.1h.2v-.1h.5l.2.1h.7l.1.1h.6l.2.1H65.7v-.6H64.8V18H62.6l-.1-.1H61.8v.6h.2Z"/><path fill="#fff" d="m8.8 66 12.6 27L40.5 56s5.2-2.3 6.4-4.8c1.1-2.6 4-21.8 7.8-24.3 0 0 3.5-10-.6-11.3C49.4 13.8 49 17 49 17s-10.5-1.8-12.2-1.3c-1.6.4-3.2 2.4-3.2 2.4-6.2-.8-7 4-7 4a6.1 6.1 0 0 0-4.5 4.8c-.5.2-3.2-.4-3.1 5l.3 18.8L8.8 66Z"/><path fill="#141414" d="m43.9 26 .6-2.7c.2-.8.6-1.9 1.1-2.6.4-.6.8-1 1-1.8.1-.4.7-.7 1-1.2l1-1.5 1.3-1.5c.8-.4 1.4-.4 1.9-.4 1.8 0 3.7.3 5 2 .7 1.2.6 2.1.5 3l-.2 2.4c-.2 1.4-.7 2.5-1 3.8l-.2.8-.3 1-.4.6-.4.4-.6 1c-.6.7-1 1.5-1.4 2.3l-.6 1.7c-.2.5-.5 1.1-.4 1.6l-.1.4a4 4 0 0 0-.5 2l-.2 1.4-.7 4-.7 3c-.3 1-.4 2.2-.8 3.1l-1.3 2.8c-.3.5-.8 1-1 1.5 0 .1 0 .3-.2.3-1.3 1-2.4 2.3-4 3l-1.1.3-1.2 2.8c-.2.4-.4.8-.4 1.3l-.3.7c-.8 1-1.1 2.3-1.7 3.4-.6 1.3-1 2.7-1.8 3.9-.3.5-.7 1.2-.7 2 0 .4-.4 1-.6 1.4l-.4 1.3-.6 1-.1.2c-.6 2-1.8 3.8-2.5 5.8l-2.6 5.8c-.4 1-1 2.1-1.8 2.6-.3.3-.5.2-.5-.3l.3-1.2.7-1.9c.4-1.3.7-2.6 1.4-3.8.2-.4.3-.9.6-1.2l.2-.2c.4-1.9 1.4-3.6 2.1-5.3.7-1.5 1-3 1.8-4.5 0-.9.6-1.9 1-2.7 1.5-2.8 2.6-5.8 4-8.7l1.7-4 1.7-.6a10.4 10.4 0 0 0 3.2-2.2c.4-.3.5-.7 1-1.1.3-.4.6-1 .8-1.7l.6-1.8c.9-2.3 1.2-4.8 1.6-7.3.5-2.5.9-5 1.7-7.5.6-1.5 1.1-3 2-4.4.4-.6.6-1.3 1.2-1.7l.2-.2.1-.2v-.5l.9-3c.3-1.4.6-2.8.6-4.1l-.1-1-.2-.4-.2-.3c-.5-.4-1.2-.7-2-.9l-1.2-.1a4 4 0 0 0-.7 0l-.4.4c-.8.9-1.4 2-2.2 3-.7.7-1.3 1.6-1.8 2.5-.5.8-.7 2-1 3l-.3 1.4-.3 1.7-2.8 2.5-2.8 2.3c-.4.3-1.4.4-1.4 0l.1-.2c.8-.9 1.4-1.9 2.4-2.7l3-2.7.3-1.4ZM29.2 19.7l-1.5 2.2-.5.9-.5.3c-.3.2-.5 0-.8.2-.7.4-1.4.8-1.9 1.5-.5.6-.7 1.2-1 2.1v.1l-.3.5-.4.4-.6.2-.3.2-.6.5-.6.6-.1.2v.2l-.2 2.1-.2 1.6.2 1c0 .3-.2.7.1 1v.2c-.2.3-.2.8-.1 1l.1.9v2.2l-.1 1.6v1.7c-.1.6-.1 1 0 1.6 0 .3-.2.7.1.9v.2c-.3.8.2 1.6.1 2.5v2c0 .3.2.9-.1 1.2-.3.4-.4.4-.4.7l-.2.4c-.6.4-1 1-1.3 1.6l-1.5 1.9c-.2.2-.5.5-.6 1l-.4.7-.3.7-.4.4-.1.1c-.5 1.1-1.4 1.8-2 2.8l-2 2.9c-.3.5-.8 1-1.4 1-.3 0-.5 0-.5-.3s0-.5.2-.7l.5-1c.4-.6.6-1.4 1.1-2l.5-.5.2-.1c.3-1 1-1.8 1.6-2.6.5-.7.8-1.6 1.4-2.3 0-.5.4-1 .7-1.3 1.3-1.3 2.1-2.8 3.1-4.2.2 0 0-1.2 0-2V46c0-.3-.2-.5 0-1V43c.2-1.4 0-2.8 0-4.2v-4.2c0-.8-.2-1.7-.1-2.5 0-.4-.1-.8.2-1.1l-.1-.7.1-1c0-.3.2-.5.3-.7 0-.2.2-.3.3-.5.6-.8 1.4-1.3 2.2-1.7l.2-.1v-.4a6 6 0 0 1 .8-1.6c.4-.6 1-1.1 1.6-1.6.6-.4 1.3-1 2-1.1h.4l.6-1a8.3 8.3 0 0 1 2.4-2.7c.3-.2.8-.4 1.1-.4l1-.1H33c.3 0 .8.5.7.8h-.2c-.6.3-1.1.7-1.9.7l-1.5.1c-.2 0-.6.4-1 .7Z"/><path fill="#141414" d="m47.1 17.6-.9-.1s-.2-.2-.3 0c-.1.1-.2-.1-.3-.1l-.8-.1h-.9c-.3 0-.5-.2-.8 0l-.6-.2h-.8c-.1-.2-.3-.3-.4-.3l-.3.2c-.1 0-.3-.2-.4.1-.1-.3-.3-.3-.4-.2l-.2.1h-.7l-.5-.2h-.5l-.5-.1c-.1 0-.2-.1-.3.2-.3-.4-.5.1-.8 0a1 1 0 0 0-.6.1v.2s0 .1 0 0c-.3-.1-.4.1-.5.2-.1.1-.2.4-.5.4-.1 0-.2.1 0 .3l-.2.3v.2l-.2.1c0 .5-.4.6-.5 1 0 .3-.3.6-.4 1-.1.1-.3.2-.8.2-.2 0-.4 0-.5-.2-.1-.1-.2-.2-.1-.3v-1.1c.1 0 0-.2.3-.2-.1-.5.3-.7.4-1 .1-.3 0-.7.3-1-.1-.2 0-.4.3-.5.6-.3.9-1 1.6-1.3l.7-.2h.5l.9-.1s.1-.2.3 0h.3c.1 0 .3-.1.4 0 .4.2.9 0 1.4.1l1.3.1c.3 0 .5-.2.8 0 .1 0 .3-.2.4.1 0 .1.1 0 .2 0h2.4l.6.3.6.1c.4.3.8.3 1.1.4l1.2.2.6.3v.8l-.1.1c-.3.2-.5.5-.7.4l-1-.2Z"/></svg>