<svg width="370" height="320" fill="none" xmlns="http://www.w3.org/2000/svg"><g clip-path="url(#clip0_339_7675)"><path d="m327 284-168-18.5L335 184 47 195 211 69.5 41.5 54" stroke="#C1F11D" stroke-width="64" stroke-linejoin="bevel"/><path d="m212.16 238.7-73.9-51.3 29.6-74.82-3.5-2.74 18.48-44.76 27.14 6.86c42.42 21.05 69.88 32.9 129.16 54.19l11.93 11.38L300 254.37l-87.84-15.66Z" fill="#fff"/><path d="M248.88 71.82c.99.35 2.15-.38 2.6-1.64.45-1.27.02-2.57-.96-2.92-.99-.35-2.15.38-2.6 1.64-.45 1.27-.02 2.57.97 2.92Z" fill="#141414"/><path d="M251.28 68.98c0-.18-.05-.37-.12-.54-.03-.06 0-.15-.13-.16-.06 0 .02-.12-.02-.17-.09-.14-.2-.25-.33-.34a1.08 1.08 0 0 0-.42-.13c-.13-.01-.29-.08-.42 0-.13.09-.24.01-.34.09-.1.08-.23.15-.35.2-.1.01-.2.07-.27.15-.03.05-.03.14-.07.19-.05.05-.13.06-.06.18l-.06.02-.05.02a.13.13 0 0 0-.07.15c.02.06 0 .12-.03.16a3.03 3.03 0 0 0-.15.4l-.14.29a.87.87 0 0 0-.02.17c0 .06 0 .11-.03.16a.4.4 0 0 0-.05.3c0 .06-.05.15.09.17 0 0 .02.01 0 .03-.06.1-.03.17.02.24.06.06.1.12.14.2.04.15.13.28.25.38.03.02.04.09.13.04h.03l.02.01v.03c0 .03.01.06.03.08.02.03.04.05.07.06l.15.05c.12.07.24.02.38.12.05.03.15.05.2-.09 0-.05.09-.01.13-.05l.09-.1c.03-.02.08.02.12.02h.02l.01-.02a.45.45 0 0 1 .24-.19l.15-.08a.5.5 0 0 0 .12-.1l.38-.55a.42.42 0 0 1 .4-.21.25.25 0 0 1 .26.11c.03.06.04.12.03.18 0 .1-.03.19-.05.27a.9.9 0 0 1-.23.53c-.06.03-.06.13-.17.1h-.02l-.01.03c-.07.3-.36.41-.58.56-.2.14-.36.34-.63.36a.34.34 0 0 1-.2.13.68.68 0 0 1-.24 0c-.25-.06-.5-.12-.75-.2a1.76 1.76 0 0 1-.66-.4 2.5 2.5 0 0 1-.69-1.29c0-.08-.1-.14-.05-.24.04-.1-.01-.2-.01-.3 0-.1-.03-.2 0-.28.16-.35.17-.71.3-1.04a5.64 5.64 0 0 1 .98-1.43c.09-.04.13-.18.28-.12.04.02.07-.1.13-.14l.22-.1c.07-.04.15-.05.23-.08.23-.06.46-.08.7-.08l.44.01a.9.9 0 0 1 .22.07c.07.03.14.07.2.12a2.65 2.65 0 0 1 .41.41c.16.13.27.29.34.47.08.33.2.62.24.93.03.31.03.62 0 .93a.56.56 0 0 1-.09.23c-.04.08-.08.15-.1.23-.03.07-.33.07-.42 0a.1.1 0 0 1-.04-.03l-.08-.24a.33.33 0 0 1-.03-.22c.04-.22.05-.44.03-.66Zm-7.68 13.64c.98.35 2.14-.39 2.59-1.64.45-1.26.02-2.56-.96-2.92-.98-.35-2.14.39-2.59 1.64-.45 1.26-.02 2.56.96 2.92Z" fill="#141414"/><path d="M246.3 79.92c0-.19-.04-.37-.11-.54-.03-.06 0-.15-.13-.17-.06 0 .02-.11-.02-.16-.09-.14-.2-.26-.33-.35a1.2 1.2 0 0 0-.42-.12c-.13-.02-.29-.08-.42 0-.13.09-.24 0-.34.08-.11.09-.23.15-.35.2-.1.02-.2.07-.27.15-.03.06-.03.14-.07.2-.05.04-.14.06-.06.18l-.06.02c-.02 0-.04 0-.06.02a.12.12 0 0 0-.04.04.13.13 0 0 0-.02.11c.01.06 0 .11-.03.16l-.07.2-.08.2c-.03.06-.11.19-.14.29l-.02.17c0 .05 0 .11-.03.16a.4.4 0 0 0-.05.3c0 .06-.05.14.09.16v.04c-.06.1-.03.17.02.24.06.05.1.12.14.2a.7.7 0 0 0 .25.38c.03.02.04.09.13.03a.04.04 0 0 1 .03 0l.02.02v.02l.03.09c.02.02.04.05.07.06l.16.05c.11.07.23.02.37.11.05.04.15.06.2-.08.01-.05.09-.02.13-.05l.09-.1c.03-.02.08.01.12.02h.02l.01-.02a.52.52 0 0 1 .24-.2l.15-.06a.49.49 0 0 0 .12-.12l.39-.54c.03-.07.1-.13.16-.17a.42.42 0 0 1 .23-.05.26.26 0 0 1 .26.12.4.4 0 0 1 .04.18l-.06.27c-.02.2-.1.38-.23.53-.06.03-.06.13-.17.1h-.02l-.01.02c-.07.3-.35.42-.58.57-.2.14-.36.34-.63.35a.34.34 0 0 1-.2.14.69.69 0 0 1-.23-.01 7.4 7.4 0 0 1-.76-.2 1.76 1.76 0 0 1-.66-.4c-.35-.34-.59-.8-.68-1.28-.02-.08-.1-.14-.06-.24.05-.1-.01-.2-.01-.3a.63.63 0 0 1 .01-.29c.15-.34.16-.7.3-1.03a5.63 5.63 0 0 1 .97-1.43c.09-.05.14-.18.28-.12.04.02.08-.1.13-.14a.64.64 0 0 1 .22-.1c.07-.04.15-.06.23-.08.23-.06.46-.09.7-.08.14-.01.3 0 .44.01a.9.9 0 0 1 .22.07c.08.03.15.07.21.11l.23.2.19.22c.14.12.25.29.33.47.06.33.2.61.24.93.02.3.02.61 0 .92a.64.64 0 0 1-.1.24l-.1.22c-.03.08-.33.08-.42.01a.09.09 0 0 1-.03-.04l-.1-.23a.34.34 0 0 1-.02-.23 2 2 0 0 0 .03-.65Zm96.24 48.53c.85.7 1.68 1.42 2.55 2.08.33.25.54.65 1.1.63.3-.02.3.58.6.81.83.61 1.58 1.31 2.4 1.93.4.3.81.58 1.23.85l.62.42.09.06.13.1.28.2.55.41 1.05.87c-.27.65-.55 1.28-.8 1.9l-.18.47a4.77 4.77 0 0 0-.2.8c-.12.85-.73 1.41-.94 2.17-.2.82-.52 1.61-.96 2.33-.33.51-.7 1-.85 1.59-.1.36 0 .77-.17 1.13-.17.37-.5.67-.2 1.14.03.04-.1.16-.2.22a1.13 1.13 0 0 0-.52 1.13c.03.31-.03.64-.17.92a29.6 29.6 0 0 1-.94 2.35c-.26.57-.65 1.1-.91 1.67-.27.58-.36 1.32-.78 1.8a5.11 5.11 0 0 0-.86 1.59c-.13.31-.46.6-.14 1.03.03.04-.02.16-.08.2-.9.68-.53 1.85-1.03 2.7-.5.86-.8 1.9-1.16 2.85-.1.26-.34.47-.11.84a.48.48 0 0 1-.15.5c-.7.53-.75 1.38-1.1 2.06-.4.8-.54 1.7-1.2 2.4a1.21 1.21 0 0 0-.31 1.32c.1.27-.24.6-.31.92-.07.26.02.56-.07.82-.09.21-.33.35-.48.54a.34.34 0 0 0-.08.2c-.04 1.38-1.1 2.34-1.47 3.6-.4 1.25-.88 2.48-1.46 3.66-.3.66-.7 1.3-1.65 1.47-.42.06-.8-.08-.9-.46a1.82 1.82 0 0 1-.07-.83l.23-1.23c.18-.83.13-1.74.64-2.48.16-.22.08-.6.49-.68a.19.19 0 0 0 .08-.06.19.19 0 0 0 .04-.1c-.1-1.29.69-2.26 1.08-3.38.34-.94.27-2 .83-2.88-.22-.68.1-1.26.43-1.73 1.19-1.66 1.62-3.64 2.4-5.45.8-1.82 1.5-3.75 2.26-5.6.13-.32 0-.7.34-1 .33-.3.35-.78.51-1.19.15-.37.22-.8.46-1.11 1.03-1.29 1.35-2.88 1.99-4.32.65-1.44 1.22-2.9 1.72-4.4.29-.91.4-1.9.85-2.75.19-.37.12-.86.67-1.08.15-.06 0-.55.08-.8.2-.62.47-1.22.71-1.84l.52-1.27.13-.32.05-.13.02-.03a.65.65 0 0 0 .02-.11v-.04a.07.07 0 0 0-.04-.03.62.62 0 0 0-.26.02v.02l-.15-.1a12.96 12.96 0 0 1-1-.86c-.54-.51-1.01-1.1-1.56-1.6-.54-.5-1.3-.87-1.75-1.5-.82-1.14-1.99-1.86-3-2.76a41.8 41.8 0 0 0-3.16-2.56c-.62-.45-.93-1.17-1.51-1.65-.27-.22.04-1.34.38-1.52a.33.33 0 0 1 .21-.04c.78.2 1.64.23 2.27.79.92.83 1.91 1.59 2.87 2.38Zm-18.36 56.83c-1.36-.3-2.7-.65-4.07-.9-.51-.09-.97-.45-1.6-.07-.33.2-.68-.51-1.15-.6-1.28-.2-2.53-.58-3.8-.8-1.27-.22-2.53-.3-3.76-.5-1.24-.22-2.43-.78-3.67-.75-1.08.04-1.89-.64-2.89-.75a9.8 9.8 0 0 1-3.1-.73c-.7-.32-1.39-.7-2.14-.75-.47-.04-.97.16-1.46.03-.46-.13-.93-.5-1.46 0-.05.04-.23-.11-.31-.22a1.38 1.38 0 0 0-1.5-.44c-.47.16-.83.05-1.2-.03a35.4 35.4 0 0 1-3.12-.7c-.77-.22-1.49-.61-2.26-.85-.77-.24-1.72-.17-2.4-.62-.7-.45-1.42-.6-2.16-.77-.42-.09-.84-.47-1.32.04-.04.06-.2.01-.26-.05-1.02-1.04-2.43-.3-3.6-.75-1.2-.48-2.51-.63-3.78-.9-.34-.06-.66-.32-1.07.04-.14.13-.5.06-.65-.08-.8-.8-1.87-.66-2.8-.98-1.07-.36-2.23-.33-3.23-1.03-.42-.3-1.03-.55-1.71-.13-.32.2-.8-.18-1.22-.22-.34-.02-.72.16-1.04.09-.28-.06-.5-.34-.76-.51a.41.41 0 0 0-.27-.06c-1.74.26-3.14-.93-4.79-1.12-1.65-.2-3.28-.63-4.88-1.08-.89-.26-1.77-.64-2.14-1.85-.16-.54-.05-1.06.4-1.28.32-.18.67-.28 1.03-.29.53.03 1.08.02 1.59.04 1.07.05 2.21-.22 3.23.29.31.16.77-.04.94.5a.22.22 0 0 0 .22.12c1.6-.42 2.97.4 4.45.68 1.24.23 2.57-.08 3.77.45.82-.44 1.6-.15 2.25.18 2.31 1.18 4.86 1.3 7.3 1.94 2.46.65 4.97 1.12 7.44 1.72.43.1.87-.16 1.3.22.42.34 1.06.29 1.6.4.5.12 1.05.11 1.49.37 1.8 1.05 3.85 1.12 5.79 1.62 1.9.55 3.85.99 5.8 1.32 1.21.17 2.47.1 3.63.5.5.17 1.1-.03 1.48.64.1.19.68-.13 1-.07.83.13 1.64.34 2.45.53 1.13.25 2.25.55 3.4.75.7.12 1.43.04 2.12.14.74.1 1.46.27 2.17.49.9.27 1.77.68 2.67.94.9.26 1.98.24 2.82.7 1.59.85 3.32.99 4.99 1.42 1.65.46 3.33.83 5.02 1.11.97.14 1.72.81 2.65 1.02.43.1.7 1.6.42 2.03a.43.43 0 0 1-.23.18c-1 .24-2 .73-3.02.45-1.51-.43-3.06-.73-4.6-1.07Zm-181.08-9.23c.43-1.13.88-2.26 1.28-3.4.15-.43.46-.8.32-1.36-.07-.28.45-.55.59-.95.36-1.08.81-2.12 1.17-3.2.36-1.07.62-2.1.98-3.15.35-1.04.91-2.02 1.1-3.07.17-.91.74-1.57.98-2.41.23-.9.57-1.77 1-2.58.33-.59.69-1.15.85-1.78.11-.4.06-.83.23-1.24.17-.41.48-.76.26-1.23-.02-.04.1-.2.18-.27a1.6 1.6 0 0 0 .55-1.25c0-.35.07-.7.22-1.01.3-.88.62-1.75.99-2.61.27-.64.65-1.24.93-1.88.28-.64.4-1.45.81-2 .37-.56.66-1.16.87-1.8.13-.35.45-.7.2-1.12-.03-.03.03-.17.08-.21.85-.83.6-2.04 1.1-3 .5-.98.84-2.11 1.23-3.18.1-.28.32-.54.16-.9a.67.67 0 0 1 .16-.54c.65-.64.75-1.56 1.12-2.33.41-.9.6-1.88 1.22-2.7a1.67 1.67 0 0 0 .37-1.44c-.07-.28.26-.66.35-1.01.07-.3.02-.62.12-.89.12-.23.27-.44.45-.63a.5.5 0 0 0 .08-.22c.13-1.48 1.14-2.62 1.55-4a38.6 38.6 0 0 1 1.54-4.09c.3-.74.7-1.47 1.55-1.73.38-.12.7 0 .75.38.06.3.07.6.01.89l-.3 1.34c-.21.9-.24 1.88-.74 2.72-.16.26-.1.65-.48.77a.25.25 0 0 0-.12.19c0 1.36-.77 2.5-1.2 3.72-.36 1.05-.4 2.19-.94 3.17.14.71-.18 1.36-.5 1.9-1.16 1.91-1.68 4.06-2.5 6.09-.84 2.03-1.59 4.16-2.4 6.24-.14.35-.05.73-.37 1.09-.31.35-.36.89-.54 1.33-.16.42-.25.89-.49 1.24-.99 1.49-1.38 3.22-2.05 4.84a64.71 64.71 0 0 0-1.83 4.88c-.32 1.02-.5 2.07-.95 3.04-.19.41-.17.94-.66 1.23-.14.08-.04.58-.13.85-.22.7-.5 1.37-.76 2.05-.36.95-.75 1.88-1.07 2.84-.2.59-.27 1.2-.46 1.8-.2.61-.42 1.22-.69 1.81-.33.75-.74 1.46-1.06 2.22-.32.75-.5 1.66-.93 2.35-.82 1.3-1.2 2.76-1.77 4.16a60.71 60.71 0 0 0-1.58 4.2c-.26.8-.82 1.42-1.11 2.2-.13.36-1.16.53-1.38.28a.32.32 0 0 1-.08-.2c.02-.86-.12-1.71.24-2.57.55-1.29 1.01-2.59 1.5-3.87Zm10.18 19.67c2.36 1.7 4.7 3.43 7.1 5.1.88.62 1.65 1.44 2.83 1.74.58.14 1.11 1.2 1.94 1.76 2.24 1.54 4.4 3.2 6.63 4.75 2.17 1.5 4.41 2.9 6.59 4.4 2.17 1.5 4.2 3.26 6.4 4.52 1.9 1.09 3.25 2.6 5 3.73 1.86 1.2 3.76 2.5 5.41 3.93 1.2 1.05 2.36 2.12 3.69 2.96.83.53 1.73.84 2.59 1.49.79.6 1.57 1.44 2.58 1.51.09 0 .4.35.53.54a6.26 6.26 0 0 0 2.61 2c.84.32 1.46.79 2.11 1.25l1.77 1.26.89.63.44.31.02.02.06.01.58.1 1.16.23c1.64.33 3.24.81 4.88 1.15 1.7.35 3.58.43 5.12.96s3.07.78 4.63 1.05c.88.16 1.88.58 2.7.17.19-.01.38.02.55.1 2.4 1.14 5.05.65 7.58 1.27 2.6.63 5.34.98 8.02 1.42.71.12 1.45.41 2.17.13.25-.09 1 .02 1.35.19 1.89.87 4.03.9 6.04 1.35 2.3.5 4.66.66 6.92 1.48a6.5 6.5 0 0 0 3.56.38c.58-.13 1.68.3 2.53.4.71.07 1.42-.04 2.12.07.58.1 1.14.4 1.72.6.18.06.37.1.57.1 3.48.01 6.7 1.36 10.14 1.8 3.43.44 6.9 1.1 10.33 1.78 1.88.38 3.8.87 4.93 2.06.5.54.42 1-.43 1.15-.67.12-1.35.15-2.02.1l-3.26-.29c-2.22-.21-4.47-.14-6.7-.78-.7-.2-1.58-.1-2.08-.62a.93.93 0 0 0-.5-.14c-3.13.14-6.19-.86-9.28-1.34-2.63-.4-5.25-.31-7.86-1-1.53.27-3.23-.12-4.67-.53-5.08-1.47-10.35-2-15.52-2.97-5.24-1-10.52-1.83-15.77-2.78-.9-.16-1.72.01-2.72-.4-.95-.4-2.26-.44-3.4-.64-1.06-.18-2.18-.26-3.16-.57a44.08 44.08 0 0 0-5.7-1.33c-.97-.17-1.93-.32-2.89-.47l-1.44-.24-1.8-.31-1.01-.74c-3.35-2.5-6.71-4.99-10.16-7.3-2.11-1.43-4.33-2.66-6.34-4.25-.86-.68-1.96-1.12-2.54-2.16-.16-.3-1.23-.58-1.8-.97-1.44-.99-2.84-2.03-4.25-3.06-1.97-1.42-3.92-2.87-5.91-4.25-1.22-.84-2.53-1.53-3.76-2.35a69.45 69.45 0 0 1-3.78-2.72c-1.55-1.2-3.03-2.5-4.58-3.69-1.62-1.23-3.48-2.28-4.92-3.6-2.68-2.48-5.73-4.42-8.63-6.57-2.9-2.16-5.78-4.28-8.75-6.3-1.68-1.14-2.93-2.57-4.55-3.73-.75-.54-1.02-2.3-.46-2.43a.8.8 0 0 1 .43.06c1.8.82 3.62 1.36 5.41 2.7 2.63 1.99 5.33 3.89 8.01 5.81Z" fill="#141414"/><path d="M329.5 183.26c-.44 3.07-2.17 6.45-3.26 9.67 0 0-1.3 4.53-2.84 9.07-1 3.01-1.9 6.04-3.03 9.04-1.13 3-2.76 5.8-3.96 8.78-1.21 2.97-2.07 6.12-3.35 9.05-1.27 2.94-2.85 5.6-4.17 8.5-1.32 2.88-2.58 5.84-3.93 8.7-2.74 6.02-4.3 9.26-4.68 9.11-.38-.15.4-3.49 2.58-9.83 0 0 1.74-4.54 3.27-9.08 1.02-3.01 2.24-5.98 3.33-8.97 1.08-3 2.01-6.02 3.18-8.99 1.17-2.97 2.45-5.88 3.7-8.82 1.24-2.95 2.36-5.95 3.69-8.85.7-1.49 1.81-4.06 2.97-6.58 1.16-2.52 2.2-5.32 2.92-6.75.52-.98 3.55-6.1 3.4-4.03.04.26.19-.02.19-.02Zm-92.39-9.34c-1.32 2.62-2.47 5.4-3.73 8.06-1.26 2.67-2.72 5.22-3.95 7.9-1.24 2.69-2.52 5.34-3.74 8.04-1.23 2.7-1.9 5.7-3.12 8.39-1.36 3-3 5.85-4.33 8.86-1.34 3.02-2.41 6.17-3.69 9.21-1.28 3.05-2.2 6.2-3.38 9.3-.57 1.5-2.52 3.91-2.83 4.73-.05.13.5.08.56.11 2.83 1.15 2.81 1.19 5.63 2.34.08.03-.07.16-.02.03.34-.86 1.37-3.7 2.01-5.28 1.24-3.05 2.76-5.98 3.91-9.05 1.15-3.07 2.2-6.18 3.3-9.27 1.1-3.08 1.75-6.29 2.82-9.38.95-2.8 2.45-5.47 3.41-8.25.96-2.78 2.12-5.55 3.06-8.35.95-2.8 1.06-5.75 1.96-8.56.9-2.8 2.58-5.5 3.41-8.32.22-.72-.97-1.16-1.28-.5ZM188.8 67.97l-3.83-.96-1.91-.48-.47-.11-.16-.04-.28-.06-.02.06a.72.72 0 0 1-.09.2 5.26 5.26 0 0 0-.5 1.9c-.03.55-.73 1.33-1.03 2.2-.83 2.38-1.76 4.73-2.6 7.1-.82 2.3-1.53 4.65-2.34 6.96-.82 2.3-1.85 4.57-2.48 6.83-.54 1.95-1.46 3.56-2.06 5.4a59.02 59.02 0 0 1-2.17 5.8c-.6 1.34-1.23 2.65-1.68 4.04-.27.87-.39 1.73-.74 2.66a17.84 17.84 0 0 1-.2.45.16.16 0 0 0-.05.07.16.16 0 0 0 .04.17l.07.04a.16.16 0 0 0 .16-.06.17.17 0 0 0 .04-.08v-.08c.14.11.27.24.38.39a7.55 7.55 0 0 0 2.45 1.8c.68.34 1.33.74 1.94 1.2 1.7 1.18 3.4 2.37 5.05 3.6 1.26.93 2.41 1.93 3.66 2.86 1.29.96 2.8 1.83 3.9 2.83 1.1.97 2.26 1.87 3.47 2.7.68.47 1.37 1.18 2.16 1.25.16.08.3.18.43.3 1.64 1.79 3.93 2.6 5.81 4.1 1.95 1.55 4.08 2.95 6.14 4.4.54.38 1.07.89 1.73 1.02.4.16.75.4 1.05.7 1.3 1.38 3.03 2.33 4.54 3.5 1.73 1.31 3.61 2.43 5.22 3.94a7.82 7.82 0 0 0 2.8 1.78c.5.17 1.28.92 1.95 1.35.56.36 1.17.6 1.7.96.44.35.85.73 1.24 1.13.13.12.27.23.43.31 2.83 1.52 5.09 3.79 7.76 5.56 2.67 1.76 5.3 3.69 7.91 5.61.71.51 1.4 1.06 2.04 1.66a5.08 5.08 0 0 1 1.37 1.85c.25.59.04.85-.68.54a12.81 12.81 0 0 1-1.66-.83l-2.58-1.6c-1.74-1.1-3.6-2.01-5.24-3.4-.51-.43-1.25-.72-1.51-1.29a1.1 1.1 0 0 0-.37-.31c-2.6-1.26-4.81-3.23-7.2-4.88-2.01-1.4-4.18-2.47-6.1-4.04a12.78 12.78 0 0 1-3.67-2.36c-3.72-3.15-7.86-5.76-11.8-8.62-3.99-2.9-8.05-5.74-12.07-8.6-.69-.49-1.4-.73-2.1-1.44-.67-.67-1.72-1.26-2.6-1.89-.8-.57-1.7-1.1-2.4-1.72-2.9-2.56-6.23-4.63-9.37-6.92l-4.17-3.02-2.1-1.49-2.8-1.96.72-2.02c.76-2.22 1.37-4.5 2.27-6.69.39-.93.56-2 1.24-2.82.2-.23.27-1.2.48-1.82.54-1.53 1.11-3.04 1.68-4.56.78-2.11 1.58-4.21 2.32-6.34.46-1.29.79-2.61 1.23-3.91.46-1.36.96-2.72 1.5-4.05.67-1.69 1.41-3.34 2.08-5.03.69-1.76 1.22-3.66 2-5.29.3-.63.58-1.27.85-1.91l.2-.49.3-.75.62-1.65 2.39.61 1.42.35 2.85.7a273 273 0 0 0 9.67 2.41c1.84.42 3.44 1.13 5.22 1.57.84.2 1.75 1.35 1.33 1.57a.78.78 0 0 1-.38.05c-1.82-.17-3.53-.14-5.53-.68-2.93-.78-5.9-1.49-8.86-2.23Z" fill="#141414"/><path d="M259.57 119.15c-.93 1.86-1.73 3.82-2.61 5.7-.89 1.9-1.9 3.71-2.76 5.61-.86 1.9-1.77 3.79-2.62 5.7-.86 1.9-1.35 4.02-2.2 5.93-.96 2.13-2.1 4.15-3.03 6.29-.94 2.13-1.7 4.36-2.6 6.52-.9 2.15-1.56 4.38-2.4 6.56-.4 1.06-1.73 2.8-1.96 3.37-.03.1.33.05.38.07 1.88.76 1.88.79 3.75 1.56.05.02-.04.12 0 .02.24-.6.96-2.62 1.41-3.74.88-2.15 1.92-4.24 2.75-6.4.82-2.17 1.56-4.37 2.33-6.56.78-2.18 1.26-4.43 2.01-6.62.68-1.98 1.72-3.88 2.4-5.85.69-1.97 1.5-3.93 2.17-5.9.68-1.98.8-4.06 1.43-6.04.64-1.99 1.8-3.9 2.4-5.9.16-.48-.63-.78-.85-.32Zm6.41-47.11-10.43 20.83-48.46-15.52c-.32-14.98 9.85-35.81 21.34-43.29L245.85 38l20.13 34.04Z" fill="#141414"/><path d="M264.8 76.48c-.6 1.2-1.13 2.16-1.55 3.16-.06.16.08.45-.02.64-.4.75-.57 1.64-1.2 2.24a4.52 4.52 0 0 0-1.33 2.3c-.18.82-.6 1.51-.9 2.26-.1.25-.17.51-.57.64-.29.1-.49.43-.27.87.04.08-.09.16-.16.22s-.27.1-.26.18c.07.42-.03.86-.26 1.21l-.32.52-.14.27-.06.15-.08.2c-.1.28-.37.43-.17.91.05.12-.07.4-.18.42a.59.59 0 0 0-.53.4l-.64 1.3-1.96-.64a1.02 1.02 0 0 1-.9.06c-.16-.05-.31-.1-.47-.17l-.22-.1-.15-.06c-.31-.1-.56-.36-.84-.56-.28-.2-.72 0-.88-.51-.03-.08-.19 0-.28-.02-.4-.09-.86-.06-1.17-.34a1.63 1.63 0 0 0-.51-.34 619.5 619.5 0 0 0-7.3-2.34c-.22-.07-.4-.19-.71.02a.51.51 0 0 1-.73-.23c-.16-.44-.46-.38-.72-.48-.47-.2-.97-.29-1.44-.48-.28-.11-.67.03-.76-.54a.1.1 0 0 0-.03-.04.1.1 0 0 0-.08-.02.1.1 0 0 0-.04.01c-.47.37-.65-.12-.95-.28a.78.78 0 0 0-.77-.04.67.67 0 0 1-.89-.26c-.2-.42-.51-.4-.8-.5-1.66-.56-3.33-1.1-5-1.61-.8-.24-1.72-.07-2.47-.5-.17-.1-.44.02-.5-.37-.01-.08-.18-.1-.26-.02-.31.23-.5.05-.74-.05-1.09-.42-2.16-.96-3.35-1.02-.92-.05-1.73-.4-2.59-.62-.29-.06-.5-.38-.77-.52a3.55 3.55 0 0 0-.83-.27c-.17-.04-.3-.2-.57.02a.3.3 0 0 1-.23.07.3.3 0 0 1-.21-.14c-.2-.5-.6-.46-.93-.58-.96-.33-1.93-.6-2.88-.94-.24-.08-.57.03-.64-.46-.02-.06-.2.03-.3.04-.1 0-.25.09-.3.01-.46-.74-1.21-.64-1.85-.87l-.66-.22-.7-.23-.7-.22-.35-.12-.17-.05-.1-.03c0-.01-.03 0-.02-.03v-1.51l.02-.74.03-.37.02-.33c.03-.46-.3-.89-.24-1.34.03-.21.04-.43.06-.65.01-.21.04-.43.08-.64.06-.3-.1-.66.38-.88a.27.27 0 0 0 .08-.08.25.25 0 0 0-.02-.3c-.38-.4-.1-.75-.12-1.11 0-.45.36-.85-.02-1.36-.1-.14.18-.32.24-.48.1-.3.18-.6.22-.9.02-.15-.1-.33-.09-.48l.25-1.71a20.64 20.64 0 0 1 .83-3.39l.58-1.66c.39-1.1.77-2.21 1.26-3.28.2-.39.06-.97.77-1.1-.18-.52.17-.75.69-.9.07-.02-.03-.2-.05-.32-.03-.34-.46-.85.29-.86.02 0 .02-.05.04-.07.2-.2-.32-.66.2-.8.31-.08.37-.44.52-.69.17-.24.3-.51.4-.8.08-.3.52-.44.22-.94-.05-.08.35-.12.4-.24.21-.67.97-1.04.78-1.91a.45.45 0 0 1 .28-.49c.68-.28.76-.87.96-1.47.12-.4.3-.77.54-1.11.27-.35.65-.61 1.07-.74.2-.06.32-.07.24-.33-.06-.18.09-.31.17-.43 1-1.43 2.08-2.8 3.23-4.12.18-.16.4-.3.63-.38a.95.95 0 0 0 .54-.46c.08-.2.42-.2.24-.6-.02-.06.01-.14.06-.15.75-.08.7-.97 1.25-1.23.12-.06.28-.08.4-.12.12-.05.31-.06.35-.19.13-.46.43-.86.83-1.13.36-.29.77-.5 1.1-.84.05-.06.12-.1.19-.14l.21-.14a.85.85 0 0 0 .36-.62.3.3 0 0 1 .29-.2 1.12 1.12 0 0 0 .8-.18l.13-.08.13.02c.38.04.75.12 1.1.24.2.06.4.1.6.1.13.02.26.1.32.36.02.07.14.04.21.03.13-.04.28-.17.39-.14.3.1.58.44.89.34.38-.11.68.04 1 .1.2.03.33.3.5.38.18.07.36.12.55.14.25.06.54.04.77.2.22.16.54-.29.74.1.16.31.5-.09.76-.09.13.02.25.08.35.17.09.06.14.24.23.24.2.02.36.15.62-.01.18-.11.37.21.57.3.2.06.41.1.62.14.2.05.41.2.63.12.94-.3 1.71.19 2.56.31.22.03.5-.08.6.38.01.08.13.12.21.09.41-.17.87-.18 1.28-.03l.6.18.3.08.17.02.22.03c.52.03 1.1.04 1.7.1.2.26.38.54.53.83l.54 1.08c.14.26.32.5.55.69.38.31.75.62.88 1.07.13.44 1.1.36.69 1.1.23.4.48.77.68 1.18.17.34.53.58.35 1.11a.39.39 0 0 0 .28.47c.63.18.75.64.8 1.18.01.12.27.13.35.24.24.32.44.67.6 1.03.45 1.12 1.47 1.87 2.08 2.87.11.19.53.22.55.43.12 1.3 1.22 2.03 1.53 3.2.46 1.71 1.63 3 2.4 4.53.1.2-.1.59.05.62.45.12.4.59.75.7.63.19.62.76.96 1.12.25.26.19.74.79.76.08 0 .14.12.13.2-.14.7.72.78.79 1.33.98.54 1.16 1.61 1.77 2.4.12.1.26.2.4.27.07.04.18.08.17.14-.06 1.08.81 1.64 1.13 2.5.11.29.1.63.22.92.1.29.38.48.2.92-.05.13.1.26.2.34.56.47.14 1.33-.95 1.98-.39.24-.49.13-.71.09-.43-.08-.76-.22-.91-.54-.12-.25-.14-.58-.65-.57-.09 0-.14-.11-.13-.2.1-.6-.44-.9-.43-1.42 0-.4-.2-.64-.3-.97-.08-.27-.42-.4-.22-.84.07-.15-.37-.2-.48-.36a6.2 6.2 0 0 1-.7-1.17c-.53-1.27-1.78-2.1-2.33-3.36-.99-.54-1.06-1.68-1.8-2.37-.9-.85-1.33-1.95-2.06-2.88a.84.84 0 0 1-.21-.63.93.93 0 0 0-.05-.47c-.26-.5-.6-.95-.83-1.46-.13-.27-.55-.4-.23-.9.05-.07-.03-.19-.11-.2-.72-.16-.7-.78-1.02-1.19a.66.66 0 0 1-.14-.6.65.65 0 0 0-.43-.72 1.1 1.1 0 0 1-.43-.34c-.52-.53-.43-1.45-1.35-1.73.3-.6-.1-.9-.4-1.16-1.18-.97-1.59-2.42-2.4-3.6-.2-.3-.18-.72-.32-1.05a5.62 5.62 0 0 0-.56-.96c-.11-.16-.07-.46-.5-.38h-.05a.06.06 0 0 1-.03-.03c-.05-.22-.02-.48-.16-.65-.13-.16-.44-.15-.6-.27a2.07 2.07 0 0 1-.44-.55 1.56 1.56 0 0 1-.18-.28c-.02-.05-.03-.13-.01-.17l.13-.18c-.21.1-.27.08-.31.05-.04-.03-.02-.11-.06-.14a.45.45 0 0 1-.1-.16l-.07-.02-.3-.07c-.04 0-.09-.03-.14-.04l-.01-.01-.05-.01-.09-.02-.17-.02c-.34-.01-.69.08-1.02.05a3.7 3.7 0 0 1-1-.22c-.41-.16-.8-.39-1.2-.56-.17-.07-.35 0-.55.12-.27.16-.67.56-.82-.11-.03-.14-.24-.15-.37-.1-1.05.43-1.86-.3-2.8-.35-.4-.57-.95-.4-1.5-.39a4.1 4.1 0 0 1-2.32-.53c-.73-.47-1.55-.48-2.3-.77-.22-.08-.5.04-.6-.41v-.04a.09.09 0 0 0-.03-.03l-.03-.02-.02-.01a.1.1 0 0 0-.08.04c-.17.2-.24.26-.35.22l-.03-.02h-.04l-.08-.01a2.23 2.23 0 0 1-.23-.07.15.15 0 0 0-.12 0 .17.17 0 0 0-.04.05l-.05.07-.07.1a.6.6 0 0 0-.08.13l-.14.25c-.28.52-.85.77-1.28 1.13-.54-.24-.34.31-.27.56.04.1.05.22.03.33a.56.56 0 0 1-.17.3c-.19.17-.44.27-.38.7a.36.36 0 0 1-.13.28.35.35 0 0 1-.3.08c-.3-.04-.28.09-.28.32s-.5.1-.66.3c-.16.2-.2.63-.76.44-.05-.01-.1.06-.1.11.04.39-.17.53-.42.66-.25.13-.52.23-.59.51-.35.2-.67.44-.95.73-.27.28-.52.59-.74.91-.23.32-.43.66-.66.98l-.34.48a5.25 5.25 0 0 1-1.13 1.13c-.25.2-.43.5-.52.82-.15.67-.43 1.3-.82 1.88a16.7 16.7 0 0 0-1.02 1.73c-.12.27-.06.67-.65.64-.08 0-.13.11-.1.2.22.6-.1.9-.58 1.13a.25.25 0 0 0-.08.07.24.24 0 0 0-.05.09.16.16 0 0 0-.01.1c0 .03 0 .07.03.1.24.32.02.44-.07.6-.1.2-.53.35-.42.56.23.44-.25.39-.4.56-.1.11-.07.3-.08.45 0 .07.11.22.06.24-.6.23-.2.9-.53 1.24l-.19.24c-.96.75-.96.76-1.17 2.12-.74.12.02.86-.59 1.07a.45.45 0 0 0-.21.57c.29.95-.4 1.58-.47 2.4-.02.18-.48.17-.2.48.1.11-.34.27-.38.45-.05.26-.35.48-.01.84.14.15-.06.34-.07.52 0 .25-.23.45.06.77a.4.4 0 0 1 .07.31.4.4 0 0 1-.19.27c-.81.45-.32 1.16-.2 1.77.04.18.08.31-.06.47-.2.22-.45.52-.28.75.3.4.1.7.08 1.04-.06.58-.18 1.15-.2 1.73l-.08.98c-.04.35.01.69.15 1l.06.14.03.08.01.03.06.02-.4.18c-.07.03.26-.05.26-.04l.02.07v.04l.04.01c.06.01.1.04.14.07.01.01-.04.15-.05.24v.07a.08.08 0 0 0 .04-.05.67.67 0 0 0 .1-.1c.34-.4.25.58.59.07.05-.07.22 0 .3.08.79.9 1.94.76 2.88 1.23.23.11.57-.03.6.5.78-.31 1.1.96 1.97.32.39.28 1 0 1.23.68.04.11.23.03.28.13.18.36.61-.43.8.11.1.31.49.27.76.38.26.1.5.16.75.24l.84.27c.27.1.55.2.84.26.59.1 1.25-.06 1.78.26a.2.2 0 0 0 .23-.07c.43-.66.58-.17.71.1a.65.65 0 0 0 .4.41c.49.13.97.3 1.44.48.27.12.65-.02.78.52.04.17.28.2.44.15.75-.29 1.29.2 1.92.33.29.06.57.15.84.26.21.09.52-.17.63.2 1.22-.25 2.16.47 3.22.74s2.09.64 3.12 1c.26.09.62-.05.7.5.02.1.2.16.3.08.23-.21.39-.3.44.1.02.07.18.04.28 0a.44.44 0 0 1 .51.05c.05.05.08.1.11.15a.56.56 0 0 0 .53.3c.54-.12 1.04-.22 1.34.44.03.08.29-.2.38-.15.37.18.85.05 1.11.56.1.2.38.16.56.27.32.19.73.02 1.03.29.31.26.75.28 1.13.4l1.14.36 1.14.37 1.14.36 1.14.37 1.14.37c.28.08.53.26.7.5.26.34.62.59 1.03.7a2.78 2.78 0 0 0 .4.1h.05l.07-.02a.6.6 0 0 0 .3-.16c.01-.02.04.01.06.02l.38.1c.07-.18.17-.34.31-.47l.25-.13c.01-.01.02 0 .04-.03l.05-.07c.11-.14.2-.29.28-.44.11-.29.31-.52.16-.93-.12-.34.45-.46.16-.93a.37.37 0 0 1 0-.3.36.36 0 0 1 .22-.19c.63-.21.63-.77.88-1.19.29-.48.54-.98.76-1.5.1-.25.37-.42.15-.85-.11-.2.15-.43.38-.54a.87.87 0 0 0 .5-.78c.08-.66.04-.68.57-1.1a.56.56 0 0 0 .14-.2c.35-.68.86-1.3.99-2.09.12-.61.33-1.2.63-1.75.1-.23.03-.58.57-.54.08 0 .14-.13.1-.2-.25-.71.26-1.08.5-1.58.23-.49.04-1.09.37-1.52.32-.4.47-.9.7-1.34.35-.69.7-.7 1.91-.09 1.01.51 1.15.8 1.08 1.45-.05 1.42-.98 2.42-1.32 3.44Zm5.08-3.41 18.29 6.6-7.5 22.78-2.2 1.93-19.23-6.76.66-2.64 9.98-21.9Z" fill="#141414"/><path d="M272.27 73.28c.66.23 1.17.44 1.72.59.08.02.23-.1.33-.07.41.16.9.16 1.22.49.33.34.78.54 1.25.56.44.01.81.2 1.22.3a.38.38 0 0 1 .34.27c.06.18.25.26.48.07.04-.04.08.03.12.07.03.03.05.16.1.14.51-.23.81.2 1.23.24.1.02.16.16.34-.05a.08.08 0 0 1 .09-.03c.02 0 .03 0 .04.02l.02.04c.02.18.09.24.18.27.4.13.8.3 1.2.43.31-.25.48-.03.7.05.14.09.28.2.4.34.13.12.38-.02.43.31.01.05.1 0 .15 0 .2.05.45.02.6.2.06.08.15.16.25.2l1.85.68 2.42.86-.01.02c-.05.15-.14.3.04.36.14.06.05.36-.16.52-.34.25-.28.4-.36.57-.13.32-.2.66-.33.96-.06.14.05.36-.32.38l-.02.01-.02.02v.03l.02.02c.25.26-.06.34-.15.49a.34.34 0 0 0 0 .4.3.3 0 0 1 .06.13.3.3 0 0 1-.2.33c-.26.09-.23.25-.28.4-.3.86-.59 1.71-.85 2.58-.12.41.03.9-.22 1.28-.06.09.03.24-.23.25-.05 0-.06.08 0 .14.16.18.05.26 0 .39-.24.56-.55 1.1-.54 1.72 0 .49-.2.9-.3 1.35-.03.15-.23.24-.31.38-.07.13-.12.28-.15.43-.02.08-.1.15.04.3.08.07.07.2-.03.23-.32.07-.27.3-.33.47-.18.49-.32.99-.5 1.48-.05.12.03.3-.28.31-.04 0 .03.1.04.16.01.05.07.14.02.16-.46.2-.37.61-.49.93-.29.8-.5 1.6-.82 2.38-.08.22.09.49 0 .7-.08.21-.12.42-.21.63-.06.14.01.33-.31.38a.12.12 0 0 0-.06.03.13.13 0 0 0-.03.05v.05c0 .02 0 .04.02.06.23.25.02.39.01.58-.02.22-.27.38-.04.69.06.08-.13.13-.18.25-.09.18-.16.37-.21.56l-.02.03c-.06.07-.05.2-.12.28-.61.63-.73.85-1.36 1.45l-1.05.95-1.19-.43-1-.33c-.28-.1-.56-.2-.82-.31-.21-.1-.51.05-.57-.4-.27.16-.39-.04-.47-.36 0-.04-.1.05-.16.06-.18.05-.45.4-.46-.08.01-.01-.02-.02-.03-.03-.1-.1-.34.3-.42-.02-.05-.2-.24-.19-.37-.25a1.29 1.29 0 0 0-.43-.15c-.16-.01-.25-.26-.5 0-.03.05-.07-.2-.14-.22-.35-.03-.58-.44-1.03-.18a.2.2 0 0 1-.07.03.2.2 0 0 1-.21-.1c-.19-.37-.5-.32-.83-.31-.43 0-.85-.1-1.08-.62-.06-.1-.07-.19-.2-.08-.08.08-.17.02-.24 0l-2.49-.87c-.21-.08-.32-.45-.6-.43-.1.02-.16-.18-.33.05-.02.03-.07.04-.08.01-.17-.4-.6-.07-.83-.29-.06-.04-.09-.12-.14-.17-.04-.05-.09-.15-.16-.12-.55.21-.9-.21-1.35-.27-.16-.02-.26-.24-.5.02l-.03.02a.07.07 0 0 1-.07-.02l-.01-.04c-.12-.46-.5-.27-.72-.46-.13-.08-.34.06-.35-.29 0-.04-.05-.03-.1-.02-.06.02-.22.08-.3.05-.2-.09-.33-.33-.58-.3-.25 0-.5-.06-.73-.17-.14-.04-.13-.2-.21-.26-.11-.06-.23-.1-.35-.13l-.06-.02c.02-.16.06-.32.14-.47.07-.1 0-.15-.02-.21-.03-.06-.04-.14.1-.27.24-.19-.07-.29-.05-.46.01-.1.06-.2.12-.27.05-.06.17-.12.17-.18.02-.13.1-.25 0-.42-.03-.07 0-.11.05-.16.06-.04.1-.09.14-.14.04-.1.07-.21.08-.32a.88.88 0 0 0 .1-.38 1.5 1.5 0 0 1 0-.41c.02-.11.06-.22.11-.32l.3-.6c.03-.1-.01-.28.28-.24h.04l.02-.03.02-.03v-.04c-.2-.55.27-.81.34-1.25.05-.31.03-.65.2-.92.16-.26.36-.5.35-.83a.98.98 0 0 1 .16-.7c.16-.18-.28-.62.26-.63.1-.2.17-.42.3-.63.1-.17.06-.4.4-.46.03 0 .05-.02.07-.04a.18.18 0 0 0 .06-.06.18.18 0 0 0 .01-.08c0-.03 0-.05-.02-.08-.18-.35 0-.52.24-.69.06-.04-.04-.16-.02-.23.06-.2.15-.38.26-.56.36-.5.3-1.2.56-1.74.04-.1-.11-.31-.01-.37.59-.4.5-1.12.94-1.57.65-.68.8-1.57 1.24-2.34.06-.1.33-.11.28-.2-.13-.24.12-.33.03-.52-.16-.36.12-.5.15-.76.03-.19.3-.28.06-.57-.04-.05 0-.1.05-.11.4-.12.08-.55.32-.73-.14-.62.32-.98.45-1.48.02-.07-.02-.17-.03-.26-.01-.04-.04-.1 0-.12.56-.26.47-.82.76-1.2.1-.13.26-.22.37-.34.1-.13.07-.31.36-.35.1 0 .1-.1.1-.17 0-.4.58-.42 1.36-.08a.53.53 0 0 1 .34.32c.13.23.2.42.1.58-.07.12-.22.22 0 .46.04.03 0 .09-.05.1-.35.1-.26.45-.52.59-.2.1-.24.26-.36.39s-.02.3-.32.32c-.1 0 .05.23.02.32-.06.23-.16.44-.28.64-.4.6-.3 1.4-.7 2 .14.62-.4.95-.43 1.49-.04.64-.4 1.14-.56 1.73a.35.35 0 0 1-.22.27.44.44 0 0 0-.22.15c-.13.26-.22.53-.37.78-.08.13.02.37-.36.35h-.03a.07.07 0 0 0-.02.04v.06c.22.38-.09.54-.16.8a.3.3 0 0 1-.24.23.28.28 0 0 0-.2.26l.02.11c.04.1.04.2.01.3-.04.39-.53.59-.29 1.1-.42.01-.4.28-.4.5 0 .82-.54 1.4-.79 2.1-.06.16-.28.26-.38.41-.1.17-.19.34-.24.53-.04.1-.2.15.02.34.02.02.03.04.02.05-.09.08-.23.14-.26.24-.02.1.12.25.12.36a.9.9 0 0 1-.08.36c-.05.1-.04.24-.3.23.24.2.04.26.02.38-.04.1-.08.2-.14.3l-.15.34c-.06.1-.11.22-.15.34-.03.17.01.37-.04.53-.04.17-.12.34-.22.49-.13.18-.3.34-.45.53-.05.07-.02.17.04.3.08.17.3.43-.13.4-.1 0-.11.1-.09.18l.02.08c0 .03.02.03.03.05l.05.05a.2.2 0 0 1 .03.05v.03l-.02.07c-.02.1-.06.2-.1.29l-.1.28v.04l.01.03c-.17.02-.2.07-.2.1.02.04.08.06.12.09.04.02.12.04.1.1.01 0 0 .04-.03.11-.04.07 0 .13.05.16a.4.4 0 0 1 .17.09l.02.02a.4.4 0 0 1 .09.02c.05.04.1.09.1.24-.01.07.08.08.14.06.41-.17.7.01.95.3.14.17.37.12.6.08.33-.05.6.16.9.27 0 .38.22.07.35-.04.15-.17.24-.17.36-.13.12.04.25.15.46-.02a.18.18 0 0 1 .28.13c.04.2.1.14.23.06.13-.07.15.27.3.3.13.03.36-.08.37.32 0 .03.04.04.07.02.4-.27.48.34.79.29.65.67 1.56.62 2.3 1.03.3.17.55.55.92.5.8-.1 1.38.37 2.07.55.15.04.37-.06.38.32 0 .05.07.07.11.04.33-.23.5-.06.64.22l.04.05a.12.12 0 0 0 .16-.02c.17-.2.24-.07.34-.03.1.03.19.3.3.21.23-.2.22.11.31.2.07.04.16.01.25 0 .04 0 .12-.1.13-.06.13.36.5.03.68.23l.13.1c.4.55.4.55 1.14.6.01.24.13.23.25.2a.55.55 0 0 1 .18-.02c.02 0 .04.03.04.12s.1.13.15.06c.13-.17.2-.16.29-.1a.33.33 0 0 0 .19-.17c.01-.04.19.2.1-.05-.04-.08.16.09.2.04.1-.1.3-.08.23-.38-.04-.13.12-.14.17-.22.06-.08.24-.1.19-.38v-.1l.03-.03v-.01c.02-.02.05-.01.1.02.15.08.24.08.27.05a.27.27 0 0 0-.08-.19l-.08-.09-.04-.03c-.02-.01-.02-.05-.03-.08-.01-.1-.03-.18.06-.25.14-.1.32-.23.22-.37-.17-.26-.02-.4.02-.57.08-.31.22-.6.28-.9.08-.36.3-.66.2-1.08-.06-.22-.09-.5.34-.58.04 0-.13-.16-.12-.21.12-.44.26-.87.43-1.3.04-.1.43-.08.17-.27-.26-.18.37-.1.02-.3-.04-.04-.01-.12.04-.16.55-.38.43-.98.69-1.47.06-.11-.04-.3.3-.3-.24-.42.58-.53.13-1.02.16-.19-.05-.52.4-.62.07-.01 0-.12.07-.14.23-.07-.3-.34.04-.41.2-.04.16-.25.21-.4.06-.13.1-.25.14-.38l.14-.43c.06-.14.1-.29.13-.44.05-.3-.09-.66.1-.93.02-.02 0-.1-.06-.12-.44-.26-.13-.32.04-.37.17-.06.23-.1.25-.2.07-.25.16-.5.26-.73.06-.14-.03-.35.31-.4.1 0 .13-.13.08-.21-.22-.41.07-.67.13-1 .03-.15.08-.3.14-.43.04-.1-.13-.29.1-.33-.2-.66.22-1.12.35-1.67.15-.54.33-1.08.53-1.6.05-.13-.05-.33.3-.34.06 0 .1-.1.04-.15-.15-.13-.22-.22.05-.24.02 0 .02-.03.03-.04.01-.02-.03-.03-.05-.04-.13-.06-.11-.05.02-.06.13 0 .18-.03.1-.05-.06-.02-.18-.02-.2-.03-.02-.01.04-.03.26-.12l-.2.05c.02 0-.02-.02 0-.03 0-.02 0-.03.13-.12.12-.08-.02-.03 0-.06 0-.03-.19.08-.14-.02.04-.1-.08-.05-.11-.07l-.46-.16-.58-.2-.58-.22-.58-.2-.58-.22a.6.6 0 0 1-.33-.3c-.24-.44-.67-.55-1.3-.5-.03.01-.07-.02-.1-.03a9.09 9.09 0 0 1-1.51-.58c-.21-.12-.38-.34-.61-.4-.15-.03-.28-.13-.5.01-.18.12-.25-.22-.5.02a.16.16 0 0 1-.26-.08c-.13-.38-.43-.3-.65-.42a4.93 4.93 0 0 0-.8-.3c-.14-.04-.24-.18-.47.01-.1.1-.24-.04-.3-.18a.36.36 0 0 0-.42-.22c-.35.03-.36.06-.6-.23a.23.23 0 0 0-.1-.07c-.37-.14-.7-.39-1.13-.37-.32 0-.65-.06-.95-.18-.12-.04-.3.05-.3-.3 0-.05-.06-.07-.1-.04-.38.25-.58-.03-.85-.12-.26-.08-.58.11-.82-.05a3.1 3.1 0 0 0-.73-.28c-.37-.14-.38-.35-.07-1.21.26-.71.4-.83.76-.87.76-.13 1.31.34 1.86.44Zm66.03 56.16-31.52-10.02-20.76-13.5 4.22-23.56 47.99-9.35 12.08 8.46c1.1 16.9-3.68 32.75-12 47.97Z" fill="#141414"/><path d="M333.4 128.85c-1.38-.43-2.48-.82-3.62-1.1-.18-.05-.45.13-.67.06-.87-.3-1.85-.34-2.6-.9a5.19 5.19 0 0 0-2.67-1c-.9-.1-1.7-.4-2.54-.6-.29-.07-.57-.1-.79-.49-.15-.27-.55-.42-.96-.15-.08.05-.19-.06-.27-.13-.08-.06-.15-.26-.24-.23-.99.3-1.7-.39-2.56-.52-.21-.03-.38-.27-.68.05a.23.23 0 0 1-.17.03.24.24 0 0 1-.08-.04.24.24 0 0 1-.06-.06.56.56 0 0 0-.43-.44c-.85-.25-1.7-.53-2.54-.8-.57.35-.97-.01-1.41-.16-.33-.1-.61-.38-.92-.58-.3-.2-.76 0-.95-.53-.03-.09-.2 0-.29-.02-.43-.1-.92-.09-1.27-.37a1.78 1.78 0 0 0-.56-.36l-.75-.24-3.29-2.15-3.18-2.06c-.2-.13-.36-.3-.74-.2a.58.58 0 0 1-.44-.07.58.58 0 0 1-.25-.36c-.06-.48-.38-.51-.62-.7-.43-.32-.92-.57-1.36-.9-.26-.19-.7-.18-.65-.76l-.02-.04a.11.11 0 0 0-.03-.04.11.11 0 0 0-.09-.02c-.56.22-.63-.31-.9-.56a.9.9 0 0 0-.8-.26.78.78 0 0 1-.84-.53c-.1-.47-.43-.55-.7-.72a177.5 177.5 0 0 0-5.02-3.25l-.3-.15-.73-.32c-.5-.2-.99-.47-1.44-.78.02-.12.06-.23.1-.35l.06-.42a.67.67 0 0 1 .31-.44c.08-.06.07-.26 0-.34-.27-.28-.1-.63 0-.98l.1-.47.12-.46c.08-.3.16-.61.22-.93.14-.61.2-1.25.18-1.88-.06-.99.2-1.9.3-2.85.03-.32.33-.6.43-.9.1-.3.15-.61.17-.93.02-.19.16-.35-.1-.59a.33.33 0 0 1 .01-.48c.5-.29.4-.7.48-1.08.21-1.07.38-2.15.6-3.22.04-.26-.1-.59.37-.75.06-.02-.05-.2-.07-.3-.01-.1-.12-.26-.05-.3.7-.61.5-1.39.65-2.1.14-.7.28-1.44.4-2.17l.22-1.32.24-1.3 1-.18c.28-.06.54-.16.78-.31.13-.08.26-.14.39-.2l.21-.08a.98.98 0 0 1 .18-.04c.45-.07.89-.2 1.35-.25.32-.05.62-.3 1 .08a.28.28 0 0 0 .22.04.29.29 0 0 0 .19-.13c.27-.5.7-.35 1.07-.49.44-.17.96.02 1.32-.53.1-.14.38.05.57.03.32-.02.65-.07.97-.16.15-.03.27-.23.42-.27 1.17-.34 2.32-.7 3.5-.98 1.18-.28 2.42-.48 3.63-.72 1.22-.25 2.42-.51 3.64-.7.46-.06.89-.5 1.42.01.35-.44.75-.29 1.2.04.07.04.17-.16.26-.22.27-.21.45-.87.91-.29.03.02.06-.01.09 0 .3.03.36-.67.8-.34.27.2.61.03.92 0 .3-.03.61-.09.91-.18.3-.12.71.12.91-.43.04-.1.34.2.47.15.69-.25 1.5.05 2.08-.67a.51.51 0 0 1 .58-.11c.7.3 1.23-.03 1.83-.3.78-.38 1.65-.63 2.58-.17.2.1.3.18.42-.07.09-.17.3-.17.46-.2l5.4-1.06c.5-.1 1.04.28 1.5.01.2-.11.5.08.59-.35.01-.06.1-.11.13-.09.7.35 1.17-.43 1.81-.35.14.01.28.07.41.1.14.02.32.1.42.02.12-.12.26-.21.4-.3l.11-.05.16-.05.31-.1c.42-.1.85-.18 1.28-.23.37.3.76.57 1.17.8.1.07.2.13.28.21l.2.17a.51.51 0 0 0 .56.01.17.17 0 0 1 .18.08c.02.02.02.05.03.07.11.8.87.78 1.25 1.24.2.23.66.15.6.7-.02.08.12.1.19.11.14.03.33-.03.43.04.27.21.42.65.75.7.42.04.67.31.96.5.17.12.2.43.36.58.14.13.3.25.48.35.24.16.53.26.7.51.15.24.64-.04.7.43.03.35.53.12.78.23.12.07.22.18.28.3.06.1.05.28.14.33.2.1.3.3.62.25.21-.04.3.35.45.5.24.2.48.37.73.53.25.17.42.41.75.5l.14.04a.3.3 0 0 1 .06.02l.02.05.08.2a6.18 6.18 0 0 1 .2 1.41c.02.37.01.55.01.8 0 .24 0 .47.03.7.03.25.22.52-.22.74-.08.04-.08.17-.04.25.61.88.13 1.82.3 2.72.1.64.3 1.3.22 1.95-.08.66-.21 1.3-.06 1.93.13.52.24 1.03.09 1.53-.15.49.68 1.03-.11 1.43-.07.5-.1 1-.2 1.49-.07.41.06.86-.41 1.21a.46.46 0 0 0-.1.59c.36.58.15 1.07-.16 1.55-.08.11.11.3.1.45a5.4 5.4 0 0 1-.25 1.3c-.2.62-.3 1.27-.3 1.92-.02.66-.1 1.3-.22 1.95-.06.23.21.57.07.76-.2.27-.35.57-.46.89-.11.3-.2.62-.27.94-.14.63-.26 1.28-.6 1.85-.47.82-.84 1.7-1.1 2.61a37.39 37.39 0 0 1-.91 2.66c-.1.23-.52.35-.47.5.2.45-.23.73-.1 1.1.2.66-.27 1.05-.36 1.58-.06.4-.49.67-.17 1.19.05.08-.02.2-.1.24-.66.35-.24 1.13-.66 1.57a2.78 2.78 0 0 1-.37 1.62c-.27.48-.5.98-.7 1.49a1.8 1.8 0 0 0-.02.52c0 .09.03.2-.03.25-.98.62-1.02 1.74-1.6 2.56-.2.27-.5.48-.71.75-.22.27-.24.63-.71.73-.15.03-.2.23-.22.38-.14.8-1.1.91-2.22.31-.4-.21-.36-.37-.44-.58-.14-.44-.19-.8.02-1.13.16-.24.44-.46.17-.9-.04-.07.03-.18.12-.22.25-.12.45-.33.56-.58.1-.25.25-.47.45-.63.35-.23.45-.56.68-.84.2-.23.12-.6.62-.69.16-.03-.02-.44.05-.63.16-.46.36-.9.61-1.32.37-.64.63-1.34.78-2.06.14-.72.38-1.42.71-2.07-.12-1.18.74-2 .87-3.06.07-.63.22-1.25.43-1.85.22-.58.4-1.19.55-1.8a.95.95 0 0 1 .33-.61c.14-.1.25-.23.33-.38.2-.56.35-1.14.56-1.7.11-.29-.07-.71.52-.84.09-.01.12-.16.07-.23-.38-.64.1-1.1.18-1.64 0-.12.04-.23.1-.33.05-.1.13-.18.23-.24a.73.73 0 0 0 .2-.86 1.2 1.2 0 0 1-.05-.59c0-.4.19-.75.3-1.12a1.43 1.43 0 0 0-.08-1.19c.63-.27.56-.78.5-1.2a7.08 7.08 0 0 1 .11-2.31l.23-1.13c.07-.37.11-.75.14-1.14.02-.36.3-.7.4-1.08.1-.38.14-.78.14-1.18 0-.2.21-.43-.19-.63-.03-.02-.05-.06-.04-.08.09-.21.26-.43.25-.65-.02-.21-.27-.4-.34-.6a2.3 2.3 0 0 1-.04-.74c0-.24-.09-.5.29-.67-.45-.2-.21-.47-.23-.7-.01-.23 0-.46.02-.68l.02-.75c.03-.25.03-.5 0-.76-.07-.35-.23-.68-.28-1.02a4.09 4.09 0 0 1 0-1.1c.07-.45.18-.9.24-1.36.02-.19-.1-.34-.27-.52l-.09-.09c-.03-.03-.07-.07-.1-.07l-.16-.04c-.07-.03-.03-.05.27-.19.12-.05.1-.12 0-.13a2.23 2.23 0 0 0-.36-.01.2.2 0 0 1-.15-.07l-.03-.04a.19.19 0 0 0-.07-.07l-.29-.24c-.2-.16-.4-.3-.64-.41-.18-.7-.79-.78-1.33-1a4.72 4.72 0 0 1-2.1-1.48c-.55-.75-1.35-1.1-2-1.7-.18-.16-.5-.16-.42-.63.02-.1-.14-.19-.27-.2-.83-.04-1.32-.53-1.74-1.17-.2-.33-.78-.51-.88-.39a.25.25 0 0 1-.27-.03c-.1.02-.22-.02-.34 0a.65.65 0 0 0-.06-.14.16.16 0 0 0-.02-.04.13.13 0 0 0-.05-.01.18.18 0 0 0-.17.08c-.08.14-.14.3-.19.45a.67.67 0 0 1-.53.47c-.29.07-.6.03-.82.43a.48.48 0 0 1-.31.17.46.46 0 0 1-.35-.1c-.26-.2-.31-.07-.48.13-.2.24-.53-.2-.81-.12-.29.08-.62.42-1-.07-.03-.04-.13-.02-.16.03-.47.66-1.2-.02-1.72.33-1.83-.28-3.47.58-5.23.7-.73.05-1.52-.21-2.17.17-1.37.8-2.91.72-4.36 1.1-.3.08-.62.39-1-.07-.06-.07-.2-.04-.25.04-.37.57-.85.51-1.38.28a.3.3 0 0 0-.39.13c-.12.4-.38.3-.59.33-.21.03-.65-.21-.76 0-.25.45-.51.05-.77.03-.16-.01-.3.12-.45.2-.07.05-.13.23-.19.2-.57-.35-.94.39-1.46.3-.11 0-.23 0-.34-.02-1.27-.36-1.27-.36-2.67.22-.52-.56-.8.47-1.34.07-.2-.14-.49-.05-.66.12-.76.73-1.74.46-2.58.8-.18.06-.4-.34-.56.05-.07.15-.43-.16-.64-.11-.28.07-.63-.1-.84.37-.08.2-.37.1-.55.18-.25.1-.55 0-.75.4a.47.47 0 0 1-.65.14c-.81-.54-1.32.2-1.91.56-.18.1-.3.2-.52.13-.3-.09-.72-.2-.9.04-.31.44-.71.36-1.08.45-.64.17-1.3.23-1.93.4-.36.1-.74.15-1.1.23-.09.02-.17.08-.13.25.03.12.11.23-.01.14-.05-.03-.14-.1-.32-.2l.22.22v.14l-.01.02-.03.17c-.08.47-.18.93-.28 1.4-.05.2-.66.35-.24.62.42.27-.54.35 0 .63.08.04.04.24-.03.33-.8.98-.53 2.19-.89 3.27-.08.25.09.6-.42.72.4.77-.82 1.32-.09 2.13-.23.46.13 1.06-.52 1.42-.11.06 0 .25-.1.32-.34.24.5.58-.02.86-.3.15-.2.57-.28.87l-.15.84-.17.94c-.07.3-.13.62-.16.93-.03.64.21 1.32-.04 1.93-.01.05 0 .1.01.14.02.04.05.08.09.1.7.35.23.6-.02.77a.71.71 0 0 0-.36.49l-.1.68a.55.55 0 0 1-.06.18c-.03.04.02.07.01.1 0 .04-.07.08-.34.24a.25.25 0 0 0-.05.03c-.08.07.03.1.16.07.33-.08.41-.1.48-.05l.05.04.02.02.04.02c.14.1.28.2.44.28.27.16.54.33.8.52.19.14.56 0 .6.39 1.3.12 2.1 1.1 3.12 1.69 1.03.58 1.99 1.25 2.96 1.92.24.17.65.14.6.7-.02.1.17.22.27.17.3-.14.48-.19.44.22 0 .08.17.1.28.09a.5.5 0 0 1 .6.39.63.63 0 0 0 .47.45c.58.05 1.12.1 1.26.83.02.08.34-.1.43-.03.34.3.86.31 1 .9.07.23.36.27.52.43.28.27.73.24.99.6.26.34.7.49 1.06.72l1.08.7 1.08.7.8.53.95.3 1.23.4c.3.09.56.27.76.51.58.72 1.5.94 2.71.9.09.01.17.04.25.08 1.07.33 2.16.58 3.18 1.05.45.2.85.57 1.34.68.32.08.6.25 1 .05.34-.18.57.38 1.01.02.1-.05.21-.07.31-.04.1.03.2.1.25.2.35.6.93.52 1.41.72.56.22 1.14.4 1.73.55.28.08.52.32.92.04.2-.14.5.09.66.32a.98.98 0 0 0 .9.39c.72-.01.73-.06 1.28.42.06.05.14.09.22.11.8.25 1.55.69 2.4.7.66.04 1.33.17 1.97.4.25.07.61-.05.67.5.01.07.16.1.24.07.7-.35 1.18.1 1.74.27.55.17 1.16-.1 1.67.18.48.26 1.03.35 1.55.52.79.25.87.59.45 1.9-.35 1.07-.62 1.24-1.33 1.26-1.49.08-2.72-.7-3.86-.92Zm-96.47-38.63-45-.89 16.45 28.9 56.58-14.6-12.03-3.99 1.81-3.53-17.8-5.9Z" fill="#141414"/><path d="M232.65 90.75c-1.27-.03-2.3-.07-3.33-.04-.16 0-.35.17-.55.16-.8-.02-1.64.12-2.41-.1a5.97 5.97 0 0 0-2.52-.14c-.77.12-1.53.06-2.3.09-.26.05-.54-.01-.77-.16a.7.7 0 0 0-.86.08c-.05.04-.17-.01-.25-.04-.08-.02-.2-.13-.26-.1-.76.38-1.53.07-2.3.14-.18.02-.39-.1-.55.16-.04.06-.23.07-.28 0a.55.55 0 0 0-.47-.2c-.78 0-1.57-.02-2.35-.04-.39.34-.82.18-1.22.17-.32-.04-.63-.1-.92-.2-.31-.08-.65.13-.94-.17-.05-.05-.17.03-.25.04-.4.02-.8.12-1.16 0a1.93 1.93 0 0 0-.56-.13l-7.27-.14c-.21 0-.41-.05-.65.14a.63.63 0 0 1-.72-.01c-.27-.25-.53-.16-.79-.18-.47-.03-.96 0-1.44-.04-.28-.02-.6.14-.84-.2-.02-.04-.11-.04-.15 0-.32.31-.62.04-.94-.02l-.16-.01h-.14a.43.43 0 0 0-.25.14c-.14.15-.34.18-.62 0a1.03 1.03 0 0 0-.45-.17h-.33l-.98-.03.72 1.3.78 1.33c.4.68 1.04 1.2 1.34 1.96.06.18.28.3.15.56-.03.05.07.17.15.2.3.07.33.3.44.52.51.99.96 2.03 1.68 2.88.54.67.9 1.42 1.36 2.12.15.24.15.56.26.82.12.26.25.5.41.73.09.14.11.31.36.36a.35.35 0 0 1 .25.34c-.09.42.17.68.34.97.46.84.95 1.66 1.41 2.5.13.22.37.37.21.7-.02.04.13.12.2.18s.2.12.2.2c-.02.73.49 1.19.79 1.75.74 1.34 1.54 2.67 2.26 4.03.2.38.6.58.8.95.19.38.4.7.59 1.06.12.26.39.45.26.83a.31.31 0 0 0 .18.32.72.72 0 0 1 .39.3c.05.1.1.21.17.31.13.14.18.4.31.51.11-.06.2-.14.28-.23.08-.12.17.04.28.02a2.29 2.29 0 0 0 .41-.08l.19-.05c.13-.05.23-.19.37-.23 1-.34 2.02-.69 3.04-.99 1.02-.3 2.1-.55 3.15-.82 1.05-.27 2.1-.57 3.16-.8.4-.1.77-.42 1.23-.13.3-.33.66-.27 1.04-.08.05.03.14-.11.22-.17.24-.17.39-.63.8-.28.01.01.04-.01.07-.01.26 0 .32-.48.7-.3.23.11.53-.04.79-.1.27-.04.54-.1.8-.2.27-.11.62.01.8-.38.02-.07.29.1.4.06.6-.23 1.3-.1 1.81-.64a.7.7 0 0 1 .24-.13.55.55 0 0 1 .26 0c.6.14 1.07-.14 1.59-.38.68-.32 1.43-.57 2.24-.35.17.05.25.1.37-.09.08-.11.25-.14.4-.17l4.7-1.22c.42-.1.9.1 1.3-.13.17-.1.42.01.5-.29a.13.13 0 0 1 .06-.05.13.13 0 0 1 .07-.01c.6.16 1.01-.4 1.56-.41l.36.03c.11 0 .28.05.36-.02.7-.59 1.6-.5 2.39-.81.26-.1.6-.02.77-.4.03-.06.15-.08.21-.05.58.26 1.02-.17 1.53-.2.27-.01.5-.3.8-.04.05.03.14-.02.2-.06.1-.07.17-.2.28-.22.3-.06.66.03.89-.14.28-.2.6-.23.9-.32.17-.05.38.05.57.04.17-.03.34-.07.51-.13.24-.1.48-.15.73-.17.27.01.37-.37.7-.2.25.1.4-.26.62-.35a.85.85 0 0 1 .36-.03c.1 0 .21.09.29.05.18-.06.37-.05.53-.24.1-.13.4-.02.6-.04.2-.04.39-.09.58-.15.2-.05.43-.04.58-.16.34-.25.73-.42 1.13-.5l.6-.13.24-.05.17-.05a.96.96 0 0 1 .17-.08c.07-.01.15.01.32.12.06.04.15.02.16-.02.07-.22.24-.3.49-.34.24-.02.47-.08.7-.17.05-.05.1-.11.12-.18.04-.05.07-.1.27-.13.3-.05.8-.1.75-.18l-.22-.03c-.6-.08-1.06-.11-1-.17a2.88 2.88 0 0 0-.67-.04c-.26-.02-.33-.01.14-.11l-.47-.16c-.05-.04-.17-.04-.23-.07-.06-.03-.07-.07.01-.2.07-.08-.09-.12-.23-.07-.24.08-.35.1-.43.07a.26.26 0 0 1-.1-.08.78.78 0 0 1-.06-.06.23.23 0 0 0-.05-.04l-.07-.05c-.1-.07-.27.02-.4 0-.36-.1-.72-.22-1.07-.37a7.24 7.24 0 0 0-1.6-.47l-.22-.04-.33-.08-.7-.18c-.45-.12-.93-.25-1.38-.4-.2-.05-.42-.09-.64-.1-.2 0-.4-.05-.58-.13-.1-.07-.23-.13-.35-.19a14.17 14.17 0 0 0 1.04-1.81l.48-.97.11-.22.04-.09.08-.17.17-.35.02-.02-.01.02-.02.03-.04.08-.06.15-.03.07.02-.03.07-.06.3-.31a2.29 2.29 0 0 0-.68-.27l-.1-.03-.17-.05-.48-.15c-.31-.1-.63-.2-.94-.33-.2-.07-.33-.37-.45-.34-.35.12-.63-.18-.93-.1-.54.13-.92-.2-1.38-.27-.33-.06-.6-.36-1-.13a.2.2 0 0 1-.2-.07c-.38-.45-.99-.16-1.4-.45-1 .07-1.83-.47-2.74-.7a1.85 1.85 0 0 0-.44.01c-.07 0-.16.03-.2-.02-.69-.65-1.62-.63-2.4-1-.26-.12-.5-.32-.75-.44-.25-.13-.57-.13-.75-.45-.05-.1-.22-.12-.35-.13-.68-.05-.98-.7-.72-1.51.1-.3.23-.27.4-.33.3-.14.64-.16.94-.05.25.1.49.28.8.07.05-.03.16.01.2.07.35.39.89.35 1.23.65.27.23.56.3.84.44.23.13.53.07.7.4.05.12.37-.02.54.03.42.1.83.23 1.22.4 1.2.52 2.55.51 3.75 1.02 1-.07 1.8.56 2.74.67.56.08 1.1.21 1.64.4l.8.24.5.16.61.17c.29.06.56.18.8.35.12.12.26.22.41.28l.85.29c-.19.38-.38.77-.6 1.16a7.3 7.3 0 0 1-.3.65c-.06.13-.14.26-.24.37a.24.24 0 0 1-.12.09.63.63 0 0 1-.14.04c-.06 0-.12.12-.1.2l.01.2v.1l-.02.05v.02l.03.02-.04.06-.08.1a.8.8 0 0 0-.1.2.74.74 0 0 1-.27.33l-.02.03c-.05.13.24.21.52.17.14-.02.28-.02.42 0 .21.04.42.12.61.23.32.15.7.2 1.04.12.21.47.67.48 1.03.51.35.03.7.09 1.03.17l.25.07.35.1.72.25c.97.33 1.86.67 2.86.97.2.06.4.15.57.26.14.1.3.2.45.27.4.16.88.3 1.4.46.27.08.19.19 1.18.22l.18.03c.15.1.1.2.43.28.33.08 1.14.16 1.57.25l.5.11a5.6 5.6 0 0 1-.57.18c-.3.08-.48.2-1.48.2.35.07.3.12.14.16-.16.05-.43.08-.56.13-.25.1-.6.16-.91.24l-1.04.27c-.35.1-.75.16-1.04.27-.39.15-.7.34-1.17.49-.52.17-1.05.3-1.6.41-.7.14-1.4.23-2.03.33a.59.59 0 0 0-.25.1l-.2.19c-.17.2-.36.56-.74.24-.08-.07-.27 0-.36.08-.74.64-1.7.52-2.53.86-.55-.19-.96.12-1.43.33-.68.34-1.43.53-2.2.56-.79 0-1.5.3-2.25.42-.21.04-.4.21-.65-.02-.06-.05-.21 0-.29.07-.52.45-1.13.51-1.78.48-.35-.01-.69.2-1.01.4-.5.3-1.11.33-1.67.47-.34-.27-.44.12-.52.3a.63.63 0 0 1-.46.37c-.25.07-.52.07-.72.36a.51.51 0 0 1-.56.11c-.23-.11-.28-.02-.42.13-.17.17-.46-.09-.7 0-.26.07-.54.33-.86.04-.04-.02-.12 0-.15.04-.4.5-1.03.1-1.5.38-1.58-.02-3 .71-4.53.95-.62.11-1.32 0-1.89.32-1.18.67-2.53.76-3.78 1.15-.27.09-.54.33-.87.04-.05-.03-.17 0-.22.06-.32.42-.74.42-1.2.31-.1-.02-.3.03-.33.13-.11.28-.33.23-.52.27-.18.05-.56-.08-.66.08-.21.33-.44.08-.67.09a.93.93 0 0 0-.4.18c-.06.03-.11.16-.15.14-.5-.18-.82.35-1.28.34l-.28.02c-1.1-.13-1.1-.13-2.32.4-.46-.33-.7.39-1.17.17a.6.6 0 0 0-.57.14c-.66.56-1.51.47-2.24.77-.16.06-.35-.18-.5.1-.05.1-.37-.08-.54-.03-.25.08-.55 0-.73.34-.07.14-.32.1-.49.17-.22.09-.47.05-.64.33a.52.52 0 0 1-.56.17.99.99 0 0 0-.5-.08 1.8 1.8 0 0 0-.5.15c-.42.18-.88.45-1.38.66a1.9 1.9 0 0 1-.8.23h-.08c-.17-.48-.34-1-.58-1.15a2.02 2.02 0 0 1-.56-.64 9.28 9.28 0 0 1-.21-.4l-.08-.13-.06-.11c-.31-.5-.56-1.02-.88-1.5-.36-.56-.58-1.2-1.11-1.66-.29-.25-.62-.61-.48-1.14.01-.06-.25-.1-.3-.18-.43-.72-.86-1.43-1.24-2.17-.09-.18.14-.55-.21-.55-.36 0 .07-.49-.34-.44-.06.01-.14-.14-.15-.24-.13-1.05-.9-1.77-1.3-2.68-.1-.21-.37-.37-.18-.7-.6-.34-.29-1.29-1.08-1.51-.13-.43-.62-.67-.5-1.23.03-.09-.13-.17-.12-.27.04-.32-.55-.17-.45-.6.06-.24-.2-.48-.32-.73a10.1 10.1 0 0 0-.38-.66l-.4-.72c-.15-.24-.27-.5-.43-.72-.32-.46-.8-.82-1-1.36a.2.2 0 0 0-.18-.13c-.53.08-.43-.31-.4-.55a.72.72 0 0 0-.08-.5c-.25-.42-.5-.82-.7-1.25-.13-.26-.42-.44-.28-.84.04-.12-.09-.3-.21-.38-.59-.36-.72-1-1.07-1.5a9.1 9.1 0 0 1-.32-.55l-.36-.65a4.38 4.38 0 0 0-.36-.48.7.7 0 0 1-.2-.5c-.48-.56-.91-1.17-1.3-1.81a29.7 29.7 0 0 1-.98-1.8c.6.02 1.19.05 1.74.05.93-.01 1.9 0 2.88.03l1.47.03 1.02.04c.27.01.56-.15.78.2.04.06.23.06.28-.01.15-.18.27-.27.43-.03.03.05.18 0 .25-.05a.55.55 0 0 1 .62.02.7.7 0 0 0 .57.1c.45-.19.88-.34 1.33.02.05.04.2-.18.3-.16.4.05.8-.13 1.17.15.16.11.4.04.59.07.33.06.66-.12 1.01 0 .36.1.76.03 1.13.04l1.14.02 1.14.02 1.13.03 1.14.02 1.13.02c.27 0 .54.07.78.2.67.34 1.5.32 2.51.07a.84.84 0 0 1 .23 0c.99.02 1.98-.03 2.95.08.43.05.86.21 1.3.2.28-.02.57.04.86-.16.24-.18.57.13.85-.17a.44.44 0 0 1 .51-.01c.45.32.92.17 1.38.2.53.04 1.06.05 1.59.04.26 0 .52.1.79-.15.13-.13.44-.03.63.08a1.11 1.11 0 0 0 .88.07c.6-.14.6-.17 1.17.04a.7.7 0 0 0 .22.03c.73.01 1.48.15 2.2 0 .57-.1 1.16-.14 1.75-.11.24 0 .5-.15.7.2.03.04.16.04.22 0 .5-.36 1.02-.16 1.53-.15.51 0 .96-.28 1.46-.2.48.05.96.06 1.44.04.73.02.88.22.86 1.13-.02.76-.2.92-.8 1.07-1.17.29-2.4.01-3.42.1Zm63.45 26.59 24.74 24.86-37.5 7.94-11.44-43.85 24.2 11.05Z" fill="#141414"/><path d="M299.07 119.45c.76.76 1.36 1.4 2.01 1.98.1.09.33.07.45.2.47.49 1.09.87 1.4 1.48a4.3 4.3 0 0 0 1.43 1.57c.56.37.98.85 1.46 1.28a.8.8 0 0 1 .37.57.52.52 0 0 0 .57.45c.07 0 .1.1.13.16.04.07.03.22.1.23.71.18.97.85 1.49 1.24.13.1.17.3.45.21a.17.17 0 0 1 .18.16.43.43 0 0 0 .15.42l1.4 1.4c.47 0 .62.36.85.61.17.21.31.44.42.68.14.23.5.28.46.67 0 .06.13.07.18.12.25.22.57.38.71.68.06.15.15.3.25.41a771.92 771.92 0 0 0 4.55 4.55c.08.05.18.07.28.07.1.01.21.06.3.14.07.08.12.18.13.3.03.38.3.5.5.72.34.39.76.75 1.1 1.13.1.11.28.23.39.35.1.11.16.22-.02.28-.04.01.02.07.1.1.39.16.54.3.6.4.06.1.02.19.1.29l.13.15c-.15.04-.23.1-.22.2.03.16-.42.28-.9.2a2.17 2.17 0 0 0-1.1.08l-2.44.5-2.06.45c-.66.15-1.23.58-1.92.6-.16 0-.3.17-.49-.03-.05-.04-.16 0-.2.08-.13.24-.33.2-.53.23-.94.16-1.89.23-2.75.61-.66.3-1.36.38-2.05.58-.23.06-.5-.04-.73-.03-.24.03-.47.07-.7.14-.13.04-.27 0-.37.22a.27.27 0 0 1-.34.12c-.32-.23-.59-.05-.87 0-.8.15-1.58.34-2.38.5-.2.03-.38.21-.62-.04-.04-.02-.13.08-.2.13-.06.04-.14.15-.2.12-.6-.26-1.1.07-1.62.16-1.28.24-2.54.56-3.83.77-.36.06-.62.38-.97.43-.34.06-.66.16-1 .2-.24.04-.46.23-.74-.02a.22.22 0 0 0-.3.06c-.2.34-.53.25-.8.35-.33.13-.72.02-.99.4-.07.1-.28-.03-.42-.01-.24.03-.48.07-.71.13-.12.03-.2.16-.32.2-.86.26-1.72.53-2.6.75l-.66.16-.89.19-2.02.42-.16.03-.5-1.93-.24-.93-.14-.65c-.08-.33-.4-.64-.08-1.04-.31-.25-.24-.56-.05-.9.04-.04-.1-.1-.15-.16-.16-.2-.6-.3-.24-.67l-.02-.06c0-.23-.46-.26-.27-.59.12-.2-.02-.45-.06-.67-.04-.23-.1-.46-.19-.68-.1-.22.04-.52-.34-.66-.06-.03.12-.26.07-.35-.21-.5-.06-1.11-.57-1.52a.4.4 0 0 1-.11-.43c.16-.52-.1-.9-.32-1.33-.3-.57-.52-1.2-.27-1.9.06-.15.1-.23-.07-.32-.11-.06-.12-.2-.16-.33l-1.04-3.96c-.1-.36.13-.77-.08-1.11-.09-.14.02-.36-.27-.42a.1.1 0 0 1-.07-.1c.19-.52-.36-.85-.35-1.32 0-.1.04-.2.05-.3 0-.1.05-.24-.01-.31-.55-.58-.45-1.35-.73-2-.09-.23.02-.53-.36-.66-.05-.01-.07-.12-.04-.17.28-.5-.13-.86-.14-1.3 0-.23-.28-.41-.01-.69.03-.03-.02-.1-.06-.15-.06-.08-.2-.14-.2-.24-.05-.25.05-.56-.1-.75-.2-.23-.22-.5-.3-.75-.03-.15.07-.33.06-.5a1.98 1.98 0 0 0-.1-.42c-.08-.2-.13-.41-.15-.63.02-.22-.35-.3-.18-.58.12-.21-.23-.33-.32-.51a.6.6 0 0 1-.02-.3c0-.09.1-.19.07-.25-.06-.15-.05-.32-.23-.44-.13-.1 0-.34-.03-.51a3.73 3.73 0 0 0-.12-.5c-.04-.16-.02-.35-.14-.49-.5-.57-.48-1.3-.7-1.94-.05-.17-.21-.34.03-.56.04-.04.02-.14-.02-.18-.56-.53-.42-1.27-.7-1.88-.2-.44-.47-.85-.55-1.32l-.06-.36c-.04-.18-.07-.35-.12-.52a5.2 5.2 0 0 0-.34-1.02 6.32 6.32 0 0 1-.6-1.73c-.03-.25-.26-.63-.43-.99-.17-.36-.29-.7-.02-.66-.14-.51-.3-1.06-.4-1.55l.12.07c.24.12.43.17.66.28.31.16.6.36.86.6.25.23.52.34.6.28.14-.1.38-.05.66.08.31.15.6.34.88.55.14.1.27 0 .41.07a13.32 13.32 0 0 1 1.9.9l.18.07.17.07.66.22c.46.11.91.26 1.35.44.16.08.43-.05.54.06.7.73 1.73.78 2.49 1.36 1.11.86 2.45 1.22 3.67 1.85.15.09.23.39.33.35.33-.08.52.21.79.15.48-.1.75.24 1.13.33.28.07.48.37.85.18.06-.03.14.02.17.07.25.46.82.2 1.13.51.87-.02 1.5.55 2.25.8.12.03.25.03.37.02.06 0 .15-.01.18.03.49.66 1.3.69 1.9 1.09.2.14.38.33.58.46.2.14.47.15.58.48.03.1.18.13.28.13.57.08.73.74.39 1.51-.13.28-.24.25-.4.3a.97.97 0 0 1-.82 0c-.2-.1-.37-.29-.67-.1-.05.03-.14-.02-.17-.08-.23-.4-.7-.38-.96-.68-.19-.24-.43-.31-.65-.47-.18-.13-.45-.08-.54-.42-.03-.11-.32.01-.47-.04a6 6 0 0 1-.99-.45c-.94-.57-2.1-.62-3.06-1.17-.87.02-1.46-.64-2.25-.79-.96-.19-1.76-.69-2.65-.99a.8.8 0 0 1-.44-.29.77.77 0 0 0-.26-.27c-.4-.2-.82-.35-1.22-.57-.2-.11-.53-.05-.57-.46-.01-.06-.11-.1-.17-.08-.5.16-.8-.21-1.2-.34a.61.61 0 0 1-.38-.31.6.6 0 0 0-.6-.27c-.15 0-.3-.01-.43-.06-.58-.14-.97-.71-1.67-.55-.15-.49-.39-.46-.57-.44-.3.03-.58-.03-.83-.18a6.76 6.76 0 0 0-.9-.45c0 .09-.14.02-.14.13.02.18.06.36.13.53.04.1-.09.12.27.4l.04.05c-.04.05-.13.08-.08.19.1.12.22.22.34.32a.6.6 0 0 1 .14.25c.03.08.1.12-.12.25a.2.2 0 0 1 .1.01.2.2 0 0 1 .08.05c.03.03.06.07.07.11.03.1.02.2.05.28a4 4 0 0 1 .14.49l.15.56c.03.19.08.38.15.56.1.24.27.47.37.7.1.26.18.53.21.8.05.35.05.71.08 1.05a.54.54 0 0 0 .26.36c.19.13.55.28.2.62-.06.07 0 .23.07.3.6.6.45 1.43.75 2.13-.2.48.1.81.29 1.2.3.57.47 1.2.47 1.86-.02.68.25 1.27.34 1.9.02.19.19.35-.05.57-.05.05 0 .18.06.24.42.43.46.94.41 1.5-.02.3.17.58.36.85.27.41.28.93.4 1.4-.28.3.1.37.28.44a.5.5 0 0 1 .23.14c.06.06.1.15.12.24.06.2.06.44.33.6.07.05.12.13.14.21a.4.4 0 0 1-.05.26c-.1.2-.02.24.12.35.14.12-.1.4-.03.6.07.22.31.45.02.75-.03.03 0 .1.03.12.46.33.05.88.32 1.26-.07 1.36.6 2.54.78 3.84.08.54-.05 1.13.25 1.6.62.99.67 2.13 1.01 3.19.07.22.3.44.02.74-.04.05-.01.15.04.18.4.26.39.61.27 1.02-.03.1.02.25.12.27.27.08.22.28.24.42.03.15-.1.48.04.58.32.17.07.37.07.56 0 .12.1.23.16.33.04.05.16.1.14.13-.2.44.32.68.3 1.07v.25c-.08.31-.1.64-.09.96l.05.19.03.1.03.05c.05.1.11.17.18.25-.17.2-.1.28-.03.3.07.02.15 0 .05.27a.43.43 0 0 0-.04.15c.05.02.15-.03.23-.1.26-.26.37-.3.51-.32.07 0 .14 0 .21-.02h.03l.06-.01.12-.03.24-.07c.13-.06.3.2.42-.06.04-.1.32.1.47.06.2-.06.46.06.62-.27.06-.13.27-.08.41-.14.19-.07.4 0 .56-.28a.38.38 0 0 1 .47-.12c.6.35.99-.16 1.42-.42.13-.08.23-.14.39-.1.23.05.53.12.66-.05.24-.3.53-.26.8-.33.48-.13.96-.2 1.44-.32.55-.16 1.1-.16 1.61-.5.28-.18.65-.38 1.05-.08.04.04.13-.2.22-.22a32.2 32.2 0 0 1 2.06-.43c.16-.03.42.3.5-.02.07-.32.38.23.44-.17 0-.06.15-.09.23-.07.9.23 1.65-.26 2.5-.32.2-.02.38-.22.6.06.43-.46 1.13.15 1.5-.51.38.02.7-.36 1.13-.05.07.05.17-.07.24-.03.26.15.27-.46.6-.22.2.14.45-.02.68-.06l.63-.13.68-.16c.24-.04.46-.09.69-.15.45-.16.86-.49 1.35-.49a.17.17 0 0 0 .13-.13c.06-.52.35-.3.54-.19a.56.56 0 0 0 .43.1c.4-.1.8-.2 1.2-.25.24-.04.44-.25.74.02.09.08.26.01.37-.08.42-.42.98-.34 1.47-.5.23-.06.46-.11.7-.14.17-.03.3-.28.51-.12a2.89 2.89 0 0 1 1.04-.45c.05 0 .15.03.18 0a.56.56 0 0 1 .25-.06l-.02-.04-.1-.04c.12 0 .22 0 .33.02.1 0 .06-.03-.05-.04-.3-.04-.43-.03-.1-.05.06-.01-.03-.03-.1-.03-.2 0-.18 0-.06-.06s.11-.11.02-.1c-.1 0-.21.05-.24.04h-.01l-.03-.03-.04-.06a.8.8 0 0 1-.07-.32c0-.07-.25 0-.3-.07-.2-.26-.56-.36-.6-.79-.02-.17-.22-.25-.31-.4-.17-.23-.5-.3-.63-.58-.13-.29-.43-.47-.66-.7l-.67-.67-.66-.69-.68-.68-.68-.68-.67-.68a1.25 1.25 0 0 1-.34-.59c-.17-.65-.69-1.1-1.48-1.52a22.53 22.53 0 0 1-1.88-1.92c-.22-.29-.38-.65-.66-.9-.18-.16-.3-.37-.63-.39-.26-.01-.24-.42-.64-.38a.33.33 0 0 1-.31-.29c-.05-.49-.45-.66-.7-.95-.3-.33-.61-.65-.94-.94-.17-.15-.25-.39-.59-.36-.17.01-.3-.24-.33-.43a.8.8 0 0 0-.47-.56c-.46-.25-.48-.23-.7-.72a.5.5 0 0 0-.1-.15c-.44-.44-.8-.97-1.34-1.28a5.9 5.9 0 0 1-1.15-.95c-.15-.13-.41-.2-.3-.55.02-.04-.06-.12-.12-.13-.55-.03-.73-.49-1.04-.79-.3-.3-.78-.35-1.03-.7a6.35 6.35 0 0 0-.84-.88c-.43-.44-.38-.67.26-1.31.54-.54.77-.54 1.23-.3.96.5 1.52 1.42 2.2 1.95Zm-100.93-7.92-35.38 91.05 18.42 13.13 40.47-96.62-15.84 5.25-7.67-12.81Z" fill="#141414"/><path d="M196.32 117.65c-.69 1.76-1.27 3.2-1.79 4.65-.07.22-.04.52-.15.8-.45 1.13-.77 2.33-1.34 3.35a15.7 15.7 0 0 0-1.44 3.47c-.32 1.1-.76 2.15-1.14 3.22-.1.39-.28.75-.54 1.05a1.7 1.7 0 0 0-.38 1.21c0 .1-.1.24-.16.35-.06.1-.21.23-.22.34-.1 1.16-.75 2.15-1.09 3.23-.08.28-.28.53-.17.83a.53.53 0 0 1-.14.4c-.19.15-.33.36-.4.6l-1.27 3.26c.06.64-.3 1.2-.51 1.76-.2.42-.4.83-.65 1.23-.21.41-.22.93-.62 1.26-.06.05-.05.24-.1.37-.2.55-.32 1.14-.61 1.62-.15.24-.28.49-.4.75l-3.91 10.11c-.16.29-.23.61-.23.94 0 .37-.14.73-.39 1-.34.31-.4.7-.55 1.05-.28.66-.5 1.34-.79 2-.16.39-.2.88-.6 1.12a.29.29 0 0 0-.08.2c.09.54-.3.89-.5 1.31a2.4 2.4 0 0 0-.28 1.02c-.02.45-.18.88-.46 1.23-.34.35-.43.76-.59 1.15a715.9 715.9 0 0 0-2.7 6.95c-.42 1.1-.6 2.27-1.13 3.34-.12.25-.14.58-.41.74a.54.54 0 0 0-.1.36c.05.36-.13.64-.28.98-.63 1.53-1.34 3.06-1.77 4.63-.33 1.23-.84 2.37-1.25 3.55-.14.39-.42.73-.6 1.12-.18.38-.32.76-.45 1.15-.09.24-.23.45-.17.73a.88.88 0 0 1-.19.6c-.4.36-.5.88-.68 1.34l-1.5 3.86c-.05.18-.12.36-.22.52l.02.08a.2.2 0 0 1-.01.08c0 .03.2.1.3.13.09.03.25.06.29.13l.06.1.04.06.06.07a5.01 5.01 0 0 0 .81.7c.4.27.8.51 1.19.8 1.85 1.35 3.75 2.64 5.6 4 .5.4 1.09.55 1.59.92s.98.7 1.47 1.05c.34.25.77.42.95.86.1.15.26.27.44.31.53.08.88.49 1.3.74.53.32.95.81 1.6.95.16.03.34.33.54.48l.4.31.34.25c.12.08.21.03.3.08l.22.13.41-1.21.78-2.02c.6-1.49 1.25-2.99 1.87-4.48.63-1.5 1.24-3 1.89-4.48.24-.55.32-1.23.85-1.62a1.9 1.9 0 0 1 .73-1.37c.06-.05.04-.24.06-.38.08-.41-.09-.9.43-1.18l.05-.1c.19-.32-.06-.71.34-1.06.25-.22.38-.7.54-1.06.18-.37.34-.75.48-1.14.13-.41.47-.77.37-1.24-.02-.08.28-.3.33-.47.3-.9.91-1.7.97-2.7.03-.25.13-.5.3-.7.54-.67.71-1.42.96-2.24a8.11 8.11 0 0 1 1.47-3.03c.16-.18.25-.26.23-.52.02-.21.08-.42.18-.61l2.8-6.67c.25-.6.73-1.06.9-1.73.07-.27.32-.52.2-.81a.28.28 0 0 1 .05-.2c.55-.65.52-1.53.93-2.23l.29-.43c.1-.14.2-.3.25-.46.18-1.26.9-2.34 1.3-3.52.14-.4.45-.78.35-1.23 0-.12.05-.22.12-.3.59-.55.66-1.39 1.04-2.05.19-.34.19-.81.57-1.03.05-.02.09-.18.1-.28.01-.16.04-.33.08-.49.2-.41.52-.8.59-1.2.1-.46.27-.91.48-1.34.14-.24.29-.47.45-.69.12-.23.22-.48.3-.72.13-.36.28-.7.46-1.03.2-.32.05-.7.38-1 .26-.24.16-.67.27-1 .06-.18.14-.33.25-.48.07-.11.2-.2.24-.32.13-.25.22-.53.26-.8 0-.23.29-.51.42-.78.14-.28.24-.56.35-.84.15-.26.26-.54.34-.83.2-1.22.84-2.28 1.27-3.41.11-.3.16-.66.49-.82a.46.46 0 0 0 .14-.29c.15-1.2.86-2.2 1.22-3.32a22 22 0 0 1 .8-2.37c.39-.74.7-1.5.94-2.3.14-.64.36-1.25.64-1.84.3-.55.09-1.3.7-1.71.25-.6.48-1.19.75-1.77.22-.5.33-1.04.76-1.43.17-.2.28-.45.3-.71.02-.72.34-1.29.72-1.87.1-.13.06-.37.12-.55.2-.52.4-1.06.65-1.56.36-.75.67-1.53.92-2.32l.4-1.19.22-.58.1-.3.1-.2c0-.05-.02-.1-.05-.14-.03-.03-.06-.06-.02-.09.12-.1.23-.23.3-.38.06-.1.1-.22.14-.34l-.33.13a.57.57 0 0 1-.27.02 1.1 1.1 0 0 0-.28 0l-.16.03-.43.13c-.58.17-1.16.35-1.73.55-1.15.38-2.28.8-3.44 1.15-.3.09-.68 0-.8.1-.38.32-.93.34-1.25.6-.59.45-1.3.5-1.93.77-.45.2-1.01.22-1.36.63l-.02.02a1.03 1.03 0 0 1-.21.08c-.1.04-.2.06-.3.07-.6.1-1.2.27-1.76.53-.41-.53-.77-1.1-1.08-1.69l-.15-.18-.07-.1-.05-.06-.17-.2a12.62 12.62 0 0 1-.88-1.3c-.35-.6-.68-1.23-1.07-1.81a4.9 4.9 0 0 0-.41-.47.81.81 0 0 1-.2-.24c-.36-1.26-1.26-2.25-1.84-3.4-.2-.38-.33-.78-.52-1.16-.19-.38-.48-.72-.51-1.17a1.13 1.13 0 0 0-.28-.48c-.63-.77-.62-1.63-.02-2 .22-.15.34.02.53.15.38.25.7.59.92.98.18.34.33.75.72.91.08.08.14.18.17.29.15.68.68 1.23.87 1.84.17.43.38.85.6 1.25.17.36.5.63.5 1.08 0 .15.36.38.5.6.36.54.7 1.09 1 1.65.35.65.74 1.28 1.17 1.88l.31.46.16.22.13.18.45.64c.3-.12.61-.22.93-.3 1.2-.74 2.66-.92 3.92-1.5 1.52-.71 3.13-1.13 4.68-1.74.28-.12.59-.2.9-.22.2 0 .4-.03.6-.09l.57-.18.66-.22a34.7 34.7 0 0 1 1.55-.5c.27-.08.59-.23.88-.33.3-.1.55-.15.6 0 0 .04.24-.04.4-.13.34-.2.7-.38 1.06-.52-.12.33-.25.65-.4.96l-.43.98c-.14.4-.33.77-.57 1.11-.3.43-.5.92-.6 1.43l-.02.13-.02.1-.05.18-.1.35c-.3.98-1 1.84-1.05 2.9-.5.36-.65 1-.78 1.52-.52 1.99-1.51 3.8-2.25 5.7-.17.46-.5.86-.7 1.31-.22.45-.43.97-.62 1.46-.1.26-.33.52-.2.82v.1c-.18.24-.33.5-.45.77-.09.25-.03.53-.1.8a7.3 7.3 0 0 1-.3.96c-.13.3-.21.63-.5.79.14.32-.12.61-.22.91-.1.3-.23.56-.35.84l-.4.94c-.12.3-.27.62-.38.93-.15.44-.24.9-.4 1.33-.16.46-.35.9-.57 1.35-.26.55-.57 1.08-.85 1.62-.1.23-.15.47-.15.72-.02.34.07.83-.42 1.09a.86.86 0 0 0-.2.5c-.18 1.34-.98 2.47-1.4 3.73-.53.57-.64 1.29-.88 2a14.24 14.24 0 0 1-1.3 3.12c-.6 1-.95 2.07-1.45 3.1-.14.28-.19.64-.5.8a.7.7 0 0 0-.18.4 6.29 6.29 0 0 1-1.04 2.54c-.26.48-.43 1-.52 1.53-.2.8-.63 1.6-.97 2.4-.41.23-.25.61-.2.84.04.28 0 .56-.13.81-.15.37-.35.7-.32 1.14-.03.3-.15.57-.36.78-.24.21-.22.34-.24.61-.02.33-.4.52-.53.88-.14.37-.2.9-.62 1.11a.31.31 0 0 0-.1.21c0 .82-.72 1.37-.89 2.12-1.2 1.98-1.83 4.24-2.83 6.3-.41.86-1 1.66-1.22 2.58-.5 1.92-1.45 3.66-2.15 5.5-.15.38-.21.87-.63 1.1a.47.47 0 0 0-.13.3c.01.69-.3 1.2-.71 1.72a.8.8 0 0 0-.18.5c.1.32-.1.56-.21.82-.14.3-.47.66-.46.88.04.48-.29.61-.45.89-.09.2-.15.4-.18.6-.03.1.01.26-.03.3-.49.51-.4 1.26-.75 1.82-.08.12-.13.26-.2.38-.91 1.3-.91 1.3-1.51 3.16-.54.35-.29 1.13-.77 1.56-.2.24-.31.52-.35.82-.15 1.2-.84 2.2-1.21 3.31-.08.24-.37.31-.31.68.02.13-.33.42-.43.67-.14.36-.41.69-.34 1.13 0 .11-.03.23-.09.33l-.13.28-.12.3-.32.78c-.12.3-.2.6-.25.92-.07.4-.2.78-.4 1.13-.1-.08-.2-.17-.28-.26a7.5 7.5 0 0 0-1.76-1.44l-.44-.24-.23-.13a2 2 0 0 0-.2-.1c-.2-.1-.4-.17-.59-.26a1.61 1.61 0 0 1-.58-.4c-.26-.28-.6-.66-.9-.73-.55-.13-.9-.49-1.31-.77-.72-.48-1.4-1.02-2.12-1.5-.82-.55-1.56-1.2-2.49-1.63-.5-.22-1.13-.55-1.41-1.15-.04-.07-.33-.06-.46-.15a92.35 92.35 0 0 1-3.03-2.16c-.24-.17-.3-.61-.67-.56-.36.06-.32-.55-.7-.42-.05.02-.26-.13-.35-.25a7.35 7.35 0 0 0-1.03-.94l-.2-.14-.74-.53-1.03-.71.52-1.37.27-.69.1-.24.08-.19c.15-.31.17-.74.53-.9.04-.95.98-1.65.85-2.64.3-.57.32-1.3.84-1.77.09-.07.1-.3.18-.4.3-.3-.08-.7.33-1.06.24-.2.34-.71.5-1.08.16-.38.28-.7.41-1.06l.45-1.15c.15-.39.32-.77.45-1.16.26-.8.37-1.63.75-2.4a.4.4 0 0 0 .03-.3c-.29-.41.08-.72.3-.95.18-.17.31-.38.4-.6.26-.68.5-1.35.78-2 .17-.4.2-.87.6-1.15a.96.96 0 0 0 .24-.6c.07-.94.56-1.75.85-2.61.13-.4.3-.78.45-1.16.12-.3.06-.65.34-.88.24-1.55 1.01-2.93 1.53-4.39.52-1.45 1.1-2.88 1.68-4.32.14-.36.17-.8.56-1.03.1-.1.15-.25.15-.4-.06-.26-.08-.45.2-.6.06-.04.1-.25.1-.37 0-.32.13-.62.34-.86.18-.22.3-.48.37-.76.1-.69.2-1.33.72-1.85.06-.06-.03-.34.03-.48.24-.52.31-1.13.73-1.58.17-.19.23-.54.36-.8.23-.45.26-.96.53-1.42.28-.47.43-1.04.63-1.56l.62-1.59.6-1.57.62-1.58.62-1.58.61-1.59c.14-.36.33-.7.56-1.02a9.2 9.2 0 0 0 1.38-3.5c.03-.1.07-.21.12-.31.53-1.37 1.01-2.76 1.61-4.1.27-.59.62-1.14.84-1.76.14-.4.33-.78.32-1.24 0-.38.41-.76.32-1.24 0-.26.1-.51.26-.71.49-.54.61-1.25.89-1.88.3-.72.59-1.46.85-2.2.14-.37.36-.7.3-1.15-.03-.22.2-.63.4-.86.26-.35.44-.76.52-1.19.2-.87.17-.87.64-1.63.06-.1.1-.2.14-.3.4-1.02.9-2.02 1.16-3.06.22-.84.5-1.68.83-2.5.12-.32.15-.74.52-.91a.6.6 0 0 0 .12-.3c-.02-.8.42-1.48.69-2.19.27-.7.27-1.4.6-2.09.31-.63.53-1.32.8-1.99.39-1.01.63-1.17 1.34-.89.59.23.62.54.42 1.4-.4 1.84-1.27 3.5-1.73 4.93Zm114.34 32.55-37.76 100-26.63-4.87 36.34-90.22 28.05-4.9Z" fill="#141414"/><path d="M308.96 156.44c-.67 1.8-1.25 3.25-1.75 4.72-.08.23-.01.55-.13.84-.44 1.13-.73 2.36-1.32 3.4a13.5 13.5 0 0 0-1.44 3.5c-.29 1.14-.74 2.2-1.1 3.29-.09.4-.28.76-.55 1.06a1.48 1.48 0 0 0-.37 1.23c.02.1-.09.24-.16.35-.06.11-.23.23-.24.34-.03 1.2-.73 2.18-1.04 3.3-.08.27-.3.52-.14.84a.48.48 0 0 1-.13.4c-.21.15-.36.36-.43.6l-1.25 3.33c.11.66-.26 1.21-.48 1.8-.2.42-.42.83-.67 1.23-.22.41-.2.95-.63 1.28-.07.05-.05.24-.1.37-.18.56-.28 1.17-.6 1.65-.15.23-.29.49-.4.75l-3.87 10.27c-.11.3-.26.56-.2.95a1.37 1.37 0 0 1-.38 1.03c-.37.28-.42.7-.57 1.05-.28.67-.5 1.36-.78 2.03-.17.4-.18.9-.63 1.13a.26.26 0 0 0-.06.1.26.26 0 0 0-.02.12c.15.56-.28.9-.49 1.32-.17.33-.26.69-.25 1.06 0 .45-.16.9-.46 1.24-.37.34-.45.77-.6 1.16-.9 2.35-1.8 4.7-2.67 7.06-.4 1.11-.55 2.31-1.08 3.4-.13.25-.12.6-.43.75-.06.03-.12.25-.1.36.09.38-.1.66-.24 1-.64 1.55-1.36 3.1-1.75 4.7-.3 1.26-.82 2.41-1.21 3.61-.14.4-.44.74-.62 1.13a13 13 0 0 0-.45 1.18c-.08.23-.23.44-.14.74a.75.75 0 0 1-.18.61c-.44.36-.52.89-.7 1.36l-1.54 4.06c-.13.33-.14.75-.53.95-.05.03-.03.25-.06.38-.02.14 0 .33-.07.41-.69.75-.83 1.75-1.19 2.64l-.74 1.93-.85 2.24-1.7-.31-.75-.14-.7-.15c-.63-.13-1.23.02-1.85-.11-.62-.13-1.2-.2-1.8-.34-.42-.1-.89-.04-1.23-.4a.67.67 0 0 0-.54-.1c-.53.2-1.02-.05-1.52-.1-.62-.05-1.21-.35-1.87-.16-.17.06-.45-.16-.7-.22-.42-.1-.85-.2-1.28-.25-.2-.04-.42.03-.63 0-1.59-.2-3.19-.41-4.78-.66-1.6-.25-3.22-.58-4.83-.88l-4.14-.76 1.12-2.72c.09-.21.17-.43.24-.66l.08-.25.08-.22c.1-.3.3-.57.56-.76-.01-.61.3-1.02.75-1.38.06-.05.02-.26.04-.4.06-.42-.17-.94.4-1.2.03 0 .03-.06.06-.1.2-.33-.12-.74.3-1.09.28-.22.4-.7.56-1.07.18-.38.33-.76.46-1.16.13-.42.5-.77.34-1.27-.03-.08.3-.29.36-.47.28-.92.93-1.72.92-2.74.01-.27.12-.52.29-.73.57-.66.73-1.43.94-2.26a7.1 7.1 0 0 1 1.49-3.08c.16-.18.27-.26.22-.53 0-.22.06-.43.17-.62l2.73-6.79c.25-.62.77-1.08.92-1.75.06-.28.33-.52.17-.84a.25.25 0 0 1 .04-.2c.6-.64.49-1.57.9-2.27l.31-.43c.12-.13.21-.3.26-.46.1-1.3.86-2.39 1.24-3.6.13-.4.47-.78.3-1.26a.43.43 0 0 1 .13-.3c.65-.53.67-1.4 1.05-2.07.2-.35.16-.84.59-1.04.06-.03.08-.19.1-.29 0-.17.01-.34.05-.5.19-.42.54-.82.6-1.23.06-.5.28-.92.45-1.36.1-.25.34-.45.48-.7.11-.24.21-.48.3-.73.11-.37.26-.72.44-1.06.21-.32 0-.72.38-1.02.28-.22.12-.68.22-1.02.06-.17.15-.34.26-.48.08-.12.22-.2.26-.32.09-.27.25-.5.23-.84-.01-.23.3-.51.43-.79.14-.27.24-.56.35-.85.15-.27.26-.55.34-.85.13-1.25.8-2.33 1.2-3.48.12-.3.15-.68.51-.83a.42.42 0 0 0 .14-.3c.06-1.22.82-2.23 1.15-3.37.24-.81.4-1.63.77-2.42.36-.8.74-1.54.9-2.34.12-.65.32-1.28.6-1.88.31-.56 0-1.35.7-1.74.24-.6.47-1.2.73-1.8.22-.5.31-1.06.78-1.44.18-.2.28-.46.29-.72a3.1 3.1 0 0 1 .7-1.9c.1-.14.03-.39.1-.56.2-.54.39-1.08.64-1.6.75-1.52 1.06-3.2 1.69-4.76.11-.29.03-.7.19-.93.96-1.41 1.25-3.15 2.07-4.6l.1-.2.1-.21.21-.44.4-.85 1.25-.18.98-.15 1.52-.27c1-.2 2.01-.4 3.03-.54.31-.05.69.14.82.04.43-.3.99-.2 1.34-.44.65-.4 1.37-.33 2.03-.53.49-.14 1.05-.04 1.45-.45.1-.06.21-.08.32-.06.79.18 1.43-.4 2.19-.39 1.3-.61 2.77-.6 4.15-.93.2-.06.4-.15.58-.24.1-.04.22-.12.3-.1 1.33.17 2.58-.36 3.88-.48.43-.04.87 0 1.3-.04.43-.03.85-.2 1.3-.03.13.05.37-.03.55-.1.95-.33 1.77.07 1.93.9.06.3-.14.36-.33.5-.36.3-.79.5-1.25.57-.4.05-.84.02-1.12.38-.05.06-.23.08-.32.06-.72-.15-1.42.2-2.07.13-.51-.05-.95.06-1.42.09-.4.02-.77.24-1.2.05-.14-.07-.49.23-.75.28-.64.13-1.28.26-1.91.34-1.95.22-3.78.98-5.73 1.21-1.3.62-2.8.52-4.14.95-1.62.51-3.3.68-4.94 1.07-.3.09-.62.11-.93.08a2.2 2.2 0 0 0-.63-.03l-.71.12-.14.36-.08.18-.1.22c-.18.39-.18.9-.65 1.12a.41.41 0 0 0-.12.3c.06.8-.42 1.42-.66 2.12-.08.28-.23.53-.43.74-.27.3-.42.7-.44 1.1-.02.25-.07.5-.16.74-.27 1-1 1.86-.98 2.95-.55.35-.68 1.01-.8 1.54-.45 2.05-1.46 3.87-2.17 5.81-.17.47-.5.88-.73 1.33-.21.46-.42.98-.6 1.49-.1.27-.34.53-.16.84a.13.13 0 0 1-.01.1c-.18.25-.34.51-.46.8-.08.25 0 .54-.06.82-.07.32-.18.64-.3.94-.12.3-.19.65-.51.8.19.35-.1.63-.2.94-.09.3-.22.57-.33.85l-.38.96c-.13.32-.28.63-.38.95-.14.46-.2.92-.35 1.37-.16.47-.34.93-.56 1.38-.26.55-.58 1.09-.86 1.64-.1.23-.15.48-.13.73.02.37.15.87-.4 1.11-.1.05-.2.34-.2.52-.1 1.38-.94 2.51-1.33 3.8-.57.57-.65 1.3-.86 2.04a12.34 12.34 0 0 1-1.31 3.16c-.62 1.01-.96 2.1-1.44 3.15-.14.3-.17.66-.53.8-.08.04-.16.28-.17.42a5.34 5.34 0 0 1-1.03 2.6c-.28.42-.38 1-.49 1.55-.15.83-.6 1.63-.93 2.44-.47.22-.25.63-.18.86.07.29.05.58-.08.85-.14.37-.35.7-.29 1.16a1.11 1.11 0 0 1-.35.8c-.26.2-.24.33-.23.62 0 .33-.42.52-.55.88-.13.37-.16.92-.64 1.13a.26.26 0 0 0-.07.1.27.27 0 0 0-.02.1c.05.87-.74 1.39-.87 2.17-1.25 2-1.8 4.3-2.81 6.4-.42.87-1.03 1.67-1.23 2.6-.42 1.98-1.4 3.74-2.07 5.6-.15.4-.18.91-.65 1.13a.41.41 0 0 0-.1.14.41.41 0 0 0-.02.17c.06.7-.26 1.23-.7 1.74a.67.67 0 0 0-.16.51c.13.34-.08.59-.2.85-.13.3-.5.65-.45.88.08.5-.29.62-.46.9-.08.2-.14.42-.16.63-.03.1.03.26-.02.3-.53.51-.36 1.29-.73 1.85-.08.12-.13.27-.21.38l-.14.2a.87.87 0 0 1-.06.08l-.05.03a1.88 1.88 0 0 0-.36.39c-.12.19-.19.4-.22.62h.45c-.1.2.13.19.31.16l.25-.03a.2.2 0 0 1 .1.03l.05.04.03.02.05.03c.27.16.58.22.88.17 1.21-.17 2.36.35 3.54.45.25.03.38.35.73.17.14-.07.49.26.75.3.4.06.77.28 1.2.08.18-.09.5.06.76.09.36.02.67.2 1.09.03a1.1 1.1 0 0 1 .86.14c.83.63 1.74.37 2.62.36.23-.02.47.01.7.1.35.17.82.39 1.15.31.56-.15 1.03.04 1.52.12.87.13 1.72.34 2.6.46.98.14 1.93.44 2.97.4a3.82 3.82 0 0 1 1.15.1.9.9 0 0 1 .11.04l.02.01.01.01.07.22c.03.04.04-.17.05-.17h.08l.06-.18.24-.63.3-.72c.1-.27.57-.43.38-.8-.2-.35.5-.44.22-.8-.05-.05.05-.3.14-.4.9-1.24 1.14-2.77 1.76-4.13.15-.32.15-.76.56-.9-.02-.98 1.03-1.67.8-2.7.32-.57.28-1.34.87-1.78.09-.08.08-.32.18-.4.32-.3-.15-.75.3-1.1.27-.19.36-.71.51-1.09.16-.38.27-.7.4-1.07l.45-1.17c.15-.4.32-.78.44-1.18.25-.81.32-1.67.71-2.44a.4.4 0 0 0 .04-.15c0-.06 0-.1-.02-.16-.37-.44.04-.75.28-.97.2-.16.34-.37.43-.6.25-.69.5-1.37.78-2.03.16-.4.17-.88.62-1.15a.9.9 0 0 0 .23-.62c.02-.97.53-1.78.8-2.66.13-.4.3-.79.45-1.18.12-.3.03-.67.33-.9.17-1.59.98-2.98 1.5-4.46.5-1.48 1.07-2.93 1.64-4.39.14-.36.15-.82.59-1.03a.5.5 0 0 0 .14-.4c-.08-.28-.12-.48.2-.63.06-.03.09-.25.08-.37a1.2 1.2 0 0 1 .34-.88c.2-.21.33-.48.38-.77.06-.7.15-1.36.71-1.87.07-.07-.06-.36 0-.5.25-.53.29-1.17.75-1.6.19-.19.24-.55.37-.81.23-.46.22-.98.51-1.44.3-.47.43-1.07.63-1.6l.6-1.6.6-1.61.6-1.61.6-1.6.6-1.62c.13-.37.32-.72.57-1.03.68-.84 1.08-2.03 1.37-3.55.03-.11.07-.22.12-.32.52-1.4.99-2.81 1.6-4.16.26-.6.63-1.16.84-1.78.14-.42.34-.8.3-1.27-.05-.4.42-.77.27-1.28a.96.96 0 0 1 .25-.72c.53-.53.63-1.25.9-1.9.31-.73.6-1.5.85-2.24.13-.37.37-.7.27-1.17-.05-.23.2-.65.4-.88.28-.34.46-.76.53-1.2.17-.9.14-.9.64-1.66.05-.1.1-.2.13-.3.4-1.04.91-2.05 1.14-3.1a18 18 0 0 1 .83-2.51c.12-.33.12-.77.54-.93.06-.02.13-.2.12-.3-.08-.83.38-1.5.65-2.23.27-.72.22-1.44.56-2.13.32-.64.52-1.35.78-2.02.4-1.03.66-1.18 1.51-.86.7.27.76.59.6 1.47-.34 1.87-1.24 3.55-1.69 5Z" fill="#141414"/><g clip-path="url(#clip1_339_7675)"><path d="M44.23 201.98 52 232.5l63.52-30.65-7.3-28.65-64 28.77Zm3.14 106.58c12.44-3.17 20.23-14.73 17.4-25.84-2.83-11.1-15.2-17.55-27.64-14.38-12.43 3.16-20.23 14.73-17.4 25.84 2.83 11.1 15.2 17.55 27.64 14.38Zm61.65-29.18c12.44-3.16 20.23-14.73 17.4-25.84-2.82-11.1-15.2-17.54-27.63-14.38-12.44 3.16-20.23 14.73-17.4 25.84 2.82 11.1 15.2 17.55 27.63 14.38Z" fill="#fff"/><path d="M55.62 274.55c-.78-.6-1.6-1.14-2.47-1.6-.41-.25-.88-.45-1.34-.66a8.64 8.64 0 0 0-1.4-.5c-.7-.23-1.33-.88-2.31-.17-.24.18-.47-.02-.72-.3-.22-.3-.54-.52-.91-.62-.94-.09-1.88-.2-2.83-.23-.47-.04-.95-.03-1.41-.03-.46 0-.95.05-1.42.12-1.84.27-3.57 1-5.25 1.67-.84.3-1.72.56-2.58.88-.85.3-1.61.8-2.22 1.44-.5.52-1.1.92-1.76 1.19a4.9 4.9 0 0 0-1.74 1.15c-.97 1.16-1.85 2.35-3.02 3.27-.85.68-1.74 1.42-2.04 2.45-.18.65.1 1.4-.18 2.04-.07.15-.15.3-.24.44-.08.14-.15.3-.19.46-.09.31-.01.67.46 1.05.09.06-.18.28-.34.39a1.34 1.34 0 0 0-.69.9 1.31 1.31 0 0 0 .25 1.09 1.82 1.82 0 0 1 .4 1.13l.03.36c.05.67.17 1.32.29 1.98a21 21 0 0 0 .45 1.94c.25.98.3 2.06.76 3 .13.25.28.49.46.7l.55.63c.2.2.36.41.52.64.16.22.28.47.35.74.33 1.12 1.16 1.78 2.02 2.4.22.23.46.44.71.64.27.17.62.19 1.11-.15.1-.07.27.06.32.18.39 1.03 1.25 1.34 2.14 1.42.9.09 1.82 0 2.6.38a6.78 6.78 0 0 0 2.64.7c.93.09 1.86.12 2.79.09.24 0 .5.06.75.04a.88.88 0 0 0 .7-.56.54.54 0 0 1 .4-.26.68.68 0 0 1 .49.07c.17.12.35.21.54.29a2.68 2.68 0 0 0 1.07.14c.18-.02.35-.04.53-.08l.51-.13.52-.15.51-.13c.17-.05.35-.09.52-.11.4-.06.8-.16 1.17-.3.39-.12.75-.29 1.13-.43.38-.15.77-.27 1.16-.37a5 5 0 0 1 1.28-.16c.77 0 1.77-.33 1.89-1.64.02-.3.26-.44.54-.6.3-.11.58-.28.81-.5.15-.2.27-.43.35-.67.06-.24.18-.46.35-.64.28-.26.84-.24 1.28-.38a.44.44 0 0 0 .28-.28 6.8 6.8 0 0 1 1.93-2.8c.8-.8 1.62-1.64 1.93-2.74.61-2.17 1.2-4.28 1.35-6.48.08-1.22.24-2.4 1.95-3.78.78-.62 1.7-.92 2.41-.38.54.37.96.88 1.2 1.49.15.46.3.92.44 1.4.13.46.24.94.32 1.42l.15.74.13.76c.1.51.16 1.03.2 1.55.1 1.05-.1 2.11-.59 3.06-.3.58-.08 1.48-1.09 1.69a.45.45 0 0 0-.3.38 6.33 6.33 0 0 1-1.2 4.07c-.8 1.2-1.8 2.22-2.68 3.31-.73.94-1.36 1.96-2.1 2.94-.7 1-1.65 1.81-2.75 2.36-.48 1.66-2.04 2.37-3.42 2.7-2.44.56-4.68 1.3-7 1.89a26 26 0 0 1-10.72.8 35.42 35.42 0 0 1-3.63-.63 25.53 25.53 0 0 1-6.88-2.59 7.2 7.2 0 0 0-1.19-.39 1.77 1.77 0 0 1-1.07-.8c-.3-.45-.68-.82-1.14-1.1-.47-.29-.93-.61-1.37-.96-.37-.34-.8-.63-1.17-.98a3.3 3.3 0 0 1-.93-1.16c-.86-1.83-1.83-3.48-2.7-5.21A19.09 19.09 0 0 1 14.3 294c-.3-1.9-.37-3.83-.2-5.75.15-1.9.48-3.79.97-5.64.28-1.13.58-2.27.97-3.38.4-1.13.97-2.18 1.72-3.1.34-.39.54-.88.85-1.3a1.8 1.8 0 0 1 1.43-.77c.2 0 .3-.31.42-.68a3 3 0 0 1 .45-1.02 21.9 21.9 0 0 1 3.64-3.13c.9-.64 1.84-1.23 2.81-1.76.98-.53 1.95-1.04 2.95-1.51 1.2-.6 2.33-1.44 3.62-1.93a15.5 15.5 0 0 1 4.2-.92c1.82-.14 3.65.12 5.43.25.92.08 1.87.05 2.83.1.92.04 1.83.25 2.66.64 1.52.77 3.03 1.34 4.54 1.96 1.53.59 3 1.33 4.36 2.22 2.7 1.89 5.07 4.2 7.03 6.84.27.37.5.78.66 1.22.16.41.29.85.38 1.29l.15.65c.06.22.08.45.13.66.1.43.2.86.33 1.29.13.42-.34 1.05-.98 1.55-.63.5-1.43.87-1.9.83a.84.84 0 0 1-.46-.17c-.3-.29-.6-.56-.94-.8l-.98-.7a4.7 4.7 0 0 1-.44-.34 3.4 3.4 0 0 1-1.04-1.2 14.33 14.33 0 0 0-4.28-4.86Zm62.7-29.15a18.2 18.2 0 0 0-3.8-2.27c-.46-.2-.93-.37-1.42-.5-.69-.22-1.32-.87-2.3-.17-.24.18-.47-.02-.72-.3-.23-.3-.55-.52-.91-.62-.95-.08-1.88-.2-2.83-.23-.48-.04-.95-.02-1.42-.02-.48.01-.95.05-1.43.12-1.84.27-3.57 1-5.25 1.66-.84.31-1.71.57-2.56.88-.85.3-1.61.8-2.22 1.44-.5.52-1.1.92-1.76 1.19-.66.25-1.25.65-1.74 1.15-.97 1.16-1.85 2.35-3.02 3.28-.85.67-1.74 1.41-2.03 2.44-.19.66.09 1.41-.19 2.04-.07.15-.15.3-.24.44-.08.14-.14.3-.19.46-.09.32 0 .67.47 1.05.08.06-.19.28-.35.4a1.34 1.34 0 0 0-.69.89 1.3 1.3 0 0 0 .26 1.09 1.86 1.86 0 0 1 .39 1.13l.03.36c.05.68.17 1.32.29 1.98a21 21 0 0 0 .45 1.94c.25.98.3 2.06.77 3.01.12.25.27.48.45.7l.55.62c.2.2.36.41.52.64.16.22.28.47.35.74.33 1.12 1.16 1.79 2.02 2.41.22.22.46.44.71.63.27.17.62.2 1.11-.15.1-.06.27.06.32.19.39 1.02 1.25 1.33 2.14 1.42.9.08 1.81 0 2.6.37a7.02 7.02 0 0 0 2.64.71c.92.08 1.85.1 2.77.07.25 0 .5.07.75.05a.87.87 0 0 0 .7-.57.53.53 0 0 1 .4-.25.68.68 0 0 1 .5.07c.16.11.34.2.53.28a3.08 3.08 0 0 0 1.6.06l.52-.13.51-.15.52-.13a3 3 0 0 1 .52-.11c.4-.06.79-.16 1.17-.3.38-.12.75-.29 1.13-.43.37-.15.76-.27 1.15-.37.42-.1.86-.16 1.3-.16.76 0 1.75-.33 1.87-1.63.03-.3.27-.45.55-.6.3-.12.57-.29.8-.5.17-.2.28-.43.36-.68.06-.23.18-.45.35-.64.28-.26.84-.24 1.27-.38a.45.45 0 0 0 .28-.28 6.8 6.8 0 0 1 1.93-2.79c.8-.8 1.63-1.65 1.94-2.74.61-2.18 1.2-4.28 1.35-6.48a4.54 4.54 0 0 1 1.95-3.79c.78-.62 1.7-.91 2.41-.37.54.36.96.88 1.2 1.48.14.46.3.92.44 1.4.13.47.25.94.32 1.42l.15.75.13.75c.1.52.16 1.03.2 1.55.1 1.06-.1 2.12-.59 3.06-.3.58-.08 1.49-1.1 1.69a.44.44 0 0 0-.28.38 6.35 6.35 0 0 1-1.21 4.09c-.8 1.2-1.8 2.22-2.67 3.3-.74.95-1.37 1.97-2.1 2.94-.7 1-1.65 1.81-2.75 2.36-.49 1.66-2.05 2.37-3.42 2.7-2.44.56-4.68 1.3-7 1.9a26.01 26.01 0 0 1-10.72.79 35.25 35.25 0 0 1-3.61-.62 26.3 26.3 0 0 1-6.88-2.58c-.38-.17-.78-.3-1.19-.4a1.74 1.74 0 0 1-1.07-.8 3.5 3.5 0 0 0-1.14-1.09c-.47-.3-.93-.62-1.37-.97-.37-.34-.8-.63-1.17-.98a3.3 3.3 0 0 1-.92-1.17c-.87-1.84-1.84-3.47-2.73-5.2a19.08 19.08 0 0 1-1.95-5.45c-.3-1.9-.37-3.84-.2-5.76.15-1.9.47-3.8.97-5.64.28-1.13.58-2.27.97-3.39s.96-2.17 1.7-3.1c.34-.37.54-.87.86-1.28a1.78 1.78 0 0 1 1.44-.78c.2 0 .3-.3.4-.68.1-.36.24-.7.45-1.02a22.03 22.03 0 0 1 3.63-3.13c.9-.64 1.85-1.23 2.82-1.77a67.6 67.6 0 0 1 2.94-1.51c1.2-.6 2.33-1.44 3.62-1.92a15.4 15.4 0 0 1 4.2-.92c1.83-.15 3.65.11 5.43.24.92.08 1.88.05 2.83.11.93.03 1.85.24 2.7.64 1.51.77 3.02 1.34 4.53 1.96 1.53.58 3 1.33 4.36 2.22 2.7 1.89 5.07 4.2 7.02 6.83.28.38.5.79.67 1.22.16.42.29.85.38 1.3l.15.65.13.66c.1.43.2.86.35 1.3.15.44-.34 1.05-.98 1.55-.63.5-1.43.87-1.89.83a.8.8 0 0 1-.47-.16c-.3-.3-.6-.56-.94-.8-.33-.25-.66-.48-.98-.7a5.1 5.1 0 0 1-.44-.34 3.48 3.48 0 0 1-1.05-1.2 14.64 14.64 0 0 0-4.3-4.88Z" fill="#141414"/><path d="M50.02 211.4c.32 1.26.57 2.53 1 3.76.15.45-.17 1.04.86 1.3.51.13-.45.85-.3 1.27.43 1.14.56 2.35.97 3.5.4 1.14 1.05 2.15 1.44 3.25.4 1.1.19 2.38 1.01 3.34.71.82.08 1.88.51 2.73.46.9.85 1.86.68 2.89-.12.75-.31 1.52.04 2.15.22.4.87.65.94 1.12.08.47-.26 1.04.9 1.14.1.01-.05.25-.17.39-.57.64-.4 1.2.19 1.46.58.26.58.6.7.95.32.94.56 1.9.72 2.88.1.74-.1 1.56-.03 2.3.08.75.77 1.46.44 2.28-.34.82-.14 1.48.03 2.16.1.39-.28.97.88 1.01.1 0 .13.15.06.24-1.12 1.46 1 2.08.93 3.29-.06 1.2.5 2.36.83 3.52.09.33-.13.73.71.81.07 0 .13.02.19.05a.34.34 0 0 1 .15.34.34.34 0 0 1-.08.17c-.84 1.13.04 1.88.08 2.81.06 1.06.8 1.95.24 3.18-.24.52-.28 1.16.85 1.42.51.13.18.73.38 1.08.17.28.7.46.79.76.09.3-.26.61-.38.92a.2.2 0 0 0 .06.25c1.5 1.19.37 3.02 1.06 4.45.68 1.43.94 2.96 1.17 4.5.12.86.02 1.79-1.77 2.84-.8.48-1.74.71-2.38.5a2.2 2.2 0 0 1-1.1-.62c-.29-.43-.64-.85-.92-1.26-.57-.88-1.7-1.6-1.48-2.71.07-.35-.53-.58.26-1.05.11-.07.14-.21.07-.26-1.68-.97-1.15-2.57-1.59-3.9-.37-1.11-1.72-1.95-1.55-3.22-1.23-.38-1.23-1.16-1.07-1.88.55-2.55-.79-4.63-1.2-6.93-.43-2.3-1.18-4.6-1.7-6.91-.1-.4-.78-.58-.43-1.16.35-.57-.15-1-.28-1.5-.13-.52-.47-.9-.31-1.4.66-2.07-.48-3.72-.82-5.55a25.56 25.56 0 0 0-1.41-5.38c-.45-1.05-1.31-1.99-1.37-3.15-.02-.5-.73-.85.16-1.56.25-.2-.63-.44-.74-.74-.25-.74-.45-1.49-.6-2.25-.27-1.04-.46-2.1-.83-3.12-.23-.64-.8-1.15-1.06-1.76a6.73 6.73 0 0 1-.51-2c-.1-.88.05-1.81-.06-2.68-.11-.87-.81-1.7-.56-2.65.46-1.78-.37-3.23-.66-4.8a23.93 23.93 0 0 0-1.22-4.63c-.34-.85.3-1.86.08-2.72-.1-.4 2.25-1.57 3.14-1.62.15-.02.3 0 .44.06 1 .64 2.42 1.1 2.58 2.08.23 1.44.68 2.85 1.04 4.27Zm7.64-17.75c2.2-1.03 4.42-2 6.57-3.12.8-.42 1.83-.4 2.28-1.63.23-.61 1.49.01 2.22-.39 2-1.07 4.12-1.88 6.12-2.94 1.95-1.03 3.77-2.3 5.71-3.33 1.95-1.04 4.17-1.52 5.85-2.91 1.44-1.21 3.29-1.13 4.78-2.05a16.63 16.63 0 0 1 5.06-2.31c1.33-.3 2.67-.5 3.76-1.23.18-.12.34-.26.49-.41l.05-.06a.37.37 0 0 1 .08-.06l.22-.16.45-.34c.62-.48 1.3-.9 2.03-1.23.7-.31 1.42-.5 2.13-.85a6.9 6.9 0 0 0 2.26-1.85c.15-.17.73-.23.98-.18.38.06.77.05 1.14-.05a5.73 5.73 0 0 0 1.05 3.07c.36.47.63 1 .8 1.56.2.6.35 1.24.52 1.87l1.16 4.28c.22.9.45 1.78.61 2.7.26 1.35.2 2.77.44 4.13.25 1.42 1.1 2.79.92 4.2-.19 1.41.16 2.64.48 3.9.18.73-.1 1.7 1.13 2 .11.04.17.31.11.46-.87 2.4 1.47 3.95 1.65 6.11.2 2.23 1 4.36 1.6 6.53.15.58 0 1.27.91 1.61.32.12.5.72.39 1.06-.66 1.88.42 3.4.66 5.1.27 1.92 1.25 3.67.9 5.77-.14.9-.06 2.03 1.18 2.74.57.32.34 1.36.63 2.02.23.55.82.98.98 1.53.12.47-.14 1.05-.21 1.58-.02.16.02.33.12.46 1.82 2.46 1.01 5.57 2.02 8.25 1 2.68 1.6 5.54 2.15 8.36.3 1.56.39 3.22-1.28 4.76-.75.7-1.68.93-2.4.42a3.9 3.9 0 0 1-1.3-1.35c-.38-.84-.84-1.66-1.21-2.47-.78-1.69-2.12-3.22-2.12-5.19 0-.6-.67-1.15.06-1.84a.37.37 0 0 0 .02-.44c-1.96-2.11-1.72-4.88-2.46-7.35-.62-2.1-2.21-3.89-2.3-6.15-1.36-.9-1.53-2.34-1.5-3.6.06-4.5-1.78-8.51-2.7-12.75-.92-4.3-2.16-8.53-3.18-12.81-.19-.73-.94-1.2-.7-2.17.25-.91-.36-1.86-.6-2.79-.22-.85-.67-1.7-.61-2.56.27-3.62-1.26-6.82-2-10.2-.32-1.42-.26-1.38-.36-1.85a9.67 9.67 0 0 0-.28-1.1c-.38.2-.75.43-1.09.7-.14.1-.26.23-.36.38l-.07.1-.02.02-.08.05-.17.11-.66.44c-.89.6-1.84 1.09-2.83 1.46-.87.3-1.48 1.23-2.73.7-.36-.16-.79.9-1.3 1.19-1.28.7-2.62 1.26-3.94 1.88-1.83.85-3.7 1.63-5.48 2.6-1.09.57-2 1.47-3.08 2.09-1.12.64-2.29 1.2-3.5 1.65-1.53.58-3.16.94-4.68 1.54-1.6.63-2.98 1.8-4.64 2.06-3.1.48-5.64 2.16-8.4 3.35a83.75 83.75 0 0 0-8.1 3.84c-1.5.83-3.26.7-4.76 1.4-.7.34-2.73-1.52-2.81-2.44a.78.78 0 0 1 .11-.5c1.12-1.4 1.94-3.18 3.66-3.89 2.53-1.07 4.98-2.32 7.47-3.48Z" fill="#141414"/><path d="M110.84 207.72c-.86.4-1.74.75-2.57 1.2-.31.18-.77.05-.84.76-.04.36-.66-.18-.94 0-.76.44-1.61.7-2.39 1.14-.77.43-1.42 1-2.17 1.43-.75.42-1.68.47-2.27 1.15-.51.59-1.33.34-1.9.74-.56.47-1.26.76-1.99.85-.55.03-1.12.02-1.53.35-.25.2-.37.66-.7.78-.33.12-.77-.02-.72.75.02.06-.18 0-.29-.05-.52-.28-.89-.08-1.02.33a.91.91 0 0 1-.6.6c-.64.35-1.3.65-1.99.9-.51.18-1.12.16-1.64.32-.52.16-.96.72-1.58.62a2.52 2.52 0 0 0-1.54.34c-.26.12-.7-.04-.62.72.01.07-.1.11-.17.08-1.16-.52-1.38.96-2.24 1.1-.87.13-1.64.66-2.43 1.05-.21.1-.53.02-.5.59a.27.27 0 0 1-.37.25c-.9-.39-1.33.3-2 .47-.74.19-1.3.81-2.23.62-.4-.08-.86-.01-.93.76-.03.36-.5.23-.73.41-.18.15-.25.53-.45.63-.2.1-.47-.08-.7-.11a.17.17 0 0 0-.17.08c-.7 1.16-2.13.69-3.07 1.34-.95.62-2 1.1-3.09 1.43-.59.2-1.26.28-2.2-.74-.42-.46-.7-1.04-.6-1.49.02-.3.13-.58.32-.81.29-.25.54-.54.8-.79.58-.49.96-1.35 1.78-1.37.26 0 .36-.44.78.02.06.06.17.06.19 0 .52-1.24 1.71-1.13 2.6-1.6.77-.41 1.23-1.42 2.15-1.5.13-.86.7-.98 1.23-.98 1.87 0 3.2-1.19 4.8-1.8 1.6-.63 3.15-1.45 4.75-2.13.27-.12.33-.6.78-.45.45.14.7-.25 1.05-.4.34-.17.59-.45.95-.41 1.55.12 2.58-.86 3.86-1.33a21.09 21.09 0 0 0 3.69-1.73c.7-.44 1.28-1.15 2.1-1.36.36-.09.53-.6 1.14-.12.17.13.25-.48.45-.6.5-.27 1.01-.51 1.53-.73.72-.33 1.46-.61 2.15-1 .42-.24.73-.7 1.14-.96a5.6 5.6 0 0 1 1.37-.63c.62-.19 1.3-.23 1.9-.43.61-.2 1.13-.78 1.84-.76 1.31.05 2.27-.72 3.35-1.14 1.1-.4 2.17-.9 3.17-1.48.57-.35 1.36-.07 1.95-.35.27-.13 1.36 1.25 1.48 1.82.03.1.03.2 0 .3-.35.75-.52 1.75-1.21 2-.99.37-1.94.88-2.91 1.32Z" fill="#141414"/></g><path d="M105.54 133.25c1.33-8 3.03-15.84 3.72-23.92 5.7-3.15 10.85-7.29 16.22-11.05 4.65-3.75 11.77-7.08 11.28-14.04a7.97 7.97 0 0 0-2.14-5.05c-2.58-3.02-4.13-6.28-6.46-9.29-5.61-6.8-9.16-14.65-15.12-21.12-1.01-1.5-1.94-3.33-3.45-4.17-.73-1.02-1.23-2.88-2.12-3.93-2.82-3.22-7.83-4.6-11.78-2.66-5.83 3.23-11.5 7.74-17.01 11.28-4.24 2.5-8.46 5.2-11.83 8.51-4.4 1.93-7.38 5.64-11.4 8.21a184.43 184.43 0 0 0-17.18 12.65c-7.15 3.7-13.04 9.52-20.2 13.36-2.45.97-3 3.39-3.5 5.7-.63 1.56-.24 3.25.35 4.7.3 1.04.28 2.3 1.04 3.1 4.25 4.62 6.97 10.27 10.77 15.2 4.96 7.52 12.89 15.47 15.11 24.12.69 6.14-14.73-14.92-15.46-16.09-.65-1.12-1.86-2.13-1.95-3.36a2.32 2.32 0 0 0-.48-.81c-4.63-4.59-7.7-10.67-11.78-15.73-.8-1.06-1.7-2.25-2.2-3.52-2.7-5.96-.7-14.73 5.42-17.98 8.3-4.9 15.82-10.92 23.71-16.39C54.95 59.9 70.35 48.36 86.59 37.82c6.13-5.14 13-8.57 20.54-3.95a14.84 14.84 0 0 1 4.2 3.98c4.3 6.34 9.34 12.12 13.75 18.45 1.07 1.64 2.64 3.11 3.2 5.12 2.6 2.9 5.63 7.09 7.94 10.48 1.04 1.67 2.94 3.92 3.88 5.6 3.52 5.9 2.54 14.33-2.74 18.95-7.47 5.5-15.42 10.34-22.9 15.82l-.3.06c-2.3 8.83-3.28 18.08-5.08 27.05-8.26-1.33-16.63-2.53-24.75-4.48-1.65-.28-3.6-2.4-2.83-2.9 3.79-.38 7.43-.38 11.7.24 3.93.7 8.27 1.41 12.25 2.04l.15-1.02h-.06Z" fill="#141414"/><path d="M101.52 135.84c-4.79-1.37-13.55-3.7-18.47-2.06-2.54.85-11.3 4.83-18.62 8.21l-8.06 5.06-6.16 3.16c-4.02.17-9.15-4.32-10.26-8.22-7.53-9.57-23.4-29.55-26.69-32.84-3.28-3.28-1.37-12.31 0-16.42l86.2-59.52c2.06.69 9.45 6.57 22.59 24.63 13.13 18.06 16.42 28.05 16.42 30.79-8.9 6.84-26.69 20.94-26.69 22.58 0 1.64-2.73 17.1-4.1 24.63h-6.16Z" fill="#fff"/><path d="M65.21 138.25c.39-.22 1.04-.3 1.51-.5 2-.87 2.8-1.08 4.62-1.82 2.69-1.12 10.6-4.84 11.27-3.47v.04c.06.26-.57.8-.56 1.11 0 .32.77 2.09-.13 2.57-1.3.67-4.82 1.68-5.55 2.03-.5.24-1.04.67-1.67.99-2.03 1.02-3.16 1.4-4.83 2.68l-2.54.34c-.65.39-1.63.7-2.36.94l.15-.08c-.3.14-.56.27-.72.38-.45.3-.6.63-1.07.94-.52.34-1.45.66-2.4 1.3-1.54 1.02-1.55 1.64-2.46 2.29-.3.21-.68.43-1.1.67l-.14.08c-.9.4-1.97.85-2.8 1.42l-.42.4.53.16c-.63.4-1.04.3-1.65.62-.72.36-.97.77-1.45 1.01l-.1.05-1.03.27c-.64 0-1.38-.23-2.06-.36-1.06-.23-.9.09-1.48-.04-.33.06-3.94-1.8-4.04-2.03-1.35-1.06-1.16-1.46-2.05-2.44-1.23-1.45-2.43-3-3.15-5.12l.44.87c-1-1.14-1.99-2.23-2.9-3.3a42.79 42.79 0 0 1-2.43-3.12c2.06.97-.13-3.07-.32-.75-.72-1.28-1.7-1.81-2.5-2.93-.5-.72-.72-1.34-1.51-2.32-1.4-1.75-3.43-3.27-2.95-4.48-1.8-1.93-2.92-3.97-4.3-4.07-.47-.5-1.1-2.22-1.52-2.86-.39-.6-3.7-5.04-4.27-5.73a26.4 26.4 0 0 0-2.13-2.39c-.44-.4-1.06-.46-1.48-.84a2.72 2.72 0 0 1-.81-2.14c-1.09-2.25-1.02-3.1-1-5.12.02-.36.2-.4.2-.61 0-.43-.11-1.16-.07-1.92.08-1.25.58-1.88-.02-1.83.02-.82.06-1.64.13-2.47a39 39 0 0 1 .5-.76l-.04-1.36c.66.7 1.02-2.36.29-1.55l.4-.94.25-.7.56-.37 3.18-1.7c.36.9 2.78-1.79 2.24-2.04l.43-.3c1.39-.65 2.41-1.6 4.02-2.5 1.61-.92 1.52-.74 2.23-.7l1.03-.8c1.19-2.28 2.04-.34 4.72-3.3 1.45-.1 3.74-2.16 5.29-3.5.18-.16.1-.28.33-.5.57-.53 2.3-1.49 1.97-1.84L39.4 73l1.23-1.16-.26-.36c1.2-.22 2.54-1.38 3.33-1.77.15-.08.3.07.77-.2.55-.3 1.48-1 2.13-1.38l.34-1.05c1.03-.86 1.75-.64 2.42-1.05a131 131 0 0 0 2.33-1.66c.88-.73.33-.96 3.1-2.74.49-.32.98-.45 1.42-.74.77-.52 2.87-2.45 2.84-2.88 1.2-.26 3.58-2.14 4.4-2.54.24-.12.46.09 1.17-.33.59-.35 1.88-1.52 2.6-1.97.77-.48 1.18-.46 1.52-.68.33-.2.5-.57.93-.86 1.35-.92 2.74-1.5 3.8-2.23 1.55-1.05 2.57-2.47 3.7-3.57.34-.19.73-.3 1.06-.53 4.14-2.83 8.86-5.96 13.07-8.72 1.96-1.28 7.2-3.92 5.16-4.14.17-.2.82-.65 1.66-1.18l1.02-.68 1.08.39c3 1.4 4.59 3.6 5.28 4.15.86.8 1.68 1.27 2.32 1.9 1.94 1.95 3.1 3.47 5.42 5.83.58.6 1.4 1.12 1.71 1.51.4.48.58 1.14 1.08 1.77 1.16 1.47 3.36 4.14 4.4 5.6.2.26.07.5.29.91.86 1.63 2.08 3.25 2.48 2.5.23.47.48.9.75 1.33.97 1.5 2.13 2.7 3.12 4.1 2.68 3.7 6.96 10.9 9.09 14.35 1.35 2.18 1.68 1.95 2.96 5.57a32.55 32.55 0 0 1 1.67 8.15l-.01 1.18-.9.66c-.35.33-.7.73-.93 1.16-2.15 1.41-3.65 2.77-5.55 3.43l-.24.79-.73.59-.5-.17c-1.8 1.36-3.63 3.61-5.1 4.8-2.49 1.98-8.96 7.03-11.19 8.9-1.18.97-1 1.27-2.01 1.4-.07.12-.16.26-.19.34 0 .04-.02.09 0 .08 0-.01.08-.03.15-.43l.02-.15c.07.18.13.36.19.48.05.15.1.27.17.4-.27 2.21-.89 4.52-1.2 6.48-.59 3.56-1.13 8.92-2.02 12.42-.22.88-.71 1.94-.86 2.8-.19 1.03.06 1.48.01 2.45l-.37 1.89-1.85-.03c-.24.03-.5.05-.83.05-1.39.01-3.36-.13-5.33-.26l-.56-.08a42.54 42.54 0 0 0-5.04-1.58c-.75-.16-1.14-.05-1.66-.14-2.17-.36-3.97-.65-6-.47-2.1-.54-1.95-1.08-2.69-1.66-.53-.45-2.46-1.16-2.9-1.4-.28-.21.34-.79-.03-1 3.33-1.1 4.67-.58 7.05 0 4.29.37 8.36 1.4 12.33 2.51l-.5-.07h.4l1.16.52c1.62.2 2.3-.25 3.18-.35l1.42-.14-1.78 1.48c.57-6.38 2.78-16.7 3.96-24.3.01-.64.25-1 .3-1.13l.27-.43a15.62 15.62 0 0 1 1.25-1.4c.52-.5 1.05-.98 1.53-1.41 1-.88 1.93-1.67 2.79-2.4 1.53-1.32 6.38-5.63 7.63-6.26.32-.17.57-.03.87-.25a695 695 0 0 1 7.6-6.66 153.4 153.4 0 0 0 5.38-3.92l-.63 1.28c-.43-3.83-2.96-8.44-5.13-12.42A160.74 160.74 0 0 0 120.43 59c-6.6-8.69-13.97-18.6-21.64-23.78l1.89-.27-1.23.85c-2.95 2.02-6.57 4.76-9.53 6.64-1.23.79-1.97.79-3.37 2.14l-.24-.25c-1.3 1.06-2.04 1.89-3.57 2.98-1.29.91-4.72 3.3-5.9 4.06-.6.4-.5.07-1.06.45-.95.66-2.81 2.3-4.13 3.22-1.19.82-3.33 2-4.23 2.66-3.22 2.38-6.6 5.16-10.17 7.5-.98.65-2.39 1.28-2.69 1.5-.58.42-.6.76-.98 1.07-1.93 1.54-5.27 3.46-7.26 4.82-6.49 4.43-13.27 9.25-19.74 13.66-3.27 2.23-8.26 5.7-12.1 8.24l.82-1.09a52.5 52.5 0 0 0-.88 2.76c-.26.9-.49.6-.65 1.37-.17.86-.05 1.36-.1 1.76-.33 2.2-.24 7.32 1.08 8.36.54.56.9 1 1.21 1.4.32.43.43.9.63 1.13.1.12.48.32.8.69 3.04 3.36 5.02 5.95 7.75 9.4 5.06 6.42 11.14 13.63 16.37 20.49l.34.68c.05.17.1.36.18.54.52 1.37 1 2.57 1.15 2.76.35.4.8.46 1.63 1.1 1.5 1.18 3.65 2.46 5.31 2.42l-.8.2c1.84-.9 3.63-1.79 5.1-2.62.33-.18.67-.39 1.02-.6l-.15.08c1.35-1.02 2.87-2.28 4.09-3.13.85-.59 2.6-1.6 3.72-2.34l.28-.15c.51-.24.91-.45 1.07-.58.32-.26.35-.64.76-.88Zm-37.54-8.34c.58-.12-1.49-2-1.07-1.02.1.23.92 1.06 1.07 1.02ZM84.3 42.25l-.33-.34-.78.78.66-.12.45-.32Z" fill="#000"/><circle cx="48.15" cy="107.1" r="8.21" fill="#141414"/><path d="M58.38 107.71c.03.37-.08.84-.22 1.17-.05.1-.14.03-.18.1-.07.14-.04.29-.13.42-.02.04-.18-.06-.2-.01-.14.25-.17.5-.29.75a11.57 11.57 0 0 1-2.27 3.26c-.3.3-.8.55-1.1.88-.03.04.1.14.1.15-.01.25-.16-.02-.27 0-.41.13-.78.36-1.08.6-.13.1.16.28-.07.22-.01 0-.05-.17-.1-.16-.1.01-.26.13-.34.15l-.3.12c-.17.07-.41.09-.6.2-.03.02.08.15.02.2a.52.52 0 0 1-.31.09c-.08-.02-.1-.15-.11-.18-.16-.2-.26.18-.3.2-.45.28-.93.17-1.4.23-.35.04-.73.13-1.08.12-.42-.01-.76-.13-1.15-.16-.04 0-.02.2-.07.2-.55-.06-1.1-.2-1.58-.5-.05-.03.07-.17.03-.2-.28-.24-.59-.73-1.08-.15-.2-.12-.43-.27-.53-.5-.06-.15.14-.25-.04-.26-.03 0-.08.16-.13.15-.22-.06-.4-.24-.63-.3-.05-.02-.12.11-.15.13-.22.1-.16-.3-.17-.33-.12-.34-.33-.42-.53-.6-.05-.05-.13.14-.18.1a2.2 2.2 0 0 1-.63-.75c-.03-.07.14-.13.13-.17-.03-.16-.3.02-.33-.14-.01-.03.11-.1.12-.12.14-.22-.18-.06-.2-.07-.25-.16-.06-.52-.24-.7-.02-.03-.14.13-.19.06a3.51 3.51 0 0 1-.68-1.68c-.02-.1.13-.08.15-.1.21-.17-.14-.1-.16-.13-.17-.19.05-.47-.39-.52-.1-.8-.33-1.58-.2-2.38.04-.2.1-.38.18-.57 0-.01.18.02.19 0 .11-.28-.16-.25-.46-.48-.07-.06.34-.16.37-.17.1-.03.36.05.38.04.18-.1-.66-.21-.63-.4 0 0 .15.05.17.04.05-.04 0-.1.06-.13.15-.09.55-.03.36-.24-.03-.02-.5-.1-.44-.26.02-.06.09-.34.14-.41.06-.07.19.03.2.03.26-.15.31-.04.63-.05.32 0-.37-.2-.43-.27s.15-.16.22-.17c.07-.01.14.07.19.05.28-.12-.3-.22-.38-.34-.18-.27.37-.18.48-.3.03-.03-.1-.05-.09-.09.03-.16.22-.16.17-.38-.01-.04-.22-.32.03-.29.04.01.13.1.2.07.08-.06.2-.2.21-.3.02-.08-.21-.13-.1-.17.05-.02.1.11.2.07.07-.04.18-.2.23-.27.04-.06-.12-.13-.12-.14a.51.51 0 0 1 0-.25c.42-.55 1.05-.8 1.49-1.27.04-.04-.1-.15-.1-.16.1-.17.28.28.47.33-.23-.27-.14-.26-.06-.37.03-.05-.08-.14-.08-.15-.05-.22.16-.04.2 0 .17.13.08-.1.2-.02.1.1.14.3.23.24-.04-.12-.3-.35-.26-.44.18-.37.88-.46 1.13-.54.26-.1.33-.15.5-.16.3-.03.1-.22.24-.39.14-.17.25.44.31.55.07.12.05-.02.1.04s.02.17.09.17c.07 0 .18-.27.17-.4-.02-.3-.2-.57.03-.52.01 0 .02.17.06.17.36.04.7-.02 1.04.04.05.01.03.2.06.2.28.08.15-.2.27-.55 0 .45.11.7.31.7.12 0 .09-.2.16-.34.03-.04.12.09.13 0 .05-.3-.04-.63.18-.5v.15c0 .02.01.02.02.03.21.06.24-.25.49-.27.2-.02.51.2.71.26-.07.49.13.4.27.08.13.04.28.05.4.12.04.03-.02.16-.02.18.03.26.16-.06.2-.06.33-.05.5.27.87.14.01 0 .15-.33.14-.06 0 .02-.15.13-.03.2.14.05.3.33.55.26.06-.01.3-.21.28.03 0 .03-.06.11-.07.17-.02.18.17-.11.09.18-.08.3-.07.56.2.47 0 0 .18-.21.23-.18.08.06.16.18.25.24.04.02.1-.14.12-.14.32.11.42.38.64.65.04.05.34 0 .3.22-.03.24-.7.76-.37.81.13.02 1.02-.6.76-.06.4.24.4.72.8.97.01.01.3-.1.32-.05.03.06-.07.17-.05.21.07.2.26.3.34.5.02.07-.12.1-.09.19.03.08.23.06.2.2-.03.12-.35.35-.35.47.35-.13.38-.06.52.05.03.02.15-.05.17-.05.08.03 0 .12.08.14.02.01.15-.03.17-.03.21.03-.02.27-.06.3-.16.15.01.15-.04.24-.06.1-.18.01-.2.1-.05.2.02.4.05.58 0 .07.17 0 .18 0 .07.14-.1.31.26.35-.88.22.1.08-.05.31-.02.02-.44.08-.5.03-.07-.05.05-.16-.06-.23-.03-.02-.44-.07-.46-.08-.2-.08.42-.2.45-.22.36-.14-.1-.2-.13-.23-.16-.14-.11-.3-.24-.4-.09-.07-.49.03-.5-.03-.02-.22.5-.5-.04-.52-.12 0-.53.2-.25-.08.02-.01.27-.25.06-.23l-.17.05c-.1-.04-.02-.13-.1-.18-.08-.06-.19-.1-.19-.21 0-.06.18-.24.22-.3.12-.15-.17-.08-.02-.23.16-.15.5-.22.54-.42l-.91.52c-.13-.23-.19-.52-.37-.73-.02-.03-.15.12-.18.1-.11-.1-.1-.3-.24-.38-.11-.06-.35-.02-.47-.07.23-.33 0-.37-.08-.49-.03-.04.05-.12.04-.17-.02-.18-.2.13-.26.14-.26.1.23-.53.07-.63l-.39.27c-.18.08.07-.13.04-.2-.06-.1-.08-.24-.26-.21-.06 0-.27.18-.23-.04 0-.02.08-.14.07-.15-.06-.2-.28.18-.43.27-.14.09-.1-.23-.1-.33.05-.23.1-.06.11-.07.17-.22.06-.22 0-.28.18-.38.07-.41-.06-.05-.02.04.05.03.06.05-.25.35-.36.35-.32-.06.02-.19.16-.36-.05-.37-.09 0-.17.29-.27.34-.22.1-.32-.22-.5-.23-.07 0-.06.16-.1.17-.12 0-.18-.13-.3-.1-.01 0-.03.17-.07.17-.24-.05-.44-.2-.7-.24-.14-.02-.38.05-.5.02-.16-.03-.32-.14-.49-.2-.08-.03-.17-.05-.24-.03-.13.05-.1.22-.14.33-.1.23-.3-.15-.34-.2 0-.01.1-.06.04-.14-.06-.18-.04.13-.04.13-.02-.04-.26-.05-.3-.01-.02.02.02.18 0 .19-.26.18-.53.28-.83.29l-.06-.18c-.2-.03-.24.22-.32.39-.1.16-.2.16-.4-.09-.08.08-.28.02-.4-.02-.12-.03.02.28.02.3-.12.3-.33.19-.56.3a1.3 1.3 0 0 0-.36.32c-.07.09-.16.06-.2.16l.1.13c.03.21-.17-.12-.23-.16-.21-.14-.34-.2-.37-.03-.01.04.28.52.27.57-.03.08-.14-.08-.17 0 0 .01.09.1.05.13-.17.12-.38.24-.52.42-.01.03.16.12.13.16a1.4 1.4 0 0 1-.43.44c-.05.02-.14-.08-.18-.09-.24-.08 0 .2 0 .21-.05.39-.46.48-.48.89 0 .02.28.3-.04.25-.02 0-.35-.07-.17.07.02.01.19.03.15.1-.05.06.02.2-.18.24-.07.01-.41 0-.19.16.02.02.55.31.15.26-.07-.01-.5-.12-.3.05.03.03.14.01.18.08.07.1-.06.2.1.34.04.02.31.15.08.17-.03 0-.17-.03-.2 0-.1.15-.02.33-.13.48-.04.06-.27.02-.33.08-.07.06-.13.19-.03.26s.48 0 .5.1l.02.03c.1.4-.07.8-.02 1.2 0 .06.13-.01.15.07.07.33.35.81.2 1.18-.12.3-.4.1-.41.3 0 .1.43.02.45.03.21.12.1.34.25.47.03.03.16-.1.19-.07.08.08.07.22.14.3.03.03.14-.05.15-.01.04.1.04.2 0 .36 0 .01-.18.06-.14.12.07.11.07.31.27.35.05 0 .29-.2.19.01-.03.05-.32.27 0 .14.05-.02.48-.18.34.07-.04.07-.21.32-.14.33.01 0 .1-.14.15-.12.14.06.25.18.4.24.04.01.1-.15.16-.13.15.07.28.23.38.36.04.05-.08.14-.08.16-.09.25.14 0 .17-.01.18-.02.19.17.33.2.03 0 .1-.14.1-.15.14-.09-.05.14-.03.19.07.14.21.2.35.24.04.01.07-.18.12-.16.24.08.48.2.69.37.03.03-.04.16-.04.2 0 .23.2-.03.22-.06.14-.1.15.04.24.04.47 0 1 .15 1.45.2l.12.02c.51.07.95.14 1.45 0 .03-.01-.04-.2-.02-.2.36-.13.74-.17 1.07-.37.03-.02-.09-.17-.05-.2.08-.06.2-.1.32-.1.05 0 .06.17.12.17.13 0 .25-.05.34-.14.04-.04-.12-.16-.06-.2.38-.24.7-.52 1.2-.66.04 0 .32.25.32.15a2.61 2.61 0 0 0-.23-.25c.45-.5.95-.96 1.3-1.56.01-.03-.19-.08-.16-.12.15-.28.22-.57.51-.81.03-.03.36.1.34 0 0-.03 0-.19-.06-.25-.01 0-.18-.03-.17-.07.05-.27.15-.53.3-.79.01-.04.18.04.2 0 .13-.21.02-.47.19-.69.11-.14.4-.08.7-.16.05 0 .06-.11.23-.12.43 0 .9.05 1.37.04.1 0 0-.18.23-.08.02.01.1.14.18.17.06.02.23-.02.3.03.08.05-.07.1 0 .17.1.08.3.06.3.21Zm-13.8-7.17c-.17-.1.12.44.13.27l-.13-.27Zm9.73 2.16c.15-.25-.22-.08-.34.11-.12.19.3-.03.34-.1Zm.81.97c.13-.22-.66.16-.44.2l.44-.2Zm.71 4.04.01-.08c-.19-.05-.21.1 0 .08Zm-.04-2.94c.1-.08-.07-.16-.2-.06-.1.07.07.16.2.06Zm-14.97-1.17s-.04.04 0 .06c.16.07.15-.02 0-.06Zm15.32 3.32c.03-.31.73-.58.67-.2-.02.08-.24-.13-.3-.04-.11.16.34.25.1.42a1.48 1.48 0 0 1-.47-.18Zm-11.97-7s-.08.03-.07.04c.06.19.2.13.07-.04Zm-4.51 6.84c-.02 0-.04.2-.03.2.32.1.36-.27.03-.2Zm9.71-8.23c.12-.18.24-.18.27.07l-.27-.07Z" fill="#000"/><circle cx="76.89" cy="90.68" r="8.21" fill="#141414"/><path d="M87.11 91.3c.03.36-.08.82-.22 1.16-.04.1-.14.03-.18.1-.06.14-.04.29-.12.42-.03.04-.19-.06-.21-.01-.14.25-.17.5-.29.75a11.57 11.57 0 0 1-2.26 3.26c-.32.3-.8.55-1.1.88-.04.04.08.14.08.15 0 .25-.15-.02-.25 0-.42.13-.79.36-1.09.6-.13.1.16.28-.06.22-.02 0-.06-.17-.1-.16-.12.01-.27.13-.35.15l-.3.11c-.17.08-.41.1-.6.2-.03.03.08.16.02.21a.52.52 0 0 1-.31.09c-.07-.02-.09-.15-.1-.18-.17-.2-.27.18-.3.2-.46.28-.94.17-1.4.23-.36.04-.74.13-1.08.12h-.01c-.42-.01-.75-.12-1.15-.16-.04 0-.02.2-.07.2-.55-.06-1.1-.2-1.58-.5-.04-.03.07-.17.03-.2-.28-.24-.59-.73-1.08-.15-.2-.12-.42-.27-.52-.5-.07-.15.13-.25-.04-.26-.04 0-.08.16-.14.15-.22-.06-.4-.24-.63-.3-.05-.01-.12.11-.15.13-.21.1-.15-.3-.17-.33-.12-.34-.33-.42-.53-.6-.05-.05-.12.14-.17.1-.26-.2-.5-.46-.63-.75-.04-.07.13-.13.12-.17-.03-.16-.3.02-.33-.14 0-.03.11-.1.12-.12.14-.21-.18-.06-.2-.07-.25-.16-.05-.52-.24-.7-.02-.03-.13.13-.19.06a3.52 3.52 0 0 1-.68-1.68c-.01-.1.14-.08.15-.1.21-.17-.13-.1-.16-.13-.16-.19.05-.47-.39-.52-.1-.8-.33-1.58-.2-2.38.04-.2.1-.38.18-.57 0-.01.18.02.19 0 .12-.28-.15-.25-.46-.48-.07-.06.34-.17.37-.17.11-.03.36.05.38.04.18-.1-.66-.21-.63-.4 0 0 .15.05.17.04.06-.04 0-.1.07-.13.14-.09.55-.03.35-.24-.03-.02-.5-.1-.44-.26.02-.06.1-.34.15-.41.05-.07.18.03.19.03.26-.15.32-.04.63-.04.32 0-.37-.21-.43-.28-.06-.07.15-.15.22-.17.07-.01.14.07.19.05.28-.12-.3-.22-.38-.34-.18-.27.37-.18.48-.3.03-.03-.1-.05-.08-.09.02-.16.21-.16.16-.38 0-.04-.22-.32.03-.29.04.01.14.1.2.07.08-.06.2-.2.22-.3.01-.08-.22-.13-.11-.17.05-.02.11.11.2.07.08-.04.19-.2.23-.27.04-.06-.12-.13-.12-.14a.51.51 0 0 1 0-.25c.42-.55 1.05-.8 1.5-1.27.03-.04-.1-.15-.1-.16.09-.17.27.28.46.33-.23-.27-.14-.26-.06-.37.03-.05-.07-.14-.08-.15-.05-.22.16-.04.2 0 .17.13.08-.1.2-.02.1.1.14.3.23.24-.04-.12-.3-.35-.25-.44.17-.37.87-.46 1.13-.54.25-.1.33-.15.49-.16.3-.03.1-.22.24-.39.14-.17.25.44.32.55.06.12.04-.02.1.04.04.06.01.17.08.17s.19-.27.18-.4c-.03-.3-.2-.57.02-.52.01 0 .02.17.06.17.36.04.7-.02 1.05.04.04.01.03.2.05.2.28.08.15-.2.27-.55.01.45.12.7.31.7.12 0 .1-.2.17-.34.02-.04.11.09.12 0 .05-.3-.04-.63.19-.5v.15l.01.03c.22.06.25-.25.5-.27.19-.02.5.2.7.26-.07.49.13.4.27.08.13.04.28.05.4.12.04.03-.02.16-.02.18.03.26.16-.06.2-.06.34-.05.5.27.87.14.01 0 .15-.33.14-.06 0 .02-.15.13-.02.2.13.05.3.33.54.26.06-.01.3-.21.28.03 0 .03-.06.11-.06.17-.03.18.16-.11.08.18-.08.3-.07.56.2.47 0 0 .18-.21.23-.18.08.06.16.18.25.24.04.02.1-.14.12-.14.33.11.43.38.65.65.04.05.33 0 .3.22-.04.24-.72.76-.38.81.13.02 1.03-.6.77-.06.39.24.4.72.79.97.02.01.3-.1.32-.05.04.06-.06.17-.05.21.07.2.26.3.34.5.03.07-.12.1-.08.19.03.08.23.06.19.2-.03.12-.35.35-.35.47.36-.13.38-.05.53.05.02.02.14-.05.16-.05.08.03 0 .12.08.14.02.01.15-.03.17-.03.22.03-.02.27-.06.3-.16.15.02.15-.04.24-.05.1-.17.01-.2.1-.05.2.02.4.05.58.01.07.17 0 .18 0 .07.14-.09.32.27.35-.88.22.1.08-.06.32-.01.01-.43.08-.5.02-.07-.05.05-.16-.06-.23-.02-.02-.43-.07-.46-.08-.2-.08.42-.2.45-.22.36-.14-.09-.2-.13-.23-.16-.14-.1-.3-.24-.4-.08-.07-.49.03-.5-.03-.01-.22.5-.5-.04-.52-.12 0-.53.2-.25-.08.02-.01.28-.25.06-.23l-.17.05c-.1-.04-.01-.13-.1-.18-.08-.06-.19-.1-.19-.21 0-.06.18-.24.22-.3.12-.15-.17-.08-.01-.23.15-.15.48-.23.53-.42l-.9.52c-.14-.23-.2-.52-.38-.73-.02-.02-.15.12-.18.1-.11-.1-.1-.3-.24-.38-.11-.06-.34-.02-.46-.07.22-.33-.01-.37-.09-.49-.02-.04.05-.12.04-.17-.01-.18-.2.13-.26.15-.26.08.23-.54.07-.64l-.39.27c-.18.08.08-.13.04-.2-.06-.1-.07-.24-.26-.21-.05 0-.27.18-.23-.04l.08-.15c-.07-.2-.29.18-.43.27-.15.09-.11-.24-.1-.33.04-.23.1-.06.1-.07.17-.22.06-.22 0-.28.18-.38.07-.41-.06-.05-.01.04.06.03.06.05-.25.35-.36.35-.32-.06.02-.19.16-.36-.04-.37-.1 0-.18.29-.28.34-.21.1-.32-.22-.5-.23-.06 0-.05.17-.1.17-.12 0-.18-.13-.3-.1-.01 0-.03.17-.06.17-.25-.05-.45-.2-.72-.24-.13-.02-.37.05-.5.02-.14-.03-.31-.14-.47-.2-.1-.03-.18-.05-.25-.03-.13.05-.1.22-.14.33-.1.23-.3-.15-.34-.2 0-.01.1-.06.04-.14-.05-.18-.04.13-.04.13-.02-.04-.25-.05-.3-.01-.01.02.02.18.01.19-.27.18-.54.28-.84.29l-.06-.18c-.2-.03-.24.22-.32.39-.09.17-.2.16-.4-.09-.08.08-.28.02-.4-.02-.12-.03.03.29.02.3-.11.3-.32.19-.56.3-.1.04-.28.22-.36.32-.06.09-.16.06-.2.16l.1.13c.03.21-.17-.12-.23-.16-.21-.14-.34-.2-.37-.03 0 .04.28.51.27.57-.03.08-.14-.08-.16 0 0 .01.08.1.04.13-.17.12-.38.24-.51.42-.02.03.15.12.12.16a1.4 1.4 0 0 1-.43.44c-.05.03-.14-.08-.18-.09-.23-.08 0 .2 0 .21-.05.39-.46.48-.48.89 0 .02.28.3-.04.25-.02 0-.35-.06-.16.07 0 .01.18.03.14.1-.04.06.03.2-.18.24-.07.01-.4 0-.18.16.01.02.55.31.14.26-.07-.01-.49-.12-.3.05.04.03.14.01.19.08.07.1-.07.2.1.34.03.02.3.15.08.17-.04 0-.18-.03-.2 0-.1.15-.02.33-.13.48-.04.06-.27.01-.34.08-.07.06-.13.19-.03.26s.48 0 .51.1l.01.03c.1.4-.06.8-.02 1.2 0 .06.13-.01.15.07.07.33.35.81.2 1.18-.12.3-.4.1-.4.3-.01.1.42.02.45.03.2.12.1.34.24.47.03.03.17-.1.19-.07.08.08.07.21.14.3.03.03.14-.05.15-.01.04.1.04.2 0 .36 0 .01-.18.06-.13.12.06.11.06.32.26.35.06 0 .29-.2.19.01-.02.05-.31.27 0 .14.05-.02.48-.18.34.07-.04.07-.2.32-.14.33.01 0 .11-.14.15-.12.15.06.25.18.4.24.04.01.1-.15.16-.13.15.07.28.23.38.36.04.05-.07.14-.08.16-.08.25.14 0 .17-.01.18-.02.2.17.33.2.03 0 .1-.14.1-.15.14-.09-.05.14-.03.19.08.14.22.2.35.24.05.02.08-.18.12-.16.24.08.48.2.69.37.04.03-.04.16-.04.2 0 .24.2-.03.22-.06.14-.1.15.04.25.04.46 0 1 .15 1.44.2l.13.02c.5.07.95.14 1.44 0 .03-.01-.04-.2-.01-.2.35-.13.73-.17 1.06-.37.03-.02-.08-.17-.04-.2.08-.06.2-.1.3-.1.06 0 .07.17.13.17.13 0 .25-.05.35-.14.04-.04-.13-.16-.07-.2.38-.24.7-.52 1.21-.66.04 0 .31.25.32.15l-.23-.25c.44-.5.95-.96 1.3-1.56 0-.02-.2-.08-.17-.12.15-.28.22-.57.52-.81.02-.03.35.1.33 0 0-.03 0-.19-.06-.25-.01 0-.18-.03-.17-.07.05-.27.15-.53.3-.79.02-.04.18.04.2 0 .13-.21.02-.47.19-.69.11-.14.41-.08.71-.16.04 0 .05-.11.22-.12.44 0 .91.05 1.37.04.1 0 0-.18.24-.08.01.01.1.14.17.17.06.02.24-.01.3.03.08.05-.07.1.01.17.08.08.29.06.3.21Zm-13.8-7.18c-.16-.1.13.44.14.27l-.14-.27Zm9.73 2.17c.15-.26-.22-.09-.33.1-.13.19.29-.03.33-.1Zm.81.96c.13-.22-.65.16-.43.2l.43-.2Zm.71 4.04.02-.08c-.2-.05-.22.1-.02.08Zm-.04-2.94c.1-.08-.07-.16-.2-.06-.1.07.08.16.2.06Zm-14.96-1.17c-.01 0-.05.04 0 .06.15.07.14-.02 0-.06Zm15.31 3.32c.03-.31.73-.58.67-.2-.01.08-.24-.13-.3-.04-.1.16.35.25.1.42a1.5 1.5 0 0 1-.47-.18Zm-11.97-7-.07.04c.06.19.2.13.07-.04Zm-4.51 6.84c-.02 0-.04.2-.02.2.31.1.36-.27.02-.2Zm9.72-8.23c.11-.18.23-.18.26.07l-.26-.07Z" fill="#000"/><circle cx="105.63" cy="74.26" r="8.21" fill="#141414"/><path d="M115.85 74.87c.03.37-.08.84-.22 1.17-.04.1-.14.03-.18.1-.06.14-.04.29-.13.42-.02.04-.18-.06-.2-.01-.14.25-.17.5-.29.75a11.57 11.57 0 0 1-2.26 3.26c-.32.3-.8.55-1.1.88-.04.04.08.14.08.15 0 .25-.15-.02-.26.01-.41.12-.78.35-1.08.59-.13.1.16.28-.06.22-.02 0-.06-.17-.1-.16-.12.01-.27.13-.35.15l-.3.12c-.17.07-.41.09-.6.2-.03.02.08.15.02.2a.52.52 0 0 1-.31.09c-.08-.02-.09-.15-.1-.18-.17-.2-.27.18-.3.2-.46.28-.94.17-1.4.23-.36.04-.74.13-1.08.12h-.01c-.42-.01-.76-.12-1.15-.16-.04 0-.02.2-.07.2-.55-.06-1.1-.2-1.58-.5-.04-.03.07-.17.03-.2-.28-.24-.59-.73-1.08-.15-.2-.12-.42-.27-.53-.5-.06-.15.14-.25-.03-.26-.04 0-.08.16-.14.15-.22-.06-.4-.24-.63-.3-.05-.01-.12.11-.15.13-.21.1-.16-.3-.17-.33-.12-.34-.33-.42-.53-.6-.05-.05-.12.14-.17.1a2.2 2.2 0 0 1-.64-.75c-.03-.07.14-.13.13-.17-.03-.16-.3.02-.33-.13-.01-.04.11-.11.12-.13.14-.21-.18-.06-.2-.07-.25-.16-.06-.52-.24-.7-.02-.03-.13.13-.19.06a3.52 3.52 0 0 1-.68-1.68c-.01-.1.14-.08.15-.1.21-.17-.14-.1-.16-.13-.17-.19.05-.47-.39-.52-.1-.8-.33-1.58-.2-2.38.04-.2.1-.38.18-.57 0-.01.18.02.19 0 .12-.28-.15-.24-.46-.48-.07-.06.34-.16.37-.17.11-.03.36.05.38.04.18-.1-.66-.21-.63-.4 0 0 .15.05.17.04.06-.04 0-.1.07-.13.14-.08.55-.03.35-.24-.03-.02-.5-.1-.44-.26.02-.06.1-.34.15-.41.05-.07.18.03.19.03.26-.15.31-.04.63-.04s-.37-.21-.43-.28c-.06-.07.15-.15.22-.17.07-.01.14.07.19.05.28-.12-.3-.22-.38-.33-.18-.28.37-.2.48-.3.03-.04-.1-.06-.08-.1.02-.16.21-.16.16-.38-.01-.04-.22-.32.03-.29.04.01.13.1.2.07.08-.06.2-.2.21-.3.02-.08-.21-.13-.1-.17.05-.02.11.11.2.07.08-.04.19-.2.23-.27.04-.06-.12-.13-.12-.14a.5.5 0 0 1 0-.25c.42-.55 1.05-.8 1.5-1.27.03-.04-.1-.15-.1-.16.09-.17.27.28.46.33-.23-.27-.14-.26-.06-.36.03-.06-.07-.15-.08-.16-.05-.22.16-.04.2 0 .17.13.08-.1.2-.02.1.1.14.3.23.24-.04-.12-.3-.35-.25-.44.17-.37.87-.46 1.13-.54.25-.1.33-.15.49-.16.3-.03.1-.22.24-.39.14-.17.25.44.31.55.07.12.05-.01.1.04.05.06.02.17.1.17.06 0 .17-.27.17-.4-.03-.3-.2-.57.02-.52.01 0 .02.17.06.17.36.04.7-.02 1.05.04.04.01.03.2.05.2.28.08.15-.2.27-.55.01.45.11.7.31.7.12 0 .1-.2.16-.34.03-.04.12.09.13 0 .05-.3-.04-.63.19-.5v.18c.23.06.26-.25.5-.27.2-.02.51.2.71.26-.07.5.13.4.27.08.13.04.28.05.4.12.04.03-.02.16-.02.18.03.26.16-.06.2-.06.34-.05.5.27.87.14.01 0 .15-.32.14-.06 0 .02-.15.13-.02.2.13.06.3.33.54.26.06-.01.3-.21.28.03 0 .03-.06.11-.06.17-.03.19.16-.11.08.19s-.07.55.2.46c0 0 .18-.21.23-.18.08.06.16.18.25.24.04.02.1-.14.12-.14.33.11.43.38.65.65.04.05.33 0 .3.22-.04.24-.72.76-.38.81.13.02 1.03-.6.76-.06.4.24.4.72.8.97.02.01.3-.1.32-.05.04.06-.07.17-.05.21.07.2.26.3.34.5.02.07-.12.1-.09.2.04.07.23.05.2.2-.03.11-.35.34-.35.46.36-.13.38-.05.53.05.02.02.14-.05.16-.05.08.03 0 .12.08.14.02.01.15-.03.17-.03.22.03-.02.27-.06.3-.16.15.01.15-.04.24-.05.1-.18.01-.2.1-.05.2.02.4.05.58.01.07.17 0 .18 0 .07.14-.1.32.27.35-.88.22.1.08-.06.32-.01.01-.44.08-.5.02-.07-.05.05-.16-.06-.23-.02-.02-.44-.07-.46-.08-.2-.08.42-.2.45-.22.36-.14-.09-.2-.13-.23-.16-.14-.1-.3-.24-.4-.08-.07-.49.04-.5-.03-.01-.22.5-.5-.04-.52-.12 0-.53.2-.25-.08.02-.01.28-.25.06-.23l-.17.05c-.1-.04-.02-.13-.1-.18-.08-.06-.19-.1-.19-.21 0-.06.18-.24.22-.3.12-.15-.17-.08-.01-.23.15-.15.48-.22.53-.42l-.9.52c-.14-.23-.2-.52-.38-.73-.02-.02-.15.12-.18.1-.11-.1-.1-.3-.24-.38-.11-.06-.34-.02-.47-.07.23-.33 0-.37-.08-.49-.03-.04.05-.12.04-.17-.01-.18-.2.13-.26.15-.26.08.23-.54.07-.64l-.39.27c-.18.08.08-.13.04-.2-.06-.1-.08-.24-.26-.21-.05 0-.27.18-.23-.03 0-.03.08-.15.08-.16-.07-.2-.3.18-.43.27-.15.09-.11-.23-.1-.32.04-.24.1-.07.1-.08.17-.21.06-.22 0-.28.18-.38.07-.41-.06-.05-.02.04.06.03.06.05-.25.35-.36.35-.32-.06.02-.19.16-.36-.04-.37-.1 0-.18.29-.28.34-.22.1-.32-.22-.5-.23-.06 0-.06.17-.1.17-.12.01-.18-.13-.3-.1-.01 0-.03.17-.06.17-.25-.05-.45-.2-.72-.24-.13-.02-.37.05-.5.02-.14-.03-.31-.14-.47-.2-.1-.03-.18-.05-.25-.03-.13.05-.1.22-.14.33-.1.23-.3-.15-.34-.2 0-.01.1-.06.04-.14-.05-.18-.04.13-.04.13-.02-.04-.25-.05-.3 0-.02.01.02.17.01.18-.27.18-.54.28-.84.29l-.06-.18c-.2-.03-.24.22-.32.39-.09.17-.2.16-.4-.09-.08.08-.28.02-.4-.02-.12-.03.03.29.02.3-.11.3-.32.19-.56.3-.1.04-.28.22-.36.32-.06.09-.16.06-.2.16-.01.01.1.12.1.13.03.21-.17-.12-.23-.16-.21-.14-.34-.2-.37-.03 0 .04.28.52.27.57-.03.08-.14-.08-.16 0 0 .01.08.1.04.13-.17.12-.38.25-.51.42-.02.03.15.12.12.16a1.4 1.4 0 0 1-.43.44c-.05.03-.14-.08-.18-.09-.24-.08 0 .2 0 .21-.05.39-.46.48-.48.89 0 .02.28.3-.04.25-.02 0-.35-.06-.16.07 0 .01.18.03.14.1-.04.06.03.2-.18.24-.07.02-.4 0-.18.17.01.01.54.3.14.25-.07 0-.49-.12-.3.05.04.03.14.01.18.08.08.1-.06.2.1.34.04.02.32.15.09.17-.04 0-.18-.03-.2 0-.1.15-.02.33-.13.48-.04.06-.28.02-.34.08-.07.06-.13.19-.03.26s.48 0 .51.1l.01.03c.1.4-.06.8-.02 1.2 0 .06.13-.01.15.07.07.33.35.81.2 1.18-.12.3-.4.1-.4.3-.01.1.42.02.44.03.22.12.11.34.25.47.03.03.17-.1.19-.07.08.08.07.22.14.3.03.03.14-.05.15-.01.04.1.04.2 0 .36 0 .01-.18.06-.14.12.07.11.07.32.27.35.06 0 .29-.2.19.01-.02.05-.32.27 0 .14.05-.02.48-.18.34.07-.04.07-.2.32-.14.33.01 0 .1-.14.15-.12.15.06.25.18.4.24.04.01.1-.15.16-.13.15.07.28.23.38.36.04.05-.08.15-.08.16-.08.25.14 0 .17-.01.18-.02.2.17.33.2.03 0 .1-.14.1-.15.14-.09-.05.14-.03.19.08.14.22.2.35.24.05.02.08-.18.12-.16.24.08.48.2.69.37.04.03-.04.16-.04.2 0 .24.2-.03.22-.05.14-.1.15.03.25.03.46 0 1 .15 1.44.2l.13.02c.5.07.95.14 1.44 0 .03-.01-.04-.19-.01-.2.35-.13.73-.17 1.06-.37.03-.02-.09-.17-.05-.2.09-.06.2-.1.32-.1.05 0 .06.17.12.17.13 0 .25-.05.35-.14.03-.04-.13-.16-.07-.2.38-.24.7-.52 1.21-.65.03-.01.31.24.32.14l-.23-.25c.44-.5.94-.96 1.29-1.56.01-.02-.18-.08-.16-.12.15-.28.22-.57.52-.81.02-.03.35.1.33 0 0-.03 0-.19-.06-.25-.01 0-.18-.02-.17-.07.05-.27.15-.53.3-.79.02-.04.18.04.2 0 .13-.21.02-.47.19-.69.11-.14.41-.08.7-.16.05 0 .06-.11.23-.11.44-.02.91.04 1.37.03.1 0 0-.18.24-.08.01.01.1.14.17.17.06.02.23-.01.3.03.08.05-.07.1.01.17.08.08.28.06.3.21Zm-13.8-7.17c-.16-.1.13.44.14.27l-.14-.27Zm9.73 2.17c.15-.26-.22-.09-.34.1-.12.19.3-.03.34-.1Zm.81.96c.13-.22-.65.16-.43.2l.43-.2Zm.71 4.04.02-.08c-.2-.05-.22.1-.02.08Zm-.04-2.94c.1-.08-.07-.16-.2-.06-.1.07.08.16.2.06Zm-14.97-1.17s-.04.04.01.06c.15.07.14-.02 0-.06Zm15.32 3.32c.03-.31.73-.58.67-.2-.01.08-.24-.13-.3-.04-.11.16.34.25.1.42a1.5 1.5 0 0 1-.47-.18Zm-11.97-7s-.08.03-.07.04c.06.19.2.13.07-.03Zm-4.51 6.84c-.02 0-.04.2-.02.2.31.1.36-.27.02-.2Zm9.72-8.23c.11-.18.23-.18.26.07l-.27-.07Z" fill="#000"/></g><defs><clipPath id="clip0_339_7675"><path fill="#fff" d="M0 0h370v320H0z"/></clipPath><clipPath id="clip1_339_7675"><path fill="#fff" d="M-10 198.67 110.54 168l30.67 120.54L20.67 319.2z"/></clipPath></defs></svg>