<svg width="196" height="164" viewBox="0 0 196 164" fill="none" xmlns="http://www.w3.org/2000/svg">
<g clip-path="url(#clip0_5106_4216)">
<g clip-path="url(#clip1_5106_4216)">
<path d="M54.8167 160.963L14.4814 74.6831L46.7581 47.2765L54.0995 52.3095L44.1844 36.9991L74.6047 6.67427L112.324 31.4586L107.599 20.4621L147.849 3.03699L181.518 81.2387L149.368 108.349L137.681 100.652L150.887 121.037L120.087 151.108L88.4435 129.327L94.5191 142.311L54.8167 160.963Z" fill="#C1F11D"/>
<path d="M57.211 157.594L18.8618 75.5622L49.5492 49.5052L56.5291 54.2903L47.1022 39.7338L76.0246 10.9022L111.887 34.4661L107.394 24.0111L145.663 7.44397L177.674 81.795L147.107 107.571L135.995 100.252L148.551 119.634L119.268 148.224L89.182 127.515L94.9585 139.86L57.211 157.594Z" fill="#C1F11D"/>
<path d="M43.4563 21.682C43.8488 21.8544 44.2213 22.0581 44.6231 22.2193C44.7756 22.2787 44.8297 22.4728 45.1495 22.3052C45.3128 22.2183 45.2396 22.5769 45.3754 22.637C45.7494 22.7898 46.0609 23.0286 46.4218 23.1936C46.7738 23.3572 47.1938 23.4246 47.5446 23.5843C47.8916 23.7451 48.0966 24.1337 48.527 24.1517C48.9025 24.1694 48.9192 24.6313 49.2075 24.7509C49.5136 24.8735 49.7966 25.0452 49.9395 25.3809C50.0468 25.6263 50.1345 25.8903 50.3499 25.977C50.4846 26.0333 50.7049 25.9545 50.8111 26.0699C50.9111 26.1787 50.937 26.4191 51.2549 26.189C51.2823 26.1682 51.2881 26.2716 51.2851 26.3314C51.2593 26.6379 51.4168 26.742 51.6082 26.693C51.7957 26.645 51.8695 26.7365 51.9617 26.8055C52.2184 27.0019 52.474 27.1944 52.7041 27.4282C52.8747 27.6042 52.9882 27.8561 53.16 28.0359C53.3368 28.2184 53.6309 28.2731 53.7209 28.5448C53.8148 28.8153 53.9931 28.9469 54.1711 29.0912C54.2718 29.1745 54.3116 29.3771 54.5705 29.2026C54.5952 29.1868 54.63 29.2184 54.6327 29.2554C54.6992 29.7992 55.2692 29.6238 55.5043 29.9445C55.7483 30.2666 56.0942 30.4657 56.3964 30.7157C56.4798 30.7832 56.5219 30.9094 56.6963 30.8318C56.7596 30.8044 56.843 30.8719 56.86 30.9425C56.9443 31.3211 57.2631 31.402 57.4692 31.6262C57.7051 31.8793 58.0181 32.0251 58.1965 32.367C58.2737 32.5121 58.4097 32.6563 58.6385 32.6339C58.7408 32.6242 58.8261 32.7963 58.9299 32.8619C59.0175 32.9155 59.1295 32.924 59.209 32.9927C59.2762 33.0482 59.3036 33.1536 59.3572 33.2342C59.3731 33.2589 59.3955 33.2774 59.4205 33.2909C59.8822 33.4973 60.1417 33.9831 60.5447 34.2743C60.9434 34.5795 61.314 34.931 61.69 35.2724C61.8973 35.4584 62.0961 35.6721 62.1977 35.8562C62.2436 35.9391 62.2263 35.9654 62.1116 35.9199C62.0298 35.8856 61.9341 35.847 61.8476 35.7972C61.7071 35.7216 61.5666 35.646 61.4311 35.5731C61.149 35.4181 60.8255 35.3217 60.5627 35.1188C60.4804 35.0551 60.3473 35.032 60.3253 34.9166C60.3207 34.9011 60.2909 34.8722 60.2681 34.8664C59.8088 34.7519 59.4637 34.4433 59.0715 34.2161C58.7396 34.0213 58.3243 33.9693 58.0286 33.7131C57.7446 33.748 57.5373 33.6041 57.3852 33.4478C56.8486 32.8938 56.1125 32.6142 55.4722 32.2049C54.8271 31.7802 54.1474 31.4079 53.497 30.9932C53.387 30.9211 53.1921 31.0006 53.1365 30.8154C53.0832 30.6379 52.8709 30.6175 52.727 30.5303C52.5969 30.4474 52.4166 30.4216 52.3394 30.2765C52.0259 29.6807 51.396 29.5165 50.903 29.1639C50.414 28.8101 49.9222 28.4614 49.3424 28.24C48.9897 28.102 48.537 28.1075 48.2667 27.8521C48.1528 27.739 47.8743 27.8479 47.9772 27.4342C48.0088 27.3153 47.6974 27.4972 47.6044 27.4536C47.3705 27.3472 47.1725 27.1921 46.9613 27.0493C46.6703 26.8507 46.407 26.6184 46.1052 26.4398C45.921 26.331 45.6543 26.3396 45.4663 26.232C45.2695 26.1228 45.102 25.9712 44.9584 25.7871C44.7754 25.556 44.6468 25.2539 44.4572 25.0289C44.2576 24.7986 43.9427 24.7165 43.8353 24.3869C43.6213 23.7865 43.1531 23.5442 42.8072 23.1349C42.4597 22.7344 42.098 22.3424 41.7347 21.9592C41.6309 21.8516 41.5571 21.7181 41.4757 21.5869C41.3954 21.4596 41.3097 21.3423 41.2162 21.2273C41.1707 21.1736 41.1428 21.081 41.1193 21.0166C41.0996 20.951 41.0868 20.9085 41.1251 20.9097C41.1366 20.9062 41.1606 20.9158 41.1833 20.9216C41.4543 21.0254 41.7796 21.016 42.0949 21.1275C42.543 21.3168 43.0097 21.4838 43.4524 21.6832L43.4563 21.682Z" fill="#141414"/>
<path d="M30.6275 35.8629C31.1801 35.9298 31.7222 36.0324 32.2752 36.0903C32.4819 36.1081 32.6491 36.2885 32.9413 36.0358C33.0911 35.907 33.1849 36.2861 33.3751 36.3087C33.8941 36.3615 34.3834 36.5177 34.8926 36.5882C35.3893 36.6563 35.9195 36.6141 36.4197 36.6842C36.9109 36.7539 37.346 37.0826 37.8676 36.9895C38.3183 36.9078 38.573 37.3624 38.9734 37.4048C39.3953 37.4499 39.8188 37.5419 40.156 37.8395C40.4047 38.0557 40.6416 38.2931 40.9414 38.3258C41.1281 38.3464 41.3468 38.2096 41.5343 38.2952C41.7058 38.3765 41.8582 38.6085 42.1186 38.2968C42.1413 38.2725 42.1985 38.3687 42.2263 38.4348C42.3483 38.7466 42.5855 38.8091 42.7916 38.7115C42.9923 38.6155 43.1227 38.6878 43.2687 38.7319C43.6692 38.8572 44.0731 38.9845 44.4607 39.158C44.7527 39.2877 45.012 39.5098 45.3021 39.6431C45.6047 39.7787 45.9772 39.7549 46.2193 39.9997C46.4648 40.2465 46.7427 40.3269 47.0254 40.4238C47.1835 40.4792 47.3339 40.6732 47.5517 40.43C47.5725 40.4093 47.6292 40.4315 47.6531 40.4632C48.0042 40.985 48.5933 40.6622 49.0294 40.9225C49.482 41.1781 49.9878 41.2881 50.4712 41.4549C50.5992 41.4982 50.7186 41.6152 50.8845 41.4906C50.9424 41.4444 51.0774 41.4916 51.1342 41.5554C51.4256 41.9105 51.8424 41.9067 52.196 42.0751C52.6027 42.2638 53.0454 42.3297 53.4279 42.6202C53.5904 42.7426 53.8238 42.8535 54.0851 42.7727C54.2021 42.7362 54.3869 42.8848 54.5459 42.9223C54.6762 42.9531 54.8159 42.9338 54.9404 42.9752C55.0469 43.0158 55.1366 43.1116 55.2348 43.1754C55.2665 43.1929 55.3018 43.2125 55.3378 43.2141C55.9871 43.2977 56.5357 43.7125 57.1608 43.898C57.7836 44.096 58.4021 44.3515 59.0159 44.5905C59.3565 44.7241 59.6979 44.8812 59.9113 45.0364C60.0056 45.1072 59.9971 45.1393 59.8409 45.1218C59.7278 45.1098 59.5967 45.0969 59.4679 45.0716C59.264 45.0322 59.0581 44.9963 58.8612 44.9609C58.4499 44.8801 58.0194 44.8672 57.6048 44.734C57.4768 44.6907 57.3085 44.7033 57.2227 44.6004C57.2126 44.5856 57.1593 44.5652 57.1304 44.5676C56.5277 44.5743 55.9652 44.3591 55.3863 44.2315C54.8966 44.1258 54.3765 44.1829 53.8989 44.0056C53.5785 44.1182 53.265 44.0272 53.0066 43.9115C52.0952 43.5028 51.0816 43.4198 50.1198 43.1767C49.1459 42.9222 48.1529 42.7355 47.1732 42.4916C47.0072 42.4502 46.816 42.5791 46.6573 42.4082C46.5073 42.2467 46.2424 42.284 46.0299 42.2353C45.8353 42.1873 45.6072 42.2082 45.4447 42.0858C44.7739 41.5756 43.9443 41.5762 43.1872 41.3544C42.4321 41.1292 41.6767 40.9129 40.8771 40.8426C40.3902 40.7984 39.86 40.9236 39.4098 40.7384C39.2204 40.6563 38.9403 40.8374 38.8562 40.3991C38.8346 40.2719 38.5565 40.5324 38.4238 40.5141C38.0919 40.4728 37.7808 40.3693 37.4617 40.2799C37.0214 40.1601 36.59 39.9992 36.1434 39.8989C35.8717 39.8404 35.5618 39.9174 35.2847 39.8604C34.9986 39.8031 34.7218 39.6957 34.4611 39.551C34.1299 39.3673 33.8221 39.0999 33.4885 38.9287C33.1389 38.7533 32.726 38.75 32.4284 38.4559C31.8742 37.9182 31.1994 37.7974 30.5836 37.4789C29.9674 37.1694 29.3469 36.8759 28.726 36.5914C28.3745 36.4195 28.0878 36.1637 27.7449 36.0012C27.6673 35.9582 27.5843 35.8753 27.5256 35.815C27.4668 35.7548 27.4378 35.7157 27.4762 35.7047C27.4926 35.7 27.5215 35.6977 27.5521 35.7008C27.9239 35.7365 28.305 35.6392 28.7367 35.6667C29.3652 35.7296 29.9977 35.7855 30.622 35.8645L30.6275 35.8629Z" fill="#141414"/>
<path d="M34.6813 57.5583C35.107 57.4037 35.5383 57.2789 35.961 57.1177C36.1176 57.0547 36.3052 57.1241 36.4245 56.8333C36.4858 56.6847 36.6933 56.9255 36.8397 56.8719C37.2358 56.7195 37.6484 56.653 38.044 56.517C38.4296 56.3839 38.7989 56.1583 39.1878 56.0253C39.57 55.8954 40.0067 55.9741 40.3511 55.7148C40.6483 55.4898 41.0002 55.7262 41.3065 55.6098C41.6293 55.4874 41.9706 55.3986 42.3247 55.4906C42.5847 55.5562 42.844 55.6414 43.0736 55.5549C43.2167 55.5013 43.3252 55.3216 43.4927 55.3148C43.6471 55.3108 43.843 55.4232 43.9175 55.1012C43.925 55.0752 44.0019 55.124 44.0464 55.1618C44.2495 55.3433 44.4447 55.3015 44.5585 55.1548C44.6689 55.0114 44.7901 55.0159 44.9123 54.9943C45.249 54.9381 45.5891 54.882 45.9342 54.8654C46.1939 54.8523 46.4637 54.9182 46.7232 54.9083C46.9928 54.8955 47.2545 54.7413 47.5201 54.8301C47.7891 54.9189 48.0204 54.8751 48.2612 54.8416C48.3964 54.8237 48.5769 54.9092 48.6456 54.6526C48.653 54.63 48.7024 54.6252 48.7314 54.6395C49.178 54.8892 49.487 54.4383 49.8993 54.4669C50.3218 54.4861 50.7293 54.3801 51.1416 54.3234C51.2504 54.3078 51.3801 54.3488 51.4547 54.1975C51.4797 54.1426 51.5951 54.1273 51.6598 54.1527C52.0019 54.3034 52.303 54.1474 52.6216 54.1397C52.9862 54.1272 53.3317 54.0123 53.7162 54.0825C53.8792 54.1116 54.0893 54.1064 54.2494 53.9517C54.3209 53.8822 54.5097 53.9221 54.6388 53.8909C54.7447 53.8653 54.8391 53.8 54.9446 53.7843C55.0369 53.7746 55.1372 53.8112 55.232 53.8214C55.2614 53.8225 55.2942 53.8237 55.3209 53.8116C55.823 53.6337 56.3737 53.7331 56.8957 53.638C57.4205 53.5528 57.9634 53.5109 58.4969 53.4588C58.7932 53.4306 59.0988 53.4191 59.3107 53.4534C59.4052 53.4701 59.4108 53.4965 59.291 53.5412C59.2045 53.574 59.1046 53.6129 59.0018 53.6419C58.8393 53.6882 58.6767 53.7379 58.5207 53.7845C58.1924 53.8771 57.8751 54.0259 57.5253 54.0816C57.4164 54.0972 57.2989 54.1683 57.1988 54.1251C57.186 54.1181 57.1399 54.1229 57.1197 54.1352C56.6847 54.3616 56.1972 54.4122 55.7301 54.5324C55.3358 54.6356 54.9793 54.8683 54.5674 54.9151C54.3762 55.1146 54.1151 55.1638 53.8851 55.1748C53.0732 55.2131 52.3069 55.5255 51.5194 55.7025C50.7189 55.8757 49.9294 56.1052 49.1286 56.2883C48.9929 56.3193 48.9014 56.4831 48.7235 56.4174C48.5552 56.3553 48.3766 56.4798 48.2044 56.5225C48.0456 56.5591 47.8876 56.6582 47.7247 56.6291C47.0502 56.5053 46.4482 56.8107 45.8171 56.928C45.1862 57.042 44.5583 57.1627 43.952 57.4056C43.5823 57.5524 43.2435 57.8382 42.8486 57.8693C42.6809 57.8793 42.5441 58.1137 42.322 57.8265C42.2596 57.7421 42.1535 58.0334 42.0504 58.0689C41.7943 58.1609 41.5304 58.2002 41.266 58.2525C40.9022 58.3274 40.5299 58.3692 40.1689 58.4606C39.9502 58.5179 39.7535 58.6877 39.5314 58.7482C39.3027 58.8118 39.0623 58.8355 38.8198 58.8264C38.5119 58.8148 38.1901 58.7338 37.8851 58.7322C37.5668 58.7333 37.2659 58.8827 36.9417 58.7786C36.3418 58.592 35.8076 58.7523 35.2434 58.7475C34.6823 58.7493 34.124 58.7643 33.5688 58.7861C33.2504 58.7905 32.9483 58.7102 32.6396 58.7183C32.5675 58.7155 32.4768 58.6859 32.412 58.6638C32.3472 58.6416 32.3118 58.6239 32.3356 58.6018C32.3458 58.5924 32.3659 58.58 32.3892 58.5711C32.6723 58.4603 32.9131 58.2496 33.2366 58.1109C33.716 57.9255 34.1957 57.7336 34.6779 57.5615L34.6813 57.5583Z" fill="#141414"/>
<path d="M155.741 23.1598C155.471 23.5075 155.175 23.8303 154.913 24.1873C154.816 24.3227 154.607 24.3322 154.694 24.6876C154.737 24.8681 154.403 24.7137 154.311 24.8351C154.065 25.1676 153.748 25.4231 153.492 25.7434C153.242 26.0527 153.069 26.4507 152.816 26.7626C152.566 27.0719 152.135 27.1815 152.002 27.6027C151.885 27.968 151.429 27.8813 151.238 28.1351C151.037 28.4082 150.796 28.6467 150.43 28.7156C150.164 28.7635 149.881 28.7931 149.738 28.9849C149.649 29.1037 149.67 29.3397 149.53 29.4175C149.398 29.493 149.155 29.4627 149.298 29.8281C149.31 29.8605 149.211 29.8443 149.147 29.825C148.852 29.7279 148.71 29.8598 148.706 30.0595C148.702 30.2536 148.595 30.3081 148.501 30.3837C148.242 30.5894 147.983 30.8008 147.695 30.9729C147.476 31.1017 147.198 31.1545 146.979 31.2833C146.755 31.4174 146.625 31.6931 146.337 31.7222C146.046 31.754 145.869 31.9004 145.683 32.0432C145.577 32.1235 145.363 32.1156 145.472 32.4097C145.481 32.439 145.439 32.4644 145.405 32.4617C144.852 32.4047 144.874 33.0065 144.499 33.1632C144.118 33.3308 143.835 33.6261 143.507 33.8694C143.42 33.9341 143.284 33.9493 143.315 34.1403C143.327 34.2098 143.236 34.277 143.167 34.2774C142.773 34.2755 142.613 34.5718 142.338 34.722C142.03 34.901 141.804 35.1693 141.422 35.2683C141.261 35.3102 141.079 35.4132 141.041 35.6418C141.025 35.7462 140.833 35.7886 140.74 35.8785C140.663 35.9497 140.626 36.0612 140.541 36.1232C140.469 36.1747 140.357 36.1804 140.265 36.2162C140.236 36.2253 140.212 36.2463 140.196 36.2651C139.875 36.6775 139.327 36.818 138.939 37.1508C138.536 37.474 138.091 37.7596 137.657 38.0518C137.419 38.2134 137.159 38.3619 136.951 38.423C136.858 38.45 136.837 38.4255 136.91 38.3255C136.964 38.2525 137.028 38.166 137.097 38.0913C137.206 37.9712 137.319 37.8485 137.425 37.7309C137.65 37.4854 137.829 37.1936 138.097 36.98C138.182 36.9179 138.235 36.7878 138.355 36.7913C138.372 36.7926 138.408 36.7669 138.418 36.7476C138.649 36.3168 139.044 36.0473 139.37 35.7153C139.646 35.431 139.808 35.032 140.135 34.8001C140.172 34.5086 140.368 34.3409 140.559 34.2243C141.242 33.8199 141.708 33.1558 142.278 32.6198C142.863 32.0821 143.403 31.4923 143.979 30.9454C144.081 30.8533 144.049 30.6422 144.25 30.6291C144.436 30.6179 144.512 30.4095 144.636 30.2876C144.75 30.1793 144.826 30.008 144.984 29.963C145.652 29.7889 145.977 29.2026 146.454 28.7994C146.926 28.3958 147.4 27.9896 147.769 27.4723C147.996 27.1556 148.105 26.7068 148.43 26.5033C148.568 26.4168 148.537 26.1143 148.919 26.3125C149.026 26.3694 148.93 26.0219 148.996 25.9384C149.158 25.7309 149.365 25.5698 149.558 25.399C149.828 25.157 150.124 24.9513 150.381 24.694C150.539 24.5376 150.6 24.2736 150.749 24.1137C150.908 23.946 151.101 23.8124 151.317 23.7119C151.593 23.5875 151.926 23.5247 152.194 23.3911C152.47 23.2496 152.633 22.9565 152.987 22.9238C153.633 22.8481 153.993 22.4444 154.487 22.1968C154.972 21.9458 155.45 21.6798 155.922 21.4078C156.054 21.3266 156.206 21.2868 156.353 21.2353C156.5 21.1838 156.638 21.1288 156.775 21.0594C156.84 21.0301 156.938 21.0206 157.007 21.0145C157.076 21.0084 157.119 21.0089 157.111 21.0425C157.107 21.0565 157.097 21.0757 157.083 21.0975C156.91 21.3413 156.837 21.6643 156.646 21.9496C156.343 22.3519 156.057 22.7727 155.749 23.1633L155.741 23.1598Z" fill="#141414"/>
<path d="M162.019 35.4737C161.721 35.6408 161.412 35.782 161.117 35.958C161.008 36.0258 160.855 35.9694 160.81 36.2495C160.786 36.3915 160.594 36.1805 160.492 36.2394C160.216 36.4028 159.912 36.4898 159.633 36.6413C159.361 36.787 159.117 37.019 158.842 37.1657C158.57 37.3114 158.229 37.2594 158.007 37.5204C157.813 37.7462 157.513 37.5466 157.3 37.6703C157.074 37.8047 156.83 37.9024 156.548 37.8413C156.343 37.7952 156.132 37.7311 155.972 37.8248C155.872 37.8828 155.816 38.0581 155.693 38.0713C155.576 38.0856 155.411 37.9905 155.403 38.2948C155.402 38.3215 155.336 38.2801 155.296 38.2469C155.114 38.0884 154.973 38.1399 154.91 38.2814C154.849 38.419 154.756 38.4257 154.666 38.4512C154.419 38.5201 154.17 38.593 153.912 38.6291C153.717 38.6552 153.502 38.6089 153.307 38.635C153.106 38.663 152.93 38.8208 152.716 38.7548C152.498 38.6896 152.327 38.7408 152.152 38.7869C152.052 38.8123 151.901 38.7421 151.89 38.9851C151.888 39.0088 151.85 39.0142 151.827 39.0021C151.449 38.7945 151.283 39.2312 150.968 39.23C150.644 39.2346 150.353 39.3603 150.046 39.4353C149.963 39.455 149.862 39.425 149.827 39.5709C149.814 39.6241 149.729 39.6447 149.68 39.6243C149.398 39.5039 149.195 39.6673 148.953 39.6918C148.679 39.7268 148.436 39.8501 148.133 39.8056C148.006 39.7872 147.845 39.8058 147.749 39.9577C147.705 40.0273 147.555 39.9997 147.462 40.036C147.386 40.0637 147.325 40.1321 147.246 40.1508C147.179 40.1658 147.097 40.136 147.021 40.134C146.997 40.1317 146.973 40.1393 146.956 40.148C146.603 40.346 146.169 40.281 145.791 40.4016C145.406 40.5112 145.002 40.581 144.603 40.6588C144.384 40.7024 144.154 40.73 143.987 40.711C143.912 40.7021 143.904 40.6783 143.987 40.6289C144.048 40.5932 144.119 40.5506 144.191 40.518C144.305 40.4651 144.423 40.4113 144.534 40.3594C144.769 40.2518 144.985 40.0974 145.241 40.0257C145.321 40.0069 145.398 39.9299 145.482 39.9685C145.494 39.9746 145.528 39.9672 145.541 39.9565C145.835 39.7182 146.199 39.6448 146.532 39.5059C146.815 39.3861 147.052 39.15 147.355 39.0828C147.469 38.8856 147.66 38.8248 147.832 38.7994C148.442 38.7165 148.975 38.3825 149.544 38.1715C150.124 37.9636 150.688 37.7051 151.265 37.4883C151.366 37.4531 151.406 37.2925 151.554 37.3438C151.691 37.3921 151.808 37.2662 151.933 37.2164C152.047 37.1734 152.153 37.074 152.28 37.0895C152.809 37.1666 153.219 36.8458 153.681 36.7016C154.14 36.5554 154.602 36.4083 155.021 36.1499C155.279 35.9922 155.492 35.7044 155.786 35.6568C155.91 35.6367 155.98 35.4112 156.193 35.6681C156.252 35.741 156.288 35.4637 156.361 35.4242C156.539 35.3247 156.736 35.2719 156.925 35.2082C157.191 35.1168 157.465 35.0591 157.726 34.9528C157.886 34.8887 158.009 34.7183 158.164 34.6492C158.328 34.5772 158.507 34.54 158.692 34.5335C158.926 34.5277 159.183 34.5835 159.415 34.5687C159.655 34.5511 159.86 34.3907 160.123 34.4742C160.607 34.615 160.986 34.4351 161.413 34.4071C161.836 34.3741 162.257 34.3283 162.677 34.2764C162.796 34.2582 162.916 34.2756 163.037 34.2831C163.157 34.2906 163.273 34.2931 163.392 34.2848C163.447 34.2836 163.52 34.3063 163.571 34.3228C163.622 34.3392 163.653 34.3525 163.637 34.374C163.63 34.3828 163.617 34.3935 163.601 34.4052C163.403 34.5271 163.253 34.7357 163.031 34.882C162.693 35.0782 162.361 35.2923 162.024 35.4787L162.019 35.4737Z" fill="#141414"/>
<g clip-path="url(#clip2_5106_4216)">
<path d="M51.8497 126.647L73.5096 102.346L66.8923 56.5022C66.8923 56.5022 65.3544 47.7248 66.7632 46.1047C68.1719 44.4846 72.8405 45.6586 73.2983 47.4548C73.7562 49.2509 71.4199 34.8932 71.4199 34.8932C71.4199 34.8932 71.4669 30.0642 74.0653 30.8625C76.6637 31.6609 79.0625 33.1596 79.0625 33.1596L79.5439 28.4637C79.5439 28.4637 81.2931 25.4857 82.1579 26.3662C83.0227 27.2467 87.1551 30.3617 87.3547 30.9604C87.5543 31.5591 90.6066 28.8629 90.6066 28.8629C90.6066 28.8629 94.5434 31.8604 94.7469 32.5609C94.9504 33.2614 98.0849 44.5198 98.0849 44.5198L99.208 47.4508C99.208 47.4508 99.1767 32.0248 99.3176 30.7569C99.4584 29.489 99.9437 25.8379 101.341 26.2019C102.738 26.5658 104.283 26.1784 104.283 26.1784L105.137 20.7703L109.175 20.0815L111.578 21.6703L113.628 16.137H116.626L118.825 17.4753L119.827 20.5707L122.562 18.7432L125.595 17.5731L127.317 20.0502L127.916 25.9632C127.916 25.9632 127.802 37.5738 127.884 40.0117C127.967 42.4497 128.616 58.6349 129.117 59.6328C129.618 60.6307 131.355 58.7523 131.355 58.7523L134.936 50.241C134.936 50.241 138.908 47.5526 140.606 47.4469C142.305 47.3413 145.4 49.2392 144.801 50.241C144.203 51.2428 140.313 58.8776 140.313 58.8776L137.499 67.8702L136.294 78.616L132.412 88.1487L131.113 90.9741L134.936 103.293L140.665 117.807C140.665 117.807 138.035 136.614 112.493 131.492C111.531 126.272 110.353 117.479 110.353 117.479L107.805 108.588L106.737 105.418L103.501 109.625L86.2238 135.562L78.4912 148.268C78.4912 148.268 59.1049 146.585 51.8458 126.636L51.8497 126.647Z" fill="white"/>
<path d="M55.1173 121.083C56.1621 119.913 57.2226 118.759 58.2361 117.565C58.6118 117.119 59.1401 116.794 59.277 116.098C59.3436 115.753 60.0362 115.616 60.3845 115.202C61.3198 114.078 62.345 113.026 63.2842 111.91C64.1999 110.823 65.0335 109.664 65.9452 108.576C66.8531 107.496 67.9684 106.541 68.708 105.387C69.3498 104.385 70.3046 103.818 70.9973 102.926C71.1812 102.691 71.369 102.456 71.5569 102.217L71.8269 101.889C71.8269 101.889 71.8464 101.857 71.8582 101.842C71.8934 101.818 71.8817 101.779 71.8934 101.74V101.724C71.8934 101.724 71.9051 101.724 71.9012 101.673V101.45C71.9012 101.302 71.9012 101.153 71.9051 101.008C71.9404 100.151 72.003 99.2981 71.8464 98.4645C71.7486 97.9441 71.4864 97.4745 71.4473 96.8992C71.4081 96.367 71.5295 95.7448 71.0638 95.3261C71.0247 95.2909 71.0755 95.0443 71.1225 94.9191C71.3377 94.3165 71.2477 93.6199 71.0129 93.1582C70.7859 92.7081 70.7664 92.2933 70.7116 91.859C70.5629 90.6693 70.4259 89.4758 70.3359 88.2783C70.2733 87.3822 70.3359 86.4782 70.2733 85.5821C70.2107 84.6468 69.9172 83.6724 70.015 82.7959C70.1168 81.9115 70.015 81.0897 69.9172 80.2444C69.8585 79.767 69.9837 79.1839 69.5141 78.8396C69.4711 78.8082 69.4554 78.6282 69.4789 78.5421C69.8702 77.106 68.9663 75.8576 68.9271 74.4606C68.8763 73.0245 68.571 71.5805 68.3245 70.1639C68.2658 69.7804 68.3049 69.3695 67.9449 69.0799C67.8158 68.9781 67.7336 68.5946 67.7766 68.3912C67.8823 67.8394 67.808 67.3776 67.6788 66.8493C67.5223 66.2976 67.3266 65.7536 67.2249 65.1979C66.9862 63.934 66.5048 62.7248 66.5518 61.3982C66.5674 60.8386 66.4931 60.099 65.9726 59.5355C65.7339 59.2772 65.7926 58.6276 65.6596 58.1776C65.55 57.8058 65.3074 57.4732 65.2291 57.1014C65.1665 56.7844 65.2604 56.4362 65.2761 56.0957C65.28 55.994 65.2604 55.8766 65.2213 55.7866C64.8378 54.9022 64.7204 53.9708 64.6656 53.0277C64.603 52.0846 64.603 51.1298 64.4582 50.1554L64.3682 49.4001C64.3565 49.1184 64.3369 48.864 64.3408 48.5588C64.3525 48.3788 64.3682 48.1987 64.3878 48.0187L64.4034 47.8857L64.4269 47.7839L64.4778 47.5765C64.5521 47.2987 64.5952 47.0365 64.7165 46.7469C64.826 46.4613 64.9161 46.1834 65.0922 45.8899C65.1743 45.7451 65.2448 45.6003 65.3426 45.4556C65.4522 45.3108 65.5617 45.166 65.6791 45.0251C65.7809 44.8842 65.9492 44.7512 66.09 44.622L66.317 44.4342C66.4031 44.3794 66.4892 44.3246 66.5792 44.2738C66.9236 44.0546 67.3227 43.9176 67.7023 43.8394C68.5554 43.6711 69.295 43.8316 69.8194 44.0742C70.3516 44.3246 70.692 44.6729 70.9033 45.1073C71.0912 45.4908 71.1068 45.8782 70.5785 45.9917C70.2029 46.066 69.8115 46.1052 69.475 46.0699C68.935 46.0112 68.4419 46.066 68.1562 46.2265C67.851 46.3947 67.7258 46.6804 67.5927 47.06C67.5653 47.1617 67.5301 47.2557 67.4949 47.3574C67.4675 47.4748 67.4401 47.5844 67.401 47.6939C67.3579 47.7996 67.3305 47.9248 67.2914 48.0461C67.2523 48.1674 67.2053 48.2887 67.1505 48.414C67.1231 48.4844 67.131 48.5314 67.127 48.594C67.127 48.6605 67.1231 48.6957 67.127 48.7936C67.127 48.9657 67.0957 49.1301 66.9275 49.2749C66.8805 49.314 66.8688 49.4706 66.8962 49.5371C67.5262 51.0476 67.4362 52.7616 67.7453 54.3973C68.0154 55.7905 68.6767 57.0584 68.7824 58.4906C69.3537 59.1754 69.4672 60.0911 69.5141 60.8934C69.5963 62.306 69.8742 63.6835 70.242 65.0218L70.5277 66.0158C70.6255 66.3523 70.7194 66.7515 70.8133 67.1193C70.9151 67.5028 70.9816 67.855 71.0481 68.2111C71.1147 68.5712 71.1773 68.9273 71.236 69.2873C71.6508 72.1792 72.0695 75.028 72.3982 77.8965C72.453 78.3856 72.7426 78.7769 72.6252 79.3678C72.5195 79.9235 72.7347 80.6005 72.8052 81.2266C72.8717 81.798 73.0282 82.3889 72.9852 82.9406C72.7974 85.226 73.3061 87.4565 73.4978 89.7106C73.6857 91.9529 73.8735 94.1991 74.2022 96.4179C74.4057 97.7719 74.7657 99.1063 74.8127 100.488C74.8205 100.781 74.8988 101.079 74.9301 101.376L74.9418 101.533L74.9536 101.736C74.9614 101.873 74.9614 102.006 74.9536 102.139C74.9496 102.272 74.9379 102.401 74.9144 102.523C74.9027 102.585 74.8909 102.644 74.8753 102.699L74.8518 102.781C74.844 102.808 74.7931 102.824 74.7657 102.843C74.617 102.93 74.4683 103.164 74.2844 103.466C74.2374 103.54 74.1905 103.622 74.1435 103.7C74.1005 103.771 74.0222 103.884 74.0105 103.92C73.9596 104.017 73.9048 104.111 73.8461 104.186C73.2474 104.91 72.6017 105.598 71.9756 106.299C71.1068 107.273 70.2146 108.232 69.3772 109.23C68.8645 109.84 68.4654 110.537 67.9645 111.159C67.4401 111.809 66.8805 112.435 66.2974 113.03C65.5578 113.785 64.7517 114.474 64.0199 115.237C63.2607 116.027 62.6385 117.002 61.805 117.659C60.2515 118.888 59.0892 120.453 57.7665 121.878C56.4517 123.294 55.1407 124.722 53.9198 126.217C53.2272 127.067 52.3115 127.587 51.5992 128.389C51.2666 128.765 50.0848 128.608 49.9674 128.233C49.9439 128.162 49.9478 128.053 49.987 127.978C50.4527 126.988 50.7305 125.947 51.5562 125.071C52.7732 123.779 53.9315 122.425 55.1133 121.099L55.1173 121.083Z" fill="#141414"/>
<path d="M76.0962 66.4943C75.9671 65.7704 75.8614 65.0425 75.6892 64.3303C75.6266 64.0642 75.7479 63.759 75.3409 63.5437C75.1375 63.4381 75.5092 63.1015 75.4466 62.855C75.2744 62.1937 75.2079 61.5049 75.0396 60.8397C74.8714 60.194 74.6053 59.5718 74.4331 58.93C74.2648 58.2922 74.3274 57.5878 73.987 57.0125C73.6935 56.5116 73.9204 55.9599 73.7326 55.4668C73.5369 54.9385 73.3608 54.3945 73.3961 53.831C73.4234 53.4201 73.4782 53.0053 73.3139 52.6453C73.2121 52.4184 72.9539 52.2462 72.903 51.9879C72.856 51.7492 72.9617 51.4361 72.5038 51.3422C72.4647 51.3344 72.5117 51.2092 72.5547 51.1426C72.7504 50.8139 72.6408 50.4891 72.4021 50.3209C72.1673 50.1526 72.1399 49.953 72.0773 49.7534C71.909 49.2056 71.7525 48.6538 71.6547 48.0903C71.5803 47.6677 71.6351 47.2137 71.5764 46.7911C71.5138 46.3489 71.2203 45.9263 71.3299 45.4762C71.4394 45.0262 71.3455 44.6427 71.2594 44.2475C71.2125 44.0205 71.3494 43.7192 70.8916 43.6174C70.8485 43.6096 70.8368 43.5196 70.8642 43.4766C71.279 42.7252 70.4455 42.2243 70.4689 41.5317C70.4924 40.8234 70.2811 40.1386 70.1794 39.4303C70.152 39.2424 70.2459 39.0272 69.925 38.8863C69.8115 38.8354 69.7763 38.6359 69.8428 38.5341C70.2068 37.9628 69.9015 37.4306 69.9446 36.871C69.9915 36.241 69.7919 35.5835 70.152 34.93C70.3046 34.6561 70.4181 34.2921 70.0815 33.8773C69.9407 33.6699 70.1715 33.3569 70.2224 33.0595C70.2498 32.8168 70.1598 32.5429 70.2889 32.2299C70.4102 31.9677 70.7037 31.7877 70.9268 31.6233C70.9972 31.5724 71.0638 31.4981 71.1029 31.4198C71.2085 31.1772 71.3964 31.0011 71.5842 30.825C71.7994 30.688 72.0303 30.5746 72.2651 30.4767C72.4099 30.4454 72.5586 30.4141 72.6995 30.3867C72.8012 30.3711 72.9069 30.3593 73.0086 30.3515C73.216 30.3437 73.4313 30.3593 73.6348 30.3672C73.8422 30.3672 74.0457 30.4141 74.2491 30.4258C74.4526 30.4376 74.6522 30.465 74.8557 30.4767C76.061 30.5276 77.1215 31.1263 77.9315 31.819C78.3815 32.1986 78.7533 32.7308 78.4285 33.5252C78.2837 33.8852 77.9746 34.0926 77.6889 34.1004C77.4737 34.1004 77.2584 34.1004 77.1176 34.0221C76.8945 33.8969 76.6441 33.8108 76.421 33.7247C75.9397 33.533 75.4036 33.6425 75.0748 33.3256C74.9614 33.2121 74.7657 33.3843 74.7344 33.0203C74.7305 32.9734 74.6796 32.9264 74.6483 32.9499C74.4996 33.0438 74.3744 33.0947 74.2531 33.126C74.1317 33.173 74.0183 33.1847 73.9048 33.1847C73.7913 33.2043 73.6739 33.2003 73.5565 33.1964C73.4978 33.1964 73.4391 33.2082 73.3765 33.2121C73.3217 33.216 73.3178 33.2082 73.2865 33.2121C73.2434 33.2121 73.2082 33.2317 73.173 33.2512C73.083 33.3256 73.1065 33.5017 73.1573 33.5956C73.1691 33.6269 73.1808 33.6582 73.1769 33.7091C73.1769 33.7482 73.1691 33.803 73.1652 33.8617C73.1495 33.9673 73.1104 34.0691 73.0439 34.1943C73.4 34.5348 73.3021 34.8596 73.1495 35.1765C72.8952 35.7361 72.8756 36.3701 72.9226 36.9884C72.9695 37.6145 73.0986 38.2406 73.1456 38.8785C73.2474 40.1777 73.5291 41.4691 73.76 42.7722C73.7991 42.9952 74.0731 43.1361 73.9439 43.4335C73.8226 43.7114 74.0222 44.0009 74.0848 44.2827C74.1396 44.541 74.2922 44.7953 74.2413 45.0614C74.0378 46.1728 74.5466 47.1433 74.7618 48.1686C74.9731 49.1977 75.2118 50.1917 75.5875 51.2248C75.8105 51.8431 76.1901 52.4223 76.2449 53.0836C76.2684 53.3654 76.5541 53.6002 76.2293 53.9563C76.1353 54.058 76.4914 54.2458 76.5384 54.418C76.6636 54.8446 76.7341 55.2868 76.828 55.7211C76.9532 56.3277 77.0471 56.9382 77.2076 57.533C77.3054 57.8969 77.5402 58.2295 77.6498 58.5896C77.7672 58.9652 77.8415 59.3566 77.8767 59.7518C77.9237 60.2488 77.8767 60.7653 77.9276 61.2584C77.9824 61.771 78.2641 62.268 78.1702 62.7846C78.002 63.7472 78.3385 64.616 78.4598 65.5239C78.5811 66.4239 78.7142 67.3279 78.9529 68.2083C79.0898 68.7092 78.8394 69.2297 78.9255 69.7228C78.9685 69.9537 78.0489 70.435 77.7006 70.3959C77.6341 70.388 77.5598 70.3606 77.5285 70.3293C77.1371 69.8989 76.5814 69.5349 76.5188 68.9753C76.4249 68.1496 76.241 67.3357 76.0962 66.5139V66.4943Z" fill="#141414"/>
<path d="M83.402 63.5874C83.2611 62.7852 83.1437 61.9751 82.9637 61.1807C82.8972 60.8833 83.0146 60.5468 82.6076 60.3002C82.4041 60.1789 82.7719 59.815 82.7054 59.5411C82.5254 58.8015 82.455 58.0384 82.2828 57.2988C82.1145 56.5787 81.8406 55.8783 81.6723 55.1582C81.504 54.446 81.5667 53.6634 81.234 53.0059C80.9445 52.4385 81.1792 51.832 80.9992 51.2724C80.8075 50.6775 80.6431 50.0553 80.694 49.4253C80.7292 48.9674 80.7997 48.5096 80.651 48.087C80.561 47.8248 80.3027 47.6135 80.2596 47.3161C80.2205 47.0421 80.3379 46.6978 79.88 46.5373C79.8409 46.5256 79.8918 46.3886 79.9348 46.3143C80.1461 45.966 80.0561 45.606 79.8253 45.3946C79.5983 45.1872 79.5826 44.9681 79.5279 44.745C79.387 44.1307 79.2539 43.5124 79.1796 42.8862C79.1248 42.4167 79.1991 41.9236 79.1561 41.4501C79.113 40.957 78.8352 40.4679 78.9643 39.9826C79.0935 39.4974 79.0113 39.0669 78.9448 38.6247C78.9056 38.3703 79.0543 38.0495 78.6043 37.9008C78.5613 37.8851 78.5535 37.7912 78.5808 37.7442C79.027 36.9459 78.2169 36.3276 78.2678 35.5645C78.3226 34.7858 78.1504 34.0032 78.0839 33.2127C78.0682 33.0014 78.1817 32.7705 77.8647 32.5866C77.7512 32.5239 77.7356 32.2931 77.8099 32.1835C78.2091 31.5808 77.9586 30.9469 78.0604 30.313C78.1817 29.6047 78.0721 28.7985 78.6395 28.0511C78.6982 27.9728 78.7687 27.8828 78.8274 27.7889C78.89 27.6872 78.9409 27.558 79.0113 27.4328C79.1365 27.1745 79.2187 26.8771 79.2931 26.521C79.3165 26.3449 79.4848 26.2001 79.6883 26.0749C79.7392 26.0436 79.79 26.0084 79.8448 25.981L80.0209 25.9184C80.1344 25.8714 80.2518 25.844 80.3379 25.7697C80.5023 25.6992 80.6627 25.6014 80.831 25.5114C81.0032 25.4175 81.1792 25.347 81.3123 25.3314C81.5549 25.2922 81.821 25.4488 82.0636 25.5231C82.1341 25.5427 82.228 25.5544 82.3024 25.5388C83.0459 25.3705 83.8324 25.6797 84.3881 26.1297C84.9634 26.5797 85.3312 27.1315 85.7538 27.5776C86.6108 28.5011 87.0217 29.6086 87.2918 30.6691C87.4405 31.256 87.46 31.9057 86.7752 32.4339C86.4661 32.6726 86.0982 32.7079 85.8438 32.5357C85.656 32.4065 85.4721 32.2578 85.3899 32.0935C85.2608 31.8274 85.0964 31.573 84.9516 31.3304C84.6503 30.8139 84.122 30.4577 84.032 29.9021C84.0007 29.7221 83.7346 29.6712 83.9381 29.3699C83.9655 29.3268 83.9498 29.2564 83.9107 29.2407C83.4881 29.1038 83.2494 28.912 83.0341 28.7203C82.8228 28.5324 82.6154 28.3446 82.3571 28.2976C82.138 28.2546 81.9071 28.3642 81.6958 28.4737C81.5627 28.5324 81.5745 28.5676 81.5471 28.5872C81.5236 28.6107 81.5001 28.6068 81.4453 28.595C81.551 28.7907 81.6293 28.8455 81.6449 28.8533C81.6527 28.8533 81.6449 28.8533 81.6254 28.865C81.5901 28.9081 81.5393 28.9355 81.4923 29.002C81.1401 29.4012 81.0227 30.0899 81.0149 30.7512C81.0031 31.4243 81.0775 32.1209 81.0892 32.8292C81.1088 34.2653 81.3358 35.7172 81.5158 37.1768C81.5471 37.4273 81.8132 37.6034 81.6723 37.9203C81.5393 38.2177 81.7271 38.5543 81.7819 38.8712C81.8288 39.1647 81.9658 39.4543 81.9071 39.7478C81.6606 40.9609 82.1302 42.0762 82.2984 43.2306C82.4667 44.385 82.6506 45.5394 82.9833 46.6665C83.1907 47.3552 83.5311 48.0087 83.5702 48.7366C83.5859 49.0457 83.8677 49.3196 83.5311 49.6914C83.4372 49.7971 83.7816 50.0201 83.8324 50.2119C83.9498 50.6893 84.0124 51.1745 84.0985 51.6598C84.2159 52.3329 84.3059 53.0098 84.4625 53.6712C84.5603 54.0743 84.7912 54.4499 84.9047 54.853C85.0221 55.2717 85.0964 55.7061 85.1316 56.1405C85.1786 56.6922 85.1316 57.2596 85.1903 57.8075C85.249 58.3788 85.5308 58.9306 85.4447 59.5019C85.2843 60.5624 85.6325 61.5329 85.7695 62.5386C85.9065 63.5365 86.0513 64.5383 86.3095 65.5166C86.4543 66.0723 86.2117 66.6397 86.3134 67.1915C86.3604 67.4498 85.4486 67.9585 85.0964 67.9076C85.0299 67.8998 84.9555 67.8685 84.9242 67.8294C84.5212 67.3441 83.9577 66.9332 83.8794 66.311C83.7659 65.3953 83.5702 64.4874 83.4098 63.5796L83.402 63.5874Z" fill="#141414"/>
<path d="M91.2795 62.2838C91.1504 61.5481 91.0447 60.8085 90.8726 60.0806C90.8099 59.8106 90.9313 59.4975 90.5282 59.2784C90.3247 59.1688 90.7004 58.8284 90.6378 58.5779C90.4695 57.9009 90.4108 57.2004 90.2464 56.5234C90.0899 55.8621 89.8238 55.2242 89.6634 54.5668C89.5068 53.9133 89.5773 53.1933 89.2525 52.5984C88.9707 52.0819 89.2133 51.5223 89.0411 51.0097C88.8611 50.4657 88.7007 49.8983 88.7477 49.3231C88.7829 48.9004 88.8494 48.4778 88.7007 48.0943C88.6068 47.8556 88.3524 47.6638 88.3133 47.3899C88.2781 47.1355 88.4033 46.8147 87.9493 46.6738C87.9102 46.662 87.965 46.5329 88.008 46.4664C88.2233 46.1416 88.145 45.8129 87.918 45.6172C87.6989 45.4294 87.6833 45.2259 87.6363 45.0185C87.5072 44.451 87.3937 43.8836 87.335 43.3045C87.2919 42.8701 87.378 42.4162 87.3506 41.9818C87.3193 41.5278 87.0571 41.0739 87.198 40.6317C87.3428 40.1856 87.2724 39.7904 87.2176 39.3795C87.1863 39.1447 87.3428 38.8512 86.9006 38.7103C86.8576 38.6986 86.8536 38.6086 86.881 38.5655C87.3506 37.8376 86.5601 37.2546 86.6384 36.5502C86.7245 35.8262 86.5758 35.1062 86.5484 34.3627C86.5367 34.167 86.6658 33.9518 86.3567 33.7679C86.2471 33.7013 86.2353 33.49 86.3175 33.3844C86.7519 32.8365 86.5328 32.226 86.6893 31.6156C86.7362 31.4395 86.7754 31.2595 86.8106 31.0794C86.8458 30.8994 86.8967 30.6999 86.9515 30.512C87.0102 30.3203 87.0963 30.1246 87.2293 29.882C87.3858 29.655 87.5541 29.4359 87.7811 29.2911C87.9728 29.1659 88.1685 29.0172 88.3798 28.8606C88.4307 28.8176 88.4776 28.7706 88.5285 28.7237C88.5833 28.6884 88.6342 28.6454 88.685 28.5984C88.7359 28.5515 88.7868 28.4967 88.8337 28.438C88.8572 28.4028 88.8846 28.3871 88.9003 28.3363L88.9746 28.2384C88.9942 28.2071 89.0216 28.1797 89.0646 28.1523C89.1859 28.0819 89.3738 28.0506 89.5694 28.0271C89.7534 28.0193 89.9021 28.0271 90.039 27.9958C90.2934 27.9488 90.5595 27.7532 90.8452 27.7806C91.0878 27.7923 91.303 27.9919 91.5104 28.121C91.573 28.1562 91.6552 28.1797 91.7256 28.1797C92.4418 28.1562 93.064 28.5632 93.4827 29.025C93.9132 29.4946 94.1832 30.0072 94.5432 30.4298C95.2632 31.2908 95.6193 32.3043 95.8463 33.2787C95.9715 33.8187 95.9794 34.4175 95.2867 34.9105C94.9736 35.1336 94.6058 35.1727 94.3554 35.0162C94.1714 34.8988 93.9875 34.7696 93.9132 34.617C93.7918 34.3744 93.6353 34.1396 93.4983 33.9166C93.2166 33.4431 92.7118 33.1143 92.657 32.59C92.6374 32.4217 92.3792 32.363 92.6061 32.0852C92.6374 32.046 92.6257 31.9756 92.5905 31.9638C92.1874 31.823 91.9722 31.6195 91.7843 31.4082C91.5965 31.2008 91.4282 30.9777 91.1934 30.8916C90.9978 30.8133 90.7786 30.876 90.5908 30.9464C90.5008 30.9738 90.403 31.0207 90.313 31.0325C90.223 31.0599 90.0899 31.0599 90.0821 31.0207C90.086 31.0794 90.0938 31.1264 90.1016 31.1655C90.1682 31.4199 90.1916 31.3221 90.0782 31.2673C90.0273 31.2438 89.9803 31.2203 89.9373 31.2516C89.9138 31.2634 89.8747 31.3182 89.8473 31.3534C89.8199 31.4003 89.7964 31.459 89.769 31.5138C89.7181 31.6156 89.6829 31.7486 89.6555 31.8817C89.6203 32.0069 89.6047 32.1517 89.5929 32.2965C89.5381 32.8756 89.5773 33.4978 89.5538 34.1318C89.5147 35.4232 89.6868 36.7498 89.8199 38.0842C89.8434 38.3111 90.1016 38.4755 89.9529 38.7651C89.8121 39.039 89.9882 39.3442 90.0312 39.6338C90.0703 39.8999 90.1956 40.166 90.129 40.436C89.8473 41.5474 90.2856 42.5688 90.4225 43.6293C90.5595 44.6858 90.716 45.7463 91.0252 46.7716C91.213 47.3977 91.5652 47.9886 91.6043 48.65C91.62 48.9317 91.9017 49.1783 91.5652 49.5305C91.4713 49.6283 91.8156 49.8318 91.8587 50.004C91.9722 50.4383 92.027 50.8884 92.1052 51.3306C92.2148 51.9449 92.297 52.5671 92.4457 53.1737C92.5357 53.5455 92.7627 53.8859 92.8722 54.2538C92.9818 54.6373 93.0522 55.0364 93.0835 55.4356C93.1227 55.9443 93.0718 56.4647 93.1188 56.9696C93.1696 57.4939 93.4436 57.9987 93.3536 58.5231C93.1814 59.5014 93.514 60.3858 93.6353 61.3094C93.7566 62.2251 93.8897 63.1447 94.1362 64.0369C94.2732 64.5456 94.0266 65.07 94.1206 65.5748C94.1636 65.8096 93.2479 66.2909 92.8957 66.2518C92.8292 66.244 92.7548 66.2166 92.7235 66.1814C92.3283 65.7392 91.7687 65.3713 91.7022 64.8C91.6004 63.9586 91.4165 63.129 91.2717 62.2955L91.2795 62.2838Z" fill="#141414"/>
<path d="M83.3355 137.236C84.6582 135.013 85.9848 132.791 87.3075 130.568C87.7966 129.738 88.4619 128.995 88.6849 127.95C88.7945 127.43 89.6554 126.87 90.1133 126.107C91.3655 124.041 92.7391 122.041 94.0539 120.01C95.3336 118.034 96.5584 116.022 97.9437 114.093C99.3173 112.18 100.976 110.399 102.381 108.548C102.992 107.746 103.708 107.077 104.471 106.462L104.988 106.028L105.473 105.609C105.794 105.324 106.115 105.038 106.412 104.717C107.606 103.281 108.791 101.766 109.918 100.291C110.337 99.7589 110.775 99.2424 111.139 98.6671C111.507 98.0997 111.891 97.5401 112.161 96.914C112.333 96.5266 112.466 96.1313 112.607 95.7361C112.751 95.3409 112.9 94.9378 113.092 94.5191C113.464 93.7521 114.047 92.9381 113.929 92.0811C113.922 92.0107 114.137 91.6859 114.266 91.5254C114.575 91.1537 114.818 90.6919 114.994 90.2301C115.17 89.7645 115.295 89.3027 115.334 88.9075C115.397 88.1287 115.643 87.5143 115.843 86.8413C116.395 85.0059 116.872 83.1237 117.252 81.3157L117.342 80.8266L117.393 80.584L117.42 80.4C117.463 80.3374 117.502 79.4569 117.631 79.1126C117.862 78.2282 118.156 77.5042 118.441 76.7803C119.028 75.2776 119.51 73.6849 120.234 72.4522C120.594 71.8378 120.907 71.2156 121.157 70.6012C121.404 69.9947 121.627 69.349 121.689 68.8833C121.697 68.8207 121.713 68.7346 121.721 68.6837L121.736 68.5781C121.744 68.5116 121.744 68.4411 121.717 68.3824C121.67 68.2572 121.49 68.2063 121.333 68.3824C121.294 68.4098 121.29 68.3981 121.235 68.355C121.149 68.2611 120.938 68.1946 120.719 68.1515C120.605 68.1359 120.488 68.1202 120.375 68.1124C120.253 68.1124 120.128 68.1124 120.007 68.1124C119.506 68.1398 118.989 68.2415 118.473 68.3824L118.085 68.4881C118.003 68.5272 117.925 68.5507 117.839 68.5937C117.67 68.6759 117.498 68.7698 117.318 68.8912C116.958 69.122 116.583 69.4038 116.176 69.6895C115.33 70.2843 114.54 71.11 113.808 71.9905C113.072 72.8748 112.391 73.8336 111.714 74.7963C111.354 75.3089 110.869 75.7941 110.795 76.4477C110.783 76.5611 110.685 76.7607 110.56 76.9564C110.521 77.019 110.372 77.2381 110.259 77.3947C110.141 77.5551 110.032 77.6999 109.938 77.8056C109.668 78.1186 109.398 78.4512 109.151 78.7682C108.897 79.0813 108.658 79.4374 108.416 79.7152L108.056 80.1613C107.938 80.2513 107.825 80.3218 107.707 80.404L107.535 80.5253C107.48 80.5644 107.433 80.5722 107.382 80.5957L107.089 80.7288C107.003 80.7601 106.925 80.7796 106.839 80.807C106.752 80.8344 106.69 80.8618 106.565 80.8657C106.318 80.8931 105.919 80.7874 105.758 80.674C105.735 80.6622 105.723 80.6505 105.708 80.6387C105.692 80.6231 105.676 80.5918 105.657 80.5683L105.559 80.4235L105.363 80.13C105.234 79.9344 105.105 79.7309 104.984 79.5235L104.815 79.2417L104.729 79.1048C104.729 79.1048 104.714 79.0852 104.71 79.0656L104.698 78.9913L104.675 78.8426C104.549 78.0677 104.428 77.2929 104.303 76.5181L104.111 75.3559L103.97 74.6515C103.79 73.7397 103.657 72.8201 103.591 71.8731C103.532 70.9847 103.356 69.7873 102.726 68.8442C102.44 68.4098 102.389 67.3845 102.174 66.6528C101.994 66.054 101.677 65.5101 101.524 64.9114C101.395 64.4026 101.427 63.8509 101.372 63.3148C101.356 63.1543 101.309 62.9665 101.25 62.8178C100.092 59.9807 99.9238 56.9127 99.0394 53.9855C98.1472 51.0467 97.3998 48.0257 96.6562 45.0281C96.2454 43.3767 95.9049 41.6549 96.3354 40.3361C96.531 39.7413 96.8871 39.6395 97.2902 40.2813C97.5876 40.7509 97.8928 41.3027 98.0924 41.8779C98.4172 42.7975 98.7459 43.7172 99.0629 44.6133C99.7008 46.4799 100.55 48.28 100.886 50.3071C100.992 50.9371 101.376 51.6063 101.18 52.2011C101.153 52.2833 101.196 52.5416 101.25 52.655C102.448 55.1517 102.816 57.981 103.524 60.6577C104.127 62.9391 105.081 65.0562 105.442 67.4276C106.158 68.6055 106.42 70.1356 106.576 71.4622C106.69 72.3661 106.803 73.2779 106.952 74.178L107.007 74.5145C107.022 74.6162 107.05 74.7728 107.05 74.7806L107.073 75.0271C107.093 75.1954 107.116 75.3637 107.144 75.5319C107.163 75.6728 107.167 75.8176 107.214 75.9311C107.238 75.9546 107.281 75.9585 107.308 75.9311C107.336 75.9076 107.351 75.8685 107.371 75.8411L107.476 75.6533L107.574 75.4811C107.609 75.4224 107.625 75.395 107.707 75.2658L108.243 74.4715L108.87 73.5792C110.286 71.6304 111.73 69.666 113.62 67.9011C114.098 67.4628 114.614 67.0402 115.201 66.6567C115.784 66.2771 116.446 65.9249 117.248 65.7214L117.549 65.651L117.78 65.6118L118.242 65.5297C118.559 65.4827 118.868 65.4318 119.193 65.4005C119.834 65.3262 120.511 65.287 121.275 65.3575L121.466 65.3731L121.689 65.4044C121.842 65.4279 121.979 65.4397 122.143 65.4788C122.315 65.5218 122.484 65.5688 122.656 65.6236C122.82 65.6862 122.981 65.7645 123.145 65.8466C123.771 66.191 124.319 66.8367 124.413 67.7133C124.429 67.9167 124.456 68.1281 124.448 68.3355C124.448 68.4411 124.44 68.5468 124.436 68.6524C124.433 68.7542 124.429 68.8794 124.413 68.9498C124.39 69.1142 124.366 69.2825 124.339 69.4507C124.303 69.6112 124.272 69.7755 124.237 69.9399C124.088 70.5465 123.928 71.11 123.74 71.6148C123.392 72.5422 123.09 73.501 122.648 74.2836C122.19 75.0937 121.779 75.9154 121.412 76.749C121.051 77.5786 120.727 78.4278 120.519 79.23C120.457 79.4374 120.437 79.6135 120.398 79.8013C120.375 79.9031 120.386 79.9578 120.378 80.0361L120.367 80.1457L120.355 80.3413C120.331 80.9596 120.245 81.4018 120.175 81.9066C120.007 82.8654 119.803 83.8007 119.557 84.7164C118.563 88.3635 117.252 91.905 115.765 95.3643C115.334 96.4327 114.837 97.4697 114.368 98.5302C114.105 99.0467 113.832 99.5594 113.546 100.068C113.401 100.322 113.264 100.577 113.108 100.823C112.943 101.066 112.779 101.309 112.607 101.547C112.313 101.954 112.071 102.412 111.789 102.839C111.487 103.253 111.135 103.641 110.681 103.915C110.423 104.067 110.106 105.011 109.664 105.496L108.87 106.415C108.733 106.568 108.607 106.725 108.463 106.869L108.016 107.292L107.124 108.133L106.279 108.92C104.804 110.278 103.411 111.87 102.131 113.538C101.348 114.555 100.71 115.678 99.9825 116.739C99.2194 117.854 98.429 118.969 97.6267 120.065C96.6093 121.454 95.5371 122.8 94.5587 124.229C93.5413 125.704 92.696 127.379 91.6316 128.737C89.6476 131.261 88.141 134.082 86.4818 136.806C84.8343 139.514 83.2142 142.257 81.7272 145.051C80.8819 146.64 79.7901 147.904 78.9409 149.446C78.5457 150.162 77.1526 150.663 77.0156 150.205C76.9882 150.119 76.996 149.966 77.0391 149.837C77.5948 148.17 77.9431 146.546 78.9448 144.832C80.4084 142.296 81.872 139.752 83.3355 137.213V137.236Z" fill="#141414"/>
<path d="M111.198 131.426C111.116 130.965 111.057 130.503 110.936 130.049C110.889 129.881 111.034 129.673 110.646 129.56C110.455 129.501 110.842 129.262 110.799 129.106C110.674 128.687 110.662 128.245 110.541 127.822C110.427 127.411 110.204 127.024 110.087 126.613C109.973 126.206 110.087 125.744 109.805 125.384C109.558 125.071 109.832 124.703 109.695 124.386C109.551 124.05 109.433 123.698 109.527 123.326C109.598 123.056 109.695 122.782 109.578 122.547C109.504 122.398 109.269 122.293 109.253 122.121C109.238 121.96 109.386 121.753 108.948 121.69C108.913 121.686 108.971 121.6 109.022 121.557C109.261 121.338 109.206 121.134 108.995 121.025C108.791 120.919 108.791 120.794 108.76 120.665C108.674 120.317 108.596 119.964 108.572 119.608C108.557 119.338 108.666 119.049 108.658 118.779C108.651 118.497 108.408 118.235 108.564 117.945C108.721 117.656 108.666 117.413 108.619 117.162C108.592 117.022 108.756 116.822 108.314 116.779C108.271 116.779 108.267 116.72 108.298 116.689C108.772 116.184 107.981 115.914 108.044 115.48C108.107 115.034 107.931 114.615 107.837 114.188C107.813 114.075 107.911 113.93 107.59 113.879C107.477 113.86 107.445 113.742 107.508 113.672C107.864 113.281 107.551 112.991 107.563 112.654C107.574 112.271 107.316 111.93 107.571 111.5C107.676 111.316 107.711 111.089 107.293 110.968C107.101 110.913 107.246 110.698 107.179 110.569C107.124 110.463 106.929 110.389 106.901 110.279C106.878 110.185 107.019 110.064 107.074 109.954C107.089 109.923 107.085 109.888 107.058 109.864C106.522 109.402 107.011 108.757 106.796 108.232C106.577 107.704 106.526 107.141 106.49 106.577C106.471 106.268 106.537 105.931 107.254 105.591C107.578 105.438 107.942 105.372 108.181 105.462C108.357 105.528 108.525 105.611 108.584 105.712C108.678 105.873 108.799 106.033 108.893 106.19C109.085 106.518 109.496 106.804 109.375 107.199C109.335 107.325 109.558 107.418 109.241 107.575C109.198 107.595 109.179 107.645 109.21 107.665C109.821 108.056 109.566 108.62 109.695 109.109C109.805 109.524 110.29 109.856 110.188 110.31C110.646 110.467 110.623 110.756 110.541 111.015C110.247 111.923 110.697 112.705 110.783 113.547C110.873 114.4 111.085 115.233 111.214 116.082C111.233 116.227 111.496 116.309 111.343 116.509C111.198 116.697 111.37 116.877 111.406 117.061C111.437 117.229 111.558 117.389 111.48 117.569C111.163 118.305 111.546 118.927 111.617 119.597C111.687 120.266 111.766 120.935 111.992 121.573C112.129 121.96 112.431 122.32 112.415 122.739C112.407 122.919 112.666 123.06 112.306 123.298C112.204 123.365 112.533 123.475 112.564 123.584C112.646 123.854 112.673 124.136 112.724 124.41C112.795 124.793 112.834 125.181 112.943 125.556C113.01 125.787 113.213 125.987 113.296 126.214C113.382 126.453 113.425 126.699 113.429 126.95C113.436 127.27 113.35 127.603 113.366 127.92C113.382 128.249 113.624 128.55 113.499 128.89C113.264 129.524 113.538 130.064 113.601 130.64C113.663 131.215 113.738 131.786 113.922 132.338C114.027 132.651 113.746 133.003 113.808 133.316C113.836 133.461 112.9 133.837 112.556 133.833C112.489 133.833 112.419 133.821 112.392 133.802C112.032 133.547 111.499 133.352 111.468 132.992C111.421 132.463 111.292 131.947 111.198 131.426Z" fill="#141414"/>
<path d="M132.913 93.2801C133.093 93.7692 133.249 94.2662 133.468 94.7397C133.55 94.9158 133.453 95.1623 133.863 95.2289C134.067 95.2602 133.73 95.585 133.813 95.7454C134.028 96.1837 134.137 96.665 134.345 97.1033C134.548 97.5338 134.85 97.9212 135.053 98.3517C135.257 98.7782 135.237 99.2987 135.597 99.6469C135.91 99.9483 135.718 100.394 135.922 100.719C136.137 101.064 136.333 101.427 136.317 101.846C136.305 102.151 136.266 102.464 136.435 102.703C136.54 102.852 136.798 102.93 136.849 103.118C136.896 103.29 136.798 103.541 137.245 103.541C137.284 103.541 137.241 103.642 137.198 103.701C137.01 103.975 137.108 104.19 137.338 104.276C137.565 104.359 137.589 104.495 137.648 104.629C137.808 104.996 137.965 105.364 138.062 105.752C138.137 106.041 138.094 106.378 138.16 106.671C138.231 106.976 138.524 107.223 138.434 107.563C138.344 107.904 138.45 108.162 138.548 108.424C138.602 108.577 138.489 108.82 138.931 108.796C138.974 108.796 138.99 108.851 138.966 108.89C138.606 109.512 139.444 109.684 139.479 110.166C139.514 110.663 139.78 111.089 139.96 111.539C140.007 111.661 139.941 111.833 140.269 111.837C140.387 111.837 140.446 111.962 140.395 112.052C140.125 112.533 140.496 112.799 140.559 113.171C140.63 113.594 140.958 113.919 140.802 114.431C140.735 114.646 140.751 114.905 141.193 114.967C141.397 114.999 141.299 115.253 141.393 115.382C141.471 115.488 141.682 115.543 141.729 115.656C141.772 115.754 141.659 115.91 141.627 116.036C141.62 116.075 141.627 116.11 141.663 116.133C142.293 116.556 141.948 117.335 142.277 117.871C142.606 118.411 142.778 119.018 142.938 119.624C143.024 119.961 143.032 120.336 142.394 120.822C142.109 121.041 141.76 121.17 141.502 121.107C141.314 121.064 141.13 120.998 141.048 120.9C140.919 120.739 140.766 120.587 140.641 120.43C140.379 120.102 139.909 119.855 139.945 119.405C139.956 119.264 139.714 119.194 139.996 118.975C140.035 118.943 140.039 118.885 140.007 118.873C139.319 118.544 139.448 117.887 139.217 117.378C139.021 116.944 138.465 116.658 138.469 116.145C137.98 116.043 137.945 115.727 137.968 115.433C138.062 114.396 137.452 113.613 137.178 112.713C136.904 111.798 136.513 110.921 136.208 110.017C136.157 109.864 135.883 109.814 135.988 109.571C136.09 109.344 135.879 109.172 135.808 108.976C135.742 108.796 135.585 108.64 135.624 108.436C135.777 107.583 135.268 106.969 135.049 106.249C134.834 105.532 134.615 104.816 134.251 104.155C134.032 103.752 133.656 103.408 133.578 102.95C133.547 102.754 133.261 102.641 133.566 102.32C133.652 102.23 133.304 102.163 133.249 102.05C133.108 101.768 133.022 101.467 132.913 101.173C132.76 100.766 132.639 100.347 132.451 99.9561C132.337 99.7174 132.091 99.5295 131.962 99.2947C131.825 99.0482 131.731 98.786 131.672 98.5121C131.598 98.1638 131.609 97.7881 131.523 97.4438C131.437 97.0877 131.132 96.7981 131.183 96.4068C131.277 95.6789 130.889 95.135 130.702 94.5167C130.514 93.9023 130.318 93.2879 130.017 92.7126C129.845 92.3878 130.048 91.9613 129.919 91.6287C129.86 91.4721 130.705 90.9204 131.046 90.8656C131.112 90.8539 131.183 90.8578 131.218 90.8734C131.633 91.0926 132.2 91.2217 132.306 91.6091C132.466 92.1804 132.705 92.7205 132.913 93.2762V93.2801Z" fill="#141414"/>
<path d="M129.598 59.586C130.122 58.4668 130.639 57.3359 131.034 56.1737C131.175 55.7589 131.523 55.3323 131.394 54.7023C131.343 54.3892 131.919 54.1035 132.122 53.6887C132.654 52.5343 133.402 51.4856 134.196 50.472C134.971 49.4898 135.808 48.488 136.928 47.7367C137.483 47.3727 138.109 47.0832 138.759 46.8719L139.244 46.7075C139.409 46.6644 139.577 46.6175 139.741 46.5744C140.066 46.4688 140.399 46.3983 140.723 46.3005C140.997 46.2027 141.322 46.1988 141.624 46.1949C141.917 46.1792 142.257 46.2653 142.571 46.3357C142.649 46.3553 142.727 46.371 142.805 46.3983L143.048 46.4962L143.529 46.7036C143.686 46.7897 143.846 46.8953 144.003 46.9892L144.238 47.138L144.461 47.3219C144.613 47.4549 144.785 47.5841 144.911 47.7445C145.04 47.901 145.161 48.0693 145.279 48.2376C145.466 48.5819 145.642 48.9537 145.713 49.3098C145.885 50.0338 145.862 50.7342 145.678 51.3369C145.552 51.783 145.365 52.19 145.165 52.5891C145.071 52.7887 144.946 52.9804 144.844 53.1761L144.48 53.7709C144.39 53.8961 144.308 54.0292 144.226 54.1622C144.21 54.1936 144.175 54.2366 144.171 54.2562L144.155 54.307L144.128 54.4088C144.097 54.5184 144.034 54.714 143.925 54.851C143.721 55.1327 143.338 55.4419 143.545 55.9467C143.561 55.9897 143.412 56.1071 143.322 56.1658C142.88 56.428 142.661 56.9367 142.676 57.3555C142.692 57.7624 142.547 58.0481 142.418 58.3651C142.077 59.2377 141.749 60.1221 141.381 60.9948C141.107 61.6483 140.727 62.2627 140.461 62.924C140.191 63.6167 140.133 64.4267 139.749 65.0215C139.362 65.6242 139.193 66.2542 139.041 66.9077C138.951 67.2795 138.657 67.6708 139.002 68.07C139.033 68.1052 138.994 68.2421 138.947 68.3008C138.571 68.7704 138.501 69.3105 138.493 69.8544C138.505 70.4023 138.544 70.9501 138.411 71.4784C138.109 72.5663 138.117 73.7207 138.082 74.8595C138.074 75.1647 137.937 75.4856 138.239 75.7791C138.344 75.8808 138.348 76.2056 138.27 76.3622C137.832 77.2192 138.082 78.1701 137.933 79.1406C137.765 80.2245 137.742 81.4572 137.053 82.4355C136.759 82.8386 136.474 83.4178 136.587 84.0674C136.642 84.3726 136.255 84.7835 136.118 85.1592C135.988 85.4644 135.996 85.8283 135.844 86.1179C135.711 86.3644 135.448 86.5366 135.229 86.7284C135.167 86.7871 135.108 86.8732 135.084 86.9553C134.959 87.3467 134.795 87.7184 134.568 88.0511C134.341 88.3798 134.083 88.685 133.817 88.9863C133.257 89.5655 132.666 90.0977 132.161 90.7199C131.152 91.9761 129.892 93.0405 128.538 93.9327C127.798 94.4297 126.918 94.8249 126.017 94.4336C125.607 94.2575 125.47 93.9131 125.665 93.5609C125.81 93.2987 125.978 93.0209 126.201 92.837C126.557 92.5396 126.882 92.203 127.207 91.8939C127.884 91.2364 128.342 90.3873 129.164 89.8864C129.418 89.722 129.516 89.3346 129.935 89.4011C129.993 89.409 130.099 89.3424 130.122 89.2837C130.612 88.0041 131.684 87.2214 132.388 86.1257C132.662 85.6483 132.881 85.1513 133.05 84.6348C133.14 84.3804 133.237 84.13 133.355 83.8873C133.476 83.6486 133.582 83.4021 133.742 83.1751C133.672 82.8151 133.746 82.4864 133.84 82.1929C133.926 81.8994 134.106 81.6372 134.239 81.3907C134.768 80.518 134.963 79.528 135.01 78.4636C135.061 77.3953 134.987 76.2408 135.065 75.063C135.194 72.668 135.472 70.2379 136 67.9056C136.082 67.5065 135.941 67.1151 136.227 66.6925C136.501 66.2973 136.501 65.7064 136.642 65.1976C136.763 64.7359 136.822 64.2311 137.049 63.828C138.008 62.1844 138.356 60.3452 139.084 58.6234C139.44 57.7703 139.823 56.9211 140.215 56.068C140.61 55.2149 141.005 54.3657 141.494 53.4774C141.565 53.3444 141.659 53.1996 141.741 53.0587L141.866 52.8474L142.031 52.6165L142.203 52.3856L142.246 52.3269L142.257 52.2995L142.281 52.2487C142.312 52.1821 142.351 52.1313 142.383 52.0452C142.516 51.7478 142.633 51.3838 142.747 51.0238C142.782 50.8712 142.778 50.699 142.766 50.5503C142.778 50.3899 142.794 50.2686 142.981 50.0885C143.028 50.0377 142.954 49.9672 142.876 49.8968C142.798 49.8185 142.672 49.799 142.653 49.7364C142.555 49.6268 142.504 49.5407 142.383 49.482C142.355 49.4663 142.328 49.4468 142.301 49.4233L142.179 49.3842C142.136 49.3724 142.105 49.3489 142.058 49.3372L141.894 49.3176C141.757 49.2785 141.565 49.2942 141.385 49.2942H141.248L141.095 49.3137L140.786 49.3529C140.579 49.3724 140.379 49.4507 140.176 49.4937C139.972 49.5524 139.78 49.6424 139.585 49.7168C139.115 49.9516 138.732 50.3312 138.329 50.6755C137.894 51.016 137.475 51.4034 137.033 51.7791C136.485 52.2682 135.91 52.777 135.441 53.3952C134.951 54.037 134.724 54.8666 134.235 55.4849C134.004 55.7745 133.82 56.0954 133.66 56.4241C133.492 56.7606 133.339 57.1598 133.19 57.5276C132.893 58.279 132.607 59.0303 132.263 59.7582C131.566 61.1983 130.839 62.6149 130.115 64.055C129.696 64.8807 128.984 65.4168 128.412 66.1759C128.35 66.266 128.209 66.3286 128.06 66.356C127.911 66.3833 127.735 66.3834 127.555 66.3481C127.211 66.2816 126.953 66.0703 126.894 65.8942C126.871 65.8277 126.863 65.7377 126.886 65.6829C127.019 65.3229 127.082 64.9002 127.172 64.4893C127.266 64.0784 127.387 63.6675 127.638 63.2762C128.381 62.1179 128.988 60.8422 129.59 59.5782L129.598 59.586Z" fill="#141414"/>
<path d="M119.005 42.9773C119.037 41.682 119.095 40.3867 119.087 39.0914C119.087 38.6101 119.275 38.121 118.927 37.6122C118.755 37.3579 119.193 36.9039 119.185 36.4578C119.17 35.2486 119.267 34.0394 119.26 32.8302C119.252 31.6563 119.142 30.4784 119.138 29.3005C119.138 28.1343 119.373 26.9369 119.201 25.8059C119.052 24.8237 119.424 23.9589 119.393 23.0158C119.373 22.5188 119.377 21.9944 119.404 21.4818C119.436 21.1805 119.463 20.8987 119.526 20.5896C119.573 20.4096 119.627 20.2335 119.686 20.0574C119.757 19.8852 119.843 19.7208 119.929 19.5604C120.207 19.1064 120.547 18.7034 120.923 18.3903C121.291 18.0655 121.678 17.8033 122.054 17.549C122.519 17.232 122.938 16.8328 123.545 16.6959C123.822 16.6372 124.128 16.6294 124.421 16.5902C124.496 16.5785 124.566 16.5667 124.64 16.555C124.711 16.5393 124.777 16.5198 124.879 16.4924C125.067 16.4415 125.27 16.3906 125.47 16.2928C125.509 16.2732 125.658 16.2928 125.803 16.3398C125.904 16.3828 126.006 16.4298 126.073 16.4689C126.464 16.692 126.84 16.9894 127.153 17.3103C127.47 17.6311 127.736 17.9716 127.982 18.269C128.041 18.3355 128.104 18.4255 128.147 18.4881C128.19 18.5429 128.225 18.5977 128.26 18.6486C128.327 18.7582 128.381 18.8638 128.424 18.9695C128.514 19.1847 128.569 19.3921 128.628 19.5995C128.929 20.7422 129.07 21.8066 129.062 22.918C129.054 23.6615 128.921 24.405 128.906 25.1485C128.89 25.9233 129.109 26.7451 128.929 27.4652C128.749 28.1891 128.784 28.8739 128.808 29.5783C128.82 29.9775 128.644 30.451 129.082 30.764C129.121 30.7914 129.121 30.944 129.09 31.0145C128.573 32.1728 129.34 33.2685 129.242 34.4268C129.141 35.6204 129.281 36.8413 129.34 38.0466C129.356 38.3675 129.242 38.7158 129.559 39.0014C129.673 39.1032 129.692 39.4397 129.622 39.608C129.231 40.512 129.52 41.4472 129.481 42.3629C129.434 43.4078 129.665 44.4487 129.375 45.5092C129.254 45.9592 129.199 46.5697 129.61 47.0901C129.798 47.3289 129.634 47.8454 129.688 48.2289C129.731 48.542 129.923 48.8394 129.943 49.1524C129.955 49.4185 129.806 49.6885 129.743 49.9586C129.724 50.0407 129.728 50.1386 129.751 50.2168C130.248 51.7274 129.704 53.2653 129.876 54.7953C130.048 56.3333 130.052 57.8986 130.041 59.4482C130.037 60.3052 129.939 61.1896 129.195 61.7962C128.859 62.0701 128.491 62.0818 128.256 61.7257C128.088 61.4635 127.924 61.1622 127.873 60.8609C127.783 60.3757 127.693 59.8904 127.607 59.4169C127.442 58.4347 127.055 57.4681 127.211 56.435C127.258 56.1141 127.043 55.7502 127.376 55.4723C127.423 55.4332 127.442 55.3041 127.415 55.2415C126.84 53.8992 127.141 52.4709 127.055 51.0817C126.98 49.9038 126.523 48.7728 126.663 47.5754C126.217 46.9375 126.268 46.1627 126.374 45.4974C126.746 43.1495 126.362 40.8133 126.346 38.4732C126.327 36.1017 126.186 33.7303 126.135 31.3549C126.127 30.9519 125.873 30.6114 126.045 30.1301C126.206 29.6801 126.045 29.1087 126.03 28.5922C126.014 28.1187 125.904 27.6217 125.998 27.1717C126.186 26.2364 126.202 25.305 126.163 24.3698L126.088 22.9688C126.076 22.7184 126.065 22.5501 126.045 22.3271L125.983 21.6853C125.92 21.0396 125.818 20.39 125.642 19.846C125.533 19.5212 125.509 19.4899 125.435 19.3804C125.364 19.2825 125.251 19.2199 125.129 19.2317C125.094 19.2317 125.055 19.2317 125.02 19.2395L124.852 19.263C124.687 19.2865 124.523 19.3178 124.362 19.3686C123.948 19.4899 123.572 19.713 123.298 19.9595C123.016 20.2061 122.844 20.4448 122.672 20.6678C122.519 20.8909 122.692 21.1022 122.265 21.517C122.136 21.5992 122.414 22.0805 122.41 22.3779C122.394 23.1254 122.343 23.908 122.304 24.675C122.261 25.7472 122.187 26.8195 122.195 27.8956C122.195 28.553 122.339 29.2066 122.359 29.864C122.378 30.5527 122.359 31.2454 122.296 31.9302C122.222 32.7989 122.054 33.6598 121.987 34.5325C121.921 35.4326 122.077 36.3796 121.87 37.2405C121.486 38.841 121.619 40.4493 121.541 42.0499C121.463 43.6426 121.396 45.2431 121.443 46.8358C121.471 47.7397 121.114 48.5576 121.099 49.442C121.091 49.8529 120.093 50.389 119.76 50.2129C119.698 50.1777 119.631 50.1112 119.608 50.0407C119.314 49.1681 118.845 48.362 118.903 47.368C118.986 45.9044 118.982 44.433 119.017 42.9656L119.005 42.9773Z" fill="#141414"/>
<path d="M110.462 41.8237C110.49 40.6614 110.545 39.4992 110.533 38.337C110.529 37.9026 110.717 37.4682 110.369 37.0065C110.196 36.7795 110.631 36.3725 110.627 35.9694C110.607 34.8855 110.701 33.7976 110.689 32.7136C110.678 31.657 110.56 30.6044 110.549 29.5478C110.541 28.499 110.772 27.4268 110.588 26.4133C110.431 25.5328 110.791 24.758 110.748 23.9166C110.697 23.0283 110.682 22.1048 110.885 21.236C110.955 20.923 111.042 20.606 111.104 20.2851C111.171 19.9564 111.194 19.6746 111.202 19.2872C111.202 19.1737 111.194 19.0603 111.179 18.9429L111.155 18.7668V18.5515C111.163 18.4067 111.167 18.258 111.194 18.1093C111.229 17.9606 111.276 17.808 111.339 17.6593C111.394 17.5184 111.492 17.3932 111.578 17.2602C111.66 17.1271 111.754 17.0019 111.848 16.8806C112.02 16.6223 112.169 16.3836 112.212 16.0431C112.216 15.9805 112.474 15.867 112.611 15.8279C113.264 15.6479 113.832 15.3387 114.211 14.9905C114.579 14.6539 114.994 14.5678 115.413 14.4817C115.714 14.423 115.976 14.3839 116.332 14.3643C116.54 14.3526 116.767 14.3722 116.986 14.3722C117.205 14.38 117.416 14.4309 117.632 14.4583C118.477 14.6696 119.134 15.3309 119.522 16.1136C119.592 16.2545 119.666 16.4227 119.717 16.5597C119.76 16.6732 119.784 16.7749 119.819 16.8845C119.874 17.0958 119.913 17.3032 119.944 17.5028C120.007 17.9019 120.034 18.2854 120.081 18.6533C120.171 19.4203 120.449 20.2029 120.261 20.9347C120.077 21.5843 120.109 22.2026 120.132 22.8326C120.144 23.1927 119.964 23.6153 120.398 23.897C120.437 23.9244 120.437 24.0575 120.406 24.1201C119.886 25.161 120.649 26.1433 120.547 27.1842C120.441 28.2564 120.578 29.3482 120.629 30.4322C120.641 30.7218 120.531 31.0348 120.844 31.2892C120.954 31.3792 120.977 31.6805 120.907 31.8331C120.512 32.6471 120.797 33.4845 120.754 34.3063C120.703 35.2455 120.93 36.1768 120.637 37.1317C120.512 37.5347 120.457 38.0826 120.864 38.5483C121.052 38.7635 120.887 39.2253 120.938 39.5696C120.981 39.8514 121.173 40.1175 121.189 40.3953C121.2 40.634 121.052 40.8767 120.985 41.1193C120.966 41.1897 120.966 41.2797 120.993 41.3502C121.486 42.7042 120.934 44.0855 121.103 45.4591C121.271 46.8405 121.267 48.2453 121.251 49.6385C121.243 50.4055 121.146 51.1998 120.398 51.7477C120.062 51.9942 119.69 52.006 119.459 51.689C119.291 51.4542 119.13 51.1842 119.079 50.9142C118.989 50.4798 118.903 50.0415 118.817 49.6189C118.657 48.7384 118.273 47.8697 118.43 46.9422C118.481 46.6526 118.265 46.3278 118.598 46.0774C118.645 46.0422 118.665 45.9248 118.641 45.87C118.07 44.6647 118.375 43.3812 118.293 42.1367C118.222 41.0762 117.768 40.0666 117.913 38.9905C117.471 38.4191 117.522 37.7226 117.628 37.1239C118.007 35.0146 117.632 32.9171 117.624 30.8196C117.612 28.6908 117.479 26.562 117.436 24.4292C117.428 24.0653 117.178 23.764 117.35 23.3296C117.51 22.9266 117.358 22.4139 117.342 21.9482C117.334 21.7369 117.307 21.5178 117.287 21.3026C117.279 21.1969 117.275 21.0873 117.275 20.9817C117.275 20.9308 117.279 20.876 117.287 20.8251L117.299 20.7508C117.299 20.7508 117.311 20.7273 117.315 20.7077C117.491 19.9564 117.428 19.1385 117.248 18.438C117.201 18.262 117.15 18.0937 117.091 17.9411C117.064 17.8628 117.029 17.7924 116.998 17.7219C116.966 17.6593 116.962 17.6593 116.943 17.6202C116.872 17.5106 116.786 17.4089 116.657 17.3697C116.594 17.3541 116.532 17.3462 116.465 17.3423H116.281C116.203 17.3502 116.125 17.3619 116.043 17.3697C115.726 17.4128 115.409 17.495 115.119 17.6124C114.536 17.8511 114.094 18.2502 113.941 18.6924C113.894 18.8294 113.867 18.9703 113.871 19.119C113.871 19.1581 113.863 19.1816 113.871 19.2364L113.879 19.3968L113.89 19.7138C113.91 20.1794 113.914 20.6921 113.843 21.1852C113.785 21.6156 113.992 22.0774 113.573 22.4844C113.456 22.6018 113.742 23.0166 113.746 23.2983C113.753 23.991 113.699 24.6836 113.679 25.3802C113.644 26.3467 113.581 27.3094 113.593 28.276C113.597 28.8669 113.746 29.4539 113.769 30.0448C113.793 30.6631 113.773 31.2853 113.714 31.8997C113.644 32.6784 113.48 33.4532 113.417 34.2359C113.354 35.0459 113.515 35.8951 113.311 36.666C112.932 38.1022 113.069 39.5462 112.994 40.9823C112.92 42.4146 112.857 43.8468 112.908 45.2791C112.936 46.093 112.583 46.8248 112.572 47.6153C112.564 47.9871 111.566 48.4645 111.233 48.304C111.171 48.2727 111.104 48.2101 111.081 48.1514C110.787 47.3688 110.314 46.6409 110.369 45.7526C110.447 44.4377 110.443 43.119 110.474 41.8002L110.462 41.8237Z" fill="#141414"/>
<path d="M102.558 46.096C102.585 44.9964 102.636 43.8968 102.624 42.8011C102.62 42.3902 102.804 41.9793 102.456 41.5449C102.284 41.3297 102.718 40.9462 102.71 40.5666C102.691 39.5413 102.781 38.516 102.765 37.4908C102.753 36.4929 102.632 35.495 102.62 34.4971C102.609 33.5071 102.836 32.4935 102.652 31.5348C102.491 30.7052 102.851 29.9695 102.8 29.179C102.746 28.3377 102.73 27.4689 102.918 26.651C103.059 26.0562 103.235 25.4692 103.192 24.8666C103.168 24.4909 102.976 24.1192 103.019 23.7044C103.035 23.5244 103.113 23.2778 103.129 23.0509C103.137 22.9374 103.133 22.82 103.106 22.7065C103.082 22.5813 103.051 22.4286 102.976 22.2839C102.953 22.233 103.082 21.9943 103.192 21.8886C103.638 21.3721 104.017 20.7968 104.229 20.2998C104.432 19.8028 104.808 19.5524 105.168 19.3059C105.673 18.9772 106.205 18.7345 106.745 18.5702C107.015 18.488 107.289 18.4254 107.567 18.3784L107.989 18.3275C108.06 18.3197 108.13 18.3197 108.204 18.3158L108.447 18.308C108.752 18.3158 109.077 18.3393 109.382 18.3862C109.813 18.4763 110.216 18.6719 110.541 18.9615C110.866 19.2472 111.124 19.5954 111.327 19.975C111.402 20.1081 111.468 20.245 111.535 20.382L111.695 20.7342C111.785 20.9377 111.859 21.1294 111.926 21.3251C112.059 21.7086 112.133 22.0804 112.098 22.4326C112.02 23.1409 112.102 23.7396 112.149 24.3931C112.149 24.4401 112.149 24.487 112.149 24.5418C112.149 24.624 112.141 24.6435 112.137 24.6983C112.129 24.7883 112.122 24.8783 112.126 24.9644C112.137 25.1405 112.2 25.3088 112.419 25.4379C112.458 25.4614 112.458 25.5906 112.427 25.6493C111.906 26.6354 112.666 27.5628 112.56 28.5451C112.454 29.5586 112.587 30.5917 112.638 31.617C112.65 31.8909 112.536 32.1844 112.853 32.427C112.963 32.5131 112.987 32.7988 112.912 32.9397C112.517 33.7106 112.799 34.501 112.756 35.2759C112.705 36.1642 112.928 37.0447 112.634 37.9486C112.509 38.3321 112.45 38.8487 112.857 39.287C113.045 39.4904 112.877 39.9287 112.932 40.2535C112.975 40.5196 113.167 40.7701 113.178 41.0362C113.19 41.2592 113.041 41.4901 112.975 41.721C112.955 41.7875 112.955 41.8736 112.983 41.9401C113.472 43.2198 112.92 44.5268 113.084 45.826C113.249 47.1291 113.245 48.4596 113.225 49.7745C113.213 50.5024 113.116 51.2537 112.368 51.7702C112.032 52.005 111.66 52.0168 111.433 51.7155C111.265 51.4963 111.104 51.238 111.057 50.9837C110.971 50.5728 110.881 50.1619 110.799 49.7627C110.639 48.9292 110.255 48.1114 110.415 47.2348C110.466 46.9609 110.251 46.6517 110.584 46.4169C110.631 46.3856 110.65 46.2721 110.627 46.2212C110.055 45.0825 110.365 43.8694 110.286 42.6954C110.22 41.6936 109.766 40.7388 109.915 39.7213C109.472 39.1813 109.527 38.5239 109.633 37.9564C110.016 35.9607 109.645 33.9806 109.641 31.9966C109.633 29.9812 109.504 27.9698 109.465 25.9584C109.457 25.614 109.206 25.3284 109.378 24.9214C109.547 24.5809 109.371 24.1505 109.324 23.7513C109.277 23.3874 109.128 23.0313 109.163 22.6908C109.187 22.4639 109.183 22.2447 109.163 22.0373C109.152 21.9356 109.136 21.8338 109.112 21.7438L109.081 21.6225C109.081 21.6225 109.073 21.5834 109.069 21.5638C109.03 21.4034 108.885 21.2508 108.709 21.2781C108.662 21.2781 108.615 21.286 108.572 21.2899C108.553 21.2938 108.514 21.2977 108.451 21.3055C108.4 21.3095 108.345 21.3173 108.291 21.3251C108.079 21.3564 107.864 21.3995 107.653 21.4542C107.07 21.5951 106.545 21.8808 106.22 22.2486C106.068 22.4365 105.958 22.64 105.892 22.863L105.86 23.0391L105.845 23.1291V23.2543L105.825 23.7592C105.825 24.6905 106.013 25.6453 105.884 26.5963C105.829 27.0032 106.04 27.4454 105.63 27.8329C105.512 27.9424 105.802 28.3377 105.806 28.5998C105.817 29.2573 105.77 29.9147 105.747 30.5721C105.716 31.4839 105.661 32.3996 105.669 33.3114C105.677 33.8671 105.825 34.4267 105.849 34.9824C105.872 35.5654 105.857 36.1524 105.802 36.7355C105.731 37.4751 105.567 38.203 105.508 38.9426C105.446 39.7096 105.61 40.5118 105.407 41.2397C105.031 42.5937 105.168 43.9594 105.097 45.3212C105.027 46.6752 104.964 48.0292 105.019 49.3832C105.05 50.1502 104.698 50.8428 104.683 51.5942C104.675 51.9424 103.681 52.3964 103.344 52.2438C103.282 52.2164 103.215 52.1577 103.192 52.099C102.894 51.3554 102.425 50.6706 102.475 49.8293C102.554 48.5849 102.546 47.3404 102.573 46.096H102.558Z" fill="#141414"/>
<path d="M97.948 33.7891C97.9558 33.1552 97.991 32.5212 97.9793 31.8794C97.9715 31.6407 98.1632 31.4059 97.8149 31.1359C97.6428 30.999 98.085 30.7916 98.085 30.5646C98.0928 29.9463 98.2024 29.3319 98.3589 28.5962C98.4254 28.2479 98.5272 27.8684 98.6837 27.477C98.852 27.0857 99.0946 26.6787 99.4663 26.3422C99.8342 26.0096 100.312 25.8139 100.754 25.7004C101.2 25.583 101.599 25.54 101.971 25.4304C102.135 25.3795 102.288 25.3717 102.437 25.3834C102.519 25.3874 102.566 25.3991 102.667 25.4187C102.781 25.4382 102.89 25.4617 102.984 25.493C103.176 25.5791 103.368 25.6339 103.548 25.7161C103.724 25.81 103.908 25.8882 104.08 25.99C104.467 26.1817 104.812 26.4909 105.062 26.8587C105.125 26.9527 105.188 27.0466 105.238 27.1444C105.289 27.2461 105.328 27.3401 105.36 27.4222C105.418 27.5944 105.461 27.7666 105.473 27.931C105.512 28.4319 105.446 28.831 105.559 29.285C105.579 29.375 105.606 29.4611 105.63 29.5511C105.641 29.6019 105.653 29.6293 105.669 29.6528L105.712 29.7311C105.767 29.8367 105.814 29.9424 105.802 30.0598C105.782 30.2711 105.595 30.5098 106.009 30.7055C106.045 30.7211 105.966 30.815 105.908 30.862C105.63 31.0851 105.638 31.3668 105.821 31.5625C105.998 31.7542 105.97 31.9186 105.974 32.0947C105.986 32.5721 105.99 33.0534 105.935 33.5269C105.896 33.883 105.728 34.2352 105.677 34.5913C105.626 34.9631 105.806 35.3662 105.595 35.7066C105.383 36.0471 105.383 36.3758 105.375 36.7162C105.371 36.908 105.172 37.1271 105.591 37.2993C105.63 37.315 105.622 37.3854 105.591 37.4206C105.023 37.9528 105.735 38.5124 105.583 39.0642C105.426 39.6316 105.512 40.2225 105.512 40.8056C105.512 40.9621 105.383 41.1226 105.688 41.2752C105.794 41.33 105.802 41.4904 105.724 41.5687C105.293 41.9874 105.536 42.4452 105.454 42.8835C105.36 43.3844 105.54 43.8931 105.203 44.3901C105.058 44.6014 104.976 44.891 105.364 45.1571C105.54 45.2784 105.352 45.5211 105.391 45.705C105.422 45.8576 105.598 46.0102 105.602 46.1589C105.602 46.2881 105.442 46.4094 105.364 46.5385C105.34 46.5776 105.336 46.6246 105.364 46.6637C105.79 47.4112 105.176 48.1234 105.278 48.8669C105.379 49.6143 105.309 50.3657 105.227 51.1092C105.18 51.5201 105.047 51.9388 104.272 52.201C103.924 52.3184 103.552 52.3106 103.34 52.1266C103.184 51.9936 103.035 51.841 103 51.6962C102.941 51.4614 102.855 51.2227 102.8 50.9918C102.683 50.5144 102.339 50.033 102.542 49.5439C102.605 49.3913 102.409 49.2073 102.753 49.09C102.8 49.0743 102.828 49.0117 102.804 48.9804C102.292 48.3112 102.66 47.6381 102.636 46.969C102.617 46.3976 102.21 45.838 102.409 45.2706C101.994 44.9458 102.08 44.5741 102.213 44.261C102.691 43.1496 102.421 42.0109 102.511 40.8878C102.601 39.749 102.57 38.6024 102.628 37.4637C102.636 37.268 102.401 37.0958 102.593 36.8728C102.773 36.6654 102.644 36.3836 102.652 36.1332C102.66 35.9062 102.573 35.6636 102.687 35.4483C103.153 34.5679 102.91 33.6561 102.98 32.7638C103.051 31.8716 103.117 30.9794 103.031 30.0833C103.02 29.9463 102.996 29.8093 102.969 29.6763C102.941 29.4806 102.914 29.555 102.875 29.4611C102.8 29.285 102.726 29.1089 102.718 28.9328C102.718 28.7762 102.44 28.7449 102.769 28.518C102.851 28.4319 102.57 28.561 102.55 28.561C102.483 28.5375 102.437 28.4906 102.37 28.4827H102.366L102.303 28.4749L102.17 28.4671C102.08 28.4593 102.002 28.4632 101.924 28.4632C101.771 28.4671 101.654 28.5023 101.576 28.5493C101.474 28.6158 101.525 28.7801 101.521 28.8467C101.509 28.9171 101.454 29.0071 101.349 29.1441C101.219 29.3202 101.012 29.5667 100.926 29.9189C100.828 30.2789 100.981 30.725 100.769 31.0968C100.382 31.8129 100.531 32.5838 100.48 33.3391C100.429 34.0943 100.398 34.8574 100.492 35.6127C100.542 36.0432 100.214 36.4384 100.226 36.861C100.229 37.0567 99.2511 37.3463 98.9107 37.2758C98.8441 37.2602 98.7776 37.2289 98.7502 37.1976C98.4293 36.7867 97.9363 36.4071 97.9597 35.9218C97.9989 35.2057 97.9597 34.4935 97.9676 33.7735L97.948 33.7891Z" fill="#141414"/>
<path d="M121.189 53.9202C120.934 53.9436 120.68 53.9397 120.429 53.9984C120.336 54.018 120.226 53.8967 120.156 54.1784C120.12 54.3154 119.995 54.0102 119.909 54.0297C119.678 54.0884 119.435 54.0728 119.205 54.1354C118.978 54.198 118.766 54.3311 118.543 54.4015C118.324 54.468 118.066 54.3545 117.874 54.5463C117.71 54.7146 117.498 54.4993 117.33 54.5854C117.15 54.6832 116.962 54.7537 116.755 54.6715C116.602 54.6128 116.45 54.5306 116.324 54.6128C116.246 54.6637 116.199 54.8359 116.105 54.8437C116.019 54.8515 115.894 54.738 115.886 55.0589C115.886 55.0863 115.835 55.0394 115.808 55.0002C115.675 54.8202 115.565 54.8593 115.518 55.012C115.471 55.1607 115.405 55.1607 115.338 55.1802C115.154 55.2389 114.967 55.2898 114.771 55.3094C114.626 55.3211 114.458 55.2389 114.309 55.2468C114.153 55.2546 114.031 55.4268 113.859 55.3172C113.683 55.2076 113.558 55.2468 113.421 55.2859C113.346 55.3055 113.217 55.1881 113.241 55.5129C113.241 55.5442 113.213 55.5481 113.194 55.5246C112.865 55.1802 112.803 55.7711 112.556 55.7359C112.302 55.7007 112.094 55.8377 111.871 55.9198C111.812 55.9433 111.719 55.8729 111.734 56.1116C111.738 56.1938 111.679 56.2251 111.632 56.1781C111.37 55.9316 111.253 56.1664 111.065 56.1781C110.854 56.1859 110.705 56.3933 110.431 56.229C110.314 56.1585 110.181 56.1429 110.181 56.456C110.181 56.6007 110.04 56.5068 109.981 56.5616C109.93 56.6086 109.922 56.7573 109.868 56.7808C109.821 56.8003 109.731 56.7064 109.66 56.6751C109.641 56.6634 109.621 56.6712 109.613 56.6907C109.449 57.1056 109.014 56.7964 108.768 56.9921C108.518 57.1838 108.224 57.266 107.927 57.3443C107.762 57.3873 107.567 57.3638 107.234 56.8825C107.081 56.6634 106.972 56.409 106.976 56.2329C106.976 56.0998 106.991 55.9746 107.034 55.9198C107.109 55.8377 107.171 55.7359 107.242 55.6537C107.39 55.4855 107.473 55.1568 107.723 55.2115C107.801 55.2272 107.817 55.0589 107.962 55.2781C107.981 55.3094 108.013 55.3172 108.021 55.2937C108.134 54.8241 108.502 54.9533 108.756 54.832C108.975 54.7263 109.085 54.3467 109.363 54.3898C109.382 54.0415 109.555 54.0454 109.715 54.0923C110.278 54.2528 110.662 53.8849 111.139 53.7871C111.617 53.6854 112.075 53.5054 112.552 53.3919C112.634 53.3723 112.654 53.1806 112.787 53.2901C112.908 53.3919 112.998 53.2627 113.1 53.2353C113.194 53.2119 113.276 53.1179 113.386 53.1727C113.84 53.4036 114.16 53.114 114.544 53.0632C114.924 53.0162 115.299 52.9575 115.655 52.8088C115.871 52.7149 116.066 52.4997 116.309 52.5192C116.411 52.527 116.485 52.3431 116.634 52.617C116.677 52.6953 116.728 52.4566 116.79 52.4331C116.943 52.3823 117.103 52.3705 117.26 52.3431C117.479 52.304 117.702 52.2962 117.917 52.2296C118.046 52.1905 118.164 52.0496 118.293 51.9988C118.43 51.944 118.571 51.9322 118.715 51.9401C118.899 51.9557 119.091 52.0379 119.271 52.0418C119.459 52.0457 119.639 51.8931 119.831 52.0105C120.187 52.2296 120.5 52.0653 120.833 52.0692C121.161 52.0692 121.49 52.0614 121.811 51.9831C121.995 51.9361 122.179 52.1788 122.359 52.1631C122.445 52.1553 122.594 52.891 122.57 53.1453C122.566 53.1923 122.554 53.2471 122.543 53.2627C122.382 53.5054 122.245 53.881 122.05 53.8693C121.76 53.8497 121.474 53.8967 121.185 53.9241L121.189 53.9202Z" fill="#141414"/>
</g>
</g>
</g>
<defs>
<clipPath id="clip0_5106_4216">
<rect width="194.37" height="164" fill="white" transform="translate(0.814697)"/>
</clipPath>
<clipPath id="clip1_5106_4216">
<rect width="194.37" height="164" fill="white" transform="translate(0.814697)"/>
</clipPath>
<clipPath id="clip2_5106_4216">
<rect width="96.2035" height="136.455" fill="white" transform="translate(49.6307 14.3723)"/>
</clipPath>
</defs>
</svg>
