<svg width="43" height="17" viewBox="0 0 43 17" fill="none" xmlns="http://www.w3.org/2000/svg">
<path d="M18.4766 0.265625C15.9053 0.31691 13.3314 0.627314 12.0469 1.04785C10.9225 1.41603 9.87247 1.93593 8.81836 2.48438C7.76935 3.03017 6.71072 3.60752 5.59375 4.07129C5.09083 4.28018 4.54621 4.38178 4.04395 4.47852C3.53015 4.57747 3.06169 4.67063 2.65723 4.85352C2.46119 4.94214 2.32765 5.03231 2.2207 5.13867C2.11282 5.24602 2.02092 5.38174 1.92188 5.57715L1.9209 5.5791C1.85413 5.70809 1.79282 5.84006 1.73535 5.97461C1.57697 6.62112 1.56237 7.27835 1.57031 7.96289L1.58105 8.66309L1.5918 9.68066L1.59277 9.82812L1.46777 9.9043C1.05408 10.1567 0.821364 10.293 0.743164 10.6416C0.621658 11.1846 0.656708 11.7975 0.939453 12.2266C1.19085 12.6079 1.63269 12.9458 2.15039 13.2129C2.6646 13.4781 3.22945 13.6609 3.69922 13.7441H3.7002C3.87619 13.7758 4.05329 13.8049 4.23047 13.832C4.61385 13.8901 4.99841 13.8812 5.41895 13.8838L5.8252 13.8672L5.99707 13.8594L6.07031 14.0156C6.38869 14.6929 6.72782 15.2208 7.3125 15.6465V15.6475C8.04834 16.187 8.97659 16.4017 9.87793 16.2412H9.87695C10.6726 16.0935 11.5057 15.6072 11.9199 14.9414C11.9993 14.8138 12.0647 14.6755 12.1426 14.5166C12.2173 14.3641 12.3027 14.1951 12.416 14.041C12.4393 14.0092 12.4776 13.9663 12.4844 13.958L12.5645 13.8604L12.6914 13.8633L13.3389 13.8828L29.3408 13.8877L30.2295 13.8818L30.4023 13.8809L30.4697 14.041C30.5245 14.172 30.5819 14.3022 30.6416 14.4316C31.0049 15.2177 31.6854 15.802 32.5176 16.0908C33.3473 16.3767 34.2532 16.3382 35.0518 15.9863L35.21 15.9111C35.9872 15.5132 36.4583 14.883 36.7412 14.0498L36.8008 13.8721L36.9883 13.874L37.709 13.8809H37.71L38.5908 13.8926H38.5938C39.2383 13.9069 39.8829 13.8897 40.5381 13.8799H40.5498C40.711 13.8848 40.9043 13.9012 41.0977 13.916C41.295 13.9311 41.4994 13.9451 41.6982 13.9473C41.8976 13.9494 42.0837 13.9399 42.2441 13.9102C42.3641 13.8879 42.4603 13.855 42.5352 13.8154V13.8145C42.5365 13.807 42.5369 13.8022 42.5371 13.7998C42.5367 13.7977 42.535 13.7922 42.5312 13.7812C42.5275 13.7705 42.5229 13.7579 42.5166 13.7422C42.3514 13.6192 42.1735 13.5785 41.8896 13.5L41.4277 13.3721L41.7891 13.0566C42.0373 12.8397 42.2758 12.6222 42.418 12.3838C42.6695 11.9621 42.7965 11.4282 42.7188 10.9609L42.6729 10.7656C42.6261 10.615 42.5638 10.5115 42.4863 10.4287C42.4066 10.3436 42.3 10.269 42.1475 10.1895L42.0537 10.1406L42.0215 10.041C41.8062 9.38704 41.5516 8.8584 41.1416 8.31543C40.2651 7.3766 38.8243 6.8688 37.2295 6.56055C35.6293 6.25127 33.9558 6.15561 32.6182 5.99121L32.6045 5.98926C32.5286 5.97563 32.4419 5.93742 32.3652 5.90039C32.2811 5.85976 32.1803 5.80593 32.0674 5.74121C31.841 5.61142 31.5523 5.43233 31.2227 5.22168C30.563 4.80008 29.7267 4.24204 28.8701 3.66895C28.0123 3.09502 27.1331 2.50531 26.3838 2.01855C25.6292 1.52838 25.0224 1.15277 24.7012 0.998047L24.6982 0.99707C24.1342 0.71723 23.2309 0.518394 22.126 0.398438C21.0284 0.2793 19.7577 0.240079 18.4766 0.265625Z" fill="#C1F11D" stroke="#88AC0C" stroke-width="0.517241"/>
<path d="M14.4108 13.048C14.3966 12.8753 14.3765 12.7033 14.3501 12.5322C14.1607 11.2364 13.4443 10.0742 12.3688 9.31625C11.1778 8.48505 9.70366 8.1564 8.26928 8.40239C6.92398 8.64094 5.65269 9.39185 4.88323 10.5235C4.14847 11.6054 3.95025 12.8177 4.19071 14.0876C4.60095 14.1499 5.0137 14.1405 5.42729 14.1432L5.83628 14.1252C6.1633 14.8209 6.52502 15.3932 7.15983 15.8554C7.95313 16.4371 8.95302 16.6686 9.92405 16.4954C10.7742 16.3376 11.6788 15.819 12.1396 15.0782C12.3161 14.7947 12.4277 14.4613 12.6247 14.1938C12.6431 14.1687 12.664 14.146 12.6837 14.1221L13.339 14.1417L29.3417 14.1468L30.2308 14.1405C30.2868 14.2745 30.3454 14.4076 30.4064 14.54C30.8016 15.3951 31.5397 16.0254 32.4325 16.3352C33.3835 16.6631 34.4277 16.5938 35.326 16.1425C36.1757 15.7081 36.6855 15.0167 36.9857 14.1323L37.7063 14.1389L38.5874 14.1511C38.6238 14.0003 38.6543 13.8483 38.6786 13.6951C38.8554 12.522 38.5514 11.3269 37.8338 10.3778C36.9924 9.25671 35.6965 8.5579 34.3081 8.37733C32.875 8.1803 31.4222 8.56848 30.2822 9.45295C29.0887 10.3891 28.5794 11.5842 28.4117 13.0641L14.4108 13.048Z" fill="#31343C"/>
<path d="M36.986 14.1323C37.0855 13.0778 37.0709 12.2227 36.3637 11.3531C35.7782 10.6331 34.8666 10.1909 33.9457 10.0957C33.0086 10.0033 32.0727 10.2814 31.3409 10.8697C30.6157 11.4643 30.2444 12.3422 30.1846 13.2611C30.1653 13.5553 30.1938 13.8491 30.231 14.1405C30.287 14.2744 30.3456 14.4076 30.4066 14.54C30.8018 15.3951 31.5399 16.0254 32.4327 16.3352C33.3837 16.6631 34.4279 16.5937 35.3262 16.1425C36.1759 15.7081 36.6857 15.0167 36.986 14.1323Z" fill="#141414"/>
<path d="M34.1243 11.7772C33.275 11.4971 32.3579 11.9531 32.0752 12.7957C31.7929 13.6386 32.2521 14.5489 33.1014 14.8294C33.9508 15.1099 34.8683 14.6539 35.151 13.811C35.4332 12.968 34.9737 12.0573 34.1243 11.7772Z" fill="#31343C"/>
<path d="M12.6838 14.1222C12.6763 14.0983 12.6671 14.0752 12.6617 14.0509C12.6048 13.7951 12.6642 13.4911 12.6533 13.2263C12.6115 12.2384 12.1486 11.3128 11.3272 10.7437C10.5314 10.1922 9.48094 9.96225 8.52957 10.164C7.60454 10.3598 6.66613 10.9454 6.18145 11.7657C5.72396 12.5401 6.00289 13.8268 5.83645 14.1253C6.16347 14.821 6.5252 15.3932 7.16001 15.8555C7.95331 16.4371 8.9532 16.6686 9.92422 16.4955C10.7744 16.3377 11.6789 15.819 12.1398 15.0783C12.3163 14.7947 12.4279 14.4614 12.6249 14.1938C12.6433 14.1688 12.6642 14.1461 12.6838 14.1222Z" fill="#141414"/>
<path d="M9.69697 11.7747C8.84304 11.5134 7.93808 11.9913 7.67964 12.8401C7.42078 13.6886 7.90713 14.5844 8.76358 14.8367C9.61375 15.0873 10.5082 14.6091 10.765 13.7665C11.0218 12.924 10.5446 12.034 9.69697 11.7747Z" fill="#31343C"/>
<path d="M13.339 14.1418C13.3487 12.7191 13.4055 11.8115 12.2961 10.6838C11.4815 9.8479 10.3498 9.39039 9.1785 9.42329C8.08117 9.44444 6.96546 9.85887 6.20268 10.6579C5.47002 11.4253 5.04055 12.5628 5.08738 13.6263C5.09616 13.8355 5.13338 13.9561 5.31278 14.0791C5.34874 14.1042 5.38931 14.1218 5.42736 14.1433L5.83635 14.1253C6.00279 13.8269 5.72386 12.5401 6.18136 11.7657C6.66603 10.9455 7.60444 10.3599 8.52947 10.164C9.48084 9.96228 10.5313 10.1922 11.3271 10.7437C12.1485 11.3129 12.6114 12.2385 12.6532 13.2264C12.6641 13.4912 12.6047 13.7951 12.6616 14.0509C12.667 14.0752 12.6762 14.0983 12.6837 14.1222L13.339 14.1418Z" fill="#141414"/>
<path d="M37.7063 14.139C37.6946 12.7622 37.6407 11.6799 36.5868 10.6286C35.7718 9.8099 34.6498 9.36571 33.4906 9.40292C32.3117 9.44013 31.1851 9.98226 30.3834 10.835C29.3773 11.9055 29.6407 13.8472 29.3417 14.1469L30.2308 14.1406C30.1936 13.8492 30.1651 13.5554 30.1844 13.2612C30.2442 12.3423 30.6155 11.4645 31.3407 10.8699C32.0725 10.2815 33.0084 10.0034 33.9455 10.0958C34.8664 10.191 35.778 10.6333 36.3635 11.3532C37.0707 12.2228 37.0853 13.0779 36.9858 14.1324L37.7063 14.139Z" fill="#141414"/>
<path d="M32.6497 5.73406C32.0479 5.62594 26.1686 1.41823 24.8128 0.765259L24.5908 0.951711L24.5983 1.09038C25.5626 1.94351 26.6127 2.71713 27.6218 3.51856C28.5619 4.26594 29.4785 5.06032 30.4404 5.77831L32.6497 5.73406Z" fill="#141414"/>
<path d="M1.48774 5.8945C1.26108 6.80443 1.31169 7.73551 1.32256 8.66582C1.89882 8.67718 2.4688 8.67091 3.04465 8.64545C3.04674 8.09392 3.08312 7.54279 3.08689 6.99205C3.08856 6.67359 3.01788 6.3477 2.76822 6.12756C2.42991 5.82986 1.90718 5.89058 1.48774 5.8945Z" fill="#B02317"/>
<path d="M42.2666 9.96006C42.0429 9.28045 41.7744 8.72305 41.3395 8.1496C41.311 8.16448 41.2847 8.18251 41.2546 8.19386C40.754 8.38071 40.031 7.93416 39.6722 8.47354C39.5785 8.61416 39.5676 8.78769 39.6262 8.94319C39.8144 9.44379 40.5775 9.87703 41.0656 10.0165C41.4892 10.1375 41.8572 10.1003 42.2666 9.96006Z" fill="#141414"/>
<path d="M41.9588 13.251C41.4942 13.5851 41.0342 13.8499 40.542 14.1382C41.1559 14.157 42.2632 14.3528 42.7613 13.9784C42.8132 13.7806 42.809 13.7716 42.7304 13.5816C42.4983 13.3838 42.249 13.3313 41.9588 13.251Z" fill="#141414"/>
<path d="M25.963 3.56398C25.498 3.0575 23.6939 1.50556 23.0867 1.24586C22.5347 1.00966 21.9112 0.945819 21.3165 0.916441C19.6467 0.834183 17.9669 0.936028 16.2996 1.01554C15.8588 2.58119 15.4318 4.15037 15.0191 5.72346L24.4998 5.95143L25.7949 5.9718C26.3452 6.12418 28.0247 6.37996 28.5487 6.14533C28.672 6.0901 28.6545 6.0615 28.7021 5.94634C28.5282 5.53309 28.0197 5.21659 27.6805 4.92242C27.4208 4.69758 27.2318 4.55969 26.9031 4.44571C26.7935 4.10767 26.2457 3.77746 25.963 3.56398Z" fill="#141414"/>
<path d="M26.9031 4.44586C26.4644 4.40042 26.1169 4.3589 25.7472 4.63466C25.6005 4.74395 25.4993 4.88888 25.4675 5.07064C25.4022 5.44237 25.5846 5.69188 25.7949 5.97195C26.3452 6.12433 28.0247 6.38011 28.5487 6.14548C28.672 6.09025 28.6545 6.06165 28.7021 5.94649C28.5282 5.53324 28.0197 5.21674 27.6805 4.92257C27.4208 4.69773 27.2318 4.55984 26.9031 4.44586Z" fill="#31343C"/>
<path d="M15.2173 1.1062C12.7813 1.38275 10.406 2.89082 8.5518 4.41064C8.27371 4.63861 8.00941 4.85248 7.97345 5.22186L8.16623 5.45258C9.98618 5.70601 11.8906 5.63942 13.7269 5.67703C14.2287 4.17601 14.8484 2.64169 15.2173 1.1062Z" fill="#141414"/>
<path d="M17.7869 7.16875C17.229 7.15074 15.9243 6.95528 15.4739 7.2706L15.4316 7.53775C16.0342 7.56517 17.0755 7.72811 17.6204 7.4923C17.7576 7.43276 17.7476 7.29998 17.7869 7.16875Z" fill="#9AC212"/>
</svg>
