<svg width="20" height="20" viewBox="0 0 20 20" fill="none" xmlns="http://www.w3.org/2000/svg">
<path fill-rule="evenodd" clip-rule="evenodd" d="M7.49984 4.99996C6.11913 4.99996 4.99984 6.11925 4.99984 7.49996V15.8333C4.99984 17.214 6.11913 18.3333 7.49984 18.3333H15.8332C17.2139 18.3333 18.3332 17.214 18.3332 15.8333V7.49996C18.3332 6.11925 17.2139 4.99996 15.8332 4.99996H7.49984ZM7.49984 6.66663C7.0396 6.66663 6.6665 7.03972 6.6665 7.49996V15.8333C6.6665 16.2935 7.0396 16.6666 7.49984 16.6666H15.8332C16.2934 16.6666 16.6665 16.2935 16.6665 15.8333V7.49996C16.6665 7.03972 16.2934 6.66663 15.8332 6.66663H7.49984Z" fill="#EFF1EF"/>
<path d="M14.9998 2.49996C14.9998 2.03972 14.6267 1.66663 14.1665 1.66663H4.1665C2.78579 1.66663 1.6665 2.78591 1.6665 4.16663V14.1666C1.6665 14.6269 2.0396 15 2.49984 15C2.96007 15 3.33317 14.6269 3.33317 14.1666V4.16663C3.33317 3.70639 3.70627 3.33329 4.1665 3.33329H14.1665C14.6267 3.33329 14.9998 2.9602 14.9998 2.49996Z" fill="#EFF1EF"/>
</svg>
