<svg width="20" height="20" viewBox="0 0 20 20" fill="none" xmlns="http://www.w3.org/2000/svg">
<rect width="20" height="20" rx="10" fill="white"/>
<rect x="4" y="4" width="12" height="12" rx="6" fill="white"/>
<path d="M7.02426 6.17574C6.78995 5.94142 6.41005 5.94142 6.17574 6.17574C5.94142 6.41005 5.94142 6.78995 6.17574 7.02426L9.15147 10L6.17574 12.9757C5.94142 13.2101 5.94142 13.5899 6.17574 13.8243C6.41005 14.0586 6.78995 14.0586 7.02426 13.8243L10 10.8485L12.9757 13.8243C13.2101 14.0586 13.5899 14.0586 13.8243 13.8243C14.0586 13.5899 14.0586 13.2101 13.8243 12.9757L10.8485 10L13.8243 7.02426C14.0586 6.78995 14.0586 6.41005 13.8243 6.17574C13.5899 5.94142 13.2101 5.94142 12.9757 6.17574L10 9.15147L7.02426 6.17574Z" fill="#141414"/>
</svg>
