<svg width="16" height="17" viewBox="0 0 16 17" fill="none" xmlns="http://www.w3.org/2000/svg">
<path d="M8.61229 2.23636C8.50698 1.99181 8.26625 1.83337 7.99999 1.83337C7.73373 1.83337 7.493 1.99181 7.38769 2.23636L5.77108 5.99029C5.75298 6.03231 5.71337 6.06109 5.66781 6.06532L1.59805 6.44278C1.33292 6.46737 1.10786 6.64735 1.02558 6.90058C0.943297 7.15381 1.01959 7.43172 1.21962 7.60745L4.29027 10.305C4.32464 10.3352 4.33977 10.3817 4.32971 10.4264L3.43107 14.4136C3.37253 14.6733 3.47416 14.943 3.68957 15.0995C3.90498 15.256 4.19285 15.2693 4.4218 15.1334L7.93617 13.0466C7.97551 13.0232 8.02447 13.0232 8.06381 13.0466L11.5782 15.1334C11.8071 15.2693 12.095 15.256 12.3104 15.0995C12.5258 14.943 12.6275 14.6733 12.5689 14.4136L11.6703 10.4264C11.6602 10.3817 11.6753 10.3352 11.7097 10.305L14.7804 7.60745C14.9804 7.43172 15.0567 7.15381 14.9744 6.90058C14.8921 6.64735 14.6671 6.46737 14.4019 6.44278L10.3322 6.06532C10.2866 6.06109 10.247 6.03231 10.2289 5.99029L8.61229 2.23636Z" fill="#C1F11D"/>
</svg>
