<svg width="16" height="17" viewBox="0 0 16 17" fill="none" xmlns="http://www.w3.org/2000/svg">
<path fill-rule="evenodd" clip-rule="evenodd" d="M8.00016 15.1667C11.6821 15.1667 14.6668 12.1819 14.6668 8.50004C14.6668 4.81814 11.6821 1.83337 8.00016 1.83337C4.31826 1.83337 1.3335 4.81814 1.3335 8.50004C1.3335 12.1819 4.31826 15.1667 8.00016 15.1667ZM6.56505 10.9435L4.87506 9.1005C4.59742 8.80297 4.59742 8.32067 4.87506 8.02314C5.15269 7.72562 5.60275 7.72562 5.88038 8.02314L7.06771 9.32744L10.1199 6.05652C10.3976 5.75899 10.8476 5.75899 11.1253 6.05652C11.4029 6.35405 11.4029 6.83635 11.1253 7.13387L7.57038 10.9435C7.43813 11.0856 7.25506 11.1667 7.06771 11.1667C6.88037 11.1667 6.69729 11.0856 6.56505 10.9435Z" fill="#02952B"/>
</svg>
