<svg width="32" height="32" viewBox="0 0 32 32" fill="none" xmlns="http://www.w3.org/2000/svg">
<rect width="32" height="32" rx="8" fill="#C1F11D"/>
<path d="M6.29468 25.3087L7.66659 20.3268C6.81841 18.8646 6.37347 17.2086 6.3781 15.5157C6.3781 10.2109 10.7163 5.89795 16.0417 5.89795C18.628 5.89795 21.0566 6.89893 22.8781 8.71638C24.7042 10.5338 25.71 12.9509 25.7054 15.5203C25.7054 20.825 21.3672 25.138 16.0371 25.138H16.0325C14.4149 25.138 12.8252 24.7321 11.4115 23.9663L6.29468 25.3087ZM11.6572 22.2273L11.9492 22.4026C13.182 23.1314 14.5957 23.5143 16.0371 23.5189H16.0417C20.468 23.5189 24.0739 19.9347 24.0739 15.5249C24.0739 13.3892 23.2396 11.3826 21.724 9.86958C20.2085 8.35658 18.1877 7.52627 16.0417 7.52627C11.6155 7.52166 8.00957 11.1058 8.00957 15.5157C8.00957 17.0241 8.43134 18.4955 9.2378 19.7687L9.42783 20.0731L8.61673 23.0207L11.6572 22.2273Z" fill="#141414"/>
<path d="M6.63306 24.972L7.95862 20.1608C7.13825 18.7539 6.70721 17.1533 6.70721 15.5203C6.71185 10.4001 10.8971 6.23474 16.0418 6.23474C18.54 6.23474 20.8805 7.20343 22.6418 8.9563C24.403 10.7092 25.3717 13.0433 25.3717 15.5249C25.3717 20.6452 21.1818 24.8105 16.0418 24.8105H16.0371C14.4752 24.8105 12.9411 24.4184 11.5784 23.6804L6.63306 24.972Z" fill="#C1F11D"/>
<path d="M6.29468 25.3087L7.66659 20.3268C6.81841 18.8646 6.37347 17.2086 6.3781 15.5157C6.3781 10.2109 10.7163 5.89795 16.0417 5.89795C18.628 5.89795 21.0566 6.89893 22.8781 8.71638C24.7042 10.5338 25.71 12.9509 25.7054 15.5203C25.7054 20.825 21.3672 25.138 16.0371 25.138H16.0325C14.4149 25.138 12.8252 24.7321 11.4115 23.9663L6.29468 25.3087ZM11.6572 22.2273L11.9492 22.4026C13.182 23.1314 14.5957 23.5143 16.0371 23.5189H16.0417C20.468 23.5189 24.0739 19.9347 24.0739 15.5249C24.0739 13.3892 23.2396 11.3826 21.724 9.86958C20.2085 8.35658 18.1877 7.52627 16.0417 7.52627C11.6155 7.52166 8.00957 11.1058 8.00957 15.5157C8.00957 17.0241 8.43134 18.4955 9.2378 19.7687L9.42783 20.0731L8.61673 23.0207L11.6572 22.2273Z" fill="#141414"/>
<path fill-rule="evenodd" clip-rule="evenodd" d="M13.6268 11.4933C13.4461 11.0919 13.2561 11.0827 13.0846 11.0781C12.9455 11.0735 12.7833 11.0735 12.6211 11.0735C12.4589 11.0735 12.1993 11.1335 11.9768 11.3733C11.7544 11.6132 11.1333 12.1944 11.1333 13.3799C11.1333 14.5608 12 15.7047 12.1205 15.8662C12.241 16.0276 13.7937 18.5324 16.2455 19.4965C18.2849 20.2991 18.702 20.1377 19.1423 20.0961C19.5826 20.0546 20.5698 19.5149 20.7738 18.9522C20.9731 18.3894 20.9731 17.9097 20.9128 17.8082C20.8526 17.7067 20.6903 17.6467 20.4493 17.5268C20.2083 17.4069 19.0218 16.8257 18.7993 16.7426C18.5768 16.6642 18.4146 16.6227 18.257 16.8626C18.0948 17.1024 17.6313 17.6421 17.4923 17.8036C17.3533 17.965 17.2096 17.9835 16.9686 17.8635C16.7275 17.7436 15.9489 17.4899 15.0266 16.6688C14.3082 16.0323 13.8215 15.2435 13.6825 15.0036C13.5434 14.7637 13.6686 14.6346 13.7891 14.5146C13.8957 14.4085 14.0301 14.2333 14.1506 14.0949C14.2711 13.9565 14.3128 13.855 14.3916 13.6936C14.4704 13.5321 14.4333 13.3937 14.3731 13.2738C14.3128 13.1585 13.84 11.9684 13.6268 11.4933Z" fill="#141414"/>
</svg>
