<svg width="18" height="18" viewBox="0 0 18 18" fill="none" xmlns="http://www.w3.org/2000/svg">
<path d="M4.29163 2.3335C4.29163 3.44461 4.04481 5.41997 5.9583 7.3335C6.79162 8.16684 7.62496 8.16683 7.62496 9.41683C7.62496 10.6668 7.02059 10.8545 5.9583 11.9168C4.70829 13.1668 4.29163 15.2502 4.29163 16.0835" stroke="#7B7B7B" stroke-width="1.5" stroke-linecap="round"/>
<path d="M14.2916 2.3335C14.2916 3.44461 14.5384 5.41997 12.625 7.3335C11.7916 8.16684 10.9583 8.16683 10.9583 9.41683C10.9583 10.6668 11.5627 10.8545 12.625 11.9168C13.875 13.1668 14.2916 15.2502 14.2916 16.0835" stroke="#7B7B7B" stroke-width="1.5" stroke-linecap="round"/>
<path d="M3.45825 1.50012H15.1249" stroke="#7B7B7B" stroke-width="1.5" stroke-linecap="round"/>
<path d="M3.45825 16.5H15.1249" stroke="#7B7B7B" stroke-width="1.5" stroke-linecap="round"/>
<path d="M7.125 6.00006C7.84723 7.0834 8.56946 7.44452 9.29169 8.16675C9.29169 8.16675 10.1299 7.36904 10.7361 6.72229C11.3424 6.07554 11.4584 6.00006 11.4584 6.00006H7.125Z" fill="#7B7B7B"/>
<path d="M7.08789 14.0834C7.40271 13.1389 8.66199 12.1945 9.29163 11.25C9.29163 11.25 10.0787 12.3204 10.5509 12.8241C11.0231 13.3278 11.4954 14.0834 11.4954 14.0834H7.08789Z" fill="#7B7B7B"/>
</svg>
