<svg width="32" height="32" viewBox="0 0 32 32" fill="none" xmlns="http://www.w3.org/2000/svg">
<rect width="32" height="32" rx="8" fill="#C1F11D"/>
<path fill-rule="evenodd" clip-rule="evenodd" d="M13.5001 11C12.1194 11 11.0001 12.1192 11.0001 13.5V21.8333C11.0001 23.214 12.1194 24.3333 13.5001 24.3333H21.8334C23.2141 24.3333 24.3334 23.214 24.3334 21.8333V13.5C24.3334 12.1192 23.2141 11 21.8334 11H13.5001ZM13.5001 12.6666C13.0398 12.6666 12.6667 13.0397 12.6667 13.5V21.8333C12.6667 22.2935 13.0398 22.6666 13.5001 22.6666H21.8334C22.2937 22.6666 22.6667 22.2935 22.6667 21.8333V13.5C22.6667 13.0397 22.2937 12.6666 21.8334 12.6666H13.5001Z" fill="#141414"/>
<path d="M21.0001 8.49996C21.0001 8.03972 20.627 7.66663 20.1667 7.66663H10.1667C8.78604 7.66663 7.66675 8.78591 7.66675 10.1666V20.1666C7.66675 20.6269 8.03984 21 8.50008 21C8.96032 21 9.33341 20.6269 9.33341 20.1666V10.1666C9.33341 9.70639 9.70651 9.33329 10.1667 9.33329H20.1667C20.627 9.33329 21.0001 8.9602 21.0001 8.49996Z" fill="#141414"/>
</svg>
